/* XPM */
static char * playerOneMask06_xpm[] = {
"46 46 31 1",
" 	c None",
".	c #000000",
"+	c #110F0B",
"@	c #0B0B07",
"#	c #090907",
"$	c #050504",
"%	c #020202",
"&	c #020201",
"*	c #010100",
"=	c #010101",
"-	c #010000",
";	c #020000",
">	c #020101",
",	c #030000",
"'	c #060503",
")	c #080705",
"!	c #030303",
"~	c #030302",
"{	c #030201",
"]	c #17110C",
"^	c #100B08",
"/	c #0A0806",
"(	c #0A0805",
"_	c #040403",
":	c #000002",
"<	c #040000",
"[	c #010201",
"}	c #020302",
"|	c #000100",
"1	c #040402",
"2	c #030301",
"                                              ",
"                                              ",
"                                              ",
"                                              ",
"                                              ",
"                                              ",
"                                              ",
"                                              ",
"                                              ",
"                                              ",
"                                              ",
"             ....                             ",
"             ......                           ",
"             ......                  +@       ",
"            ........                 #$%      ",
"            .........                &**      ",
"             .........               ..*&     ",
"             ..........               ....    ",
"             ...........               ....   ",
"             ...........=              ....   ",
"              ............             .....  ",
"             ..............            ...... ",
"           ..................           ..... ",
"     ....................*..........   ...... ",
"   ......................*...--.....-.-;..... ",
"  >%.........................--...---.-,-.... ",
" ')!..................................--..... ",
" &~>........................................  ",
"...........................................   ",
"..........................................    ",
">{......................................      ",
"]^&...................................        ",
"/({...................................        ",
"_:............................;,-...          ",
" %=...........................-<,.            ",
" %=............-...............               ",
"  =............-..............                ",
"  ==..........................                ",
"   =........................                  ",
"   =....................                      ",
"    =............-.....                       ",
"    %[.........--&*...                        ",
"     }=...........|..                         ",
"     12............                           ",
"        .........                             ",
"                                              "};
