/* XPM */
static char * playerOneMask03_xpm[] = {
"46 46 30 1",
" 	c None",
".	c #0C0907",
"+	c #000000",
"@	c #050503",
"#	c #040403",
"$	c #090706",
"%	c #1E1610",
"&	c #0A0806",
"*	c #060504",
"=	c #040303",
"-	c #020202",
";	c #010001",
">	c #0E0A07",
",	c #010100",
"'	c #020201",
")	c #010101",
"!	c #010000",
"~	c #030402",
"{	c #040402",
"]	c #020101",
"^	c #030201",
"/	c #030000",
"(	c #090A07",
"_	c #12120C",
":	c #17150E",
"<	c #0B0A08",
"[	c #0F0E0A",
"}	c #050000",
"|	c #020000",
"1	c #060602",
"                                              ",
"                                              ",
"                                              ",
"                                              ",
"                                              ",
"          .++++@+                             ",
"        #$%++++&*+                            ",
"       =-;>,+++')++                           ",
"      --)+++++++++++                          ",
"      )++++++++++++++                         ",
"    ))+++++++++++++++                         ",
"    )++++++++++++!++++       +++++            ",
"   )++++++++++++++++++       ++++++           ",
"  -)+++++++++++++++++++    ++++++++           ",
" ~)+++++++++++++++++++++ ++++++++++           ",
"{'+++++++++++++++++++++++++++++++++           ",
" ++++++++++++++++++++++++++++++++++           ",
" ++++++++++++++++++++++++++++++++             ",
"+++++++++++++++++++++++++++++++++             ",
"+++++++++++++++++++++++++++++++++             ",
" +++++++++++++++++++++++++++++++              ",
" ++++++++++!++++++++++++++++++++              ",
"  ++++++++++++++++++++++++++++++              ",
"  +++++++++++++++++++++++++++++               ",
"  ++++]+++++++++++++++++++++++                ",
"   +++^++++++++++++++++++++++)                ",
"    +++++++++++++++++++++,+++                 ",
"      ++++++++++++++++++++++                  ",
"      ++++++++++++++++++++++                  ",
"        ++++++++++++++++++++                  ",
"          ++++++++++++++++++                  ",
"           +++++++++++++++/!+                 ",
"           ++++++++++++++++++                 ",
"            +++++++++++++++++                 ",
"             ++++++++++++++++         (_:     ",
"              +++!/!++++++++++       ,@<[     ",
"                 }}!+++++++!++      ++)@      ",
"                  +++++++++!|+     +++,       ",
"                   +++++++++++   +++++1       ",
"                    +++++++++!+ ++++++        ",
"                     +++++++|/++++++++        ",
"                      ++++++!!+++++++         ",
"                        ++++++++++++          ",
"                          +++++++++           ",
"                          ++++++++            ",
"                            +++ +             "};
