/* XPM */
static char * playerOneMask07_xpm[] = {
"46 46 34 1",
" 	c None",
".	c #100E0A",
"+	c #080905",
"@	c #11100B",
"#	c #0C0B08",
"$	c #050504",
"%	c #010101",
"&	c #060605",
"*	c #020201",
"=	c #010100",
"-	c #020200",
";	c #000000",
">	c #010000",
",	c #020000",
"'	c #030000",
")	c #040000",
"!	c #020202",
"~	c #040302",
"{	c #060503",
"]	c #050503",
"^	c #020101",
"/	c #070503",
"(	c #080604",
"_	c #000100",
":	c #16110C",
"<	c #0E0A07",
"[	c #030201",
"}	c #090706",
"|	c #050404",
"1	c #000001",
"2	c #030303",
"3	c #010102",
"4	c #010201",
"5	c #020302",
"                                              ",
"                                              ",
"                                              ",
"                                              ",
"                                              ",
"                            .+                ",
"                           @#$%               ",
"                            &*=-*             ",
"                             ;;;;;;           ",
"                              ;;;;;;          ",
"                               ;;;;;;;        ",
"                                ;;;;;;;       ",
"       ;;;                      ;;;;;;;       ",
"     ;;;;;;                       ;;;;;       ",
"     ;;;;;;;;;                   ;;;;;;       ",
"     ;;;;;;;;;;;;               ;>,>;;;;      ",
"     ;;;;;;;;;;;;;          ;;;>;>'>;;;;      ",
"     ;;;;;;;;;;;;;;;;    ;;;;;;>;;>;;;;       ",
"      ;;;;;;;;;;;;;;;;;;;;;;;;>;;;;;;;;       ",
"       ;;;;;;;;;;;;;;;;;;>>;;;;;;;;;;;        ",
"        ;;;;;;;;;;;;;=;;;>;;;;;;;;;;;         ",
"        ;;;;;;;;;;;;;;;;;;;;;;;;;;;;          ",
"         ;;;;;;;;;;;;;;;;;;;;;;;;;;;          ",
"         ;;;;;;;;;;;;;;;;;;;;;;;;;;;          ",
"        ;;;;;;;;;;;;;;;;;;;;;;;;;;;           ",
"      ;;;;;;;;;;;;;;;;;;;;;;;;;;;;            ",
"     ;;;;;;;;;;;;;;;;;;;;;;;;>,>;             ",
"   ;;;;;;;;;;;;;;;;;;;;;;;;;;,'),             ",
"  ;;;;;;;;;;;;;;;;;;;;;;;;;;;;>               ",
" ;;;;;;;;;;;;;;;;;;;;;;;;;;;;;                ",
" !;;;;;;;;;;;;;;;;;;;;;;;;;;;;;               ",
"~$!;;;;;;;;;;;;;;;;;;;;;;;;;;;;               ",
"{]^;;;;;;;;;;;;;;;;;;;;;;;;;;;                ",
"%%;;;;;;;;;;;;;;;;;;;;;;;;;;;                 ",
";;;;;;;;;;;;;;;;;;;;;;;;;;;;                  ",
";;;;;;;;;;;;;;;;>>;;;;;;;;                    ",
">/(_;;;;;;;;;;;;;;;;;;;;;;                    ",
" :<[;;;;;;;;;;;;;;;;;;;;;;                    ",
" }|1;;;;;;;;;;;;;;;;>;;;;                     ",
"  23%;;;;;;;;;;;;;;;^=;;                      ",
"   !%;;;;;;;;;;;;;;>>;_                       ",
"    !%%;;;;;;;;;;;;;;;;                       ",
"      %;;;;;;;;;;;;;;;                        ",
"       %;;;;;;;;;;;;;                         ",
"        34%;;;;;;;;;                          ",
"         55*;;;;;                             "};
