/* XPM */
static char * playerOneMask10_xpm[] = {
"46 46 35 1",
" 	c None",
".	c #000000",
"+	c #010100",
"@	c #030300",
"#	c #010101",
"$	c #010000",
"%	c #020000",
"&	c #080805",
"*	c #030302",
"=	c #110F0B",
"-	c #0C0B07",
";	c #050503",
">	c #0F0E0A",
",	c #030000",
"'	c #000100",
")	c #020101",
"!	c #030301",
"~	c #010201",
"{	c #020202",
"]	c #010202",
"^	c #040303",
"/	c #050504",
"(	c #040401",
"_	c #040301",
":	c #040201",
"<	c #000101",
"[	c #010102",
"}	c #060504",
"|	c #000001",
"1	c #040202",
"2	c #0B0805",
"3	c #0A0806",
"4	c #030203",
"5	c #0E0A07",
"6	c #0F0C09",
"                                              ",
"          .                                   ",
"        .......                               ",
"       .........                              ",
"     ............                             ",
"    +............                             ",
"   @#......$%$....                            ",
"  #+.....  .%%.....                           ",
" &*...     .$$......                          ",
"=-;#       $$........                         ",
" >         .$........                         ",
"           ...$.......                        ",
"           ...$.......$                       ",
"           ..........$,                       ",
"           ..........%,                       ",
"           ..........$$.                      ",
"           .$$............                    ",
"           ................                   ",
"           .................                  ",
"          ..................                  ",
"         ...+...............                  ",
"        ....................                  ",
"        .....................                 ",
"      .........................               ",
"      .........................               ",
"     ...........................              ",
"    ..........................''              ",
"   .........................$$+..             ",
"  ...........................$)$..            ",
" .............................$...            ",
".........................$.........           ",
"...................................           ",
"...................................           ",
".........  ........................           ",
" .....      .......................           ",
"            .......................           ",
"            ......................            ",
"            .....................+            ",
"             ...................#!            ",
"             ..................~{             ",
"             .................']              ",
"              .............#..#               ",
"              .#{).........#.                 ",
"               ^/(..$_:.<[#                   ",
"                }{|.1234{{                    ",
"                  ..*56}                      "};
