/* XPM */
static char * playerOneMask16_xpm[] = {
"46 46 37 1",
" 	c None",
".	c #030302",
"+	c #020201",
"@	c #010201",
"#	c #010101",
"$	c #010100",
"%	c #020200",
"&	c #000101",
"*	c #000000",
"=	c #010102",
"-	c #010202",
";	c #020203",
">	c #080606",
",	c #0F0B09",
"'	c #070604",
")	c #0B0905",
"!	c #080604",
"~	c #030202",
"{	c #010000",
"]	c #030201",
"^	c #050301",
"/	c #000100",
"(	c #020101",
"_	c #000001",
":	c #030303",
"<	c #040403",
"[	c #050403",
"}	c #020202",
"|	c #040203",
"1	c #020000",
"2	c #030000",
"3	c #070704",
"4	c #080805",
"5	c #0F0E09",
"6	c #030402",
"7	c #090906",
"8	c #0F0E0A",
"                                              ",
"         .+@#                                 ",
"       $%@#&****#=-.                          ",
"     ************&&;>,                        ",
"     **************#')!~                      ",
"    ***************{]^./*                     ",
"   *****************{(*__                     ",
"   ********************#:<                    ",
"  *********************+<[                    ",
"  *********************$}|                    ",
"  **{*******************##                    ",
"  {{({********************                    ",
"  //${****{***************                    ",
" */${{*******************                     ",
" ************************                     ",
" ***********************                      ",
" ***********************                      ",
"  *********************                       ",
"  *********************                       ",
" **********************                       ",
" **********************                       ",
"*************************                     ",
"***************************                   ",
"*****************************                 ",
"******************************                ",
" ******************************               ",
" 1{****************************               ",
" 21{***************************               ",
" 1{*********$*****************                ",
"{{**********$$$**********  *                  ",
"*********************                         ",
"**********{***                                ",
"*************                                 ",
"******{*****                                  ",
"******{****                                   ",
"**********                                    ",
"*********                                     ",
"****{{{**                                     ",
"***{111                                       ",
"****1{{                                       ",
"***{{**                                       ",
"*********                                     ",
" **********                                   ",
"  ***********+3                               ",
"  ***********.45                              ",
"   *******$+%678                              "};
