/* XPM */
static char * playerOneMask02_xpm[] = {
"46 46 26 1",
" 	c None",
".	c #040403",
"+	c #060504",
"@	c #1A140E",
"#	c #000000",
"$	c #020202",
"%	c #030302",
"&	c #010101",
"*	c #030202",
"=	c #1F1710",
"-	c #010100",
";	c #070604",
">	c #0E0B08",
",	c #030402",
"'	c #010000",
")	c #040302",
"!	c #030000",
"~	c #060000",
"{	c #020000",
"]	c #040402",
"^	c #0C0C09",
"/	c #16150E",
"(	c #090807",
"_	c #0F0E0A",
":	c #050503",
"<	c #060602",
"            .+@###                            ",
"          $%&*=####                           ",
"       &&&#-#######;#                         ",
"     &&&###########>&                         ",
"   ,$&################                        ",
"  %&##################                        ",
"  #####################                       ",
" ######################                       ",
"###################'##                        ",
"#######################                       ",
"#######################                       ",
"#######################                       ",
"#######################                       ",
"########################      #               ",
"######################## #########            ",
"#########'########################            ",
" ##)###############################           ",
" ##'##############################            ",
"  ################################            ",
"  ###############################             ",
"   ############################               ",
"   ###########################                ",
"    #########################                 ",
"     #######################                  ",
"     ######################                   ",
"     ###############-####                     ",
"     ###################&                     ",
"      #################                       ",
"      ################                        ",
"      ################                        ",
"         ''########!#                         ",
"         ~~###########                        ",
"         ############                         ",
"         ############                         ",
"          ###########                         ",
"          ########'##                         ",
"           #######{#                          ",
"           #########                          ",
"            ########       #]^/               ",
"             ####{!#  ## ###$(_               ",
"             ####''########-#:                ",
"              #############<                  ",
"              ############                    ",
"               ###-#######                    ",
"               #########                      ",
"                   ##                         "};
