/* XPM */
static char * playerOneMask15_xpm[] = {
"46 46 41 1",
" 	c None",
".	c #000000",
"+	c #010100",
"@	c #030301",
"#	c #020302",
"$	c #020201",
"%	c #010101",
"&	c #000101",
"*	c #010102",
"=	c #000001",
"-	c #010202",
";	c #050303",
">	c #000100",
",	c #010000",
"'	c #070505",
")	c #0E0B09",
"!	c #020101",
"~	c #030201",
"{	c #080704",
"]	c #0D0A06",
"^	c #0B0806",
"/	c #040301",
"(	c #070503",
"_	c #040302",
":	c #020203",
"<	c #030303",
"[	c #020301",
"}	c #040403",
"|	c #050503",
"1	c #040303",
"2	c #040000",
"3	c #020000",
"4	c #030000",
"5	c #030302",
"6	c #070805",
"7	c #020200",
"8	c #060604",
"9	c #0C0B07",
"0	c #040503",
"a	c #090906",
"b	c #0F0E0A",
"                                              ",
"                                              ",
"                                              ",
"                    ..+@#$                    ",
"                  ......%&%                   ",
"                .............                 ",
"               ...............%               ",
"              ................%*              ",
"              ................=&-;            ",
"             >,,,...............*')           ",
"             >>!,...............~{]^          ",
"            .>++,...............,/(_          ",
"           ....,................,!%>.         ",
"           .........,..............==         ",
"           .......................%:<         ",
"           .......................[}|         ",
"          ........................%11         ",
"        ..........................%!          ",
"        ............................          ",
"       ............................           ",
"       ...........................            ",
"       ..........................             ",
"       ,........................              ",
"      23.......................               ",
"     433,.....................                ",
"     ,,,.....................                 ",
"    ..........................                ",
"   ...........................                ",
"   ............................               ",
"   .............+...............              ",
"  ..............++................            ",
"  ......,....,....................            ",
"  ......,....... .................            ",
" .............       .............            ",
" ...,,,,....             .........            ",
"....333,..                   ....             ",
"...,,,,                                       ",
"......                                        ",
"......                                        ",
" .......                                      ",
" ........                                     ",
"  .......                                     ",
"    .......                                   ",
"     ...+..56                                 ",
"         7$89                                 ",
"          0ab                                 "};
