/* XPM */
static char * playerOneMask08_xpm[] = {
"46 46 34 1",
" 	c None",
".	c #0D0C08",
"+	c #060704",
"@	c #13110D",
"#	c #050504",
"$	c #010101",
"%	c #020200",
"&	c #020201",
"*	c #000000",
"=	c #0A0A07",
"-	c #030302",
";	c #010100",
">	c #010201",
",	c #020000",
"'	c #010000",
")	c #030000",
"!	c #040000",
"~	c #020202",
"{	c #000100",
"]	c #030303",
"^	c #020101",
"/	c #060503",
"(	c #040402",
"_	c #060403",
":	c #010200",
"<	c #080604",
"[	c #100C08",
"}	c #090604",
"|	c #100C09",
"1	c #050404",
"2	c #000001",
"3	c #040403",
"4	c #010102",
"5	c #030402",
"                  .+                          ",
"                 @.#$%&****                   ",
"                  =-;*********                ",
"                   >***********               ",
"                       ********               ",
"                        ********              ",
"                          *******             ",
"                          *,'****             ",
"                          ',,****             ",
"                        *'*''***              ",
"                       **'******              ",
"                      ***'******              ",
"                    *****'******              ",
"                    ************              ",
"                  ***'**********              ",
"  *******************'**********              ",
" *******************************              ",
"*****************;*************               ",
"*******************************               ",
" **************************',),               ",
" **************************')!                ",
"  ***************************'                ",
"     *************************                ",
"      ************************                ",
"       ***********************                ",
"       ***********************                ",
"       ***********************                ",
"      ***********************                 ",
"      **********************                  ",
"     ***********************                  ",
"    ************************                  ",
"   *************************                  ",
"   ****************'********                  ",
"   ****************'********                  ",
"   ~*******************''{**                  ",
"   #]'******************^*{                   ",
"   /('*****************''**                   ",
"   ~$**********************                   ",
"   ***********************                    ",
"    *$_:******************                    ",
"    *<[}'****************                     ",
"      |12$**************                      ",
"       3~4$*$***********                      ",
"          ~$$**********                       ",
"              $4>~&;                          ",
"                 5(                           "};
