/* XPM */
static char * playerOneMask12_xpm[] = {
"46 46 38 1",
" 	c None",
".	c #000000",
"+	c #010000",
"@	c #030000",
"#	c #020000",
"$	c #000100",
"%	c #010100",
"&	c #020101",
"*	c #010101",
"=	c #020200",
"-	c #020201",
";	c #040402",
">	c #030302",
",	c #040503",
"'	c #010202",
")	c #010302",
"!	c #0A0A07",
"~	c #0A0906",
"{	c #000101",
"]	c #11100B",
"^	c #100F0A",
"/	c #000001",
"(	c #010102",
"_	c #020202",
":	c #020100",
"<	c #040302",
"[	c #030203",
"}	c #040303",
"|	c #040301",
"1	c #0A0805",
"2	c #0C0908",
"3	c #050302",
"4	c #0B0805",
"5	c #100D09",
"6	c #050303",
"7	c #030303",
"8	c #040403",
"9	c #050503",
"                                              ",
"                                              ",
"                                              ",
"                                              ",
"                                              ",
"                                              ",
"                                              ",
"                                              ",
"                                              ",
"                                              ",
"                                              ",
"                                              ",
"                                              ",
"                                              ",
"    .....   ..                                ",
"   ..............+    ..                      ",
" ................+@@......                    ",
" .....+...........#+.............             ",
" .....##+........................$$...        ",
"......+#+........................$%+....      ",
".......++..+....................+%&+.....     ",
".....   +..+.....................++.......    ",
".....   ...................................   ",
"%...     ..................................   ",
"*..       .................................%  ",
"=%.        ...+.................+..........-; ",
"%..         ...............................*> ",
",>'          ...%..........................*) ",
"!~            ..%..........................{  ",
"]^            ..............................  ",
"              ..............................  ",
"              ..............................  ",
"               ............................*  ",
"               ...........................*   ",
"               ........................../(   ",
"               ..........................{_   ",
"               ........................:<[}   ",
"               .......................+|12    ",
"               ..........  ............345    ",
"               .........    .......*-..%6     ",
"               ........       ....*78_/.      ",
"               ........         ..+}9}        ",
"               .......                        ",
"               .......                        ",
"                .....                         ",
"                 ...                          "};
