/* XPM */
static char * playerOneMask13_xpm[] = {
"46 46 34 1",
" 	c None",
".	c #000100",
"+	c #000000",
"@	c #010000",
"#	c #010100",
"$	c #020101",
"%	c #020201",
"&	c #040402",
"*	c #010101",
"=	c #020202",
"-	c #020000",
";	c #030000",
">	c #000101",
",	c #000001",
"'	c #010102",
")	c #020102",
"!	c #040203",
"~	c #030201",
"{	c #080604",
"]	c #0C0908",
"^	c #0A0804",
"/	c #0F0C08",
"(	c #060402",
"_	c #070504",
":	c #040403",
"<	c #030203",
"[	c #040303",
"}	c #050503",
"|	c #030402",
"1	c #040503",
"2	c #080806",
"3	c #0A0A07",
"4	c #0C0B07",
"5	c #100F0B",
"                                              ",
"                                              ",
"                                              ",
"                                              ",
"                                              ",
"                                              ",
"                                              ",
"                                              ",
"                                              ",
"                                              ",
"                                              ",
"                                              ",
"                                              ",
"                              ..+++++++       ",
"                           +++..@++++++++     ",
"                    ++++ +++++.#$@++++++++    ",
"                  ++++++++++++@#@+++++++++%&  ",
"                  ++++++++++++++++++++++++*=  ",
"           +++@-;@+++++++++++++++++++++++++*  ",
"         +++++++-++++++++++++++++++++++++++>* ",
"      +++++++++++++++++++++++++++++++++++++++ ",
"   +++++++++++++++++++++++++++++@++++++++++++ ",
"  +++++++++++++++++++++++++++++++++++++++++++ ",
" ++++++++++++++++++++++++++++++++++++++++++++ ",
" ++++@-@++++++++++++++++++++++++++++++++++++*=",
"+++++@--@++@++++++++++++++++++++++++++++++++,'",
"++++++@@@+++++++++++++++++++++++++++++++++++>=",
"++++++  @++++++++++++++++++++++++++++++++++@)!",
"++++++    +++++@+++++++++++++++++++++++++++~{]",
" +++++       +++++#+++++++++++++++++++++++@~^/",
" +++++         +++#++++++++++++++++++++++++$(_",
" ++++            +++++++++++++++++++++++++++.*",
"  #++             +++++++++++++++++++++++%*,+ ",
"  %#++            ++++++++++++++++++++++*::<  ",
"   #+>             +++++++++++++++++++++*[}   ",
"   |&1             ++++++++++++  +++++++@     ",
"   234              ++++++++++                ",
"    5               ++++++++++                ",
"                     +++++++++                ",
"                     +++++++++                ",
"                      ++++++++                ",
"                       +++++++                ",
"                       +++++++                ",
"                       ++++++                 ",
"                        +++++                 ",
"                          ++                  "};
