/* XPM */
static char * playerOneMask05_xpm[] = {
"46 46 28 1",
" 	c None",
".	c #000000",
"+	c #010101",
"@	c #060503",
"#	c #080705",
"$	c #030303",
"%	c #020201",
"&	c #040302",
"*	c #12100C",
"=	c #100F0B",
"-	c #090907",
";	c #080805",
">	c #18120D",
",	c #0E0A07",
"'	c #010100",
")	c #020202",
"!	c #090705",
"~	c #040403",
"{	c #010102",
"]	c #020000",
"^	c #010000",
"/	c #030000",
"(	c #020302",
"_	c #030402",
":	c #040402",
"<	c #040000",
"[	c #020100",
"}	c #000100",
"                                              ",
"                                              ",
"                                              ",
"                                              ",
"                                              ",
"                                              ",
"                                              ",
"                                              ",
"                                              ",
"                                              ",
"                                              ",
"                                              ",
"                                              ",
"                                              ",
"                                              ",
"                    ....                      ",
"                    .....                     ",
"                   .......                    ",
"                   .......                    ",
"                   .......                    ",
"                   .......                    ",
"                  .........                   ",
"                  .........                   ",
"     .+....       ..........                  ",
"    @#$......... ...........                  ",
"   .%&%.....................                  ",
"  ..........................              *=  ",
" &..........................+             -;  ",
" >,'.........................            %%)  ",
" !,+.........................            ..'  ",
"~{............................            .'% ",
" )+........................'...           ... ",
" +...............................        .....",
" +.............................]..       .....",
" +............................^^.....    .....",
" +....................................   .....",
" +.................................^^^........",
" +..................................^..]^.....",
" +...........^........................^/^.....",
" (+....................................^..... ",
" _+.........................................  ",
" :%.........................................  ",
"   ........................./].............   ",
"   ........^^^..............<<......          ",
"    ........[%.............   .               ",
"      .......}.....  .....                    "};
