/* XPM */
static char * playerOneMask04_xpm[] = {
"46 46 37 1",
" 	c None",
".	c #000000",
"+	c #060503",
"@	c #080705",
"#	c #030202",
"$	c #020101",
"%	c #040302",
"&	c #000101",
"*	c #0F0C09",
"=	c #19120D",
"-	c #040403",
";	c #060504",
">	c #130E0A",
",	c #050402",
"'	c #030303",
")	c #000001",
"!	c #010000",
"~	c #020202",
"{	c #010101",
"]	c #020302",
"^	c #030402",
"/	c #030301",
"(	c #020201",
"_	c #010100",
":	c #15140D",
"<	c #090A07",
"[	c #0E0D0A",
"}	c #0F0E0A",
"|	c #030302",
"1	c #060604",
"2	c #070704",
"3	c #020000",
"4	c #020200",
"5	c #030201",
"6	c #040000",
"7	c #030000",
"8	c #050000",
"                                              ",
"                                              ",
"                                              ",
"                                              ",
"                                              ",
"                                              ",
"                                              ",
"                                              ",
"                                              ",
"                                              ",
"                                              ",
"                                              ",
"                           ...                ",
"          .              ......               ",
"      ...+@#..           ......               ",
"     #...$%&....        .......               ",
"    *=...........       ........              ",
"   -;>,...........     ........               ",
"   ')$.......!......  .........               ",
"   ~{..........................               ",
"  ~{...........................               ",
"  {............................               ",
"  {............................               ",
" {.............................               ",
" {.............................               ",
" {............................                ",
"]{............................{               ",
"^{............................{               ",
"/.............................                ",
"(.........................._..                ",
" ...........!..................            :  ",
" ..............................           <[} ",
" .............................!.          |12 ",
"  ...........................!3..        ..{  ",
"   .....!!........................       ..4  ",
"    ...._5.........................      ..(  ",
"     ...._.........................    .....  ",
"       .........................!!!.   .....  ",
"          .......................!!..  .....  ",
"                ........!...........!......   ",
"                 ......!6!.........37......   ",
"                   ... 68!.........!!......   ",
"                         .................    ",
"                           ...............    ",
"                              .  .......      ",
"                                     ..       "};
