/* XPM */
static char * playerOneMask09_xpm[] = {
"46 46 36 1",
" 	c None",
".	c #000000",
"+	c #040503",
"@	c #010101",
"#	c #020200",
"$	c #0D0C08",
"%	c #060604",
"&	c #0E0D09",
"*	c #020000",
"=	c #010000",
"-	c #030000",
";	c #040000",
">	c #010100",
",	c #000100",
"'	c #020101",
")	c #040403",
"!	c #030303",
"~	c #060504",
"{	c #050502",
"]	c #050403",
"^	c #020202",
"/	c #000001",
"(	c #050303",
"_	c #070503",
":	c #040201",
"<	c #010201",
"[	c #030301",
"}	c #0A0705",
"|	c #100C08",
"1	c #050404",
"2	c #010102",
"3	c #010202",
"4	c #020302",
"5	c #030402",
"6	c #100C09",
"7	c #030302",
"                 ......                       ",
"               .........                      ",
"           +@#@...........                    ",
"          $%@.............                    ",
"          &%@.............                    ",
"                    .*=....                   ",
"                    .**....                   ",
"                    ===....                   ",
"                   .=......                   ",
"                  ..=.......                  ",
"                  ...=......                  ",
"                  ...=......                  ",
"                 ............                 ",
"                 ............                 ",
"                 .=..........                 ",
"                ..=........=*                 ",
"               ...........=-;                 ",
"             .............=**                 ",
"           .....>............                 ",
"        ......................                ",
"      .........................               ",
"    ...........................               ",
"  .............................               ",
" ..............................               ",
"..............................                ",
"..............................                ",
"...............................               ",
"  ..............................              ",
"   .. ..........................              ",
"          ......................              ",
"          ......................              ",
"          ..................==,,              ",
"          ..............=....'..              ",
"          ...................==..             ",
"         ........................             ",
"         ........................             ",
"         ........................             ",
"         .......................              ",
"         .......................              ",
"         .......................              ",
"         ')!=..................               ",
"          ~{>..................               ",
"          ]^/..,............>                 ",
"           ...(_:....@...,<^[                 ",
"            .@}|1/2@.@..@345                  ",
"               6~7^^^                         "};
