/* XPM */
static char * playerOneMask14_xpm[] = {
"46 46 37 1",
" 	c None",
".	c #000000",
"+	c #020201",
"@	c #030302",
"#	c #010101",
"$	c #010201",
"%	c #000100",
"&	c #010000",
"*	c #000101",
"=	c #020101",
"-	c #010100",
";	c #020202",
">	c #000001",
",	c #010102",
"'	c #030202",
")	c #050304",
"!	c #080606",
"~	c #040302",
"{	c #0A0806",
"]	c #0F0C09",
"^	c #030201",
"/	c #0A0804",
"(	c #0C0906",
"_	c #030000",
":	c #020000",
"<	c #030303",
"[	c #030203",
"}	c #040403",
"|	c #050503",
"1	c #040303",
"2	c #020200",
"3	c #050604",
"4	c #040503",
"5	c #080805",
"6	c #0C0B07",
"7	c #0D0C09",
"8	c #11100B",
"                                              ",
"                                              ",
"                                              ",
"                                              ",
"                                              ",
"                                              ",
"                                              ",
"                                              ",
"                                              ",
"                                              ",
"                           .......            ",
"                          .........+@         ",
"                        ............#$        ",
"                       %%&&..........*#       ",
"                     ..%%=&............       ",
"                    ....--&.............      ",
"                    ....&................     ",
"                   .....................#;    ",
"                ........................>,    ",
"              ..............&............*'   ",
"              ...........................,)!  ",
"             ...........................&~{]  ",
"             &..........................&^/(  ",
"           __&..........................&=~~  ",
"         .&&:&.............................%  ",
"        ..................................>>  ",
"      ..................................-@<[  ",
"      ..................................#}|   ",
"     ...................................#'1   ",
"    .....................................&    ",
"   .....................................      ",
" .........&...........................        ",
" ....&&...........-...............            ",
" ...&:::&......&..--.............             ",
" ....&&&&.......................              ",
".......           ..............              ",
"......              .............             ",
" ......              ............             ",
" ......               ...........             ",
"  .....                ...........            ",
"   .....                 .........            ",
"   .....                  ........            ",
"     +-.>                   ......            ",
"      2-@3                  ......            ",
"       456                     ..             ",
"        78                                    "};
