/* XPM */
static char * playerOneMask11_xpm[] = {
"46 46 37 1",
" 	c None",
".	c #000000",
"+	c #010000",
"@	c #020000",
"#	c #010100",
"$	c #040000",
"%	c #010101",
"&	c #030000",
"*	c #020200",
"=	c #020201",
"-	c #090906",
";	c #060604",
">	c #020202",
",	c #000001",
"'	c #0F0E09",
")	c #0C0B07",
"!	c #060704",
"~	c #000100",
"{	c #020101",
"]	c #010302",
"^	c #000101",
"/	c #010102",
"(	c #020100",
"_	c #050402",
":	c #060403",
"<	c #020103",
"[	c #030202",
"}	c #040202",
"|	c #0B0805",
"1	c #0D0A08",
"2	c #070605",
"3	c #050504",
"4	c #040402",
"5	c #0A0705",
"6	c #100D09",
"7	c #050403",
"8	c #040303",
"                                              ",
"                                              ",
"                                              ",
"                                              ",
"                                              ",
"                                              ",
"                                              ",
"         ..                                   ",
"      .......                                 ",
"     .........                                ",
"    ............                              ",
"    ......+........                           ",
"   ......+@@........                          ",
"  ........@+.........+                        ",
"  #....   ++.........@$                       ",
"  %....   ++.........@&@ .                    ",
" *#..     ...++......++.....                  ",
" =..       ..................                 ",
"-;>,       ...................                ",
"')!         ..................                ",
"            .....................             ",
"            ..+....................           ",
"             ......................~          ",
"             .....................~~..        ",
"             ..#.................+##+..       ",
"             ..#.................++{....      ",
"             ...........................      ",
"            .............................     ",
"            ...................+..........    ",
"            ...................+..........    ",
"           ...............................    ",
"           ...............................    ",
"           ..............................#    ",
"          ...............................=    ",
"          ..............................%>    ",
"          ..............................%]    ",
"         ...............................^     ",
"         ...............................      ",
"         .........   ................%..      ",
"         .......     .................%       ",
"         ......       ..............,%        ",
"         .....         ..........+.^/         ",
"                        ........(_:<[         ",
"                        ...%>=..}|12          ",
"                          .[34,.=56           ",
"                           [78^..             "};
