/* XPM */
static char * playerOneMask01_xpm[] = {
"46 46 22 1",
" 	c None",
".	c #050402",
"+	c #040403",
"@	c #030302",
"#	c #020202",
"$	c #010101",
"%	c #040303",
"&	c #030303",
"*	c #000000",
"=	c #010100",
"-	c #010000",
";	c #33261B",
">	c #120E0A",
",	c #040302",
"'	c #0C0000",
")	c #030000",
"!	c #060000",
"~	c #0B0B08",
"{	c #0D0C0B",
"]	c #16150E",
"^	c #050502",
"/	c #0B0A07",
"     .+@#$$$$$#@%&&                           ",
"     **********=-*;**                         ",
"   *******************                        ",
"  *********************                       ",
"  *********************                       ",
" *********************>*                      ",
" ***********************                      ",
"************************                      ",
"************************                      ",
"************************                      ",
"********************-***                      ",
"**,********************                       ",
"********-**************                       ",
"***********************                       ",
"**********************                        ",
"**********************                        ",
"**********************                        ",
" *********************                        ",
" ************************                     ",
" ****************************                 ",
"******************************                ",
"*******************************               ",
"*******************************               ",
"*******************************               ",
"******************************                ",
" ****************************                 ",
"  ************=**********                     ",
" *'*******************                        ",
" ****************$                            ",
" **************                               ",
" **********)**                                ",
" ************                                 ",
" ************                                 ",
" ***********                                  ",
" **********                                   ",
"  ******)**                                   ",
"  ********                                    ",
"  *******                                     ",
"  ****!**                                     ",
"  ******                                      ",
"  **********                                  ",
"  **************@~                            ",
"   **=**********&{]                           ",
"     *********^*@/                            ",
"     ********                                 ",
"                                              "};
