/* XPM */
static char * playerMask02_xpm[] = {
"46 46 2 1",
" 	c None",
".	c #000000",
"                            ...               ",
"                          ......              ",
"                          ......              ",
"                         ........             ",
"     ...                ........              ",
"     ...               .........              ",
"     ...               .........              ",
"    ...              ...........              ",
"   ....              ...........              ",
"  .....              ..........               ",
"  ....             .............              ",
" ......            .............              ",
" .....           ..............               ",
" .....       ..................               ",
"...... . ......................               ",
"...............................               ",
" ..............................               ",
" ..............................               ",
" ..............................               ",
"  ..............................           .. ",
"    .............................         ... ",
"      ...........................         ... ",
"        ..........................       ...  ",
"        ...........................      ...  ",
"           ........................     ....  ",
"             .. ....................   .....  ",
"                ..................... ......  ",
"                ..................... .....   ",
"                  .........................   ",
"                    .  ....................   ",
"                         .................    ",
"                            ..............    ",
"                                 ...... .     ",
"                                   ....       ",
"                                              ",
"                                              ",
"                                              ",
"                                              ",
"                                              ",
"                                              ",
"                                              ",
"                                              ",
"                                              ",
"                                              ",
"                                              ",
"                                              "};
