/* XPM */
static char * playerTwo07_xpm[] = {
"46 46 572 2",
"  	c None",
". 	c #575341",
"+ 	c #1A1400",
"@ 	c #605C4C",
"# 	c #D0CEC9",
"$ 	c #4E4938",
"% 	c #474338",
"& 	c #484433",
"* 	c #3C3723",
"= 	c #827F72",
"- 	c #F5F5F4",
"; 	c #F7F7FA",
"> 	c #7F7C74",
", 	c #5D5C56",
"' 	c #848483",
") 	c #7C7B77",
"! 	c #464231",
"~ 	c #1C1500",
"{ 	c #656152",
"] 	c #DBDAD6",
"^ 	c #F2F2F2",
"/ 	c #87856C",
"( 	c #3F3B27",
"_ 	c #55534C",
": 	c #89898A",
"< 	c #959596",
"[ 	c #787671",
"} 	c #403C29",
"| 	c #767264",
"1 	c #EBEAE6",
"2 	c #FFFFFF",
"3 	c #F1F1E1",
"4 	c #373061",
"5 	c #231D4C",
"6 	c #4C4941",
"7 	c #6A6966",
"8 	c #868688",
"9 	c #74726B",
"0 	c #4A4635",
"a 	c #413C29",
"b 	c #A9A79F",
"c 	c #828069",
"d 	c #E1E0D9",
"e 	c #F8F8FF",
"f 	c #F7F5FF",
"g 	c #F2F1FF",
"h 	c #453FFF",
"i 	c #1E1688",
"j 	c #3F3A04",
"k 	c #454136",
"l 	c #686868",
"m 	c #939394",
"n 	c #7D7C78",
"o 	c #403C2A",
"p 	c #3B371F",
"q 	c #AEAC93",
"r 	c #FFFFFC",
"s 	c #E8E5FF",
"t 	c #BEB8FF",
"u 	c #BCB8FF",
"v 	c #4B46FF",
"w 	c #353AFF",
"x 	c #0000F7",
"y 	c #211A92",
"z 	c #342E17",
"A 	c #48463A",
"B 	c #686766",
"C 	c #88898A",
"D 	c #9C9D9F",
"E 	c #6A6860",
"F 	c #4E4821",
"G 	c #A29F91",
"H 	c #BDB7FA",
"I 	c #7C75FF",
"J 	c #1B29FF",
"K 	c #070BFF",
"L 	c #0010FF",
"M 	c #0C2DFF",
"N 	c #1513DD",
"O 	c #302854",
"P 	c #38331E",
"Q 	c #464235",
"R 	c #5E5C57",
"S 	c #6A6961",
"T 	c #61605A",
"U 	c #332E17",
"V 	c #363028",
"W 	c #1713A0",
"X 	c #7170FE",
"Y 	c #312DFF",
"Z 	c #1834FF",
"` 	c #000CFF",
" .	c #0528FF",
"..	c #0F34FF",
"+.	c #123EFF",
"@.	c #0C2EFF",
"#.	c #1715C0",
"$.	c #3F3903",
"%.	c #423D2B",
"&.	c #5C5B58",
"*.	c #4A473B",
"=.	c #3D3927",
"-.	c #3B361A",
";.	c #261D87",
">.	c #0612F6",
",.	c #1336FF",
"'.	c #0323FF",
").	c #0B31FF",
"!.	c #1038FF",
"~.	c #113AFF",
"{.	c #1037FF",
"].	c #0E31FF",
"^.	c #1A1AC1",
"/.	c #444030",
"(.	c #54534B",
"_.	c #56554F",
":.	c #35301B",
"<.	c #1C1487",
"[.	c #0705FF",
"}.	c #0E2EFF",
"|.	c #1036FF",
"1.	c #1138FF",
"2.	c #0E1EFE",
"3.	c #21169C",
"4.	c #3E3A28",
"5.	c #626260",
"6.	c #484538",
"7.	c #545042",
"8.	c #545141",
"9.	c #545144",
"0.	c #403C63",
"a.	c #1006FA",
"b.	c #0F2DFE",
"c.	c #1039FF",
"d.	c #0F35FF",
"e.	c #103CFE",
"f.	c #0F38FF",
"g.	c #111CEB",
"h.	c #332A42",
"i.	c #433F2F",
"j.	c #3F3B29",
"k.	c #29230B",
"l.	c #423E2C",
"m.	c #6E6C65",
"n.	c #4B4738",
"o.	c #74736B",
"p.	c #62603F",
"q.	c #352C7C",
"r.	c #1310CA",
"s.	c #0B1FFF",
"t.	c #103BFF",
"u.	c #0D1FFF",
"v.	c #0D1BF4",
"w.	c #0E1FED",
"x.	c #0E19FF",
"y.	c #0D12F4",
"z.	c #37332A",
"A.	c #575447",
"B.	c #888886",
"C.	c #6C6A62",
"D.	c #68665D",
"E.	c #73726C",
"F.	c #4F4B35",
"G.	c #5A5748",
"H.	c #2F2945",
"I.	c #0F06EF",
"J.	c #0B11FF",
"K.	c #0D01B1",
"L.	c #35314B",
"M.	c #3B3259",
"N.	c #21139A",
"O.	c #0A10E7",
"P.	c #1617D4",
"Q.	c #2B2568",
"R.	c #413D2B",
"S.	c #6E6D66",
"T.	c #504D3E",
"U.	c #6F6D66",
"V.	c #4A4636",
"W.	c #6F6E67",
"X.	c #524F42",
"Y.	c #454213",
"Z.	c #28206C",
"`.	c #110992",
" +	c #3E375D",
".+	c #BDBCAF",
"++	c #C7C7AC",
"@+	c #524E5A",
"#+	c #0900F3",
"$+	c #1E14AF",
"%+	c #362F32",
"&+	c #73726B",
"*+	c #615E53",
"=+	c #82817E",
"-+	c #5A574C",
";+	c #5D5A4F",
">+	c #777671",
",+	c #4C493D",
"'+	c #5F5E51",
")+	c #504D44",
"!+	c #B1B0B5",
"~+	c #A8A782",
"{+	c #FBFBF7",
"]+	c #F1F1F1",
"^+	c #615D56",
"/+	c #0C03F9",
"(+	c #2B2465",
"_+	c #75736D",
":+	c #625F4E",
"<+	c #585548",
"[+	c #5A574B",
"}+	c #5D5A50",
"|+	c #7F7E7B",
"1+	c #595243",
"2+	c #725F4D",
"3+	c #8A8584",
"4+	c #504E43",
"5+	c #EADAD0",
"6+	c #E9EAEC",
"7+	c #858262",
"8+	c #3B364E",
"9+	c #282222",
"0+	c #3A341F",
"a+	c #231A84",
"b+	c #332D79",
"c+	c #575531",
"d+	c #6F6E66",
"e+	c #44402E",
"f+	c #549CBC",
"g+	c #338FBB",
"h+	c #42809A",
"i+	c #4AB6E6",
"j+	c #7FD8FF",
"k+	c #FFFDFD",
"l+	c #E3E3E2",
"m+	c #9D9B91",
"n+	c #352F1B",
"o+	c #393225",
"p+	c #221797",
"q+	c #0A0DFF",
"r+	c #140CF0",
"s+	c #39335B",
"t+	c #555240",
"u+	c #514F38",
"v+	c #5B5950",
"w+	c #6F675B",
"x+	c #7F99A6",
"y+	c #23ABEE",
"z+	c #018ACC",
"A+	c #008ACE",
"B+	c #048AC8",
"C+	c #00A2F6",
"D+	c #99E0FE",
"E+	c #F2FCFF",
"F+	c #E3E3E5",
"G+	c #86847A",
"H+	c #474222",
"I+	c #2E2C98",
"J+	c #0209FD",
"K+	c #0E2FFF",
"L+	c #0D22FF",
"M+	c #140ECE",
"N+	c #251A62",
"O+	c #4B481B",
"P+	c #666566",
"Q+	c #73675E",
"R+	c #2E95C4",
"S+	c #0095E0",
"T+	c #007AB1",
"U+	c #0079B0",
"V+	c #0072A5",
"W+	c #0080C3",
"X+	c #12A4E8",
"Y+	c #7DDBFF",
"Z+	c #F1ECE8",
"`+	c #79776D",
" @	c #1A1300",
".@	c #423D1D",
"+@	c #928E8C",
"@@	c #5F57F7",
"#@	c #0604FF",
"$@	c #103CFF",
"%@	c #0E25FF",
"&@	c #1008F1",
"*@	c #221B3F",
"=@	c #545349",
"-@	c #796858",
";@	c #258EBD",
">@	c #0085C6",
",@	c #0075AA",
"'@	c #007AB2",
")@	c #0079AF",
"!@	c #007EB8",
"~@	c #03A3F2",
"{@	c #88DDFF",
"]@	c #FBFDFC",
"^@	c #CBC9C7",
"/@	c #5C5849",
"(@	c #433F2B",
"_@	c #B0AEA5",
":@	c #DAD9FF",
"<@	c #413BFF",
"[@	c #0F29FF",
"}@	c #080EFF",
"|@	c #1F169F",
"1@	c #888488",
"2@	c #CACDCC",
"3@	c #74B9D9",
"4@	c #0083C4",
"5@	c #0076AB",
"6@	c #0075A9",
"7@	c #007CBC",
"8@	c #1EA9E7",
"9@	c #C6F2FF",
"0@	c #BBBAB7",
"a@	c #3D3825",
"b@	c #969489",
"c@	c #FFFFF8",
"d@	c #857FFF",
"e@	c #0000FF",
"f@	c #0C29FF",
"g@	c #1035FF",
"h@	c #0D1DFF",
"i@	c #1104C7",
"j@	c #3F3959",
"k@	c #C0BEAB",
"l@	c #84DEFF",
"m@	c #13A2EA",
"n@	c #007EBD",
"o@	c #0078AD",
"p@	c #007BB5",
"q@	c #26ABEC",
"r@	c #E3F9FF",
"s@	c #FFFEFB",
"t@	c #B3B2AE",
"u@	c #342F1A",
"v@	c #0F0900",
"w@	c #868276",
"x@	c #3A30FF",
"y@	c #1135FF",
"z@	c #0E1CFF",
"A@	c #332E43",
"B@	c #ADAB89",
"C@	c #F0FCFF",
"D@	c #98DFFF",
"E@	c #02A4EE",
"F@	c #007FC0",
"G@	c #0077AC",
"H@	c #008CD5",
"I@	c #33BBF8",
"J@	c #CDF5FF",
"K@	c #F7F0EF",
"L@	c #9B968D",
"M@	c #514E3E",
"N@	c #FBFBFB",
"O@	c #E6E4FF",
"P@	c #1D17FF",
"Q@	c #0A2BFF",
"R@	c #0D21EA",
"S@	c #473D9A",
"T@	c #C4C49E",
"U@	c #F5F6FA",
"V@	c #EEEEEE",
"W@	c #FFFEFF",
"X@	c #7EDAFF",
"Y@	c #10A4EF",
"Z@	c #007DBA",
"`@	c #0079B2",
" #	c #0089CE",
".#	c #33BCFD",
"+#	c #C3F1FF",
"@#	c #FFF2EB",
"##	c #B4B4B2",
"$#	c #181200",
"%#	c #5F5B4B",
"&#	c #D1D0CC",
"*#	c #FFFFFE",
"=#	c #A6A3FF",
"-#	c #1417FF",
";#	c #0F2AFF",
">#	c #0D1CF9",
",#	c #1D116E",
"'#	c #56516C",
")#	c #4A463B",
"!#	c #95948B",
"~#	c #DFE0DB",
"{#	c #FBFFFF",
"]#	c #7FD9FF",
"^#	c #02A5ED",
"/#	c #32A7DD",
"(#	c #008DDA",
"_#	c #0088CE",
":#	c #20B7F9",
"<#	c #D6F6FF",
"[#	c #B6B2AD",
"}#	c #423B2B",
"|#	c #838073",
"1#	c #F0F0EF",
"2#	c #E7E6FF",
"3#	c #2A23FF",
"4#	c #0309FF",
"5#	c #103AFF",
"6#	c #0D2BFF",
"7#	c #0E14F9",
"8#	c #1004F0",
"9#	c #0E05B0",
"0#	c #3C375E",
"a#	c #8D8B77",
"b#	c #F4F5F8",
"c#	c #F2F0EE",
"d#	c #FFFAF9",
"e#	c #F1FDFF",
"f#	c #DDFAFF",
"g#	c #1BB8FF",
"h#	c #008ACA",
"i#	c #0076A9",
"j#	c #007DB6",
"k#	c #00A0EF",
"l#	c #5CCFFF",
"m#	c #D8D3CD",
"n#	c #807E75",
"o#	c #2D2812",
"p#	c #686354",
"q#	c #ECECEE",
"r#	c #E7E7D3",
"s#	c #E8E7F7",
"t#	c #3E34FF",
"u#	c #0D20FF",
"v#	c #0D2CFF",
"w#	c #0914FF",
"x#	c #121BEB",
"y#	c #131DE2",
"z#	c #0F0FFD",
"A#	c #1D14B5",
"B#	c #231C92",
"C#	c #332E2D",
"D#	c #36311E",
"E#	c #736F64",
"F#	c #77756B",
"G#	c #C7C4C1",
"H#	c #FBFCFD",
"I#	c #FFFFFA",
"J#	c #B8EEFF",
"K#	c #45C0F5",
"L#	c #008BD6",
"M#	c #0073A6",
"N#	c #0080BC",
"O#	c #6FD3FF",
"P#	c #FFFFFB",
"Q#	c #E7E7EA",
"R#	c #656153",
"S#	c #4E4A37",
"T#	c #E7E6E4",
"U#	c #EFF0F3",
"V#	c #817F6D",
"W#	c #605B7C",
"X#	c #2F2BFF",
"Y#	c #0000F8",
"Z#	c #1616BD",
"`#	c #1916C6",
" $	c #1A1CC2",
".$	c #211A94",
"+$	c #3B3519",
"@$	c #2B1E6D",
"#$	c #2C2568",
"$$	c #3F3A02",
"%$	c #5D5A4B",
"&$	c #B5B5B2",
"*$	c #B7B4AF",
"=$	c #F2F1F0",
"-$	c #16B5FF",
";$	c #00A2F4",
">$	c #039DE7",
",$	c #009CF7",
"'$	c #A0E0FF",
")$	c #DBDBDB",
"!$	c #6F6C5F",
"~$	c #161000",
"{$	c #5D5949",
"]$	c #87857E",
"^$	c #332D18",
"/$	c #221C3A",
"($	c #221B7C",
"_$	c #1C15B7",
":$	c #342C43",
"<$	c #3E3708",
"[$	c #362E32",
"}$	c #28230D",
"|$	c #3B3724",
"1$	c #A4A19B",
"2$	c #FDF3EB",
"3$	c #B2EAFF",
"4$	c #98E0FF",
"5$	c #85DBFF",
"6$	c #63CEFF",
"7$	c #9CDFFF",
"8$	c #F5F6F6",
"9$	c #B9B9B7",
"0$	c #494432",
"a$	c #393525",
"b$	c #605F59",
"c$	c #61615F",
"d$	c #48452F",
"e$	c #3B3713",
"f$	c #4B4736",
"g$	c #9B988F",
"h$	c #D1CBC6",
"i$	c #D6DBDD",
"j$	c #FFFEFC",
"k$	c #F3FCFF",
"l$	c #F2F3F5",
"m$	c #ABAAA5",
"n$	c #696559",
"o$	c #7B7B77",
"p$	c #88898B",
"q$	c #666765",
"r$	c #4A473C",
"s$	c #342F17",
"t$	c #241F08",
"u$	c #7E7B71",
"v$	c #D7D7D6",
"w$	c #EAEBEB",
"x$	c #F4F3F3",
"y$	c #767368",
"z$	c #7F7F7B",
"A$	c #969798",
"B$	c #868687",
"C$	c #696869",
"D$	c #454133",
"E$	c #38331F",
"F$	c #3F3A27",
"G$	c #595546",
"H$	c #6B685B",
"I$	c #B3B2AF",
"J$	c #F1F2F3",
"K$	c #F9F9FB",
"L$	c #716E61",
"M$	c #45412F",
"N$	c #787873",
"O$	c #929394",
"P$	c #868689",
"Q$	c #696866",
"R$	c #49463B",
"S$	c #0E0700",
"T$	c #B0AEAB",
"U$	c #EBEBEC",
"V$	c #EDEDEF",
"W$	c #BFBFBE",
"X$	c #5F5C4E",
"Y$	c #454130",
"Z$	c #72706A",
"`$	c #969699",
" %	c #858585",
".%	c #56544D",
"+%	c #4B4735",
"@%	c #9E9C96",
"#%	c #817E73",
"$%	c #474331",
"%%	c #1E1800",
"&%	c #413C2A",
"*%	c #7D7C77",
"=%	c #9A9B9D",
"-%	c #6F6D67",
";%	c #69665E",
">%	c #524F44",
",%	c #5D5D5B",
"'%	c #342F19",
")%	c #4B483C",
"!%	c #61605E",
"~%	c #3D3726",
"{%	c #35301A",
"]%	c #4F4D43",
"                                                                                            ",
"                                                                                            ",
"                                                                                            ",
"                                                                                            ",
"                                                                                            ",
"                                                        .                                   ",
"                                                    + @ # $ % & *                           ",
"                                                    = - ; > , ' ) !                         ",
"                                                ~ { ] ^ / ( _ : < [ }                       ",
"                                                | 1 2 3 4 5 6 7 8 < 9 0                     ",
"                                          a b c d e f g h i j k l 8 m n o                   ",
"                                        p q r s t u v w x y   z A B C D E                   ",
"                                      F G H I I J K L M N O     P Q R S T U                 ",
"                                    V W X Y Z `  ...+.@.#.$.          %.&.*.=.              ",
"                                  -.;.>.,.'.).!.~.{.{.].^.              /.(._.:.            ",
"                                  <.[.}.{.|.1.|.|.|.!.2.3.                4.5.6.            ",
"                            7.8.9.0.a.b.|.!.c.!.d.e.f.g.h.                  i.j.            ",
"                        k.l.m.n.o.p.q.r.s.t.u.v.w.x.|.y.z.                                  ",
"                        A.B.C.D.E.F.G.H.I.J.K.L.M.N.O.P.Q.                                  ",
"                      R.S.T.! U.V.W.X.Y.Z.`. +.+++@+#+$+%+                                  ",
"                      R.&+*+=+-+;+>+,+'+)+!+~+{+]+^+/+(+                                    ",
"                      _+:+<+[+}+|+1+2+3+4+5+2 2 6+7+8+9+                                    ",
"                  0+a+b+c+|+A.d+e+1+f+g+h+i+j+2 k+l+m+n+                                    ",
"                o+p+q+r+s+t+u+v+w+x+y+z+A+B+C+D+E+2 F+G+                                    ",
"              H+I+J+K+L+M+N+O+P+Q+R+S+T+U+V+W+X+Y+2 Z+`+ @                                  ",
"            .@+@@@#@$@c.%@&@*@=@-@;@>@,@'@U+)@!@~@{@]@^@/@                                  ",
"          (@_@:@<@[@c.t.$@}@|@1@2@3@4@5@T+T+T+6@7@8@9@2 0@a@                                ",
"          b@c@d@e@f@!.g@h@i@j@k@2 l@m@n@o@U+T+)@p@q@r@s@t@u@                                ",
"        v@w@g x@K y@|.!.z@A@B@2 2 C@D@E@F@,@T+T+G@H@I@J@K@L@M@                              ",
"        = N@O@P@Q@~.|.c.R@S@T@U@V@W@2 X@Y@Z@`@'@6@`@ #.#+#@###a@                            ",
"    $#%#&#*#=#-#;#|.|.{.>#,#'#)#!#~#*#{#]#^#/#(#,@)@5@_#:#<#[#}#                            ",
"    |#1#2 2#3#4#t.5#!.f.6#7#8#9#0#a#b#c#d#e#f#g#h#`@i#j#k#l#m#n#o#                          ",
"  p#] q#r#s#t#u#c.v#w#x#y#z#A#B#C#D#E#F#G#H#I#J#K#L#M#N#~@O#P#Q#R#                          ",
"S#T#U#V#W#X#Y#Z#`# $.$+$@$#$$$          %$&$*$=$r@-$;$>$,$'$2 )$!$~$                        ",
"  {$]$^$/$($_$:$  <$[$                  }$  |$1$2$3$4$5$6$7$2 8$9$0$                        ",
"  a$b$c$d$e$                                  f$g$h$i$j$2 k$2 2 l$m$n$                      ",
"  l.o$p$q$r$s$                                    t$u$v$w$x$2 2 2 ]+y$                      ",
"  %.z$A$B$C$D$E$                                    F$G$H$I$J$2 2 K$L$                      ",
"    M$N$O$P$Q$R$                                        S$G$T$U$V$W$X$                      ",
"      Y$Z$`$ %.%                                            +%@%#%$%%%                      ",
"        &%*%=%-%/.                                                                          ",
"          V.;%>%,%4.                                                                        ",
"              '%_.(./.                                                                      ",
"                =.)%!%~%                                                                    ",
"                  {%]%i.                                                                    ",
"                                                                                            "};
