/* XPM */
static char * playerTwo06_xpm[] = {
"46 46 667 2",
"  	c None",
". 	c #484533",
"+ 	c #45412E",
"@ 	c #555040",
"# 	c #828076",
"$ 	c #868379",
"% 	c #6C695D",
"& 	c #848178",
"* 	c #BBBAB7",
"= 	c #E6E6E6",
"- 	c #D4D3D0",
"; 	c #908F86",
"> 	c #524E3F",
", 	c #99978F",
"' 	c #F6F7F9",
") 	c #FFFFFF",
"! 	c #D1D0CE",
"~ 	c #676458",
"{ 	c #4A4534",
"] 	c #8D8B81",
"^ 	c #E7E6E6",
"/ 	c #EAEAE9",
"( 	c #999892",
"_ 	c #4C4838",
": 	c #3D3926",
"< 	c #686459",
"[ 	c #D1D0CF",
"} 	c #FFFEFE",
"| 	c #FFFDFC",
"1 	c #E2E1E1",
"2 	c #A09F99",
"3 	c #5E5A4B",
"4 	c #4A473A",
"5 	c #4D493E",
"6 	c #3E3A28",
"7 	c #464135",
"8 	c #AFADA8",
"9 	c #F6F6F5",
"0 	c #F5FEFF",
"a 	c #EDF9FE",
"b 	c #F0E7E3",
"c 	c #999188",
"d 	c #4D4739",
"e 	c #434030",
"f 	c #5C5B57",
"g 	c #454234",
"h 	c #646055",
"i 	c #BFBBB6",
"j 	c #F6F8F7",
"k 	c #BAE9FC",
"l 	c #87D7FF",
"m 	c #BAEBFE",
"n 	c #C0EAFB",
"o 	c #C3C5C2",
"p 	c #827D72",
"q 	c #636055",
"r 	c #403B29",
"s 	c #4D4B3F",
"t 	c #4A483C",
"u 	c #3A3623",
"v 	c #514D3E",
"w 	c #B0B0AD",
"x 	c #D1D6D7",
"y 	c #6D9FB2",
"z 	c #2490CA",
"A 	c #3099CD",
"B 	c #4CA8D0",
"C 	c #9ACFE4",
"D 	c #CAD0D0",
"E 	c #90897D",
"F 	c #4B4837",
"G 	c #474435",
"H 	c #525049",
"I 	c #444131",
"J 	c #454137",
"K 	c #63615D",
"L 	c #57544E",
"M 	c #636155",
"N 	c #586869",
"O 	c #3A4E57",
"P 	c #506568",
"Q 	c #5E7C86",
"R 	c #BCCBCC",
"S 	c #C6B9B0",
"T 	c #413D29",
"U 	c #423D2B",
"V 	c #5E5D58",
"W 	c #67665F",
"X 	c #565346",
"Y 	c #3D3A38",
"Z 	c #574E44",
"` 	c #8A7661",
" .	c #BFA783",
"..	c #DCBD90",
"+.	c #D2A97E",
"@.	c #C39E79",
"#.	c #C5986D",
"$.	c #625445",
"%.	c #7F9194",
"&.	c #ADABA9",
"*.	c #6F6B5F",
"=.	c #696557",
"-.	c #615F55",
";.	c #898987",
">.	c #727169",
",.	c #3D3925",
"'.	c #363533",
").	c #3F3D39",
"!.	c #43413E",
"~.	c #977F66",
"{.	c #CDA67F",
"].	c #AE8E70",
"^.	c #B09677",
"/.	c #F6CB9A",
"(.	c #FFCF9B",
"_.	c #FFD39D",
":.	c #EEBD89",
"<.	c #BD946B",
"[.	c #9A836A",
"}.	c #78736B",
"|.	c #949493",
"1.	c #AFACA6",
"2.	c #423D2D",
"3.	c #413C2D",
"4.	c #5F5C57",
"5.	c #919294",
"6.	c #878785",
"7.	c #545041",
"8.	c #363636",
"9.	c #3C3C3C",
"0.	c #424242",
"a.	c #404040",
"b.	c #3C3A36",
"c.	c #796856",
"d.	c #AB8F72",
"e.	c #6C635B",
"f.	c #C09F7E",
"g.	c #D1A982",
"h.	c #8C755F",
"i.	c #A6886C",
"j.	c #E1B489",
"k.	c #FECC99",
"l.	c #DCB389",
"m.	c #987E64",
"n.	c #D9AE82",
"o.	c #E8B482",
"p.	c #735E49",
"q.	c #7F8281",
"r.	c #BDBBB7",
"s.	c #6D695D",
"t.	c #3E3928",
"u.	c #535148",
"v.	c #7E7E7F",
"w.	c #8D8C8D",
"x.	c #666459",
"y.	c #403C29",
"z.	c #3B3B3B",
"A.	c #535353",
"B.	c #6B6B6B",
"C.	c #676767",
"D.	c #4B4B4C",
"E.	c #524B44",
"F.	c #B09373",
"G.	c #F5CA99",
"H.	c #B89C7E",
"I.	c #9F8973",
"J.	c #A68D74",
"K.	c #A88D71",
"L.	c #E7BE8F",
"M.	c #FCCB99",
"N.	c #FFD19D",
"O.	c #DDB489",
"P.	c #66594C",
"Q.	c #B19171",
"R.	c #F3BE8A",
"S.	c #A6825F",
"T.	c #6A6863",
"U.	c #9DA4A7",
"V.	c #CEC8C3",
"W.	c #96958E",
"X.	c #433D2A",
"Y.	c #282307",
"Z.	c #423F33",
"`.	c #6C6C6C",
" +	c #8F8F90",
".+	c #82807C",
"++	c #464232",
"@+	c #666666",
"#+	c #7A7A7A",
"$+	c #7C7C7C",
"%+	c #868686",
"&+	c #767676",
"*+	c #585959",
"=+	c #4A4644",
"-+	c #A08468",
";+	c #FDCF9B",
">+	c #F3C595",
",+	c #E3B88E",
"'+	c #726962",
")+	c #A48D75",
"!+	c #F6CC99",
"~+	c #FFD29D",
"{+	c #EFC594",
"]+	c #9B8267",
"^+	c #756453",
"/+	c #E7B889",
"(+	c #DDAC7B",
"_+	c #6C5C4C",
":+	c #79888D",
"<+	c #FCF9F8",
"[+	c #CECDCA",
"}+	c #5C5751",
"|+	c #221C56",
"1+	c #1F1783",
"2+	c #292275",
"3+	c #262282",
"4+	c #2C2861",
"5+	c #2E1D65",
"6+	c #403C15",
"7+	c #5B594F",
"8+	c #878789",
"9+	c #8C8B8B",
"0+	c #5E5B4F",
"a+	c #3F3B28",
"b+	c #323232",
"c+	c #454545",
"d+	c #6D6D6D",
"e+	c #7D7D7D",
"f+	c #858585",
"g+	c #797979",
"h+	c #5C5D5D",
"i+	c #5D554D",
"j+	c #C4A07B",
"k+	c #FDCC99",
"l+	c #FFCE9A",
"m+	c #FFD59E",
"n+	c #C6A482",
"o+	c #B4987B",
"p+	c #F2C494",
"q+	c #FFCC99",
"r+	c #FFCD9A",
"s+	c #FDD09C",
"t+	c #CEA981",
"u+	c #5F5449",
"v+	c #BF9C78",
"w+	c #E3B180",
"x+	c #8A6D52",
"y+	c #656D6C",
"z+	c #C8D2D6",
"A+	c #EDEBDF",
"B+	c #878487",
"C+	c #302A7F",
"D+	c #1108C8",
"E+	c #100AE2",
"F+	c #131EE0",
"G+	c #1C20AC",
"H+	c #282579",
"I+	c #201AA6",
"J+	c #2B286D",
"K+	c #292176",
"L+	c #2D2469",
"M+	c #241B77",
"N+	c #342D31",
"O+	c #4F4B3C",
"P+	c #71706B",
"Q+	c #848484",
"R+	c #68665C",
"S+	c #38331D",
"T+	c #595959",
"U+	c #787878",
"V+	c #7E7E7E",
"W+	c #6E6E6E",
"X+	c #505253",
"Y+	c #564F48",
"Z+	c #B79675",
"`+	c #FFD8A1",
" @	c #FFCD99",
".@	c #FDCB98",
"+@	c #FFD39E",
"@@	c #E9BF90",
"#@	c #A5896C",
"$@	c #988066",
"%@	c #A08364",
"&@	c #B18A64",
"*@	c #6A6053",
"=@	c #8D999F",
"-@	c #FFFEFC",
";@	c #BFBEAE",
">@	c #7F7D75",
",@	c #453E97",
"'@	c #1211D6",
")@	c #0B21FA",
"!@	c #0C28FF",
"~@	c #0E24FE",
"{@	c #1025F2",
"]@	c #1120E3",
"^@	c #151BCA",
"/@	c #1311BE",
"(@	c #1B15AF",
"_@	c #1E1676",
":@	c #322E39",
"<@	c #504D42",
"[@	c #676762",
"}@	c #575448",
"|@	c #3A341F",
"1@	c #888888",
"2@	c #919191",
"3@	c #878787",
"4@	c #838383",
"5@	c #777777",
"6@	c #727272",
"7@	c #575757",
"8@	c #434241",
"9@	c #84705C",
"0@	c #FACD99",
"a@	c #FFCE9B",
"b@	c #F5C594",
"c@	c #DAB28A",
"d@	c #EDC394",
"e@	c #FFD59F",
"f@	c #F3C493",
"g@	c #E6B98C",
"h@	c #C59F7A",
"i@	c #DFAD7C",
"j@	c #7A634C",
"k@	c #6C7678",
"l@	c #E2E6EA",
"m@	c #E1E1CC",
"n@	c #7F797D",
"o@	c #251F9A",
"p@	c #0D22F7",
"q@	c #103CFF",
"r@	c #1039FF",
"s@	c #1037FF",
"t@	c #0F39FF",
"u@	c #0622FF",
"v@	c #1D23FA",
"w@	c #413FFF",
"x@	c #4640A2",
"y@	c #433E48",
"z@	c #636050",
"A@	c #6A675C",
"B@	c #474335",
"C@	c #585858",
"D@	c #808080",
"E@	c #818181",
"F@	c #636363",
"G@	c #424445",
"H@	c #62574C",
"I@	c #FFD49F",
"J@	c #FFCF9A",
"K@	c #E8BB90",
"L@	c #796D63",
"M@	c #C1A280",
"N@	c #F1C795",
"O@	c #D4AD84",
"P@	c #F5C392",
"Q@	c #FFD09C",
"R@	c #FECB99",
"S@	c #FFC891",
"T@	c #B18963",
"U@	c #63615B",
"V@	c #AAB1AF",
"W@	c #E4E3C5",
"X@	c #C5C2B8",
"Y@	c #676267",
"Z@	c #181CA7",
"`@	c #0C27FF",
" #	c #103AFF",
".#	c #0F37FF",
"+#	c #082BFF",
"@#	c #0F1FFF",
"##	c #696AFF",
"$#	c #D5D4F6",
"%#	c #CCCACF",
"&#	c #BDBBB9",
"*#	c #D5D4CA",
"=#	c #B2AFA9",
"-#	c #4A4634",
";#	c #757575",
">#	c #515152",
",#	c #544D48",
"'#	c #B89574",
")#	c #857768",
"!#	c #98826C",
"~#	c #786756",
"{#	c #8C7661",
"]#	c #DEBD92",
"^#	c #FFD7A4",
"/#	c #FBC894",
"(#	c #D1A477",
"_#	c #69655C",
":#	c #B5ABA7",
"<#	c #8C8A8E",
"[#	c #474173",
"}#	c #201C94",
"|#	c #0F1FE6",
"1#	c #0E31FF",
"2#	c #1138FF",
"3#	c #113AFF",
"4#	c #0327FF",
"5#	c #0212FF",
"6#	c #4F4DFF",
"7#	c #BEBAFF",
"8#	c #FCFCF4",
"9#	c #E1E1DD",
"0#	c #E0DFDC",
"a#	c #928E84",
"b#	c #565555",
"c#	c #7F7F7F",
"d#	c #696969",
"e#	c #4F4F50",
"f#	c #7B6A5A",
"g#	c #E8BD8F",
"h#	c #FFD09B",
"i#	c #FFCB99",
"j#	c #D4AE88",
"k#	c #A48C75",
"l#	c #D0A983",
"m#	c #BA9776",
"n#	c #BC9B78",
"o#	c #F0CA9B",
"p#	c #FFD8A5",
"q#	c #F7C390",
"r#	c #A78563",
"s#	c #58554C",
"t#	c #7F7778",
"u#	c #49428B",
"v#	c #0904BD",
"w#	c #0412E7",
"x#	c #0E2FFD",
"y#	c #1038FF",
"z#	c #0D34FF",
"A#	c #0D22FF",
"B#	c #454AFF",
"C#	c #B5B1FE",
"D#	c #EDEBF0",
"E#	c #DBD9D3",
"F#	c #B0AEA7",
"G#	c #848275",
"H#	c #615E4F",
"I#	c #443F2D",
"J#	c #42413D",
"K#	c #707070",
"L#	c #898989",
"M#	c #828282",
"N#	c #424345",
"O#	c #65594D",
"P#	c #D3B086",
"Q#	c #FFD9A2",
"R#	c #FDCF9A",
"S#	c #D4AF88",
"T#	c #635F5A",
"U#	c #E8BB8F",
"V#	c #F7C695",
"W#	c #F6C28E",
"X#	c #B28B66",
"Y#	c #534B3F",
"Z#	c #3F3F36",
"`#	c #2D274B",
" $	c #0C08E4",
".$	c #0E2CFF",
"+$	c #062CFF",
"@$	c #0620FF",
"#$	c #3E42FF",
"$$	c #A6A1FF",
"%$	c #DBD6E6",
"&$	c #A6A393",
"*$	c #6E6A5B",
"=$	c #474233",
"-$	c #494743",
";$	c #797878",
">$	c #737373",
",$	c #3F3D3B",
"'$	c #A78A6D",
")$	c #FCD19C",
"!$	c #FFD39C",
"~$	c #EFC394",
"{$	c #B5997B",
"]$	c #DEB58C",
"^$	c #FBC793",
"/$	c #AC8864",
"($	c #5C5044",
"_$	c #535238",
":$	c #3F3A33",
"<$	c #1F1BA1",
"[$	c #0E20F0",
"}$	c #0D35FF",
"|$	c #0F2EFF",
"1$	c #353AFF",
"2$	c #8686FC",
"3$	c #D9D6E6",
"4$	c #BCB9AC",
"5$	c #5A5739",
"6$	c #4F4F4F",
"7$	c #8A8A8A",
"8$	c #6F6F6F",
"9$	c #616161",
"0$	c #33363B",
"a$	c #736253",
"b$	c #E2BA8D",
"c$	c #FACA98",
"d$	c #FFD19B",
"e$	c #FFCE99",
"f$	c #E7B684",
"g$	c #806B55",
"h$	c #5C5753",
"i$	c #5C5A49",
"j$	c #4D4839",
"k$	c #342D75",
"l$	c #1016EA",
"m$	c #0A29FF",
"n$	c #0B2CFF",
"o$	c #243AF8",
"p$	c #716BDE",
"q$	c #B9B3C9",
"r$	c #9A9781",
"s$	c #757264",
"t$	c #383838",
"u$	c #959595",
"v$	c #717171",
"w$	c #4F4F4E",
"x$	c #816D5A",
"y$	c #E6BA8C",
"z$	c #FDCC9A",
"A$	c #DDB388",
"B$	c #806B56",
"C$	c #585146",
"D$	c #57554C",
"E$	c #67655B",
"F$	c #5C5940",
"G$	c #4F495D",
"H$	c #1B13D6",
"I$	c #0D11EB",
"J$	c #0E13D3",
"K$	c #2928A9",
"L$	c #5A5469",
"M$	c #6B6746",
"N$	c #59562F",
"O$	c #2F2F2F",
"P$	c #5B5B5A",
"Q$	c #8B8B8B",
"R$	c #8F8F8F",
"S$	c #484949",
"T$	c #B39273",
"U$	c #F8C896",
"V$	c #F9C997",
"W$	c #FECD9A",
"X$	c #F8CA98",
"Y$	c #F5C595",
"Z$	c #FAC997",
"`$	c #B19272",
" %	c #514C46",
".%	c #454744",
"+%	c #5A594F",
"@%	c #6A6853",
"#%	c #5C5A52",
"$%	c #332E7A",
"%%	c #221A80",
"&%	c #2F2751",
"*%	c #2E253D",
"=%	c #40403F",
"-%	c #7B7B7B",
";%	c #4A4D4F",
">%	c #7B6B5A",
",%	c #BB9977",
"'%	c #9F8368",
")%	c #B29272",
"!%	c #D5AB82",
"~%	c #B29171",
"{%	c #E1B78B",
"]%	c #C2A07C",
"^%	c #88735D",
"/%	c #A98C6E",
"(%	c #C09E78",
"_%	c #9C8166",
":%	c #6B5E4F",
"<%	c #56544C",
"[%	c #6D6B63",
"}%	c #605D52",
"|%	c #6B6962",
"1%	c #625F55",
"2%	c #5C594A",
"3%	c #2E2737",
"4%	c #333332",
"5%	c #686868",
"6%	c #747474",
"7%	c #6B6C6D",
"8%	c #646362",
"9%	c #55514D",
"0%	c #454645",
"a%	c #544F4A",
"b%	c #464441",
"c%	c #65605A",
"d%	c #786C60",
"e%	c #665C55",
"f%	c #505051",
"g%	c #4B4949",
"h%	c #514858",
"i%	c #403C41",
"j%	c #4A4A41",
"k%	c #606058",
"l%	c #636156",
"m%	c #585547",
"n%	c #565347",
"o%	c #535041",
"p%	c #484846",
"q%	c #777778",
"r%	c #636364",
"s%	c #666768",
"t%	c #595A5C",
"u%	c #6E6F70",
"v%	c #797A7A",
"w%	c #5D6062",
"x%	c #656763",
"y%	c #4A4A4C",
"z%	c #212085",
"A%	c #393560",
"B%	c #605E4E",
"C%	c #626153",
"D%	c #65635A",
"E%	c #69675F",
"F%	c #545143",
"G%	c #514E3F",
"H%	c #403E33",
"I%	c #504F4D",
"J%	c #4B4B6C",
"K%	c #292B70",
"L%	c #231E79",
"M%	c #29225D",
"N%	c #504E3B",
"O%	c #4F4C3D",
"P%	c #514E40",
"Q%	c #4B4836",
"R%	c #4C4B41",
"S%	c #828283",
"T%	c #4D4D4C",
"U%	c #353449",
"V%	c #2F2948",
"W%	c #352C35",
"X%	c #454233",
"Y%	c #4C4C49",
"Z%	c #60605F",
"`%	c #6A6A69",
" &	c #4B4A45",
".&	c #42413A",
"+&	c #353438",
"@&	c #3B3521",
"#&	c #3E3A2A",
"$&	c #47453D",
"%&	c #54534E",
"&&	c #6C6D6D",
"*&	c #7B7B7A",
"=&	c #71706C",
"-&	c #525353",
";&	c #8E8E8E",
">&	c #555553",
",&	c #403F38",
"'&	c #524D3E",
")&	c #B1B0B0",
"!&	c #6E6B63",
"~&	c #6B675B",
"{&	c #4B4739",
"]&	c #373635",
"^&	c #646464",
"/&	c #444444",
"(&	c #333333",
"                                                                                            ",
"                                                                                            ",
"                                                                                            ",
"                                                                                            ",
"                                                                                            ",
"                                                                                            ",
"                                                                                            ",
"                                                                                            ",
"                                                                                            ",
"                                                                                            ",
"                                                                                            ",
"                                                                                            ",
"                              .                                                             ",
"                          + @ # $ %                                                         ",
"                          & * = - ; >                                                       ",
"                          , ' ) ) ! ~                                                       ",
"                        { ] ^ ) ) / ( _                                   :                 ",
"                          < [ } ) | 1 2 3                                 4 5 6             ",
"                          7 8 9 0 a ) b c d                               e f g             ",
"                          h i j k l m n o p q                             r s t u           ",
"                          v w x y z A B C D E F                             G H I           ",
"                          J K L M N O P Q R S T                             U V W X         ",
"                        Y Z `  ...+.@.#.$.%.&.*.=.                            -.;.>.,.      ",
"                  '.).!.~.{.].^./.(._.:.<.[.}.|.1.2.                        3.4.5.6.7.      ",
"        8.9.0.a.b.c.d.e.f.g.h.i.j.k.l.m.n.o.p.q.r.s.                        t.u.v.w.x.y.    ",
"    z.a.A.B.C.D.E.F.G.H.I.J.K.L.M.N.O.P.Q.R.S.T.U.V.W.X.Y.                    Z.`. +.+++    ",
"    @+#+$+%+&+*+=+-+;+>+,+'+)+!+(.~+{+]+^+/+(+_+:+<+[+}+|+1+2+3+4+  5+        6+7+8+9+0+a+  ",
"b+c+d+e+e+f+g+h+i+j+k+l+m+n+o+p+q+r+s+t+u+v+w+x+y+z+A+B+C+D+E+F+G+H+I+J+K+L+M+N+O+P+Q+R+S+  ",
"T+U+V+g+U+#+W+X+Y+Z+`+r+ @.@r+l+q+q++@@@#@$@%@&@*@=@-@;@>@,@'@)@!@~@{@]@^@/@(@_@:@<@[@}@|@  ",
"T+1@2@3@4@5@6@7@8@9@0@a@q+k.b@c@d@e@l+k.f@g@h@i@j@k@l@) m@n@o@p@q@r@s@t@u@v@w@x@y@z@A@B@    ",
"C@V+D@E@4@5@5@F@G@H@t+I@r+J@K@L@M@N@O@P@Q@(.R@S@T@U@V@W@X@Y@Z@`@ #s@.#+#@###$#%#&#*#=#-#    ",
"F@3@#+;#W+d+U+W+>#,#'#a@q+l+J@)#!#~#{#]#^#q+q+/#(#_#:#<#[#}#|#1#2#3#4#5#6#7#) 8#9#0#a#      ",
"b#c#3@;#d#@+5@6@e#f#g#h#i#k+j#k#l#m#n#o#p#r+q+q#r#s#t#u#v#w#x#3#y#z#A#B#C#D#E#F#G#H#I#      ",
"J#K#L#M#U+U+5@d#N#O#P#Q# @R#S#T#U#V#J@N.r+q+r+W#X#Y#Z#`# $.$r@r@+$@$#$$$%$&$*$=$            ",
"-$;$1@4@#+>$W+d+A.,$'$)$r+!$~${$]$q+q+q+q+q+r+^$/$($_$:$<$[$y#}$|$1$2$3$4$5$                ",
"6$%+7$#+5@8$C.6@9$0$a$b$~+r+k+c$d$q+q+q+q+q+e$f$g$h$i$j$k$l$m$n$o$p$q$r$s$                  ",
"t$5@u$3@M#g+v$&+`.w$x$y$Q@q+ @q+q+r+q+q+r+z$A$B$C$D$E$F$G$H$I$J$K$L$M$N$                    ",
"O$P$Q$R$M#$+5@U+K#S$T$0@U$V$h# @W$(.X$Y$e@Z$`$ %.%+%-.@%#%$%%%&%*%                          ",
"  =%e+7$-%V+g+#+;#;%>%,%'%)%!%~%{%]%^%/%(%_%:%<%[%}%|%1%2%  3%                              ",
"  4%5%L#f+3@%+D@6%7%8%9%0%a%b%c%d%e%f%g%h%i%j%k%l%m%[%n%o%                                  ",
"    p%q%c#7$f+e+F@v$`.r%s%9$t%u%v%w%x%y%z%A%B%C%D%E%F%G%                                    ",
"    H%I%F@f+M#>$8$6%K#d+&+&+>$3@%+d+J%K%L%M%  N%O%P%                                        ",
"    Q%R%T+g+L#V+M#&+e+-%U+&+-%S%B.T%U%V%W%                                                  ",
"      X%Y%Z%6@Q+W+T+;#-%E@Q+V+`% &.&+&                                                      ",
"      @&#&$&%&&&d+*&=&-&7$;&;#>&,&                                                          ",
"            '&)&!&~&{&]&^&^&/&(&                                                            "};
