/* XPM */
static char * playerTwo02_xpm[] = {
"46 46 670 2",
"  	c None",
". 	c #2F2F2F",
"+ 	c #383838",
"@ 	c #4F4F4F",
"# 	c #494743",
"$ 	c #42413D",
"% 	c #565555",
"& 	c #636363",
"* 	c #585858",
"= 	c #595959",
"- 	c #323232",
"; 	c #333332",
"> 	c #40403F",
", 	c #5B5B5A",
"' 	c #777777",
") 	c #868686",
"! 	c #797878",
"~ 	c #707070",
"{ 	c #7F7F7F",
"] 	c #878787",
"^ 	c #7E7E7E",
"/ 	c #888888",
"( 	c #787878",
"_ 	c #454545",
": 	c #4B4836",
"< 	c #403E33",
"[ 	c #484846",
"} 	c #686868",
"| 	c #7D7D7D",
"1 	c #8B8B8B",
"2 	c #959595",
"3 	c #8A8A8A",
"4 	c #898989",
"5 	c #7A7A7A",
"6 	c #808080",
"7 	c #919191",
"8 	c #6D6D6D",
"9 	c #666666",
"0 	c #3B3B3B",
"a 	c #3B3521",
"b 	c #454233",
"c 	c #4C4B41",
"d 	c #504F4D",
"e 	c #777778",
"f 	c #8F8F8F",
"g 	c #838383",
"h 	c #828282",
"i 	c #757575",
"j 	c #818181",
"k 	c #797979",
"l 	c #404040",
"m 	c #3E3A2A",
"n 	c #4C4C49",
"o 	c #858585",
"p 	c #7B7B7B",
"q 	c #696969",
"r 	c #6E6E6E",
"s 	c #7C7C7C",
"t 	c #535353",
"u 	c #363636",
"v 	c #47453D",
"w 	c #60605F",
"x 	c #6F6F6F",
"y 	c #737373",
"z 	c #6B6B6B",
"A 	c #3C3C3C",
"B 	c #524D3E",
"C 	c #54534E",
"D 	c #727272",
"E 	c #717171",
"F 	c #676767",
"G 	c #767676",
"H 	c #424242",
"I 	c #6A6658",
"J 	c #B1B0B0",
"K 	c #6C6D6D",
"L 	c #848484",
"M 	c #575757",
"N 	c #505253",
"O 	c #5C5D5D",
"P 	c #585959",
"Q 	c #4B4B4C",
"R 	c #534E3C",
"S 	c #6E6B63",
"T 	c #747474",
"U 	c #6C6C6C",
"V 	c #616161",
"W 	c #424345",
"X 	c #4F4F50",
"Y 	c #515152",
"Z 	c #424445",
"` 	c #434241",
" .	c #564F48",
"..	c #5D554D",
"+.	c #4A4644",
"@.	c #524B44",
"#.	c #3C3A36",
"$.	c #6B675B",
"%.	c #7B7B7A",
"&.	c #6B6C6D",
"*.	c #4A4D4F",
"=.	c #484949",
"-.	c #4F4F4E",
";.	c #33363B",
">.	c #3F3D3B",
",.	c #65594D",
"'.	c #7B6A5A",
").	c #544D48",
"!.	c #62574C",
"~.	c #84705C",
"{.	c #B79675",
"].	c #C4A07B",
"^.	c #A08468",
"/.	c #B09373",
"(.	c #796856",
"_.	c #363533",
":.	c #4B4739",
"<.	c #71706C",
"[.	c #646362",
"}.	c #7B6B5A",
"|.	c #B39273",
"1.	c #816D5A",
"2.	c #736253",
"3.	c #A78A6D",
"4.	c #D3B086",
"5.	c #E8BD8F",
"6.	c #B89574",
"7.	c #CEA981",
"8.	c #FACD99",
"9.	c #FFD8A1",
"0.	c #FDCC99",
"a.	c #FDCF9B",
"b.	c #F5CA99",
"c.	c #AB8F72",
"d.	c #3F3D39",
"e.	c #373635",
"f.	c #525353",
"g.	c #636364",
"h.	c #55514D",
"i.	c #BB9977",
"j.	c #E6BA8C",
"k.	c #E2BA8D",
"l.	c #FCD19C",
"m.	c #FFD9A2",
"n.	c #FFD09B",
"o.	c #FFCE9B",
"p.	c #FFD49F",
"q.	c #FFCD9A",
"r.	c #FFCE9A",
"s.	c #F3C595",
"t.	c #B89C7E",
"u.	c #6C635B",
"v.	c #43413E",
"w.	c #646464",
"x.	c #666768",
"y.	c #454645",
"z.	c #9F8368",
"A.	c #F8C896",
"B.	c #FFD09C",
"C.	c #FFD29D",
"D.	c #FFCD99",
"E.	c #FFCB99",
"F.	c #FFCC99",
"G.	c #FFD59E",
"H.	c #E3B88E",
"I.	c #9F8973",
"J.	c #C09F7E",
"K.	c #977F66",
"L.	c #3D3A38",
"M.	c #4A4534",
"N.	c #303030",
"O.	c #8E8E8E",
"P.	c #544F4A",
"Q.	c #B29272",
"R.	c #F9C997",
"S.	c #FFD39C",
"T.	c #FDCF9A",
"U.	c #FFCF9A",
"V.	c #FECC99",
"W.	c #FDCB98",
"X.	c #C6A482",
"Y.	c #726962",
"Z.	c #A68D74",
"`.	c #D1A982",
" +	c #CDA67F",
".+	c #574E44",
"++	c #454137",
"@+	c #514D3E",
"#+	c #646055",
"$+	c #464135",
"%+	c #686459",
"&+	c #8D8B81",
"*+	c #99978F",
"=+	c #848178",
"-+	c #45412E",
";+	c #444444",
">+	c #595A5C",
",+	c #464441",
"'+	c #D5AB82",
")+	c #EFC394",
"!+	c #D4AF88",
"~+	c #D4AE88",
"{+	c #E8BB90",
"]+	c #F5C594",
"^+	c #B4987B",
"/+	c #A48D75",
"(+	c #A88D71",
"_+	c #8C755F",
":+	c #AE8E70",
"<+	c #8A7661",
"[+	c #63615D",
"}+	c #B0B0AD",
"|+	c #BFBBB6",
"1+	c #AFADA8",
"2+	c #D1D0CF",
"3+	c #E7E6E6",
"4+	c #F6F7F9",
"5+	c #BBBAB7",
"6+	c #555040",
"7+	c #333333",
"8+	c #555553",
"9+	c #6A6A69",
"0+	c #828283",
"a+	c #6E6F70",
"b+	c #65605A",
"c+	c #B29171",
"d+	c #FACA98",
"e+	c #B5997B",
"f+	c #635F5A",
"g+	c #A48C75",
"h+	c #857768",
"i+	c #796D63",
"j+	c #DAB28A",
"k+	c #F2C494",
"l+	c #F6CC99",
"m+	c #E7BE8F",
"n+	c #A6886C",
"o+	c #B09677",
"p+	c #BFA783",
"q+	c #57544E",
"r+	c #D1D6D7",
"s+	c #F6F8F7",
"t+	c #F6F6F5",
"u+	c #FFFEFE",
"v+	c #FFFFFF",
"w+	c #E6E6E6",
"x+	c #828076",
"y+	c #484533",
"z+	c #403F38",
"A+	c #4B4A45",
"B+	c #797A7A",
"C+	c #786C60",
"D+	c #E1B78B",
"E+	c #FECD9A",
"F+	c #FFD19B",
"G+	c #DEB58C",
"H+	c #E8BB8F",
"I+	c #D0A983",
"J+	c #98826C",
"K+	c #C1A280",
"L+	c #EDC394",
"M+	c #FFCF9B",
"N+	c #FCCB99",
"O+	c #E1B489",
"P+	c #F6CB9A",
"Q+	c #DCBD90",
"R+	c #636155",
"S+	c #6D9FB2",
"T+	c #BAE9FC",
"U+	c #F5FEFF",
"V+	c #D4D3D0",
"W+	c #868379",
"X+	c #42413A",
"Y+	c #4D4D4C",
"Z+	c #5D6062",
"`+	c #665C55",
" @	c #C2A07C",
".@	c #F7C695",
"+@	c #BA9776",
"@@	c #786756",
"#@	c #F1C795",
"$@	c #FFD59F",
"%@	c #FFD19D",
"&@	c #D2A97E",
"*@	c #586869",
"=@	c #2490CA",
"-@	c #87D7FF",
";@	c #EDF9FE",
">@	c #FFFDFC",
",@	c #EAEAE9",
"'@	c #D1D0CE",
")@	c #908F86",
"!@	c #6C695D",
"~@	c #353438",
"{@	c #353449",
"]@	c #4B4B6C",
"^@	c #656763",
"/@	c #505051",
"(@	c #88735D",
"_@	c #F8CA98",
":@	c #BC9B78",
"<@	c #8C7661",
"[@	c #D4AD84",
"}@	c #FFD39E",
"|@	c #FDD09C",
"1@	c #EFC594",
"2@	c #DDB489",
"3@	c #DCB389",
"4@	c #FFD39D",
"5@	c #C39E79",
"6@	c #3A4E57",
"7@	c #3099CD",
"8@	c #BAEBFE",
"9@	c #E2E1E1",
"0@	c #999892",
"a@	c #676458",
"b@	c #524E3F",
"c@	c #2F2948",
"d@	c #292B70",
"e@	c #4A4A4C",
"f@	c #4B4949",
"g@	c #A98C6E",
"h@	c #F5C595",
"i@	c #F0CA9B",
"j@	c #DEBD92",
"k@	c #F5C392",
"l@	c #E9BF90",
"m@	c #9B8267",
"n@	c #66594C",
"o@	c #987E64",
"p@	c #EEBD89",
"q@	c #C5986D",
"r@	c #506568",
"s@	c #4CA8D0",
"t@	c #C0EAFB",
"u@	c #F0E7E3",
"v@	c #A09F99",
"w@	c #4C4838",
"x@	c #352C35",
"y@	c #231E79",
"z@	c #212085",
"A@	c #514858",
"B@	c #C09E78",
"C@	c #FFD8A5",
"D@	c #FFD7A4",
"E@	c #F3C493",
"F@	c #A5896C",
"G@	c #5F5449",
"H@	c #756453",
"I@	c #B19171",
"J@	c #D9AE82",
"K@	c #BD946B",
"L@	c #625445",
"M@	c #5E7C86",
"N@	c #9ACFE4",
"O@	c #C3C5C2",
"P@	c #999188",
"Q@	c #5E5A4B",
"R@	c #29225D",
"S@	c #393560",
"T@	c #403C41",
"U@	c #9C8166",
"V@	c #FAC997",
"W@	c #FDCC9A",
"X@	c #E6B98C",
"Y@	c #988066",
"Z@	c #BF9C78",
"`@	c #E7B889",
" #	c #F3BE8A",
".#	c #E8B482",
"+#	c #9A836A",
"@#	c #7F9194",
"##	c #BCCBCC",
"$#	c #CAD0D0",
"%#	c #827D72",
"&#	c #4D4739",
"*#	c #605E4E",
"=#	c #4A4A41",
"-#	c #6B5E4F",
";#	c #B19272",
">#	c #DDB388",
",#	c #FFCE99",
"'#	c #FECB99",
")#	c #C59F7A",
"!#	c #A08364",
"~#	c #E3B180",
"{#	c #DDAC7B",
"]#	c #A6825F",
"^#	c #735E49",
"/#	c #78736B",
"(#	c #ADABA9",
"_#	c #C6B9B0",
":#	c #90897D",
"<#	c #636055",
"[#	c #504E3B",
"}#	c #626153",
"|#	c #606058",
"1#	c #56544C",
"2#	c #514C46",
"3#	c #806B56",
"4#	c #E7B684",
"5#	c #FBC793",
"6#	c #F6C28E",
"7#	c #F7C390",
"8#	c #FBC894",
"9#	c #FFC891",
"0#	c #DFAD7C",
"a#	c #B18A64",
"b#	c #8A6D52",
"c#	c #6C5C4C",
"d#	c #6A6863",
"e#	c #7F8281",
"f#	c #949493",
"g#	c #6F6B5F",
"h#	c #413D29",
"i#	c #4B4837",
"j#	c #4F4C3D",
"k#	c #65635A",
"l#	c #636156",
"m#	c #6D6B63",
"n#	c #454744",
"o#	c #585146",
"p#	c #806B55",
"q#	c #AC8864",
"r#	c #B28B66",
"s#	c #A78563",
"t#	c #D1A477",
"u#	c #B18963",
"v#	c #7A634C",
"w#	c #6A6053",
"x#	c #656D6C",
"y#	c #79888D",
"z#	c #9DA4A7",
"A#	c #BDBBB7",
"B#	c #AFACA6",
"C#	c #696557",
"D#	c #514E40",
"E#	c #69675F",
"F#	c #585547",
"G#	c #605D52",
"H#	c #5A594F",
"I#	c #57554C",
"J#	c #5C5753",
"K#	c #5C5044",
"L#	c #534B3F",
"M#	c #58554C",
"N#	c #69655C",
"O#	c #63615B",
"P#	c #6C7678",
"Q#	c #8D999F",
"R#	c #C8D2D6",
"S#	c #FCF9F8",
"T#	c #CEC8C3",
"U#	c #6D695D",
"V#	c #423D2D",
"W#	c #545143",
"X#	c #6B6962",
"Y#	c #615F55",
"Z#	c #67655B",
"`#	c #5C5A49",
" $	c #535238",
".$	c #3F3F36",
"+$	c #7F7778",
"@$	c #B5ABA7",
"#$	c #AAB1AF",
"$$	c #E2E6EA",
"%$	c #FFFEFC",
"&$	c #EDEBDF",
"*$	c #CECDCA",
"=$	c #96958E",
"-$	c #514E3F",
";$	c #565347",
">$	c #625F55",
",$	c #6A6853",
"'$	c #5C5940",
")$	c #4D4839",
"!$	c #3F3A33",
"~$	c #2D274B",
"{$	c #49428B",
"]$	c #8C8A8E",
"^$	c #E4E3C5",
"/$	c #BFBEAE",
"($	c #878487",
"_$	c #5C5751",
":$	c #433D2A",
"<$	c #535041",
"[$	c #5C594A",
"}$	c #5C5A52",
"|$	c #4F495D",
"1$	c #342D75",
"2$	c #1F1BA1",
"3$	c #0C08E4",
"4$	c #0904BD",
"5$	c #474173",
"6$	c #C5C2B8",
"7$	c #E1E1CC",
"8$	c #7F7D75",
"9$	c #302A7F",
"0$	c #221C56",
"a$	c #282307",
"b$	c #332E7A",
"c$	c #1B13D6",
"d$	c #1016EA",
"e$	c #0E20F0",
"f$	c #0E2CFF",
"g$	c #0412E7",
"h$	c #201C94",
"i$	c #676267",
"j$	c #7F797D",
"k$	c #453E97",
"l$	c #1108C8",
"m$	c #1F1783",
"n$	c #2E2737",
"o$	c #221A80",
"p$	c #0D11EB",
"q$	c #0A29FF",
"r$	c #1038FF",
"s$	c #1039FF",
"t$	c #0E2FFD",
"u$	c #0F1FE6",
"v$	c #181CA7",
"w$	c #251F9A",
"x$	c #1211D6",
"y$	c #100AE2",
"z$	c #292275",
"A$	c #2F2751",
"B$	c #0E13D3",
"C$	c #0B2CFF",
"D$	c #0D35FF",
"E$	c #113AFF",
"F$	c #0E31FF",
"G$	c #0C27FF",
"H$	c #0D22F7",
"I$	c #0B21FA",
"J$	c #131EE0",
"K$	c #262282",
"L$	c #2E253D",
"M$	c #2928A9",
"N$	c #243AF8",
"O$	c #0F2EFF",
"P$	c #062CFF",
"Q$	c #1138FF",
"R$	c #103AFF",
"S$	c #103CFF",
"T$	c #0C28FF",
"U$	c #1C20AC",
"V$	c #2C2861",
"W$	c #5A5469",
"X$	c #716BDE",
"Y$	c #353AFF",
"Z$	c #0620FF",
"`$	c #0D34FF",
" %	c #1037FF",
".%	c #0E24FE",
"+%	c #282579",
"@%	c #6B6746",
"#%	c #B9B3C9",
"$%	c #8686FC",
"%%	c #3E42FF",
"&%	c #0D22FF",
"*%	c #0327FF",
"=%	c #0F37FF",
"-%	c #1025F2",
";%	c #201AA6",
">%	c #2E1D65",
",%	c #59562F",
"'%	c #9A9781",
")%	c #D9D6E6",
"!%	c #A6A1FF",
"~%	c #454AFF",
"{%	c #0212FF",
"]%	c #082BFF",
"^%	c #0F39FF",
"/%	c #1120E3",
"(%	c #2B286D",
"_%	c #757264",
":%	c #BCB9AC",
"<%	c #DBD6E6",
"[%	c #B5B1FE",
"}%	c #4F4DFF",
"|%	c #0F1FFF",
"1%	c #0622FF",
"2%	c #151BCA",
"3%	c #292176",
"4%	c #5A5739",
"5%	c #A6A393",
"6%	c #EDEBF0",
"7%	c #BEBAFF",
"8%	c #696AFF",
"9%	c #1D23FA",
"0%	c #1311BE",
"a%	c #2D2469",
"b%	c #403B29",
"c%	c #434030",
"d%	c #4A473A",
"e%	c #3D3926",
"f%	c #6E6A5B",
"g%	c #DBD9D3",
"h%	c #D5D4F6",
"i%	c #413FFF",
"j%	c #1B15AF",
"k%	c #241B77",
"l%	c #3E3928",
"m%	c #413C2D",
"n%	c #423D2B",
"o%	c #474435",
"p%	c #4D4B3F",
"q%	c #5C5B57",
"r%	c #4D493E",
"s%	c #474233",
"t%	c #B0AEA7",
"u%	c #FCFCF4",
"v%	c #CCCACF",
"w%	c #4640A2",
"x%	c #1E1676",
"y%	c #342D31",
"z%	c #403C15",
"A%	c #423F33",
"B%	c #535148",
"C%	c #5F5C57",
"D%	c #5E5D58",
"E%	c #525049",
"F%	c #4A483C",
"G%	c #454234",
"H%	c #3E3A28",
"I%	c #848275",
"J%	c #E1E1DD",
"K%	c #BDBBB9",
"L%	c #433E48",
"M%	c #322E39",
"N%	c #4F4B3C",
"O%	c #5B594F",
"P%	c #7E7E7F",
"Q%	c #919294",
"R%	c #898987",
"S%	c #67665F",
"T%	c #444131",
"U%	c #3A3623",
"V%	c #615E4F",
"W%	c #E0DFDC",
"X%	c #D5D4CA",
"Y%	c #636050",
"Z%	c #504D42",
"`%	c #71706B",
" &	c #878789",
".&	c #8F8F90",
"+&	c #8D8C8D",
"@&	c #878785",
"#&	c #727169",
"$&	c #565346",
"%&	c #443F2D",
"&&	c #928E84",
"*&	c #B2AFA9",
"=&	c #6A675C",
"-&	c #676762",
";&	c #8C8B8B",
">&	c #82807C",
",&	c #666459",
"'&	c #545041",
")&	c #3D3925",
"!&	c #4A4634",
"~&	c #474335",
"{&	c #575448",
"]&	c #68665C",
"^&	c #5E5B4F",
"/&	c #464232",
"(&	c #403C29",
"_&	c #3A341F",
":&	c #38331D",
"<&	c #3F3B28",
"                                                                                            ",
"                  . + @ # $ % & * = = -                                                     ",
"              ; > , ' ) ! ~ { ] ^ / ( _                                                     ",
"        : < [ } | 1 2 3 / 4 ] 5 6 7 ^ 8 9 0                                                 ",
"    a b c d e 4 3 f ] 5 g h i i j ] k | 5 l                                                 ",
"    m n = & { o p h h ' 5 ( q r g g ( | s t u                                               ",
"    v w k o 3 ] ^ s k x y ( 9 8 ' ' 5 o ) z A                                               ",
"  B C D 4 h o ) k ' E F r ' ' ( ' D r k G F H                                               ",
"I J K L ^ y | 6 5 ( G D 8 q D r & M N O P Q l                                               ",
"R S 8 r h x & T i ~ U V t W X Y Z `  ...+.@.#.                                              ",
"  $.%.= G T E &.*.=.-.;.>.,.'.).!.~.{.].^./.(._.                                            ",
"  :.<.i | ~ U [.}.|.1.2.3.4.5.6.7.8.9.0.a.b.c.d.                                            ",
"  e.f.p p 8 g.h.i.8.j.k.l.m.n.o.p.o.q.r.s.t.u.v.                                            ",
"  w.3 j ( G x.y.z.A.B.C.q.D.E.F.q.F.D.G.H.I.J.K.L.          M.                              ",
"N.w.O.L G G V P.Q.R.F.q.S.T.0.r.U.V.W.X.Y.Z.`. +.+++@+#+$+%+&+*+=+-+                        ",
"  ;+i ^ p y >+,+'+n.D.0.)+!+~+U.{+]+q.^+/+(+_+:+<+[+}+|+1+2+3+4+5+6+                        ",
"  7+8+9+0+] a+b+c+D.F.d+e+f+g+h+i+j+r.k+l+m+n+o+p+q+r+s+t+u+v+v+w+x+y+                      ",
"    z+A+z ) B+C+D+E+F.F+G+H+I+J+K+L+F.F.M+N+O+P+Q+R+S+T+U+v+v+v+V+W+                        ",
"      X+Y+8 Z+`+ @M+q.F.F..@+@@@#@$@F.q.C.%@V.M+&@*@=@-@;@>@,@'@)@!@                        ",
"      ~@{@]@^@/@(@_@F.F.F.U.:@<@[@r.}@|@1@2@3@4@5@6@7@8@v+9@0@a@b@                          ",
"        c@d@e@f@g@h@F.F.F.%@i@j@k@V.l@7.m@n@o@p@q@r@s@t@u@v@w@                              ",
"        x@y@z@A@B@$@q.F.F.q.C@D@B.E@F@G@H@I@J@K@L@M@N@O@P@Q@                                ",
"          R@S@T@U@V@W@F.F.F.q.F.M+X@Y@Z@`@ #.#+#@###$#%#&#                                  ",
"            *#=#-#;#>#,#q.q.F.F.'#)#!#~#{#]#^#/#(#_#:#<#                                    ",
"          [#}#|#1#2#3#4#5#6#7#8#9#0#a#b#c#d#e#f#g#h#i#                                      ",
"          j#k#l#m#n#o#p#q#r#s#t#u#v#w#x#y#z#A#B#C#                                          ",
"          D#E#F#G#H#I#J#K#L#M#N#O#P#Q#R#S#T#U#V#                                            ",
"            W#m#X#Y#Z#`# $.$+$@$#$$$%$&$*$=$                                                ",
"            -$;$>$,$'$)$!$~${$]$^$v+/$($_$:$                                                ",
"              <$[$}$|$1$2$3$4$5$6$7$8$9$0$a$                                                ",
"                  b$c$d$e$f$g$h$i$j$k$l$m$                                                  ",
"                n$o$p$q$r$s$t$u$v$w$x$y$z$                                                  ",
"                  A$B$C$D$s$E$F$G$H$I$J$K$                                                  ",
"                  L$M$N$O$P$r$Q$R$S$T$U$V$                                                  ",
"                    W$X$Y$Z$`$E$ %s$.%+%                                                    ",
"                    @%#%$%%%&%*%=% %-%;%>%                                                  ",
"                    ,%'%)%!%~%{%]%^%/%(%                                                    ",
"                      _%:%<%[%}%|%1%2%3%                                                    ",
"                        4%5%6%7%8%9%0%a%              b%c%d%e%                              ",
"                          f%g%v+h%i%j%k%    l%m%  n%o%p%q%r%                                ",
"                          s%t%u%v%w%x%y%z%A%B%C%Y#D%E%F%G%H%                                ",
"                            I%J%K%L%M%N%O%U P%Q%R%S%T%U%                                    ",
"                            V%W%X%Y%Z%`% &.&+&@&#&$&                                        ",
"                            %&&&*&=&-&L ;&>&,&'&)&                                          ",
"                                !&~&{&]&^&/&(&                                              ",
"                                    _&:&<&                                                  "};
