/* XPM */
static char * playerTwo07_xpm[] = {
"46 46 686 2",
"  	c None",
". 	c #444033",
"+ 	c #433F31",
"@ 	c #504D44",
"# 	c #56554E",
"$ 	c #464438",
"% 	c #424030",
"& 	c #4C4A3E",
"* 	c #4B493E",
"= 	c #433F30",
"- 	c #454131",
"; 	c #4D4A3F",
"> 	c #55534B",
", 	c #5E5D54",
"' 	c #555245",
") 	c #413E2D",
"! 	c #464233",
"~ 	c #5C5951",
"{ 	c #777772",
"] 	c #75746E",
"^ 	c #595649",
"/ 	c #484534",
"( 	c #524D3D",
"_ 	c #78766A",
": 	c #89867D",
"< 	c #6E6C60",
"[ 	c #555041",
"} 	c #555247",
"| 	c #767573",
"1 	c #888989",
"2 	c #787772",
"3 	c #5A5749",
"4 	c #433E2D",
"5 	c #504B3A",
"6 	c #7A776B",
"7 	c #BCBBB6",
"8 	c #C8C7C2",
"9 	c #ADACA6",
"0 	c #767368",
"a 	c #504B3E",
"b 	c #484236",
"c 	c #5D5B54",
"d 	c #7A7A7B",
"e 	c #878687",
"f 	c #777570",
"g 	c #585548",
"h 	c #454132",
"i 	c #79766B",
"j 	c #AFADA8",
"k 	c #E9E9E9",
"l 	c #F9F9F9",
"m 	c #E9E9E8",
"n 	c #BAB9B5",
"o 	c #7F7D74",
"p 	c #706D62",
"q 	c #625D4F",
"r 	c #474539",
"s 	c #5E5D57",
"t 	c #7B7A7B",
"u 	c #878787",
"v 	c #76746F",
"w 	c #524F42",
"x 	c #393420",
"y 	c #848178",
"z 	c #BDBCB8",
"A 	c #FFFFFF",
"B 	c #F8F6F5",
"C 	c #E2E2E1",
"D 	c #CBC9C6",
"E 	c #9B948A",
"F 	c #575143",
"G 	c #504E42",
"H 	c #48452F",
"I 	c #5F5E54",
"J 	c #7A7978",
"K 	c #7B7B79",
"L 	c #5F5C52",
"M 	c #413B29",
"N 	c #615E50",
"O 	c #8E8C83",
"P 	c #D0D0CE",
"Q 	c #F3F2F2",
"R 	c #FDFDFD",
"S 	c #F5FAFD",
"T 	c #EAF4F8",
"U 	c #E3ECF1",
"V 	c #C5D0D3",
"W 	c #A7ABA8",
"X 	c #999993",
"Y 	c #797367",
"Z 	c #4E4A3A",
"` 	c #37312F",
" .	c #44403C",
"..	c #565350",
"+.	c #64625C",
"@.	c #5D5A51",
"#.	c #666255",
"$.	c #98958F",
"%.	c #D7D6D4",
"&.	c #F1F6F7",
"*.	c #CDEDFB",
"=.	c #A6DEF9",
"-.	c #93D4F1",
";.	c #7EBFDB",
">.	c #97C0D0",
",.	c #BAC6C6",
"'.	c #AAA69E",
").	c #6E6859",
"!.	c #545041",
"~.	c #271D73",
"{.	c #221B81",
"].	c #221A7C",
"^.	c #2B255E",
"/.	c #413D44",
"(.	c #656256",
"_.	c #6C695D",
":.	c #504D3D",
"<.	c #504C40",
"[.	c #B8B5AE",
"}.	c #F6F8F7",
"|.	c #9ED8F0",
"1.	c #38A2DA",
"2.	c #218AC0",
"3.	c #2C627B",
"4.	c #487382",
"5.	c #879A9C",
"6.	c #A6B6BB",
"7.	c #A69F9A",
"8.	c #88857D",
"9.	c #8B887D",
"0.	c #393525",
"a.	c #28236B",
"b.	c #23227A",
"c.	c #292566",
"d.	c #26207A",
"e.	c #1E1E9D",
"f.	c #1C1EA6",
"g.	c #191AAF",
"h.	c #1B1AC6",
"i.	c #2E2BD0",
"j.	c #4C47A0",
"k.	c #706C79",
"l.	c #A7A69D",
"m.	c #C8C6C2",
"n.	c #726E60",
"o.	c #635F52",
"p.	c #99978F",
"q.	c #BDBFBD",
"r.	c #819398",
"s.	c #5B767C",
"t.	c #5F7274",
"u.	c #837867",
"v.	c #9C8367",
"w.	c #887764",
"x.	c #898275",
"y.	c #817A71",
"z.	c #8B8984",
"A.	c #A5A39F",
"B.	c #928E85",
"C.	c #858379",
"D.	c #666155",
"E.	c #37312A",
"F.	c #211B52",
"G.	c #20188A",
"H.	c #1B18AD",
"I.	c #181EBC",
"J.	c #1921B7",
"K.	c #1621CE",
"L.	c #1124E5",
"M.	c #1028EA",
"N.	c #0D23EE",
"O.	c #222BF6",
"P.	c #7575F7",
"Q.	c #B4B2D7",
"R.	c #C5C4C7",
"S.	c #D8D8D3",
"T.	c #B0AEA6",
"U.	c #6D695B",
"V.	c #636156",
"W.	c #74736D",
"X.	c #7C7565",
"Y.	c #AB9778",
"Z.	c #C7A47E",
"`.	c #DBB185",
" +	c #DAAF80",
".+	c #C49C73",
"++	c #BF9973",
"@+	c #9C7E61",
"#+	c #776C60",
"$+	c #888A88",
"%+	c #B5B5B3",
"&+	c #D1CDCA",
"*+	c #A4A29C",
"=+	c #5E5966",
"-+	c #2B2580",
";+	c #1A13B1",
">+	c #1412D2",
",+	c #0D1CEB",
"'+	c #0E29F6",
")+	c #0E2FFC",
"!+	c #0F33FC",
"~+	c #0D33FD",
"{+	c #0B28FE",
"]+	c #333CFF",
"^+	c #AAAAFF",
"/+	c #EAEAF4",
"(+	c #E2E1DD",
"_+	c #B2B0A8",
":+	c #7A776A",
"<+	c #4A453C",
"[+	c #736556",
"}+	c #AB9476",
"|+	c #DAB88E",
"1+	c #F9CA97",
"2+	c #F3C593",
"3+	c #CBA67E",
"4+	c #AD8D6D",
"5+	c #D0A67C",
"6+	c #D5A77B",
"7+	c #9E7E60",
"8+	c #746C61",
"9+	c #8D9392",
"0+	c #CFD3D3",
"a+	c #DFDED9",
"b+	c #A2A09E",
"c+	c #6C6982",
"d+	c #534F95",
"e+	c #322DA5",
"f+	c #151ED3",
"g+	c #0D2DFA",
"h+	c #0F38FF",
"i+	c #0F36FE",
"j+	c #0B30FF",
"k+	c #0F25FF",
"l+	c #5859FF",
"m+	c #C1BFF9",
"n+	c #E1DFDF",
"o+	c #A9A79F",
"p+	c #737062",
"q+	c #3F3B37",
"r+	c #716251",
"s+	c #A5886B",
"t+	c #A1876B",
"u+	c #BC9C79",
"v+	c #EDBF90",
"w+	c #F6C795",
"x+	c #CCA780",
"y+	c #8B755E",
"z+	c #987E64",
"A+	c #D3A87E",
"B+	c #D2A579",
"C+	c #9A7B5D",
"D+	c #736C61",
"E+	c #8E9696",
"F+	c #D1D5D5",
"G+	c #E2E2DA",
"H+	c #CBCBC4",
"I+	c #B0AEAA",
"J+	c #645E84",
"K+	c #2024AF",
"L+	c #0D28F3",
"M+	c #0E36FF",
"N+	c #0F37FF",
"O+	c #072AFF",
"P+	c #1D2DFF",
"Q+	c #7D7DFC",
"R+	c #D0CCE9",
"S+	c #B1AEA5",
"T+	c #706C5F",
"U+	c #373534",
"V+	c #4A4541",
"W+	c #BE9C79",
"X+	c #CAA47E",
"Y+	c #8C755F",
"Z+	c #B49273",
"`+	c #F2C393",
" @	c #FFD29D",
".@	c #F3C896",
"+@	c #C7A37E",
"@@	c #84715B",
"#@	c #C19B75",
"$@	c #B6906A",
"%@	c #927559",
"&@	c #919696",
"*@	c #D2D6D7",
"=@	c #F0EFE7",
"-@	c #C3C1B9",
";@	c #66627B",
">@	c #1F25A9",
",@	c #0E29EF",
"'@	c #0E35FE",
")@	c #0E2CFF",
"!@	c #3C44FE",
"~@	c #A9A6FD",
"{@	c #CDC9C8",
"]@	c #5F5B41",
"^@	c #413C38",
"/@	c #64584C",
"(@	c #74675A",
"_@	c #99836D",
":@	c #BE9D7C",
"<@	c #A58B71",
"[@	c #CDAA83",
"}@	c #FACD99",
"|@	c #FECC99",
"1@	c #FECE9B",
"2@	c #ECC292",
"3@	c #BD9D79",
"4@	c #977F65",
"5@	c #A38669",
"6@	c #B08F6C",
"7@	c #C59B72",
"8@	c #9B7C5E",
"9@	c #736B60",
"0@	c #949996",
"a@	c #BDBCB0",
"b@	c #8B8892",
"c@	c #36328A",
"d@	c #121CCD",
"e@	c #0D2DF8",
"f@	c #0C31FF",
"g@	c #142DFF",
"h@	c #585DFF",
"i@	c #B5B3E9",
"j@	c #B1AEAA",
"k@	c #817E6E",
"l@	c #383836",
"m@	c #615549",
"n@	c #AE9272",
"o@	c #C2A380",
"p@	c #AB9277",
"q@	c #B19479",
"r@	c #927F6D",
"s@	c #B79A7C",
"t@	c #EEC293",
"u@	c #FECC98",
"v@	c #FFCC99",
"w@	c #FECE9A",
"x@	c #EFC393",
"y@	c #DCB388",
"z@	c #DCB287",
"A@	c #DFB387",
"B@	c #ECBB8B",
"C@	c #DDAE7F",
"D@	c #987C60",
"E@	c #7C766E",
"F@	c #9C9594",
"G@	c #5F5990",
"H@	c #1917B7",
"I@	c #0B1EEA",
"J@	c #0E32FF",
"K@	c #0B2EFF",
"L@	c #2335FF",
"M@	c #6F70F0",
"N@	c #ABA8C0",
"O@	c #888575",
"P@	c #6E6A5D",
"Q@	c #3E3E3E",
"R@	c #464646",
"S@	c #454442",
"T@	c #63574C",
"U@	c #B89976",
"V@	c #EFC594",
"W@	c #EABF91",
"X@	c #EBBE90",
"Y@	c #C7A482",
"Z@	c #C5A481",
"`@	c #F0C293",
" #	c #FCCA97",
".#	c #FDCD99",
"+#	c #FCCC99",
"@#	c #FACA96",
"##	c #FAC896",
"$#	c #FACA97",
"%#	c #FECB98",
"&#	c #F2C08E",
"*#	c #BE9871",
"=#	c #706556",
"-#	c #656160",
";#	c #433D69",
">#	c #1A16A5",
",#	c #0E1AE7",
"'#	c #0D2BF9",
")#	c #0E33FE",
"!#	c #0F32FF",
"~#	c #2F3FF0",
"{#	c #6E6BBE",
"]#	c #7E7A74",
"^#	c #646141",
"/#	c #414141",
"(#	c #555555",
"_#	c #616161",
":#	c #535353",
"<#	c #544E4A",
"[#	c #947B64",
"}#	c #E6BB8D",
"|#	c #FCCB98",
"1#	c #FBC996",
"2#	c #F3C494",
"3#	c #F6C594",
"4#	c #E2B88D",
"5#	c #E5BE90",
"6#	c #D6AE85",
"7#	c #E4BA8E",
"8#	c #FCD09D",
"9#	c #FECD9A",
"0#	c #F7C492",
"a#	c #CBA076",
"b#	c #7B6751",
"c#	c #514C3E",
"d#	c #43413A",
"e#	c #312D5C",
"f#	c #1E1EAA",
"g#	c #101EE7",
"h#	c #0B26FB",
"i#	c #0F23EE",
"j#	c #252CBF",
"k#	c #4A4770",
"l#	c #5F5B47",
"m#	c #424242",
"n#	c #585858",
"o#	c #737373",
"p#	c #767676",
"q#	c #676767",
"r#	c #565452",
"s#	c #806E5C",
"t#	c #FFCD9A",
"u#	c #FDCB98",
"v#	c #E8BB8F",
"w#	c #AD9176",
"x#	c #AD9276",
"y#	c #B19475",
"z#	c #9B8167",
"A#	c #C6A782",
"B#	c #F4CF9E",
"C#	c #FED09D",
"D#	c #FBC995",
"E#	c #E8B786",
"F#	c #A48362",
"G#	c #615645",
"H#	c #54513D",
"I#	c #4A463F",
"J#	c #3A356B",
"K#	c #1D18CC",
"L#	c #0B0DF5",
"M#	c #1311CB",
"N#	c #241E65",
"O#	c #342C30",
"P#	c #444444",
"Q#	c #606060",
"R#	c #7F7F7F",
"S#	c #808080",
"T#	c #6F6F6F",
"U#	c #575655",
"V#	c #5E554D",
"W#	c #9E8469",
"X#	c #E2B88B",
"Y#	c #F8C896",
"Z#	c #BE9E7E",
"`#	c #9A846E",
" $	c #A78B6F",
".$	c #AD8E6F",
"+$	c #D9B288",
"@$	c #FACD9B",
"#$	c #F0BF8D",
"$$	c #AD8A67",
"%$	c #655A4E",
"&$	c #5C594F",
"*$	c #5B5845",
"=$	c #57534E",
"-$	c #433F74",
";$	c #261F94",
">$	c #261F68",
",$	c #2E2640",
"'$	c #4A4A4A",
")$	c #6D6D6D",
"!$	c #797979",
"~$	c #7A7A7A",
"{$	c #717171",
"]$	c #5D5D5D",
"^$	c #4D4B4A",
"/$	c #60564C",
"($	c #9F8569",
"_$	c #E4B98C",
":$	c #FBCA97",
"<$	c #D8B189",
"[$	c #A88E75",
"}$	c #C9A480",
"|$	c #E5B88B",
"1$	c #F9C795",
"2$	c #E8BA8A",
"3$	c #A08364",
"4$	c #60584C",
"5$	c #59574D",
"6$	c #605E52",
"7$	c #646251",
"8$	c #5A5853",
"9$	c #403C58",
"0$	c #4E4E4E",
"a$	c #6E6E6E",
"b$	c #7B7B7B",
"c$	c #757575",
"d$	c #6C6C6C",
"e$	c #5A5A5A",
"f$	c #4D4C4A",
"g$	c #685C50",
"h$	c #BE9B78",
"i$	c #F7C695",
"j$	c #DCB58B",
"k$	c #9C8670",
"l$	c #B19578",
"m$	c #EEC091",
"n$	c #FAC997",
"o$	c #D4AC82",
"p$	c #7C6A57",
"q$	c #524E47",
"r$	c #5B5A52",
"s$	c #636158",
"t$	c #626055",
"u$	c #595748",
"v$	c #636363",
"w$	c #838383",
"x$	c #888888",
"y$	c #848484",
"z$	c #747474",
"A$	c #6B6B6C",
"B$	c #595859",
"C$	c #615951",
"D$	c #B29474",
"E$	c #F2C795",
"F$	c #FFCD99",
"G$	c #F4C795",
"H$	c #D6B088",
"I$	c #CEAA85",
"J$	c #F0C394",
"K$	c #FDCC99",
"L$	c #F9C896",
"M$	c #C5A27C",
"N$	c #726555",
"O$	c #5A5851",
"P$	c #615F55",
"Q$	c #646158",
"R$	c #565245",
"S$	c #595959",
"T$	c #7E7E7E",
"U$	c #6B6B6B",
"V$	c #55504C",
"W$	c #87745F",
"X$	c #D0AD84",
"Y$	c #F7CA98",
"Z$	c #F9C997",
"`$	c #F7C796",
" %	c #FCCA98",
".%	c #F4C594",
"+%	c #F0C192",
"@%	c #DEB488",
"#%	c #564F45",
"$%	c #595850",
"%%	c #6C6B63",
"&%	c #4F4F4F",
"*%	c #787878",
"=%	c #686868",
"-%	c #666666",
";%	c #4E4E4F",
">%	c #534D48",
",%	c #89745F",
"'%	c #CFAB83",
")%	c #F8CA97",
"!%	c #ECC091",
"~%	c #BE9D7A",
"{%	c #A5896D",
"]%	c #8E7765",
"^%	c #5C514F",
"/%	c #4D4B47",
"(%	c #5E5E52",
"_%	c #605F54",
":%	c #5E5B51",
"<%	c #4D4B3C",
"[%	c #484848",
"}%	c #828282",
"|%	c #727272",
"1%	c #4D4D4D",
"2%	c #544E48",
"3%	c #9F8469",
"4%	c #EBBE8F",
"5%	c #FBC997",
"6%	c #E5B98B",
"7%	c #D8B187",
"8%	c #746759",
"9%	c #5A5450",
"0%	c #474359",
"a%	c #312E61",
"b%	c #464255",
"c%	c #565444",
"d%	c #514F3F",
"e%	c #504D3F",
"f%	c #4B4B4A",
"g%	c #686867",
"h%	c #6A6A6A",
"i%	c #55524F",
"j%	c #927B64",
"k%	c #DEB589",
"l%	c #EABD8E",
"m%	c #D2AA82",
"n%	c #C29E7A",
"o%	c #957D65",
"p%	c #8A7967",
"q%	c #62605D",
"r%	c #565758",
"s%	c #3A3A61",
"t%	c #262376",
"u%	c #2E265C",
"v%	c #3B3B38",
"w%	c #545351",
"x%	c #7A7979",
"y%	c #7C7C7C",
"z%	c #777777",
"A%	c #6D6155",
"B%	c #B09273",
"C%	c #A2866B",
"D%	c #776858",
"E%	c #685D53",
"F%	c #585450",
"G%	c #6D6A68",
"H%	c #747372",
"I%	c #696A6B",
"J%	c #565666",
"K%	c #323263",
"L%	c #2C2750",
"M%	c #2C243B",
"N%	c #535350",
"O%	c #868686",
"P%	c #7D7D7D",
"Q%	c #696969",
"R%	c #555454",
"S%	c #6A625B",
"T%	c #645E57",
"U%	c #585756",
"V%	c #5B5B5B",
"W%	c #606061",
"X%	c #6C6C6D",
"Y%	c #484854",
"Z%	c #302D4B",
"`%	c #30293E",
" &	c #404040",
".&	c #8C8C8C",
"+&	c #686869",
"@&	c #707070",
"#&	c #5D5D5C",
"$&	c #434241",
"%&	c #343339",
"&&	c #5E5E5E",
"*&	c #858585",
"=&	c #818181",
"-&	c #6E6E6D",
";&	c #50504B",
">&	c #403E38",
",&	c #414140",
"'&	c #7E7E7D",
")&	c #686866",
"!&	c #494946",
"~&	c #40403F",
"{&	c #5B5B5A",
"]&	c #565656",
"^&	c #3A3A3A",
"/&	c #423F3B",
"(&	c #4F4D49",
"_&	c #565655",
":&	c #676663",
"<&	c #535251",
"[&	c #656565",
"}&	c #484638",
"|&	c #4B4A42",
"1&	c #5F5E5D",
"2&	c #656563",
"3&	c #70706F",
"4&	c #757574",
"5&	c #71706A",
"6&	c #5D5A4F",
"7&	c #434030",
"8&	c #423E33",
"9&	c #45443C",
"0&	c #504E45",
"a&	c #797772",
"b&	c #85837E",
"c&	c #615D50",
"                                                                                            ",
"                                                                                            ",
"                                                                                            ",
"                                                                                            ",
"                                                                                            ",
"                                                                                            ",
"                                                                                            ",
"                                                            . +                             ",
"                                                            @ # $                           ",
"                                                            % & * =                         ",
"                                                              - ; > , ' )                   ",
"                                                                ! ~ { ] ^ /                 ",
"              ( _ : < [                                           } | 1 2 3 4               ",
"            5 6 7 8 9 0 a                                         b c d e f g h             ",
"            i j k l m n o p q                                       r s t u v w x           ",
"            y z A A A B C D E F   G                                   H I J K L M           ",
"            N O P Q R S T U V W X Y Z                                 `  ...+.@.            ",
"              #.$.%.&.*.=.-.;.>.,.'.).!.                          ~.{.].^./.(._.:.          ",
"                <.[.}.|.1.2.3.4.5.6.7.8.9.0.          a.b.c.d.e.f.g.h.i.j.k.l.m.n.          ",
"                o.p.q.r.s.t.u.v.w.x.y.z.A.B.C.D.E.F.G.H.I.J.K.L.M.N.O.P.Q.R.S.T.U.          ",
"                  V.W.X.Y.Z.`. +.+++@+#+$+%+&+*+=+-+;+>+,+'+)+!+~+{+]+^+/+(+_+:+            ",
"                  <+[+}+|+1+2+3+4+5+6+7+8+9+0+a+b+c+d+e+f+g+h+i+j+k+l+m+n+o+p+              ",
"                q+r+s+t+u+v+w+x+y+z+A+B+C+D+E+F+G+H+I+J+K+L+M+N+O+P+Q+R+S+T+                ",
"              U+V+W+X+Y+Z+`+ @.@+@@@z+#@$@%@8+&@*@=@-@;@>@,@'@M+)@!@~@{@]@                  ",
"            ^@/@(@_@:@<@[@}@|@1@2@3@4@5@6@7@8@9@0@a@b@c@d@e@N+f@g@h@i@j@k@                  ",
"          l@m@n@o@p@q@r@s@t@u@v@w@x@y@z@A@B@C@D@E@F@G@H@I@J@M+K@L@M@N@O@P@                  ",
"      Q@R@S@T@U@V@W@X@Y@Z@`@ #.#+#@###$# #%#&#*#=#-#;#>#,#'#)#!#~#{#]#^#                    ",
"    /#(#_#:#<#[#}#|#u@1#2#3#4#5#V@6#7#8#9#%#0#a#b#c#d#e#f#g#h#i#j#k#l#                      ",
"  m#n#o#p#q#r#s#6#t#v@u@u#v#w#x#y#z#A#B#C#|@D#E#F#G#H#I#J#K#L#M#N#O#                        ",
"P#Q#o#R#S#T#U#V#W#X#t#v@|@Y#Z#`# $.$+$@$9#v@%##$$$%$&$*$=$-$;$>$,$                          ",
"'$)$!$~$~${$]$^$/$($_$v@|@:$<$[$}$|$1$|@v@v@ #2$3$4$5$6$7$8$9$                              ",
"0$a$b$b$~$c$d$e$f$g$h$i$v@:$j$k$l$m$u#v@v@|@n$o$p$q$r$s$t$u$                                ",
"v$w$x$y$R#p#z$A$B$C$D$E$t#F$G$H$I$J$K$|@%#%#L$M$N$O$P$L Q$R$                                ",
"S$R#y$T$!$U$o#o#_#V$W$X$Y$F$F$Z$`$+#|@ %.%+%@%z##%$%t$%%t$:.                                ",
"&%{$S#*%{$=%T#o#-%;%>%,%'%)%v@v@|@u#n$!%~%{%]%^%/%(%_%:%<%                                  ",
"[%-%R#}%!$c$c$|%U$_#1%2%3%4%5%5%##6%7%D$8%9%0%a%b%c%d%e%                                    ",
"  f%g%S#y$T$c$)$h%d$_#i%j%k%l%m%n%o%p%#+q%r%s%t%u%                                          ",
"  v%w%x%y$y%z%|%T#o#a$n#A%B%C%D%E%F%G%H%I%J%K%L%M%                                          ",
"    N%!$O%y$S#P%z%z%c$Q%R%S%T%U%V%W%z$}%X%Y%Z%`%                                            ",
"     &]$R#.&u T$b$~$~$o#U$Q%v$+&@&|%y%y%#&$&%&                                              ",
"       &&&T$*&S#R#w$=&z$h%T#d${$p#z%!$-&;&>&                                                ",
"        ,&#&b$}%w$u S#z$@&z$c$!$b$R#'&)&!&                                                  ",
"          ~&{&T#{$T$w$~$y%|%d$c$c$y$~$]&^&                                                  ",
"            /&(&_&h%P%T$b$h%-&:&<&[&V%Q@                                                    ",
"              }&|&w%1&2&3&4&5&6&                                                            ",
"                7&8&9&0&a&b&c&                                                              "};
