/* XPM */
static char * playerTwo03_xpm[] = {
"46 46 684 2",
"  	c None",
". 	c #464646",
"+ 	c #595959",
"@ 	c #636363",
"# 	c #4E4E4E",
"$ 	c #4A4A4A",
"% 	c #444444",
"& 	c #373631",
"* 	c #474645",
"= 	c #6A6A6A",
"- 	c #767676",
"; 	c #7B7B7B",
"> 	c #838383",
", 	c #6E6E6E",
"' 	c #6D6D6D",
") 	c #606060",
"! 	c #424242",
"~ 	c #404040",
"{ 	c #535350",
"] 	c #4B4A46",
"^ 	c #6B6B6B",
"/ 	c #878787",
"( 	c #808080",
"_ 	c #828282",
": 	c #888888",
"< 	c #797979",
"[ 	c #737373",
"} 	c #585858",
"| 	c #414141",
"1 	c #5D5D5D",
"2 	c #7F7F7F",
"3 	c #858585",
"4 	c #787878",
"5 	c #7D7D7D",
"6 	c #848484",
"7 	c #7A7A7A",
"8 	c #555555",
"9 	c #3E3E3E",
"0 	c #414140",
"a 	c #5E5E5E",
"b 	c #868686",
"c 	c #717171",
"d 	c #777777",
"e 	c #616161",
"f 	c #40403F",
"g 	c #5D5D5C",
"h 	c #7E7E7E",
"i 	c #8C8C8C",
"j 	c #7C7C7C",
"k 	c #646464",
"l 	c #727272",
"m 	c #515253",
"n 	c #424241",
"o 	c #333433",
"p 	c #423F3B",
"q 	c #5B5B5A",
"r 	c #757575",
"s 	c #6F6F6F",
"t 	c #707070",
"u 	c #747474",
"v 	c #6C6C6C",
"w 	c #575655",
"x 	c #565452",
"y 	c #544E4A",
"z 	c #63574C",
"A 	c #615549",
"B 	c #413C38",
"C 	c #4D4938",
"D 	c #848178",
"E 	c #767267",
"F 	c #45402D",
"G 	c #484638",
"H 	c #4F4D49",
"I 	c #6B6B6C",
"J 	c #5A5A5A",
"K 	c #4D4B4A",
"L 	c #5E554D",
"M 	c #806E5C",
"N 	c #947B64",
"O 	c #B89976",
"P 	c #AE9272",
"Q 	c #64584C",
"R 	c #373534",
"S 	c #545041",
"T 	c #8C8A80",
"U 	c #BDBCB8",
"V 	c #B5B4AF",
"W 	c #747165",
"X 	c #443F2D",
"Y 	c #434030",
"Z 	c #4B4A42",
"` 	c #565655",
" .	c #666666",
"..	c #595859",
"+.	c #4D4C4A",
"@.	c #60564C",
"#.	c #9E8469",
"$.	c #D6AE85",
"%.	c #E6BB8D",
"&.	c #EFC594",
"*.	c #C2A380",
"=.	c #74675A",
"-.	c #554D45",
";.	c #3F3B37",
">.	c #635F52",
",.	c #6C685D",
"'.	c #98958F",
").	c #D0D0CE",
"!.	c #EFEFEF",
"~.	c #E9E9E9",
"{.	c #BCBBB6",
"].	c #78766A",
"^.	c #393422",
"/.	c #423E33",
"(.	c #545351",
"_.	c #4E4E4F",
":.	c #55504C",
"<.	c #615951",
"[.	c #685C50",
"}.	c #9F8569",
"|.	c #E2B88B",
"1.	c #FFCD9A",
"2.	c #FCCB98",
"3.	c #EABF91",
"4.	c #AB9277",
"5.	c #99836D",
"6.	c #A3886C",
"7.	c #716251",
"8.	c #4A453C",
"9.	c #636156",
"0.	c #99978F",
"a.	c #B6B3AD",
"b.	c #D7D6D4",
"c.	c #F3F2F2",
"d.	c #FDFDFD",
"e.	c #F9F9F9",
"f.	c #C8C7C2",
"g.	c #89867D",
"h.	c #45443C",
"i.	c #5F5E5D",
"j.	c #818181",
"k.	c #4D4D4D",
"l.	c #534D48",
"m.	c #87745F",
"n.	c #B29474",
"o.	c #BE9B78",
"p.	c #E4B98C",
"q.	c #FFCC99",
"r.	c #FECC98",
"s.	c #EBBE90",
"t.	c #B0957A",
"u.	c #D8B089",
"v.	c #CAA47E",
"w.	c #C39E7A",
"x.	c #655A4E",
"y.	c #72716E",
"z.	c #D6D5D4",
"A.	c #F6F8F7",
"B.	c #FFFFFF",
"C.	c #F8F7F7",
"D.	c #B3B2AD",
"E.	c #686458",
"F.	c #504E45",
"G.	c #656563",
"H.	c #696969",
"I.	c #55524F",
"J.	c #544E48",
"K.	c #89745F",
"L.	c #D0AD84",
"M.	c #F2C795",
"N.	c #F7C695",
"O.	c #FBC996",
"P.	c #C7A482",
"Q.	c #927F6D",
"R.	c #A58B71",
"S.	c #997F65",
"T.	c #A1876B",
"U.	c #AB9476",
"V.	c #7C7565",
"W.	c #819398",
"X.	c #A1D0E3",
"Y.	c #CDEDFB",
"Z.	c #F5FAFD",
"`.	c #EEEDEC",
" +	c #BAB9B5",
".+	c #767368",
"++	c #555041",
"@+	c #605C4F",
"#+	c #797772",
"$+	c #70706F",
"%+	c #555454",
"&+	c #6D6155",
"*+	c #927B64",
"=+	c #9F8469",
"-+	c #CFAB83",
";+	c #F7CA98",
">+	c #FECC99",
",+	c #FDCB98",
"'+	c #F3C494",
")+	c #C5A481",
"!+	c #B79A7C",
"~+	c #CDAA83",
"{+	c #BB9977",
"]+	c #BC9C79",
"^+	c #DAB88E",
"/+	c #AB9778",
"(+	c #5B767C",
"_+	c #51A5CF",
":+	c #A6DEF9",
"<+	c #EAF4F8",
"[+	c #D4D4D1",
"}+	c #7F7D74",
"|+	c #504B3E",
"1+	c #6E6B60",
"2+	c #85837E",
"3+	c #757574",
"4+	c #6A625B",
"5+	c #B09273",
"6+	c #DEB589",
"7+	c #EBBE8F",
"8+	c #F8CA97",
"9+	c #FFCD99",
"0+	c #FBCA97",
"a+	c #F8C896",
"b+	c #E8BB8F",
"c+	c #F6C594",
"d+	c #F0C293",
"e+	c #EEC293",
"f+	c #FACD99",
"g+	c #EDC091",
"h+	c #EDBF90",
"i+	c #F9CA97",
"j+	c #C7A47E",
"k+	c #5F7274",
"l+	c #398BB4",
"m+	c #93D4F1",
"n+	c #E3ECF1",
"o+	c #BFBDB8",
"p+	c #706D62",
"q+	c #615D50",
"r+	c #71706A",
"s+	c #6E6E6D",
"t+	c #645E57",
"u+	c #A2866B",
"v+	c #EABD8E",
"w+	c #FBC997",
"x+	c #F4C795",
"y+	c #DCB58B",
"z+	c #D8B189",
"A+	c #BE9E7E",
"B+	c #AD9176",
"C+	c #E2B88D",
"D+	c #FCCA97",
"E+	c #FDCD99",
"F+	c #F6C795",
"G+	c #F3C593",
"H+	c #DBB185",
"I+	c #837867",
"J+	c #487C91",
"K+	c #7EBFDB",
"L+	c #C5D0D3",
"M+	c #99948A",
"N+	c #625D4F",
"O+	c #5D5A4F",
"P+	c #676663",
"Q+	c #686869",
"R+	c #585756",
"S+	c #776858",
"T+	c #D2AA82",
"U+	c #F9C997",
"V+	c #D6B088",
"W+	c #9C8670",
"X+	c #A88E75",
"Y+	c #9A846E",
"Z+	c #AD9276",
"`+	c #E5BE90",
" @	c #FECE9B",
".@	c #ECC292",
"+@	c #CCA780",
"@@	c #CBA67E",
"#@	c #DAAF80",
"$@	c #9C8367",
"%@	c #64828A",
"&@	c #97C0D0",
"*@	c #A7ABA8",
"=@	c #6F6A5E",
"-@	c #535251",
";@	c #5B5B5B",
">@	c #685D53",
",@	c #C29E7A",
"'@	c #FAC896",
")@	c #F7C796",
"!@	c #CEAA85",
"~@	c #B19578",
"{@	c #C9A480",
"]@	c #A78B6F",
"^@	c #B19475",
"/@	c #FCCC99",
"(@	c #FECE9A",
"_@	c #BB9B78",
":@	c #8B755E",
"<@	c #AD8D6D",
"[@	c #C49C73",
"}@	c #887764",
"|@	c #8A999A",
"1@	c #BAC6C6",
"2@	c #999993",
"3@	c #656565",
"4@	c #606061",
"5@	c #585450",
"6@	c #957D65",
"7@	c #E5B98B",
"8@	c #F0C394",
"9@	c #EEC091",
"0@	c #E5B88B",
"a@	c #AD8E6F",
"b@	c #9B8167",
"c@	c #FACA96",
"d@	c #EFC393",
"e@	c #BD9D79",
"f@	c #84715B",
"g@	c #987E64",
"h@	c #D0A67C",
"i@	c #BF9973",
"j@	c #898275",
"k@	c #A0A8A8",
"l@	c #AAA69E",
"m@	c #797367",
"n@	c #7E7E7D",
"o@	c #6D6A68",
"p@	c #8A7967",
"q@	c #D8B187",
"r@	c #FAC997",
"s@	c #FDCC99",
"t@	c #F9C795",
"u@	c #D9B288",
"v@	c #C6A782",
"w@	c #E4BA8E",
"x@	c #DCB388",
"y@	c #977F65",
"z@	c #D3A87E",
"A@	c #D5A77B",
"B@	c #9C7E61",
"C@	c #817A71",
"D@	c #928D86",
"E@	c #6E6859",
"F@	c #4E4A3A",
"G@	c #565656",
"H@	c #686866",
"I@	c #747372",
"J@	c #776C60",
"K@	c #ECC091",
"L@	c #FCCA98",
"M@	c #FACD9B",
"N@	c #F4CF9E",
"O@	c #FCD09D",
"P@	c #FACA97",
"Q@	c #DCB287",
"R@	c #A38669",
"S@	c #C19B75",
"T@	c #D2A579",
"U@	c #9E7E60",
"V@	c #6B6258",
"W@	c #898A8A",
"X@	c #88857D",
"Y@	c #433F2D",
"Z@	c #3A3A3A",
"`@	c #494946",
" #	c #50504B",
".#	c #6C6C6D",
"+#	c #696A6B",
"@#	c #62605D",
"##	c #746759",
"$#	c #BE9D7A",
"%#	c #F4C594",
"&#	c #FECB98",
"*#	c #FECD9A",
"=#	c #FED09D",
"-#	c #DFB387",
";#	c #B08F6C",
">#	c #B6906A",
",#	c #9A7B5D",
"'#	c #746C61",
")#	c #888A88",
"!#	c #A5A39F",
"~#	c #848176",
"{#	c #403E38",
"]#	c #434241",
"^#	c #484854",
"/#	c #565666",
"(#	c #565758",
"_#	c #5A5450",
":#	c #A5896D",
"<#	c #F0C192",
"[#	c #ECBB8B",
"}#	c #C59B72",
"|#	c #927559",
"1#	c #736C61",
"2#	c #8D9392",
"3#	c #B5B5B3",
"4#	c #928E85",
"5#	c #575345",
"6#	c #343339",
"7#	c #302D4B",
"8#	c #282971",
"9#	c #3E3E5A",
"0#	c #413E5C",
"a#	c #8E7765",
"b#	c #DEB488",
"c#	c #F9C896",
"d#	c #FBC995",
"e#	c #F7C492",
"f#	c #F2C08E",
"g#	c #DDAE7F",
"h#	c #9B7C5E",
"i#	c #8E9696",
"j#	c #CFD3D3",
"k#	c #D1CDCA",
"l#	c #858379",
"m#	c #30293E",
"n#	c #30294A",
"o#	c #1D199C",
"p#	c #272663",
"q#	c #564D49",
"r#	c #C5A27C",
"s#	c #D4AC82",
"t#	c #E8BA8A",
"u#	c #F0BF8D",
"v#	c #E8B786",
"w#	c #CBA076",
"x#	c #BE9871",
"y#	c #987C60",
"z#	c #736B60",
"A#	c #919696",
"B#	c #D1D5D5",
"C#	c #DFDED9",
"D#	c #A4A29C",
"E#	c #666155",
"F#	c #302732",
"G#	c #2A225D",
"H#	c #4B4758",
"I#	c #494A42",
"J#	c #564F45",
"K#	c #726555",
"L#	c #7C6A57",
"M#	c #A08364",
"N#	c #AD8A67",
"O#	c #A48362",
"P#	c #7B6751",
"Q#	c #706556",
"R#	c #7C766E",
"S#	c #949996",
"T#	c #D2D6D7",
"U#	c #E2E2DA",
"V#	c #A2A09E",
"W#	c #5E5966",
"X#	c #37312A",
"Y#	c #565444",
"Z#	c #5E5E52",
"`#	c #5A5950",
" $	c #5A5851",
".$	c #524E47",
"+$	c #60584C",
"@$	c #615645",
"#$	c #514C3E",
"$$	c #656160",
"%$	c #9C9594",
"&$	c #BDBCB0",
"*$	c #F0EFE7",
"=$	c #CBCBC4",
"-$	c #6C6982",
";$	c #2B2580",
">$	c #211B52",
",$	c #514F3F",
"'$	c #605F54",
")$	c #605E54",
"!$	c #615F55",
"~$	c #5B5A52",
"{$	c #59574D",
"]$	c #5C594F",
"^$	c #54513D",
"/$	c #43413A",
"($	c #433D69",
"_$	c #5F5990",
":$	c #8B8892",
"<$	c #C3C1B9",
"[$	c #B0AEAA",
"}$	c #534F95",
"|$	c #1A13B1",
"1$	c #20188A",
"2$	c #4E4B3C",
"3$	c #626056",
"4$	c #6C6B63",
"5$	c #585548",
"6$	c #66645C",
"7$	c #636157",
"8$	c #5C5943",
"9$	c #4E4939",
"0$	c #342E42",
"a$	c #140CB6",
"b$	c #0804BD",
"c$	c #2C257C",
"d$	c #6E6865",
"e$	c #6E6674",
"f$	c #2F289A",
"g$	c #0D0AE5",
"h$	c #1B16BC",
"i$	c #302A51",
"j$	c #44402F",
"k$	c #626055",
"l$	c #69675E",
"m$	c #64625B",
"n$	c #6A6852",
"o$	c #5C5848",
"p$	c #3E365B",
"q$	c #1D1AAE",
"r$	c #0C18F6",
"s$	c #0A25F7",
"t$	c #0B0FD9",
"u$	c #1C20A3",
"v$	c #1B1CA9",
"w$	c #1115D8",
"x$	c #0B1DF9",
"y$	c #191FC0",
"z$	c #2C2761",
"A$	c #514D3F",
"B$	c #565245",
"C$	c #595748",
"D$	c #5A5853",
"E$	c #433F74",
"F$	c #211FBC",
"G$	c #101EE7",
"H$	c #0D2BF9",
"I$	c #0E32FF",
"J$	c #0D2DF8",
"K$	c #0E29EF",
"L$	c #0D28F3",
"M$	c #0D2DFA",
"N$	c #0E29F6",
"O$	c #1921B7",
"P$	c #292566",
"Q$	c #403C58",
"R$	c #261F94",
"S$	c #1012E1",
"T$	c #0B26FB",
"U$	c #0E33FE",
"V$	c #0E36FF",
"W$	c #0F37FF",
"X$	c #0E35FE",
"Y$	c #0F38FF",
"Z$	c #0E2FFC",
"`$	c #1621CE",
" %	c #26207A",
".%	c #424030",
"+%	c #4C4A3E",
"@%	c #444033",
"#%	c #261F68",
"$%	c #1618B8",
"%%	c #0F23EE",
"&%	c #0F32FF",
"*%	c #0B2EFF",
"=%	c #0C31FF",
"-%	c #0F36FE",
";%	c #0F33FC",
">%	c #1124E5",
",%	c #1E1E9D",
"'%	c #454131",
")%	c #4F4D44",
"!%	c #433F31",
"~%	c #382E30",
"{%	c #241E65",
"]%	c #2327D3",
"^%	c #2E40F9",
"/%	c #2335FF",
"(%	c #142DFF",
"_%	c #0A2BFF",
":%	c #052BFF",
"<%	c #0D35FF",
"[%	c #0F3AFF",
"}%	c #0F2AF4",
"|%	c #201F9C",
"1%	c #423D2B",
"2%	c #4E4C41",
"3%	c #4D4C41",
"4%	c #474437",
"5%	c #342C30",
"6%	c #4B4661",
"7%	c #847CC9",
"8%	c #7271F9",
"9%	c #5559FF",
"0%	c #3133FF",
"a%	c #0817FF",
"b%	c #071DFF",
"c%	c #0525FF",
"d%	c #0B28FC",
"e%	c #1B1AAC",
"f%	c #2D2267",
"g%	c #423E2F",
"h%	c #4F4C3F",
"i%	c #5C5A52",
"j%	c #575650",
"k%	c #393521",
"l%	c #5F5B47",
"m%	c #7E7A74",
"n%	c #ABA8C0",
"o%	c #B5B3E9",
"p%	c #9F9DF7",
"q%	c #7D7DFC",
"r%	c #5859FF",
"s%	c #333CFF",
"t%	c #222BF6",
"u%	c #1B1AC6",
"v%	c #221B81",
"w%	c #474539",
"x%	c #5D5B54",
"y%	c #767573",
"z%	c #777772",
"A%	c #5E5D54",
"B%	c #646141",
"C%	c #888575",
"D%	c #B1AEAA",
"E%	c #BEBBC3",
"F%	c #D0CCE9",
"G%	c #C1BFF9",
"H%	c #AAAAFF",
"I%	c #7575F7",
"J%	c #2E2BD0",
"K%	c #221A7C",
"L%	c #37312F",
"M%	c #48452F",
"N%	c #5E5D57",
"O%	c #7A7A7B",
"P%	c #888989",
"Q%	c #75746E",
"R%	c #555245",
"S%	c #6E6A5D",
"T%	c #817E6E",
"U%	c #817D6B",
"V%	c #B1AEA5",
"W%	c #E1DFDF",
"X%	c #EAEAF4",
"Y%	c #B4B2D7",
"Z%	c #4C47A0",
"`%	c #2B255E",
" &	c #44403C",
".&	c #5F5E54",
"+&	c #7B7A7B",
"@&	c #878687",
"#&	c #787772",
"$&	c #595649",
"%&	c #413E2D",
"&&	c #706C5F",
"*&	c #A9A79F",
"=&	c #E2E1DD",
"-&	c #C5C4C7",
";&	c #706C79",
">&	c #413D44",
",&	c #565350",
"'&	c #7A7978",
")&	c #777570",
"!&	c #5A5749",
"~&	c #484534",
"{&	c #737062",
"]&	c #B2B0A8",
"^&	c #D8D8D3",
"/&	c #A7A69D",
"(&	c #656256",
"_&	c #64625C",
":&	c #7B7B79",
"<&	c #76746F",
"[&	c #433E2D",
"}&	c #7A776A",
"|&	c #B0AEA6",
"1&	c #B0ADA6",
"2&	c #6C695D",
"3&	c #5D5A51",
"4&	c #5F5C52",
"5&	c #524F42",
"6&	c #454132",
"7&	c #6D695B",
"8&	c #746F63",
"9&	c #504D3D",
"0&	c #413B29",
"a&	c #393420",
"                                                                                            ",
"                                                                                            ",
"                                                                                            ",
"                                                                                            ",
"                                                                                            ",
"                      . . + @ # $ %                                                         ",
"                  & * = - ; > , ' ) !                                                       ",
"              ~ { ] ^ / ( _ : ; < [ } |                                                     ",
"            ~ 1 < 2 3 _ 4 5 6 ; 7 2 [ 8 9                                                   ",
"          0 a 2 b 6 6 < c d 2 7 7 ( - e .                                                   ",
"        f g h i 6 j h - k ^ d 4 l [ ^ m n o                                                 ",
"      p q ; 3 / ( d r r s t u v 1 w x y z A B               C D E F                         ",
"    G H s _ ( h 5 l ' l [ [ I J K L M N O P Q R           S T U V W X                       ",
"  Y Z ` c > 2 ; d s = ^  .e ..+.@.#.$.%.&.*.=.-.;.    >.,.'.).!.~.{.].                      ",
"^./.(.= h / > 7 d [ v e _.:.<.[.}.|.1.2.3.4.5.6.7.8.9.0.a.b.c.d.e.f.g.                      ",
"  h.i.5 > ( j.7 r , e k.l.m.n.o.p.1.q.r.s.t.u.v.w.x.y.z.A.B.B.B.C.D.E.                      ",
"  F.G.h 7 u u [ H.} I.J.K.L.M.N.q.q.r.O.P.Q.R.S.T.U.V.W.X.Y.Z.`. +.+++                      ",
"@+#+$+; j t = ^ %+&+*+=+-+;+1.q.>+>+,+'+)+!+~+{+]+^+/+(+_+:+<+[+}+|+                        ",
"1+2+3+= l u s H.4+5+6+7+8+9+9+0+0+a+b+c+d+e+f+g+h+i+j+k+l+m+n+o+p+                          ",
"  q+r+s+v r v @ t+u+v+w+q.9+x+y+z+A+B+C+D+r.>+E+F+G+H+I+J+K+L+M+N+                          ",
"    O+P+r < c Q+R+S+T+w+q.U+V+W+X+Y+Z+`+E+q. @.@+@@@#@$@%@&@*@=@                            ",
"      -@r ; - t ;@>@,@'@>+)@!@~@{@]@^@&./@(@.@_@:@<@[@}@|@1@2@                              ",
"      3@6 2 d l 4@5@6@7@,+/@8@9@0@a@b@$.c@d@e@f@g@h@i@j@k@l@m@                              ",
"      ;@7 n@< j u o@p@q@r@>+s@,+t@u@v@w@'@x@y@g@z@A@B@C@D@E@F@                              ",
"      9 G@H@s+j _ I@J@n.K@L@>+q.>+M@N@O@P@Q@R@S@T@U@V@W@X@Y@                                ",
"        Z@`@ #g .#+#@###$#%#&#q.q.*#=#*#D+-#;#>#,#'#)#!#~#                                  ",
"            {#]#^#/#(#_#:#<#&#>+q.q.>+&#&#[#}#|#1#2#3#4#5#                                  ",
"              6#7#8#9#0#a#b#c#r@D+&#d#e#f#g#h#'#i#j#k#l#                                    ",
"                m#n#o#p#q#b@r#s#t#u#v#w#x#y#z#A#B#C#D#E#                                    ",
"                  F#G#H#I#J#K#L#M#N#O#P#Q#R#S#T#U#V#W#X#                                    ",
"                      Y#Z#`# $.$+$x.@$#$$$%$&$*$=$-$;$>$                                    ",
"                      ,$'$)$!$~${$]$^$/$($_$:$<$[$}$|$1$                                    ",
"                      2$3$4$5$6$7$8$9$0$a$b$c$d$e$f$g$h$i$                                  ",
"                        j$k$l$m$n$o$p$q$r$s$t$u$v$w$x$y$z$                                  ",
"                          A$B$C$D$E$F$G$H$I$J$K$L$M$N$O$P$                                  ",
"                                Q$R$S$T$U$V$W$X$V$Y$Z$`$ %                .%+%@%            ",
"                                  #%$%%%&%*%=%V$W$-%;%>%,%              '%+%)%!%            ",
"                                  ~%{%]%^%/%(%_%:%<%[%}%|%            1%2%3%4%              ",
"                                    5%6%7%8%9%0%a%b%c%d%e%f%      g%h%i%j%k%                ",
"                                      l%m%n%o%p%q%r%s%t%u%v%    w%x%y%z%A%                  ",
"                                        B%C%D%E%F%G%H%I%J%K%L%M%N%O%P%Q%R%                  ",
"                                          S%T%U%V%W%X%Y%Z%`% &.&+&@&#&$&%&                  ",
"                                                &&*&=&-&;&>&,&'&/ )&!&~&                    ",
"                                                  {&]&^&/&(&_&:&<&5$[&                      ",
"                                                    }&|&1&2&3&4&5&6&                        ",
"                                                      7&8&9&  0&a&                          "};
