/* XPM */
static char * playerTwo05_xpm[] = {
"46 46 622 2",
"  	c None",
". 	c #4D4937",
"+ 	c #494432",
"@ 	c #524F3F",
"# 	c #87847C",
"$ 	c #A6A49E",
"% 	c #C5C5C4",
"& 	c #B0AEA9",
"* 	c #747165",
"= 	c #4F4B3A",
"- 	c #A09F97",
"; 	c #F6F7F9",
"> 	c #FFFFFF",
", 	c #EAEAE8",
"' 	c #939289",
") 	c #585447",
"! 	c #5A5647",
"~ 	c #B8B7B2",
"{ 	c #FCFCFD",
"] 	c #BBBAB6",
"^ 	c #524E3E",
"/ 	c #464134",
"( 	c #BFBEBC",
"_ 	c #FAFAFA",
": 	c #B5B4B1",
"< 	c #4D493B",
"[ 	c #605C51",
"} 	c #C3C2BD",
"| 	c #FEFEFE",
"1 	c #FFFDFC",
"2 	c #CCCDCB",
"3 	c #5B5849",
"4 	c #474231",
"5 	c #ABA9A3",
"6 	c #F2EEEB",
"7 	c #F0FDFF",
"8 	c #D9F4FF",
"9 	c #F4FAFD",
"0 	c #F7F4F4",
"a 	c #A3A29C",
"b 	c #504B3A",
"c 	c #454545",
"d 	c #3F3F3F",
"e 	c #3C3C3C",
"f 	c #373737",
"g 	c #4D493E",
"h 	c #9D9D9A",
"i 	c #D1D6D7",
"j 	c #8ECAE2",
"k 	c #6AC9FA",
"l 	c #C8F0FF",
"m 	c #C8BFB8",
"n 	c #555144",
"o 	c #393939",
"p 	c #565656",
"q 	c #838383",
"r 	c #737373",
"s 	c #747474",
"t 	c #727272",
"u 	c #5E5E5E",
"v 	c #444444",
"w 	c #3B3936",
"x 	c #4D463F",
"y 	c #49443E",
"z 	c #3A3938",
"A 	c #4A443F",
"B 	c #4F4840",
"C 	c #514A42",
"D 	c #59554E",
"E 	c #52524C",
"F 	c #48626B",
"G 	c #1988C3",
"H 	c #48B0E2",
"I 	c #8FD8F6",
"J 	c #C3C5C2",
"K 	c #655E50",
"L 	c #606060",
"M 	c #767676",
"N 	c #7C7C7C",
"O 	c #7B7B7B",
"P 	c #8B8B8B",
"Q 	c #7F7F7F",
"R 	c #646464",
"S 	c #685A4D",
"T 	c #C8A780",
"U 	c #B99A7A",
"V 	c #5E5954",
"W 	c #BF9D7A",
"X 	c #CCA67F",
"Y 	c #C39E7B",
"Z 	c #C9AE88",
"` 	c #CDB48B",
" .	c #A0886A",
"..	c #43565C",
"+.	c #2D5365",
"@.	c #49A0C5",
"#.	c #BFDBE4",
"$.	c #AFAAA5",
"%.	c #5A584C",
"&.	c #3A3A3A",
"*.	c #696969",
"=.	c #969696",
"-.	c #898989",
";.	c #787878",
">.	c #808080",
",.	c #797979",
"'.	c #626262",
").	c #464545",
"!.	c #806B58",
"~.	c #F7CC99",
"{.	c #E4BD91",
"].	c #726961",
"^.	c #E9BC90",
"/.	c #B39373",
"(.	c #796755",
"_.	c #B59979",
":.	c #FFD39F",
"<.	c #F0BF8E",
"[.	c #C39E79",
"}.	c #A28262",
"|.	c #516366",
"1.	c #BACBCC",
"2.	c #C7BEB5",
"3.	c #595545",
"4.	c #5D5D5D",
"5.	c #848484",
"6.	c #878787",
"7.	c #888888",
"8.	c #676767",
"9.	c #4E4F4F",
"0.	c #6B5E52",
"a.	c #CDA67F",
"b.	c #FACB98",
"c.	c #F3C595",
"d.	c #C3A281",
"e.	c #9D8772",
"f.	c #A2886E",
"g.	c #AC8C6F",
"h.	c #CBA47E",
"i.	c #FCC997",
"j.	c #FFCF9B",
"k.	c #FFD19A",
"l.	c #DFAD7B",
"m.	c #615344",
"n.	c #8FA7AE",
"o.	c #C7BBB4",
"p.	c #413D2A",
"q.	c #6C6C6C",
"r.	c #777777",
"s.	c #424141",
"t.	c #836E5A",
"u.	c #FFCD9A",
"v.	c #FFCE9A",
"w.	c #FDCB98",
"x.	c #645F5C",
"y.	c #B69A7C",
"z.	c #FFD39D",
"A.	c #FCCB99",
"B.	c #E4B98D",
"C.	c #A78A6C",
"D.	c #D7AB7E",
"E.	c #AD8A67",
"F.	c #7D7D76",
"G.	c #9D9894",
"H.	c #5B5748",
"I.	c #3F3B29",
"J.	c #3C3B37",
"K.	c #6B6B6B",
"L.	c #757575",
"M.	c #414241",
"N.	c #836F5B",
"O.	c #FFD09B",
"P.	c #FFCD99",
"Q.	c #FECB98",
"R.	c #A48C75",
"S.	c #D5AF87",
"T.	c #FFD19C",
"U.	c #FFCC99",
"V.	c #FFD19D",
"W.	c #D0AA82",
"X.	c #605449",
"Y.	c #D5AC82",
"Z.	c #E9B582",
"`.	c #705E4C",
" +	c #898988",
".+	c #B3B1AC",
"++	c #555141",
"@+	c #474435",
"#+	c #535048",
"$+	c #403C2B",
"%+	c #45433F",
"&+	c #707070",
"*+	c #6D6D6D",
"=+	c #FFD29D",
"-+	c #CFAA82",
";+	c #5D5247",
">+	c #D6AC83",
",+	c #ECB783",
"'+	c #705D4B",
")+	c #848A8B",
"!+	c #BEBAB4",
"~+	c #413D2E",
"{+	c #5C5B57",
"]+	c #413E2E",
"^+	c #8A8A8A",
"/+	c #868686",
"(+	c #585859",
"_+	c #4E4A47",
":+	c #957B63",
"<+	c #FECC99",
"[+	c #EDBF91",
"}+	c #F6C696",
"|+	c #5C5247",
"1+	c #D6AD83",
"2+	c #7B878B",
"3+	c #C6C0BA",
"4+	c #6C695F",
"5+	c #454131",
"6+	c #504F45",
"7+	c #49463A",
"8+	c #7A7A7A",
"9+	c #8D8D8D",
"0+	c #5F5F5F",
"a+	c #404040",
"b+	c #927B64",
"c+	c #EFC191",
"d+	c #867668",
"e+	c #C8A682",
"f+	c #FFD59F",
"g+	c #D4AE85",
"h+	c #6D5F50",
"i+	c #C49F7A",
"j+	c #E4B17F",
"k+	c #715E4B",
"l+	c #78878B",
"m+	c #FAF4F3",
"n+	c #B8B7B4",
"o+	c #4B4634",
"p+	c #44402F",
"q+	c #53514A",
"r+	c #393521",
"s+	c #979797",
"t+	c #818181",
"u+	c #6F6F6F",
"v+	c #666666",
"w+	c #5A5A5A",
"x+	c #383839",
"y+	c #A98C6E",
"z+	c #FFD8A1",
"A+	c #FDCC99",
"B+	c #F4C494",
"C+	c #6E675F",
"D+	c #B29679",
"E+	c #F1C795",
"F+	c #F3C594",
"G+	c #F3C393",
"H+	c #C39F7B",
"I+	c #8C765E",
"J+	c #C2986E",
"K+	c #735F4C",
"L+	c #72858B",
"M+	c #FFFEFD",
"N+	c #C0BFB9",
"O+	c #484236",
"P+	c #28221A",
"Q+	c #443F2E",
"R+	c #605F5C",
"S+	c #535045",
"T+	c #383837",
"U+	c #929292",
"V+	c #A5886C",
"W+	c #FFD39E",
"X+	c #E9BD91",
"Y+	c #9E8872",
"Z+	c #BD9D7E",
"`+	c #937C65",
" @	c #706051",
".@	c #AB8C6F",
"+@	c #FAC896",
"@@	c #C59F7A",
"#@	c #D3A476",
"$@	c #725F4B",
"%@	c #7A868B",
"&@	c #B5B39E",
"*@	c #454078",
"=@	c #130B9C",
"-@	c #282078",
";@	c #312A4D",
">@	c #504D40",
",@	c #7B7B76",
"'@	c #72716B",
")@	c #4A4636",
"!@	c #7D7D7D",
"~@	c #5C5C5C",
"{@	c #333437",
"]@	c #A1856A",
"^@	c #FFD49E",
"/@	c #FFD29C",
"(@	c #DAB48B",
"_@	c #635F5A",
":@	c #E5B98D",
"<@	c #CEA680",
"[@	c #A6896C",
"}@	c #CCAF88",
"|@	c #FCD8A6",
"1@	c #FFCE9B",
"2@	c #EAB682",
"3@	c #79878B",
"4@	c #C1C0B1",
"5@	c #59555C",
"6@	c #1810BE",
"7@	c #130BD7",
"8@	c #1918C5",
"9@	c #2A266A",
"0@	c #3F3A2A",
"a@	c #5E5B56",
"b@	c #929395",
"c@	c #838380",
"d@	c #373736",
"e@	c #717171",
"f@	c #515150",
"g@	c #776757",
"h@	c #CEA67F",
"i@	c #EBBE91",
"j@	c #AA9177",
"k@	c #F0C193",
"l@	c #FED3A0",
"m@	c #FFD8A5",
"n@	c #72838A",
"o@	c #FCFDFB",
"p@	c #B5B5A5",
"q@	c #423B90",
"r@	c #0B0CE6",
"s@	c #0F22F2",
"t@	c #1B20B0",
"u@	c #312A48",
"v@	c #2D1E67",
"w@	c #62615C",
"x@	c #8C8D90",
"y@	c #82817E",
"z@	c #4C4837",
"A@	c #3A3933",
"B@	c #828282",
"C@	c #7E7E7E",
"D@	c #6E6E6E",
"E@	c #414140",
"F@	c #FACD99",
"G@	c #F4C18F",
"H@	c #C59B72",
"I@	c #69655B",
"J@	c #ACA7A4",
"K@	c #CFCEAE",
"L@	c #E2E1D4",
"M@	c #ABA88B",
"N@	c #3F3575",
"O@	c #1116DA",
"P@	c #0D2DFF",
"Q@	c #0C25FF",
"R@	c #131CE3",
"S@	c #1C1AB7",
"T@	c #2F2C58",
"U@	c #3B3727",
"V@	c #636361",
"W@	c #909092",
"X@	c #7D7C77",
"Y@	c #4A4635",
"Z@	c #494637",
"`@	c #4E4E4D",
" #	c #858585",
".#	c #6F6F70",
"+#	c #4D4C4C",
"@#	c #AD8F71",
"##	c #DAAF86",
"$#	c #E8BB8D",
"%#	c #FECB97",
"&#	c #DBAA7A",
"*#	c #675847",
"=#	c #5E5D57",
"-#	c #B2A4A4",
";#	c #6F6D87",
">#	c #524C6D",
",#	c #423D60",
"'#	c #181CA6",
")#	c #0C22FF",
"!#	c #103DFF",
"~#	c #1039FF",
"{#	c #0F31FD",
"]#	c #1026EF",
"^#	c #1719C2",
"/#	c #281F7B",
"(#	c #2D246A",
"_#	c #433F18",
":#	c #62615E",
"<#	c #8C8C8E",
"[#	c #83817E",
"}#	c #423E2C",
"|#	c #4C4A39",
"1#	c #4F4F4E",
"2#	c #616161",
"3#	c #57524E",
"4#	c #4D4841",
"5#	c #8E7761",
"6#	c #EFBF90",
"7#	c #F4C393",
"8#	c #FCC894",
"9#	c #CDA073",
"0#	c #625446",
"a#	c #424237",
"b#	c #3E385D",
"c#	c #1710AD",
"d#	c #0200BF",
"e#	c #0E12D8",
"f#	c #0D26F6",
"g#	c #0E32FF",
"h#	c #103AFF",
"i#	c #1036FF",
"j#	c #0F39FF",
"k#	c #0C27F9",
"l#	c #0F12D8",
"m#	c #1A14AD",
"n#	c #231B5C",
"o#	c #403B30",
"p#	c #66645D",
"q#	c #919194",
"r#	c #807F7B",
"s#	c #4C4839",
"t#	c #413C2C",
"u#	c #4C4C49",
"v#	c #6A6A6A",
"w#	c #636363",
"x#	c #646465",
"y#	c #58595A",
"z#	c #4E4B48",
"A#	c #534C44",
"B#	c #85715D",
"C#	c #E0B78B",
"D#	c #F0C494",
"E#	c #EFC494",
"F#	c #F9C997",
"G#	c #FBCB99",
"H#	c #F0C18F",
"I#	c #D0A376",
"J#	c #695948",
"K#	c #584F43",
"L#	c #4F4F36",
"M#	c #322D37",
"N#	c #0D08E1",
"O#	c #0E2CFF",
"P#	c #0E31FF",
"Q#	c #1037FF",
"R#	c #123AFF",
"S#	c #0A2FFF",
"T#	c #0826FF",
"U#	c #0719FF",
"V#	c #3236FF",
"W#	c #322FFA",
"X#	c #1F1796",
"Y#	c #312D3A",
"Z#	c #57554E",
"`#	c #75746E",
" $	c #3A341F",
".$	c #413E32",
"+$	c #535250",
"@$	c #8C8C8C",
"#$	c #5C5C5D",
"$$	c #565759",
"%$	c #716E6A",
"&$	c #766759",
"*$	c #766556",
"=$	c #736353",
"-$	c #C6A17D",
";$	c #FECE9A",
">$	c #FBCA98",
",$	c #D0A981",
"'$	c #7B6855",
")$	c #675A4A",
"!$	c #5F5B56",
"~$	c #5E5C56",
"{$	c #545238",
"]$	c #3B344F",
"^$	c #1415CB",
"/$	c #0C28FF",
"($	c #113BFF",
"_$	c #1139FF",
":$	c #0F36FF",
"<$	c #0D34FF",
"[$	c #0221FF",
"}$	c #0010FF",
"|$	c #2F31FF",
"1$	c #5B56FF",
"2$	c #C6C6FF",
"3$	c #C0BDDC",
"4$	c #5F5A78",
"5$	c #49453F",
"6$	c #514E3B",
"7$	c #62615B",
"8$	c #545144",
"9$	c #36301A",
"0$	c #464337",
"a$	c #676766",
"b$	c #646463",
"c$	c #828383",
"d$	c #5C5E60",
"e$	c #5D6062",
"f$	c #404346",
"g$	c #6E6054",
"h$	c #947B62",
"i$	c #907961",
"j$	c #766757",
"k$	c #474743",
"l$	c #434440",
"m$	c #525044",
"n$	c #67655B",
"o$	c #545039",
"p$	c #403859",
"q$	c #1416D8",
"r$	c #0F32FD",
"s$	c #082DFF",
"t$	c #0323FF",
"u$	c #0F23FF",
"v$	c #3637FF",
"w$	c #696BFF",
"x$	c #B7B3FF",
"y$	c #E9E7FF",
"z$	c #FFFFF8",
"A$	c #D2D1CE",
"B$	c #CBCBBF",
"C$	c #9F9C94",
"D$	c #514D40",
"E$	c #4E4937",
"F$	c #B1B0B0",
"G$	c #7F7E7C",
"H$	c #7C7C7A",
"I$	c #7E7D7C",
"J$	c #686868",
"K$	c #4B4B4B",
"L$	c #2B2B6D",
"M$	c #333243",
"N$	c #474640",
"O$	c #4A4840",
"P$	c #68665E",
"Q$	c #6E6C65",
"R$	c #646259",
"S$	c #615F54",
"T$	c #6A684F",
"U$	c #4C4766",
"V$	c #120CED",
"W$	c #091FFF",
"X$	c #0B2BFF",
"Y$	c #1A3AFF",
"Z$	c #393CFF",
"`$	c #6164FF",
" %	c #B2AEFF",
".%	c #D4CFF1",
"+%	c #DEDBE0",
"@%	c #D9D7CE",
"#%	c #D0CEC9",
"$%	c #D7D6D2",
"%%	c #D7D7D3",
"&%	c #EBEAE8",
"*%	c #C1BEB9",
"=%	c #4C4836",
"-%	c #666254",
";%	c #524D3C",
">%	c #686456",
",%	c #4A463A",
"'%	c #414141",
")%	c #46464D",
"!%	c #2B2C6F",
"~%	c #272873",
"{%	c #1E199D",
"]%	c #413C60",
"^%	c #64634F",
"/%	c #6B6B62",
"(%	c #646257",
"_%	c #484433",
":%	c #6B6961",
"<%	c #64625A",
"[%	c #676556",
"}%	c #484557",
"|%	c #1A12B4",
"1%	c #1411CA",
"2%	c #1217CC",
"3%	c #383AD7",
"4%	c #857DCA",
"5%	c #C4BFDA",
"6%	c #D7D5CB",
"7%	c #BDBBAD",
"8%	c #656247",
"9%	c #645F4E",
"0%	c #514C3E",
"a%	c #585443",
"b%	c #6C6A5B",
"c%	c #545040",
"d%	c #595444",
"e%	c #3E3E3E",
"f%	c #565653",
"g%	c #43423A",
"h%	c #42413A",
"i%	c #36353A",
"j%	c #302945",
"k%	c #342C3B",
"l%	c #2D253D",
"m%	c #53513A",
"n%	c #59584B",
"o%	c #6A6860",
"p%	c #6A685F",
"q%	c #555245",
"r%	c #565343",
"s%	c #2C2543",
"t%	c #352C3F",
"u%	c #2A2249",
"v%	c #3E383D",
"w%	c #6A654E",
"x%	c #686541",
"y%	c #636048",
"z%	c #757267",
"A%	c #363636",
"B%	c #353535",
"C%	c #4B4838",
"D%	c #504D3D",
"E%	c #524F40",
"                                                                                            ",
"                                                                                            ",
"                                                                                            ",
"                                                                                            ",
"                                                                                            ",
"                                                                                            ",
"                                                                                            ",
"                                                                                            ",
"                                                                                            ",
"                                                                                            ",
"                                                                                            ",
"                                                                                            ",
"                                                                                            ",
"                                                                                            ",
"                                                                                            ",
"                                          . + @                                             ",
"                                        # $ % & *                                           ",
"                                      = - ; > , ' )                                         ",
"                                      ! ~ { > > ] ^                                         ",
"                                      / ( _ > > : <                                         ",
"                                      [ } | > 1 2 3                                         ",
"                                    4 5 6 7 8 9 0 a b                                       ",
"            c d d d e f             g h i j k l > m n                                       ",
"      d o p q r s t u v w x y z A B C D E F G H I J K                                       ",
"      L M t N O P Q R v S T U V W X Y Z `  ...+.@.#.$.%.                                    ",
"    &.*.=.-.;.;.>.,.'.).!.~.{.].^./.(._.:.<.[.}.|.1.2.3.                                    ",
"    4.N 5.6.7.,.M 8.9.0.a.b.c.d.e.f.g.h.i.j.k.l.m.n.o.p.                                    ",
"  &.q.P r.N 5.;.M 4.s.t.j.u.v.w.x.y.z.A.j.B.C.D.E.F.G.H.                            I.      ",
"  J.K.P ;.t q.L.M 4.M.N.O.u.P.Q.R.S.T.U.V.W.X.Y.Z.`. +.+++                        @+#+$+    ",
"  %+&+-.N *+L s M 4.M.N.O.u.U.U.u.P.U.U.=+-+;+>+,+'+)+!+~+                        I.{+]+    ",
"f r.^+/+/+;.r.r.r (+_+:+j.u.U.<+[+}+P.U.=+-+|+1+,+'+2+3+4+                        5+6+7+    ",
"f 8+9+O 8+L.s s 0+a+b+c+U.U.v.U.d+e+f+u.T.g+h+i+j+k+l+m+n+o+                      p+q+r+    ",
"f 8+s+t+,.u+v+&+w+x+y+z+U.U.A+B+C+D+E+F+P.G+H+I+J+K+L+M+N+O+P+                    Q+R+S+    ",
"T+8+U+7.5.r *+t w+&.V+W+U.O.X+Y+Z+`+ @.@+@j.i.@@#@$@%@> &@*@=@-@;@                >@,@'@)@  ",
"T+,.^+N !@r.r.s ~@{@]@^@U./@(@_@:@<@[@}@|@1@U.Q.2@'+3@1 4@5@6@7@8@9@            0@a@b@c@p.  ",
"d@8+P !@Q r.;.e@f@g@h@T.U.j.i@j@k@<+w.l@m@u.U.Q.,+k+n@> o@p@q@r@s@t@u@v@        ~+w@x@y@z@  ",
"A@*+B@7.-.C@8+D@E@h.=+v.U.U.<+F@<+U.U.U.U.U.U.G@H@I@J@K@L@M@N@O@P@Q@R@S@T@      U@V@W@X@Y@  ",
"Z@`@K.-. # #s .#+#@###$#v.P.U.U.U.U.U.U.U.U.%#&#*#=#-#;#>#,#'#)#!#~#{#]#^#/#(#  _#:#<#[#}#  ",
"|#1#K.P 8+&+2#r *+3#4#5#6#7#<+u.u.U.U.U.U.U.8#9#0#a#b#c#d#e#f#g#h#i#~#j#k#l#m#n#o#p#q#r#s#  ",
"t#u#v#-.8+M t s w#x#y#z#A#B#C#D#E#F#u.u.G#H#I#J#K#L#M#N#O#P#~#Q#R#j#S#T#U#V#W#X#Y#Z#!@`#p.  ",
" $.$+$e@@$5.r.r.D@s t #$$$%$&$*$=$-$;$>$,$'$)$!$~${$]$^$/$($_$:$<$[$}$|$1$2$3$4$5$6$7$8$9$  ",
"    0$a$b$4.~@q N r.;.t !@c$d$e$f$g$h$i$j$k$l$m$n$o$p$q$r$~#s$t$u$v$w$x$y$> z$A$B$C$D$      ",
"    E$F$G$H$I$D@>.O M Q @$t+D@J$K$L$M$N$O$P$Q$R$S$T$U$V$W$X$Y$Z$`$ %.%+%@%#%$%%%&%*%=%      ",
"      -%;%>%,%'%7.U+t+s v+p )%!%~%{%]%^%/%(%_%:%<%[%}%|%1%2%3%4%5%6%7%8%9%0%a%b%c%d%        ",
"              e%e@O q.f%g%h%i%j%k%l%  m%n%o%`#p%q%r%  s%t%u%v%w%x%y%z%                      ",
"                A%f A%B%                C%q%p+D%E%                                          "};
