/* XPM */
static char * playerTwo04_xpm[] = {
"46 46 620 2",
"  	c None",
". 	c #37321D",
"+ 	c #4A483B",
"@ 	c #2D270F",
"# 	c #423E2C",
"$ 	c #545042",
"% 	c #403C28",
"& 	c #403D2D",
"* 	c #4F4D43",
"= 	c #525047",
"- 	c #5C5B57",
"; 	c #403B2B",
"> 	c #37321E",
", 	c #433F2E",
"' 	c #545043",
") 	c #7D7C77",
"! 	c #898886",
"~ 	c #5B584E",
"{ 	c #5C5C5A",
"] 	c #515046",
"^ 	c #494638",
"/ 	c #433E2E",
"( 	c #3B3522",
"_ 	c #535041",
": 	c #68675D",
"< 	c #7C7C78",
"[ 	c #8D8C8D",
"} 	c #959698",
"| 	c #878787",
"1 	c #636158",
"2 	c #464335",
"3 	c #38331E",
"4 	c #39341F",
"5 	c #4A4636",
"6 	c #868785",
"7 	c #969798",
"8 	c #8F9091",
"9 	c #858588",
"0 	c #767576",
"a 	c #595751",
"b 	c #454234",
"c 	c #545248",
"d 	c #7F7F7F",
"e 	c #818284",
"f 	c #6D6D6D",
"g 	c #5C5A57",
"h 	c #494639",
"i 	c #423F30",
"j 	c #3A351F",
"k 	c #5A5646",
"l 	c #6E6D65",
"m 	c #5A5954",
"n 	c #545241",
"o 	c #49472E",
"p 	c #3A3622",
"q 	c #98958A",
"r 	c #EFEFF0",
"s 	c #A2A198",
"t 	c #2C2618",
"u 	c #241F37",
"v 	c #302A32",
"w 	c #524C3B",
"x 	c #D3D2CE",
"y 	c #C5C5BD",
"z 	c #6E6A6B",
"A 	c #2D27A6",
"B 	c #1711BF",
"C 	c #261F8C",
"D 	c #403A27",
"E 	c #ABA9A0",
"F 	c #FDFDFF",
"G 	c #E4E3D0",
"H 	c #A2A0FD",
"I 	c #0D0CFF",
"J 	c #1514B5",
"K 	c #251C89",
"L 	c #3B331B",
"M 	c #666254",
"N 	c #E9E8E6",
"O 	c #FFFFFF",
"P 	c #BDB9FC",
"Q 	c #2823FF",
"R 	c #0D21F2",
"S 	c #1620DC",
"T 	c #1B1CBF",
"U 	c #292072",
"V 	c #3E3925",
"W 	c #B6B5AE",
"X 	c #FFFFFA",
"Y 	c #8581FF",
"Z 	c #0807FF",
"` 	c #0928FF",
" .	c #0F3AFF",
"..	c #0C20FC",
"+.	c #1A19B4",
"@.	c #37312F",
"#.	c #2E1F65",
"$.	c #918F84",
"%.	c #B8B6FF",
"&.	c #1316FF",
"*.	c #0F2FFF",
"=.	c #103AFF",
"-.	c #0F34FF",
";.	c #0D24FF",
">.	c #131EE6",
",.	c #1616D8",
"'.	c #2D2860",
").	c #423E00",
"!.	c #3A3522",
"~.	c #595447",
"{.	c #E2E0D8",
"].	c #938DFF",
"^.	c #060FFF",
"/.	c #0D31FF",
"(.	c #1037FF",
"_.	c #1038FF",
":.	c #0F39FF",
"<.	c #0D2BFF",
"[.	c #0C13FF",
"}.	c #160ED3",
"|.	c #251D92",
"1.	c #0B0600",
"2.	c #474231",
"3.	c #4E4939",
"4.	c #373225",
"5.	c #443F32",
"6.	c #737064",
"7.	c #8C8A80",
"8.	c #999790",
"9.	c #565241",
"0.	c #97958A",
"a.	c #FFFFFB",
"b.	c #5E55FF",
"c.	c #0B0EFF",
"d.	c #0E32FF",
"e.	c #1138FF",
"f.	c #1039FF",
"g.	c #0F13CA",
"h.	c #1B14A9",
"i.	c #1407DB",
"j.	c #1109A4",
"k.	c #342F37",
"l.	c #36311E",
"m.	c #585345",
"n.	c #393524",
"o.	c #484533",
"p.	c #3B3724",
"q.	c #5D5A4C",
"r.	c #8A8478",
"s.	c #AFAAA2",
"t.	c #948C7F",
"u.	c #A2A099",
"v.	c #C4C3C0",
"w.	c #A09E96",
"x.	c #B5B4B1",
"y.	c #DBDBDB",
"z.	c #F0F0F1",
"A.	c #E7E7E8",
"B.	c #8A8880",
"C.	c #342F1A",
"D.	c #757260",
"E.	c #E0DFEA",
"F.	c #6F6AFF",
"G.	c #0000FF",
"H.	c #1033FF",
"I.	c #1036FF",
"J.	c #0A22F4",
"K.	c #312BA6",
"L.	c #746E76",
"M.	c #534F48",
"N.	c #4E4A5E",
"O.	c #777475",
"P.	c #B1B0A0",
"Q.	c #BEBCBA",
"R.	c #94928A",
"S.	c #BAB8B4",
"T.	c #D4D4D2",
"U.	c #B7B4AF",
"V.	c #DAD4D0",
"W.	c #FFF7EF",
"X.	c #CBEDF7",
"Y.	c #CBE7F2",
"Z.	c #EEF4F5",
"`.	c #FFFFFE",
" +	c #FEFCFC",
".+	c #F8F7F7",
"++	c #FEFEFF",
"@+	c #D6D6D7",
"#+	c #5F5C4E",
"$+	c #484325",
"%+	c #BDBBB6",
"&+	c #8079FF",
"*+	c #121FFF",
"=+	c #111ADE",
"-+	c #4A4449",
";+	c #D0D1A3",
">+	c #F3F4F8",
",+	c #CDCDC7",
"'+	c #E3E3E0",
")+	c #F9F9F8",
"!+	c #FBF8F7",
"~+	c #ECFAFA",
"{+	c #CFF4FF",
"]+	c #A9E6FF",
"^+	c #25BCFF",
"/+	c #5ACBFF",
"(+	c #84DAFF",
"_+	c #A1E4FF",
":+	c #E0F7FF",
"<+	c #FEFFFF",
"[+	c #BBB9B4",
"}+	c #5C5849",
"|+	c #77726B",
"1+	c #6058F8",
"2+	c #0E14FF",
"3+	c #0F37FF",
"4+	c #0F31FF",
"5+	c #0C08E7",
"6+	c #3A306E",
"7+	c #C3C1AE",
"8+	c #FEFDFD",
"9+	c #FDFFFF",
"0+	c #CEF3FF",
"a+	c #7FD9FF",
"b+	c #5BC9F8",
"c+	c #C7EFFA",
"d+	c #51CFFF",
"e+	c #2EB3ED",
"f+	c #0F9AE1",
"g+	c #0084CA",
"h+	c #008ED9",
"i+	c #009CED",
"j+	c #40BAFC",
"k+	c #B2E6FF",
"l+	c #FBFBFC",
"m+	c #F1F2F4",
"n+	c #CECDCB",
"o+	c #7F7D72",
"p+	c #383441",
"q+	c #1E1ECB",
"r+	c #000DFF",
"s+	c #113FFF",
"t+	c #0F36FF",
"u+	c #080EFF",
"v+	c #20188E",
"w+	c #A29F94",
"x+	c #FFFCF6",
"y+	c #DBFAFF",
"z+	c #BAEBFF",
"A+	c #66D0FE",
"B+	c #26B2F3",
"C+	c #0595DE",
"D+	c #0087CB",
"E+	c #209AD6",
"F+	c #0090DD",
"G+	c #007DB9",
"H+	c #0079B2",
"I+	c #0073A5",
"J+	c #007AB2",
"K+	c #0099E9",
"L+	c #5DC8FD",
"M+	c #E7FAFF",
"N+	c #F9F5F4",
"O+	c #CECFCD",
"P+	c #8D8B84",
"Q+	c #615D4F",
"R+	c #565244",
"S+	c #3C360D",
"T+	c #221991",
"U+	c #0B1AFD",
"V+	c #0D29FF",
"W+	c #0E1CF7",
"X+	c #1011ED",
"Y+	c #1209B9",
"Z+	c #2F2863",
"`+	c #949089",
" @	c #D5E0E3",
".@	c #71CDF2",
"+@	c #14A3EA",
"@@	c #008DD2",
"#@	c #007EBF",
"$@	c #0077AF",
"%@	c #0075AD",
"&@	c #0079B1",
"*@	c #0078B0",
"=@	c #0074A8",
"-@	c #0077AC",
";@	c #0076AC",
">@	c #0084C3",
",@	c #07A6F4",
"'@	c #6AD2FF",
")@	c #FFFFFC",
"!@	c #EFEFF2",
"~@	c #777467",
"{@	c #2E291A",
"]@	c #332B43",
"^@	c #120ED9",
"/@	c #130CF2",
"(@	c #271F91",
"_@	c #291F60",
":@	c #3C3727",
"<@	c #4E4D42",
"[@	c #725E4A",
"}@	c #6792A2",
"|@	c #2E99CC",
"1@	c #007BBB",
"2@	c #0076AD",
"3@	c #0078AC",
"4@	c #0078AF",
"5@	c #007AB1",
"6@	c #0076AA",
"7@	c #007AB5",
"8@	c #007FC1",
"9@	c #0391D8",
"0@	c #0FA7ED",
"a@	c #69D6FF",
"b@	c #AED9E9",
"c@	c #C8BCB2",
"d@	c #524D3C",
"e@	c #302878",
"f@	c #3C3762",
"g@	c #58553E",
"h@	c #5C5A41",
"i@	c #525033",
"j@	c #646261",
"k@	c #73675E",
"l@	c #278EBC",
"m@	c #028ACC",
"n@	c #0077AE",
"o@	c #0079AF",
"p@	c #0078AE",
"q@	c #0181BD",
"r@	c #0E9BE3",
"s@	c #2FB7F5",
"t@	c #76D8FF",
"u@	c #C4F1FF",
"v@	c #FBFDFB",
"w@	c #C0BEBB",
"x@	c #665F51",
"y@	c #2F2B1A",
"z@	c #6F6D5B",
"A@	c #63604F",
"B@	c #6E6C5C",
"C@	c #66645C",
"D@	c #605F53",
"E@	c #605B4F",
"F@	c #7A7B76",
"G@	c #47A3D0",
"H@	c #0093DD",
"I@	c #0079B0",
"J@	c #0079AE",
"K@	c #0075A9",
"L@	c #0076B2",
"M@	c #0896DA",
"N@	c #A2E0FB",
"O@	c #E7FDFF",
"P@	c #F6F8F5",
"Q@	c #DFD6D2",
"R@	c #B9AFA6",
"S@	c #93938E",
"T@	c #322C18",
"U@	c #484534",
"V@	c #706F66",
"W@	c #595649",
"X@	c #5A574A",
"Y@	c #646258",
"Z@	c #4F4D3E",
"`@	c #5A503F",
" #	c #4DA0C6",
".#	c #0C98DC",
"+#	c #0084C6",
"@#	c #0074AC",
"##	c #007FBD",
"$#	c #0189C9",
"%#	c #059FEC",
"&#	c #47BEF1",
"*#	c #C6F2FF",
"=#	c #C2C1BF",
"-#	c #534E3D",
";#	c #484432",
">#	c #2C2814",
",#	c #605F54",
"'#	c #636157",
")#	c #66645A",
"!#	c #767570",
"~#	c #5D5B51",
"{#	c #7B7A75",
"]#	c #574F3E",
"^#	c #648996",
"/#	c #338FBC",
"(#	c #2887B4",
"_#	c #0D90CD",
":#	c #0093E6",
"<#	c #2BAFEE",
"[#	c #56CAFA",
"}#	c #A5E7FF",
"|#	c #E0F9FF",
"1#	c #F8F4F1",
"2#	c #CFCCC8",
"3#	c #9D9B94",
"4#	c #2D2712",
"5#	c #575447",
"6#	c #777670",
"7#	c #484433",
"8#	c #68665E",
"9#	c #534F41",
"0#	c #706F68",
"a#	c #615A4E",
"b#	c #7A6859",
"c#	c #6F7170",
"d#	c #617B80",
"e#	c #68C6F0",
"f#	c #6FD2FF",
"g#	c #CEF2FF",
"h#	c #F2FCFF",
"i#	c #FAF4F2",
"j#	c #9C9991",
"k#	c #555143",
"l#	c #44402E",
"m#	c #6B6961",
"n#	c #6C6B63",
"o#	c #565346",
"p#	c #6F6E67",
"q#	c #504E43",
"r#	c #575640",
"s#	c #4F4C3E",
"t#	c #B9AA9B",
"u#	c #FFF6F0",
"v#	c #F9FFFF",
"w#	c #FAF9F9",
"x#	c #EBEBEB",
"y#	c #CACAC9",
"z#	c #7D7B70",
"A#	c #5B584B",
"B#	c #575448",
"C#	c #65635B",
"D#	c #696757",
"E#	c #534F39",
"F#	c #524F35",
"G#	c #3C3821",
"H#	c #2F2864",
"I#	c #7673A2",
"J#	c #A8A782",
"K#	c #A7A58B",
"L#	c #868378",
"M#	c #4D493B",
"N#	c #545141",
"O#	c #636155",
"P#	c #646345",
"Q#	c #463E5E",
"R#	c #2F286C",
"S#	c #1810B2",
"T#	c #0A05E5",
"U#	c #0C0492",
"V#	c #726E76",
"W#	c #EFEFE1",
"X#	c #D7D7CE",
"Y#	c #57535B",
"Z#	c #211A87",
"`#	c #282223",
" $	c #3B3642",
".$	c #322C84",
"+$	c #140CEB",
"@$	c #0F19E8",
"#$	c #0B1EFE",
"$$	c #0E2CFF",
"%$	c #0803D3",
"&$	c #3A345B",
"*$	c #8D8978",
"=$	c #7F7C6E",
"-$	c #251EAB",
";$	c #0F06D8",
">$	c #322C41",
",$	c #2B2444",
"'$	c #0F08D0",
")$	c #0918FF",
"!$	c #0D21FF",
"~$	c #121BD0",
"{$	c #201F89",
"]$	c #211399",
"^$	c #0B09E4",
"/$	c #1810C8",
"($	c #322A4A",
"_$	c #3F3A0E",
":$	c #271D85",
"<$	c #091BFB",
"[$	c #0E35FF",
"}$	c #1137FF",
"|$	c #113AFF",
"1$	c #0D2FFF",
"2$	c #0C22FF",
"3$	c #0F22FE",
"4$	c #0D22F7",
"5$	c #1819CA",
"6$	c #2E275B",
"7$	c #262056",
"8$	c #171DE2",
"9$	c #1A3AFF",
"0$	c #0326FF",
"a$	c #103DFE",
"b$	c #0F3BFF",
"c$	c #0C1FFF",
"d$	c #25237E",
"e$	c #3E3823",
"f$	c #7772B0",
"g$	c #5852FF",
"h$	c #1125FF",
"i$	c #092DFF",
"j$	c #1139FF",
"k$	c #111CED",
"l$	c #322A45",
"m$	c #868367",
"n$	c #BDB7F8",
"o$	c #5458FF",
"p$	c #171EFF",
"q$	c #0221FF",
"r$	c #0E37FF",
"s$	c #0E33FF",
"t$	c #141CDE",
"u$	c #271982",
"v$	c #595638",
"w$	c #D1CFC1",
"x$	c #D0CBFF",
"y$	c #817DFF",
"z$	c #071AFF",
"A$	c #041DFF",
"B$	c #123EFF",
"C$	c #0D32FF",
"D$	c #161CD1",
"E$	c #312C4F",
"F$	c #25200E",
"G$	c #A5A399",
"H$	c #CDCBC2",
"I$	c #D2CDFC",
"J$	c #8E8CFF",
"K$	c #2425FF",
"L$	c #021BFF",
"M$	c #0C27F8",
"N$	c #1C17A9",
"O$	c #443E00",
"P$	c #666348",
"Q$	c #DFDDD6",
"R$	c #EEECFF",
"S$	c #807AFF",
"T$	c #2B31FF",
"U$	c #090FF9",
"V$	c #241D8F",
"W$	c #4A473A",
"X$	c #403B2A",
"Y$	c #332D1A",
"Z$	c #A3A096",
"`$	c #C6C5FF",
" %	c #1715FF",
".%	c #201994",
"+%	c #3C3725",
"@%	c #312A12",
"#%	c #423D2C",
"$%	c #515047",
"%%	c #605F5D",
"&%	c #5E5A4A",
"*%	c #E0DFDC",
"=%	c #FFFFF7",
"-%	c #9894B9",
";%	c #251DB1",
">%	c #251D57",
",%	c #3F3A00",
"'%	c #393421",
")%	c #474438",
"!%	c #535047",
"~%	c #5E5C57",
"{%	c #59574A",
"]%	c #5D5C59",
"^%	c #504E45",
"/%	c #4E4C42",
"(%	c #413E2E",
"_%	c #36311C",
":%	c #46422F",
"<%	c #BEBDB6",
"[%	c #F4F4F4",
"}%	c #706C64",
"|%	c #26213F",
"1%	c #3F3B3D",
"2%	c #4F4C37",
"3%	c #5B5A58",
"4%	c #6F6F6F",
"5%	c #818183",
"6%	c #929395",
"7%	c #868684",
"8%	c #5C5A52",
"9%	c #35301A",
"0%	c #8D8B7F",
"a%	c #B4B3A4",
"b%	c #45412D",
"c%	c #585650",
"d%	c #7A7979",
"e%	c #868688",
"f%	c #939395",
"g%	c #909091",
"h%	c #8B8B8A",
"i%	c #69675E",
"j%	c #4F4B3C",
"k%	c #433E2C",
"l%	c #CAC8C3",
"m%	c #9A9790",
"n%	c #626058",
"o%	c #71716F",
"p%	c #949496",
"q%	c #90908F",
"r%	c #7C7A75",
"s%	c #656257",
"t%	c #4F4B3B",
"u%	c #35311C",
"v%	c #706C5D",
"w%	c #3C3724",
"x%	c #474338",
"y%	c #5D5B50",
"z%	c #717069",
"A%	c #59564A",
"B%	c #413D2B",
"C%	c #34301A",
"                          . +                                                               ",
"              @ # $ % & * = - ;                                                             ",
"          > , ' ) ! ~ { ] ^ /                                                               ",
"      ( _ : < [ } | 1 2 3                                                                   ",
"    4 5 6 7 8 9 0 a b                                                                       ",
"      c d e f g h i                                                                         ",
"  j k l m n o p                                                                             ",
"  q r s t u v                                                                               ",
"  w x y z A B C                                                                             ",
"  D E F G H I J K L                                                                         ",
"    M N O P Q R S T U                                                                       ",
"    V W X Y Z `  ...+.@.#.                                                                  ",
"      $.O %.&.*.=.-.;.>.,.'.).                                !.                            ",
"      ~.{.].^./.(._.:.<.[.}.|.                >   1.2.3.4.5.6.7.8.9.                        ",
"      0.a.b.c.d.e.f.<.g.h.i.j.k.l.m.n.o.6.p.q.r.s.t.u.v.w.x.y.z.A.B.C.                      ",
"      D.E.F.G.H.I.f.J.K.L.M.N.O.P.Q.R.S.T.U.V.W.X.Y.Z.`. +.+O O ++@+#+                      ",
"      $+%+&+*+d.f.*.=+-+;+>+,+'+)+O !+a.O ~+{+]+^+/+(+_+:+<+O O O [+}+                      ",
"        |+1+2+3+=.4+5+6+7+O 8+O 9+0+a+b+c+d+e+f+g+h+i+j+k+O l+m+n+o+                        ",
"        p+q+r+s+=.t+u+v+w+x+y+z+A+B+C+D+E+F+G+H+I+J+K+L+M+N+O+P+Q+R+                        ",
"        S+T+U+V+W+X+Y+Z+`+ @.@+@@@#@$@%@&@*@=@-@;@>@,@'@)@!@~@{@                            ",
"          ]@^@/@(@_@:@<@[@}@|@1@2@3@4@5@5@6@7@8@9@0@a@b@c@P+d@                              ",
"            e@f@g@h@i@j@k@l@m@n@4@5@J+o@p@q@r@s@t@u@v@w@x@y@                                ",
"            z@A@B@C@D@E@F@G@H@-@I@I@J@K@L@M@N@O@P@Q@R@S@T@                                  ",
"            U@V@W@X@Y@Z@`@ #.#+#H+@###$#%#&#*#O =#-#;#>#                                    ",
"            ,#'#)#!#~#{#]#^#/#(#_#:#<#[#}#|#1#2#3#4#                                        ",
"            5#6#7#8#9#0#a#b#c#d#e#f#g#h#O i#j#k#l#                                          ",
"            . m#m#n#o#p#q#r#s#t#u#v#O w#x#y#z#                                              ",
"              A#B#C#D#E#F#G#H#I#J#a.>+K#L#d@                                                ",
"              M#N#O#P#Q#R#S#T#U#V#W#X#Y#Z#`#                                                ",
"                   $.$+$@$#$$$%$&$*$=$-$;$>$                                                ",
"                  ,$'$)$(.(.=.!$~${$]$^$/$($                                                ",
"                  _$:$<$[$}$|$=.1$2$3$4$5$6$                                                ",
"                    7$8$9$0$t+I.I.a$b$c$d$                                                  ",
"                    e$f$g$h$i$|$j$I.I.k$l$                                                  ",
"                      m$n$o$p$q$r$_.s$t$u$                                                  ",
"                      v$w$x$y$z$A$B$C$D$E$                                                  ",
"                      F$G$H$I$J$K$L$M$N$O$                                                  ",
"                          P$Q$R$S$T$U$V$                3 W$X$                              ",
"                          Y$Z$O O `$ %.%      +%  @%#%^ $%%%2                               ",
"                            &%*%=%-%;%>%,%'%)%!%~%{%]%^%/%(%_%                              ",
"                            :%<%[%}%|%1%2%3%4%5%6%7%8%9%                                    ",
"                              0%O a%b%c%d%e%f%g%h%i%j%                                      ",
"                              k%l%m%n%o%p%q%r%s%t%u%                                        ",
"                                v%w%x%y%z%A%B%C%                                            ",
"                                      4 _%                                                  ",
"                                                                                            "};
