/* XPM */
static char * playerTwo15_xpm[] = {
"46 46 679 2",
"  	c None",
". 	c #6E6B60",
"+ 	c #605C4F",
"@ 	c #393422",
"# 	c #615D50",
"$ 	c #85837E",
"% 	c #797772",
"& 	c #504E45",
"* 	c #45443C",
"= 	c #423E33",
"- 	c #434030",
"; 	c #5D5A4F",
"> 	c #71706A",
", 	c #757574",
"' 	c #70706F",
") 	c #656563",
"! 	c #5F5E5D",
"~ 	c #545351",
"{ 	c #4B4A42",
"] 	c #484638",
"^ 	c #3E3E3E",
"/ 	c #5B5B5B",
"( 	c #656565",
"_ 	c #535251",
": 	c #676663",
"< 	c #6E6E6D",
"[ 	c #6A6A6A",
"} 	c #7B7B7B",
"| 	c #7E7E7E",
"1 	c #7D7D7D",
"2 	c #565655",
"3 	c #4F4D49",
"4 	c #423F3B",
"5 	c #3A3A3A",
"6 	c #565656",
"7 	c #7A7A7A",
"8 	c #848484",
"9 	c #757575",
"0 	c #6C6C6C",
"a 	c #727272",
"b 	c #7C7C7C",
"c 	c #838383",
"d 	c #717171",
"e 	c #6F6F6F",
"f 	c #5B5B5A",
"g 	c #40403F",
"h 	c #494946",
"i 	c #686866",
"j 	c #7E7E7D",
"k 	c #7F7F7F",
"l 	c #797979",
"m 	c #747474",
"n 	c #707070",
"o 	c #808080",
"p 	c #878787",
"q 	c #828282",
"r 	c #5D5D5C",
"s 	c #414140",
"t 	c #403E38",
"u 	c #50504B",
"v 	c #777777",
"w 	c #767676",
"x 	c #818181",
"y 	c #858585",
"z 	c #5E5E5E",
"A 	c #404040",
"B 	c #343339",
"C 	c #434241",
"D 	c #686869",
"E 	c #636363",
"F 	c #696969",
"G 	c #6B6B6B",
"H 	c #737373",
"I 	c #8C8C8C",
"J 	c #5D5D5D",
"K 	c #30293E",
"L 	c #302D4B",
"M 	c #484854",
"N 	c #6C6C6D",
"O 	c #606061",
"P 	c #585756",
"Q 	c #645E57",
"R 	c #6A625B",
"S 	c #555454",
"T 	c #868686",
"U 	c #535350",
"V 	c #2C243B",
"W 	c #2C2750",
"X 	c #323263",
"Y 	c #565666",
"Z 	c #696A6B",
"` 	c #747372",
" .	c #6D6A68",
"..	c #585450",
"+.	c #685D53",
"@.	c #776858",
"#.	c #A2866B",
"$.	c #B09273",
"%.	c #6D6155",
"&.	c #585858",
"*.	c #6E6E6E",
"=.	c #7A7979",
"-.	c #3B3B38",
";.	c #2A225D",
">.	c #1D199C",
",.	c #3E3E5A",
"'.	c #565758",
").	c #62605D",
"!.	c #776C60",
"~.	c #8A7967",
"{.	c #957D65",
"].	c #C29E7A",
"^.	c #D2AA82",
"/.	c #EABD8E",
"(.	c #DEB589",
"_.	c #927B64",
":.	c #55524F",
"<.	c #616161",
"[.	c #6D6D6D",
"}.	c #474645",
"|.	c #504D3F",
"1.	c #504E3E",
"2.	c #58563F",
"3.	c #4B4758",
"4.	c #272663",
"5.	c #413E5C",
"6.	c #5A5450",
"7.	c #746759",
"8.	c #B29474",
"9.	c #D8B187",
"0.	c #E5B98B",
"a.	c #FAC896",
"b.	c #FBC997",
"c.	c #EBBE8F",
"d.	c #9F8469",
"e.	c #544E48",
"f.	c #4D4D4D",
"g.	c #464646",
"h.	c #4D4B3C",
"i.	c #626056",
"j.	c #646359",
"k.	c #6B6B5D",
"l.	c #494A42",
"m.	c #564D49",
"n.	c #8E7765",
"o.	c #A5896D",
"p.	c #BE9D7A",
"q.	c #ECC091",
"r.	c #FAC997",
"s.	c #FDCB98",
"t.	c #FECC99",
"u.	c #FFCC99",
"v.	c #F8CA97",
"w.	c #CFAB83",
"x.	c #89745F",
"y.	c #534D48",
"z.	c #4E4E4F",
"A.	c #666666",
"B.	c #686868",
"C.	c #787878",
"D.	c #514D3F",
"E.	c #5E5C51",
"F.	c #605E54",
"G.	c #5A5950",
"H.	c #5D554A",
"I.	c #9B8167",
"J.	c #DEB488",
"K.	c #F0C192",
"L.	c #F4C594",
"M.	c #FCCA98",
"N.	c #FCCC99",
"O.	c #F7C796",
"P.	c #F9C997",
"Q.	c #FFCD99",
"R.	c #F7CA98",
"S.	c #D0AD84",
"T.	c #87745F",
"U.	c #55504C",
"V.	c #565245",
"W.	c #646158",
"X.	c #5F5C52",
"Y.	c #615F55",
"Z.	c #5A5851",
"`.	c #726555",
" +	c #C5A27C",
".+	c #F9C896",
"++	c #FECB98",
"@+	c #FDCC99",
"#+	c #F0C394",
"$+	c #CEAA85",
"%+	c #D6B088",
"&+	c #F4C795",
"*+	c #FFCD9A",
"=+	c #F2C795",
"-+	c #615951",
";+	c #595859",
">+	c #6B6B6C",
",+	c #888888",
"'+	c #595647",
")+	c #64625B",
"!+	c #66645C",
"~+	c #5D5C55",
"{+	c #524E47",
"]+	c #7C6A57",
"^+	c #D4AC82",
"/+	c #EEC091",
"(+	c #B19578",
"_+	c #9C8670",
":+	c #DCB58B",
"<+	c #FBCA97",
"[+	c #F7C695",
"}+	c #BE9B78",
"|+	c #685C50",
"1+	c #4D4C4A",
"2+	c #5A5A5A",
"3+	c #4E4E4E",
"4+	c #403C58",
"5+	c #5A5853",
"6+	c #646251",
"7+	c #605E52",
"8+	c #59574D",
"9+	c #60584C",
"0+	c #A08364",
"a+	c #E8BA8A",
"b+	c #FCCA97",
"c+	c #F9C795",
"d+	c #E5B88B",
"e+	c #C9A480",
"f+	c #A88E75",
"g+	c #D8B189",
"h+	c #E4B98C",
"i+	c #9F8569",
"j+	c #60564C",
"k+	c #4D4B4A",
"l+	c #4A4A4A",
"m+	c #382E30",
"n+	c #2B235C",
"o+	c #231C9F",
"p+	c #4A4666",
"q+	c #5C5848",
"r+	c #5B5845",
"s+	c #5C594F",
"t+	c #655A4E",
"u+	c #AD8A67",
"v+	c #F0BF8D",
"w+	c #FECD9A",
"x+	c #FACD9B",
"y+	c #D9B288",
"z+	c #AD8E6F",
"A+	c #A78B6F",
"B+	c #9A846E",
"C+	c #BE9E7E",
"D+	c #F8C896",
"E+	c #E2B88B",
"F+	c #9E8469",
"G+	c #5E554D",
"H+	c #575655",
"I+	c #606060",
"J+	c #444444",
"K+	c #342D40",
"L+	c #252170",
"M+	c #1618B8",
"N+	c #1012E1",
"O+	c #211FBC",
"P+	c #3A356B",
"Q+	c #4A463F",
"R+	c #54513D",
"S+	c #615645",
"T+	c #A48362",
"U+	c #E8B786",
"V+	c #FBC995",
"W+	c #FED09D",
"X+	c #F4CF9E",
"Y+	c #C6A782",
"Z+	c #B19475",
"`+	c #AD9276",
" @	c #AD9176",
".@	c #E8BB8F",
"+@	c #FECC98",
"@@	c #D6AE85",
"#@	c #806E5C",
"$@	c #565452",
"%@	c #676767",
"&@	c #424242",
"*@	c #5F5B47",
"=@	c #4A4770",
"-@	c #252CBF",
";@	c #0F23EE",
">@	c #0B26FB",
",@	c #101EE7",
"'@	c #1E1EAA",
")@	c #312D5C",
"!@	c #43413A",
"~@	c #514C3E",
"{@	c #7B6751",
"]@	c #CBA076",
"^@	c #F7C492",
"/@	c #FCD09D",
"(@	c #E4BA8E",
"_@	c #EFC594",
":@	c #E5BE90",
"<@	c #E2B88D",
"[@	c #F6C594",
"}@	c #F3C494",
"|@	c #FBC996",
"1@	c #FCCB98",
"2@	c #E6BB8D",
"3@	c #947B64",
"4@	c #544E4A",
"5@	c #535353",
"6@	c #555555",
"7@	c #414141",
"8@	c #595630",
"9@	c #7E7A65",
"0@	c #847CC9",
"a@	c #2E40F9",
"b@	c #0E34FF",
"c@	c #0E33FE",
"d@	c #0D2BF9",
"e@	c #0E1AE7",
"f@	c #1A16A5",
"g@	c #3A345C",
"h@	c #666361",
"i@	c #706556",
"j@	c #BE9871",
"k@	c #F2C08E",
"l@	c #FACA97",
"m@	c #FACA96",
"n@	c #FDCD99",
"o@	c #B2967A",
"p@	c #C7A482",
"q@	c #EBBE90",
"r@	c #EABF91",
"s@	c #B89976",
"t@	c #63574C",
"u@	c #454442",
"v@	c #6A675A",
"w@	c #7F7C66",
"x@	c #D1CDD6",
"y@	c #7271F9",
"z@	c #1E2DFF",
"A@	c #052AFF",
"B@	c #113AFF",
"C@	c #0F37FF",
"D@	c #0A25F7",
"E@	c #0804BD",
"F@	c #5E5891",
"G@	c #9C9594",
"H@	c #7C766E",
"I@	c #987C60",
"J@	c #DDAE7F",
"K@	c #ECBB8B",
"L@	c #DFB387",
"M@	c #DCB287",
"N@	c #DCB388",
"O@	c #EFC393",
"P@	c #FECE9A",
"Q@	c #F2C695",
"R@	c #B5997B",
"S@	c #69625E",
"T@	c #B19479",
"U@	c #AB9277",
"V@	c #C2A380",
"W@	c #AE9272",
"X@	c #615549",
"Y@	c #383836",
"Z@	c #817E6E",
"`@	c #B1AEAA",
" #	c #B5B3E9",
".#	c #585DFF",
"+#	c #142DFF",
"@#	c #0C31FF",
"##	c #0D2DF8",
"$#	c #121CCD",
"%#	c #36328A",
"&#	c #8B8892",
"*#	c #BDBCB0",
"=#	c #949996",
"-#	c #736B60",
";#	c #9B7C5E",
">#	c #C59B72",
",#	c #B08F6C",
"'#	c #A38669",
")#	c #977F65",
"!#	c #BD9D79",
"~#	c #ECC292",
"{#	c #FECE9B",
"]#	c #FACD99",
"^#	c #CDAA83",
"/#	c #A58B71",
"(#	c #BE9D7C",
"_#	c #99836D",
":#	c #74675A",
"<#	c #64584C",
"[#	c #413C38",
"}#	c #817D6B",
"|#	c #BEBBC3",
"1#	c #9F9DF7",
"2#	c #3C44FE",
"3#	c #0E2CFF",
"4#	c #0E36FF",
"5#	c #0E35FE",
"6#	c #0E29EF",
"7#	c #1F25A9",
"8#	c #66627B",
"9#	c #C3C1B9",
"0#	c #F0EFE7",
"a#	c #D2D6D7",
"b#	c #919696",
"c#	c #746C61",
"d#	c #927559",
"e#	c #B6906A",
"f#	c #C19B75",
"g#	c #987E64",
"h#	c #84715B",
"i#	c #BB9B78",
"j#	c #EDC091",
"k#	c #BB9977",
"l#	c #997F65",
"m#	c #A3886C",
"n#	c #554D45",
"o#	c #373534",
"p#	c #706C5F",
"q#	c #B1AEA5",
"r#	c #D0CCE9",
"s#	c #7D7DFC",
"t#	c #1D2DFF",
"u#	c #072AFF",
"v#	c #0D28F3",
"w#	c #2024AF",
"x#	c #645E84",
"y#	c #B0AEAA",
"z#	c #CBCBC4",
"A#	c #E2E2DA",
"B#	c #D1D5D5",
"C#	c #8E9696",
"D#	c #736C61",
"E#	c #9A7B5D",
"F#	c #D2A579",
"G#	c #D3A87E",
"H#	c #8B755E",
"I#	c #CCA780",
"J#	c #F6C795",
"K#	c #EDBF90",
"L#	c #BC9C79",
"M#	c #A1876B",
"N#	c #A5886B",
"O#	c #716251",
"P#	c #3F3B37",
"Q#	c #595544",
"R#	c #ABA8A1",
"S#	c #EFEDE8",
"T#	c #C1BFF9",
"U#	c #5859FF",
"V#	c #0F25FF",
"W#	c #0B30FF",
"X#	c #0F36FE",
"Y#	c #0F38FF",
"Z#	c #0D2DFA",
"`#	c #151ED3",
" $	c #322DA5",
".$	c #534F95",
"+$	c #6C6982",
"@$	c #A2A09E",
"#$	c #DFDED9",
"$$	c #CFD3D3",
"%$	c #8D9392",
"&$	c #9E7E60",
"*$	c #F0BA85",
"=$	c #E3B587",
"-$	c #A7896B",
";$	c #FFCF9B",
">$	c #FFD49E",
",$	c #E8C597",
"'$	c #C3A985",
")$	c #403D36",
"!$	c #625F4F",
"~$	c #B8B7B0",
"{$	c #E2E1DD",
"]$	c #EAEAF4",
"^$	c #AAAAFF",
"/$	c #333CFF",
"($	c #0B28FE",
"_$	c #0F3AFF",
":$	c #0F36FF",
"<$	c #0E2FFC",
"[$	c #0E29F6",
"}$	c #0D1CEB",
"|$	c #1412D2",
"1$	c #1A13B1",
"2$	c #2B2580",
"3$	c #5E5966",
"4$	c #A4A29C",
"5$	c #D1CDCA",
"6$	c #B5B5B3",
"7$	c #808A8D",
"8$	c #6B6258",
"9$	c #9A7959",
"0$	c #D0A377",
"a$	c #D2A578",
"b$	c #F7C58E",
"c$	c #D2A97E",
"d$	c #B9A17C",
"e$	c #605A4D",
"f$	c #72716E",
"g$	c #5C594E",
"h$	c #3B3624",
"i$	c #6D695B",
"j$	c #B0AEA6",
"k$	c #D8D8D3",
"l$	c #C5C4C7",
"m$	c #B4B2D7",
"n$	c #7575F7",
"o$	c #222BF6",
"p$	c #0D23EE",
"q$	c #1028EA",
"r$	c #1124E5",
"s$	c #1621CE",
"t$	c #1921B7",
"u$	c #181EBC",
"v$	c #1B18AD",
"w$	c #20188A",
"x$	c #211B52",
"y$	c #37312A",
"z$	c #666155",
"A$	c #858379",
"B$	c #928E85",
"C$	c #A5A39F",
"D$	c #8B8984",
"E$	c #817A71",
"F$	c #898275",
"G$	c #887764",
"H$	c #9C8367",
"I$	c #837867",
"J$	c #5F7274",
"K$	c #5B767C",
"L$	c #819398",
"M$	c #BDBFBD",
"N$	c #99978F",
"O$	c #635F52",
"P$	c #746F63",
"Q$	c #B0ADA6",
"R$	c #A7A69D",
"S$	c #706C79",
"T$	c #4C47A0",
"U$	c #2E2BD0",
"V$	c #1B1AC6",
"W$	c #191AAF",
"X$	c #1C1EA6",
"Y$	c #1E1E9D",
"Z$	c #26207A",
"`$	c #292566",
" %	c #23227A",
".%	c #28236B",
"+%	c #575345",
"@%	c #848176",
"#%	c #85827A",
"$%	c #928D86",
"%%	c #A0A8A8",
"&%	c #8A999A",
"*%	c #64828A",
"=%	c #487C91",
"-%	c #398BB4",
";%	c #51A5CF",
">%	c #A1D0E3",
",%	c #E0E7E8",
"'%	c #B6B3AD",
")%	c #6C685D",
"!%	c #504D3D",
"~%	c #6C695D",
"{%	c #656256",
"]%	c #413D44",
"^%	c #2B255E",
"/%	c #221A7C",
"(%	c #221B81",
"_%	c #271D73",
":%	c #545041",
"<%	c #6E6859",
"[%	c #AAA69E",
"}%	c #BAC6C6",
"|%	c #97C0D0",
"1%	c #7EBFDB",
"2%	c #93D4F1",
"3%	c #A6DEF9",
"4%	c #CDEDFB",
"5%	c #F1F6F7",
"6%	c #D7D6D4",
"7%	c #98958F",
"8%	c #666255",
"9%	c #5D5A51",
"0%	c #64625C",
"a%	c #565350",
"b%	c #44403C",
"c%	c #37312F",
"d%	c #4E4A3A",
"e%	c #797367",
"f%	c #999993",
"g%	c #A7ABA8",
"h%	c #C5D0D3",
"i%	c #E3ECF1",
"j%	c #EAF4F8",
"k%	c #F5FAFD",
"l%	c #FDFDFD",
"m%	c #F3F2F2",
"n%	c #D0D0CE",
"o%	c #8E8C83",
"p%	c #615E50",
"q%	c #413B29",
"r%	c #7B7B79",
"s%	c #7A7978",
"t%	c #5F5E54",
"u%	c #48452F",
"v%	c #6F6A5E",
"w%	c #99948A",
"x%	c #BFBDB8",
"y%	c #D4D4D1",
"z%	c #EEEDEC",
"A%	c #FFFEFE",
"B%	c #EFEFEF",
"C%	c #B5B4AF",
"D%	c #858279",
"E%	c #36311B",
"F%	c #7F7E7A",
"G%	c #909092",
"H%	c #7F7F81",
"I%	c #5E5D5A",
"J%	c #444033",
"K%	c #4F4A39",
"L%	c #656355",
"M%	c #737166",
"N%	c #BCBCB9",
"O%	c #F8F7F7",
"P%	c #FFFFFF",
"Q%	c #FBFBFC",
"R%	c #767267",
"S%	c #454132",
"T%	c #585548",
"U%	c #777570",
"V%	c #878687",
"W%	c #7A7A7B",
"X%	c #5D5B54",
"Y%	c #484236",
"Z%	c #504B3E",
"`%	c #767368",
" &	c #ADACA6",
".&	c #C8C7C2",
"+&	c #BCBBB6",
"@&	c #7A776B",
"#&	c #504B3A",
"$&	c #433E2D",
"%&	c #5A5749",
"&&	c #787772",
"*&	c #888989",
"=&	c #767573",
"-&	c #555247",
";&	c #555041",
">&	c #6E6C60",
",&	c #89867D",
"'&	c #78766A",
")&	c #524D3D",
"!&	c #464230",
"~&	c #545142",
"{&	c #81817D",
"]&	c #80807C",
"^&	c #5C5A52",
"/&	c #423D2B",
"(&	c #413E2D",
"_&	c #555245",
":&	c #5E5D54",
"<&	c #55534B",
"[&	c #4D4A3F",
"}&	c #454131",
"|&	c #433F30",
"1&	c #4B493E",
"2&	c #4C4A3E",
"3&	c #3E3A28",
"4&	c #464438",
"5&	c #4F4D44",
"6&	c #433F31",
"                                                                                            ",
"                                                                                            ",
"                                                                                            ",
"                                                                                            ",
"                                                                                            ",
"                                                                                            ",
"                                                      . +     @                             ",
"                                                    # $ % & * = -                           ",
"                                                  ; > , ' ) ! ~ { ]                         ",
"                                          ^ / ( _ : < [ } | 1 [ 2 3 4                       ",
"                                        5 6 7 8 9 9 0 a b 7 c | d e f g                     ",
"                                        h i j k } l 9 m n m o p c q } r s                   ",
"                                      t u < l v w d 0 e [ m x c k o y | z A                 ",
"                                    B C r b b a n D E F G H 7 7 } | p I k J A               ",
"                                  K L M N q m O / P Q R S F 9 v v 1 o 8 T l U               ",
"                                V W X Y Z `  ...+.@.#.$.%.&.*.H e a v b 8 =.~ -.            ",
"                                ;.>.,.'.).!.~.{.].^./.(._.:.<.0 [ [.9 | p y G }.            ",
"                          |.1.2.3.4.5.6.7.8.9.0.a.b.b.c.d.e.f.<.G a 9 9 l T p [ g.          ",
"                        h.i.j.k.l.m.n.o.p.q.r.s.t.u.u.v.w.x.y.z.A.H e B.d C.8 w g.          ",
"                      D.E.j.F.G.H.I.J.K.L.M.t.N.O.P.Q.Q.R.S.T.U.<.H n [.v 1 q } /           ",
"                      V.W.X.Y.Z.`. +.+++++t.@+#+$+%+&+Q.*+=+8.-+;+>+m w k 8 ,+c E           ",
"                      '+)+!+~+{+]+^+r.t.u.u.s./+(+_+:+<+u.[+}+|+1+2+0 9 7 } } *.3+          ",
"                    4+5+6+7+8+9+0+a+b+u.u.t.c+d+e+f+g+<+t.u.h+i+j+k+J d 7 7 l [.l+          ",
"                m+n+o+p+q+r+s+t+u+v+++u.w+x+y+z+A+B+C+D+t.u.*+E+F+G+H+e o k H I+J+          ",
"              K+L+M+N+O+P+Q+R+S+T+U+V+t.W+X+Y+I.Z+`+ @.@s.+@u.*+@@#@$@%@w H &.&@            ",
"            *@=@-@;@>@,@'@)@!@~@{@]@^@++w+/@(@@@_@:@<@[@}@|@+@1@2@3@4@5@<.6@7@              ",
"          8@9@0@a@b@c@d@e@f@g@h@i@j@k@++b+l@a.m@N.n@b+<+o@p@q@r@_@s@t@u@g.^                 ",
"        v@w@x@y@z@A@B@C@D@E@F@G@H@I@J@K@L@M@N@O@P@u.u.Q@R@S@T@U@V@W@X@Y@                    ",
"        Z@`@ #.#+#@#C@##$#%#&#*#=#-#;#>#,#'#)#!#~#{#t.]#^#/#(#_#:#<#[#                      ",
"        }#|#1#2#3#4#5#6#7#8#9#0#a#b#c#d#e#f#g#h#i#~#n@j#k#l#}+m#n#o#                        ",
"      p#q#r#s#t#u#C@4#v#w#x#y#z#A#B#C#D#E#F#G#g#H#I#J#K#L#M#N#O#P#                          ",
"    Q#R#S#T#U#V#W#X#Y#Z#`# $.$+$@$#$$$%$c#&$*$=$-$ +;$>$,$'$t+)$                            ",
"  !$~${$]$^$/$($_$:$<$[$}$|$1$2$3$4$5$6$7$8$9$0$a$b$a+c$d$e$f$g$h$                          ",
"i$j$k$l$m$n$o$p$q$r$s$t$u$v$w$x$y$z$A$B$C$D$E$F$G$H$I$J$K$L$M$N$O$                          ",
"P$Q$R$S$T$U$V$W$X$Y$Z$`$ %.%          +%@%#%$%%%&%*%=%-%;%>%,%'%)%                          ",
"!%~%{%]%^%/%(%_%                          :%<%[%}%|%1%2%3%4%5%6%7%8%                        ",
"  9%0%a%b%c%                                d%e%f%g%h%i%j%k%l%m%n%o%p%                      ",
"q%X.r%s%t%u%                                      v%w%x%y%z%A%l%B%C%D%                      ",
"E%!%F%G%H%I%J%                                      K%L%M%N%O%P%Q%C%R%                      ",
"  S%T%U%V%W%X%Y%                                        Z%`% &.&+&@&#&                      ",
"    $&%&&&*&=&-&                                          ;&>&,&'&)&                        ",
"      !&~&{&]&^&/&                                                                          ",
"        (&_&:&<&[&}&                                                                        ",
"              |&1&2&3&                                                                      ",
"                4&5&2&                                                                      ",
"                  6&J%                                                                      "};
