/* XPM */
static char * playerTwo14_xpm[] = {
"46 46 620 2",
"  	c None",
". 	c #4A483B",
"+ 	c #37321D",
"@ 	c #403B2B",
"# 	c #5C5B57",
"$ 	c #525047",
"% 	c #4F4D43",
"& 	c #403D2D",
"* 	c #403C28",
"= 	c #545042",
"- 	c #423E2C",
"; 	c #2D270F",
"> 	c #433E2E",
", 	c #494638",
"' 	c #515046",
") 	c #5C5C5A",
"! 	c #5B584E",
"~ 	c #898886",
"{ 	c #7D7C77",
"] 	c #545043",
"^ 	c #433F2E",
"/ 	c #37321E",
"( 	c #38331E",
"_ 	c #464335",
": 	c #636158",
"< 	c #878787",
"[ 	c #959698",
"} 	c #8D8C8D",
"| 	c #7C7C78",
"1 	c #68675D",
"2 	c #535041",
"3 	c #3B3522",
"4 	c #454234",
"5 	c #595751",
"6 	c #767576",
"7 	c #858588",
"8 	c #8F9091",
"9 	c #969798",
"0 	c #868785",
"a 	c #4A4636",
"b 	c #39341F",
"c 	c #423F30",
"d 	c #494639",
"e 	c #5C5A57",
"f 	c #6D6D6D",
"g 	c #818284",
"h 	c #7F7F7F",
"i 	c #545248",
"j 	c #3A3622",
"k 	c #49472E",
"l 	c #545241",
"m 	c #5A5954",
"n 	c #6E6D65",
"o 	c #5A5646",
"p 	c #3A351F",
"q 	c #302A32",
"r 	c #241F37",
"s 	c #2C2618",
"t 	c #A2A198",
"u 	c #EFEFF0",
"v 	c #98958A",
"w 	c #261F8C",
"x 	c #1711BF",
"y 	c #2D27A6",
"z 	c #6E6A6B",
"A 	c #C5C5BD",
"B 	c #D3D2CE",
"C 	c #524C3B",
"D 	c #3B331B",
"E 	c #251C89",
"F 	c #1514B5",
"G 	c #0D0CFF",
"H 	c #A2A0FD",
"I 	c #E4E3D0",
"J 	c #FDFDFF",
"K 	c #ABA9A0",
"L 	c #403A27",
"M 	c #292072",
"N 	c #1B1CBF",
"O 	c #1620DC",
"P 	c #0D21F2",
"Q 	c #2823FF",
"R 	c #BDB9FC",
"S 	c #FFFFFF",
"T 	c #E9E8E6",
"U 	c #666254",
"V 	c #2E1F65",
"W 	c #37312F",
"X 	c #1A19B4",
"Y 	c #0C20FC",
"Z 	c #0F3AFF",
"` 	c #0928FF",
" .	c #0807FF",
"..	c #8581FF",
"+.	c #FFFFFA",
"@.	c #B6B5AE",
"#.	c #3E3925",
"$.	c #3A3522",
"%.	c #423E00",
"&.	c #2D2860",
"*.	c #1616D8",
"=.	c #131EE6",
"-.	c #0D24FF",
";.	c #0F34FF",
">.	c #103AFF",
",.	c #0F2FFF",
"'.	c #1316FF",
").	c #B8B6FF",
"!.	c #918F84",
"~.	c #565241",
"{.	c #999790",
"].	c #8C8A80",
"^.	c #737064",
"/.	c #443F32",
"(.	c #373225",
"_.	c #4E4939",
":.	c #474231",
"<.	c #0B0600",
"[.	c #251D92",
"}.	c #160ED3",
"|.	c #0C13FF",
"1.	c #0D2BFF",
"2.	c #0F39FF",
"3.	c #1038FF",
"4.	c #1037FF",
"5.	c #0D31FF",
"6.	c #060FFF",
"7.	c #938DFF",
"8.	c #E2E0D8",
"9.	c #595447",
"0.	c #342F1A",
"a.	c #8A8880",
"b.	c #E7E7E8",
"c.	c #F0F0F1",
"d.	c #DBDBDB",
"e.	c #B5B4B1",
"f.	c #A09E96",
"g.	c #C4C3C0",
"h.	c #A2A099",
"i.	c #948C7F",
"j.	c #AFAAA2",
"k.	c #8A8478",
"l.	c #5D5A4C",
"m.	c #3B3724",
"n.	c #484533",
"o.	c #393524",
"p.	c #585345",
"q.	c #36311E",
"r.	c #342F37",
"s.	c #1109A4",
"t.	c #1407DB",
"u.	c #1B14A9",
"v.	c #0F13CA",
"w.	c #1039FF",
"x.	c #1138FF",
"y.	c #0E32FF",
"z.	c #0B0EFF",
"A.	c #5E55FF",
"B.	c #FFFFFB",
"C.	c #97958A",
"D.	c #5F5C4E",
"E.	c #D6D6D7",
"F.	c #FEFEFF",
"G.	c #F8F7F7",
"H.	c #FEFCFC",
"I.	c #FFFFFE",
"J.	c #EEF4F5",
"K.	c #CBE7F2",
"L.	c #CBEDF7",
"M.	c #FFF7EF",
"N.	c #DAD4D0",
"O.	c #B7B4AF",
"P.	c #D4D4D2",
"Q.	c #BAB8B4",
"R.	c #94928A",
"S.	c #BEBCBA",
"T.	c #B1B0A0",
"U.	c #777475",
"V.	c #4E4A5E",
"W.	c #534F48",
"X.	c #746E76",
"Y.	c #312BA6",
"Z.	c #0A22F4",
"`.	c #1036FF",
" +	c #1033FF",
".+	c #0000FF",
"++	c #6F6AFF",
"@+	c #E0DFEA",
"#+	c #757260",
"$+	c #5C5849",
"%+	c #BBB9B4",
"&+	c #FEFFFF",
"*+	c #E0F7FF",
"=+	c #A1E4FF",
"-+	c #84DAFF",
";+	c #5ACBFF",
">+	c #25BCFF",
",+	c #A9E6FF",
"'+	c #CFF4FF",
")+	c #ECFAFA",
"!+	c #FBF8F7",
"~+	c #F9F9F8",
"{+	c #E3E3E0",
"]+	c #CDCDC7",
"^+	c #F3F4F8",
"/+	c #D0D1A3",
"(+	c #4A4449",
"_+	c #111ADE",
":+	c #121FFF",
"<+	c #8079FF",
"[+	c #BDBBB6",
"}+	c #484325",
"|+	c #7F7D72",
"1+	c #CECDCB",
"2+	c #F1F2F4",
"3+	c #FBFBFC",
"4+	c #B2E6FF",
"5+	c #40BAFC",
"6+	c #009CED",
"7+	c #008ED9",
"8+	c #0084CA",
"9+	c #0F9AE1",
"0+	c #2EB3ED",
"a+	c #51CFFF",
"b+	c #C7EFFA",
"c+	c #5BC9F8",
"d+	c #7FD9FF",
"e+	c #CEF3FF",
"f+	c #FDFFFF",
"g+	c #FEFDFD",
"h+	c #C3C1AE",
"i+	c #3A306E",
"j+	c #0C08E7",
"k+	c #0F31FF",
"l+	c #0F37FF",
"m+	c #0E14FF",
"n+	c #6058F8",
"o+	c #77726B",
"p+	c #565244",
"q+	c #615D4F",
"r+	c #8D8B84",
"s+	c #CECFCD",
"t+	c #F9F5F4",
"u+	c #E7FAFF",
"v+	c #5DC8FD",
"w+	c #0099E9",
"x+	c #007AB2",
"y+	c #0073A5",
"z+	c #0079B2",
"A+	c #007DB9",
"B+	c #0090DD",
"C+	c #209AD6",
"D+	c #0087CB",
"E+	c #0595DE",
"F+	c #26B2F3",
"G+	c #66D0FE",
"H+	c #BAEBFF",
"I+	c #DBFAFF",
"J+	c #FFFCF6",
"K+	c #A29F94",
"L+	c #20188E",
"M+	c #080EFF",
"N+	c #0F36FF",
"O+	c #113FFF",
"P+	c #000DFF",
"Q+	c #1E1ECB",
"R+	c #383441",
"S+	c #2E291A",
"T+	c #777467",
"U+	c #EFEFF2",
"V+	c #FFFFFC",
"W+	c #6AD2FF",
"X+	c #07A6F4",
"Y+	c #0084C3",
"Z+	c #0076AC",
"`+	c #0077AC",
" @	c #0074A8",
".@	c #0078B0",
"+@	c #0079B1",
"@@	c #0075AD",
"#@	c #0077AF",
"$@	c #007EBF",
"%@	c #008DD2",
"&@	c #14A3EA",
"*@	c #71CDF2",
"=@	c #D5E0E3",
"-@	c #949089",
";@	c #2F2863",
">@	c #1209B9",
",@	c #1011ED",
"'@	c #0E1CF7",
")@	c #0D29FF",
"!@	c #0B1AFD",
"~@	c #221991",
"{@	c #3C360D",
"]@	c #524D3C",
"^@	c #C8BCB2",
"/@	c #AED9E9",
"(@	c #69D6FF",
"_@	c #0FA7ED",
":@	c #0391D8",
"<@	c #007FC1",
"[@	c #007AB5",
"}@	c #0076AA",
"|@	c #007AB1",
"1@	c #0078AF",
"2@	c #0078AC",
"3@	c #0076AD",
"4@	c #007BBB",
"5@	c #2E99CC",
"6@	c #6792A2",
"7@	c #725E4A",
"8@	c #4E4D42",
"9@	c #3C3727",
"0@	c #291F60",
"a@	c #271F91",
"b@	c #130CF2",
"c@	c #120ED9",
"d@	c #332B43",
"e@	c #2F2B1A",
"f@	c #665F51",
"g@	c #C0BEBB",
"h@	c #FBFDFB",
"i@	c #C4F1FF",
"j@	c #76D8FF",
"k@	c #2FB7F5",
"l@	c #0E9BE3",
"m@	c #0181BD",
"n@	c #0078AE",
"o@	c #0079AF",
"p@	c #0077AE",
"q@	c #028ACC",
"r@	c #278EBC",
"s@	c #73675E",
"t@	c #646261",
"u@	c #525033",
"v@	c #5C5A41",
"w@	c #58553E",
"x@	c #3C3762",
"y@	c #302878",
"z@	c #322C18",
"A@	c #93938E",
"B@	c #B9AFA6",
"C@	c #DFD6D2",
"D@	c #F6F8F5",
"E@	c #E7FDFF",
"F@	c #A2E0FB",
"G@	c #0896DA",
"H@	c #0076B2",
"I@	c #0075A9",
"J@	c #0079AE",
"K@	c #0079B0",
"L@	c #0093DD",
"M@	c #47A3D0",
"N@	c #7A7B76",
"O@	c #605B4F",
"P@	c #605F53",
"Q@	c #66645C",
"R@	c #6E6C5C",
"S@	c #63604F",
"T@	c #6F6D5B",
"U@	c #2C2814",
"V@	c #484432",
"W@	c #534E3D",
"X@	c #C2C1BF",
"Y@	c #C6F2FF",
"Z@	c #47BEF1",
"`@	c #059FEC",
" #	c #0189C9",
".#	c #007FBD",
"+#	c #0074AC",
"@#	c #0084C6",
"##	c #0C98DC",
"$#	c #4DA0C6",
"%#	c #5A503F",
"&#	c #4F4D3E",
"*#	c #646258",
"=#	c #5A574A",
"-#	c #595649",
";#	c #706F66",
">#	c #484534",
",#	c #2D2712",
"'#	c #9D9B94",
")#	c #CFCCC8",
"!#	c #F8F4F1",
"~#	c #E0F9FF",
"{#	c #A5E7FF",
"]#	c #56CAFA",
"^#	c #2BAFEE",
"/#	c #0093E6",
"(#	c #0D90CD",
"_#	c #2887B4",
":#	c #338FBC",
"<#	c #648996",
"[#	c #574F3E",
"}#	c #7B7A75",
"|#	c #5D5B51",
"1#	c #767570",
"2#	c #66645A",
"3#	c #636157",
"4#	c #605F54",
"5#	c #44402E",
"6#	c #555143",
"7#	c #9C9991",
"8#	c #FAF4F2",
"9#	c #F2FCFF",
"0#	c #CEF2FF",
"a#	c #6FD2FF",
"b#	c #68C6F0",
"c#	c #617B80",
"d#	c #6F7170",
"e#	c #7A6859",
"f#	c #615A4E",
"g#	c #706F68",
"h#	c #534F41",
"i#	c #68665E",
"j#	c #484433",
"k#	c #777670",
"l#	c #575447",
"m#	c #7D7B70",
"n#	c #CACAC9",
"o#	c #EBEBEB",
"p#	c #FAF9F9",
"q#	c #F9FFFF",
"r#	c #FFF6F0",
"s#	c #B9AA9B",
"t#	c #4F4C3E",
"u#	c #575640",
"v#	c #504E43",
"w#	c #6F6E67",
"x#	c #565346",
"y#	c #6C6B63",
"z#	c #6B6961",
"A#	c #868378",
"B#	c #A7A58B",
"C#	c #A8A782",
"D#	c #7673A2",
"E#	c #2F2864",
"F#	c #3C3821",
"G#	c #524F35",
"H#	c #534F39",
"I#	c #696757",
"J#	c #65635B",
"K#	c #575448",
"L#	c #5B584B",
"M#	c #282223",
"N#	c #211A87",
"O#	c #57535B",
"P#	c #D7D7CE",
"Q#	c #EFEFE1",
"R#	c #726E76",
"S#	c #0C0492",
"T#	c #0A05E5",
"U#	c #1810B2",
"V#	c #2F286C",
"W#	c #463E5E",
"X#	c #646345",
"Y#	c #636155",
"Z#	c #545141",
"`#	c #4D493B",
" $	c #322C41",
".$	c #0F06D8",
"+$	c #251EAB",
"@$	c #7F7C6E",
"#$	c #8D8978",
"$$	c #3A345B",
"%$	c #0803D3",
"&$	c #0E2CFF",
"*$	c #0B1EFE",
"=$	c #0F19E8",
"-$	c #140CEB",
";$	c #322C84",
">$	c #3B3642",
",$	c #322A4A",
"'$	c #1810C8",
")$	c #0B09E4",
"!$	c #211399",
"~$	c #201F89",
"{$	c #121BD0",
"]$	c #0D21FF",
"^$	c #0918FF",
"/$	c #0F08D0",
"($	c #2B2444",
"_$	c #2E275B",
":$	c #1819CA",
"<$	c #0D22F7",
"[$	c #0F22FE",
"}$	c #0C22FF",
"|$	c #0D2FFF",
"1$	c #113AFF",
"2$	c #1137FF",
"3$	c #0E35FF",
"4$	c #091BFB",
"5$	c #271D85",
"6$	c #3F3A0E",
"7$	c #25237E",
"8$	c #0C1FFF",
"9$	c #0F3BFF",
"0$	c #103DFE",
"a$	c #0326FF",
"b$	c #1A3AFF",
"c$	c #171DE2",
"d$	c #262056",
"e$	c #322A45",
"f$	c #111CED",
"g$	c #1139FF",
"h$	c #092DFF",
"i$	c #1125FF",
"j$	c #5852FF",
"k$	c #7772B0",
"l$	c #3E3823",
"m$	c #271982",
"n$	c #141CDE",
"o$	c #0E33FF",
"p$	c #0E37FF",
"q$	c #0221FF",
"r$	c #171EFF",
"s$	c #5458FF",
"t$	c #BDB7F8",
"u$	c #868367",
"v$	c #312C4F",
"w$	c #161CD1",
"x$	c #0D32FF",
"y$	c #123EFF",
"z$	c #041DFF",
"A$	c #071AFF",
"B$	c #817DFF",
"C$	c #D0CBFF",
"D$	c #D1CFC1",
"E$	c #595638",
"F$	c #443E00",
"G$	c #1C17A9",
"H$	c #0C27F8",
"I$	c #021BFF",
"J$	c #2425FF",
"K$	c #8E8CFF",
"L$	c #D2CDFC",
"M$	c #CDCBC2",
"N$	c #A5A399",
"O$	c #25200E",
"P$	c #403B2A",
"Q$	c #4A473A",
"R$	c #241D8F",
"S$	c #090FF9",
"T$	c #2B31FF",
"U$	c #807AFF",
"V$	c #EEECFF",
"W$	c #DFDDD6",
"X$	c #666348",
"Y$	c #605F5D",
"Z$	c #515047",
"`$	c #423D2C",
" %	c #312A12",
".%	c #3C3725",
"+%	c #201994",
"@%	c #1715FF",
"#%	c #C6C5FF",
"$%	c #A3A096",
"%%	c #332D1A",
"&%	c #36311C",
"*%	c #413E2E",
"=%	c #4E4C42",
"-%	c #504E45",
";%	c #5D5C59",
">%	c #59574A",
",%	c #5E5C57",
"'%	c #535047",
")%	c #474438",
"!%	c #393421",
"~%	c #3F3A00",
"{%	c #251D57",
"]%	c #251DB1",
"^%	c #9894B9",
"/%	c #FFFFF7",
"(%	c #E0DFDC",
"_%	c #5E5A4A",
":%	c #35301A",
"<%	c #5C5A52",
"[%	c #868684",
"}%	c #929395",
"|%	c #818183",
"1%	c #6F6F6F",
"2%	c #5B5A58",
"3%	c #4F4C37",
"4%	c #3F3B3D",
"5%	c #26213F",
"6%	c #706C64",
"7%	c #F4F4F4",
"8%	c #BEBDB6",
"9%	c #46422F",
"0%	c #4F4B3C",
"a%	c #69675E",
"b%	c #8B8B8A",
"c%	c #909091",
"d%	c #939395",
"e%	c #868688",
"f%	c #7A7979",
"g%	c #585650",
"h%	c #45412D",
"i%	c #B4B3A4",
"j%	c #8D8B7F",
"k%	c #35311C",
"l%	c #4F4B3B",
"m%	c #656257",
"n%	c #7C7A75",
"o%	c #90908F",
"p%	c #949496",
"q%	c #71716F",
"r%	c #626058",
"s%	c #9A9790",
"t%	c #CAC8C3",
"u%	c #433E2C",
"v%	c #34301A",
"w%	c #413D2B",
"x%	c #59564A",
"y%	c #717069",
"z%	c #5D5B50",
"A%	c #474338",
"B%	c #3C3724",
"C%	c #706C5D",
"                                                              . +                           ",
"                                                            @ # $ % & * = - ;               ",
"                                                              > , ' ) ! ~ { ] ^ /           ",
"                                                                  ( _ : < [ } | 1 2 3       ",
"                                                                      4 5 6 7 8 9 0 a b     ",
"                                                                        c d e f g h i       ",
"                                                                            j k l m n o p   ",
"                                                                              q r s t u v   ",
"                                                                            w x y z A B C   ",
"                                                                        D E F G H I J K L   ",
"                                                                      M N O P Q R S T U     ",
"                                                                  V W X Y Z `  ...+.@.#.    ",
"                            $.                                %.&.*.=.-.;.>.,.'.).S !.      ",
"                        ~.{.].^./.(._.:.<.  /                 [.}.|.1.2.3.4.5.6.7.8.9.      ",
"                      0.a.b.c.d.e.f.g.h.i.j.k.l.m.^.n.o.p.q.r.s.t.u.v.1.w.x.y.z.A.B.C.      ",
"                      D.E.F.S S G.H.I.J.K.L.M.N.O.P.Q.R.S.T.U.V.W.X.Y.Z.w.`. +.+++@+#+      ",
"                      $+%+S S S &+*+=+-+;+>+,+'+)+S B.!+S ~+{+]+^+/+(+_+,.w.y.:+<+[+}+      ",
"                        |+1+2+3+S 4+5+6+7+8+9+0+a+b+c+d+e+f+S g+S h+i+j+k+>.l+m+n+o+        ",
"                        p+q+r+s+t+u+v+w+x+y+z+A+B+C+D+E+F+G+H+I+J+K+L+M+N+>.O+P+Q+R+        ",
"                            S+T+U+V+W+X+Y+Z+`+ @.@+@@@#@$@%@&@*@=@-@;@>@,@'@)@!@~@{@        ",
"                              ]@r+^@/@(@_@:@<@[@}@|@|@1@2@3@4@5@6@7@8@9@0@a@b@c@d@          ",
"                                e@f@g@h@i@j@k@l@m@n@o@x+|@1@p@q@r@s@t@u@v@w@x@y@            ",
"                                  z@A@B@C@D@E@F@G@H@I@J@K@K@`+L@M@N@O@P@Q@R@S@T@            ",
"                                    U@V@W@X@S Y@Z@`@ #.#+#z+@###$#%#&#*#=#-#;#>#            ",
"                                        ,#'#)#!#~#{#]#^#/#(#_#:#<#[#}#|#1#2#3#4#            ",
"                                          5#6#7#8#S 9#0#a#b#c#d#e#f#g#h#i#j#k#l#            ",
"                                              m#n#o#p#S q#r#s#t#u#v#w#x#y#z#z#+             ",
"                                                ]@A#B#^+B.C#D#E#F#G#H#I#J#K#L#              ",
"                                                M#N#O#P#Q#R#S#T#U#V#W#X#Y#Z#`#              ",
"                                                 $.$+$@$#$$$%$&$*$=$-$;$>$                  ",
"                                                ,$'$)$!$~${$]$>.4.4.^$/$($                  ",
"                                                _$:$<$[$}$|$>.1$2$3$4$5$6$                  ",
"                                                  7$8$9$0$`.`.N+a$b$c$d$                    ",
"                                                  e$f$`.`.g$1$h$i$j$k$l$                    ",
"                                                  m$n$o$3.p$q$r$s$t$u$                      ",
"                                                  v$w$x$y$z$A$B$C$D$E$                      ",
"                                                  F$G$H$I$J$K$L$M$N$O$                      ",
"                              P$Q$(                 R$S$T$U$V$W$X$                          ",
"                              _ Y$Z$, `$ %  .%      +%@%#%S S $%%%                          ",
"                              &%*%=%-%;%>%,%'%)%!%~%{%]%^%/%(%_%                            ",
"                                    :%<%[%}%|%1%2%3%4%5%6%7%8%9%                            ",
"                                      0%a%b%c%d%e%f%g%h%i%S j%                              ",
"                                        k%l%m%n%o%p%q%r%s%t%u%                              ",
"                                            v%w%x%y%z%A%B%C%                                ",
"                                                  &%b                                       ",
"                                                                                            "};
