/* XPM */
static char * playerTwo_xpm[] = {
"46 46 10 1",
" 	c None",
".	c #393420",
"+	c #CACACA",
"@	c #FFFFFF",
"#	c #00AEFE",
"$	c #007AB1",
"%	c #646464",
"&	c #8C8C8C",
"*	c #0E05FF",
"=	c #1036FF",
"                     ...                      ",
"                    .+++.                     ",
"                   .+@@@+.                    ",
"                   .+@@@+.                    ",
"                   .+@@@+.                    ",
"                   .+@@@+.                    ",
"                  .+@@@@@+.                   ",
"                  .+@@#@@+.                   ",
"                  .+@###@+.                   ",
"                 .+@##$##@+.                  ",
"                 .+@#$$$#@+.                  ",
"                 .+@#$$$#@+.                  ",
"  .              .+@#$$$#@+.              .   ",
" .%.            .+@@#$$$#@@+.            .%.  ",
" .%.            .+@@#$$$#@@+.            .%.  ",
" .%.            .+@#$$$$$#@+.            .%.  ",
" .%.           .+@@#$$$$$#@@+.           .%.  ",
" .%.          ..+@@#$$$$$#@@+..          .%.  ",
".&&.        ..*.+@@#$$$$$#@@+.*..        .&&. ",
".&&%.      .***.+@@#$$$$$#@@+.***.      .%&&. ",
".&&%.    ..*=*.+@@@#$$$$$#@@@+.*=*..    .%&&. ",
".&&%.   .**==*.+@@@+#$$$#+@@@+.*==**.   .%&&. ",
".&&%. ..*=====*...+.%###%.+...*=====*.. .%&&. ",
".&&%..**=======***.%&&&&&%.***=======**..%&&. ",
".&&%.****========*.%.....%.*=========***.%&&. ",
"..%...@@***======*..&&&&&..*=======**@@...%.. ",
"  .+++@@@@***====*.&.....&.*=====**@@@@+++.   ",
"  .@@@@@@@@@***==*%.&&&&&.%*===**@@@@@@@@@.   ",
"   .......@@@@****.&.....&.****@@@@.......    ",
"          ........ .&&&&&. ........           ",
"                    .....                     ",
"                                              ",
"                                              ",
"                                              ",
"                                              ",
"                                              ",
"                                              ",
"                                              ",
"                                              ",
"                                              ",
"                                              ",
"                                              ",
"                                              ",
"                                              ",
"                                              ",
"                                              "};
