/* XPM */
static char * playerTwo13_xpm[] = {
"46 46 622 2",
"  	c None",
". 	c #524F40",
"+ 	c #504D3D",
"@ 	c #44402F",
"# 	c #555245",
"$ 	c #4B4838",
"% 	c #353535",
"& 	c #363636",
"* 	c #373737",
"= 	c #757267",
"- 	c #636048",
"; 	c #686541",
"> 	c #6A654E",
", 	c #3E383D",
"' 	c #2A2249",
") 	c #352C3F",
"! 	c #2C2543",
"~ 	c #565343",
"{ 	c #6A685F",
"] 	c #75746E",
"^ 	c #6A6860",
"/ 	c #59584B",
"( 	c #53513A",
"_ 	c #2D253D",
": 	c #342C3B",
"< 	c #302945",
"[ 	c #36353A",
"} 	c #42413A",
"| 	c #43423A",
"1 	c #565653",
"2 	c #6C6C6C",
"3 	c #7B7B7B",
"4 	c #717171",
"5 	c #3E3E3E",
"6 	c #595444",
"7 	c #545040",
"8 	c #6C6A5B",
"9 	c #585443",
"0 	c #514C3E",
"a 	c #645F4E",
"b 	c #656247",
"c 	c #BDBBAD",
"d 	c #D7D5CB",
"e 	c #C4BFDA",
"f 	c #857DCA",
"g 	c #383AD7",
"h 	c #1217CC",
"i 	c #1411CA",
"j 	c #1A12B4",
"k 	c #484557",
"l 	c #676556",
"m 	c #64625A",
"n 	c #6B6961",
"o 	c #484433",
"p 	c #646257",
"q 	c #6B6B62",
"r 	c #64634F",
"s 	c #413C60",
"t 	c #1E199D",
"u 	c #272873",
"v 	c #2B2C6F",
"w 	c #46464D",
"x 	c #565656",
"y 	c #666666",
"z 	c #747474",
"A 	c #818181",
"B 	c #929292",
"C 	c #888888",
"D 	c #414141",
"E 	c #4A463A",
"F 	c #686456",
"G 	c #524D3C",
"H 	c #666254",
"I 	c #4C4836",
"J 	c #C1BEB9",
"K 	c #EBEAE8",
"L 	c #D7D7D3",
"M 	c #D7D6D2",
"N 	c #D0CEC9",
"O 	c #D9D7CE",
"P 	c #DEDBE0",
"Q 	c #D4CFF1",
"R 	c #B2AEFF",
"S 	c #6164FF",
"T 	c #393CFF",
"U 	c #1A3AFF",
"V 	c #0B2BFF",
"W 	c #091FFF",
"X 	c #120CED",
"Y 	c #4C4766",
"Z 	c #6A684F",
"` 	c #615F54",
" .	c #646259",
"..	c #6E6C65",
"+.	c #68665E",
"@.	c #4A4840",
"#.	c #474640",
"$.	c #333243",
"%.	c #2B2B6D",
"&.	c #4B4B4B",
"*.	c #686868",
"=.	c #6E6E6E",
"-.	c #8C8C8C",
";.	c #7F7F7F",
">.	c #767676",
",.	c #808080",
"'.	c #7E7D7C",
").	c #7C7C7A",
"!.	c #7F7E7C",
"~.	c #B1B0B0",
"{.	c #4E4937",
"].	c #514D40",
"^.	c #9F9C94",
"/.	c #CBCBBF",
"(.	c #D2D1CE",
"_.	c #FFFFF8",
":.	c #FFFFFF",
"<.	c #E9E7FF",
"[.	c #B7B3FF",
"}.	c #696BFF",
"|.	c #3637FF",
"1.	c #0F23FF",
"2.	c #0323FF",
"3.	c #082DFF",
"4.	c #1039FF",
"5.	c #0F32FD",
"6.	c #1416D8",
"7.	c #403859",
"8.	c #545039",
"9.	c #67655B",
"0.	c #525044",
"a.	c #434440",
"b.	c #474743",
"c.	c #766757",
"d.	c #907961",
"e.	c #947B62",
"f.	c #6E6054",
"g.	c #404346",
"h.	c #5D6062",
"i.	c #5C5E60",
"j.	c #828383",
"k.	c #7D7D7D",
"l.	c #727272",
"m.	c #787878",
"n.	c #777777",
"o.	c #7C7C7C",
"p.	c #838383",
"q.	c #5C5C5C",
"r.	c #5D5D5D",
"s.	c #646463",
"t.	c #676766",
"u.	c #464337",
"v.	c #36301A",
"w.	c #545144",
"x.	c #62615B",
"y.	c #514E3B",
"z.	c #49453F",
"A.	c #5F5A78",
"B.	c #C0BDDC",
"C.	c #C6C6FF",
"D.	c #5B56FF",
"E.	c #2F31FF",
"F.	c #0010FF",
"G.	c #0221FF",
"H.	c #0D34FF",
"I.	c #0F36FF",
"J.	c #1139FF",
"K.	c #113BFF",
"L.	c #0C28FF",
"M.	c #1415CB",
"N.	c #3B344F",
"O.	c #545238",
"P.	c #5E5C56",
"Q.	c #5F5B56",
"R.	c #675A4A",
"S.	c #7B6855",
"T.	c #D0A981",
"U.	c #FBCA98",
"V.	c #FECE9A",
"W.	c #C6A17D",
"X.	c #736353",
"Y.	c #766556",
"Z.	c #766759",
"`.	c #716E6A",
" +	c #565759",
".+	c #5C5C5D",
"++	c #848484",
"@+	c #535250",
"#+	c #413E32",
"$+	c #3A341F",
"%+	c #413D2A",
"&+	c #57554E",
"*+	c #312D3A",
"=+	c #1F1796",
"-+	c #322FFA",
";+	c #3236FF",
">+	c #0719FF",
",+	c #0826FF",
"'+	c #0A2FFF",
")+	c #0F39FF",
"!+	c #123AFF",
"~+	c #1037FF",
"{+	c #0E31FF",
"]+	c #0E2CFF",
"^+	c #0D08E1",
"/+	c #322D37",
"(+	c #4F4F36",
"_+	c #584F43",
":+	c #695948",
"<+	c #D0A376",
"[+	c #F0C18F",
"}+	c #FBCB99",
"|+	c #FFCD9A",
"1+	c #F9C997",
"2+	c #EFC494",
"3+	c #F0C494",
"4+	c #E0B78B",
"5+	c #85715D",
"6+	c #534C44",
"7+	c #4E4B48",
"8+	c #58595A",
"9+	c #646465",
"0+	c #636363",
"a+	c #7A7A7A",
"b+	c #898989",
"c+	c #6A6A6A",
"d+	c #4C4C49",
"e+	c #413C2C",
"f+	c #4C4839",
"g+	c #807F7B",
"h+	c #919194",
"i+	c #66645D",
"j+	c #403B30",
"k+	c #231B5C",
"l+	c #1A14AD",
"m+	c #0F12D8",
"n+	c #0C27F9",
"o+	c #1036FF",
"p+	c #103AFF",
"q+	c #0E32FF",
"r+	c #0D26F6",
"s+	c #0E12D8",
"t+	c #0200BF",
"u+	c #1710AD",
"v+	c #3E385D",
"w+	c #424237",
"x+	c #625446",
"y+	c #CDA073",
"z+	c #FCC894",
"A+	c #FFCC99",
"B+	c #FECC99",
"C+	c #F4C393",
"D+	c #EFBF90",
"E+	c #8E7761",
"F+	c #4D4841",
"G+	c #57524E",
"H+	c #6D6D6D",
"I+	c #737373",
"J+	c #616161",
"K+	c #707070",
"L+	c #8B8B8B",
"M+	c #6B6B6B",
"N+	c #4F4F4E",
"O+	c #4C4A39",
"P+	c #423E2C",
"Q+	c #83817E",
"R+	c #8C8C8E",
"S+	c #62615E",
"T+	c #433F18",
"U+	c #2D246A",
"V+	c #281F7B",
"W+	c #1719C2",
"X+	c #1026EF",
"Y+	c #0F31FD",
"Z+	c #103DFF",
"`+	c #0C22FF",
" @	c #181CA6",
".@	c #423D60",
"+@	c #524C6D",
"@@	c #6F6D87",
"#@	c #B2A4A4",
"$@	c #5E5D57",
"%@	c #675847",
"&@	c #DBAA7A",
"*@	c #FECB97",
"=@	c #FFCD99",
"-@	c #FFCE9A",
";@	c #E8BB8D",
">@	c #DAAF86",
",@	c #AD8F71",
"'@	c #4D4C4C",
")@	c #6F6F70",
"!@	c #858585",
"~@	c #4E4E4D",
"{@	c #494637",
"]@	c #4A4635",
"^@	c #7D7C77",
"/@	c #909092",
"(@	c #636361",
"_@	c #3B3727",
":@	c #2F2C58",
"<@	c #1C1AB7",
"[@	c #131CE3",
"}@	c #0C25FF",
"|@	c #0D2DFF",
"1@	c #1116DA",
"2@	c #3F3575",
"3@	c #ABA88B",
"4@	c #E2E1D4",
"5@	c #CFCEAE",
"6@	c #ACA7A4",
"7@	c #69655B",
"8@	c #C59B72",
"9@	c #F4C18F",
"0@	c #FACD99",
"a@	c #FFD29D",
"b@	c #CBA47E",
"c@	c #414140",
"d@	c #7E7E7E",
"e@	c #828282",
"f@	c #3A3933",
"g@	c #4C4837",
"h@	c #82817E",
"i@	c #8C8D90",
"j@	c #62615C",
"k@	c #413D2E",
"l@	c #2D1E67",
"m@	c #312A48",
"n@	c #1B20B0",
"o@	c #0F22F2",
"p@	c #0B0CE6",
"q@	c #423B90",
"r@	c #B5B5A5",
"s@	c #FCFDFB",
"t@	c #72838A",
"u@	c #715E4B",
"v@	c #ECB783",
"w@	c #FECB98",
"x@	c #FFD8A5",
"y@	c #FED3A0",
"z@	c #FDCB98",
"A@	c #F0C193",
"B@	c #AA9177",
"C@	c #EBBE91",
"D@	c #FFCF9B",
"E@	c #FFD19C",
"F@	c #CEA67F",
"G@	c #776757",
"H@	c #515150",
"I@	c #373736",
"J@	c #838380",
"K@	c #929395",
"L@	c #5E5B56",
"M@	c #3F3A2A",
"N@	c #2A266A",
"O@	c #1918C5",
"P@	c #130BD7",
"Q@	c #1810BE",
"R@	c #59555C",
"S@	c #C1C0B1",
"T@	c #FFFDFC",
"U@	c #79878B",
"V@	c #705D4B",
"W@	c #EAB682",
"X@	c #FFCE9B",
"Y@	c #FCD8A6",
"Z@	c #CCAF88",
"`@	c #A6896C",
" #	c #CEA680",
".#	c #E5B98D",
"+#	c #635F5A",
"@#	c #DAB48B",
"##	c #FFD29C",
"$#	c #FFD49E",
"%#	c #A1856A",
"&#	c #333437",
"*#	c #8A8A8A",
"=#	c #797979",
"-#	c #383837",
";#	c #4A4636",
">#	c #72716B",
",#	c #7B7B76",
"'#	c #504D40",
")#	c #312A4D",
"!#	c #282078",
"~#	c #130B9C",
"{#	c #454078",
"]#	c #B5B39E",
"^#	c #7A868B",
"/#	c #725F4B",
"(#	c #D3A476",
"_#	c #C59F7A",
":#	c #FCC997",
"<#	c #FAC896",
"[#	c #AB8C6F",
"}#	c #706051",
"|#	c #937C65",
"1#	c #BD9D7E",
"2#	c #9E8872",
"3#	c #E9BD91",
"4#	c #FFD09B",
"5#	c #FFD39E",
"6#	c #A5886C",
"7#	c #3A3A3A",
"8#	c #5A5A5A",
"9#	c #535045",
"0#	c #605F5C",
"a#	c #443F2E",
"b#	c #28221A",
"c#	c #484236",
"d#	c #C0BFB9",
"e#	c #FFFEFD",
"f#	c #72858B",
"g#	c #735F4C",
"h#	c #C2986E",
"i#	c #8C765E",
"j#	c #C39F7B",
"k#	c #F3C393",
"l#	c #F3C594",
"m#	c #F1C795",
"n#	c #B29679",
"o#	c #6E675F",
"p#	c #F4C494",
"q#	c #FDCC99",
"r#	c #FFD8A1",
"s#	c #A98C6E",
"t#	c #383839",
"u#	c #6F6F6F",
"v#	c #979797",
"w#	c #393521",
"x#	c #53514A",
"y#	c #4B4634",
"z#	c #B8B7B4",
"A#	c #FAF4F3",
"B#	c #78878B",
"C#	c #E4B17F",
"D#	c #C49F7A",
"E#	c #6D5F50",
"F#	c #D4AE85",
"G#	c #FFD59F",
"H#	c #C8A682",
"I#	c #867668",
"J#	c #EFC191",
"K#	c #927B64",
"L#	c #404040",
"M#	c #5F5F5F",
"N#	c #757575",
"O#	c #8D8D8D",
"P#	c #49463A",
"Q#	c #504F45",
"R#	c #454131",
"S#	c #6C695F",
"T#	c #C6C0BA",
"U#	c #7B878B",
"V#	c #D6AD83",
"W#	c #5C5247",
"X#	c #CFAA82",
"Y#	c #F6C696",
"Z#	c #EDBF91",
"`#	c #957B63",
" $	c #4E4A47",
".$	c #585859",
"+$	c #868686",
"@$	c #413E2E",
"#$	c #5C5B57",
"$$	c #3F3B29",
"%$	c #BEBAB4",
"&$	c #848A8B",
"*$	c #D6AC83",
"=$	c #5D5247",
"-$	c #836F5B",
";$	c #414241",
">$	c #606060",
",$	c #45433F",
"'$	c #403C2B",
")$	c #535048",
"!$	c #474435",
"~$	c #555141",
"{$	c #B3B1AC",
"]$	c #898988",
"^$	c #705E4C",
"/$	c #E9B582",
"($	c #D5AC82",
"_$	c #605449",
":$	c #D0AA82",
"<$	c #FFD19D",
"[$	c #D5AF87",
"}$	c #A48C75",
"|$	c #3C3B37",
"1$	c #5B5748",
"2$	c #9D9894",
"3$	c #7D7D76",
"4$	c #AD8A67",
"5$	c #D7AB7E",
"6$	c #A78A6C",
"7$	c #E4B98D",
"8$	c #FCCB99",
"9$	c #FFD39D",
"0$	c #B69A7C",
"a$	c #645F5C",
"b$	c #836E5A",
"c$	c #424141",
"d$	c #C7BBB4",
"e$	c #8FA7AE",
"f$	c #615344",
"g$	c #DFAD7B",
"h$	c #FFD19A",
"i$	c #AC8C6F",
"j$	c #A2886E",
"k$	c #9D8772",
"l$	c #C3A281",
"m$	c #F3C595",
"n$	c #FACB98",
"o$	c #CDA67F",
"p$	c #6B5E52",
"q$	c #4E4F4F",
"r$	c #676767",
"s$	c #878787",
"t$	c #595545",
"u$	c #C7BEB5",
"v$	c #BACBCC",
"w$	c #516366",
"x$	c #A28262",
"y$	c #C39E79",
"z$	c #F0BF8E",
"A$	c #FFD39F",
"B$	c #B59979",
"C$	c #796755",
"D$	c #B39373",
"E$	c #E9BC90",
"F$	c #726961",
"G$	c #E4BD91",
"H$	c #F7CC99",
"I$	c #806B58",
"J$	c #464545",
"K$	c #626262",
"L$	c #969696",
"M$	c #696969",
"N$	c #5A584C",
"O$	c #AFAAA5",
"P$	c #BFDBE4",
"Q$	c #49A0C5",
"R$	c #2D5365",
"S$	c #43565C",
"T$	c #A0886A",
"U$	c #CDB48B",
"V$	c #C9AE88",
"W$	c #C39E7B",
"X$	c #CCA67F",
"Y$	c #BF9D7A",
"Z$	c #5E5954",
"`$	c #B99A7A",
" %	c #C8A780",
".%	c #685A4D",
"+%	c #444444",
"@%	c #646464",
"#%	c #655E50",
"$%	c #C3C5C2",
"%%	c #8FD8F6",
"&%	c #48B0E2",
"*%	c #1988C3",
"=%	c #48626B",
"-%	c #52524C",
";%	c #59554E",
">%	c #514A42",
",%	c #4F4840",
"'%	c #4A443F",
")%	c #3A3938",
"!%	c #49443E",
"~%	c #4D463F",
"{%	c #3B3936",
"]%	c #5E5E5E",
"^%	c #393939",
"/%	c #3F3F3F",
"(%	c #555144",
"_%	c #C8BFB8",
":%	c #C8F0FF",
"<%	c #6AC9FA",
"[%	c #8ECAE2",
"}%	c #D1D6D7",
"|%	c #9D9D9A",
"1%	c #4D493E",
"2%	c #3C3C3C",
"3%	c #454545",
"4%	c #504B3A",
"5%	c #A3A29C",
"6%	c #F7F4F4",
"7%	c #F4FAFD",
"8%	c #D9F4FF",
"9%	c #F0FDFF",
"0%	c #F2EEEB",
"a%	c #ABA9A3",
"b%	c #474231",
"c%	c #5B5849",
"d%	c #CCCDCB",
"e%	c #FEFEFE",
"f%	c #C3C2BD",
"g%	c #605C51",
"h%	c #4D493B",
"i%	c #B5B4B1",
"j%	c #FAFAFA",
"k%	c #BFBEBC",
"l%	c #464134",
"m%	c #524E3E",
"n%	c #BBBAB6",
"o%	c #FCFCFD",
"p%	c #B8B7B2",
"q%	c #5A5647",
"r%	c #585447",
"s%	c #939289",
"t%	c #EAEAE8",
"u%	c #F6F7F9",
"v%	c #A09F97",
"w%	c #4F4B3A",
"x%	c #747165",
"y%	c #B0AEA9",
"z%	c #C5C5C4",
"A%	c #A6A49E",
"B%	c #87847C",
"C%	c #524F3F",
"D%	c #494432",
"E%	c #4D4937",
"                                                                                            ",
"                                                                                            ",
"                                                                                            ",
"                                                                                            ",
"                                                                                            ",
"                                                                                            ",
"                                                                                            ",
"                                                                                            ",
"                                                                                            ",
"                                                                                            ",
"                                                                                            ",
"                                                                                            ",
"                                                                                            ",
"                                                                                            ",
"                                                                                            ",
"                                        . + @ # $                 % & * &                   ",
"                    = - ; > , ' ) !   ~ # { ] ^ / (   _ : < [ } | 1 2 3 4 5                 ",
"      6 7 8 9 0 a b c d e f g h i j k l m n o p q r s t u v w x y z A B C D E F G H         ",
"    I J K L M N O P Q R S T U V W X Y Z `  ...+.@.#.$.%.&.*.=.A -.;.>.3 ,.=.'.).!.~.{.      ",
"    ].^./.(._.:.<.[.}.|.1.2.3.4.5.6.7.8.9.0.a.b.c.d.e.f.g.h.i.j.k.l.m.n.o.p.q.r.s.t.u.      ",
"v.w.x.y.z.A.B.C.D.E.F.G.H.I.J.K.L.M.N.O.P.Q.R.S.T.U.V.W.X.Y.Z.`. +.+l.z =.n.n.++-.4 @+#+$+  ",
"%+] k.&+*+=+-+;+>+,+'+)+!+~+4.{+]+^+/+(+_+:+<+[+}+|+|+1+2+3+4+5+6+7+8+9+0+z l.>.a+b+c+d+e+  ",
"f+g+h+i+j+k+l+m+n+)+4.o+p+q+r+s+t+u+v+w+x+y+z+A+A+A+A+A+|+|+B+C+D+E+F+G+H+I+J+K+a+L+M+N+O+  ",
"P+Q+R+S+T+  U+V+W+X+Y+4.Z+`+ @.@+@@@#@$@%@&@*@A+A+A+A+A+A+A+A+=@-@;@>@,@'@)@z !@!@b+M+~@{@  ",
"]@^@/@(@_@      :@<@[@}@|@1@2@3@4@5@6@7@8@9@A+A+A+A+A+A+B+0@B+A+A+-@a@b@c@=.a+d@b+C e@H+f@  ",
"g@h@i@j@k@        l@m@n@o@p@q@r@s@:.t@u@v@w@A+|+x@y@z@B+A@B@C@D@A+E@F@G@H@4 m.n.;.k.L+a+I@  ",
"%+J@K@L@M@            N@O@P@Q@R@S@T@U@V@W@w@A+X@Y@Z@`@ #.#+#@###A+$#%#&#q.z n.n.k.o.*#=#-#  ",
";#>#,#'#                )#!#~#{#]#:.^#/#(#_#:#D@<#[#}#|#1#2#3#4#A+5#6#7#8#l.H+I+++C B a+-#  ",
"  9#0#a#                    b#c#d#e#f#g#h#i#j#k#=@l#m#n#o#p#q#A+A+r#s#t#8#K+y u#=#A v#a+*   ",
"  w#x#@                       y#z#A#B#u@C#D#E#F#E@|+G#H#I#A+-@A+A+J#K#L#M#z z N#a+3 O#a+*   ",
"  P#Q#R#                        S#T#U#V@v@V#W#X#a@A+=@Y#Z#B+A+|+D@`# $.$I+n.n.m.+$+$*#n.*   ",
"  @$#$$$                        k@%$&$V@v@*$=$X#a@A+A+=@|+A+A+|+4#-$;$r.>.z >$H+o.b+K+,$    ",
"  '$)$!$                        ~${$]$^$/$($_$:$<$A+E@[$}$w@=@|+4#-$;$r.>.N#2 l.m.L+M+|$    ",
"    $$                            1$2$3$4$5$6$7$D@8$9$0$a$z@-@|+D@b$c$r.>.m.++o.n.L+2 7#    ",
"                                  %+d$e$f$g$h$D@:#b@i$j$k$l$m$n$o$p$q$r$>.=#C s$++o.r.      ",
"                                  t$u$v$w$x$y$z$A$B$C$D$E$F$G$H$I$J$K$=#,.m.m.b+L$M$7#      ",
"                                  N$O$P$Q$R$S$T$U$V$W$X$Y$Z$`$ %.%+%@%;.L+3 o.l.>.>$        ",
"                                    #%$%%%&%*%=%-%;%>%,%'%)%!%~%{%+%]%l.z I+p.x ^%/%        ",
"                                    (%_%:.:%<%[%}%|%1%            * 2%/%/%/%3%              ",
"                                    4%5%6%7%8%9%0%a%b%                                      ",
"                                      c%d%T@:.e%f%g%                                        ",
"                                      h%i%:.:.j%k%l%                                        ",
"                                      m%n%:.:.o%p%q%                                        ",
"                                      r%s%t%:.u%v%w%                                        ",
"                                        x%y%z%A%B%                                          ",
"                                          C%D%E%                                            "};
