/* XPM */
static char * playerTwo11_xpm[] = {
"46 46 572 2",
"  	c None",
". 	c #575341",
"+ 	c #3C3723",
"@ 	c #484433",
"# 	c #474338",
"$ 	c #4E4938",
"% 	c #D0CEC9",
"& 	c #605C4C",
"* 	c #1A1400",
"= 	c #464231",
"- 	c #7C7B77",
"; 	c #848483",
"> 	c #5D5C56",
", 	c #7F7C74",
"' 	c #F7F7FA",
") 	c #F5F5F4",
"! 	c #827F72",
"~ 	c #403C29",
"{ 	c #787671",
"] 	c #959596",
"^ 	c #89898A",
"/ 	c #55534C",
"( 	c #3F3B27",
"_ 	c #87856C",
": 	c #F2F2F2",
"< 	c #DBDAD6",
"[ 	c #656152",
"} 	c #1C1500",
"| 	c #4A4635",
"1 	c #74726B",
"2 	c #868688",
"3 	c #6A6966",
"4 	c #4C4941",
"5 	c #231D4C",
"6 	c #373061",
"7 	c #F1F1E1",
"8 	c #FFFFFF",
"9 	c #EBEAE6",
"0 	c #767264",
"a 	c #403C2A",
"b 	c #7D7C78",
"c 	c #939394",
"d 	c #686868",
"e 	c #454136",
"f 	c #3F3A04",
"g 	c #1E1688",
"h 	c #453FFF",
"i 	c #F2F1FF",
"j 	c #F7F5FF",
"k 	c #F8F8FF",
"l 	c #E1E0D9",
"m 	c #828069",
"n 	c #A9A79F",
"o 	c #413C29",
"p 	c #6A6860",
"q 	c #9C9D9F",
"r 	c #88898A",
"s 	c #686766",
"t 	c #48463A",
"u 	c #342E17",
"v 	c #211A92",
"w 	c #0000F7",
"x 	c #353AFF",
"y 	c #4B46FF",
"z 	c #BCB8FF",
"A 	c #BEB8FF",
"B 	c #E8E5FF",
"C 	c #FFFFFC",
"D 	c #AEAC93",
"E 	c #3B371F",
"F 	c #332E17",
"G 	c #61605A",
"H 	c #6A6961",
"I 	c #5E5C57",
"J 	c #464235",
"K 	c #38331E",
"L 	c #302854",
"M 	c #1513DD",
"N 	c #0C2DFF",
"O 	c #0010FF",
"P 	c #070BFF",
"Q 	c #1B29FF",
"R 	c #7C75FF",
"S 	c #BDB7FA",
"T 	c #A29F91",
"U 	c #4E4821",
"V 	c #3D3927",
"W 	c #4A473B",
"X 	c #5C5B58",
"Y 	c #423D2B",
"Z 	c #3F3903",
"` 	c #1715C0",
" .	c #0C2EFF",
"..	c #123EFF",
"+.	c #0F34FF",
"@.	c #0528FF",
"#.	c #000CFF",
"$.	c #1834FF",
"%.	c #312DFF",
"&.	c #7170FE",
"*.	c #1713A0",
"=.	c #363028",
"-.	c #35301B",
";.	c #56554F",
">.	c #54534B",
",.	c #444030",
"'.	c #1A1AC1",
").	c #0E31FF",
"!.	c #1037FF",
"~.	c #113AFF",
"{.	c #1038FF",
"].	c #0B31FF",
"^.	c #0323FF",
"/.	c #1336FF",
"(.	c #0612F6",
"_.	c #261D87",
":.	c #3B361A",
"<.	c #484538",
"[.	c #626260",
"}.	c #3E3A28",
"|.	c #21169C",
"1.	c #0E1EFE",
"2.	c #1036FF",
"3.	c #1138FF",
"4.	c #0E2EFF",
"5.	c #0705FF",
"6.	c #1C1487",
"7.	c #3F3B29",
"8.	c #433F2F",
"9.	c #332A42",
"0.	c #111CEB",
"a.	c #0F38FF",
"b.	c #103CFE",
"c.	c #0F35FF",
"d.	c #1039FF",
"e.	c #0F2DFE",
"f.	c #1006FA",
"g.	c #403C63",
"h.	c #545144",
"i.	c #545141",
"j.	c #545042",
"k.	c #37332A",
"l.	c #0D12F4",
"m.	c #0E19FF",
"n.	c #0E1FED",
"o.	c #0D1BF4",
"p.	c #0D1FFF",
"q.	c #103BFF",
"r.	c #0B1FFF",
"s.	c #1310CA",
"t.	c #352C7C",
"u.	c #62603F",
"v.	c #74736B",
"w.	c #4B4738",
"x.	c #6E6C65",
"y.	c #423E2C",
"z.	c #29230B",
"A.	c #2B2568",
"B.	c #1617D4",
"C.	c #0A10E7",
"D.	c #21139A",
"E.	c #3B3259",
"F.	c #35314B",
"G.	c #0D01B1",
"H.	c #0B11FF",
"I.	c #0F06EF",
"J.	c #2F2945",
"K.	c #5A5748",
"L.	c #4F4B35",
"M.	c #73726C",
"N.	c #68665D",
"O.	c #6C6A62",
"P.	c #888886",
"Q.	c #575447",
"R.	c #362F32",
"S.	c #1E14AF",
"T.	c #0900F3",
"U.	c #524E5A",
"V.	c #C7C7AC",
"W.	c #BDBCAF",
"X.	c #3E375D",
"Y.	c #110992",
"Z.	c #28206C",
"`.	c #454213",
" +	c #524F42",
".+	c #6F6E67",
"++	c #4A4636",
"@+	c #6F6D66",
"#+	c #504D3E",
"$+	c #6E6D66",
"%+	c #413D2B",
"&+	c #2B2465",
"*+	c #0C03F9",
"=+	c #615D56",
"-+	c #F1F1F1",
";+	c #FBFBF7",
">+	c #A8A782",
",+	c #B1B0B5",
"'+	c #504D44",
")+	c #5F5E51",
"!+	c #4C493D",
"~+	c #777671",
"{+	c #5D5A4F",
"]+	c #5A574C",
"^+	c #82817E",
"/+	c #615E53",
"(+	c #73726B",
"_+	c #282222",
":+	c #3B364E",
"<+	c #858262",
"[+	c #E9EAEC",
"}+	c #EADAD0",
"|+	c #504E43",
"1+	c #8A8584",
"2+	c #725F4D",
"3+	c #595243",
"4+	c #7F7E7B",
"5+	c #5D5A50",
"6+	c #5A574B",
"7+	c #585548",
"8+	c #625F4E",
"9+	c #75736D",
"0+	c #352F1B",
"a+	c #9D9B91",
"b+	c #E3E3E2",
"c+	c #FFFDFD",
"d+	c #7FD8FF",
"e+	c #4AB6E6",
"f+	c #42809A",
"g+	c #338FBB",
"h+	c #549CBC",
"i+	c #44402E",
"j+	c #6F6E66",
"k+	c #575531",
"l+	c #332D79",
"m+	c #231A84",
"n+	c #3A341F",
"o+	c #86847A",
"p+	c #E3E3E5",
"q+	c #F2FCFF",
"r+	c #99E0FE",
"s+	c #00A2F6",
"t+	c #048AC8",
"u+	c #008ACE",
"v+	c #018ACC",
"w+	c #23ABEE",
"x+	c #7F99A6",
"y+	c #6F675B",
"z+	c #5B5950",
"A+	c #514F38",
"B+	c #555240",
"C+	c #39335B",
"D+	c #140CF0",
"E+	c #0A0DFF",
"F+	c #221797",
"G+	c #393225",
"H+	c #1A1300",
"I+	c #79776D",
"J+	c #F1ECE8",
"K+	c #7DDBFF",
"L+	c #12A4E8",
"M+	c #0080C3",
"N+	c #0072A5",
"O+	c #0079B0",
"P+	c #007AB1",
"Q+	c #0095E0",
"R+	c #2E95C4",
"S+	c #73675E",
"T+	c #666566",
"U+	c #4B481B",
"V+	c #251A62",
"W+	c #140ECE",
"X+	c #0D22FF",
"Y+	c #0E2FFF",
"Z+	c #0209FD",
"`+	c #2E2C98",
" @	c #474222",
".@	c #5C5849",
"+@	c #CBC9C7",
"@@	c #FBFDFC",
"#@	c #88DDFF",
"$@	c #03A3F2",
"%@	c #007EB8",
"&@	c #0079AF",
"*@	c #007AB2",
"=@	c #0075AA",
"-@	c #0085C6",
";@	c #258EBD",
">@	c #796858",
",@	c #545349",
"'@	c #221B3F",
")@	c #1008F1",
"!@	c #0E25FF",
"~@	c #103CFF",
"{@	c #0604FF",
"]@	c #5F57F7",
"^@	c #928E8C",
"/@	c #423D1D",
"(@	c #3D3825",
"_@	c #BBBAB7",
":@	c #C6F2FF",
"<@	c #1EA9E7",
"[@	c #007CBC",
"}@	c #0075A9",
"|@	c #0076AB",
"1@	c #0083C4",
"2@	c #74B9D9",
"3@	c #CACDCC",
"4@	c #888488",
"5@	c #1F169F",
"6@	c #080EFF",
"7@	c #0F29FF",
"8@	c #413BFF",
"9@	c #DAD9FF",
"0@	c #B0AEA5",
"a@	c #433F2B",
"b@	c #342F1A",
"c@	c #B3B2AE",
"d@	c #FFFEFB",
"e@	c #E3F9FF",
"f@	c #26ABEC",
"g@	c #007BB5",
"h@	c #0078AD",
"i@	c #007EBD",
"j@	c #13A2EA",
"k@	c #84DEFF",
"l@	c #C0BEAB",
"m@	c #3F3959",
"n@	c #1104C7",
"o@	c #0D1DFF",
"p@	c #1035FF",
"q@	c #0C29FF",
"r@	c #0000FF",
"s@	c #857FFF",
"t@	c #FFFFF8",
"u@	c #969489",
"v@	c #514E3E",
"w@	c #9B968D",
"x@	c #F7F0EF",
"y@	c #CDF5FF",
"z@	c #33BBF8",
"A@	c #008CD5",
"B@	c #0077AC",
"C@	c #007FC0",
"D@	c #02A4EE",
"E@	c #98DFFF",
"F@	c #F0FCFF",
"G@	c #ADAB89",
"H@	c #332E43",
"I@	c #0E1CFF",
"J@	c #1135FF",
"K@	c #3A30FF",
"L@	c #868276",
"M@	c #0F0900",
"N@	c #B4B4B2",
"O@	c #FFF2EB",
"P@	c #C3F1FF",
"Q@	c #33BCFD",
"R@	c #0089CE",
"S@	c #0079B2",
"T@	c #007DBA",
"U@	c #10A4EF",
"V@	c #7EDAFF",
"W@	c #FFFEFF",
"X@	c #EEEEEE",
"Y@	c #F5F6FA",
"Z@	c #C4C49E",
"`@	c #473D9A",
" #	c #0D21EA",
".#	c #0A2BFF",
"+#	c #1D17FF",
"@#	c #E6E4FF",
"##	c #FBFBFB",
"$#	c #423B2B",
"%#	c #B6B2AD",
"&#	c #D6F6FF",
"*#	c #20B7F9",
"=#	c #0088CE",
"-#	c #008DDA",
";#	c #32A7DD",
">#	c #02A5ED",
",#	c #7FD9FF",
"'#	c #FBFFFF",
")#	c #FFFFFE",
"!#	c #DFE0DB",
"~#	c #95948B",
"{#	c #4A463B",
"]#	c #56516C",
"^#	c #1D116E",
"/#	c #0D1CF9",
"(#	c #0F2AFF",
"_#	c #1417FF",
":#	c #A6A3FF",
"<#	c #D1D0CC",
"[#	c #5F5B4B",
"}#	c #181200",
"|#	c #2D2812",
"1#	c #807E75",
"2#	c #D8D3CD",
"3#	c #5CCFFF",
"4#	c #00A0EF",
"5#	c #007DB6",
"6#	c #0076A9",
"7#	c #008ACA",
"8#	c #1BB8FF",
"9#	c #DDFAFF",
"0#	c #F1FDFF",
"a#	c #FFFAF9",
"b#	c #F2F0EE",
"c#	c #F4F5F8",
"d#	c #8D8B77",
"e#	c #3C375E",
"f#	c #0E05B0",
"g#	c #1004F0",
"h#	c #0E14F9",
"i#	c #0D2BFF",
"j#	c #103AFF",
"k#	c #0309FF",
"l#	c #2A23FF",
"m#	c #E7E6FF",
"n#	c #F0F0EF",
"o#	c #838073",
"p#	c #656153",
"q#	c #E7E7EA",
"r#	c #FFFFFB",
"s#	c #6FD3FF",
"t#	c #0080BC",
"u#	c #0073A6",
"v#	c #008BD6",
"w#	c #45C0F5",
"x#	c #B8EEFF",
"y#	c #FFFFFA",
"z#	c #FBFCFD",
"A#	c #C7C4C1",
"B#	c #77756B",
"C#	c #736F64",
"D#	c #36311E",
"E#	c #332E2D",
"F#	c #231C92",
"G#	c #1D14B5",
"H#	c #0F0FFD",
"I#	c #131DE2",
"J#	c #121BEB",
"K#	c #0914FF",
"L#	c #0D2CFF",
"M#	c #0D20FF",
"N#	c #3E34FF",
"O#	c #E8E7F7",
"P#	c #E7E7D3",
"Q#	c #ECECEE",
"R#	c #686354",
"S#	c #161000",
"T#	c #6F6C5F",
"U#	c #DBDBDB",
"V#	c #A0E0FF",
"W#	c #009CF7",
"X#	c #039DE7",
"Y#	c #00A2F4",
"Z#	c #16B5FF",
"`#	c #F2F1F0",
" $	c #B7B4AF",
".$	c #B5B5B2",
"+$	c #5D5A4B",
"@$	c #3F3A02",
"#$	c #2C2568",
"$$	c #2B1E6D",
"%$	c #3B3519",
"&$	c #211A94",
"*$	c #1A1CC2",
"=$	c #1916C6",
"-$	c #1616BD",
";$	c #0000F8",
">$	c #2F2BFF",
",$	c #605B7C",
"'$	c #817F6D",
")$	c #EFF0F3",
"!$	c #E7E6E4",
"~$	c #4E4A37",
"{$	c #494432",
"]$	c #B9B9B7",
"^$	c #F5F6F6",
"/$	c #9CDFFF",
"($	c #63CEFF",
"_$	c #85DBFF",
":$	c #98E0FF",
"<$	c #B2EAFF",
"[$	c #FDF3EB",
"}$	c #A4A19B",
"|$	c #3B3724",
"1$	c #28230D",
"2$	c #362E32",
"3$	c #3E3708",
"4$	c #342C43",
"5$	c #1C15B7",
"6$	c #221B7C",
"7$	c #221C3A",
"8$	c #332D18",
"9$	c #87857E",
"0$	c #5D5949",
"a$	c #696559",
"b$	c #ABAAA5",
"c$	c #F2F3F5",
"d$	c #F3FCFF",
"e$	c #FFFEFC",
"f$	c #D6DBDD",
"g$	c #D1CBC6",
"h$	c #9B988F",
"i$	c #4B4736",
"j$	c #3B3713",
"k$	c #48452F",
"l$	c #61615F",
"m$	c #605F59",
"n$	c #393525",
"o$	c #767368",
"p$	c #F4F3F3",
"q$	c #EAEBEB",
"r$	c #D7D7D6",
"s$	c #7E7B71",
"t$	c #241F08",
"u$	c #342F17",
"v$	c #4A473C",
"w$	c #666765",
"x$	c #88898B",
"y$	c #7B7B77",
"z$	c #716E61",
"A$	c #F9F9FB",
"B$	c #F1F2F3",
"C$	c #B3B2AF",
"D$	c #6B685B",
"E$	c #595546",
"F$	c #3F3A27",
"G$	c #38331F",
"H$	c #454133",
"I$	c #696869",
"J$	c #868687",
"K$	c #969798",
"L$	c #7F7F7B",
"M$	c #5F5C4E",
"N$	c #BFBFBE",
"O$	c #EDEDEF",
"P$	c #EBEBEC",
"Q$	c #B0AEAB",
"R$	c #0E0700",
"S$	c #49463B",
"T$	c #696866",
"U$	c #868689",
"V$	c #929394",
"W$	c #787873",
"X$	c #45412F",
"Y$	c #1E1800",
"Z$	c #474331",
"`$	c #817E73",
" %	c #9E9C96",
".%	c #4B4735",
"+%	c #56544D",
"@%	c #858585",
"#%	c #969699",
"$%	c #72706A",
"%%	c #454130",
"&%	c #6F6D67",
"*%	c #9A9B9D",
"=%	c #7D7C77",
"-%	c #413C2A",
";%	c #5D5D5B",
">%	c #524F44",
",%	c #69665E",
"'%	c #342F19",
")%	c #3D3726",
"!%	c #61605E",
"~%	c #4B483C",
"{%	c #4F4D43",
"]%	c #35301A",
"                                                                                            ",
"                                                                                            ",
"                                                                                            ",
"                                                                                            ",
"                                                                                            ",
"                                  .                                                         ",
"                          + @ # $ % & *                                                     ",
"                        = - ; > , ' ) !                                                     ",
"                      ~ { ] ^ / ( _ : < [ }                                                 ",
"                    | 1 ] 2 3 4 5 6 7 8 9 0                                                 ",
"                  a b c 2 d e f g h i j k l m n o                                           ",
"                  p q r s t u   v w x y z A B C D E                                         ",
"                F G H I J K     L M N O P Q R R S T U                                       ",
"              V W X Y           Z `  ...+.@.#.$.%.&.*.=.                                    ",
"            -.;.>.,.              '.).!.!.~.{.].^./.(._.:.                                  ",
"            <.[.}.                |.1.{.2.2.2.3.2.!.4.5.6.                                  ",
"            7.8.                  9.0.a.b.c.{.d.{.2.e.f.g.h.i.j.                            ",
"                                  k.l.2.m.n.o.p.q.r.s.t.u.v.w.x.y.z.                        ",
"                                  A.B.C.D.E.F.G.H.I.J.K.L.M.N.O.P.Q.                        ",
"                                  R.S.T.U.V.W.X.Y.Z.`. +.+++@+= #+$+%+                      ",
"                                    &+*+=+-+;+>+,+'+)+!+~+{+]+^+/+(+%+                      ",
"                                    _+:+<+[+8 8 }+|+1+2+3+4+5+6+7+8+9+                      ",
"                                    0+a+b+c+8 d+e+f+g+h+3+i+j+Q.4+k+l+m+n+                  ",
"                                    o+p+8 q+r+s+t+u+v+w+x+y+z+A+B+C+D+E+F+G+                ",
"                                  H+I+J+8 K+L+M+N+O+P+Q+R+S+T+U+V+W+X+Y+Z+`+ @              ",
"                                  .@+@@@#@$@%@&@O+*@=@-@;@>@,@'@)@!@d.~@{@]@^@/@            ",
"                                (@_@8 :@<@[@}@P+P+P+|@1@2@3@4@5@6@~@q.d.7@8@9@0@a@          ",
"                                b@c@d@e@f@g@&@P+O+h@i@j@k@8 l@m@n@o@p@{.q@r@s@t@u@          ",
"                              v@w@x@y@z@A@B@P+P+=@C@D@E@F@8 8 G@H@I@{.2.J@P K@i L@M@        ",
"                            (@N@O@P@Q@R@S@}@*@S@T@U@V@8 W@X@Y@Z@`@ #d.2.~..#+#@###!         ",
"                            $#%#&#*#=#|@&@=@-#;#>#,#'#)#!#~#{#]#^#/#!.2.2.(#_#:#)#<#[#}#    ",
"                          |#1#2#3#4#5#6#S@7#8#9#0#a#b#c#d#e#f#g#h#i#a.{.j#q.k#l#m#8 n#o#    ",
"                          p#q#r#s#$@t#u#v#w#x#y#z#A#B#C#D#E#F#G#H#I#J#K#L#d.M#N#O#P#Q#< R#  ",
"                        S#T#U#8 V#W#X#Y#Z#e@`# $.$+$          @$#$$$%$&$*$=$-$;$>$,$'$)$!$~$",
"                        {$]$^$8 /$($_$:$<$[$}$|$  1$                  2$3$  4$5$6$7$8$9$0$  ",
"                      a$b$c$8 8 d$8 e$f$g$h$i$                                  j$k$l$m$n$  ",
"                      o$-+8 8 8 p$q$r$s$t$                                    u$v$w$x$y$y.  ",
"                      z$A$8 8 B$C$D$E$F$                                    G$H$I$J$K$L$Y   ",
"                      M$N$O$P$Q$E$R$                                        S$T$U$V$W$X$    ",
"                      Y$Z$`$ %.%                                            +%@%#%$%%%      ",
"                                                                          ,.&%*%=%-%        ",
"                                                                        }.;%>%,%++          ",
"                                                                      ,.>.;.'%              ",
"                                                                    )%!%~%V                 ",
"                                                                    8.{%]%                  ",
"                                                                                            "};
