/* XPM */
static char * playerTwo02_xpm[] = {
"46 46 512 2",
"  	c None",
". 	c #4E4A39",
"+ 	c #474331",
"@ 	c #2D2812",
"# 	c #312C17",
"$ 	c #A1A09A",
"% 	c #CECDCB",
"& 	c #D7D8D9",
"* 	c #A2A19C",
"= 	c #514D3C",
"- 	c #545040",
"; 	c #DDDDDF",
"> 	c #FFFFFF",
", 	c #F5F5F6",
"' 	c #5D594A",
") 	c #221C05",
"! 	c #93918A",
"~ 	c #F0F1F2",
"{ 	c #FAFAFB",
"] 	c #AAA9A5",
"^ 	c #2F2914",
"/ 	c #342F18",
"( 	c #4D4A3F",
"_ 	c #413D2C",
": 	c #494433",
"< 	c #737064",
"[ 	c #CCCCCC",
"} 	c #FDFDFD",
"| 	c #E1E2E3",
"1 	c #636052",
"2 	c #393420",
"3 	c #666667",
"4 	c #3E3928",
"5 	c #29230D",
"6 	c #86847B",
"7 	c #F5F6F9",
"8 	c #FAFAFA",
"9 	c #BBBBBA",
"0 	c #38331E",
"a 	c #49463A",
"b 	c #5B5A55",
"c 	c #36301A",
"d 	c #3A3521",
"e 	c #BFBFBE",
"f 	c #FFFDFB",
"g 	c #A3E2FF",
"h 	c #FBFEFF",
"i 	c #FBFCFD",
"j 	c #9B9992",
"k 	c #231D06",
"l 	c #35301A",
"m 	c #5E5E5B",
"n 	c #454233",
"o 	c #28220C",
"p 	c #78766B",
"q 	c #EDE5E2",
"r 	c #D2EAF5",
"s 	c #B5EAFF",
"t 	c #1BB7FF",
"u 	c #00ABFF",
"v 	c #E1E1E4",
"w 	c #484433",
"x 	c #474334",
"y 	c #5F5F5E",
"z 	c #35301B",
"A 	c #B8B7B5",
"B 	c #FFFFFA",
"C 	c #35C2FF",
"D 	c #00ACFF",
"E 	c #0095DD",
"F 	c #00A0F3",
"G 	c #6ED3FF",
"H 	c #FFFCF5",
"I 	c #A6A5A1",
"J 	c #2F2A15",
"K 	c #322D17",
"L 	c #777570",
"M 	c #97989A",
"N 	c #565347",
"O 	c #312C14",
"P 	c #545141",
"Q 	c #E3E0E0",
"R 	c #E4F9FF",
"S 	c #00A8F9",
"T 	c #007AB1",
"U 	c #0078AE",
"V 	c #019FE8",
"W 	c #07B2FF",
"X 	c #D8E9F2",
"Y 	c #6C685B",
"Z 	c #413C2A",
"` 	c #8F8F8F",
" .	c #8C8C8C",
"..	c #56544D",
"+.	c #302B16",
"@.	c #9E9D97",
"#.	c #C4C3C0",
"$.	c #FFFAF5",
"%.	c #74D9FF",
"&.	c #0091DA",
"*.	c #0076AB",
"=.	c #0078AD",
"-.	c #0080BC",
";.	c #1AB9FF",
">.	c #C9C9C9",
",.	c #3E3926",
"'.	c #302A14",
").	c #636056",
"!.	c #949496",
"~.	c #808081",
"{.	c #575651",
"].	c #36301B",
"^.	c #504C3B",
"/.	c #DBDCDD",
"(.	c #FEFFFF",
"_.	c #0BB3FF",
":.	c #007FB9",
"<.	c #0079AF",
"[.	c #0096E3",
"}.	c #92E2FF",
"|.	c #FFF5F0",
"1.	c #8D8B83",
"2.	c #2A250F",
"3.	c #38331F",
"4.	c #878786",
"5.	c #8F8F90",
"6.	c #6F6F71",
"7.	c #433F31",
"8.	c #2D2711",
"9.	c #666255",
"0.	c #929189",
"a.	c #FAF2F0",
"b.	c #F0FDFF",
"c.	c #A9E7FF",
"d.	c #009CED",
"e.	c #0076AC",
"f.	c #0079B0",
"g.	c #007CB5",
"h.	c #01AEFE",
"i.	c #F6FDFF",
"j.	c #D9D7D8",
"k.	c #535042",
"l.	c #939495",
"m.	c #868687",
"n.	c #5E5D5B",
"o.	c #332C40",
"p.	c #3D380D",
"q.	c #322D43",
"r.	c #332E2E",
"s.	c #484332",
"t.	c #DCDDDF",
"u.	c #FFFFFE",
"v.	c #0CB5FF",
"w.	c #0189C7",
"x.	c #007FBB",
"y.	c #008ED5",
"z.	c #5DCFFF",
"A.	c #FFFFFC",
"B.	c #B2B1AD",
"C.	c #262009",
"D.	c #342F1A",
"E.	c #7E7E7A",
"F.	c #959596",
"G.	c #767778",
"H.	c #4A483E",
"I.	c #36310F",
"J.	c #403C00",
"K.	c #393322",
"L.	c #2C2464",
"M.	c #3A351C",
"N.	c #21169A",
"O.	c #110FF3",
"P.	c #140BE1",
"Q.	c #0F06FF",
"R.	c #1C1572",
"S.	c #86846F",
"T.	c #EBECED",
"U.	c #BCEBFF",
"V.	c #009FF0",
"W.	c #009CE8",
"X.	c #DDF6FF",
"Y.	c #ECEDEF",
"Z.	c #696659",
"`.	c #4F4C3E",
" +	c #666666",
".+	c #3D381E",
"++	c #353032",
"@+	c #1B14B9",
"#+	c #2A226D",
"$+	c #1D13B0",
"%+	c #131AE7",
"&+	c #0809FF",
"*+	c #1015F5",
"=+	c #0C25FF",
"-+	c #0F32FF",
";+	c #0F05F1",
">+	c #2018AD",
",+	c #37321F",
"'+	c #BCBCBA",
")+	c #46C8FF",
"!+	c #0089CD",
"~+	c #0077AD",
"{+	c #007EBB",
"]+	c #47C7FF",
"^+	c #FFFEFD",
"/+	c #CACACA",
"(+	c #3F3A27",
"_+	c #383423",
":+	c #58564D",
"<+	c #312C15",
"[+	c #251F2E",
"}+	c #0000FF",
"|+	c #0200FF",
"1+	c #1035FF",
"2+	c #1037FF",
"3+	c #103AFF",
"4+	c #103AFE",
"5+	c #0C15FF",
"6+	c #1D116D",
"7+	c #828052",
"8+	c #E0E0E0",
"9+	c #F4F4F4",
"0+	c #E5F7FF",
"a+	c #00A9FB",
"b+	c #0095E2",
"c+	c #88DDFF",
"d+	c #FFFBF6",
"e+	c #8C8A82",
"f+	c #1F1902",
"g+	c #2F2913",
"h+	c #C6C5C4",
"i+	c #B4B4B1",
"j+	c #68654B",
"k+	c #B8B6A9",
"l+	c #CBC9FF",
"m+	c #2B20FF",
"n+	c #101AFF",
"o+	c #103BFF",
"p+	c #1036FF",
"q+	c #1A11B3",
"r+	c #A19F99",
"s+	c #6DD6FF",
"t+	c #0090DC",
"u+	c #007AB0",
"v+	c #007CB4",
"w+	c #00AEFE",
"x+	c #F2FBFF",
"y+	c #CFCFCE",
"z+	c #5E5A49",
"A+	c #FCFCFC",
"B+	c #EEEFF1",
"C+	c #FEFEFE",
"D+	c #4F49FF",
"E+	c #0B1DFF",
"F+	c #1017ED",
"G+	c #2F291E",
"H+	c #625E3B",
"I+	c #BFBDAB",
"J+	c #97CFEB",
"K+	c #008AC9",
"L+	c #0077AC",
"M+	c #008CD3",
"N+	c #59CEFF",
"O+	c #F8F9F9",
"P+	c #BAB9B8",
"Q+	c #352F1A",
"R+	c #36301C",
"S+	c #747062",
"T+	c #D0CFCA",
"U+	c #BAB6FF",
"V+	c #0D21FF",
"W+	c #0D03FF",
"X+	c #0E04C0",
"Y+	c #5D5973",
"Z+	c #A9A7A2",
"`+	c #6A726D",
" @	c #00A0EC",
".@	c #0074A8",
"+@	c #0174A9",
"@@	c #00A3F6",
"#@	c #CEF1FF",
"$@	c #E8E8EA",
"%@	c #7B7860",
"&@	c #2A2433",
"*@	c #3A3519",
"=@	c #433F2F",
"-@	c #534E3D",
";@	c #A7A59C",
">@	c #F8F8F8",
",@	c #E5E4FF",
"'@	c #3D34FF",
")@	c #0800FF",
"!@	c #1025FF",
"~@	c #0B03FF",
"{@	c #27212F",
"]@	c #57564B",
"^@	c #726056",
"/@	c #2E95C5",
"(@	c #00A5F8",
"_@	c #0088C9",
":@	c #0089CC",
"<@	c #15A8EB",
"[@	c #42C3FF",
"}@	c #CBCBCB",
"|@	c #373213",
"1@	c #0B02FF",
"2@	c #322C44",
"3@	c #646464",
"4@	c #231E07",
"5@	c #2E26FF",
"6@	c #0005FF",
"7@	c #1038FF",
"8@	c #1039FF",
"9@	c #0E24FF",
"0@	c #180CC8",
"a@	c #433F1C",
"b@	c #676769",
"c@	c #6E6C63",
"d@	c #60A1C0",
"e@	c #16B1F9",
"f@	c #467A93",
"g@	c #707F7E",
"h@	c #F3E9E4",
"i@	c #F0F0F0",
"j@	c #6B6874",
"k@	c #0E05F6",
"l@	c #160DD6",
"m@	c #2A216E",
"n@	c #36311C",
"o@	c #969489",
"p@	c #EEEDEA",
"q@	c #DAD9FF",
"r@	c #645BFF",
"s@	c #0E05FF",
"t@	c #0C0CFF",
"u@	c #281F5A",
"v@	c #37320F",
"w@	c #5D5B51",
"x@	c #4B4736",
"y@	c #3B3521",
"z@	c #615443",
"A@	c #89817A",
"B@	c #898483",
"C@	c #403C2E",
"D@	c #878465",
"E@	c #DBDAD0",
"F@	c #E8E9EC",
"G@	c #6C6A2D",
"H@	c #170CA0",
"I@	c #0B17FF",
"J@	c #1B1BBB",
"K@	c #3F3B00",
"L@	c #211C05",
"M@	c #7C785C",
"N@	c #8A87C3",
"O@	c #0C1BFF",
"P@	c #0E28FF",
"Q@	c #150AF1",
"R@	c #4D4A37",
"S@	c #575447",
"T@	c #82817F",
"U@	c #878685",
"V@	c #5E5B50",
"W@	c #38321D",
"X@	c #5D5C57",
"Y@	c #514F38",
"Z@	c #2C2668",
"`@	c #0F0694",
" #	c #29232A",
".#	c #4E493E",
"+#	c #251C79",
"@#	c #0E05FE",
"##	c #0A10FF",
"$#	c #3E3927",
"%#	c #616161",
"&#	c #3A350E",
"*#	c #332D3A",
"=#	c #221797",
"-#	c #272096",
";#	c #57553A",
">#	c #524E3F",
",#	c #67655C",
"'#	c #44402F",
")#	c #706F68",
"!#	c #8D8D8D",
"~#	c #454234",
"{#	c #403C1A",
"]#	c #150AD1",
"^#	c #0B11FF",
"/#	c #0C03FF",
"(#	c #1118E6",
"_#	c #0C21FF",
":#	c #0F31FF",
"<#	c #1508D8",
"[#	c #2A2170",
"}#	c #342E1A",
"|#	c #5E5C51",
"1#	c #676661",
"2#	c #332D17",
"3#	c #3E3907",
"4#	c #393421",
"5#	c #7E7D76",
"6#	c #504C3D",
"7#	c #68665D",
"8#	c #8B8B8A",
"9#	c #797874",
"0#	c #4A4636",
"a#	c #585549",
"b#	c #605D4A",
"c#	c #312B43",
"d#	c #0C07FF",
"e#	c #0D2AFF",
"f#	c #1B1ABD",
"g#	c #3F3B01",
"h#	c #3B3623",
"i#	c #646465",
"j#	c #98999B",
"k#	c #484333",
"l#	c #413D2B",
"m#	c #838381",
"n#	c #545143",
"o#	c #848482",
"p#	c #5B593D",
"q#	c #1C11A6",
"r#	c #0D1CFF",
"s#	c #322B42",
"t#	c #342E18",
"u#	c #757577",
"v#	c #919292",
"w#	c #7D7C78",
"x#	c #514E3F",
"y#	c #7A7975",
"z#	c #4B4738",
"A#	c #7F7E79",
"B#	c #545253",
"C#	c #0F06FD",
"D#	c #1139FF",
"E#	c #113DFF",
"F#	c #0F30FF",
"G#	c #150BDA",
"H#	c #292372",
"I#	c #37321D",
"J#	c #5C5C59",
"K#	c #858586",
"L#	c #949495",
"M#	c #565345",
"N#	c #423E2C",
"O#	c #6B6961",
"P#	c #565346",
"Q#	c #48442C",
"R#	c #211B66",
"S#	c #0900FF",
"T#	c #0C19FF",
"U#	c #0F34FF",
"V#	c #0316FF",
"W#	c #0006FF",
"X#	c #0624FF",
"Y#	c #0509FF",
"Z#	c #1921FF",
"`#	c #140BC8",
" $	c #3B360A",
".$	c #423E30",
"+$	c #6E6E6F",
"@$	c #898988",
"#$	c #3D390C",
"$$	c #352F35",
"%$	c #231990",
"&$	c #0000F1",
"*$	c #7271FF",
"=$	c #5649FF",
"-$	c #5651FF",
";$	c #A199FF",
">$	c #5249FF",
",$	c #E4E2FF",
"'$	c #7269FF",
")$	c #B9B6FF",
"!$	c #150CE9",
"~$	c #2E2846",
"{$	c #58564C",
"]$	c #7F7F80",
"^$	c #66635A",
"/$	c #3E3906",
"($	c #39341E",
"_$	c #7B7766",
":$	c #E7E7CD",
"<$	c #FBFBF6",
"[$	c #EDEDDD",
"}$	c #433E1E",
"|$	c #302B14",
"1$	c #4D4B43",
"2$	c #8B8B8B",
"3$	c #969698",
"4$	c #433F2D",
"5$	c #2B2611",
"6$	c #575242",
"7$	c #AAA8A0",
"8$	c #D0CFCB",
"9$	c #D3D4D5",
"0$	c #ACAAA7",
"a$	c #5C5A4F",
"b$	c #5A5954",
"c$	c #4E4A3A",
"d$	c #342E19",
"e$	c #2B2510",
"f$	c #55513F",
"g$	c #ADABA3",
"h$	c #FCFCFB",
"i$	c #4B4634",
"j$	c #241E08",
"k$	c #3D3825",
"l$	c #7D7A6C",
"m$	c #29240E",
"                                                        . + @                               ",
"                                                    # $ % & * =                             ",
"                                                    - ; > > , '                             ",
"                                                  ) ! ~ > > { ] ^                           ",
"          / ( _                                 : < [ } > > | 1                             ",
"          2 3 4                               5 6 7 > > > 8 9 0                             ",
"          a b c                               d e f > g h i j k                             ",
"        l m n                             o p q r s t u > > v .                             ",
"      w x y 0                             z A B C D E F G H I J                             ",
"    K L M N O                             P Q R S T U V W X Y                               ",
"    Z `  ...                          +.@.#.$.%.&.*.=.-.;.> >.,.                            ",
"  '.).!.~.{.].                        ^./.> (._.:.<.*.[.}.|.1.2.                            ",
"  3.4.5.6.7.                      8.9.0.a.b.c.d.e.f.g.h.i.j.^.                              ",
"  k.l.m.n.0               o.p.q.r.s.t.> u.v.w.x.U *.y.z.A.B.C.                              ",
"D.E.F.G.H.I.  J.  K.L.M.N.O.P.Q.R.S.T.> U.V.*.T T f.W.X.> Y.Z.                              ",
"0 `.~. +.+++@+#+$+%+&+*+=+-+;+>+,+'+{ > )+!+~+T T =.{+]+^+/+(+                              ",
"  _+:+<+[+Q.}+|+1+2+3+1+4+5+6+7+8+9+> 0+a+T T T T *.b+c+d+e+f+                              ",
"  g+h+i+j+k+l+m+n+o+p+p+p+p+q+r+> > > s+t+*.T T u+v+w+x+> y+^.                              ",
"  z+A+> B+C+> D+}+E+1+p+p+2+F+G+H+I+> J+K+U T T L+M+N+> O+P+Q+                              ",
"    R+S+T+> > > U+|+p+3+p+2+V+W+X+Y+Z+`+ @.@=.T +@@@#@> $@%@&@*@                      =@3.  ",
"        2.-@;@>@,@'@)@!@2+p+3+p+~@{@]@^@/@(@_@:@<@[@> C+}@|@1@2@J.                  0 3@_   ",
"            4@2 > > 5@6@p+7@8@9@0@a@b@c@ .d@e@f@g@h@> > i@j@k@l@m@                  n m n@  ",
"                o@p@q@r@s@2+3+t@u@v@w@x@y@z@A@B@C@>.D@E@F@G@H@I@J@K@              c b a     ",
"                L@D.M@N@}+O@P@Q@R@ .S@T@U@V@W@X@Y@Z@`@ #.#+#@#p+##o.J.            $#%#2     ",
"                      &#*#=#W+-#;#>#,#$#'#)#!#~#{#]#^#/#(#_#7@8@:#<#[#          }#|#1#2#    ",
"                          3#4#  5#6#7#8#9#0#a#b#c#d#o+p+2+2+p+p+2+e#f#g#      h#i#8#j#k#    ",
"                                l#m#n#2 n#o#x@p#q#r#8@p+p+p+p+p+p+8@##s#J.  t#a u#v#w#D.    ",
"                                n@x#y#8#7#z#A#B#C#p+7@p+7@2+7@D#p+E#F#G#H#  I#J#K#L#M#      ",
"                                    K N#O#P#Q#R#S#T#F#U#V#p+W#X#Y#6@Z#}+`# $.$+$` @$d       ",
"                                        '.    #$$$%$&$*$=$-$;$>$,$'$> )$!$~${$]$L#^$'.      ",
"                                                  /$($_$:$> > <$> > > [$}$|$1$2$3$4$        ",
"                                                        5$6$7$2 S+8$> > 9$0$a$b$c$d$        ",
"                                                                  e$f$g$h$> i$  D.          ",
"                                                                      j$k$l$m$              ",
"                                                                                            ",
"                                                                                            ",
"                                                                                            ",
"                                                                                            ",
"                                                                                            ",
"                                                                                            ",
"                                                                                            ",
"                                                                                            ",
"                                                                                            ",
"                                                                                            ",
"                                                                                            ",
"                                                                                            "};
