/* XPM */
static char * playerTwo06_xpm[] = {
"46 46 620 2",
"  	c None",
". 	c #39341F",
"+ 	c #36311C",
"@ 	c #706C5D",
"# 	c #3C3724",
"$ 	c #474338",
"% 	c #5D5B50",
"& 	c #717069",
"* 	c #59564A",
"= 	c #413D2B",
"- 	c #34301A",
"; 	c #433E2C",
"> 	c #CAC8C3",
", 	c #9A9790",
"' 	c #626058",
") 	c #71716F",
"! 	c #949496",
"~ 	c #90908F",
"{ 	c #7C7A75",
"] 	c #656257",
"^ 	c #4F4B3B",
"/ 	c #35311C",
"( 	c #8D8B7F",
"_ 	c #FFFFFF",
": 	c #B4B3A4",
"< 	c #45412D",
"[ 	c #585650",
"} 	c #7A7979",
"| 	c #868688",
"1 	c #939395",
"2 	c #909091",
"3 	c #8B8B8A",
"4 	c #69675E",
"5 	c #4F4B3C",
"6 	c #46422F",
"7 	c #BEBDB6",
"8 	c #F4F4F4",
"9 	c #706C64",
"0 	c #26213F",
"a 	c #3F3B3D",
"b 	c #4F4C37",
"c 	c #5B5A58",
"d 	c #6F6F6F",
"e 	c #818183",
"f 	c #929395",
"g 	c #868684",
"h 	c #5C5A52",
"i 	c #35301A",
"j 	c #5E5A4A",
"k 	c #E0DFDC",
"l 	c #FFFFF7",
"m 	c #9894B9",
"n 	c #251DB1",
"o 	c #251D57",
"p 	c #3F3A00",
"q 	c #393421",
"r 	c #474438",
"s 	c #535047",
"t 	c #5E5C57",
"u 	c #59574A",
"v 	c #5D5C59",
"w 	c #504E45",
"x 	c #4E4C42",
"y 	c #413E2E",
"z 	c #332D1A",
"A 	c #A3A096",
"B 	c #C6C5FF",
"C 	c #1715FF",
"D 	c #201994",
"E 	c #3C3725",
"F 	c #312A12",
"G 	c #423D2C",
"H 	c #494638",
"I 	c #515047",
"J 	c #605F5D",
"K 	c #464335",
"L 	c #666348",
"M 	c #DFDDD6",
"N 	c #EEECFF",
"O 	c #807AFF",
"P 	c #2B31FF",
"Q 	c #090FF9",
"R 	c #241D8F",
"S 	c #38331E",
"T 	c #4A473A",
"U 	c #403B2A",
"V 	c #25200E",
"W 	c #A5A399",
"X 	c #CDCBC2",
"Y 	c #D2CDFC",
"Z 	c #8E8CFF",
"` 	c #2425FF",
" .	c #021BFF",
"..	c #0C27F8",
"+.	c #1C17A9",
"@.	c #443E00",
"#.	c #595638",
"$.	c #D1CFC1",
"%.	c #D0CBFF",
"&.	c #817DFF",
"*.	c #071AFF",
"=.	c #041DFF",
"-.	c #123EFF",
";.	c #0D32FF",
">.	c #161CD1",
",.	c #312C4F",
"'.	c #868367",
").	c #BDB7F8",
"!.	c #5458FF",
"~.	c #171EFF",
"{.	c #0221FF",
"].	c #0E37FF",
"^.	c #1038FF",
"/.	c #0E33FF",
"(.	c #141CDE",
"_.	c #271982",
":.	c #3E3823",
"<.	c #7772B0",
"[.	c #5852FF",
"}.	c #1125FF",
"|.	c #092DFF",
"1.	c #113AFF",
"2.	c #1139FF",
"3.	c #1036FF",
"4.	c #111CED",
"5.	c #322A45",
"6.	c #262056",
"7.	c #171DE2",
"8.	c #1A3AFF",
"9.	c #0326FF",
"0.	c #0F36FF",
"a.	c #103DFE",
"b.	c #0F3BFF",
"c.	c #0C1FFF",
"d.	c #25237E",
"e.	c #3F3A0E",
"f.	c #271D85",
"g.	c #091BFB",
"h.	c #0E35FF",
"i.	c #1137FF",
"j.	c #103AFF",
"k.	c #0D2FFF",
"l.	c #0C22FF",
"m.	c #0F22FE",
"n.	c #0D22F7",
"o.	c #1819CA",
"p.	c #2E275B",
"q.	c #2B2444",
"r.	c #0F08D0",
"s.	c #0918FF",
"t.	c #1037FF",
"u.	c #0D21FF",
"v.	c #121BD0",
"w.	c #201F89",
"x.	c #211399",
"y.	c #0B09E4",
"z.	c #1810C8",
"A.	c #322A4A",
"B.	c #3B3642",
"C.	c #322C84",
"D.	c #140CEB",
"E.	c #0F19E8",
"F.	c #0B1EFE",
"G.	c #0E2CFF",
"H.	c #0803D3",
"I.	c #3A345B",
"J.	c #8D8978",
"K.	c #7F7C6E",
"L.	c #251EAB",
"M.	c #0F06D8",
"N.	c #322C41",
"O.	c #4D493B",
"P.	c #545141",
"Q.	c #636155",
"R.	c #646345",
"S.	c #463E5E",
"T.	c #2F286C",
"U.	c #1810B2",
"V.	c #0A05E5",
"W.	c #0C0492",
"X.	c #726E76",
"Y.	c #EFEFE1",
"Z.	c #D7D7CE",
"`.	c #57535B",
" +	c #211A87",
".+	c #282223",
"++	c #5B584B",
"@+	c #575448",
"#+	c #65635B",
"$+	c #696757",
"%+	c #534F39",
"&+	c #524F35",
"*+	c #3C3821",
"=+	c #2F2864",
"-+	c #7673A2",
";+	c #A8A782",
">+	c #FFFFFB",
",+	c #F3F4F8",
"'+	c #A7A58B",
")+	c #868378",
"!+	c #524D3C",
"~+	c #37321D",
"{+	c #6B6961",
"]+	c #6C6B63",
"^+	c #565346",
"/+	c #6F6E67",
"(+	c #504E43",
"_+	c #575640",
":+	c #4F4C3E",
"<+	c #B9AA9B",
"[+	c #FFF6F0",
"}+	c #F9FFFF",
"|+	c #FAF9F9",
"1+	c #EBEBEB",
"2+	c #CACAC9",
"3+	c #7D7B70",
"4+	c #575447",
"5+	c #777670",
"6+	c #484433",
"7+	c #68665E",
"8+	c #534F41",
"9+	c #706F68",
"0+	c #615A4E",
"a+	c #7A6859",
"b+	c #6F7170",
"c+	c #617B80",
"d+	c #68C6F0",
"e+	c #6FD2FF",
"f+	c #CEF2FF",
"g+	c #F2FCFF",
"h+	c #FAF4F2",
"i+	c #9C9991",
"j+	c #555143",
"k+	c #44402E",
"l+	c #605F54",
"m+	c #636157",
"n+	c #66645A",
"o+	c #767570",
"p+	c #5D5B51",
"q+	c #7B7A75",
"r+	c #574F3E",
"s+	c #648996",
"t+	c #338FBC",
"u+	c #2887B4",
"v+	c #0D90CD",
"w+	c #0093E6",
"x+	c #2BAFEE",
"y+	c #56CAFA",
"z+	c #A5E7FF",
"A+	c #E0F9FF",
"B+	c #F8F4F1",
"C+	c #CFCCC8",
"D+	c #9D9B94",
"E+	c #2D2712",
"F+	c #484534",
"G+	c #706F66",
"H+	c #595649",
"I+	c #5A574A",
"J+	c #646258",
"K+	c #4F4D3E",
"L+	c #5A503F",
"M+	c #4DA0C6",
"N+	c #0C98DC",
"O+	c #0084C6",
"P+	c #0079B2",
"Q+	c #0074AC",
"R+	c #007FBD",
"S+	c #0189C9",
"T+	c #059FEC",
"U+	c #47BEF1",
"V+	c #C6F2FF",
"W+	c #C2C1BF",
"X+	c #534E3D",
"Y+	c #484432",
"Z+	c #2C2814",
"`+	c #6F6D5B",
" @	c #63604F",
".@	c #6E6C5C",
"+@	c #66645C",
"@@	c #605F53",
"#@	c #605B4F",
"$@	c #7A7B76",
"%@	c #47A3D0",
"&@	c #0093DD",
"*@	c #0077AC",
"=@	c #0079B0",
"-@	c #0079AE",
";@	c #0075A9",
">@	c #0076B2",
",@	c #0896DA",
"'@	c #A2E0FB",
")@	c #E7FDFF",
"!@	c #F6F8F5",
"~@	c #DFD6D2",
"{@	c #B9AFA6",
"]@	c #93938E",
"^@	c #322C18",
"/@	c #302878",
"(@	c #3C3762",
"_@	c #58553E",
":@	c #5C5A41",
"<@	c #525033",
"[@	c #646261",
"}@	c #73675E",
"|@	c #278EBC",
"1@	c #028ACC",
"2@	c #0077AE",
"3@	c #0078AF",
"4@	c #007AB1",
"5@	c #007AB2",
"6@	c #0079AF",
"7@	c #0078AE",
"8@	c #0181BD",
"9@	c #0E9BE3",
"0@	c #2FB7F5",
"a@	c #76D8FF",
"b@	c #C4F1FF",
"c@	c #FBFDFB",
"d@	c #C0BEBB",
"e@	c #665F51",
"f@	c #2F2B1A",
"g@	c #332B43",
"h@	c #120ED9",
"i@	c #130CF2",
"j@	c #271F91",
"k@	c #291F60",
"l@	c #3C3727",
"m@	c #4E4D42",
"n@	c #725E4A",
"o@	c #6792A2",
"p@	c #2E99CC",
"q@	c #007BBB",
"r@	c #0076AD",
"s@	c #0078AC",
"t@	c #0076AA",
"u@	c #007AB5",
"v@	c #007FC1",
"w@	c #0391D8",
"x@	c #0FA7ED",
"y@	c #69D6FF",
"z@	c #AED9E9",
"A@	c #C8BCB2",
"B@	c #8D8B84",
"C@	c #3C360D",
"D@	c #221991",
"E@	c #0B1AFD",
"F@	c #0D29FF",
"G@	c #0E1CF7",
"H@	c #1011ED",
"I@	c #1209B9",
"J@	c #2F2863",
"K@	c #949089",
"L@	c #D5E0E3",
"M@	c #71CDF2",
"N@	c #14A3EA",
"O@	c #008DD2",
"P@	c #007EBF",
"Q@	c #0077AF",
"R@	c #0075AD",
"S@	c #0079B1",
"T@	c #0078B0",
"U@	c #0074A8",
"V@	c #0076AC",
"W@	c #0084C3",
"X@	c #07A6F4",
"Y@	c #6AD2FF",
"Z@	c #FFFFFC",
"`@	c #EFEFF2",
" #	c #777467",
".#	c #2E291A",
"+#	c #383441",
"@#	c #1E1ECB",
"##	c #000DFF",
"$#	c #113FFF",
"%#	c #080EFF",
"&#	c #20188E",
"*#	c #A29F94",
"=#	c #FFFCF6",
"-#	c #DBFAFF",
";#	c #BAEBFF",
">#	c #66D0FE",
",#	c #26B2F3",
"'#	c #0595DE",
")#	c #0087CB",
"!#	c #209AD6",
"~#	c #0090DD",
"{#	c #007DB9",
"]#	c #0073A5",
"^#	c #0099E9",
"/#	c #5DC8FD",
"(#	c #E7FAFF",
"_#	c #F9F5F4",
":#	c #CECFCD",
"<#	c #615D4F",
"[#	c #565244",
"}#	c #77726B",
"|#	c #6058F8",
"1#	c #0E14FF",
"2#	c #0F37FF",
"3#	c #0F31FF",
"4#	c #0C08E7",
"5#	c #3A306E",
"6#	c #C3C1AE",
"7#	c #FEFDFD",
"8#	c #FDFFFF",
"9#	c #CEF3FF",
"0#	c #7FD9FF",
"a#	c #5BC9F8",
"b#	c #C7EFFA",
"c#	c #51CFFF",
"d#	c #2EB3ED",
"e#	c #0F9AE1",
"f#	c #0084CA",
"g#	c #008ED9",
"h#	c #009CED",
"i#	c #40BAFC",
"j#	c #B2E6FF",
"k#	c #FBFBFC",
"l#	c #F1F2F4",
"m#	c #CECDCB",
"n#	c #7F7D72",
"o#	c #484325",
"p#	c #BDBBB6",
"q#	c #8079FF",
"r#	c #121FFF",
"s#	c #0E32FF",
"t#	c #1039FF",
"u#	c #0F2FFF",
"v#	c #111ADE",
"w#	c #4A4449",
"x#	c #D0D1A3",
"y#	c #CDCDC7",
"z#	c #E3E3E0",
"A#	c #F9F9F8",
"B#	c #FBF8F7",
"C#	c #ECFAFA",
"D#	c #CFF4FF",
"E#	c #A9E6FF",
"F#	c #25BCFF",
"G#	c #5ACBFF",
"H#	c #84DAFF",
"I#	c #A1E4FF",
"J#	c #E0F7FF",
"K#	c #FEFFFF",
"L#	c #BBB9B4",
"M#	c #5C5849",
"N#	c #757260",
"O#	c #E0DFEA",
"P#	c #6F6AFF",
"Q#	c #0000FF",
"R#	c #1033FF",
"S#	c #0A22F4",
"T#	c #312BA6",
"U#	c #746E76",
"V#	c #534F48",
"W#	c #4E4A5E",
"X#	c #777475",
"Y#	c #B1B0A0",
"Z#	c #BEBCBA",
"`#	c #94928A",
" $	c #BAB8B4",
".$	c #D4D4D2",
"+$	c #B7B4AF",
"@$	c #DAD4D0",
"#$	c #FFF7EF",
"$$	c #CBEDF7",
"%$	c #CBE7F2",
"&$	c #EEF4F5",
"*$	c #FFFFFE",
"=$	c #FEFCFC",
"-$	c #F8F7F7",
";$	c #FEFEFF",
">$	c #D6D6D7",
",$	c #5F5C4E",
"'$	c #97958A",
")$	c #5E55FF",
"!$	c #0B0EFF",
"~$	c #1138FF",
"{$	c #0D2BFF",
"]$	c #0F13CA",
"^$	c #1B14A9",
"/$	c #1407DB",
"($	c #1109A4",
"_$	c #342F37",
":$	c #36311E",
"<$	c #585345",
"[$	c #393524",
"}$	c #484533",
"|$	c #737064",
"1$	c #3B3724",
"2$	c #5D5A4C",
"3$	c #8A8478",
"4$	c #AFAAA2",
"5$	c #948C7F",
"6$	c #A2A099",
"7$	c #C4C3C0",
"8$	c #A09E96",
"9$	c #B5B4B1",
"0$	c #DBDBDB",
"a$	c #F0F0F1",
"b$	c #E7E7E8",
"c$	c #8A8880",
"d$	c #342F1A",
"e$	c #595447",
"f$	c #E2E0D8",
"g$	c #938DFF",
"h$	c #060FFF",
"i$	c #0D31FF",
"j$	c #0F39FF",
"k$	c #0C13FF",
"l$	c #160ED3",
"m$	c #251D92",
"n$	c #37321E",
"o$	c #0B0600",
"p$	c #474231",
"q$	c #4E4939",
"r$	c #373225",
"s$	c #443F32",
"t$	c #8C8A80",
"u$	c #999790",
"v$	c #565241",
"w$	c #918F84",
"x$	c #B8B6FF",
"y$	c #1316FF",
"z$	c #0F34FF",
"A$	c #0D24FF",
"B$	c #131EE6",
"C$	c #1616D8",
"D$	c #2D2860",
"E$	c #423E00",
"F$	c #3A3522",
"G$	c #3E3925",
"H$	c #B6B5AE",
"I$	c #FFFFFA",
"J$	c #8581FF",
"K$	c #0807FF",
"L$	c #0928FF",
"M$	c #0F3AFF",
"N$	c #0C20FC",
"O$	c #1A19B4",
"P$	c #37312F",
"Q$	c #2E1F65",
"R$	c #666254",
"S$	c #E9E8E6",
"T$	c #BDB9FC",
"U$	c #2823FF",
"V$	c #0D21F2",
"W$	c #1620DC",
"X$	c #1B1CBF",
"Y$	c #292072",
"Z$	c #403A27",
"`$	c #ABA9A0",
" %	c #FDFDFF",
".%	c #E4E3D0",
"+%	c #A2A0FD",
"@%	c #0D0CFF",
"#%	c #1514B5",
"$%	c #251C89",
"%%	c #3B331B",
"&%	c #524C3B",
"*%	c #D3D2CE",
"=%	c #C5C5BD",
"-%	c #6E6A6B",
";%	c #2D27A6",
">%	c #1711BF",
",%	c #261F8C",
"'%	c #98958A",
")%	c #EFEFF0",
"!%	c #A2A198",
"~%	c #2C2618",
"{%	c #241F37",
"]%	c #302A32",
"^%	c #3A351F",
"/%	c #5A5646",
"(%	c #6E6D65",
"_%	c #5A5954",
":%	c #545241",
"<%	c #49472E",
"[%	c #3A3622",
"}%	c #545248",
"|%	c #7F7F7F",
"1%	c #818284",
"2%	c #6D6D6D",
"3%	c #5C5A57",
"4%	c #494639",
"5%	c #423F30",
"6%	c #4A4636",
"7%	c #868785",
"8%	c #969798",
"9%	c #8F9091",
"0%	c #858588",
"a%	c #767576",
"b%	c #595751",
"c%	c #454234",
"d%	c #3B3522",
"e%	c #535041",
"f%	c #68675D",
"g%	c #7C7C78",
"h%	c #8D8C8D",
"i%	c #959698",
"j%	c #878787",
"k%	c #636158",
"l%	c #433F2E",
"m%	c #545043",
"n%	c #7D7C77",
"o%	c #898886",
"p%	c #5B584E",
"q%	c #5C5C5A",
"r%	c #515046",
"s%	c #433E2E",
"t%	c #2D270F",
"u%	c #423E2C",
"v%	c #545042",
"w%	c #403C28",
"x%	c #403D2D",
"y%	c #4F4D43",
"z%	c #525047",
"A%	c #5C5B57",
"B%	c #403B2B",
"C%	c #4A483B",
"                                                                                            ",
"                                      . +                                                   ",
"                                @ # $ % & * = -                                             ",
"                              ; > , ' ) ! ~ { ] ^ /                                         ",
"                              ( _ : < [ } | 1 2 3 4 5                                       ",
"                            6 7 8 9 0 a b c d e f g h i                                     ",
"                            j k l m n o p q r s t u v w x y +                               ",
"                          z A _ _ B C D       E   F G H I J K                               ",
"                          L M N O P Q R                 S T U                               ",
"                      V W X Y Z `  ...+.@.                                                  ",
"                      #.$.%.&.*.=.-.;.>.,.                                                  ",
"                      '.).!.~.{.].^./.(._.                                                  ",
"                    :.<.[.}.|.1.2.3.3.4.5.                                                  ",
"                    6.7.8.9.0.3.3.a.b.c.d.                                                  ",
"                  e.f.g.h.i.1.j.k.l.m.n.o.p.                                                ",
"                  q.r.s.t.t.j.u.v.w.x.y.z.A.                                                ",
"                  B.C.D.E.F.G.H.I.J.K.L.M.N.                                                ",
"              O.P.Q.R.S.T.U.V.W.X.Y.Z.`. +.+                                                ",
"              ++@+#+$+%+&+*+=+-+;+>+,+'+)+!+                                                ",
"            ~+{+{+]+^+/+(+_+:+<+[+}+_ |+1+2+3+                                              ",
"            4+5+6+7+8+9+0+a+b+c+d+e+f+g+_ h+i+j+k+                                          ",
"            l+m+n+o+p+q+r+s+t+u+v+w+x+y+z+A+B+C+D+E+                                        ",
"            F+G+H+I+J+K+L+M+N+O+P+Q+R+S+T+U+V+_ W+X+Y+Z+                                    ",
"            `+ @.@+@@@#@$@%@&@*@=@=@-@;@>@,@'@)@!@~@{@]@^@                                  ",
"            /@(@_@:@<@[@}@|@1@2@3@4@5@6@7@8@9@0@a@b@c@d@e@f@                                ",
"          g@h@i@j@k@l@m@n@o@p@q@r@s@3@4@4@t@u@v@w@x@y@z@A@B@!+                              ",
"        C@D@E@F@G@H@I@J@K@L@M@N@O@P@Q@R@S@T@U@*@V@W@X@Y@Z@`@ #.#                            ",
"        +#@###$#j.0.%#&#*#=#-#;#>#,#'#)#!#~#{#P+]#5@^#/#(#_#:#B@<#[#                        ",
"        }#|#1#2#j.3#4#5#6#_ 7#_ 8#9#0#a#b#c#d#e#f#g#h#i#j#_ k#l#m#n#                        ",
"      o#p#q#r#s#t#u#v#w#x#,+y#z#A#_ B#>+_ C#D#E#F#G#H#I#J#K#_ _ _ L#M#                      ",
"      N#O#P#Q#R#3.t#S#T#U#V#W#X#Y#Z#`# $.$+$@$#$$$%$&$*$=$-$_ _ ;$>$,$                      ",
"      '$>+)$!$s#~$t#{$]$^$/$($_$:$<$[$}$|$1$2$3$4$5$6$7$8$9$0$a$b$c$d$                      ",
"      e$f$g$h$i$t.^.j${$k$l$m$                n$  o$p$q$r$s$|$t$u$v$                        ",
"      w$_ x$y$u#j.z$A$B$C$D$E$                                F$                            ",
"    G$H$I$J$K$L$M$N$O$P$Q$                                                                  ",
"    R$S$_ T$U$V$W$X$Y$                                                                      ",
"  Z$`$ %.%+%@%#%$%%%                                                                        ",
"  &%*%=%-%;%>%,%                                                                            ",
"  '%)%!%~%{%]%                                                                              ",
"  ^%/%(%_%:%<%[%                                                                            ",
"      }%|%1%2%3%4%5%                                                                        ",
"    . 6%7%8%9%0%a%b%c%                                                                      ",
"      d%e%f%g%h%i%j%k%K S                                                                   ",
"          n$l%m%n%o%p%q%r%H s%                                                              ",
"              t%u%v%w%x%y%z%A%B%                                                            ",
"                          ~+C%                                                              "};
