/* XPM */
static char * playerTwo12_xpm[] = {
"46 46 670 2",
"  	c None",
". 	c #4F4B39",
"+ 	c #959187",
"@ 	c #686557",
"# 	c #625F50",
"$ 	c #332D16",
"% 	c #433F2C",
"& 	c #4F4B40",
"* 	c #6E6A5F",
"= 	c #D4D2CD",
"- 	c #EFEEEC",
"; 	c #BCBCB5",
"> 	c #7B786B",
", 	c #504B3C",
"' 	c #56513F",
") 	c #726F65",
"! 	c #423E2B",
"~ 	c #656359",
"{ 	c #676661",
"] 	c #5C5948",
"^ 	c #8F8E81",
"/ 	c #CBCAC5",
"( 	c #F1F1EA",
"_ 	c #E9E8E3",
": 	c #C9C6BE",
"< 	c #9D9A8A",
"[ 	c #817F68",
"} 	c #B2B09F",
"| 	c #89866E",
"1 	c #676440",
"2 	c #686340",
"3 	c #5E5B50",
"4 	c #868584",
"5 	c #797877",
"6 	c #4C4940",
"7 	c #373239",
"8 	c #65607C",
"9 	c #E3E1E5",
"0 	c #FEFEFF",
"a 	c #F6F4FA",
"b 	c #E5E1F5",
"c 	c #D9D4EE",
"d 	c #D6D2EE",
"e 	c #CCC9EB",
"f 	c #ACA5C9",
"g 	c #676188",
"h 	c #352F4C",
"i 	c #2D243D",
"j 	c #3F3B28",
"k 	c #787670",
"l 	c #929294",
"m 	c #777673",
"n 	c #4A473D",
"o 	c #241E5A",
"p 	c #2C26C5",
"q 	c #7E7DFC",
"r 	c #A1A1FF",
"s 	c #736DFF",
"t 	c #817FFF",
"u 	c #696BFF",
"v 	c #6A66FF",
"w 	c #545AFF",
"x 	c #4E4CFA",
"y 	c #3A44F1",
"z 	c #1A20D6",
"A 	c #1B179F",
"B 	c #2B235D",
"C 	c #524F3F",
"D 	c #545142",
"E 	c #848380",
"F 	c #8B8B8D",
"G 	c #61605C",
"H 	c #444021",
"I 	c #261F4F",
"J 	c #1C15AD",
"K 	c #1B1CF1",
"L 	c #121FFF",
"M 	c #1021FF",
"N 	c #0918FF",
"O 	c #0116FF",
"P 	c #0E23FF",
"Q 	c #0621FF",
"R 	c #0A26FF",
"S 	c #1035FF",
"T 	c #0B2AFF",
"U 	c #0B18F2",
"V 	c #140DCD",
"W 	c #3F3B62",
"X 	c #5C5A4B",
"Y 	c #555243",
"Z 	c #5C594D",
"` 	c #545143",
" .	c #4A4636",
"..	c #514E40",
"+.	c #423D2A",
"@.	c #6E6C64",
"#.	c #8D8D8F",
"$.	c #7D7E7F",
"%.	c #4F4E45",
"&.	c #3C3812",
"*.	c #282078",
"=.	c #1415BA",
"-.	c #0C28FA",
";.	c #0A32FF",
">.	c #0B32FF",
",.	c #0B34FF",
"'.	c #0D35FF",
").	c #0F36FF",
"!.	c #0C33FF",
"~.	c #0D36FF",
"{.	c #1038FF",
"].	c #0C20FE",
"^.	c #1F17CE",
"/.	c #545059",
"(.	c #6B6A56",
"_.	c #64625A",
":.	c #6C6A63",
"<.	c #6F6E67",
"[.	c #6B6961",
"}.	c #535143",
"|.	c #474332",
"1.	c #848482",
"2.	c #929396",
"3.	c #676662",
"4.	c #454134",
"5.	c #241E8A",
"6.	c #121EDF",
"7.	c #0F34FE",
"8.	c #1037FF",
"9.	c #123AFF",
"0.	c #113BFF",
"a.	c #0D2DFF",
"b.	c #101AE3",
"c.	c #312A80",
"d.	c #534D43",
"e.	c #66634E",
"f.	c #615F56",
"g.	c #656259",
"h.	c #4E4A3A",
"i.	c #68665C",
"j.	c #616154",
"k.	c #53513A",
"l.	c #5B584C",
"m.	c #7E7E7A",
"n.	c #7B7A77",
"o.	c #534F47",
"p.	c #3E3928",
"q.	c #322F4A",
"r.	c #1D1DB0",
"s.	c #1024F4",
"t.	c #1036FF",
"u.	c #113DFF",
"v.	c #0E2FFE",
"w.	c #0D2AFC",
"x.	c #0D2CFC",
"y.	c #0E28FF",
"z.	c #1411C7",
"A.	c #3C354D",
"B.	c #535037",
"C.	c #575549",
"D.	c #5B5B55",
"E.	c #6B6962",
"F.	c #5B5951",
"G.	c #606052",
"H.	c #585552",
"I.	c #302A71",
"J.	c #2D2547",
"K.	c #352C39",
"L.	c #4C493C",
"M.	c #646460",
"N.	c #535043",
"O.	c #2A1E73",
"P.	c #1D20AF",
"Q.	c #0C26FF",
"R.	c #0E34FF",
"S.	c #0C21FE",
"T.	c #111BC3",
"U.	c #1B1DAB",
"V.	c #0705C1",
"W.	c #0503D0",
"X.	c #1D1589",
"Y.	c #403D2A",
"Z.	c #56553C",
"`.	c #5E5B56",
" +	c #5B5751",
".+	c #48453F",
"++	c #484843",
"@+	c #5E554A",
"#+	c #514C44",
"$+	c #333341",
"%+	c #222084",
"&+	c #242383",
"*+	c #272666",
"=+	c #322F47",
"-+	c #3B3A39",
";+	c #3F3E35",
">+	c #313131",
",+	c #3E3B29",
"'+	c #54524C",
")+	c #423D2B",
"!+	c #2A2767",
"~+	c #1422D8",
"{+	c #0B1FF9",
"]+	c #1917C1",
"^+	c #463E74",
"/+	c #6E6965",
"(+	c #514B6D",
"_+	c #46428F",
":+	c #504873",
"<+	c #3F3F37",
"[+	c #544C3E",
"}+	c #605244",
"|+	c #8E745A",
"1+	c #8F765B",
"2+	c #977D64",
"3+	c #B99877",
"4+	c #A5886B",
"5+	c #786658",
"6+	c #403D5D",
"7+	c #4C4C4B",
"8+	c #53546C",
"9+	c #4D4D57",
"0+	c #4F4F4F",
"a+	c #4E4D49",
"b+	c #51514C",
"c+	c #575857",
"d+	c #484848",
"e+	c #353535",
"f+	c #464335",
"g+	c #4E4D43",
"h+	c #4A473A",
"i+	c #433F2D",
"j+	c #2C2760",
"k+	c #1A1BC0",
"l+	c #0B0CEC",
"m+	c #2721AC",
"n+	c #89858C",
"o+	c #DEDEC2",
"p+	c #D8D7C4",
"q+	c #AEAA9D",
"r+	c #A99E9A",
"s+	c #53524A",
"t+	c #695948",
"u+	c #CFA274",
"v+	c #EFBC8A",
"w+	c #F9C793",
"x+	c #F4C695",
"y+	c #FFCD9A",
"z+	c #FFD49E",
"A+	c #CBA57E",
"B+	c #655B4F",
"C+	c #484D51",
"D+	c #656867",
"E+	c #737373",
"F+	c #7D7D7D",
"G+	c #797979",
"H+	c #757575",
"I+	c #858585",
"J+	c #6F6F6F",
"K+	c #454544",
"L+	c #423F2F",
"M+	c #5C5B57",
"N+	c #423E2D",
"O+	c #2C2568",
"P+	c #1A11B6",
"Q+	c #1911BC",
"R+	c #797676",
"S+	c #EDEEE9",
"T+	c #FFFFFF",
"U+	c #A9AEAB",
"V+	c #75746F",
"W+	c #84715B",
"X+	c #B08B66",
"Y+	c #F0BC88",
"Z+	c #FFCF9A",
"`+	c #FFCC9A",
" @	c #ECBF90",
".@	c #947C63",
"+@	c #6B5E52",
"@@	c #605B57",
"#@	c #767777",
"$@	c #878888",
"%@	c #7A7A7A",
"&@	c #7F7F7F",
"*@	c #929292",
"=@	c #7B7B7B",
"-@	c #393939",
";@	c #474436",
">@	c #504D44",
",@	c #413D2C",
"'@	c #1D1577",
")@	c #1F1894",
"!@	c #6A6772",
"~@	c #D5D4C4",
"{@	c #F1F2F3",
"]@	c #6A7A7F",
"^@	c #735F4B",
"/@	c #DEAD7D",
"(@	c #F5C290",
"_@	c #FECA97",
":@	c #FFCD99",
"<@	c #FFCC99",
"[@	c #F8CB99",
"}@	c #DAB389",
"|@	c #9B836A",
"1@	c #706D6A",
"2@	c #636466",
"3@	c #6D6D6D",
"4@	c #777777",
"5@	c #6E6E6E",
"6@	c #504E4A",
"7@	c #575345",
"8@	c #605B4A",
"9@	c #3E3A27",
"0@	c #28220C",
"a@	c #393333",
"b@	c #999790",
"c@	c #F5F4E9",
"d@	c #B7C0C5",
"e@	c #666662",
"f@	c #9E7C5B",
"g@	c #FEC68F",
"h@	c #FFCB98",
"i@	c #FECD9A",
"j@	c #CDA780",
"k@	c #675B4E",
"l@	c #454646",
"m@	c #5D5D5E",
"n@	c #767676",
"o@	c #7C7C7C",
"p@	c #7C7C79",
"q@	c #69665C",
"r@	c #656153",
"s@	c #585342",
"t@	c #CBCAC7",
"u@	c #FEFDFD",
"v@	c #798A90",
"w@	c #6D5E4E",
"x@	c #C79A6F",
"y@	c #E7B889",
"z@	c #FFD4A1",
"A@	c #FFD7A4",
"B@	c #FFD29E",
"C@	c #FECB98",
"D@	c #E7B98C",
"E@	c #746555",
"F@	c #535252",
"G@	c #666768",
"H@	c #6C6C6C",
"I@	c #727272",
"J@	c #787878",
"K@	c #5C5C5C",
"L@	c #606060",
"M@	c #797878",
"N@	c #AFAEAE",
"O@	c #524C3A",
"P@	c #716F65",
"Q@	c #D2CDCA",
"R@	c #CFD2D5",
"S@	c #666F6F",
"T@	c #85694F",
"U@	c #C0976E",
"V@	c #AD8E6E",
"W@	c #FDC997",
"X@	c #FFD09C",
"Y@	c #DCBD92",
"Z@	c #DAB288",
"`@	c #FBCA97",
" #	c #FDCB99",
".#	c #EFC393",
"+#	c #FDCE9A",
"@#	c #FFCE9A",
"##	c #FACA97",
"$#	c #AD8E70",
"%#	c #4E4941",
"&#	c #535251",
"*#	c #646464",
"=#	c #808080",
"-#	c #838382",
";#	c #5A5852",
">#	c #494537",
",#	c #BBB4AD",
"'#	c #8A969A",
")#	c #675F54",
"!#	c #C0956C",
"~#	c #CCA279",
"{#	c #987F65",
"]#	c #DDB288",
"^#	c #ECBD8E",
"/#	c #9E836A",
"(#	c #86715C",
"_#	c #CEA680",
":#	c #EEBF91",
"<#	c #998470",
"[#	c #E3B88E",
"}#	c #FECC99",
"|#	c #FDCC98",
"1#	c #F6C695",
"2#	c #C8A17D",
"3#	c #776A5D",
"4#	c #6C6D6D",
"5#	c #717171",
"6#	c #6A6A6A",
"7#	c #818181",
"8#	c #565553",
"9#	c #434036",
"0#	c #696558",
"a#	c #BBBAB7",
"b#	c #7B8080",
"c#	c #77614C",
"d#	c #EDB883",
"e#	c #D6AD83",
"f#	c #685B4D",
"g#	c #C4A17C",
"h#	c #FBCC98",
"i#	c #D6AF85",
"j#	c #8F7963",
"k#	c #AA8E72",
"l#	c #B99A7C",
"m#	c #746B61",
"n#	c #E7BE90",
"o#	c #FFD19C",
"p#	c #FCCF9B",
"q#	c #DEB388",
"r#	c #5E554C",
"s#	c #5E5F61",
"t#	c #6F6F70",
"u#	c #747474",
"v#	c #868686",
"w#	c #616160",
"x#	c #444138",
"y#	c #3A341F",
"z#	c #838076",
"A#	c #9C9D9C",
"B#	c #6E665E",
"C#	c #AA8561",
"D#	c #F3BE8A",
"E#	c #AE8F70",
"F#	c #DCB489",
"G#	c #FFD39D",
"H#	c #FFD6A0",
"I#	c #C2A280",
"J#	c #756B61",
"K#	c #B99B7D",
"L#	c #D2AC87",
"M#	c #F8CB98",
"N#	c #FFD09B",
"O#	c #FFD29D",
"P#	c #ECC392",
"Q#	c #AE8E6F",
"R#	c #7C6B5A",
"S#	c #444646",
"T#	c #848484",
"U#	c #8A8A8A",
"V#	c #59595A",
"W#	c #47463C",
"X#	c #3F3A28",
"Y#	c #504B3B",
"Z#	c #9D9894",
"`#	c #766F64",
" $	c #D5A779",
".$	c #E3B688",
"+$	c #706051",
"@$	c #9F8569",
"#$	c #F0C695",
"$$	c #F9CB99",
"%$	c #BD9D7D",
"&$	c #867668",
"*$	c #FDCC99",
"=$	c #FFD7A0",
"-$	c #BF9D7A",
";$	c #4E4742",
">$	c #484849",
",$	c #636363",
"'$	c #888888",
")$	c #6B6B6B",
"!$	c #4D4D4C",
"~$	c #4C4B3B",
"{$	c #827869",
"]$	c #BCBEBE",
"^$	c #7D837F",
"/$	c #B08A65",
"($	c #CFA67C",
"_$	c #776655",
":$	c #D1AB82",
"<$	c #FDD09C",
"[$	c #F3C494",
"}$	c #EABD90",
"|$	c #FFCB99",
"1$	c #F7D19C",
"2$	c #9D8268",
"3$	c #393A3A",
"4$	c #595959",
"5$	c #878787",
"6$	c #7B7B7C",
"7$	c #545350",
"8$	c #454234",
"9$	c #585548",
"0$	c #B9B0A6",
"a$	c #C1CECE",
"b$	c #5F6867",
"c$	c #AC8560",
"d$	c #EEBF8B",
"e$	c #D6AF86",
"f$	c #F2C494",
"g$	c #FCCD9A",
"h$	c #F0C292",
"i$	c #F7C695",
"j$	c #CBA780",
"k$	c #6A5C4F",
"l$	c #3C3E41",
"m$	c #8B8B8B",
"n$	c #808081",
"o$	c #454442",
"p$	c #6A655A",
"q$	c #B2B1AE",
"r$	c #B1D5E1",
"s$	c #487383",
"t$	c #A28262",
"u$	c #E4B787",
"v$	c #EEBF90",
"w$	c #E3BD90",
"x$	c #A18A73",
"y$	c #C5A382",
"z$	c #FFCF9B",
"A$	c #F8CA98",
"B$	c #927962",
"C$	c #675C52",
"D$	c #494746",
"E$	c #555656",
"F$	c #343434",
"G$	c #4E4839",
"H$	c #A19A90",
"I$	c #9FD3E6",
"J$	c #3A8EB3",
"K$	c #354C57",
"L$	c #927E66",
"M$	c #F0C18F",
"N$	c #FACE9C",
"O$	c #BA9877",
"P$	c #AB8B6F",
"Q$	c #A98E73",
"R$	c #68625D",
"S$	c #E4B98E",
"T$	c #FFD19B",
"U$	c #FFD59F",
"V$	c #C8A57E",
"W$	c #60564C",
"X$	c #444647",
"Y$	c #616162",
"Z$	c #949494",
"`$	c #515150",
" %	c #30302F",
".%	c #575244",
"+%	c #C8BFB8",
"@%	c #DCF3FC",
"#%	c #6BC8F3",
"$%	c #1A86BF",
"%%	c #58696A",
"&%	c #B9A17D",
"*%	c #DABC91",
"=%	c #A0886D",
"-%	c #87715C",
";%	c #B79778",
">%	c #AC9178",
",%	c #DAB28A",
"'%	c #FCCC99",
")%	c #937B63",
"!%	c #484642",
"~%	c #525353",
"{%	c #7E7E7E",
"]%	c #939393",
"^%	c #3A3A39",
"/%	c #696658",
"(%	c #CBC9C6",
"_%	c #BFEDFF",
":%	c #51B8ED",
"<%	c #598191",
"[%	c #52524C",
"}%	c #7C705D",
"|%	c #B29374",
"1%	c #E4B88B",
"2%	c #93806E",
"3%	c #B89C7E",
"4%	c #FDCE9B",
"5%	c #C9A47E",
"6%	c #6C5D50",
"7%	c #404142",
"8%	c #5F5F5F",
"9%	c #626262",
"0%	c #898989",
"a%	c #5E5E5E",
"b%	c #303030",
"c%	c #4C4939",
"d%	c #B9B9B4",
"e%	c #FAF9F9",
"f%	c #E5F7FF",
"g%	c #C6EEFE",
"h%	c #CCE7F1",
"i%	c #C1C1BF",
"j%	c #696863",
"k%	c #48433C",
"l%	c #66594C",
"m%	c #8D7761",
"n%	c #5E5954",
"o%	c #C9A784",
"p%	c #F6CB99",
"q%	c #A18469",
"r%	c #695C51",
"s%	c #52504D",
"t%	c #545656",
"u%	c #707070",
"v%	c #706F6E",
"w%	c #424242",
"x%	c #5C594C",
"y%	c #C5C5C3",
"z%	c #F2EFEB",
"A%	c #C3C0BC",
"B%	c #605D51",
"C%	c #373636",
"D%	c #403E3B",
"E%	c #7F6D5A",
"F%	c #A88D6F",
"G%	c #63564B",
"H%	c #434345",
"I%	c #838383",
"J%	c #5B5B59",
"K%	c #3C3A36",
"L%	c #4D4939",
"M%	c #8C8A80",
"N%	c #E7E7E6",
"O%	c #F0EFEE",
"P%	c #A8A6A0",
"Q%	c #69655B",
"R%	c #433D2B",
"S%	c #373534",
"T%	c #3D3A36",
"U%	c #413F3E",
"V%	c #505051",
"W%	c #828282",
"X%	c #474645",
"Y%	c #5B574B",
"Z%	c #929188",
"`%	c #F1F1F0",
" &	c #D6D6D4",
".&	c #6D6960",
"+&	c #3C3C3C",
"@&	c #545454",
"#&	c #919191",
"$&	c #373738",
"%&	c #89867C",
"&&	c #DDDCDB",
"*&	c #FBFBFC",
"=&	c #F4F5F7",
"-&	c #AAA9A2",
";&	c #5A5648",
">&	c #4B4B4B",
",&	c #85837A",
"'&	c #ADACA7",
")&	c #A3A19B",
"!&	c #767367",
"~&	c #474230",
"{&	c #383838",
"]&	c #434343",
"^&	c #5D5D5D",
"/&	c #4A4A4A",
"(&	c #414141",
"_&	c #555555",
":&	c #3B3521",
"<&	c #4D4937",
"                                                                                            ",
"                                                                                            ",
"                                                                                            ",
"                                                                                            ",
"                                                                                            ",
"                                                                                            ",
"                                                                                            ",
"                                                                                            ",
"                                                                                            ",
"                                                                                            ",
"                                                                                            ",
"                                                                                            ",
"            . + @ #                                                                         ",
"      $ % & * = - ; > , '   )                                                               ",
"      ! ~ { ] ^ / ( _ : < [ } | 1 2                                                         ",
"      3 4 5 6 7 8 9 0 a b c d e f g h i                                                     ",
"    j k l m n o p q r s t u v w x y z A B       C                                           ",
"    D E F G H I J K L M N O P Q R S T U V W X Y Z `  ...                                    ",
"  +.@.#.$.%.&.  *.=.-.;.>.,.'.).!.~.{.].^./.(._.:.<.[.}.                                    ",
"  |.1.2.3.4.      5.6.7.{.8.9.8.0.0.a.b.c.d.e.f.g.h.i.j.k.                                  ",
"  l.m.n.o.p.      q.r.s.t.u.).v.w.x.y.z.A.B.~ C.D.E.F.G.H.I.J.K.                            ",
"  L.M.N.            O.P.Q.R.S.T.U.V.W.X.Y.Z.`. +.+++@+#+$+%+&+*+=+-+;+  >+                  ",
"  ,+'+)+              !+~+{+]+^+/+(+_+:+<+[+}+|+1+2+3+4+5+6+7+8+9+0+a+b+c+d+e+              ",
"f+g+h+i+              j+k+l+m+n+o+p+q+r+s+t+u+v+w+x+y+z+A+B+C+D+E+F+G+H+F+I+J+K+            ",
"L+M+N+                  O+P+Q+R+S+T+U+V+W+X+Y+Z+y+`+y+y+ @.@+@@@#@$@I+%@&@*@=@-@            ",
";@>@,@                    '@)@!@~@{@]@^@/@(@_@:@<@<@<@<@y+[@}@|@1@2@3@4@4@&@5@6@7@8@        ",
"9@                        0@a@b@c@d@e@f@g@y+<@y+<@h@<@<@y+y+i@j@k@l@m@n@n@o@&@G+p@q@r@      ",
"                            s@t@u@v@w@x@y@<@<@z@A@B@:@<@:@<@y+C@D@E@F@G@H@I@J@K@L@M@N@O@    ",
"                            P@Q@R@S@T@U@V@W@X@A@Y@Z@`@ #.#+#:@@###$#%#&#*#I@n@=#-#H@;#N+    ",
"                            >#,#'#)#!#~#{#]#<@^#/#(#_#:#<#[#}#<@|#1#2#3#4#5#6#n@7#%@8#9#    ",
"                            0#a#b#c#d#e#f#g#h###i#j#k#l#m#n#o#<@o#p#q#r#s#t#H@u#=#v#w#x#y#  ",
"                            z#A#B#C#D#E#f#F#G#y+H#I#J#K#L#M#N#O#P#Q#R#S#J+G+T#T#U#J@V#W#X#  ",
"                            Y#Z#`# $.$+$@$#$O#:@$$%$&$N#*$y+<@=$-$;$>$,$n@%@&@U#'$)$!$~$    ",
"                          i+{$]$^$/$($_$:$<$y+<@:@[$}$o#y+|$X@1$2$3$4$I@4@4@o@=#5$6$7$8$    ",
"                          9$0$a$b$c$d$e$f$O#@#g$h$i@<@<@y+o#i$j$k$l$,$I@J+n@F+=@m$n$o$      ",
"                          p$q$r$s$t$u$Z+<@v$o#w$x$y$@#<@z$A$B$C$D$E$5@6#6#G+v#'$U#J+F$      ",
"                          G$H$I$J$K$L$M$N$O$P$Q$R$S$T$y+U$V$W$X$Y$I@n@u#I@4@&@Z$'$`$ %      ",
"                          .%+%@%#%$%%%&%*%=%-%;%>%,%'%y+U$)%!%~%J+J@E+4@=@o@{%]%G+^%        ",
"                          /%(%T+_%:%<%[%}%|%j@1%2%3%4%h$5%6%7%8%n@H+9%6#{%5$0%0%a%b%        ",
"                          c%d%e%f%g%h%i%j%k%l%m%n%o%p%q%r%s%t%)$J@J@u%I@=@0%%@v%w%          ",
"                          x%y%T+T+T+z%A%B%    C%D%E%F%G%H%9%I@4@J@I+7#n@I%I%J%K%            ",
"                        L%M%N%T+T+O%P%Q%R%        S%T%U%V%u%T#7#J@W%5$&@'$H+X%              ",
"                        Y%Z%`%T+T+ &.&                +&@&I@I%7#%@o@#&U#I@K@$&              ",
"                          %&&&*&=&-&;&                  -@d+a%I@v#3@o@5#>&                  ",
"                          X ,&'&)&!&~&                      {&]&^&/&(&_&                    ",
"                            :&<&                                                            "};
