/* XPM */
static char * playerTwo13_xpm[] = {
"46 46 626 2",
"  	c None",
". 	c #4C4838",
"+ 	c #4B4737",
"@ 	c #443F2E",
"# 	c #423E2D",
"$ 	c #4B4838",
"% 	c #4E4B3A",
"& 	c #423D2C",
"* 	c #3A341F",
"= 	c #464334",
"- 	c #3C3724",
"; 	c #4A473B",
"> 	c #403D2D",
", 	c #494636",
"' 	c #7B7974",
") 	c #888785",
"! 	c #7C7A76",
"~ 	c #807F7C",
"{ 	c #7D7E79",
"] 	c #858682",
"^ 	c #72726B",
"/ 	c #454131",
"( 	c #413D2C",
"_ 	c #585751",
": 	c #55544C",
"< 	c #515046",
"[ 	c #585853",
"} 	c #5A5852",
"| 	c #75736E",
"1 	c #8D8E8F",
"2 	c #8F8F92",
"3 	c #8B8B8E",
"4 	c #8D8E90",
"5 	c #8F9094",
"6 	c #818181",
"7 	c #5E5D55",
"8 	c #4F4B3B",
"9 	c #4F4A37",
"0 	c #433E2F",
"a 	c #444030",
"b 	c #444131",
"c 	c #3E3A28",
"d 	c #57544A",
"e 	c #595751",
"f 	c #63615D",
"g 	c #63615F",
"h 	c #646361",
"i 	c #67675B",
"j 	c #5D5C53",
"k 	c #64625B",
"l 	c #AEADA7",
"m 	c #DFDEDD",
"n 	c #686455",
"o 	c #3F3B2A",
"p 	c #403C2C",
"q 	c #3E3A2A",
"r 	c #3E3A24",
"s 	c #3E3B27",
"t 	c #28232C",
"u 	c #3C3628",
"v 	c #BABAB0",
"w 	c #D6D5D1",
"x 	c #544F3D",
"y 	c #261F63",
"z 	c #1D178F",
"A 	c #67637D",
"B 	c #D9D9D0",
"C 	c #D3D2CF",
"D 	c #6A6658",
"E 	c #302865",
"F 	c #1610BC",
"G 	c #3835F4",
"H 	c #C5C3EE",
"I 	c #FFFFF1",
"J 	c #DBDAD7",
"K 	c #524D3E",
"L 	c #241B86",
"M 	c #1113C8",
"N 	c #2421FF",
"O 	c #BBB7FC",
"P 	c #FEFEFF",
"Q 	c #D2D1CB",
"R 	c #585443",
"S 	c #2F295C",
"T 	c #1A1DC7",
"U 	c #0C22F2",
"V 	c #0A0FFF",
"W 	c #4F4AFF",
"X 	c #D7D6FF",
"Y 	c #DFDFD4",
"Z 	c #716E61",
"` 	c #2F2552",
" .	c #1D1BB1",
"..	c #1027F6",
"+.	c #0D38FF",
"@.	c #071EFF",
"#.	c #2B2BFF",
"$.	c #C6C4FF",
"%.	c #E9E8E0",
"&.	c #5B5649",
"*.	c #352F36",
"=.	c #151AD0",
"-.	c #0D2DFF",
";.	c #103AFF",
">.	c #0F32FF",
",.	c #000DFF",
"'.	c #6C68FF",
").	c #DAD7F8",
"!.	c #C5C4B3",
"~.	c #767262",
"{.	c #251B94",
"].	c #1B20BD",
"^.	c #0D24FF",
"/.	c #0F36FF",
"(.	c #1038FF",
"_.	c #061EFF",
":.	c #201CFF",
"<.	c #908AFF",
"[.	c #DEDDD9",
"}.	c #64604A",
"|.	c #373232",
"1.	c #1B19B9",
"2.	c #0C1CFF",
"3.	c #0E31FF",
"4.	c #0F37FF",
"5.	c #1137FF",
"6.	c #0F31FF",
"7.	c #0000FF",
"8.	c #6D68FF",
"9.	c #C7C5D4",
"0.	c #605C3F",
"a.	c #261E90",
"b.	c #120AE3",
"c.	c #0E0ECF",
"d.	c #0F13CA",
"e.	c #0C26F9",
"f.	c #1037FF",
"g.	c #1036FF",
"h.	c #081EFF",
"i.	c #4848FF",
"j.	c #877FC9",
"k.	c #666249",
"l.	c #302B2D",
"m.	c #130B97",
"n.	c #160AC9",
"o.	c #403882",
"p.	c #494195",
"q.	c #1C22C0",
"r.	c #0C24F8",
"s.	c #0F34FF",
"t.	c #0F3AFF",
"u.	c #0D2FFF",
"v.	c #1316FF",
"w.	c #3936DA",
"x.	c #393543",
"y.	c #3C3722",
"z.	c #4B473A",
"A.	c #474260",
"B.	c #524F55",
"C.	c #A2A189",
"D.	c #B0AF88",
"E.	c #3C3652",
"F.	c #0D0EE6",
"G.	c #103BFF",
"H.	c #1242FF",
"I.	c #0116FF",
"J.	c #1314CD",
"K.	c #312849",
"L.	c #464331",
"M.	c #6F6C61",
"N.	c #B3B1AB",
"O.	c #BFBEB2",
"P.	c #BAB9B7",
"Q.	c #CCCCC6",
"R.	c #FFFFFF",
"S.	c #D8D8BD",
"T.	c #524974",
"U.	c #0D09D7",
"V.	c #0B27FF",
"W.	c #0E2DFF",
"X.	c #0B24FF",
"Y.	c #1517CE",
"Z.	c #352C3C",
"`.	c #524E3C",
" +	c #55503F",
".+	c #4A4737",
"++	c #595546",
"@+	c #B4B3AE",
"#+	c #BAB8B4",
"$+	c #C1BBB3",
"%+	c #F7F3F2",
"&+	c #FFFDFA",
"*+	c #FEFCFB",
"=+	c #E5E1D1",
"-+	c #6E6885",
";+	c #130C9A",
">+	c #0C07D9",
",+	c #1311DB",
"'+	c #1918C2",
")+	c #120CF4",
"!+	c #1912BF",
"~+	c #2D253E",
"{+	c #474231",
"]+	c #575244",
"^+	c #6D6255",
"/+	c #AFABA3",
"(+	c #BDB4A9",
"_+	c #CDC3BC",
":+	c #C7C4C0",
"<+	c #EFECEA",
"[+	c #FFFFFB",
"}+	c #DEF8FF",
"|+	c #C8F3FF",
"1+	c #DCF7FF",
"2+	c #D0F3FF",
"3+	c #D5F6FF",
"4+	c #D1F6FE",
"5+	c #ECEDEA",
"6+	c #95918A",
"7+	c #3E3953",
"8+	c #352F3F",
"9+	c #322948",
"0+	c #433D53",
"a+	c #423E5C",
"b+	c #433D62",
"c+	c #4F4B3A",
"d+	c #5A5647",
"e+	c #464134",
"f+	c #605C51",
"g+	c #ABA9A3",
"h+	c #B8B7B2",
"i+	c #C3C7C3",
"j+	c #C9E8F2",
"k+	c #CEF4FF",
"l+	c #DEF7FD",
"m+	c #D4F6FF",
"n+	c #C4F5FF",
"o+	c #CCF2FC",
"p+	c #3DB9F1",
"q+	c #2FB0EF",
"r+	c #26B2F3",
"s+	c #33B4EF",
"t+	c #2BAFEF",
"u+	c #4EBDEE",
"v+	c #8BBACD",
"w+	c #78756B",
"x+	c #655746",
"y+	c #555441",
"z+	c #565436",
"A+	c #66654A",
"B+	c #6B6856",
"C+	c #686651",
"D+	c #53513A",
"E+	c #87847C",
"F+	c #A09F97",
"G+	c #BFBEBC",
"H+	c #C3C2BD",
"I+	c #F2EEEB",
"J+	c #F8FDFE",
"K+	c #BEEDFF",
"L+	c #5CCEFF",
"M+	c #1BB1F7",
"N+	c #46B8F1",
"O+	c #2DB3ED",
"P+	c #24B4F4",
"Q+	c #3DABE1",
"R+	c #0084C6",
"S+	c #007DBE",
"T+	c #017DBB",
"U+	c #007DBD",
"V+	c #0C85C2",
"W+	c #2290C4",
"X+	c #3C85A4",
"Y+	c #77695F",
"Z+	c #635F57",
"`+	c #605F53",
" @	c #615F57",
".@	c #5C594B",
"+@	c #6E6D64",
"@@	c #59584B",
"#@	c #4D4937",
"$@	c #A6A49E",
"%@	c #F6F7F9",
"&@	c #FCFCFD",
"*@	c #FAFAFA",
"=@	c #FEFEFE",
"-@	c #F0FDFF",
";@	c #A0E4FF",
">@	c #4EC2FA",
",@	c #0E9BE5",
"'@	c #007FC3",
")@	c #007FBF",
"!@	c #017CB7",
"~@	c #007EC1",
"{@	c #007FBC",
"]@	c #0077AF",
"^@	c #0076AC",
"/@	c #0077AE",
"(@	c #0078AB",
"_@	c #0076AD",
":@	c #008AD1",
"<@	c #35A0D4",
"[@	c #728285",
"}@	c #5A5343",
"|@	c #5D5B4F",
"1@	c #626056",
"2@	c #6A6860",
"3@	c #646257",
"4@	c #555245",
"5@	c #494432",
"6@	c #C5C5C4",
"7@	c #D9F4FF",
"8@	c #6CCCFE",
"9@	c #11A5F4",
"0@	c #0089D3",
"a@	c #0075A8",
"b@	c #0072A4",
"c@	c #0076AB",
"d@	c #0074A8",
"e@	c #0075A9",
"f@	c #007AB1",
"g@	c #007AB2",
"h@	c #0079B0",
"i@	c #0088CD",
"j@	c #24A3E0",
"k@	c #578291",
"l@	c #594C38",
"m@	c #73726C",
"n@	c #5C5A50",
"o@	c #6E6C65",
"p@	c #484433",
"q@	c #75746E",
"r@	c #44402F",
"s@	c #524F3F",
"t@	c #B0AEA9",
"u@	c #EAEAE8",
"v@	c #FFFDFC",
"w@	c #F4FAFD",
"x@	c #C8F0FF",
"y@	c #4EC3FC",
"z@	c #009BEC",
"A@	c #0084C3",
"B@	c #007EBC",
"C@	c #007BBC",
"D@	c #007FBE",
"E@	c #007EB9",
"F@	c #0077AA",
"G@	c #0079AF",
"H@	c #0075AB",
"I@	c #007AB4",
"J@	c #0788C9",
"K@	c #2495CC",
"L@	c #648996",
"M@	c #5B5445",
"N@	c #73716B",
"O@	c #565346",
"P@	c #646259",
"Q@	c #6B6961",
"R@	c #6A685F",
"S@	c #504D3D",
"T@	c #747165",
"U@	c #939289",
"V@	c #BBBAB6",
"W@	c #B5B4B1",
"X@	c #CCCDCB",
"Y@	c #F7F4F4",
"Z@	c #93DEFD",
"`@	c #4EC9FD",
" #	c #26B6F4",
".#	c #2BB0EF",
"+#	c #31B5F0",
"@#	c #29B1F2",
"##	c #37ACE6",
"$#	c #0087CC",
"%#	c #0079B9",
"&#	c #007CB8",
"*#	c #007FBD",
"=#	c #007CC0",
"-#	c #0188C8",
";#	c #2A88B3",
">#	c #517F95",
",#	c #786F66",
"'#	c #665A4B",
")#	c #63615A",
"!#	c #67655B",
"~#	c #615F54",
"{#	c #64625A",
"]#	c #524F40",
"^#	c #585447",
"/#	c #524E3E",
"(#	c #4D493B",
"_#	c #5B5849",
":#	c #A3A29C",
"<#	c #C8BFB8",
"[#	c #C3C5C2",
"}#	c #C1DDE6",
"|#	c #EAFFFF",
"1#	c #D0F3FC",
"2#	c #D0F4FF",
"3#	c #E7FDFF",
"4#	c #C0EFFF",
"5#	c #42BBEF",
"6#	c #21AFF4",
"7#	c #31B2EC",
"8#	c #31B4F0",
"9#	c #31B1F4",
"0#	c #3FBBF7",
"a#	c #6CADC7",
"b#	c #817E71",
"c#	c #514E3C",
"d#	c #515137",
"e#	c #545238",
"f#	c #545039",
"g#	c #6A684F",
"h#	c #676556",
"i#	c #565343",
"j#	c #504B3A",
"k#	c #555144",
"l#	c #655E50",
"m#	c #AFAAA5",
"n#	c #C7BEB5",
"o#	c #C7BBB4",
"p#	c #CBC4BE",
"q#	c #F5F2F1",
"r#	c #F1FDFF",
"s#	c #DCF6FE",
"t#	c #D5F7FF",
"u#	c #C9F3FF",
"v#	c #DAF5FF",
"w#	c #D7F6FF",
"x#	c #CAF1FF",
"y#	c #FEF6F0",
"z#	c #B2A4A4",
"A#	c #3E385D",
"B#	c #322D37",
"C#	c #3B344F",
"D#	c #403859",
"E#	c #4C4766",
"F#	c #484557",
"G#	c #5A584C",
"H#	c #595545",
"I#	c #413D2A",
"J#	c #5B5748",
"K#	c #B3B1AC",
"L#	c #BEBAB4",
"M#	c #C6C0BA",
"N#	c #FAF4F3",
"O#	c #FFFEFD",
"P#	c #CFCEAE",
"Q#	c #6F6D87",
"R#	c #1710AD",
"S#	c #0D08E1",
"T#	c #1415CB",
"U#	c #1416D8",
"V#	c #120CED",
"W#	c #1A12B4",
"X#	c #2C2543",
"Y#	c #555141",
"Z#	c #413D2E",
"`#	c #6C695F",
" $	c #B8B7B4",
".$	c #C0BFB9",
"+$	c #B5B39E",
"@$	c #C1C0B1",
"#$	c #FCFDFB",
"$$	c #E2E1D4",
"%$	c #524C6D",
"&$	c #0200BF",
"*$	c #0E2CFF",
"=$	c #0C28FF",
"-$	c #0F32FD",
";$	c #091FFF",
">$	c #1411CA",
",$	c #352C3F",
"'$	c #4B4634",
")$	c #484236",
"!$	c #454078",
"~$	c #59555C",
"{$	c #B5B5A5",
"]$	c #ABA88B",
"^$	c #423D60",
"/$	c #0E12D8",
"($	c #113BFF",
"_$	c #1039FF",
":$	c #0B2BFF",
"<$	c #1217CC",
"[$	c #2A2249",
"}$	c #28221A",
"|$	c #130B9C",
"1$	c #1810BE",
"2$	c #423B90",
"3$	c #3F3575",
"4$	c #181CA6",
"5$	c #0D26F6",
"6$	c #1139FF",
"7$	c #082DFF",
"8$	c #1A3AFF",
"9$	c #383AD7",
"0$	c #3E383D",
"a$	c #282078",
"b$	c #130BD7",
"c$	c #0B0CE6",
"d$	c #1116DA",
"e$	c #0C22FF",
"f$	c #0E32FF",
"g$	c #0323FF",
"h$	c #393CFF",
"i$	c #857DCA",
"j$	c #6A654E",
"k$	c #312A4D",
"l$	c #1918C5",
"m$	c #0F22F2",
"n$	c #103DFF",
"o$	c #123AFF",
"p$	c #0D34FF",
"q$	c #0F23FF",
"r$	c #6164FF",
"s$	c #C4BFDA",
"t$	c #686541",
"u$	c #2A266A",
"v$	c #1B20B0",
"w$	c #0C25FF",
"x$	c #0F39FF",
"y$	c #0221FF",
"z$	c #3637FF",
"A$	c #B2AEFF",
"B$	c #D7D5CB",
"C$	c #636048",
"D$	c #312A48",
"E$	c #131CE3",
"F$	c #0F31FD",
"G$	c #0A2FFF",
"H$	c #0010FF",
"I$	c #696BFF",
"J$	c #D4CFF1",
"K$	c #BDBBAD",
"L$	c #757267",
"M$	c #2D1E67",
"N$	c #1C1AB7",
"O$	c #1026EF",
"P$	c #0826FF",
"Q$	c #2F31FF",
"R$	c #B7B3FF",
"S$	c #DEDBE0",
"T$	c #656247",
"U$	c #2F2C58",
"V$	c #1719C2",
"W$	c #0C27F9",
"X$	c #0719FF",
"Y$	c #5B56FF",
"Z$	c #E9E7FF",
"`$	c #D9D7CE",
" %	c #645F4E",
".%	c #281F7B",
"+%	c #0F12D8",
"@%	c #3236FF",
"#%	c #C6C6FF",
"$%	c #D0CEC9",
"%%	c #514C3E",
"&%	c #2D246A",
"*%	c #1A14AD",
"=%	c #322FFA",
"-%	c #C0BDDC",
";%	c #FFFFF8",
">%	c #D7D6D2",
",%	c #231B5C",
"'%	c #1F1796",
")%	c #5F5A78",
"!%	c #D2D1CE",
"~%	c #D7D7D3",
"{%	c #6C6A5B",
"]%	c #3F3A2A",
"^%	c #3B3727",
"/%	c #433F18",
"(%	c #403B30",
"_%	c #312D3A",
":%	c #49453F",
"<%	c #CBCBBF",
"[%	c #EBEAE8",
"}%	c #545040",
"|%	c #474435",
"1%	c #3F3B29",
"2%	c #504D40",
"3%	c #5E5B56",
"4%	c #62615C",
"5%	c #636361",
"6%	c #62615E",
"7%	c #66645D",
"8%	c #57554E",
"9%	c #514E3B",
"0%	c #9F9C94",
"a%	c #C1BEB9",
"b%	c #595444",
"c%	c #535048",
"d%	c #5C5B57",
"e%	c #504F45",
"f%	c #53514A",
"g%	c #605F5C",
"h%	c #7B7B76",
"i%	c #929395",
"j%	c #8C8D90",
"k%	c #909092",
"l%	c #8C8C8E",
"m%	c #919194",
"n%	c #7D7D7D",
"o%	c #62615B",
"p%	c #514D40",
"q%	c #4C4836",
"r%	c #403C2B",
"s%	c #413E2E",
"t%	c #49463A",
"u%	c #393521",
"v%	c #535045",
"w%	c #72716B",
"x%	c #838380",
"y%	c #82817E",
"z%	c #7D7C77",
"A%	c #83817E",
"B%	c #807F7B",
"C%	c #545144",
"D%	c #4A4636",
"E%	c #4C4837",
"F%	c #4A4635",
"G%	c #423E2C",
"H%	c #4C4839",
"I%	c #36301A",
"                                                                  . + @ # $ % & *           ",
"                                                        = - ; > , ' ) ! ~ { ] ^ /           ",
"                                                      ( _ : < [ } | 1 2 3 4 5 6 7 8 9       ",
"                                                        0 a b c = d e f g h i j k l m n     ",
"                                                                    o p q r s t u v w x     ",
"                                                                            y z A B C D     ",
"                                                                          E F G H I J K     ",
"                                                                          L M N O P Q R     ",
"                                                                        S T U V W X Y Z     ",
"                                                                      `  ...+.@.#.$.%.&.    ",
"                                                                      *.=.-.;.>.,.'.).!.~.  ",
"                                                                    {.].^./.(./._.:.<.[.}.  ",
"                                                                  |.1.2.3.4.;.5.6.7.8.9.0.  ",
"                                                                  a.b.c.d.e.4.f.g.h.i.j.k.  ",
"                                                                l.m.n.o.p.q.r.s.t.u.v.w.x.  ",
"                                                              y.z.A.B.C.D.E.F.6.G.H.I.J.K.  ",
"                                                        % L.M.N.O.P.Q.R.S.T.U.V.>.W.X.Y.Z.  ",
"                                                `. +.+++@+#+$+%+R.&+*+R.=+-+;+>+,+'+)+!+~+  ",
"                                          {+]+^+/+(+_+:+<+[+}+|+1+2+3+4+5+6+7+8+9+0+a+b+    ",
"                                  c+d+e+f+g+h+i+j+k+l+m+n+o+p+q+r+s+t+u+v+w+x+y+z+A+B+C+D+  ",
"                                E+F+h+G+H+I+J+K+L+M+N+O+P+Q+R+S+T+U+S+V+W+X+Y+Z+`+ @.@+@@@$ ",
"                              #@$@%@&@*@=@-@;@>@,@'@)@!@~@{@]@^@/@(@_@/@:@<@[@}@|@1@2@3@2@4@",
"                              5@6@R.R.R.R.7@8@9@0@a@b@c@d@e@f@f@g@f@h@e@i@j@k@l@m@n@o@p@q@r@",
"                              s@t@u@R.R.v@w@x@y@z@A@B@C@D@E@f@c@F@G@H@I@J@K@L@M@N@O@P@Q@R@S@",
"                                T@U@V@W@X@Y@R.Z@`@ #.#+#@###$#%#&#*#=#-#;#>#,#'#)#!#~#{#4@]#",
"                                  ^#/#(#_#:#<#[#}#|#1#2#3#4#5#6#7#8#9#0#a#b#c#d#e#f#g#h#i#  ",
"                                          j#k#l#m#n#o#p#q#r#s#t#u#v#w#x#y#z#A#B#C#D#E#F#    ",
"                                                G#H#I#J#K#L#M#N#O#R.v@R.P#Q#R#S#T#U#V#W#X#  ",
"                                                        Y#Z#`# $.$+$@$#$$$%$&$*$=$-$;$>$,$  ",
"                                                              '$)$!$~${$]$^$/$3.($_$:$<$[$  ",
"                                                                }$|$1$2$3$4$5$_$6$7$8$9$0$  ",
"                                                                  a$b$c$d$e$f$f./.g$h$i$j$  ",
"                                                                  k$l$m$-.n$;.o$p$q$r$s$t$  ",
"                                                                    u$v$w$_$g.x$y$z$A$B$C$  ",
"                                                                      D$E$F$_$G$H$I$J$K$L$  ",
"                                                                      M$N$O$x$P$Q$R$S$T$    ",
"                                                                        U$V$W$X$Y$Z$`$ %    ",
"                                                                          .%+%@%#%R.$%%%    ",
"                                                                          &%*%=%-%;%>%R     ",
"                                                                            ,%'%)%!%~%{%    ",
"                                                                    ]%Z#^%/%(%_%:%<%[%}%    ",
"                                                        |%1%/ r@@ 2%3%4%5%6%7%8%9%0%a%b%    ",
"                                                      1%c%d%e%f%g%h%i%j%k%l%m%n%o%p%q%      ",
"                                                        r%s%t%u%v%w%x%y%z%A%B%q@C%          ",
"                                                                  D%I#E%F%G%H%I#I%          ",
"                                                                                            "};
