/* XPM */
static char * playerTwo14_xpm[] = {
"46 46 669 2",
"  	c None",
". 	c #303030",
"+ 	c #534E3C",
"@ 	c #6A6658",
"# 	c #333333",
"$ 	c #444444",
"% 	c #646464",
"& 	c #373635",
"* 	c #4B4739",
"= 	c #6B675B",
"- 	c #6E6B63",
"; 	c #B1B0B0",
"> 	c #524D3E",
", 	c #403F38",
"' 	c #555553",
") 	c #757575",
"! 	c #8E8E8E",
"~ 	c #8A8A8A",
"{ 	c #525353",
"] 	c #71706C",
"^ 	c #7B7B7A",
"/ 	c #6D6D6D",
"( 	c #6C6D6D",
"_ 	c #54534E",
": 	c #47453D",
"< 	c #3E3A2A",
"[ 	c #3B3521",
"} 	c #353438",
"| 	c #42413A",
"1 	c #4B4A45",
"2 	c #6A6A69",
"3 	c #7E7E7E",
"4 	c #848484",
"5 	c #818181",
"6 	c #7B7B7B",
"7 	c #595959",
"8 	c #6E6E6E",
"9 	c #727272",
"0 	c #60605F",
"a 	c #4C4C49",
"b 	c #454233",
"c 	c #352C35",
"d 	c #2F2948",
"e 	c #353449",
"f 	c #4D4D4C",
"g 	c #6B6B6B",
"h 	c #828283",
"i 	c #767676",
"j 	c #787878",
"k 	c #7D7D7D",
"l 	c #828282",
"m 	c #898989",
"n 	c #797979",
"o 	c #4C4B41",
"p 	c #4B4836",
"q 	c #514E40",
"r 	c #4F4C3D",
"s 	c #504E3B",
"t 	c #29225D",
"u 	c #231E79",
"v 	c #292B70",
"w 	c #4B4B6C",
"x 	c #868686",
"y 	c #878787",
"z 	c #737373",
"A 	c #707070",
"B 	c #747474",
"C 	c #6F6F6F",
"D 	c #858585",
"E 	c #636363",
"F 	c #504F4D",
"G 	c #403E33",
"H 	c #514E3F",
"I 	c #545143",
"J 	c #69675F",
"K 	c #65635A",
"L 	c #626153",
"M 	c #605E4E",
"N 	c #393560",
"O 	c #212085",
"P 	c #4A4A4C",
"Q 	c #656763",
"R 	c #5D6062",
"S 	c #797A7A",
"T 	c #6E6F70",
"U 	c #595A5C",
"V 	c #616161",
"W 	c #666768",
"X 	c #636364",
"Y 	c #6C6C6C",
"Z 	c #717171",
"` 	c #7F7F7F",
" .	c #777778",
"..	c #484846",
"+.	c #535041",
"@.	c #565347",
"#.	c #6D6B63",
"$.	c #585547",
"%.	c #636156",
"&.	c #606058",
"*.	c #4A4A41",
"=.	c #403C41",
"-.	c #514858",
";.	c #4B4949",
">.	c #505051",
",.	c #665C55",
"'.	c #786C60",
").	c #65605A",
"!.	c #464441",
"~.	c #544F4A",
"{.	c #454645",
"].	c #55514D",
"^.	c #646362",
"/.	c #6B6C6D",
"(.	c #808080",
"_.	c #686868",
":.	c #333332",
"<.	c #2E2737",
"[.	c #5C594A",
"}.	c #625F55",
"|.	c #6B6962",
"1.	c #605D52",
"2.	c #56544C",
"3.	c #6B5E4F",
"4.	c #9C8166",
"5.	c #C09E78",
"6.	c #A98C6E",
"7.	c #88735D",
"8.	c #C2A07C",
"9.	c #E1B78B",
"0.	c #B29171",
"a.	c #D5AB82",
"b.	c #B29272",
"c.	c #9F8368",
"d.	c #BB9977",
"e.	c #7B6B5A",
"f.	c #4A4D4F",
"g.	c #7A7A7A",
"h.	c #40403F",
"i.	c #2E253D",
"j.	c #2F2751",
"k.	c #221A80",
"l.	c #332E7A",
"m.	c #5C5A52",
"n.	c #6A6853",
"o.	c #615F55",
"p.	c #5A594F",
"q.	c #454744",
"r.	c #514C46",
"s.	c #B19272",
"t.	c #FAC997",
"u.	c #FFD59F",
"v.	c #F5C595",
"w.	c #F8CA98",
"x.	c #FFCF9B",
"y.	c #FECD9A",
"z.	c #FFCD99",
"A.	c #FFD09B",
"B.	c #F9C997",
"C.	c #F8C896",
"D.	c #FACD99",
"E.	c #B39273",
"F.	c #484949",
"G.	c #777777",
"H.	c #7C7C7C",
"I.	c #8F8F8F",
"J.	c #8B8B8B",
"K.	c #5B5B5A",
"L.	c #2F2F2F",
"M.	c #59562F",
"N.	c #6B6746",
"O.	c #5A5469",
"P.	c #2928A9",
"Q.	c #0E13D3",
"R.	c #0D11EB",
"S.	c #1B13D6",
"T.	c #4F495D",
"U.	c #5C5940",
"V.	c #67655B",
"W.	c #57554C",
"X.	c #585146",
"Y.	c #806B56",
"Z.	c #DDB388",
"`.	c #FDCC9A",
" +	c #FFCD9A",
".+	c #FFCC99",
"++	c #FFD09C",
"@+	c #E6BA8C",
"#+	c #816D5A",
"$+	c #4F4F4E",
"%+	c #959595",
"&+	c #383838",
"*+	c #757264",
"=+	c #9A9781",
"-+	c #B9B3C9",
";+	c #716BDE",
">+	c #243AF8",
",+	c #0B2CFF",
"'+	c #0A29FF",
")+	c #1016EA",
"!+	c #342D75",
"~+	c #4D4839",
"{+	c #5C5A49",
"]+	c #5C5753",
"^+	c #806B55",
"/+	c #E7B684",
"(+	c #FFCE99",
"_+	c #FFD19B",
":+	c #FACA98",
"<+	c #FDCC99",
"[+	c #FFD29D",
"}+	c #E2BA8D",
"|+	c #736253",
"1+	c #33363B",
"2+	c #676767",
"3+	c #4F4F4F",
"4+	c #5A5739",
"5+	c #BCB9AC",
"6+	c #D9D6E6",
"7+	c #8686FC",
"8+	c #353AFF",
"9+	c #0F2EFF",
"0+	c #0D35FF",
"a+	c #1038FF",
"b+	c #0E20F0",
"c+	c #1F1BA1",
"d+	c #3F3A33",
"e+	c #535238",
"f+	c #5C5044",
"g+	c #AC8864",
"h+	c #FBC793",
"i+	c #DEB58C",
"j+	c #B5997B",
"k+	c #EFC394",
"l+	c #FFD39C",
"m+	c #FCD19C",
"n+	c #A78A6D",
"o+	c #3F3D3B",
"p+	c #535353",
"q+	c #838383",
"r+	c #888888",
"s+	c #797878",
"t+	c #494743",
"u+	c #474233",
"v+	c #6E6A5B",
"w+	c #A6A393",
"x+	c #DBD6E6",
"y+	c #A6A1FF",
"z+	c #3E42FF",
"A+	c #0620FF",
"B+	c #062CFF",
"C+	c #1039FF",
"D+	c #0E2CFF",
"E+	c #0C08E4",
"F+	c #2D274B",
"G+	c #3F3F36",
"H+	c #534B3F",
"I+	c #B28B66",
"J+	c #F6C28E",
"K+	c #FFD19D",
"L+	c #FFCF9A",
"M+	c #F7C695",
"N+	c #E8BB8F",
"O+	c #635F5A",
"P+	c #D4AF88",
"Q+	c #FDCF9A",
"R+	c #FFD9A2",
"S+	c #D3B086",
"T+	c #65594D",
"U+	c #424345",
"V+	c #696969",
"W+	c #42413D",
"X+	c #443F2D",
"Y+	c #615E4F",
"Z+	c #848275",
"`+	c #B0AEA7",
" @	c #DBD9D3",
".@	c #EDEBF0",
"+@	c #B5B1FE",
"@@	c #454AFF",
"#@	c #0D22FF",
"$@	c #0D34FF",
"%@	c #113AFF",
"&@	c #0E2FFD",
"*@	c #0412E7",
"=@	c #0904BD",
"-@	c #49428B",
";@	c #7F7778",
">@	c #58554C",
",@	c #A78563",
"'@	c #F7C390",
")@	c #FFD8A5",
"!@	c #F0CA9B",
"~@	c #BC9B78",
"{@	c #BA9776",
"]@	c #D0A983",
"^@	c #A48C75",
"/@	c #D4AE88",
"(@	c #FFCB99",
"_@	c #E8BD8F",
":@	c #7B6A5A",
"<@	c #4F4F50",
"[@	c #666666",
"}@	c #565555",
"|@	c #928E84",
"1@	c #E0DFDC",
"2@	c #E1E1DD",
"3@	c #FCFCF4",
"4@	c #FFFFFF",
"5@	c #BEBAFF",
"6@	c #4F4DFF",
"7@	c #0212FF",
"8@	c #0327FF",
"9@	c #1138FF",
"0@	c #0E31FF",
"a@	c #0F1FE6",
"b@	c #201C94",
"c@	c #474173",
"d@	c #8C8A8E",
"e@	c #B5ABA7",
"f@	c #69655C",
"g@	c #D1A477",
"h@	c #FBC894",
"i@	c #FFD7A4",
"j@	c #DEBD92",
"k@	c #8C7661",
"l@	c #786756",
"m@	c #98826C",
"n@	c #857768",
"o@	c #FFCE9A",
"p@	c #FFCE9B",
"q@	c #B89574",
"r@	c #544D48",
"s@	c #515152",
"t@	c #4A4634",
"u@	c #B2AFA9",
"v@	c #D5D4CA",
"w@	c #BDBBB9",
"x@	c #CCCACF",
"y@	c #D5D4F6",
"z@	c #696AFF",
"A@	c #0F1FFF",
"B@	c #082BFF",
"C@	c #0F37FF",
"D@	c #1037FF",
"E@	c #103AFF",
"F@	c #0C27FF",
"G@	c #181CA7",
"H@	c #676267",
"I@	c #C5C2B8",
"J@	c #E4E3C5",
"K@	c #AAB1AF",
"L@	c #63615B",
"M@	c #B18963",
"N@	c #FFC891",
"O@	c #FECB99",
"P@	c #F5C392",
"Q@	c #D4AD84",
"R@	c #F1C795",
"S@	c #C1A280",
"T@	c #796D63",
"U@	c #E8BB90",
"V@	c #FFD49F",
"W@	c #CEA981",
"X@	c #62574C",
"Y@	c #424445",
"Z@	c #585858",
"`@	c #474335",
" #	c #6A675C",
".#	c #636050",
"+#	c #433E48",
"@#	c #4640A2",
"##	c #413FFF",
"$#	c #1D23FA",
"%#	c #0622FF",
"&#	c #0F39FF",
"*#	c #103CFF",
"=#	c #0D22F7",
"-#	c #251F9A",
";#	c #7F797D",
">#	c #E1E1CC",
",#	c #E2E6EA",
"'#	c #6C7678",
")#	c #7A634C",
"!#	c #DFAD7C",
"~#	c #C59F7A",
"{#	c #E6B98C",
"]#	c #F3C493",
"^#	c #FECC99",
"/#	c #EDC394",
"(#	c #DAB28A",
"_#	c #F5C594",
":#	c #84705C",
"<#	c #434241",
"[#	c #575757",
"}#	c #919191",
"|#	c #3A341F",
"1#	c #575448",
"2#	c #676762",
"3#	c #504D42",
"4#	c #322E39",
"5#	c #1E1676",
"6#	c #1B15AF",
"7#	c #1311BE",
"8#	c #151BCA",
"9#	c #1120E3",
"0#	c #1025F2",
"a#	c #0E24FE",
"b#	c #0C28FF",
"c#	c #0B21FA",
"d#	c #1211D6",
"e#	c #453E97",
"f#	c #7F7D75",
"g#	c #BFBEAE",
"h#	c #FFFEFC",
"i#	c #8D999F",
"j#	c #6A6053",
"k#	c #B18A64",
"l#	c #A08364",
"m#	c #988066",
"n#	c #A5896C",
"o#	c #E9BF90",
"p#	c #FFD39E",
"q#	c #FDCB98",
"r#	c #FFD8A1",
"s#	c #B79675",
"t#	c #564F48",
"u#	c #505253",
"v#	c #38331D",
"w#	c #68665C",
"x#	c #71706B",
"y#	c #4F4B3C",
"z#	c #342D31",
"A#	c #241B77",
"B#	c #2D2469",
"C#	c #292176",
"D#	c #2B286D",
"E#	c #201AA6",
"F#	c #282579",
"G#	c #1C20AC",
"H#	c #131EE0",
"I#	c #100AE2",
"J#	c #1108C8",
"K#	c #302A7F",
"L#	c #878487",
"M#	c #EDEBDF",
"N#	c #C8D2D6",
"O#	c #656D6C",
"P#	c #8A6D52",
"Q#	c #E3B180",
"R#	c #BF9C78",
"S#	c #5F5449",
"T#	c #FDD09C",
"U#	c #F2C494",
"V#	c #B4987B",
"W#	c #C6A482",
"X#	c #FFD59E",
"Y#	c #C4A07B",
"Z#	c #5D554D",
"`#	c #5C5D5D",
" $	c #454545",
".$	c #323232",
"+$	c #3F3B28",
"@$	c #5E5B4F",
"#$	c #8C8B8B",
"$$	c #878789",
"%$	c #5B594F",
"&$	c #403C15",
"*$	c #2E1D65",
"=$	c #2C2861",
"-$	c #262282",
";$	c #292275",
">$	c #1F1783",
",$	c #221C56",
"'$	c #5C5751",
")$	c #CECDCA",
"!$	c #FCF9F8",
"~$	c #79888D",
"{$	c #6C5C4C",
"]$	c #DDAC7B",
"^$	c #E7B889",
"/$	c #756453",
"($	c #9B8267",
"_$	c #EFC594",
":$	c #F6CC99",
"<$	c #A48D75",
"[$	c #726962",
"}$	c #E3B88E",
"|$	c #F3C595",
"1$	c #FDCF9B",
"2$	c #A08468",
"3$	c #4A4644",
"4$	c #585959",
"5$	c #464232",
"6$	c #82807C",
"7$	c #8F8F90",
"8$	c #423F33",
"9$	c #282307",
"0$	c #433D2A",
"a$	c #96958E",
"b$	c #CEC8C3",
"c$	c #9DA4A7",
"d$	c #6A6863",
"e$	c #A6825F",
"f$	c #F3BE8A",
"g$	c #B19171",
"h$	c #66594C",
"i$	c #DDB489",
"j$	c #FCCB99",
"k$	c #E7BE8F",
"l$	c #A88D71",
"m$	c #A68D74",
"n$	c #9F8973",
"o$	c #B89C7E",
"p$	c #F5CA99",
"q$	c #B09373",
"r$	c #524B44",
"s$	c #4B4B4C",
"t$	c #404040",
"u$	c #3B3B3B",
"v$	c #403C29",
"w$	c #666459",
"x$	c #8D8C8D",
"y$	c #7E7E7F",
"z$	c #535148",
"A$	c #3E3928",
"B$	c #6D695D",
"C$	c #BDBBB7",
"D$	c #7F8281",
"E$	c #735E49",
"F$	c #E8B482",
"G$	c #D9AE82",
"H$	c #987E64",
"I$	c #DCB389",
"J$	c #E1B489",
"K$	c #A6886C",
"L$	c #8C755F",
"M$	c #D1A982",
"N$	c #C09F7E",
"O$	c #6C635B",
"P$	c #AB8F72",
"Q$	c #796856",
"R$	c #3C3A36",
"S$	c #424242",
"T$	c #3C3C3C",
"U$	c #363636",
"V$	c #545041",
"W$	c #878785",
"X$	c #919294",
"Y$	c #5F5C57",
"Z$	c #413C2D",
"`$	c #423D2D",
" %	c #AFACA6",
".%	c #949493",
"+%	c #78736B",
"@%	c #9A836A",
"#%	c #BD946B",
"$%	c #EEBD89",
"%%	c #FFD39D",
"&%	c #F6CB9A",
"*%	c #B09677",
"=%	c #AE8E70",
"-%	c #CDA67F",
";%	c #977F66",
">%	c #43413E",
",%	c #3F3D39",
"'%	c #363533",
")%	c #3D3925",
"!%	c #727169",
"~%	c #898987",
"{%	c #696557",
"]%	c #6F6B5F",
"^%	c #ADABA9",
"/%	c #7F9194",
"(%	c #625445",
"_%	c #C5986D",
":%	c #C39E79",
"<%	c #D2A97E",
"[%	c #DCBD90",
"}%	c #BFA783",
"|%	c #8A7661",
"1%	c #574E44",
"2%	c #3D3A38",
"3%	c #565346",
"4%	c #67665F",
"5%	c #5E5D58",
"6%	c #423D2B",
"7%	c #413D29",
"8%	c #C6B9B0",
"9%	c #BCCBCC",
"0%	c #5E7C86",
"a%	c #506568",
"b%	c #3A4E57",
"c%	c #586869",
"d%	c #636155",
"e%	c #57544E",
"f%	c #63615D",
"g%	c #454137",
"h%	c #444131",
"i%	c #525049",
"j%	c #474435",
"k%	c #4B4837",
"l%	c #90897D",
"m%	c #CAD0D0",
"n%	c #9ACFE4",
"o%	c #4CA8D0",
"p%	c #3099CD",
"q%	c #2490CA",
"r%	c #6D9FB2",
"s%	c #D1D6D7",
"t%	c #B0B0AD",
"u%	c #514D3E",
"v%	c #3A3623",
"w%	c #4A483C",
"x%	c #4D4B3F",
"y%	c #403B29",
"z%	c #636055",
"A%	c #827D72",
"B%	c #C3C5C2",
"C%	c #C0EAFB",
"D%	c #BAEBFE",
"E%	c #87D7FF",
"F%	c #BAE9FC",
"G%	c #F6F8F7",
"H%	c #BFBBB6",
"I%	c #646055",
"J%	c #454234",
"K%	c #5C5B57",
"L%	c #434030",
"M%	c #4D4739",
"N%	c #999188",
"O%	c #F0E7E3",
"P%	c #EDF9FE",
"Q%	c #F5FEFF",
"R%	c #F6F6F5",
"S%	c #AFADA8",
"T%	c #464135",
"U%	c #3E3A28",
"V%	c #4D493E",
"W%	c #4A473A",
"X%	c #5E5A4B",
"Y%	c #A09F99",
"Z%	c #E2E1E1",
"`%	c #FFFDFC",
" &	c #FFFEFE",
".&	c #D1D0CF",
"+&	c #686459",
"@&	c #3D3926",
"#&	c #4C4838",
"$&	c #999892",
"%&	c #EAEAE9",
"&&	c #E7E6E6",
"*&	c #8D8B81",
"=&	c #4A4534",
"-&	c #676458",
";&	c #D1D0CE",
">&	c #F6F7F9",
",&	c #99978F",
"'&	c #524E3F",
")&	c #908F86",
"!&	c #D4D3D0",
"~&	c #E6E6E6",
"{&	c #BBBAB7",
"]&	c #848178",
"^&	c #6C695D",
"/&	c #868379",
"(&	c #828076",
"_&	c #555040",
":&	c #45412E",
"                                                                                            ",
"                                                                                            ",
"                                                                                            ",
"                                                                                            ",
"                                                                                            ",
"                                                                                            ",
"                                                                                            ",
"                                                                                            ",
"                                                                                            ",
"                                                                                            ",
"                                                                                            ",
"                                                                                            ",
"                                                              .         + @                 ",
"                                                          # $ % % & * = - ; >               ",
"                                                        , ' ) ! ~ { ] ^ / ( _ : < [         ",
"                                                    } | 1 2 3 4 5 6 ) 7 8 4 9 0 a b         ",
"                                                c d e f g h 6 i j 6 k i l 3 m n 7 o p       ",
"                                      q r s   t u v w / x y z i i / A B C z l D E F G       ",
"                                  H I J K L M N O P Q R S T U V W X Y Z E k D ~ `  ...      ",
"                                +.@.#.$.%.&.*.=.-.;.>.,.'.).!.~.{.].^./.B (.x y D m _.:.    ",
"                            <.  [.}.|.1.#.2.3.4.5.6.7.8.9.0.a.b.c.d.e.f.) g.n 3 6 ~ k h.    ",
"                        i.j.k.l.m.n.o.p.q.r.s.t.u.v.w.x.y.z.A.B.C.D.E.F.A j G.H.l I.J.K.L.  ",
"                  M.N.O.P.Q.R.S.T.U.V.W.X.Y.Z.`. +.+.+ +.+.+z..+++@+#+$+Y i Z n l y %+G.&+  ",
"                *+=+-+;+>+,+'+)+!+~+{+]+^+/+(+.+.+.+.+.+_+:+<+ +[+}+|+1+V 9 2+C G.g.~ x 3+  ",
"              4+5+6+7+8+9+0+a+b+c+d+e+f+g+h+ +.+.+.+.+.+i+j+k+l+ +m+n+o+p+/ 8 z g.q+r+s+t+  ",
"          u+v+w+x+y+z+A+B+C+C+D+E+F+G+H+I+J+ +.+ +K+L+M+N+O+P+Q+z.R+S+T+U+V+G.j j l m A W+  ",
"    X+Y+Z+`+ @.@+@@@#@$@a+%@&@*@=@-@;@>@,@'@.+ +)@!@~@{@]@^@/@<+(@A._@:@<@9 G.[@V+) y ` }@  ",
"    |@1@2@3@4@5@6@7@8@%@9@0@a@b@c@d@e@f@g@h@.+.+i@j@k@l@m@n@L+o@.+p@q@r@s@8 j / 8 ) g.y E   ",
"  t@u@v@w@x@y@z@A@B@C@D@E@F@G@H@I@J@K@L@M@N@O@x.++P@Q@R@S@T@U@L+ +V@W@X@Y@E G.G.q+5 (.3 Z@  ",
"  `@ #.#+#@###$#%#&#D@C+*#=#-#;#>#4@,#'#)#!#~#{#]#^#o@u./#(#_#^#.+p@D.:#<#[#9 G.q+y }#r+7   ",
"|#1#2#3#4#5#6#7#8#9#0#a#b#c#d#e#f#g#h#i#j#k#l#m#n#o#p#.+.+o@ +q#z. +r#s#t#u#8 g.j n 3 j 7   ",
"v#w#4 x#y#z#A#B#C#D#E#F#G#H#I#J#K#L#M#N#O#P#Q#R#S#W@T# +.+U#V#W#X#o@<+Y#Z#`#n D k k /  $.$  ",
"+$@$#$$$%$&$        *$  =$-$;$>$,$'$)$!$~${$]$^$/$($_$[+x.:$<$[$}$|$1$2$3$4$i x H.g.[@      ",
"  5$6$7$Y 8$                    9$0$a$b$c$d$e$f$g$h$i$K+j$k$l$m$n$o$p$q$r$s$2+g p+t$u$      ",
"  v$w$x$y$z$A$                        B$C$D$E$F$G$H$I$^#J$K$L$M$N$O$P$Q$R$t$S$T$U$          ",
"    V$W$X$Y$Z$                        `$ %.%+%@%#%$%%%x.&%*%=%-%;%>%,%'%                    ",
"    )%!%~%o.                            {%]%^%/%(%_%:%<%[%}%|%1%2%                          ",
"      3%4%5%6%                            7%8%9%0%a%b%c%d%e%f%g%                            ",
"        h%i%j%                            k%l%m%n%o%p%q%r%s%t%u%                            ",
"        v%w%x%y%                            z%A%B%C%D%E%F%G%H%I%                            ",
"          J%K%L%                              M%N%O%4@P%Q%R%S%T%                            ",
"          U%V%W%                                X%Y%Z%`%4@ &.&+&                            ",
"              @&                                  #&$&%&4@4@&&*&=&                          ",
"                                                    -&;&4@4@>&,&                            ",
"                                                    '&)&!&~&{&]&                            ",
"                                                      ^&/&(&_&:&                            "};
