/* XPM */
static char * playerTwo09_xpm[] = {
"46 46 622 2",
"  	c None",
". 	c #4A4636",
"+ 	c #413D2A",
"@ 	c #4C4837",
"# 	c #4A4635",
"$ 	c #423E2C",
"% 	c #4C4839",
"& 	c #36301A",
"* 	c #403C2B",
"= 	c #413E2E",
"- 	c #49463A",
"; 	c #393521",
"> 	c #535045",
", 	c #72716B",
"' 	c #838380",
") 	c #82817E",
"! 	c #7D7C77",
"~ 	c #83817E",
"{ 	c #807F7B",
"] 	c #75746E",
"^ 	c #545144",
"/ 	c #3F3B29",
"( 	c #535048",
"_ 	c #5C5B57",
": 	c #504F45",
"< 	c #53514A",
"[ 	c #605F5C",
"} 	c #7B7B76",
"| 	c #929395",
"1 	c #8C8D90",
"2 	c #909092",
"3 	c #8C8C8E",
"4 	c #919194",
"5 	c #7D7D7D",
"6 	c #62615B",
"7 	c #514D40",
"8 	c #4C4836",
"9 	c #474435",
"0 	c #454131",
"a 	c #44402F",
"b 	c #443F2E",
"c 	c #504D40",
"d 	c #5E5B56",
"e 	c #62615C",
"f 	c #636361",
"g 	c #62615E",
"h 	c #66645D",
"i 	c #57554E",
"j 	c #514E3B",
"k 	c #9F9C94",
"l 	c #C1BEB9",
"m 	c #595444",
"n 	c #3F3A2A",
"o 	c #413D2E",
"p 	c #3B3727",
"q 	c #433F18",
"r 	c #403B30",
"s 	c #312D3A",
"t 	c #49453F",
"u 	c #CBCBBF",
"v 	c #EBEAE8",
"w 	c #545040",
"x 	c #231B5C",
"y 	c #1F1796",
"z 	c #5F5A78",
"A 	c #D2D1CE",
"B 	c #D7D7D3",
"C 	c #6C6A5B",
"D 	c #2D246A",
"E 	c #1A14AD",
"F 	c #322FFA",
"G 	c #C0BDDC",
"H 	c #FFFFF8",
"I 	c #D7D6D2",
"J 	c #585443",
"K 	c #281F7B",
"L 	c #0F12D8",
"M 	c #3236FF",
"N 	c #C6C6FF",
"O 	c #FFFFFF",
"P 	c #D0CEC9",
"Q 	c #514C3E",
"R 	c #2F2C58",
"S 	c #1719C2",
"T 	c #0C27F9",
"U 	c #0719FF",
"V 	c #5B56FF",
"W 	c #E9E7FF",
"X 	c #D9D7CE",
"Y 	c #645F4E",
"Z 	c #2D1E67",
"` 	c #1C1AB7",
" .	c #1026EF",
"..	c #0F39FF",
"+.	c #0826FF",
"@.	c #2F31FF",
"#.	c #B7B3FF",
"$.	c #DEDBE0",
"%.	c #656247",
"&.	c #312A48",
"*.	c #131CE3",
"=.	c #0F31FD",
"-.	c #1039FF",
";.	c #0A2FFF",
">.	c #0010FF",
",.	c #696BFF",
"'.	c #D4CFF1",
").	c #BDBBAD",
"!.	c #757267",
"~.	c #2A266A",
"{.	c #1B20B0",
"].	c #0C25FF",
"^.	c #1036FF",
"/.	c #0221FF",
"(.	c #3637FF",
"_.	c #B2AEFF",
":.	c #D7D5CB",
"<.	c #636048",
"[.	c #312A4D",
"}.	c #1918C5",
"|.	c #0F22F2",
"1.	c #0D2DFF",
"2.	c #103DFF",
"3.	c #103AFF",
"4.	c #123AFF",
"5.	c #0D34FF",
"6.	c #0F23FF",
"7.	c #6164FF",
"8.	c #C4BFDA",
"9.	c #686541",
"0.	c #282078",
"a.	c #130BD7",
"b.	c #0B0CE6",
"c.	c #1116DA",
"d.	c #0C22FF",
"e.	c #0E32FF",
"f.	c #1037FF",
"g.	c #0F36FF",
"h.	c #0323FF",
"i.	c #393CFF",
"j.	c #857DCA",
"k.	c #6A654E",
"l.	c #28221A",
"m.	c #130B9C",
"n.	c #1810BE",
"o.	c #423B90",
"p.	c #3F3575",
"q.	c #181CA6",
"r.	c #0D26F6",
"s.	c #1139FF",
"t.	c #082DFF",
"u.	c #1A3AFF",
"v.	c #383AD7",
"w.	c #3E383D",
"x.	c #4B4634",
"y.	c #484236",
"z.	c #454078",
"A.	c #59555C",
"B.	c #B5B5A5",
"C.	c #ABA88B",
"D.	c #423D60",
"E.	c #0E12D8",
"F.	c #0E31FF",
"G.	c #113BFF",
"H.	c #0B2BFF",
"I.	c #1217CC",
"J.	c #2A2249",
"K.	c #555141",
"L.	c #6C695F",
"M.	c #B8B7B4",
"N.	c #C0BFB9",
"O.	c #B5B39E",
"P.	c #C1C0B1",
"Q.	c #FCFDFB",
"R.	c #E2E1D4",
"S.	c #524C6D",
"T.	c #0200BF",
"U.	c #0E2CFF",
"V.	c #0C28FF",
"W.	c #0F32FD",
"X.	c #091FFF",
"Y.	c #1411CA",
"Z.	c #352C3F",
"`.	c #5A584C",
" +	c #595545",
".+	c #5B5748",
"++	c #B3B1AC",
"@+	c #BEBAB4",
"#+	c #C6C0BA",
"$+	c #FAF4F3",
"%+	c #FFFEFD",
"&+	c #FFFDFC",
"*+	c #CFCEAE",
"=+	c #6F6D87",
"-+	c #1710AD",
";+	c #0D08E1",
">+	c #1415CB",
",+	c #1416D8",
"'+	c #120CED",
")+	c #1A12B4",
"!+	c #2C2543",
"~+	c #504B3A",
"{+	c #555144",
"]+	c #655E50",
"^+	c #AFAAA5",
"/+	c #C7BEB5",
"(+	c #C7BBB4",
"_+	c #9D9894",
":+	c #898988",
"<+	c #848A8B",
"[+	c #7B878B",
"}+	c #78878B",
"|+	c #72858B",
"1+	c #7A868B",
"2+	c #79878B",
"3+	c #72838A",
"4+	c #ACA7A4",
"5+	c #B2A4A4",
"6+	c #3E385D",
"7+	c #322D37",
"8+	c #3B344F",
"9+	c #403859",
"0+	c #4C4766",
"a+	c #484557",
"b+	c #585447",
"c+	c #524E3E",
"d+	c #4D493B",
"e+	c #5B5849",
"f+	c #A3A29C",
"g+	c #C8BFB8",
"h+	c #C3C5C2",
"i+	c #BFDBE4",
"j+	c #BACBCC",
"k+	c #8FA7AE",
"l+	c #7D7D76",
"m+	c #705E4C",
"n+	c #705D4B",
"o+	c #715E4B",
"p+	c #735F4C",
"q+	c #725F4B",
"r+	c #69655B",
"s+	c #5E5D57",
"t+	c #424237",
"u+	c #4F4F36",
"v+	c #545238",
"w+	c #545039",
"x+	c #6A684F",
"y+	c #676556",
"z+	c #565343",
"A+	c #747165",
"B+	c #939289",
"C+	c #BBBAB6",
"D+	c #B5B4B1",
"E+	c #CCCDCB",
"F+	c #F7F4F4",
"G+	c #8FD8F6",
"H+	c #49A0C5",
"I+	c #516366",
"J+	c #615344",
"K+	c #AD8A67",
"L+	c #E9B582",
"M+	c #ECB783",
"N+	c #E4B17F",
"O+	c #C2986E",
"P+	c #D3A476",
"Q+	c #EAB682",
"R+	c #C59B72",
"S+	c #675847",
"T+	c #625446",
"U+	c #584F43",
"V+	c #5E5C56",
"W+	c #67655B",
"X+	c #615F54",
"Y+	c #64625A",
"Z+	c #555245",
"`+	c #524F40",
" @	c #524F3F",
".@	c #B0AEA9",
"+@	c #EAEAE8",
"@@	c #F4FAFD",
"#@	c #C8F0FF",
"$@	c #48B0E2",
"%@	c #2D5365",
"&@	c #A28262",
"*@	c #DFAD7B",
"=@	c #D7AB7E",
"-@	c #D5AC82",
";@	c #D6AC83",
">@	c #D6AD83",
",@	c #C49F7A",
"'@	c #8C765E",
")@	c #C59F7A",
"!@	c #FECB98",
"~@	c #F4C18F",
"{@	c #DBAA7A",
"]@	c #CDA073",
"^@	c #695948",
"/@	c #5F5B56",
"(@	c #525044",
"_@	c #646259",
":@	c #6B6961",
"<@	c #6A685F",
"[@	c #504D3D",
"}@	c #494432",
"|@	c #C5C5C4",
"1@	c #D9F4FF",
"2@	c #6AC9FA",
"3@	c #1988C3",
"4@	c #43565C",
"5@	c #C39E79",
"6@	c #FFD19A",
"7@	c #A78A6C",
"8@	c #605449",
"9@	c #5D5247",
"0@	c #5C5247",
"a@	c #6D5F50",
"b@	c #C39F7B",
"c@	c #FCC997",
"d@	c #FFCC99",
"e@	c #FECB97",
"f@	c #FCC894",
"g@	c #D0A376",
"h@	c #675A4A",
"i@	c #434440",
"j@	c #6E6C65",
"k@	c #484433",
"l@	c #4D4937",
"m@	c #A6A49E",
"n@	c #F6F7F9",
"o@	c #FCFCFD",
"p@	c #FAFAFA",
"q@	c #FEFEFE",
"r@	c #F0FDFF",
"s@	c #8ECAE2",
"t@	c #48626B",
"u@	c #A0886A",
"v@	c #F0BF8E",
"w@	c #FFCF9B",
"x@	c #E4B98D",
"y@	c #D0AA82",
"z@	c #CFAA82",
"A@	c #D4AE85",
"B@	c #F3C393",
"C@	c #FFCE9B",
"D@	c #FFCD9A",
"E@	c #F0C18F",
"F@	c #7B6855",
"G@	c #474743",
"H@	c #68665E",
"I@	c #646257",
"J@	c #6A6860",
"K@	c #87847C",
"L@	c #A09F97",
"M@	c #B8B7B2",
"N@	c #BFBEBC",
"O@	c #C3C2BD",
"P@	c #F2EEEB",
"Q@	c #D1D6D7",
"R@	c #52524C",
"S@	c #CDB48B",
"T@	c #FFD39F",
"U@	c #FFD19D",
"V@	c #FFD29D",
"W@	c #FFD19C",
"X@	c #FFCD99",
"Y@	c #FAC896",
"Z@	c #FCD8A6",
"`@	c #FFD8A5",
" #	c #FBCB99",
".#	c #D0A981",
"+#	c #766757",
"@#	c #4A4840",
"##	c #6B6B62",
"$#	c #59584B",
"%#	c #4B4838",
"&#	c #4F4B3A",
"*#	c #5A5647",
"=#	c #464134",
"-#	c #605C51",
";#	c #ABA9A3",
">#	c #9D9D9A",
",#	c #59554E",
"'#	c #C9AE88",
")#	c #B59979",
"!#	c #CBA47E",
"~#	c #FCCB99",
"{#	c #F3C594",
"]#	c #AB8C6F",
"^#	c #CCAF88",
"/#	c #FED3A0",
"(#	c #FBCA98",
"_#	c #907961",
":#	c #474640",
"<#	c #64634F",
"[#	c #53513A",
"}#	c #474231",
"|#	c #4D493E",
"1#	c #514A42",
"2#	c #C39E7B",
"3#	c #796755",
"4#	c #AC8C6F",
"5#	c #FFD39D",
"6#	c #FFD59F",
"7#	c #F1C795",
"8#	c #706051",
"9#	c #A6896C",
"0#	c #FDCB98",
"a#	c #FECE9A",
"b#	c #947B62",
"c#	c #333243",
"d#	c #413C60",
"e#	c #4F4840",
"f#	c #CCA67F",
"g#	c #B39373",
"h#	c #A2886E",
"i#	c #B69A7C",
"j#	c #D5AF87",
"k#	c #F6C696",
"l#	c #C8A682",
"m#	c #B29679",
"n#	c #937C65",
"o#	c #CEA680",
"p#	c #FECC99",
"q#	c #F9C997",
"r#	c #C6A17D",
"s#	c #6E6054",
"t#	c #2B2B6D",
"u#	c #1E199D",
"v#	c #2D253D",
"w#	c #4A443F",
"x#	c #BF9D7A",
"y#	c #E9BC90",
"z#	c #9D8772",
"A#	c #645F5C",
"B#	c #A48C75",
"C#	c #EDBF91",
"D#	c #867668",
"E#	c #6E675F",
"F#	c #BD9D7E",
"G#	c #E5B98D",
"H#	c #F0C193",
"I#	c #EFC494",
"J#	c #736353",
"K#	c #404346",
"L#	c #4B4B4B",
"M#	c #272873",
"N#	c #342C3B",
"O#	c #3A3938",
"P#	c #5E5954",
"Q#	c #726961",
"R#	c #C3A281",
"S#	c #F4C494",
"T#	c #9E8872",
"U#	c #635F5A",
"V#	c #AA9177",
"W#	c #FACD99",
"X#	c #F0C494",
"Y#	c #766556",
"Z#	c #5D6062",
"`#	c #686868",
" $	c #2B2C6F",
".$	c #302945",
"+$	c #49443E",
"@$	c #B99A7A",
"#$	c #E4BD91",
"$$	c #F3C595",
"%$	c #FFCE9A",
"&$	c #FDCC99",
"*$	c #E9BD91",
"=$	c #DAB48B",
"-$	c #EBBE91",
";$	c #E0B78B",
">$	c #766759",
",$	c #5C5E60",
"'$	c #6E6E6E",
")$	c #46464D",
"!$	c #36353A",
"~$	c #4D463F",
"{$	c #C8A780",
"]$	c #F7CC99",
"^$	c #FACB98",
"/$	c #FFD09B",
"($	c #FFD29C",
"_$	c #F4C393",
":$	c #85715D",
"<$	c #716E6A",
"[$	c #828383",
"}$	c #818181",
"|$	c #565656",
"1$	c #42413A",
"2$	c #3B3936",
"3$	c #685A4D",
"4$	c #806B58",
"5$	c #CDA67F",
"6$	c #EFBF90",
"7$	c #534C44",
"8$	c #565759",
"9$	c #8C8C8C",
"0$	c #666666",
"a$	c #43423A",
"b$	c #373737",
"c$	c #444444",
"d$	c #464545",
"e$	c #6B5E52",
"f$	c #836E5A",
"g$	c #836F5B",
"h$	c #957B63",
"i$	c #EFC191",
"j$	c #FFD8A1",
"k$	c #FFD39E",
"l$	c #FFD49E",
"m$	c #E8BB8D",
"n$	c #8E7761",
"o$	c #4E4B48",
"p$	c #5C5C5D",
"q$	c #727272",
"r$	c #7F7F7F",
"s$	c #747474",
"t$	c #565653",
"u$	c #353535",
"v$	c #3C3C3C",
"w$	c #5E5E5E",
"x$	c #646464",
"y$	c #626262",
"z$	c #4E4F4F",
"A$	c #424141",
"B$	c #414241",
"C$	c #4E4A47",
"D$	c #927B64",
"E$	c #A98C6E",
"F$	c #A5886C",
"G$	c #A1856A",
"H$	c #CEA67F",
"I$	c #DAAF86",
"J$	c #4D4841",
"K$	c #58595A",
"L$	c #787878",
"M$	c #767676",
"N$	c #6C6C6C",
"O$	c #363636",
"P$	c #3F3F3F",
"Q$	c #797979",
"R$	c #676767",
"S$	c #5D5D5D",
"T$	c #585859",
"U$	c #404040",
"V$	c #383839",
"W$	c #3A3A3A",
"X$	c #333437",
"Y$	c #776757",
"Z$	c #AD8F71",
"`$	c #57524E",
" %	c #646465",
".%	c #777777",
"+%	c #7B7B7B",
"@%	c #929292",
"#%	c #8B8B8B",
"$%	c #808080",
"%%	c #737373",
"&%	c #5F5F5F",
"*%	c #5A5A5A",
"=%	c #5C5C5C",
"-%	c #515150",
";%	c #414140",
">%	c #4D4C4C",
",%	c #6D6D6D",
"'%	c #636363",
")%	c #7C7C7C",
"!%	c #888888",
"~%	c #717171",
"{%	c #757575",
"]%	c #707070",
"^%	c #6F6F70",
"/%	c #838383",
"(%	c #414141",
"_%	c #3E3E3E",
":%	c #454545",
"<%	c #848484",
"[%	c #606060",
"}%	c #7A7A7A",
"|%	c #616161",
"1%	c #7E7D7C",
"2%	c #4A463A",
"3%	c #898989",
"4%	c #878787",
"5%	c #6F6F6F",
"6%	c #7E7E7E",
"7%	c #858585",
"8%	c #7C7C7A",
"9%	c #686456",
"0%	c #393939",
"a%	c #969696",
"b%	c #868686",
"c%	c #646463",
"d%	c #7F7E7C",
"e%	c #524D3C",
"f%	c #696969",
"g%	c #676766",
"h%	c #B1B0B0",
"i%	c #666254",
"j%	c #6B6B6B",
"k%	c #8A8A8A",
"l%	c #8D8D8D",
"m%	c #979797",
"n%	c #828282",
"o%	c #6A6A6A",
"p%	c #535250",
"q%	c #464337",
"r%	c #4E4937",
"s%	c #3C3B37",
"t%	c #45433F",
"u%	c #4E4E4D",
"v%	c #4F4F4E",
"w%	c #4C4C49",
"x%	c #413E32",
"y%	c #383837",
"z%	c #373736",
"A%	c #3A3933",
"B%	c #494637",
"C%	c #4C4A39",
"D%	c #413C2C",
"E%	c #3A341F",
"                                                                                            ",
"                                    . + @ # $ % + &                                         ",
"                          * = - ; > , ' ) ! ~ { ] ^                                         ",
"                        / ( _ : < [ } | 1 2 3 4 5 6 7 8                                     ",
"                          9 / 0 a b c d e f g h i j k l m                                   ",
"                                      n o p q r s t u v w                                   ",
"                                              x y z A B C                                   ",
"                                            D E F G H I J                                   ",
"                                            K L M N O P Q                                   ",
"                                          R S T U V W X Y                                   ",
"                                        Z `  ...+.@.#.$.%.                                  ",
"                                        &.*.=.-.;.>.,.'.).!.                                ",
"                                      ~.{.].-.^.../.(._.:.<.                                ",
"                                    [.}.|.1.2.3.4.5.6.7.8.9.                                ",
"                                    0.a.b.c.d.e.f.g.h.i.j.k.                                ",
"                                  l.m.n.o.p.q.r.-.s.t.u.v.w.                                ",
"                                x.y.z.A.B.C.D.E.F.G.-.H.I.J.                                ",
"                          K.o L.M.N.O.P.Q.R.S.T.U.V.W.X.Y.Z.                                ",
"                  `. ++ .+++@+#+$+%+O &+O *+=+-+;+>+,+'+)+!+                                ",
"            ~+{+]+^+/+(+_+:+<+[+}+|+1+2+3+4+5+6+7+8+9+0+a+                                  ",
"    b+c+d+e+f+g+h+i+j+k+l+m+n+n+o+p+q+n+o+r+s+t+u+v+w+x+y+z+                                ",
"  A+B+C+D+E+F+O G+H+I+J+K+L+M+M+N+O+P+Q+M+R+S+T+U+V+W+X+Y+Z+`+                              ",
" @.@+@O O &+@@#@$@%@&@*@=@-@;@>@,@'@)@!@!@~@{@]@^@/@(@_@:@<@[@                              ",
"}@|@O O O O 1@2@3@4@5@6@7@8@9@0@a@b@c@d@d@d@e@f@g@h@i@j@k@] a                               ",
"l@m@n@o@p@q@r@s@t@u@v@w@x@y@z@z@A@B@w@C@D@d@d@d@E@F@G@H@I@J@Z+                              ",
"  K@L@M@N@O@P@Q@R@S@T@c@w@U@V@V@W@X@Y@Z@`@d@d@d@ #.#+#@###$#%#                              ",
"    &#*#=#-#;#>#,#'#)#!#~#d@d@d@D@{#]#^#/#d@d@d@D@(#_#:#<#[#                                ",
"            }#|#1#2#3#4#5#W@d@X@6#7#8#9#0#d@d@d@D@a#b#c#d#                                  ",
"                e#f#g#h#i#j#X@k#l#m#n#o#p#d@d@d@q#r#s#t#u#v#                                ",
"                w#x#y#z#A#B#D@C#D#E#F#G#H#p#d@D@I#J#K#L#M#N#                                ",
"                O#P#Q#R#0#!@d@p#d@S#T#U#V#W#d@D@X#Y#Z#`# $.$                                ",
"                +$@$#$$$%$X@d@d@%$&$*$=$-$p#d@p#;$>$,$'$)$!$                                ",
"                ~${$]$^$D@D@D@D@d@d@/$($w@d@X@_$:$<$[$}$|$1$                                ",
"                2$3$4$5$w@/$/$w@d@d@d@d@d@d@%$6$7$8$5 9$0$a$                                ",
"              b$c$c$d$e$f$g$g$h$i$j$k$l$W@%$m$n$o$p$q$r$s$t$u$                              ",
"              v$w$x$y$z$A$B$B$C$D$E$F$G$H$V@I$J$K$q$L$M$}$N$O$                              ",
"              P$q$r$Q$R$S$S$S$T$U$V$W$X$Y$!#Z$`$ %s$.%+%@%+%b$                              ",
"              P$s$#%$%M$M$M$M$%%&%*%*%=%-%;%>%,%'%'$)%$%!%~%O$                              ",
"              P$%%+%L$Q$L${%s$.%s$]%q$s$~%'$^%%%s$.%/%'$(%_%                                ",
"              :%/%)%L$!%<%N$[%.%s$0$,%.%L$}%s$|%q$.%=%1%2%                                  ",
"                |$q$3%4%)%q$,%L${%5%%%.%.%6%7%]%M$<%S$8%9%                                  ",
"                0%M$a%<%.%L$)%b%}%Q$<%5 r$3%7%}%}%9$c%d%e%                                  ",
"                P$[%f%)%#%#%3%b%+%}$!%)%5 !%3%#%3%~%g%h%i%                                  ",
"                    W$S$N$j%]%k%l%m%@%k%#%n%j%j%o%p%q%r%                                    ",
"                        W$s%t%.%}%}%}%Q$}%,%u%v%w%x%                                        ",
"                              b$b$b$y%y%z%A%B%C%D%E%                                        "};
