/* XPM */
static char * playerTwo16_xpm[] = {
"46 46 670 2",
"  	c None",
". 	c #3A341F",
"+ 	c #3F3A28",
"@ 	c #524C3A",
"# 	c #423E2D",
"$ 	c #434036",
"% 	c #444138",
"& 	c #47463C",
"* 	c #4C4B3B",
"= 	c #454234",
"- 	c #656153",
"; 	c #AFAEAE",
"> 	c #5A5852",
", 	c #565553",
"' 	c #616160",
") 	c #59595A",
"! 	c #4D4D4C",
"~ 	c #545350",
"{ 	c #454442",
"] 	c #343434",
"^ 	c #30302F",
"/ 	c #605B4A",
"( 	c #69665C",
"_ 	c #797878",
": 	c #6C6C6C",
"< 	c #7A7A7A",
"[ 	c #868686",
"} 	c #787878",
"| 	c #6B6B6B",
"1 	c #7B7B7C",
"2 	c #808081",
"3 	c #6F6F6F",
"4 	c #515150",
"5 	c #3A3A39",
"6 	c #303030",
"7 	c #575345",
"8 	c #7C7C79",
"9 	c #606060",
"0 	c #838382",
"a 	c #818181",
"b 	c #808080",
"c 	c #8A8A8A",
"d 	c #888888",
"e 	c #878787",
"f 	c #8B8B8B",
"g 	c #797979",
"h 	c #5E5E5E",
"i 	c #424242",
"j 	c #454544",
"k 	c #393939",
"l 	c #504E4A",
"m 	c #5C5C5C",
"n 	c #767676",
"o 	c #747474",
"p 	c #848484",
"q 	c #7B7B7B",
"r 	c #949494",
"s 	c #939393",
"t 	c #898989",
"u 	c #706F6E",
"v 	c #3C3A36",
"w 	c #353535",
"x 	c #6E6E6E",
"y 	c #7F7F7F",
"z 	c #6A6A6A",
"A 	c #7C7C7C",
"B 	c #7D7D7D",
"C 	c #7E7E7E",
"D 	c #5B5B59",
"E 	c #474645",
"F 	c #373738",
"G 	c #484848",
"H 	c #858585",
"I 	c #929292",
"J 	c #727272",
"K 	c #717171",
"L 	c #6F6F70",
"M 	c #777777",
"N 	c #838383",
"O 	c #757575",
"P 	c #313131",
"Q 	c #575857",
"R 	c #646464",
"S 	c #6C6D6D",
"T 	c #5E5F61",
"U 	c #4B4B4B",
"V 	c #51514C",
"W 	c #666768",
"X 	c #535251",
"Y 	c #776A5D",
"Z 	c #5E554C",
"` 	c #444646",
" .	c #636363",
"..	c #555555",
"+.	c #3F3E35",
"@.	c #4E4D49",
"#.	c #6D6D6D",
"$.	c #5D5D5E",
"%.	c #535252",
"&.	c #4E4941",
"*.	c #C8A17D",
"=.	c #DEB388",
"-.	c #7C6B5A",
";.	c #484849",
">.	c #595959",
",.	c #737373",
"'.	c #626262",
").	c #707070",
"!.	c #919191",
"~.	c #414141",
"{.	c #3B3A39",
"].	c #4F4F4F",
"^.	c #878888",
"/.	c #636466",
"(.	c #454646",
"_.	c #746555",
":.	c #AD8E70",
"<.	c #F6C695",
"[.	c #FCCF9B",
"}.	c #AE8E6F",
"|.	c #4E4742",
"1.	c #393A3A",
"2.	c #3C3E41",
"3.	c #555656",
"4.	c #828282",
"5.	c #4A4A4A",
"6.	c #322F47",
"7.	c #4D4D57",
"8.	c #767777",
"9.	c #706D6A",
"0.	c #675B4E",
"a.	c #E7B98C",
"b.	c #FACA97",
"c.	c #FDCC98",
"d.	c #FFD19C",
"e.	c #ECC392",
"f.	c #BF9D7A",
"g.	c #9D8268",
"h.	c #6A5C4F",
"i.	c #494746",
"j.	c #616162",
"k.	c #5D5D5D",
"l.	c #352C39",
"m.	c #272666",
"n.	c #53546C",
"o.	c #656867",
"p.	c #605B57",
"q.	c #9B836A",
"r.	c #CDA780",
"s.	c #FECB98",
"t.	c #FFCE9A",
"u.	c #FFCC99",
"v.	c #FFD29D",
"w.	c #FFD7A0",
"x.	c #F7D19C",
"y.	c #CBA780",
"z.	c #675C52",
"A.	c #444647",
"B.	c #525353",
"C.	c #5F5F5F",
"D.	c #434343",
"E.	c #2D2547",
"F.	c #242383",
"G.	c #4C4C4B",
"H.	c #484D51",
"I.	c #6B5E52",
"J.	c #DAB389",
"K.	c #FECD9A",
"L.	c #FFCD9A",
"M.	c #FFCD99",
"N.	c #FECC99",
"O.	c #FFD09B",
"P.	c #FFD09C",
"Q.	c #F7C695",
"R.	c #927962",
"S.	c #60564C",
"T.	c #484642",
"U.	c #404142",
"V.	c #545656",
"W.	c #383838",
"X.	c #302A71",
"Y.	c #222084",
"Z.	c #403D5D",
"`.	c #655B4F",
" +	c #947C63",
".+	c #F8CB99",
"++	c #FDCE9A",
"@+	c #E3B88E",
"#+	c #E7BE90",
"$+	c #F8CB98",
"%+	c #FFCB99",
"&+	c #F8CA98",
"*+	c #C8A57E",
"=+	c #937B63",
"-+	c #6C5D50",
";+	c #52504D",
">+	c #53513A",
",+	c #585552",
"'+	c #333341",
")+	c #786658",
"!+	c #CBA57E",
"~+	c #ECBF90",
"{+	c #EFC393",
"]+	c #998470",
"^+	c #746B61",
"/+	c #D2AC87",
"(+	c #FDCC99",
"_+	c #FFCF9B",
":+	c #FFD59F",
"<+	c #C9A47E",
"[+	c #695C51",
"}+	c #434345",
"|+	c #505051",
"1+	c #545454",
"2+	c #514E40",
"3+	c #535143",
"4+	c #616154",
"5+	c #606052",
"6+	c #514C44",
"7+	c #A5886B",
"8+	c #FFD49E",
"9+	c #FDCB99",
"0+	c #EEBF91",
"a+	c #B99A7C",
"b+	c #B99B7D",
"c+	c #F0C292",
"d+	c #A18469",
"e+	c #63564B",
"f+	c #413F3E",
"g+	c #3C3C3C",
"h+	c #4A4636",
"i+	c #6B6961",
"j+	c #68665C",
"k+	c #5B5951",
"l+	c #5E554A",
"m+	c #B99877",
"n+	c #FBCA97",
"o+	c #CEA680",
"p+	c #AA8E72",
"q+	c #756B61",
"r+	c #867668",
"s+	c #EABD90",
"t+	c #FFD19B",
"u+	c #FCCC99",
"v+	c #FDCE9B",
"w+	c #F6CB99",
"x+	c #A88D6F",
"y+	c #3D3A36",
"z+	c #545143",
"A+	c #6F6E67",
"B+	c #4E4A3A",
"C+	c #6B6962",
"D+	c #484843",
"E+	c #977D64",
"F+	c #F4C695",
"G+	c #FFCC9A",
"H+	c #FFCB98",
"I+	c #FFD29E",
"J+	c #DAB288",
"K+	c #86715C",
"L+	c #8F7963",
"M+	c #C2A280",
"N+	c #BD9D7D",
"O+	c #F3C494",
"P+	c #C5A382",
"Q+	c #E4B98E",
"R+	c #DAB28A",
"S+	c #B89C7E",
"T+	c #C9A784",
"U+	c #7F6D5A",
"V+	c #373534",
"W+	c #524F3F",
"X+	c #5C594D",
"Y+	c #6C6A63",
"Z+	c #656259",
"`+	c #5B5B55",
" @	c #48453F",
".@	c #8F765B",
"+@	c #F9C793",
"@@	c #FFD7A4",
"#@	c #DCBD92",
"$@	c #9E836A",
"%@	c #D6AF85",
"&@	c #FFD6A0",
"*@	c #F9CB99",
"=@	c #A18A73",
"-@	c #68625D",
";@	c #AC9178",
">@	c #93806E",
",@	c #5E5954",
"'@	c #403E3B",
")@	c #555243",
"!@	c #64625A",
"~@	c #615F56",
"{@	c #575549",
"]@	c #5B5751",
"^@	c #8E745A",
"/@	c #EFBC8A",
"(@	c #FFCF9A",
"_@	c #FFD4A1",
":@	c #ECBD8E",
"<@	c #FCCD9A",
"[@	c #E3BD90",
"}@	c #A98E73",
"|@	c #B79778",
"1@	c #E4B88B",
"2@	c #8D7761",
"3@	c #373636",
"4@	c #5C5A4B",
"5@	c #6B6A56",
"6@	c #66634E",
"7@	c #656359",
"8@	c #5E5B56",
"9@	c #605244",
"0@	c #CFA274",
"a@	c #F0BC88",
"b@	c #FECA97",
"c@	c #FBCC98",
"d@	c #FFD39D",
"e@	c #AB8B6F",
"f@	c #87715C",
"g@	c #66594C",
"h@	c #3F3B62",
"i@	c #545059",
"j@	c #534D43",
"k@	c #535037",
"l@	c #56553C",
"m@	c #544C3E",
"n@	c #695948",
"o@	c #B08B66",
"p@	c #F5C290",
"q@	c #FDC997",
"r@	c #DDB288",
"s@	c #C4A17C",
"t@	c #DCB489",
"u@	c #F0C695",
"v@	c #FDD09C",
"w@	c #EEBF90",
"x@	c #BA9877",
"y@	c #A0886D",
"z@	c #B29374",
"A@	c #48433C",
"B@	c #2B235D",
"C@	c #140DCD",
"D@	c #1F17CE",
"E@	c #312A80",
"F@	c #3C354D",
"G@	c #403D2A",
"H@	c #3F3F37",
"I@	c #53524A",
"J@	c #84715B",
"K@	c #DEAD7D",
"L@	c #FEC68F",
"M@	c #E7B889",
"N@	c #AD8E6E",
"O@	c #987F65",
"P@	c #685B4D",
"Q@	c #9F8569",
"R@	c #D1AB82",
"S@	c #F2C494",
"T@	c #FACE9C",
"U@	c #DABC91",
"V@	c #7C705D",
"W@	c #696863",
"X@	c #605D51",
"Y@	c #433D2B",
"Z@	c #2D243D",
"`@	c #1B179F",
" #	c #0B18F2",
".#	c #0C20FE",
"+#	c #101AE3",
"@#	c #1411C7",
"##	c #1D1589",
"$#	c #504873",
"%#	c #A99E9A",
"&#	c #75746F",
"*#	c #735F4B",
"=#	c #9E7C5B",
"-#	c #C79A6F",
";#	c #C0976E",
">#	c #CCA279",
",#	c #D6AD83",
"'#	c #AE8F70",
")#	c #706051",
"!#	c #776655",
"~#	c #D6AF86",
"{#	c #F0C18F",
"]#	c #B9A17D",
"^#	c #52524C",
"/#	c #C1C1BF",
"(#	c #C3C0BC",
"_#	c #69655B",
":#	c #352F4C",
"<#	c #1A20D6",
"[#	c #0B2AFF",
"}#	c #1038FF",
"|#	c #0D2DFF",
"1#	c #0E28FF",
"2#	c #0503D0",
"3#	c #46428F",
"4#	c #AEAA9D",
"5#	c #A9AEAB",
"6#	c #6A7A7F",
"7#	c #666662",
"8#	c #6D5E4E",
"9#	c #85694F",
"0#	c #C0956C",
"a#	c #EDB883",
"b#	c #F3BE8A",
"c#	c #E3B688",
"d#	c #CFA67C",
"e#	c #EEBF8B",
"f#	c #E4B787",
"g#	c #927E66",
"h#	c #58696A",
"i#	c #598191",
"j#	c #CCE7F1",
"k#	c #F2EFEB",
"l#	c #A8A6A0",
"m#	c #6D6960",
"n#	c #5A5648",
"o#	c #474230",
"p#	c #686340",
"q#	c #676188",
"r#	c #3A44F1",
"s#	c #1035FF",
"t#	c #0D36FF",
"u#	c #113BFF",
"v#	c #0D2CFC",
"w#	c #0705C1",
"x#	c #514B6D",
"y#	c #D8D7C4",
"z#	c #FFFFFF",
"A#	c #F1F2F3",
"B#	c #B7C0C5",
"C#	c #798A90",
"D#	c #666F6F",
"E#	c #675F54",
"F#	c #77614C",
"G#	c #AA8561",
"H#	c #D5A779",
"I#	c #B08A65",
"J#	c #AC8560",
"K#	c #A28262",
"L#	c #354C57",
"M#	c #1A86BF",
"N#	c #51B8ED",
"O#	c #C6EEFE",
"P#	c #F0EFEE",
"Q#	c #D6D6D4",
"R#	c #AAA9A2",
"S#	c #767367",
"T#	c #676440",
"U#	c #ACA5C9",
"V#	c #4E4CFA",
"W#	c #0A26FF",
"X#	c #0C33FF",
"Y#	c #0D2AFC",
"Z#	c #1B1DAB",
"`#	c #6E6965",
" $	c #DEDEC2",
".$	c #EDEEE9",
"+$	c #D5D4C4",
"@$	c #F5F4E9",
"#$	c #FEFDFD",
"$$	c #CFD2D5",
"%$	c #8A969A",
"&$	c #7B8080",
"*$	c #6E665E",
"=$	c #766F64",
"-$	c #7D837F",
";$	c #5F6867",
">$	c #487383",
",$	c #3A8EB3",
"'$	c #6BC8F3",
")$	c #BFEDFF",
"!$	c #E5F7FF",
"~$	c #F4F5F7",
"{$	c #A3A19B",
"]$	c #89866E",
"^$	c #CCC9EB",
"/$	c #545AFF",
"($	c #0621FF",
"_$	c #0F36FF",
":$	c #1037FF",
"<$	c #0E2FFE",
"[$	c #111BC3",
"}$	c #463E74",
"|$	c #89858C",
"1$	c #797676",
"2$	c #6A6772",
"3$	c #999790",
"4$	c #CBCAC7",
"5$	c #D2CDCA",
"6$	c #BBB4AD",
"7$	c #BBBAB7",
"8$	c #9C9D9C",
"9$	c #9D9894",
"0$	c #BCBEBE",
"a$	c #C1CECE",
"b$	c #B1D5E1",
"c$	c #9FD3E6",
"d$	c #DCF3FC",
"e$	c #FAF9F9",
"f$	c #FBFBFC",
"g$	c #ADACA7",
"h$	c #4D4937",
"i$	c #726F65",
"j$	c #B2B09F",
"k$	c #D6D2EE",
"l$	c #6A66FF",
"m$	c #0E23FF",
"n$	c #0D35FF",
"o$	c #123AFF",
"p$	c #0C21FE",
"q$	c #1917C1",
"r$	c #2721AC",
"s$	c #1911BC",
"t$	c #1F1894",
"u$	c #393333",
"v$	c #585342",
"w$	c #716F65",
"x$	c #494537",
"y$	c #696558",
"z$	c #838076",
"A$	c #504B3B",
"B$	c #827869",
"C$	c #B9B0A6",
"D$	c #B2B1AE",
"E$	c #A19A90",
"F$	c #C8BFB8",
"G$	c #CBC9C6",
"H$	c #B9B9B4",
"I$	c #C5C5C3",
"J$	c #E7E7E6",
"K$	c #F1F1F0",
"L$	c #DDDCDB",
"M$	c #85837A",
"N$	c #3B3521",
"O$	c #817F68",
"P$	c #D9D4EE",
"Q$	c #696BFF",
"R$	c #0116FF",
"S$	c #0B34FF",
"T$	c #113DFF",
"U$	c #0E34FF",
"V$	c #0B1FF9",
"W$	c #0B0CEC",
"X$	c #1A11B6",
"Y$	c #1D1577",
"Z$	c #28220C",
"`$	c #433F2D",
" %	c #585548",
".%	c #6A655A",
"+%	c #4E4839",
"@%	c #575244",
"#%	c #696658",
"$%	c #4C4939",
"%%	c #5C594C",
"&%	c #8C8A80",
"*%	c #929188",
"=%	c #89867C",
"-%	c #56513F",
";%	c #9D9A8A",
">%	c #E5E1F5",
",%	c #817FFF",
"'%	c #0918FF",
")%	c #0B32FF",
"!%	c #1036FF",
"~%	c #0C26FF",
"{%	c #1422D8",
"]%	c #1A1BC0",
"^%	c #2C2568",
"/%	c #4D4939",
"(%	c #5B574B",
"_%	c #504B3C",
":%	c #C9C6BE",
"<%	c #F6F4FA",
"[%	c #736DFF",
"}%	c #1021FF",
"|%	c #0A32FF",
"1%	c #0F34FE",
"2%	c #1024F4",
"3%	c #1D20AF",
"4%	c #2A2767",
"5%	c #2C2760",
"6%	c #7B786B",
"7%	c #E9E8E3",
"8%	c #FEFEFF",
"9%	c #A1A1FF",
"0%	c #121FFF",
"a%	c #0C28FA",
"b%	c #121EDF",
"c%	c #1D1DB0",
"d%	c #2A1E73",
"e%	c #625F50",
"f%	c #BCBCB5",
"g%	c #F1F1EA",
"h%	c #E3E1E5",
"i%	c #7E7DFC",
"j%	c #1B1CF1",
"k%	c #1415BA",
"l%	c #241E8A",
"m%	c #322F4A",
"n%	c #686557",
"o%	c #EFEEEC",
"p%	c #CBCAC5",
"q%	c #65607C",
"r%	c #2C26C5",
"s%	c #1C15AD",
"t%	c #282078",
"u%	c #959187",
"v%	c #D4D2CD",
"w%	c #8F8E81",
"x%	c #373239",
"y%	c #241E5A",
"z%	c #261F4F",
"A%	c #4F4B39",
"B%	c #6E6A5F",
"C%	c #5C5948",
"D%	c #4C4940",
"E%	c #4A473D",
"F%	c #444021",
"G%	c #3C3812",
"H%	c #4F4B40",
"I%	c #676661",
"J%	c #797877",
"K%	c #777673",
"L%	c #61605C",
"M%	c #4F4E45",
"N%	c #454134",
"O%	c #3E3928",
"P%	c #433F2C",
"Q%	c #868584",
"R%	c #929294",
"S%	c #8B8B8D",
"T%	c #7D7E7F",
"U%	c #676662",
"V%	c #534F47",
"W%	c #332D16",
"X%	c #423E2B",
"Y%	c #5E5B50",
"Z%	c #787670",
"`%	c #848380",
" &	c #8D8D8F",
".&	c #929396",
"+&	c #7B7A77",
"@&	c #535043",
"#&	c #423D2B",
"$&	c #3F3B28",
"%&	c #545142",
"&&	c #6E6C64",
"*&	c #848482",
"=&	c #7E7E7A",
"-&	c #646460",
";&	c #54524C",
">&	c #4A473A",
",&	c #413D2C",
"'&	c #423D2A",
")&	c #474332",
"!&	c #5B584C",
"~&	c #4C493C",
"{&	c #3E3B29",
"]&	c #4E4D43",
"^&	c #5C5B57",
"/&	c #504D44",
"(&	c #464335",
"_&	c #423F2F",
":&	c #474436",
"<&	c #3E3A27",
"                                                                                            ",
"                                    . +                                                     ",
"                              @ # $ % & * =                                                 ",
"                            - ; > , ' ) ! ~ { ] ^                                           ",
"                          / ( _ : < [ } | 1 2 3 4 5 6                                       ",
"                          7 8 9 0 a b c d e f c d g h i                                     ",
"                      j k l g m b n o p c b q d r s t u v                                   ",
"                    w 3 q x y } n z : p y A B [ y C t < D E F                               ",
"                    G H I y A J J K L g < M n g M A e t N O m                               ",
"                  P Q B y M n : R S T 3 n M 3 z J q C q N d J U                             ",
"                    V O < M n W X Y Z `  .J J z o M z J n y c K ..                          ",
"                  +.@.g H #.$.%.&.*.=.-.;.>. .x n ,.'.).a e !.A ~.                          ",
"                  {.].B ^./.(._.:.<.[.}.|.1.2.3.J } O } H 4.A #.5.                          ",
"                  6.7.,.8.9.0.a.b.c.d.e.f.g.h.i.j.3 n } } } < [ k.                          ",
"                l.m.n.o.p.q.r.s.t.u.u.v.w.x.y.z.A.B.C.| M a a J D.                          ",
"                E.F.G.H.I.J.K.L.M.N.d.O.u.P.Q.R.S.T.U.V.J p N h W.                          ",
"                X.Y.Z.`. +.+L.u.++@+#+$+L.%+d.&+*+=+-+;+'.).J G                             ",
"              >+,+'+)+!+~+L.L.M.{+]+^+/+(+L.L._+:+:+<+[+}+|+1+k                             ",
"          2+3+4+5+6+7+8+L.u.u.u.9+0+a+b+O.d.u.u.L.L.c+d+e+f+g+                              ",
"          h+i+j+k+l+m+L.L.u.u.M.n+o+p+q+r+s+u.t.t+u+v+w+x+y+                                ",
"          z+A+B+C+D+E+F+G+u.H+I+J+K+L+M+N+O+K.P+Q+R+S+T+U+V+                                ",
"        W+X+Y+Z+`+ @.@+@L.u.u.@@#@$@%@&@*@M.c+=@-@;@>@,@'@                                  ",
"          )@!@~@{@]@^@/@(@M.L._@@@:@b.L.M.u.<@[@}@|@1@2@3@                                  ",
"          4@5@6@7@8@9@0@a@b@u.u.P.u.c@d@v.L.t.d.e@f@r.g@                                    ",
"          h@i@j@k@l@m@n@o@p@L.u.q@r@s@t@u@v@v.w@x@y@z@A@                                    ",
"        B@C@D@E@F@G@H@I@J@K@L@M@N@O@P@P@Q@R@S@u.T@U@V@W@X@Y@                                ",
"      Z@`@ #.#+#@###$#%#&#*#=#-#;#>#,#'#)#!#~#(@{#]#^#/#(#_#                                ",
"      :#<#[#}#|#1#2#3#4#5#6#7#8#9#0#a#b#c#d#e#f#g#h#i#j#k#l#m#n#o#                          ",
"    p#q#r#s#t#u#v#w#x#y#z#A#B#C#D#E#F#G#H#I#J#K#L#M#N#O#z#P#Q#R#S#                          ",
"    T#U#V#W#X#u#Y#Z#`# $.$+$@$#$$$%$&$*$=$-$;$>$,$'$)$!$z#z#z#~${$                          ",
"    ]$^$/$($_$:$<$[$}$|$1$2$3$4$5$6$7$8$9$0$a$b$c$d$z#e$z#z#z#f$g$h$                        ",
"  i$j$k$l$m$n$o$_$p$q$r$s$t$u$v$w$x$y$z$A$B$C$D$E$F$G$H$I$J$K$L$M$N$                        ",
"    O$P$Q$R$S$:$T$U$V$W$X$Y$Z$            `$ %.%+%@%#%$%%%&%*%=%4@                          ",
"  -%;%>%,%'%)%}#!%~%{%]%^%                                /%(%                              ",
"  _%:%<%[%}%|%1%2%3%4%5%                                                                    ",
"  6%7%8%9%0%a%b%c%d%                                                                        ",
"e%f%g%h%i%j%k%l%m%                                                                          ",
"n%o%p%q%r%s%t%                                                                              ",
"u%v%w%x%y%z%                                                                                ",
"A%B%C%D%E%F%G%                                                                              ",
"  H%I%J%K%L%M%N%O%                                                                          ",
"  P%7@Q%R%S%T%U%V%                                                                          ",
"  W%X%Y%Z%`% &.&+&@&#&`$                                                                    ",
"        $&%&&&*&=&-&;&>&# ,&                                                                ",
"            '&)&!&~&{&]&^&/&                                                                ",
"                      (&_&:&<&                                                              "};
