/* XPM */
static char * playerTwo12_xpm[] = {
"46 46 620 2",
"  	c None",
". 	c #36311C",
"+ 	c #39341F",
"@ 	c #34301A",
"# 	c #413D2B",
"$ 	c #59564A",
"% 	c #717069",
"& 	c #5D5B50",
"* 	c #474338",
"= 	c #3C3724",
"- 	c #706C5D",
"; 	c #35311C",
"> 	c #4F4B3B",
", 	c #656257",
"' 	c #7C7A75",
") 	c #90908F",
"! 	c #949496",
"~ 	c #71716F",
"{ 	c #626058",
"] 	c #9A9790",
"^ 	c #CAC8C3",
"/ 	c #433E2C",
"( 	c #4F4B3C",
"_ 	c #69675E",
": 	c #8B8B8A",
"< 	c #909091",
"[ 	c #939395",
"} 	c #868688",
"| 	c #7A7979",
"1 	c #585650",
"2 	c #45412D",
"3 	c #B4B3A4",
"4 	c #FFFFFF",
"5 	c #8D8B7F",
"6 	c #35301A",
"7 	c #5C5A52",
"8 	c #868684",
"9 	c #929395",
"0 	c #818183",
"a 	c #6F6F6F",
"b 	c #5B5A58",
"c 	c #4F4C37",
"d 	c #3F3B3D",
"e 	c #26213F",
"f 	c #706C64",
"g 	c #F4F4F4",
"h 	c #BEBDB6",
"i 	c #46422F",
"j 	c #413E2E",
"k 	c #4E4C42",
"l 	c #504E45",
"m 	c #5D5C59",
"n 	c #59574A",
"o 	c #5E5C57",
"p 	c #535047",
"q 	c #474438",
"r 	c #393421",
"s 	c #3F3A00",
"t 	c #251D57",
"u 	c #251DB1",
"v 	c #9894B9",
"w 	c #FFFFF7",
"x 	c #E0DFDC",
"y 	c #5E5A4A",
"z 	c #464335",
"A 	c #605F5D",
"B 	c #515047",
"C 	c #494638",
"D 	c #423D2C",
"E 	c #312A12",
"F 	c #3C3725",
"G 	c #201994",
"H 	c #1715FF",
"I 	c #C6C5FF",
"J 	c #A3A096",
"K 	c #332D1A",
"L 	c #403B2A",
"M 	c #4A473A",
"N 	c #38331E",
"O 	c #241D8F",
"P 	c #090FF9",
"Q 	c #2B31FF",
"R 	c #807AFF",
"S 	c #EEECFF",
"T 	c #DFDDD6",
"U 	c #666348",
"V 	c #443E00",
"W 	c #1C17A9",
"X 	c #0C27F8",
"Y 	c #021BFF",
"Z 	c #2425FF",
"` 	c #8E8CFF",
" .	c #D2CDFC",
"..	c #CDCBC2",
"+.	c #A5A399",
"@.	c #25200E",
"#.	c #312C4F",
"$.	c #161CD1",
"%.	c #0D32FF",
"&.	c #123EFF",
"*.	c #041DFF",
"=.	c #071AFF",
"-.	c #817DFF",
";.	c #D0CBFF",
">.	c #D1CFC1",
",.	c #595638",
"'.	c #271982",
").	c #141CDE",
"!.	c #0E33FF",
"~.	c #1038FF",
"{.	c #0E37FF",
"].	c #0221FF",
"^.	c #171EFF",
"/.	c #5458FF",
"(.	c #BDB7F8",
"_.	c #868367",
":.	c #322A45",
"<.	c #111CED",
"[.	c #1036FF",
"}.	c #1139FF",
"|.	c #113AFF",
"1.	c #092DFF",
"2.	c #1125FF",
"3.	c #5852FF",
"4.	c #7772B0",
"5.	c #3E3823",
"6.	c #25237E",
"7.	c #0C1FFF",
"8.	c #0F3BFF",
"9.	c #103DFE",
"0.	c #0F36FF",
"a.	c #0326FF",
"b.	c #1A3AFF",
"c.	c #171DE2",
"d.	c #262056",
"e.	c #2E275B",
"f.	c #1819CA",
"g.	c #0D22F7",
"h.	c #0F22FE",
"i.	c #0C22FF",
"j.	c #0D2FFF",
"k.	c #103AFF",
"l.	c #1137FF",
"m.	c #0E35FF",
"n.	c #091BFB",
"o.	c #271D85",
"p.	c #3F3A0E",
"q.	c #322A4A",
"r.	c #1810C8",
"s.	c #0B09E4",
"t.	c #211399",
"u.	c #201F89",
"v.	c #121BD0",
"w.	c #0D21FF",
"x.	c #1037FF",
"y.	c #0918FF",
"z.	c #0F08D0",
"A.	c #2B2444",
"B.	c #322C41",
"C.	c #0F06D8",
"D.	c #251EAB",
"E.	c #7F7C6E",
"F.	c #8D8978",
"G.	c #3A345B",
"H.	c #0803D3",
"I.	c #0E2CFF",
"J.	c #0B1EFE",
"K.	c #0F19E8",
"L.	c #140CEB",
"M.	c #322C84",
"N.	c #3B3642",
"O.	c #282223",
"P.	c #211A87",
"Q.	c #57535B",
"R.	c #D7D7CE",
"S.	c #EFEFE1",
"T.	c #726E76",
"U.	c #0C0492",
"V.	c #0A05E5",
"W.	c #1810B2",
"X.	c #2F286C",
"Y.	c #463E5E",
"Z.	c #646345",
"`.	c #636155",
" +	c #545141",
".+	c #4D493B",
"++	c #524D3C",
"@+	c #868378",
"#+	c #A7A58B",
"$+	c #F3F4F8",
"%+	c #FFFFFB",
"&+	c #A8A782",
"*+	c #7673A2",
"=+	c #2F2864",
"-+	c #3C3821",
";+	c #524F35",
">+	c #534F39",
",+	c #696757",
"'+	c #65635B",
")+	c #575448",
"!+	c #5B584B",
"~+	c #7D7B70",
"{+	c #CACAC9",
"]+	c #EBEBEB",
"^+	c #FAF9F9",
"/+	c #F9FFFF",
"(+	c #FFF6F0",
"_+	c #B9AA9B",
":+	c #4F4C3E",
"<+	c #575640",
"[+	c #504E43",
"}+	c #6F6E67",
"|+	c #565346",
"1+	c #6C6B63",
"2+	c #6B6961",
"3+	c #37321D",
"4+	c #44402E",
"5+	c #555143",
"6+	c #9C9991",
"7+	c #FAF4F2",
"8+	c #F2FCFF",
"9+	c #CEF2FF",
"0+	c #6FD2FF",
"a+	c #68C6F0",
"b+	c #617B80",
"c+	c #6F7170",
"d+	c #7A6859",
"e+	c #615A4E",
"f+	c #706F68",
"g+	c #534F41",
"h+	c #68665E",
"i+	c #484433",
"j+	c #777670",
"k+	c #575447",
"l+	c #2D2712",
"m+	c #9D9B94",
"n+	c #CFCCC8",
"o+	c #F8F4F1",
"p+	c #E0F9FF",
"q+	c #A5E7FF",
"r+	c #56CAFA",
"s+	c #2BAFEE",
"t+	c #0093E6",
"u+	c #0D90CD",
"v+	c #2887B4",
"w+	c #338FBC",
"x+	c #648996",
"y+	c #574F3E",
"z+	c #7B7A75",
"A+	c #5D5B51",
"B+	c #767570",
"C+	c #66645A",
"D+	c #636157",
"E+	c #605F54",
"F+	c #2C2814",
"G+	c #484432",
"H+	c #534E3D",
"I+	c #C2C1BF",
"J+	c #C6F2FF",
"K+	c #47BEF1",
"L+	c #059FEC",
"M+	c #0189C9",
"N+	c #007FBD",
"O+	c #0074AC",
"P+	c #0079B2",
"Q+	c #0084C6",
"R+	c #0C98DC",
"S+	c #4DA0C6",
"T+	c #5A503F",
"U+	c #4F4D3E",
"V+	c #646258",
"W+	c #5A574A",
"X+	c #595649",
"Y+	c #706F66",
"Z+	c #484534",
"`+	c #322C18",
" @	c #93938E",
".@	c #B9AFA6",
"+@	c #DFD6D2",
"@@	c #F6F8F5",
"#@	c #E7FDFF",
"$@	c #A2E0FB",
"%@	c #0896DA",
"&@	c #0076B2",
"*@	c #0075A9",
"=@	c #0079AE",
"-@	c #0079B0",
";@	c #0077AC",
">@	c #0093DD",
",@	c #47A3D0",
"'@	c #7A7B76",
")@	c #605B4F",
"!@	c #605F53",
"~@	c #66645C",
"{@	c #6E6C5C",
"]@	c #63604F",
"^@	c #6F6D5B",
"/@	c #2F2B1A",
"(@	c #665F51",
"_@	c #C0BEBB",
":@	c #FBFDFB",
"<@	c #C4F1FF",
"[@	c #76D8FF",
"}@	c #2FB7F5",
"|@	c #0E9BE3",
"1@	c #0181BD",
"2@	c #0078AE",
"3@	c #0079AF",
"4@	c #007AB2",
"5@	c #007AB1",
"6@	c #0078AF",
"7@	c #0077AE",
"8@	c #028ACC",
"9@	c #278EBC",
"0@	c #73675E",
"a@	c #646261",
"b@	c #525033",
"c@	c #5C5A41",
"d@	c #58553E",
"e@	c #3C3762",
"f@	c #302878",
"g@	c #8D8B84",
"h@	c #C8BCB2",
"i@	c #AED9E9",
"j@	c #69D6FF",
"k@	c #0FA7ED",
"l@	c #0391D8",
"m@	c #007FC1",
"n@	c #007AB5",
"o@	c #0076AA",
"p@	c #0078AC",
"q@	c #0076AD",
"r@	c #007BBB",
"s@	c #2E99CC",
"t@	c #6792A2",
"u@	c #725E4A",
"v@	c #4E4D42",
"w@	c #3C3727",
"x@	c #291F60",
"y@	c #271F91",
"z@	c #130CF2",
"A@	c #120ED9",
"B@	c #332B43",
"C@	c #2E291A",
"D@	c #777467",
"E@	c #EFEFF2",
"F@	c #FFFFFC",
"G@	c #6AD2FF",
"H@	c #07A6F4",
"I@	c #0084C3",
"J@	c #0076AC",
"K@	c #0074A8",
"L@	c #0078B0",
"M@	c #0079B1",
"N@	c #0075AD",
"O@	c #0077AF",
"P@	c #007EBF",
"Q@	c #008DD2",
"R@	c #14A3EA",
"S@	c #71CDF2",
"T@	c #D5E0E3",
"U@	c #949089",
"V@	c #2F2863",
"W@	c #1209B9",
"X@	c #1011ED",
"Y@	c #0E1CF7",
"Z@	c #0D29FF",
"`@	c #0B1AFD",
" #	c #221991",
".#	c #3C360D",
"+#	c #565244",
"@#	c #615D4F",
"##	c #CECFCD",
"$#	c #F9F5F4",
"%#	c #E7FAFF",
"&#	c #5DC8FD",
"*#	c #0099E9",
"=#	c #0073A5",
"-#	c #007DB9",
";#	c #0090DD",
">#	c #209AD6",
",#	c #0087CB",
"'#	c #0595DE",
")#	c #26B2F3",
"!#	c #66D0FE",
"~#	c #BAEBFF",
"{#	c #DBFAFF",
"]#	c #FFFCF6",
"^#	c #A29F94",
"/#	c #20188E",
"(#	c #080EFF",
"_#	c #113FFF",
":#	c #000DFF",
"<#	c #1E1ECB",
"[#	c #383441",
"}#	c #7F7D72",
"|#	c #CECDCB",
"1#	c #F1F2F4",
"2#	c #FBFBFC",
"3#	c #B2E6FF",
"4#	c #40BAFC",
"5#	c #009CED",
"6#	c #008ED9",
"7#	c #0084CA",
"8#	c #0F9AE1",
"9#	c #2EB3ED",
"0#	c #51CFFF",
"a#	c #C7EFFA",
"b#	c #5BC9F8",
"c#	c #7FD9FF",
"d#	c #CEF3FF",
"e#	c #FDFFFF",
"f#	c #FEFDFD",
"g#	c #C3C1AE",
"h#	c #3A306E",
"i#	c #0C08E7",
"j#	c #0F31FF",
"k#	c #0F37FF",
"l#	c #0E14FF",
"m#	c #6058F8",
"n#	c #77726B",
"o#	c #5C5849",
"p#	c #BBB9B4",
"q#	c #FEFFFF",
"r#	c #E0F7FF",
"s#	c #A1E4FF",
"t#	c #84DAFF",
"u#	c #5ACBFF",
"v#	c #25BCFF",
"w#	c #A9E6FF",
"x#	c #CFF4FF",
"y#	c #ECFAFA",
"z#	c #FBF8F7",
"A#	c #F9F9F8",
"B#	c #E3E3E0",
"C#	c #CDCDC7",
"D#	c #D0D1A3",
"E#	c #4A4449",
"F#	c #111ADE",
"G#	c #0F2FFF",
"H#	c #1039FF",
"I#	c #0E32FF",
"J#	c #121FFF",
"K#	c #8079FF",
"L#	c #BDBBB6",
"M#	c #484325",
"N#	c #5F5C4E",
"O#	c #D6D6D7",
"P#	c #FEFEFF",
"Q#	c #F8F7F7",
"R#	c #FEFCFC",
"S#	c #FFFFFE",
"T#	c #EEF4F5",
"U#	c #CBE7F2",
"V#	c #CBEDF7",
"W#	c #FFF7EF",
"X#	c #DAD4D0",
"Y#	c #B7B4AF",
"Z#	c #D4D4D2",
"`#	c #BAB8B4",
" $	c #94928A",
".$	c #BEBCBA",
"+$	c #B1B0A0",
"@$	c #777475",
"#$	c #4E4A5E",
"$$	c #534F48",
"%$	c #746E76",
"&$	c #312BA6",
"*$	c #0A22F4",
"=$	c #1033FF",
"-$	c #0000FF",
";$	c #6F6AFF",
">$	c #E0DFEA",
",$	c #757260",
"'$	c #342F1A",
")$	c #8A8880",
"!$	c #E7E7E8",
"~$	c #F0F0F1",
"{$	c #DBDBDB",
"]$	c #B5B4B1",
"^$	c #A09E96",
"/$	c #C4C3C0",
"($	c #A2A099",
"_$	c #948C7F",
":$	c #AFAAA2",
"<$	c #8A8478",
"[$	c #5D5A4C",
"}$	c #3B3724",
"|$	c #737064",
"1$	c #484533",
"2$	c #393524",
"3$	c #585345",
"4$	c #36311E",
"5$	c #342F37",
"6$	c #1109A4",
"7$	c #1407DB",
"8$	c #1B14A9",
"9$	c #0F13CA",
"0$	c #0D2BFF",
"a$	c #1138FF",
"b$	c #0B0EFF",
"c$	c #5E55FF",
"d$	c #97958A",
"e$	c #565241",
"f$	c #999790",
"g$	c #8C8A80",
"h$	c #443F32",
"i$	c #373225",
"j$	c #4E4939",
"k$	c #474231",
"l$	c #0B0600",
"m$	c #37321E",
"n$	c #251D92",
"o$	c #160ED3",
"p$	c #0C13FF",
"q$	c #0F39FF",
"r$	c #0D31FF",
"s$	c #060FFF",
"t$	c #938DFF",
"u$	c #E2E0D8",
"v$	c #595447",
"w$	c #3A3522",
"x$	c #423E00",
"y$	c #2D2860",
"z$	c #1616D8",
"A$	c #131EE6",
"B$	c #0D24FF",
"C$	c #0F34FF",
"D$	c #1316FF",
"E$	c #B8B6FF",
"F$	c #918F84",
"G$	c #2E1F65",
"H$	c #37312F",
"I$	c #1A19B4",
"J$	c #0C20FC",
"K$	c #0F3AFF",
"L$	c #0928FF",
"M$	c #0807FF",
"N$	c #8581FF",
"O$	c #FFFFFA",
"P$	c #B6B5AE",
"Q$	c #3E3925",
"R$	c #292072",
"S$	c #1B1CBF",
"T$	c #1620DC",
"U$	c #0D21F2",
"V$	c #2823FF",
"W$	c #BDB9FC",
"X$	c #E9E8E6",
"Y$	c #666254",
"Z$	c #3B331B",
"`$	c #251C89",
" %	c #1514B5",
".%	c #0D0CFF",
"+%	c #A2A0FD",
"@%	c #E4E3D0",
"#%	c #FDFDFF",
"$%	c #ABA9A0",
"%%	c #403A27",
"&%	c #261F8C",
"*%	c #1711BF",
"=%	c #2D27A6",
"-%	c #6E6A6B",
";%	c #C5C5BD",
">%	c #D3D2CE",
",%	c #524C3B",
"'%	c #302A32",
")%	c #241F37",
"!%	c #2C2618",
"~%	c #A2A198",
"{%	c #EFEFF0",
"]%	c #98958A",
"^%	c #3A3622",
"/%	c #49472E",
"(%	c #545241",
"_%	c #5A5954",
":%	c #6E6D65",
"<%	c #5A5646",
"[%	c #3A351F",
"}%	c #423F30",
"|%	c #494639",
"1%	c #5C5A57",
"2%	c #6D6D6D",
"3%	c #818284",
"4%	c #7F7F7F",
"5%	c #545248",
"6%	c #454234",
"7%	c #595751",
"8%	c #767576",
"9%	c #858588",
"0%	c #8F9091",
"a%	c #969798",
"b%	c #868785",
"c%	c #4A4636",
"d%	c #636158",
"e%	c #878787",
"f%	c #959698",
"g%	c #8D8C8D",
"h%	c #7C7C78",
"i%	c #68675D",
"j%	c #535041",
"k%	c #3B3522",
"l%	c #433E2E",
"m%	c #515046",
"n%	c #5C5C5A",
"o%	c #5B584E",
"p%	c #898886",
"q%	c #7D7C77",
"r%	c #545043",
"s%	c #433F2E",
"t%	c #403B2B",
"u%	c #5C5B57",
"v%	c #525047",
"w%	c #4F4D43",
"x%	c #403D2D",
"y%	c #403C28",
"z%	c #545042",
"A%	c #423E2C",
"B%	c #2D270F",
"C%	c #4A483B",
"                                                                                            ",
"                                                  . +                                       ",
"                                            @ # $ % & * = -                                 ",
"                                        ; > , ' ) ! ~ { ] ^ /                               ",
"                                      ( _ : < [ } | 1 2 3 4 5                               ",
"                                    6 7 8 9 0 a b c d e f g h i                             ",
"                              . j k l m n o p q r s t u v w x y                             ",
"                              z A B C D E   F       G H I 4 4 J K                           ",
"                              L M N                 O P Q R S T U                           ",
"                                                  V W X Y Z `  ...+.@.                      ",
"                                                  #.$.%.&.*.=.-.;.>.,.                      ",
"                                                  '.).!.~.{.].^./.(._.                      ",
"                                                  :.<.[.[.}.|.1.2.3.4.5.                    ",
"                                                  6.7.8.9.[.[.0.a.b.c.d.                    ",
"                                                e.f.g.h.i.j.k.|.l.m.n.o.p.                  ",
"                                                q.r.s.t.u.v.w.k.x.x.y.z.A.                  ",
"                                                B.C.D.E.F.G.H.I.J.K.L.M.N.                  ",
"                                                O.P.Q.R.S.T.U.V.W.X.Y.Z.`. +.+              ",
"                                                ++@+#+$+%+&+*+=+-+;+>+,+'+)+!+              ",
"                                              ~+{+]+^+4 /+(+_+:+<+[+}+|+1+2+2+3+            ",
"                                          4+5+6+7+4 8+9+0+a+b+c+d+e+f+g+h+i+j+k+            ",
"                                        l+m+n+o+p+q+r+s+t+u+v+w+x+y+z+A+B+C+D+E+            ",
"                                    F+G+H+I+4 J+K+L+M+N+O+P+Q+R+S+T+U+V+W+X+Y+Z+            ",
"                                  `+ @.@+@@@#@$@%@&@*@=@-@-@;@>@,@'@)@!@~@{@]@^@            ",
"                                /@(@_@:@<@[@}@|@1@2@3@4@5@6@7@8@9@0@a@b@c@d@e@f@            ",
"                              ++g@h@i@j@k@l@m@n@o@5@5@6@p@q@r@s@t@u@v@w@x@y@z@A@B@          ",
"                            C@D@E@F@G@H@I@J@;@K@L@M@N@O@P@Q@R@S@T@U@V@W@X@Y@Z@`@ #.#        ",
"                        +#@#g@##$#%#&#*#4@=#P+-#;#>#,#'#)#!#~#{#]#^#/#(#0.k._#:#<#[#        ",
"                        }#|#1#2#4 3#4#5#6#7#8#9#0#a#b#c#d#e#4 f#4 g#h#i#j#k.k#l#m#n#        ",
"                      o#p#4 4 4 q#r#s#t#u#v#w#x#y#4 %+z#4 A#B#C#$+D#E#F#G#H#I#J#K#L#M#      ",
"                      N#O#P#4 4 Q#R#S#T#U#V#W#X#Y#Z#`# $.$+$@$#$$$%$&$*$H#[.=$-$;$>$,$      ",
"                      '$)$!$~${$]$^$/$($_$:$<$[$}$|$1$2$3$4$5$6$7$8$9$0$H#a$I#b$c$%+d$      ",
"                        e$f$g$|$h$i$j$k$l$  m$                n$o$p$0$q$~.x.r$s$t$u$v$      ",
"                            w$                                x$y$z$A$B$C$k.G#D$E$4 F$      ",
"                                                                  G$H$I$J$K$L$M$N$O$P$Q$    ",
"                                                                      R$S$T$U$V$W$4 X$Y$    ",
"                                                                        Z$`$ %.%+%@%#%$%%%  ",
"                                                                            &%*%=%-%;%>%,%  ",
"                                                                              '%)%!%~%{%]%  ",
"                                                                            ^%/%(%_%:%<%[%  ",
"                                                                        }%|%1%2%3%4%5%      ",
"                                                                      6%7%8%9%0%a%b%c%+     ",
"                                                                  N z d%e%f%g%h%i%j%k%      ",
"                                                              l%C m%n%o%p%q%r%s%m$          ",
"                                                            t%u%v%w%x%y%z%A%B%              ",
"                                                              C%3+                          "};
