/* XPM */
static char * playerTwo05_xpm[] = {
"46 46 626 2",
"  	c None",
". 	c #3A341F",
"+ 	c #423D2C",
"@ 	c #4E4B3A",
"# 	c #4B4838",
"$ 	c #423E2D",
"% 	c #443F2E",
"& 	c #4B4737",
"* 	c #4C4838",
"= 	c #454131",
"- 	c #72726B",
"; 	c #858682",
"> 	c #7D7E79",
", 	c #807F7C",
"' 	c #7C7A76",
") 	c #888785",
"! 	c #7B7974",
"~ 	c #494636",
"{ 	c #403D2D",
"] 	c #4A473B",
"^ 	c #3C3724",
"/ 	c #464334",
"( 	c #4F4A37",
"_ 	c #4F4B3B",
": 	c #5E5D55",
"< 	c #818181",
"[ 	c #8F9094",
"} 	c #8D8E90",
"| 	c #8B8B8E",
"1 	c #8F8F92",
"2 	c #8D8E8F",
"3 	c #75736E",
"4 	c #5A5852",
"5 	c #585853",
"6 	c #515046",
"7 	c #55544C",
"8 	c #585751",
"9 	c #413D2C",
"0 	c #686455",
"a 	c #DFDEDD",
"b 	c #AEADA7",
"c 	c #64625B",
"d 	c #5D5C53",
"e 	c #67675B",
"f 	c #646361",
"g 	c #63615F",
"h 	c #63615D",
"i 	c #595751",
"j 	c #57544A",
"k 	c #3E3A28",
"l 	c #444131",
"m 	c #444030",
"n 	c #433E2F",
"o 	c #544F3D",
"p 	c #D6D5D1",
"q 	c #BABAB0",
"r 	c #3C3628",
"s 	c #28232C",
"t 	c #3E3B27",
"u 	c #3E3A24",
"v 	c #3E3A2A",
"w 	c #403C2C",
"x 	c #3F3B2A",
"y 	c #6A6658",
"z 	c #D3D2CF",
"A 	c #D9D9D0",
"B 	c #67637D",
"C 	c #1D178F",
"D 	c #261F63",
"E 	c #524D3E",
"F 	c #DBDAD7",
"G 	c #FFFFF1",
"H 	c #C5C3EE",
"I 	c #3835F4",
"J 	c #1610BC",
"K 	c #302865",
"L 	c #585443",
"M 	c #D2D1CB",
"N 	c #FEFEFF",
"O 	c #BBB7FC",
"P 	c #2421FF",
"Q 	c #1113C8",
"R 	c #241B86",
"S 	c #716E61",
"T 	c #DFDFD4",
"U 	c #D7D6FF",
"V 	c #4F4AFF",
"W 	c #0A0FFF",
"X 	c #0C22F2",
"Y 	c #1A1DC7",
"Z 	c #2F295C",
"` 	c #5B5649",
" .	c #E9E8E0",
"..	c #C6C4FF",
"+.	c #2B2BFF",
"@.	c #071EFF",
"#.	c #0D38FF",
"$.	c #1027F6",
"%.	c #1D1BB1",
"&.	c #2F2552",
"*.	c #767262",
"=.	c #C5C4B3",
"-.	c #DAD7F8",
";.	c #6C68FF",
">.	c #000DFF",
",.	c #0F32FF",
"'.	c #103AFF",
").	c #0D2DFF",
"!.	c #151AD0",
"~.	c #352F36",
"{.	c #64604A",
"].	c #DEDDD9",
"^.	c #908AFF",
"/.	c #201CFF",
"(.	c #061EFF",
"_.	c #0F36FF",
":.	c #1038FF",
"<.	c #0D24FF",
"[.	c #1B20BD",
"}.	c #251B94",
"|.	c #605C3F",
"1.	c #C7C5D4",
"2.	c #6D68FF",
"3.	c #0000FF",
"4.	c #0F31FF",
"5.	c #1137FF",
"6.	c #0F37FF",
"7.	c #0E31FF",
"8.	c #0C1CFF",
"9.	c #1B19B9",
"0.	c #373232",
"a.	c #666249",
"b.	c #877FC9",
"c.	c #4848FF",
"d.	c #081EFF",
"e.	c #1036FF",
"f.	c #1037FF",
"g.	c #0C26F9",
"h.	c #0F13CA",
"i.	c #0E0ECF",
"j.	c #120AE3",
"k.	c #261E90",
"l.	c #393543",
"m.	c #3936DA",
"n.	c #1316FF",
"o.	c #0D2FFF",
"p.	c #0F3AFF",
"q.	c #0F34FF",
"r.	c #0C24F8",
"s.	c #1C22C0",
"t.	c #494195",
"u.	c #403882",
"v.	c #160AC9",
"w.	c #130B97",
"x.	c #302B2D",
"y.	c #312849",
"z.	c #1314CD",
"A.	c #0116FF",
"B.	c #1242FF",
"C.	c #103BFF",
"D.	c #0D0EE6",
"E.	c #3C3652",
"F.	c #B0AF88",
"G.	c #A2A189",
"H.	c #524F55",
"I.	c #474260",
"J.	c #4B473A",
"K.	c #3C3722",
"L.	c #352C3C",
"M.	c #1517CE",
"N.	c #0B24FF",
"O.	c #0E2DFF",
"P.	c #0B27FF",
"Q.	c #0D09D7",
"R.	c #524974",
"S.	c #D8D8BD",
"T.	c #FFFFFF",
"U.	c #CCCCC6",
"V.	c #BAB9B7",
"W.	c #BFBEB2",
"X.	c #B3B1AB",
"Y.	c #6F6C61",
"Z.	c #464331",
"`.	c #2D253E",
" +	c #1912BF",
".+	c #120CF4",
"++	c #1918C2",
"@+	c #1311DB",
"#+	c #0C07D9",
"$+	c #130C9A",
"%+	c #6E6885",
"&+	c #E5E1D1",
"*+	c #FEFCFB",
"=+	c #FFFDFA",
"-+	c #F7F3F2",
";+	c #C1BBB3",
">+	c #BAB8B4",
",+	c #B4B3AE",
"'+	c #595546",
")+	c #4A4737",
"!+	c #55503F",
"~+	c #524E3C",
"{+	c #433D62",
"]+	c #423E5C",
"^+	c #433D53",
"/+	c #322948",
"(+	c #352F3F",
"_+	c #3E3953",
":+	c #95918A",
"<+	c #ECEDEA",
"[+	c #D1F6FE",
"}+	c #D5F6FF",
"|+	c #D0F3FF",
"1+	c #DCF7FF",
"2+	c #C8F3FF",
"3+	c #DEF8FF",
"4+	c #FFFFFB",
"5+	c #EFECEA",
"6+	c #C7C4C0",
"7+	c #CDC3BC",
"8+	c #BDB4A9",
"9+	c #AFABA3",
"0+	c #6D6255",
"a+	c #575244",
"b+	c #474231",
"c+	c #53513A",
"d+	c #686651",
"e+	c #6B6856",
"f+	c #66654A",
"g+	c #565436",
"h+	c #555441",
"i+	c #655746",
"j+	c #78756B",
"k+	c #8BBACD",
"l+	c #4EBDEE",
"m+	c #2BAFEF",
"n+	c #33B4EF",
"o+	c #26B2F3",
"p+	c #2FB0EF",
"q+	c #3DB9F1",
"r+	c #CCF2FC",
"s+	c #C4F5FF",
"t+	c #D4F6FF",
"u+	c #DEF7FD",
"v+	c #CEF4FF",
"w+	c #C9E8F2",
"x+	c #C3C7C3",
"y+	c #B8B7B2",
"z+	c #ABA9A3",
"A+	c #605C51",
"B+	c #464134",
"C+	c #5A5647",
"D+	c #4F4B3A",
"E+	c #59584B",
"F+	c #6E6D64",
"G+	c #5C594B",
"H+	c #615F57",
"I+	c #605F53",
"J+	c #635F57",
"K+	c #77695F",
"L+	c #3C85A4",
"M+	c #2290C4",
"N+	c #0C85C2",
"O+	c #007DBE",
"P+	c #007DBD",
"Q+	c #017DBB",
"R+	c #0084C6",
"S+	c #3DABE1",
"T+	c #24B4F4",
"U+	c #2DB3ED",
"V+	c #46B8F1",
"W+	c #1BB1F7",
"X+	c #5CCEFF",
"Y+	c #BEEDFF",
"Z+	c #F8FDFE",
"`+	c #F2EEEB",
" @	c #C3C2BD",
".@	c #BFBEBC",
"+@	c #A09F97",
"@@	c #87847C",
"#@	c #555245",
"$@	c #6A6860",
"%@	c #646257",
"&@	c #626056",
"*@	c #5D5B4F",
"=@	c #5A5343",
"-@	c #728285",
";@	c #35A0D4",
">@	c #008AD1",
",@	c #0077AE",
"'@	c #0076AD",
")@	c #0078AB",
"!@	c #0076AC",
"~@	c #0077AF",
"{@	c #007FBC",
"]@	c #007EC1",
"^@	c #017CB7",
"/@	c #007FBF",
"(@	c #007FC3",
"_@	c #0E9BE5",
":@	c #4EC2FA",
"<@	c #A0E4FF",
"[@	c #F0FDFF",
"}@	c #FEFEFE",
"|@	c #FAFAFA",
"1@	c #FCFCFD",
"2@	c #F6F7F9",
"3@	c #A6A49E",
"4@	c #4D4937",
"5@	c #44402F",
"6@	c #75746E",
"7@	c #484433",
"8@	c #6E6C65",
"9@	c #5C5A50",
"0@	c #73726C",
"a@	c #594C38",
"b@	c #578291",
"c@	c #24A3E0",
"d@	c #0088CD",
"e@	c #0075A9",
"f@	c #0079B0",
"g@	c #007AB1",
"h@	c #007AB2",
"i@	c #0074A8",
"j@	c #0076AB",
"k@	c #0072A4",
"l@	c #0075A8",
"m@	c #0089D3",
"n@	c #11A5F4",
"o@	c #6CCCFE",
"p@	c #D9F4FF",
"q@	c #C5C5C4",
"r@	c #494432",
"s@	c #504D3D",
"t@	c #6A685F",
"u@	c #6B6961",
"v@	c #646259",
"w@	c #565346",
"x@	c #73716B",
"y@	c #5B5445",
"z@	c #648996",
"A@	c #2495CC",
"B@	c #0788C9",
"C@	c #007AB4",
"D@	c #0075AB",
"E@	c #0079AF",
"F@	c #0077AA",
"G@	c #007EB9",
"H@	c #007FBE",
"I@	c #007BBC",
"J@	c #007EBC",
"K@	c #0084C3",
"L@	c #009BEC",
"M@	c #4EC3FC",
"N@	c #C8F0FF",
"O@	c #F4FAFD",
"P@	c #FFFDFC",
"Q@	c #EAEAE8",
"R@	c #B0AEA9",
"S@	c #524F3F",
"T@	c #524F40",
"U@	c #64625A",
"V@	c #615F54",
"W@	c #67655B",
"X@	c #63615A",
"Y@	c #665A4B",
"Z@	c #786F66",
"`@	c #517F95",
" #	c #2A88B3",
".#	c #0188C8",
"+#	c #007CC0",
"@#	c #007FBD",
"##	c #007CB8",
"$#	c #0079B9",
"%#	c #0087CC",
"&#	c #37ACE6",
"*#	c #29B1F2",
"=#	c #31B5F0",
"-#	c #2BB0EF",
";#	c #26B6F4",
">#	c #4EC9FD",
",#	c #93DEFD",
"'#	c #F7F4F4",
")#	c #CCCDCB",
"!#	c #B5B4B1",
"~#	c #BBBAB6",
"{#	c #939289",
"]#	c #747165",
"^#	c #565343",
"/#	c #676556",
"(#	c #6A684F",
"_#	c #545039",
":#	c #545238",
"<#	c #515137",
"[#	c #514E3C",
"}#	c #817E71",
"|#	c #6CADC7",
"1#	c #3FBBF7",
"2#	c #31B1F4",
"3#	c #31B4F0",
"4#	c #31B2EC",
"5#	c #21AFF4",
"6#	c #42BBEF",
"7#	c #C0EFFF",
"8#	c #E7FDFF",
"9#	c #D0F4FF",
"0#	c #D0F3FC",
"a#	c #EAFFFF",
"b#	c #C1DDE6",
"c#	c #C3C5C2",
"d#	c #C8BFB8",
"e#	c #A3A29C",
"f#	c #5B5849",
"g#	c #4D493B",
"h#	c #524E3E",
"i#	c #585447",
"j#	c #484557",
"k#	c #4C4766",
"l#	c #403859",
"m#	c #3B344F",
"n#	c #322D37",
"o#	c #3E385D",
"p#	c #B2A4A4",
"q#	c #FEF6F0",
"r#	c #CAF1FF",
"s#	c #D7F6FF",
"t#	c #DAF5FF",
"u#	c #C9F3FF",
"v#	c #D5F7FF",
"w#	c #DCF6FE",
"x#	c #F1FDFF",
"y#	c #F5F2F1",
"z#	c #CBC4BE",
"A#	c #C7BBB4",
"B#	c #C7BEB5",
"C#	c #AFAAA5",
"D#	c #655E50",
"E#	c #555144",
"F#	c #504B3A",
"G#	c #2C2543",
"H#	c #1A12B4",
"I#	c #120CED",
"J#	c #1416D8",
"K#	c #1415CB",
"L#	c #0D08E1",
"M#	c #1710AD",
"N#	c #6F6D87",
"O#	c #CFCEAE",
"P#	c #FFFEFD",
"Q#	c #FAF4F3",
"R#	c #C6C0BA",
"S#	c #BEBAB4",
"T#	c #B3B1AC",
"U#	c #5B5748",
"V#	c #413D2A",
"W#	c #595545",
"X#	c #5A584C",
"Y#	c #352C3F",
"Z#	c #1411CA",
"`#	c #091FFF",
" $	c #0F32FD",
".$	c #0C28FF",
"+$	c #0E2CFF",
"@$	c #0200BF",
"#$	c #524C6D",
"$$	c #E2E1D4",
"%$	c #FCFDFB",
"&$	c #C1C0B1",
"*$	c #B5B39E",
"=$	c #C0BFB9",
"-$	c #B8B7B4",
";$	c #6C695F",
">$	c #413D2E",
",$	c #555141",
"'$	c #2A2249",
")$	c #1217CC",
"!$	c #0B2BFF",
"~$	c #1039FF",
"{$	c #113BFF",
"]$	c #0E12D8",
"^$	c #423D60",
"/$	c #ABA88B",
"($	c #B5B5A5",
"_$	c #59555C",
":$	c #454078",
"<$	c #484236",
"[$	c #4B4634",
"}$	c #3E383D",
"|$	c #383AD7",
"1$	c #1A3AFF",
"2$	c #082DFF",
"3$	c #1139FF",
"4$	c #0D26F6",
"5$	c #181CA6",
"6$	c #3F3575",
"7$	c #423B90",
"8$	c #1810BE",
"9$	c #130B9C",
"0$	c #28221A",
"a$	c #6A654E",
"b$	c #857DCA",
"c$	c #393CFF",
"d$	c #0323FF",
"e$	c #0E32FF",
"f$	c #0C22FF",
"g$	c #1116DA",
"h$	c #0B0CE6",
"i$	c #130BD7",
"j$	c #282078",
"k$	c #686541",
"l$	c #C4BFDA",
"m$	c #6164FF",
"n$	c #0F23FF",
"o$	c #0D34FF",
"p$	c #123AFF",
"q$	c #103DFF",
"r$	c #0F22F2",
"s$	c #1918C5",
"t$	c #312A4D",
"u$	c #636048",
"v$	c #D7D5CB",
"w$	c #B2AEFF",
"x$	c #3637FF",
"y$	c #0221FF",
"z$	c #0F39FF",
"A$	c #0C25FF",
"B$	c #1B20B0",
"C$	c #2A266A",
"D$	c #757267",
"E$	c #BDBBAD",
"F$	c #D4CFF1",
"G$	c #696BFF",
"H$	c #0010FF",
"I$	c #0A2FFF",
"J$	c #0F31FD",
"K$	c #131CE3",
"L$	c #312A48",
"M$	c #656247",
"N$	c #DEDBE0",
"O$	c #B7B3FF",
"P$	c #2F31FF",
"Q$	c #0826FF",
"R$	c #1026EF",
"S$	c #1C1AB7",
"T$	c #2D1E67",
"U$	c #645F4E",
"V$	c #D9D7CE",
"W$	c #E9E7FF",
"X$	c #5B56FF",
"Y$	c #0719FF",
"Z$	c #0C27F9",
"`$	c #1719C2",
" %	c #2F2C58",
".%	c #514C3E",
"+%	c #D0CEC9",
"@%	c #C6C6FF",
"#%	c #3236FF",
"$%	c #0F12D8",
"%%	c #281F7B",
"&%	c #D7D6D2",
"*%	c #FFFFF8",
"=%	c #C0BDDC",
"-%	c #322FFA",
";%	c #1A14AD",
">%	c #2D246A",
",%	c #6C6A5B",
"'%	c #D7D7D3",
")%	c #D2D1CE",
"!%	c #5F5A78",
"~%	c #1F1796",
"{%	c #231B5C",
"]%	c #545040",
"^%	c #EBEAE8",
"/%	c #CBCBBF",
"(%	c #49453F",
"_%	c #312D3A",
":%	c #403B30",
"<%	c #433F18",
"[%	c #3B3727",
"}%	c #3F3A2A",
"|%	c #595444",
"1%	c #C1BEB9",
"2%	c #9F9C94",
"3%	c #514E3B",
"4%	c #57554E",
"5%	c #66645D",
"6%	c #62615E",
"7%	c #636361",
"8%	c #62615C",
"9%	c #5E5B56",
"0%	c #504D40",
"a%	c #3F3B29",
"b%	c #474435",
"c%	c #4C4836",
"d%	c #514D40",
"e%	c #62615B",
"f%	c #7D7D7D",
"g%	c #919194",
"h%	c #8C8C8E",
"i%	c #909092",
"j%	c #8C8D90",
"k%	c #929395",
"l%	c #7B7B76",
"m%	c #605F5C",
"n%	c #53514A",
"o%	c #504F45",
"p%	c #5C5B57",
"q%	c #535048",
"r%	c #545144",
"s%	c #807F7B",
"t%	c #83817E",
"u%	c #7D7C77",
"v%	c #82817E",
"w%	c #838380",
"x%	c #72716B",
"y%	c #535045",
"z%	c #393521",
"A%	c #49463A",
"B%	c #413E2E",
"C%	c #403C2B",
"D%	c #36301A",
"E%	c #4C4839",
"F%	c #423E2C",
"G%	c #4A4635",
"H%	c #4C4837",
"I%	c #4A4636",
"          . + @ # $ % & *                                                                   ",
"          = - ; > , ' ) ! ~ { ] ^ /                                                         ",
"      ( _ : < [ } | 1 2 3 4 5 6 7 8 9                                                       ",
"    0 a b c d e f g h i j / k l m n                                                         ",
"    o p q r s t u v w x                                                                     ",
"    y z A B C D                                                                             ",
"    E F G H I J K                                                                           ",
"    L M N O P Q R                                                                           ",
"    S T U V W X Y Z                                                                         ",
"    `  ...+.@.#.$.%.&.                                                                      ",
"  *.=.-.;.>.,.'.).!.~.                                                                      ",
"  {.].^./.(._.:._.<.[.}.                                                                    ",
"  |.1.2.3.4.5.'.6.7.8.9.0.                                                                  ",
"  a.b.c.d.e.f.6.g.h.i.j.k.                                                                  ",
"  l.m.n.o.p.q.r.s.t.u.v.w.x.                                                                ",
"  y.z.A.B.C.4.D.E.F.G.H.I.J.K.                                                              ",
"  L.M.N.O.,.P.Q.R.S.T.U.V.W.X.Y.Z.@                                                         ",
"  `. +.+++@+#+$+%+&+T.*+=+T.-+;+>+,+'+)+!+~+                                                ",
"    {+]+^+/+(+_+:+<+[+}+|+1+2+3+4+5+6+7+8+9+0+a+b+                                          ",
"  c+d+e+f+g+h+i+j+k+l+m+n+o+p+q+r+s+t+u+v+w+x+y+z+A+B+C+D+                                  ",
"# E+F+G+H+I+J+K+L+M+N+O+P+Q+O+R+S+T+U+V+W+X+Y+Z+`+ @.@y++@@@                                ",
"#@$@%@$@&@*@=@-@;@>@,@'@)@,@!@~@{@]@^@/@(@_@:@<@[@}@|@1@2@3@4@                              ",
"5@6@7@8@9@0@a@b@c@d@e@f@g@h@g@g@e@i@j@k@l@m@n@o@p@T.T.T.T.q@r@                              ",
"s@t@u@v@w@x@y@z@A@B@C@D@E@F@j@g@G@H@I@J@K@L@M@N@O@P@T.T.Q@R@S@                              ",
"T@#@U@V@W@X@Y@Z@`@ #.#+#@###$#%#&#*#=#-#;#>#,#T.'#)#!#~#{#]#                                ",
"  ^#/#(#_#:#<#[#}#|#1#2#3#4#5#6#7#8#9#0#a#b#c#d#e#f#g#h#i#                                  ",
"    j#k#l#m#n#o#p#q#r#s#t#u#v#w#x#y#z#A#B#C#D#E#F#                                          ",
"  G#H#I#J#K#L#M#N#O#T.P@T.P#Q#R#S#T#U#V#W#X#                                                ",
"  Y#Z#`# $.$+$@$#$$$%$&$*$=$-$;$>$,$                                                        ",
"  '$)$!$~${$7.]$^$/$($_$:$<$[$                                                              ",
"  }$|$1$2$3$~$4$5$6$7$8$9$0$                                                                ",
"  a$b$c$d$_.f.e$f$g$h$i$j$                                                                  ",
"  k$l$m$n$o$p$'.q$).r$s$t$                                                                  ",
"  u$v$w$x$y$z$e.~$A$B$C$                                                                    ",
"  D$E$F$G$H$I$~$J$K$L$                                                                      ",
"    M$N$O$P$Q$z$R$S$T$                                                                      ",
"    U$V$W$X$Y$Z$`$ %                                                                        ",
"    .%+%T.@%#%$%%%                                                                          ",
"    L &%*%=%-%;%>%                                                                          ",
"    ,%'%)%!%~%{%                                                                            ",
"    ]%^%/%(%_%:%<%[%>$}%                                                                    ",
"    |%1%2%3%4%5%6%7%8%9%0%% 5@= a%b%                                                        ",
"      c%d%e%f%g%h%i%j%k%l%m%n%o%p%q%a%                                                      ",
"          r%6@s%t%u%v%w%x%y%z%A%B%C%                                                        ",
"          D%V#E%F%G%H%V#I%                                                                  ",
"                                                                                            "};
