/* XPM */
static char * playerTwo03_xpm[] = {
"46 46 572 2",
"  	c None",
". 	c #35301A",
"+ 	c #4F4D43",
"@ 	c #433F2F",
"# 	c #3D3927",
"$ 	c #4B483C",
"% 	c #61605E",
"& 	c #3D3726",
"* 	c #342F19",
"= 	c #56554F",
"- 	c #54534B",
"; 	c #444030",
"> 	c #4A4636",
", 	c #69665E",
"' 	c #524F44",
") 	c #5D5D5B",
"! 	c #3E3A28",
"~ 	c #413C2A",
"{ 	c #7D7C77",
"] 	c #9A9B9D",
"^ 	c #6F6D67",
"/ 	c #454130",
"( 	c #72706A",
"_ 	c #969699",
": 	c #858585",
"< 	c #56544D",
"[ 	c #4B4735",
"} 	c #9E9C96",
"| 	c #817E73",
"1 	c #474331",
"2 	c #1E1800",
"3 	c #45412F",
"4 	c #787873",
"5 	c #929394",
"6 	c #868689",
"7 	c #696866",
"8 	c #49463B",
"9 	c #0E0700",
"0 	c #595546",
"a 	c #B0AEAB",
"b 	c #EBEBEC",
"c 	c #EDEDEF",
"d 	c #BFBFBE",
"e 	c #5F5C4E",
"f 	c #423D2B",
"g 	c #7F7F7B",
"h 	c #969798",
"i 	c #868687",
"j 	c #696869",
"k 	c #454133",
"l 	c #38331F",
"m 	c #3F3A27",
"n 	c #6B685B",
"o 	c #B3B2AF",
"p 	c #F1F2F3",
"q 	c #FFFFFF",
"r 	c #F9F9FB",
"s 	c #716E61",
"t 	c #423E2C",
"u 	c #7B7B77",
"v 	c #88898B",
"w 	c #666765",
"x 	c #4A473C",
"y 	c #342F17",
"z 	c #241F08",
"A 	c #7E7B71",
"B 	c #D7D7D6",
"C 	c #EAEBEB",
"D 	c #F4F3F3",
"E 	c #F1F1F1",
"F 	c #767368",
"G 	c #393525",
"H 	c #605F59",
"I 	c #61615F",
"J 	c #48452F",
"K 	c #3B3713",
"L 	c #4B4736",
"M 	c #9B988F",
"N 	c #D1CBC6",
"O 	c #D6DBDD",
"P 	c #FFFEFC",
"Q 	c #F3FCFF",
"R 	c #F2F3F5",
"S 	c #ABAAA5",
"T 	c #696559",
"U 	c #5D5949",
"V 	c #87857E",
"W 	c #332D18",
"X 	c #221C3A",
"Y 	c #221B7C",
"Z 	c #1C15B7",
"` 	c #342C43",
" .	c #3E3708",
"..	c #362E32",
"+.	c #28230D",
"@.	c #3B3724",
"#.	c #A4A19B",
"$.	c #FDF3EB",
"%.	c #B2EAFF",
"&.	c #98E0FF",
"*.	c #85DBFF",
"=.	c #63CEFF",
"-.	c #9CDFFF",
";.	c #F5F6F6",
">.	c #B9B9B7",
",.	c #494432",
"'.	c #4E4A37",
").	c #E7E6E4",
"!.	c #EFF0F3",
"~.	c #817F6D",
"{.	c #605B7C",
"].	c #2F2BFF",
"^.	c #0000F8",
"/.	c #1616BD",
"(.	c #1916C6",
"_.	c #1A1CC2",
":.	c #211A94",
"<.	c #3B3519",
"[.	c #2B1E6D",
"}.	c #2C2568",
"|.	c #3F3A02",
"1.	c #5D5A4B",
"2.	c #B5B5B2",
"3.	c #B7B4AF",
"4.	c #F2F1F0",
"5.	c #E3F9FF",
"6.	c #16B5FF",
"7.	c #00A2F4",
"8.	c #039DE7",
"9.	c #009CF7",
"0.	c #A0E0FF",
"a.	c #DBDBDB",
"b.	c #6F6C5F",
"c.	c #161000",
"d.	c #686354",
"e.	c #DBDAD6",
"f.	c #ECECEE",
"g.	c #E7E7D3",
"h.	c #E8E7F7",
"i.	c #3E34FF",
"j.	c #0D20FF",
"k.	c #1039FF",
"l.	c #0D2CFF",
"m.	c #0914FF",
"n.	c #121BEB",
"o.	c #131DE2",
"p.	c #0F0FFD",
"q.	c #1D14B5",
"r.	c #231C92",
"s.	c #332E2D",
"t.	c #36311E",
"u.	c #736F64",
"v.	c #77756B",
"w.	c #C7C4C1",
"x.	c #FBFCFD",
"y.	c #FFFFFA",
"z.	c #B8EEFF",
"A.	c #45C0F5",
"B.	c #008BD6",
"C.	c #0073A6",
"D.	c #0080BC",
"E.	c #03A3F2",
"F.	c #6FD3FF",
"G.	c #FFFFFB",
"H.	c #E7E7EA",
"I.	c #656153",
"J.	c #838073",
"K.	c #F0F0EF",
"L.	c #E7E6FF",
"M.	c #2A23FF",
"N.	c #0309FF",
"O.	c #103BFF",
"P.	c #103AFF",
"Q.	c #1038FF",
"R.	c #0F38FF",
"S.	c #0D2BFF",
"T.	c #0E14F9",
"U.	c #1004F0",
"V.	c #0E05B0",
"W.	c #3C375E",
"X.	c #8D8B77",
"Y.	c #F4F5F8",
"Z.	c #F2F0EE",
"`.	c #FFFAF9",
" +	c #F1FDFF",
".+	c #DDFAFF",
"++	c #1BB8FF",
"@+	c #008ACA",
"#+	c #0079B2",
"$+	c #0076A9",
"%+	c #007DB6",
"&+	c #00A0EF",
"*+	c #5CCFFF",
"=+	c #D8D3CD",
"-+	c #807E75",
";+	c #2D2812",
">+	c #181200",
",+	c #5F5B4B",
"'+	c #D1D0CC",
")+	c #FFFFFE",
"!+	c #A6A3FF",
"~+	c #1417FF",
"{+	c #0F2AFF",
"]+	c #1036FF",
"^+	c #1037FF",
"/+	c #0D1CF9",
"(+	c #1D116E",
"_+	c #56516C",
":+	c #4A463B",
"<+	c #95948B",
"[+	c #DFE0DB",
"}+	c #FBFFFF",
"|+	c #7FD9FF",
"1+	c #02A5ED",
"2+	c #32A7DD",
"3+	c #008DDA",
"4+	c #0075AA",
"5+	c #0079AF",
"6+	c #0076AB",
"7+	c #0088CE",
"8+	c #20B7F9",
"9+	c #D6F6FF",
"0+	c #B6B2AD",
"a+	c #423B2B",
"b+	c #827F72",
"c+	c #FBFBFB",
"d+	c #E6E4FF",
"e+	c #1D17FF",
"f+	c #0A2BFF",
"g+	c #113AFF",
"h+	c #0D21EA",
"i+	c #473D9A",
"j+	c #C4C49E",
"k+	c #F5F6FA",
"l+	c #EEEEEE",
"m+	c #FFFEFF",
"n+	c #7EDAFF",
"o+	c #10A4EF",
"p+	c #007DBA",
"q+	c #007AB2",
"r+	c #0075A9",
"s+	c #0089CE",
"t+	c #33BCFD",
"u+	c #C3F1FF",
"v+	c #FFF2EB",
"w+	c #B4B4B2",
"x+	c #3D3825",
"y+	c #0F0900",
"z+	c #868276",
"A+	c #F2F1FF",
"B+	c #3A30FF",
"C+	c #070BFF",
"D+	c #1135FF",
"E+	c #0E1CFF",
"F+	c #332E43",
"G+	c #ADAB89",
"H+	c #F0FCFF",
"I+	c #98DFFF",
"J+	c #02A4EE",
"K+	c #007FC0",
"L+	c #007AB1",
"M+	c #0077AC",
"N+	c #008CD5",
"O+	c #33BBF8",
"P+	c #CDF5FF",
"Q+	c #F7F0EF",
"R+	c #9B968D",
"S+	c #514E3E",
"T+	c #969489",
"U+	c #FFFFF8",
"V+	c #857FFF",
"W+	c #0000FF",
"X+	c #0C29FF",
"Y+	c #1035FF",
"Z+	c #0D1DFF",
"`+	c #1104C7",
" @	c #3F3959",
".@	c #C0BEAB",
"+@	c #84DEFF",
"@@	c #13A2EA",
"#@	c #007EBD",
"$@	c #0078AD",
"%@	c #0079B0",
"&@	c #007BB5",
"*@	c #26ABEC",
"=@	c #FFFEFB",
"-@	c #B3B2AE",
";@	c #342F1A",
">@	c #433F2B",
",@	c #B0AEA5",
"'@	c #DAD9FF",
")@	c #413BFF",
"!@	c #0F29FF",
"~@	c #103CFF",
"{@	c #080EFF",
"]@	c #1F169F",
"^@	c #888488",
"/@	c #CACDCC",
"(@	c #74B9D9",
"_@	c #0083C4",
":@	c #007CBC",
"<@	c #1EA9E7",
"[@	c #C6F2FF",
"}@	c #BBBAB7",
"|@	c #423D1D",
"1@	c #928E8C",
"2@	c #5F57F7",
"3@	c #0604FF",
"4@	c #0E25FF",
"5@	c #1008F1",
"6@	c #221B3F",
"7@	c #545349",
"8@	c #796858",
"9@	c #258EBD",
"0@	c #0085C6",
"a@	c #007EB8",
"b@	c #88DDFF",
"c@	c #FBFDFC",
"d@	c #CBC9C7",
"e@	c #5C5849",
"f@	c #474222",
"g@	c #2E2C98",
"h@	c #0209FD",
"i@	c #0E2FFF",
"j@	c #0D22FF",
"k@	c #140ECE",
"l@	c #251A62",
"m@	c #4B481B",
"n@	c #666566",
"o@	c #73675E",
"p@	c #2E95C4",
"q@	c #0095E0",
"r@	c #0072A5",
"s@	c #0080C3",
"t@	c #12A4E8",
"u@	c #7DDBFF",
"v@	c #F1ECE8",
"w@	c #79776D",
"x@	c #1A1300",
"y@	c #393225",
"z@	c #221797",
"A@	c #0A0DFF",
"B@	c #140CF0",
"C@	c #39335B",
"D@	c #555240",
"E@	c #514F38",
"F@	c #5B5950",
"G@	c #6F675B",
"H@	c #7F99A6",
"I@	c #23ABEE",
"J@	c #018ACC",
"K@	c #008ACE",
"L@	c #048AC8",
"M@	c #00A2F6",
"N@	c #99E0FE",
"O@	c #F2FCFF",
"P@	c #E3E3E5",
"Q@	c #86847A",
"R@	c #3A341F",
"S@	c #231A84",
"T@	c #332D79",
"U@	c #575531",
"V@	c #7F7E7B",
"W@	c #575447",
"X@	c #6F6E66",
"Y@	c #44402E",
"Z@	c #595243",
"`@	c #549CBC",
" #	c #338FBB",
".#	c #42809A",
"+#	c #4AB6E6",
"@#	c #7FD8FF",
"##	c #FFFDFD",
"$#	c #E3E3E2",
"%#	c #9D9B91",
"&#	c #352F1B",
"*#	c #75736D",
"=#	c #625F4E",
"-#	c #585548",
";#	c #5A574B",
">#	c #5D5A50",
",#	c #725F4D",
"'#	c #8A8584",
")#	c #504E43",
"!#	c #EADAD0",
"~#	c #E9EAEC",
"{#	c #858262",
"]#	c #3B364E",
"^#	c #282222",
"/#	c #413D2B",
"(#	c #73726B",
"_#	c #615E53",
":#	c #82817E",
"<#	c #5A574C",
"[#	c #5D5A4F",
"}#	c #777671",
"|#	c #4C493D",
"1#	c #5F5E51",
"2#	c #504D44",
"3#	c #B1B0B5",
"4#	c #A8A782",
"5#	c #FBFBF7",
"6#	c #615D56",
"7#	c #0C03F9",
"8#	c #2B2465",
"9#	c #6E6D66",
"0#	c #504D3E",
"a#	c #464231",
"b#	c #6F6D66",
"c#	c #6F6E67",
"d#	c #524F42",
"e#	c #454213",
"f#	c #28206C",
"g#	c #110992",
"h#	c #3E375D",
"i#	c #BDBCAF",
"j#	c #C7C7AC",
"k#	c #524E5A",
"l#	c #0900F3",
"m#	c #1E14AF",
"n#	c #362F32",
"o#	c #888886",
"p#	c #6C6A62",
"q#	c #68665D",
"r#	c #73726C",
"s#	c #4F4B35",
"t#	c #5A5748",
"u#	c #2F2945",
"v#	c #0F06EF",
"w#	c #0B11FF",
"x#	c #0D01B1",
"y#	c #35314B",
"z#	c #3B3259",
"A#	c #21139A",
"B#	c #0A10E7",
"C#	c #1617D4",
"D#	c #2B2568",
"E#	c #29230B",
"F#	c #6E6C65",
"G#	c #4B4738",
"H#	c #74736B",
"I#	c #62603F",
"J#	c #352C7C",
"K#	c #1310CA",
"L#	c #0B1FFF",
"M#	c #0D1FFF",
"N#	c #0D1BF4",
"O#	c #0E1FED",
"P#	c #0E19FF",
"Q#	c #0D12F4",
"R#	c #37332A",
"S#	c #545042",
"T#	c #545141",
"U#	c #545144",
"V#	c #403C63",
"W#	c #1006FA",
"X#	c #0F2DFE",
"Y#	c #0F35FF",
"Z#	c #103CFE",
"`#	c #111CEB",
" $	c #332A42",
".$	c #3F3B29",
"+$	c #1C1487",
"@$	c #0705FF",
"#$	c #0E2EFF",
"$$	c #1138FF",
"%$	c #0E1EFE",
"&$	c #21169C",
"*$	c #626260",
"=$	c #484538",
"-$	c #3B361A",
";$	c #261D87",
">$	c #0612F6",
",$	c #1336FF",
"'$	c #0323FF",
")$	c #0B31FF",
"!$	c #0E31FF",
"~$	c #1A1AC1",
"{$	c #35301B",
"]$	c #363028",
"^$	c #1713A0",
"/$	c #7170FE",
"($	c #312DFF",
"_$	c #1834FF",
":$	c #000CFF",
"<$	c #0528FF",
"[$	c #0F34FF",
"}$	c #123EFF",
"|$	c #0C2EFF",
"1$	c #1715C0",
"2$	c #3F3903",
"3$	c #5C5B58",
"4$	c #4A473B",
"5$	c #4E4821",
"6$	c #A29F91",
"7$	c #BDB7FA",
"8$	c #7C75FF",
"9$	c #1B29FF",
"0$	c #0010FF",
"a$	c #0C2DFF",
"b$	c #1513DD",
"c$	c #302854",
"d$	c #38331E",
"e$	c #464235",
"f$	c #5E5C57",
"g$	c #6A6961",
"h$	c #61605A",
"i$	c #332E17",
"j$	c #3B371F",
"k$	c #AEAC93",
"l$	c #FFFFFC",
"m$	c #E8E5FF",
"n$	c #BEB8FF",
"o$	c #BCB8FF",
"p$	c #4B46FF",
"q$	c #353AFF",
"r$	c #0000F7",
"s$	c #211A92",
"t$	c #342E17",
"u$	c #48463A",
"v$	c #686766",
"w$	c #88898A",
"x$	c #9C9D9F",
"y$	c #6A6860",
"z$	c #413C29",
"A$	c #A9A79F",
"B$	c #828069",
"C$	c #E1E0D9",
"D$	c #F8F8FF",
"E$	c #F7F5FF",
"F$	c #453FFF",
"G$	c #1E1688",
"H$	c #3F3A04",
"I$	c #454136",
"J$	c #686868",
"K$	c #868688",
"L$	c #939394",
"M$	c #7D7C78",
"N$	c #403C2A",
"O$	c #767264",
"P$	c #EBEAE6",
"Q$	c #F1F1E1",
"R$	c #373061",
"S$	c #231D4C",
"T$	c #4C4941",
"U$	c #6A6966",
"V$	c #959596",
"W$	c #74726B",
"X$	c #4A4635",
"Y$	c #1C1500",
"Z$	c #656152",
"`$	c #F2F2F2",
" %	c #87856C",
".%	c #3F3B27",
"+%	c #55534C",
"@%	c #89898A",
"#%	c #787671",
"$%	c #403C29",
"%%	c #F5F5F4",
"&%	c #F7F7FA",
"*%	c #7F7C74",
"=%	c #5D5C56",
"-%	c #848483",
";%	c #7C7B77",
">%	c #1A1400",
",%	c #605C4C",
"'%	c #D0CEC9",
")%	c #4E4938",
"!%	c #474338",
"~%	c #484433",
"{%	c #3C3723",
"]%	c #575341",
"                                                                                            ",
"                  . + @                                                                     ",
"                # $ % &                                                                     ",
"              * = - ;                                                                       ",
"          > , ' ) !                                                                         ",
"        ~ { ] ^ ;                                                                           ",
"      / ( _ : <                                             [ } | 1 2                       ",
"    3 4 5 6 7 8                                         9 0 a b c d e                       ",
"  f g h i j k l                                     m 0 n o p q q r s                       ",
"  t u v w x y                                     z A B C D q q q E F                       ",
"  G H I J K                                   L M N O P q Q q q R S T                       ",
"  U V W X Y Z `    ...                  +.  @.#.$.%.&.*.=.-.q ;.>.,.                        ",
"'.).!.~.{.].^./.(._.:.<.[.}.|.          1.2.3.4.5.6.7.8.9.0.q a.b.c.                        ",
"  d.e.f.g.h.i.j.k.l.m.n.o.p.q.r.s.t.u.v.w.x.y.z.A.B.C.D.E.F.G.H.I.                          ",
"    J.K.q L.M.N.O.P.Q.R.S.T.U.V.W.X.Y.Z.`. +.+++@+#+$+%+&+*+=+-+;+                          ",
"    >+,+'+)+!+~+{+]+]+^+/+(+_+:+<+[+)+}+|+1+2+3+4+5+6+7+8+9+0+a+                            ",
"        b+c+d+e+f+g+]+k.h+i+j+k+l+m+q n+o+p+#+q+r+#+s+t+u+v+w+x+                            ",
"        y+z+A+B+C+D+]+Q.E+F+G+q q H+I+J+K+4+L+L+M+N+O+P+Q+R+S+                              ",
"          T+U+V+W+X+Q.Y+Z+`+ @.@q +@@@#@$@%@L+5+&@*@5.=@-@;@                                ",
"          >@,@'@)@!@k.O.~@{@]@^@/@(@_@6+L+L+L+r+:@<@[@q }@x+                                ",
"            |@1@2@3@~@k.4@5@6@7@8@9@0@4+q+%@5+a@E.b@c@d@e@                                  ",
"              f@g@h@i@j@k@l@m@n@o@p@q@L+%@r@s@t@u@q v@w@x@                                  ",
"                y@z@A@B@C@D@E@F@G@H@I@J@K@L@M@N@O@q P@Q@                                    ",
"                  R@S@T@U@V@W@X@Y@Z@`@ #.#+#@#q ##$#%#&#                                    ",
"                      *#=#-#;#>#V@Z@,#'#)#!#q q ~#{#]#^#                                    ",
"                      /#(#_#:#<#[#}#|#1#2#3#4#5#E 6#7#8#                                    ",
"                      /#9#0#a#b#> c#d#e#f#g#h#i#j#k#l#m#n#                                  ",
"                        W@o#p#q#r#s#t#u#v#w#x#y#z#A#B#C#D#                                  ",
"                        E#t F#G#H#I#J#K#L#O.M#N#O#P#]+Q#R#                                  ",
"                            S#T#U#V#W#X#]+Q.k.Q.Y#Z#R.`# $                  @ .$            ",
"                                  +$@$#$^+]+$$]+]+]+Q.%$&$                ! *$=$            ",
"                                  -$;$>$,$'$)$Q.g+^+^+!$~$              ; - = {$            ",
"                                    ]$^$/$($_$:$<$[$}$|$1$2$          f 3$4$#               ",
"                                      5$6$7$8$8$9$C+0$a$b$c$    d$e$f$g$h$i$                ",
"                                        j$k$l$m$n$o$p$q$r$s$  t$u$v$w$x$y$                  ",
"                                          z$A$B$C$D$E$A+F$G$H$I$J$K$L$M$N$                  ",
"                                                O$P$q Q$R$S$T$U$K$V$W$X$                    ",
"                                                Y$Z$e.`$ %.%+%@%V$#%$%                      ",
"                                                    b+%%&%*%=%-%;%a#                        ",
"                                                    >%,%'%)%!%~%{%                          ",
"                                                        ]%                                  ",
"                                                                                            ",
"                                                                                            ",
"                                                                                            ",
"                                                                                            ",
"                                                                                            "};
