/* XPM */
static char * playerTwo10_xpm[] = {
"46 46 670 2",
"  	c None",
". 	c #3F3B28",
"+ 	c #38331D",
"@ 	c #3A341F",
"# 	c #403C29",
"$ 	c #464232",
"% 	c #5E5B4F",
"& 	c #68665C",
"* 	c #575448",
"= 	c #474335",
"- 	c #4A4634",
"; 	c #3D3925",
"> 	c #545041",
", 	c #666459",
"' 	c #82807C",
") 	c #8C8B8B",
"! 	c #848484",
"~ 	c #676762",
"{ 	c #6A675C",
"] 	c #B2AFA9",
"^ 	c #928E84",
"/ 	c #443F2D",
"( 	c #565346",
"_ 	c #727169",
": 	c #878785",
"< 	c #8D8C8D",
"[ 	c #8F8F90",
"} 	c #878789",
"| 	c #71706B",
"1 	c #504D42",
"2 	c #636050",
"3 	c #D5D4CA",
"4 	c #E0DFDC",
"5 	c #615E4F",
"6 	c #3A3623",
"7 	c #444131",
"8 	c #67665F",
"9 	c #898987",
"0 	c #919294",
"a 	c #7E7E7F",
"b 	c #6C6C6C",
"c 	c #5B594F",
"d 	c #4F4B3C",
"e 	c #322E39",
"f 	c #433E48",
"g 	c #BDBBB9",
"h 	c #E1E1DD",
"i 	c #848275",
"j 	c #3E3A28",
"k 	c #454234",
"l 	c #4A483C",
"m 	c #525049",
"n 	c #5E5D58",
"o 	c #615F55",
"p 	c #5F5C57",
"q 	c #535148",
"r 	c #423F33",
"s 	c #403C15",
"t 	c #342D31",
"u 	c #1E1676",
"v 	c #4640A2",
"w 	c #CCCACF",
"x 	c #FCFCF4",
"y 	c #B0AEA7",
"z 	c #474233",
"A 	c #4D493E",
"B 	c #5C5B57",
"C 	c #4D4B3F",
"D 	c #474435",
"E 	c #423D2B",
"F 	c #413C2D",
"G 	c #3E3928",
"H 	c #241B77",
"I 	c #1B15AF",
"J 	c #413FFF",
"K 	c #D5D4F6",
"L 	c #FFFFFF",
"M 	c #DBD9D3",
"N 	c #6E6A5B",
"O 	c #3D3926",
"P 	c #4A473A",
"Q 	c #434030",
"R 	c #403B29",
"S 	c #2D2469",
"T 	c #1311BE",
"U 	c #1D23FA",
"V 	c #696AFF",
"W 	c #BEBAFF",
"X 	c #EDEBF0",
"Y 	c #A6A393",
"Z 	c #5A5739",
"` 	c #292176",
" .	c #151BCA",
"..	c #0622FF",
"+.	c #0F1FFF",
"@.	c #4F4DFF",
"#.	c #B5B1FE",
"$.	c #DBD6E6",
"%.	c #BCB9AC",
"&.	c #757264",
"*.	c #2B286D",
"=.	c #1120E3",
"-.	c #0F39FF",
";.	c #082BFF",
">.	c #0212FF",
",.	c #454AFF",
"'.	c #A6A1FF",
").	c #D9D6E6",
"!.	c #9A9781",
"~.	c #59562F",
"{.	c #2E1D65",
"].	c #201AA6",
"^.	c #1025F2",
"/.	c #1037FF",
"(.	c #0F37FF",
"_.	c #0327FF",
":.	c #0D22FF",
"<.	c #3E42FF",
"[.	c #8686FC",
"}.	c #B9B3C9",
"|.	c #6B6746",
"1.	c #282579",
"2.	c #0E24FE",
"3.	c #1039FF",
"4.	c #113AFF",
"5.	c #0D34FF",
"6.	c #0620FF",
"7.	c #353AFF",
"8.	c #716BDE",
"9.	c #5A5469",
"0.	c #2C2861",
"a.	c #1C20AC",
"b.	c #0C28FF",
"c.	c #103CFF",
"d.	c #103AFF",
"e.	c #1138FF",
"f.	c #1038FF",
"g.	c #062CFF",
"h.	c #0F2EFF",
"i.	c #243AF8",
"j.	c #2928A9",
"k.	c #2E253D",
"l.	c #262282",
"m.	c #131EE0",
"n.	c #0B21FA",
"o.	c #0D22F7",
"p.	c #0C27FF",
"q.	c #0E31FF",
"r.	c #0D35FF",
"s.	c #0B2CFF",
"t.	c #0E13D3",
"u.	c #2F2751",
"v.	c #292275",
"w.	c #100AE2",
"x.	c #1211D6",
"y.	c #251F9A",
"z.	c #181CA7",
"A.	c #0F1FE6",
"B.	c #0E2FFD",
"C.	c #0A29FF",
"D.	c #0D11EB",
"E.	c #221A80",
"F.	c #2E2737",
"G.	c #1F1783",
"H.	c #1108C8",
"I.	c #453E97",
"J.	c #7F797D",
"K.	c #676267",
"L.	c #201C94",
"M.	c #0412E7",
"N.	c #0E2CFF",
"O.	c #0E20F0",
"P.	c #1016EA",
"Q.	c #1B13D6",
"R.	c #332E7A",
"S.	c #282307",
"T.	c #221C56",
"U.	c #302A7F",
"V.	c #7F7D75",
"W.	c #E1E1CC",
"X.	c #C5C2B8",
"Y.	c #474173",
"Z.	c #0904BD",
"`.	c #0C08E4",
" +	c #1F1BA1",
".+	c #342D75",
"++	c #4F495D",
"@+	c #5C5A52",
"#+	c #5C594A",
"$+	c #535041",
"%+	c #433D2A",
"&+	c #5C5751",
"*+	c #878487",
"=+	c #BFBEAE",
"-+	c #E4E3C5",
";+	c #8C8A8E",
">+	c #49428B",
",+	c #2D274B",
"'+	c #3F3A33",
")+	c #4D4839",
"!+	c #5C5940",
"~+	c #6A6853",
"{+	c #625F55",
"]+	c #565347",
"^+	c #514E3F",
"/+	c #96958E",
"(+	c #CECDCA",
"_+	c #EDEBDF",
":+	c #FFFEFC",
"<+	c #E2E6EA",
"[+	c #AAB1AF",
"}+	c #B5ABA7",
"|+	c #7F7778",
"1+	c #3F3F36",
"2+	c #535238",
"3+	c #5C5A49",
"4+	c #67655B",
"5+	c #6B6962",
"6+	c #6D6B63",
"7+	c #545143",
"8+	c #423D2D",
"9+	c #6D695D",
"0+	c #CEC8C3",
"a+	c #FCF9F8",
"b+	c #C8D2D6",
"c+	c #8D999F",
"d+	c #6C7678",
"e+	c #63615B",
"f+	c #69655C",
"g+	c #58554C",
"h+	c #534B3F",
"i+	c #5C5044",
"j+	c #5C5753",
"k+	c #57554C",
"l+	c #5A594F",
"m+	c #605D52",
"n+	c #585547",
"o+	c #69675F",
"p+	c #514E40",
"q+	c #696557",
"r+	c #AFACA6",
"s+	c #BDBBB7",
"t+	c #9DA4A7",
"u+	c #79888D",
"v+	c #656D6C",
"w+	c #6A6053",
"x+	c #7A634C",
"y+	c #B18963",
"z+	c #D1A477",
"A+	c #A78563",
"B+	c #B28B66",
"C+	c #AC8864",
"D+	c #806B55",
"E+	c #585146",
"F+	c #454744",
"G+	c #636156",
"H+	c #65635A",
"I+	c #4F4C3D",
"J+	c #4B4837",
"K+	c #413D29",
"L+	c #6F6B5F",
"M+	c #949493",
"N+	c #7F8281",
"O+	c #6A6863",
"P+	c #6C5C4C",
"Q+	c #8A6D52",
"R+	c #B18A64",
"S+	c #DFAD7C",
"T+	c #FFC891",
"U+	c #FBC894",
"V+	c #F7C390",
"W+	c #F6C28E",
"X+	c #FBC793",
"Y+	c #E7B684",
"Z+	c #806B56",
"`+	c #514C46",
" @	c #56544C",
".@	c #606058",
"+@	c #626153",
"@@	c #504E3B",
"#@	c #636055",
"$@	c #90897D",
"%@	c #C6B9B0",
"&@	c #ADABA9",
"*@	c #78736B",
"=@	c #735E49",
"-@	c #A6825F",
";@	c #DDAC7B",
">@	c #E3B180",
",@	c #A08364",
"'@	c #C59F7A",
")@	c #FECB99",
"!@	c #FFCC99",
"~@	c #FFCD9A",
"{@	c #FFCE99",
"]@	c #DDB388",
"^@	c #B19272",
"/@	c #6B5E4F",
"(@	c #4A4A41",
"_@	c #605E4E",
":@	c #4D4739",
"<@	c #827D72",
"[@	c #CAD0D0",
"}@	c #BCCBCC",
"|@	c #7F9194",
"1@	c #9A836A",
"2@	c #E8B482",
"3@	c #F3BE8A",
"4@	c #E7B889",
"5@	c #BF9C78",
"6@	c #988066",
"7@	c #E6B98C",
"8@	c #FFCF9B",
"9@	c #FDCC9A",
"0@	c #FAC997",
"a@	c #9C8166",
"b@	c #403C41",
"c@	c #393560",
"d@	c #29225D",
"e@	c #5E5A4B",
"f@	c #999188",
"g@	c #C3C5C2",
"h@	c #9ACFE4",
"i@	c #5E7C86",
"j@	c #625445",
"k@	c #BD946B",
"l@	c #D9AE82",
"m@	c #B19171",
"n@	c #756453",
"o@	c #5F5449",
"p@	c #A5896C",
"q@	c #F3C493",
"r@	c #FFD09C",
"s@	c #FFD7A4",
"t@	c #FFD8A5",
"u@	c #FFD59F",
"v@	c #C09E78",
"w@	c #514858",
"x@	c #212085",
"y@	c #231E79",
"z@	c #352C35",
"A@	c #4C4838",
"B@	c #A09F99",
"C@	c #F0E7E3",
"D@	c #C0EAFB",
"E@	c #4CA8D0",
"F@	c #506568",
"G@	c #C5986D",
"H@	c #EEBD89",
"I@	c #987E64",
"J@	c #66594C",
"K@	c #9B8267",
"L@	c #CEA981",
"M@	c #E9BF90",
"N@	c #FECC99",
"O@	c #F5C392",
"P@	c #DEBD92",
"Q@	c #F0CA9B",
"R@	c #FFD19D",
"S@	c #F5C595",
"T@	c #A98C6E",
"U@	c #4B4949",
"V@	c #4A4A4C",
"W@	c #292B70",
"X@	c #2F2948",
"Y@	c #524E3F",
"Z@	c #676458",
"`@	c #999892",
" #	c #E2E1E1",
".#	c #BAEBFE",
"+#	c #3099CD",
"@#	c #3A4E57",
"##	c #C39E79",
"$#	c #FFD39D",
"%#	c #DCB389",
"&#	c #DDB489",
"*#	c #EFC594",
"=#	c #FDD09C",
"-#	c #FFD39E",
";#	c #FFCE9A",
">#	c #D4AD84",
",#	c #8C7661",
"'#	c #BC9B78",
")#	c #FFCF9A",
"!#	c #F8CA98",
"~#	c #88735D",
"{#	c #505051",
"]#	c #656763",
"^#	c #4B4B6C",
"/#	c #353449",
"(#	c #353438",
"_#	c #6C695D",
":#	c #908F86",
"<#	c #D1D0CE",
"[#	c #EAEAE9",
"}#	c #FFFDFC",
"|#	c #EDF9FE",
"1#	c #87D7FF",
"2#	c #2490CA",
"3#	c #586869",
"4#	c #D2A97E",
"5#	c #FFD29D",
"6#	c #F1C795",
"7#	c #786756",
"8#	c #BA9776",
"9#	c #F7C695",
"0#	c #C2A07C",
"a#	c #665C55",
"b#	c #5D6062",
"c#	c #6D6D6D",
"d#	c #4D4D4C",
"e#	c #42413A",
"f#	c #868379",
"g#	c #D4D3D0",
"h#	c #F5FEFF",
"i#	c #BAE9FC",
"j#	c #6D9FB2",
"k#	c #636155",
"l#	c #DCBD90",
"m#	c #F6CB9A",
"n#	c #E1B489",
"o#	c #FCCB99",
"p#	c #EDC394",
"q#	c #C1A280",
"r#	c #98826C",
"s#	c #D0A983",
"t#	c #E8BB8F",
"u#	c #DEB58C",
"v#	c #FFD19B",
"w#	c #FECD9A",
"x#	c #E1B78B",
"y#	c #786C60",
"z#	c #797A7A",
"A#	c #868686",
"B#	c #6B6B6B",
"C#	c #4B4A45",
"D#	c #403F38",
"E#	c #484533",
"F#	c #828076",
"G#	c #E6E6E6",
"H#	c #FFFEFE",
"I#	c #F6F6F5",
"J#	c #F6F8F7",
"K#	c #D1D6D7",
"L#	c #57544E",
"M#	c #BFA783",
"N#	c #B09677",
"O#	c #A6886C",
"P#	c #E7BE8F",
"Q#	c #F6CC99",
"R#	c #F2C494",
"S#	c #DAB28A",
"T#	c #796D63",
"U#	c #857768",
"V#	c #A48C75",
"W#	c #635F5A",
"X#	c #B5997B",
"Y#	c #FACA98",
"Z#	c #FFCD99",
"`#	c #B29171",
" $	c #65605A",
".$	c #6E6F70",
"+$	c #878787",
"@$	c #828283",
"#$	c #6A6A69",
"$$	c #555553",
"%$	c #333333",
"&$	c #555040",
"*$	c #BBBAB7",
"=$	c #F6F7F9",
"-$	c #E7E6E6",
";$	c #D1D0CF",
">$	c #AFADA8",
",$	c #BFBBB6",
"'$	c #B0B0AD",
")$	c #63615D",
"!$	c #8A7661",
"~$	c #AE8E70",
"{$	c #8C755F",
"]$	c #A88D71",
"^$	c #A48D75",
"/$	c #B4987B",
"($	c #F5C594",
"_$	c #E8BB90",
":$	c #D4AE88",
"<$	c #D4AF88",
"[$	c #EFC394",
"}$	c #FDCC99",
"|$	c #FFD09B",
"1$	c #D5AB82",
"2$	c #464441",
"3$	c #595A5C",
"4$	c #737373",
"5$	c #7B7B7B",
"6$	c #7E7E7E",
"7$	c #757575",
"8$	c #444444",
"9$	c #45412E",
"0$	c #848178",
"a$	c #99978F",
"b$	c #8D8B81",
"c$	c #686459",
"d$	c #464135",
"e$	c #646055",
"f$	c #514D3E",
"g$	c #454137",
"h$	c #574E44",
"i$	c #CDA67F",
"j$	c #D1A982",
"k$	c #A68D74",
"l$	c #726962",
"m$	c #C6A482",
"n$	c #FDCB98",
"o$	c #FDCF9A",
"p$	c #FFD39C",
"q$	c #F9C997",
"r$	c #B29272",
"s$	c #544F4A",
"t$	c #616161",
"u$	c #767676",
"v$	c #8E8E8E",
"w$	c #646464",
"x$	c #303030",
"y$	c #4A4534",
"z$	c #3D3A38",
"A$	c #977F66",
"B$	c #C09F7E",
"C$	c #9F8973",
"D$	c #E3B88E",
"E$	c #FFD59E",
"F$	c #FFCB99",
"G$	c #F8C896",
"H$	c #9F8368",
"I$	c #454645",
"J$	c #666768",
"K$	c #787878",
"L$	c #818181",
"M$	c #8A8A8A",
"N$	c #43413E",
"O$	c #6C635B",
"P$	c #B89C7E",
"Q$	c #F3C595",
"R$	c #FFCE9B",
"S$	c #FFD49F",
"T$	c #FFD9A2",
"U$	c #FCD19C",
"V$	c #E2BA8D",
"W$	c #E6BA8C",
"X$	c #FACD99",
"Y$	c #BB9977",
"Z$	c #55514D",
"`$	c #636364",
" %	c #525353",
".%	c #373635",
"+%	c #3F3D39",
"@%	c #AB8F72",
"#%	c #F5CA99",
"$%	c #FDCF9B",
"%%	c #FFD8A1",
"&%	c #B89574",
"*%	c #E8BD8F",
"=%	c #D3B086",
"-%	c #A78A6D",
";%	c #736253",
">%	c #816D5A",
",%	c #B39273",
"'%	c #7B6B5A",
")%	c #646362",
"!%	c #707070",
"~%	c #7D7D7D",
"{%	c #71706C",
"]%	c #4B4739",
"^%	c #363533",
"/%	c #796856",
"(%	c #B09373",
"_%	c #A08468",
":%	c #C4A07B",
"<%	c #B79675",
"[%	c #84705C",
"}%	c #62574C",
"|%	c #544D48",
"1%	c #7B6A5A",
"2%	c #65594D",
"3%	c #3F3D3B",
"4%	c #33363B",
"5%	c #4F4F4E",
"6%	c #484949",
"7%	c #4A4D4F",
"8%	c #6B6C6D",
"9%	c #717171",
"0%	c #747474",
"a%	c #595959",
"b%	c #7B7B7A",
"c%	c #6B675B",
"d%	c #3C3A36",
"e%	c #524B44",
"f%	c #4A4644",
"g%	c #5D554D",
"h%	c #564F48",
"i%	c #434241",
"j%	c #424445",
"k%	c #515152",
"l%	c #4F4F50",
"m%	c #424345",
"n%	c #535353",
"o%	c #636363",
"p%	c #6F6F6F",
"q%	c #828282",
"r%	c #6E6E6E",
"s%	c #6E6B63",
"t%	c #534E3C",
"u%	c #404040",
"v%	c #4B4B4C",
"w%	c #585959",
"x%	c #5C5D5D",
"y%	c #505253",
"z%	c #575757",
"A%	c #727272",
"B%	c #696969",
"C%	c #7A7A7A",
"D%	c #808080",
"E%	c #6C6D6D",
"F%	c #B1B0B0",
"G%	c #6A6658",
"H%	c #424242",
"I%	c #676767",
"J%	c #797979",
"K%	c #777777",
"L%	c #858585",
"M%	c #898989",
"N%	c #54534E",
"O%	c #524D3E",
"P%	c #3C3C3C",
"Q%	c #666666",
"R%	c #7C7C7C",
"S%	c #60605F",
"T%	c #47453D",
"U%	c #363636",
"V%	c #838383",
"W%	c #7F7F7F",
"X%	c #4C4C49",
"Y%	c #3E3A2A",
"Z%	c #8F8F8F",
"`%	c #777778",
" &	c #504F4D",
".&	c #4C4B41",
"+&	c #454233",
"@&	c #3B3521",
"#&	c #3B3B3B",
"$&	c #919191",
"%&	c #888888",
"&&	c #959595",
"*&	c #8B8B8B",
"=&	c #686868",
"-&	c #484846",
";&	c #403E33",
">&	c #4B4836",
",&	c #454545",
"'&	c #797878",
")&	c #5B5B5A",
"!&	c #40403F",
"~&	c #333332",
"{&	c #323232",
"]&	c #585858",
"^&	c #565555",
"/&	c #42413D",
"(&	c #494743",
"_&	c #4F4F4F",
":&	c #383838",
"<&	c #2F2F2F",
"                                                                                            ",
"                            . + @                                                           ",
"                        # $ % & * = -                                                       ",
"                    ; > , ' ) ! ~ { ] ^ /                                                   ",
"                  ( _ : < [ } | 1 2 3 4 5                                                   ",
"              6 7 8 9 0 a b c d e f g h i                                                   ",
"          j k l m n o p q r s t u v w x y z                                                 ",
"          A B C D E   F G     H I J K L M N                                                 ",
"        O P Q R               S T U V W X Y Z                                               ",
"                              `  ...+.@.#.$.%.&.                                            ",
"                              *.=.-.;.>.,.'.).!.~.                                          ",
"                            {.].^./.(._.:.<.[.}.|.                                          ",
"                              1.2.3./.4.5.6.7.8.9.                                          ",
"                            0.a.b.c.d.e.f.g.h.i.j.k.                                        ",
"                            l.m.n.o.p.q.4.3.r.s.t.u.                                        ",
"                            v.w.x.y.z.A.B.3.f.C.D.E.F.                                      ",
"                            G.H.I.J.K.L.M.N.O.P.Q.R.                                        ",
"                          S.T.U.V.W.X.Y.Z.`. +.+++@+#+$+                                    ",
"                          %+&+*+=+L -+;+>+,+'+)+!+~+{+]+^+                                  ",
"                          /+(+_+:+<+[+}+|+1+2+3+4+o 5+6+7+                                  ",
"                      8+9+0+a+b+c+d+e+f+g+h+i+j+k+l+m+n+o+p+                                ",
"                    q+r+s+t+u+v+w+x+y+z+A+B+C+D+E+F+6+G+H+I+                                ",
"                J+K+L+M+N+O+P+Q+R+S+T+U+V+W+X+Y+Z+`+ @.@+@@@                                ",
"              #@$@%@&@*@=@-@;@>@,@'@)@!@!@~@~@{@]@^@/@(@_@                                  ",
"            :@<@[@}@|@1@2@3@4@5@6@7@8@!@~@!@!@!@9@0@a@b@c@d@                                ",
"          e@f@g@h@i@j@k@l@m@n@o@p@q@r@s@t@~@!@!@~@u@v@w@x@y@z@                              ",
"        A@B@C@D@E@F@G@H@I@J@K@L@M@N@O@P@Q@R@!@!@!@S@T@U@V@W@X@                              ",
"    Y@Z@`@ #L .#+#@###$#%#&#*#=#-#;#>#,#'#)#!@!@!@!#~#{#]#^#/#(#                            ",
"  _#:#<#[#}#|#1#2#3#4#8@N@R@5#~@!@u@6#7#8#9#!@!@~@8@0#a#b#c#d#e#                            ",
"  f#g#L L L h#i#j#k#l#m#n#o#8@!@!@p#q#r#s#t#u#v#!@w#x#y#z#A#B#C#D#                          ",
"E#F#G#L L H#I#J#K#L#M#N#O#P#Q#R#;#S#T#U#V#W#X#Y#!@Z#`# $.$+$@$#$$$%$                        ",
"  &$*$=$-$;$>$,$'$)$!$~${$]$^$/$~@($_$)#:$<$[$}$Z#|$1$2$3$4$5$6$7$8$                        ",
"  9$0$a$b$c$d$e$f$g$h$i$j$k$l$m$n$N@)#;#}$o$p$~@!@q$r$s$t$u$u$! v$w$x$                      ",
"        y$          z$A$B$C$D$E$Z#!@~@!@F$Z#~@5#r@G$H$I$J$u$K$L$M$w$                        ",
"                      N$O$P$Q$;#~@R$S$R$|$T$U$V$W$X$Y$Z$`$c#5$5$ %.%                        ",
"                      +%@%#%$%}$%%X$L@&%*%=%-%;%>%,%'%)%b !%~%7${%]%                        ",
"                      ^%/%(%_%:%<%[%}%|%1%2%3%4%5%6%7%8%9%0%u$a%b%c%                        ",
"                        d%e%f%g%h%i%j%k%l%m%n%t$b !%7$0%o%p%q%r%c#s%t%                      ",
"                        u%v%w%x%y%z%o%r%A%B%c#A%u$K$C%D%~%4$6$! E%F%G%                      ",
"                        H%I%u$J%r%A%K%K$K%K%r%I%9%K%J%A#L%q%M%A%N%O%                        ",
"                        P%B#A#L%C%K%K%c#Q%K$4$p%J%R%6$+$M$L%J%S%T%                          ",
"                        U%n%R%~%K$V%V%r%B%K$C%K%q%q%5$L%W%o%a%X%Y%                          ",
"                          u%C%~%J%+$L$7$7$q%V%C%+$Z%M$M%`% &.&+&@&                          ",
"                          #&Q%c#6$$&D%C%+$M%%&M$&&*&~%=&-&;&>&                              ",
"                              ,&K$%&6$+$W%!%'&A#K%)&!&~&                                    ",
"                              {&a%a%]&o%^&/&(&_&:&<&                                        "};
