/* XPM */
static char * playerTwo11_xpm[] = {
"46 46 684 2",
"  	c None",
". 	c #393420",
"+ 	c #413B29",
"@ 	c #504D3D",
"# 	c #746F63",
"$ 	c #6D695B",
"% 	c #454132",
"& 	c #524F42",
"* 	c #5F5C52",
"= 	c #5D5A51",
"- 	c #6C695D",
"; 	c #B0ADA6",
"> 	c #B0AEA6",
", 	c #7A776A",
"' 	c #433E2D",
") 	c #585548",
"! 	c #76746F",
"~ 	c #7B7B79",
"{ 	c #64625C",
"] 	c #656256",
"^ 	c #A7A69D",
"/ 	c #D8D8D3",
"( 	c #B2B0A8",
"_ 	c #737062",
": 	c #484534",
"< 	c #5A5749",
"[ 	c #777570",
"} 	c #878787",
"| 	c #7A7978",
"1 	c #565350",
"2 	c #413D44",
"3 	c #706C79",
"4 	c #C5C4C7",
"5 	c #F2F2EC",
"6 	c #ABA8A1",
"7 	c #565143",
"8 	c #413E2D",
"9 	c #595649",
"0 	c #787772",
"a 	c #878687",
"b 	c #7B7A7B",
"c 	c #5F5E54",
"d 	c #44403C",
"e 	c #2B255E",
"f 	c #4C47A0",
"g 	c #B4B2D7",
"h 	c #EAEAF4",
"i 	c #E1DFDF",
"j 	c #B1AEA5",
"k 	c #817D6B",
"l 	c #817E6E",
"m 	c #6E6A5D",
"n 	c #555245",
"o 	c #75746E",
"p 	c #888989",
"q 	c #7A7A7B",
"r 	c #5E5D57",
"s 	c #48452F",
"t 	c #37312F",
"u 	c #221A7C",
"v 	c #2E2BD0",
"w 	c #7575F7",
"x 	c #AAAAFF",
"y 	c #C1BFF9",
"z 	c #D0CCE9",
"A 	c #BEBBC3",
"B 	c #B1AEAA",
"C 	c #888575",
"D 	c #646141",
"E 	c #5E5D54",
"F 	c #777772",
"G 	c #767573",
"H 	c #5D5B54",
"I 	c #474539",
"J 	c #221B81",
"K 	c #1B1AC6",
"L 	c #222BF6",
"M 	c #333CFF",
"N 	c #5859FF",
"O 	c #7D7DFC",
"P 	c #9F9DF7",
"Q 	c #B5B3E9",
"R 	c #ABA8C0",
"S 	c #7E7A74",
"T 	c #5F5B47",
"U 	c #433F30",
"V 	c #55534B",
"W 	c #5C5951",
"X 	c #555247",
"Y 	c #484236",
"Z 	c #271D73",
"` 	c #191AAF",
" .	c #0D23EE",
"..	c #0B28FE",
"+.	c #0F25FF",
"@.	c #1D2DFF",
"#.	c #3C44FE",
"$.	c #585DFF",
"%.	c #6F70F0",
"&.	c #6E6BBE",
"*.	c #4A4770",
"=.	c #342D40",
"-.	c #464438",
";.	c #4B493E",
">.	c #4D4A3F",
",.	c #464233",
"'.	c #1C1EA6",
").	c #1028EA",
"!.	c #0D33FD",
"~.	c #0B30FF",
"{.	c #072AFF",
"].	c #0E2CFF",
"^.	c #142DFF",
"/.	c #1E2DFF",
"(.	c #2E40F9",
"_.	c #2327D3",
":.	c #241E65",
"<.	c #382E30",
"[.	c #433F31",
"}.	c #4F4D44",
"|.	c #4C4A3E",
"1.	c #454131",
"2.	c #1E1E9D",
"3.	c #1124E5",
"4.	c #0F33FC",
"5.	c #0F36FE",
"6.	c #0F37FF",
"7.	c #0E36FF",
"8.	c #0C31FF",
"9.	c #0B2EFF",
"0.	c #0F32FF",
"a.	c #0F23EE",
"b.	c #1618B8",
"c.	c #261F68",
"d.	c #464234",
"e.	c #504D44",
"f.	c #3E3A28",
"g.	c #26207A",
"h.	c #1621CE",
"i.	c #0E2FFC",
"j.	c #0F38FF",
"k.	c #0E35FE",
"l.	c #0E33FE",
"m.	c #0A2AFF",
"n.	c #0B0DF5",
"o.	c #231C9F",
"p.	c #292566",
"q.	c #1921B7",
"r.	c #0E29F6",
"s.	c #0D2DFA",
"t.	c #0D28F3",
"u.	c #0E29EF",
"v.	c #0D2DF8",
"w.	c #0E32FF",
"x.	c #0D2BF9",
"y.	c #101EE7",
"z.	c #211FBC",
"A.	c #433F74",
"B.	c #5A5853",
"C.	c #595748",
"D.	c #565245",
"E.	c #514D3F",
"F.	c #23227A",
"G.	c #181EBC",
"H.	c #0D1CEB",
"I.	c #151ED3",
"J.	c #2024AF",
"K.	c #1F25A9",
"L.	c #121CCD",
"M.	c #0B1EEA",
"N.	c #0E1AE7",
"O.	c #1E1EAA",
"P.	c #3A356B",
"Q.	c #57534E",
"R.	c #646251",
"S.	c #626055",
"T.	c #646158",
"U.	c #5E5C51",
"V.	c #4D4B3C",
"W.	c #28236B",
"X.	c #1B18AD",
"Y.	c #1412D2",
"Z.	c #322DA5",
"`.	c #645E84",
" +	c #66627B",
".+	c #36328A",
"++	c #1917B7",
"@+	c #1A16A5",
"#+	c #312D5C",
"$+	c #4A463F",
"%+	c #5B5845",
"&+	c #636157",
"*+	c #66645C",
"=+	c #6C6B63",
"-+	c #626056",
";+	c #4E4B3C",
">+	c #20188A",
",+	c #1A13B1",
"'+	c #534F95",
")+	c #B0AEAA",
"!+	c #C3C1B9",
"~+	c #8B8892",
"{+	c #5F5990",
"]+	c #433D69",
"^+	c #43413A",
"/+	c #54513D",
"(+	c #5C594F",
"_+	c #59574D",
":+	c #5B5A52",
"<+	c #615F55",
"[+	c #605E54",
"}+	c #605F54",
"|+	c #514F3F",
"1+	c #211B52",
"2+	c #2B2580",
"3+	c #6C6982",
"4+	c #CBCBC4",
"5+	c #F0EFE7",
"6+	c #BDBCB0",
"7+	c #9C9594",
"8+	c #656160",
"9+	c #514C3E",
"0+	c #615645",
"a+	c #655A4E",
"b+	c #60584C",
"c+	c #524E47",
"d+	c #595954",
"e+	c #595850",
"f+	c #6B6B5D",
"g+	c #58563F",
"h+	c #37312A",
"i+	c #5E5966",
"j+	c #A2A09E",
"k+	c #E2E2DA",
"l+	c #D2D6D7",
"m+	c #949996",
"n+	c #7C766E",
"o+	c #706556",
"p+	c #7B6751",
"q+	c #A48362",
"r+	c #AD8A67",
"s+	c #A08364",
"t+	c #7C6A57",
"u+	c #726555",
"v+	c #5D554A",
"w+	c #4D4B47",
"x+	c #464255",
"y+	c #2E265C",
"z+	c #2C243B",
"A+	c #666155",
"B+	c #A4A29C",
"C+	c #DFDED9",
"D+	c #D1D5D5",
"E+	c #919696",
"F+	c #736B60",
"G+	c #987C60",
"H+	c #BE9871",
"I+	c #CBA076",
"J+	c #E8B786",
"K+	c #F0BF8D",
"L+	c #E8BA8A",
"M+	c #D4AC82",
"N+	c #C5A27C",
"O+	c #9B8167",
"P+	c #5C514F",
"Q+	c #312E61",
"R+	c #262376",
"S+	c #2C2750",
"T+	c #30293E",
"U+	c #858379",
"V+	c #D1CDCA",
"W+	c #CFD3D3",
"X+	c #8E9696",
"Y+	c #746C61",
"Z+	c #9B7C5E",
"`+	c #DDAE7F",
" @	c #F2C08E",
".@	c #F7C492",
"+@	c #FBC995",
"@@	c #FECB98",
"#@	c #FCCA97",
"$@	c #FAC997",
"%@	c #F9C896",
"&@	c #DEB488",
"*@	c #8E7765",
"=@	c #474359",
"-@	c #3A3A61",
";@	c #323263",
">@	c #302D4B",
",@	c #343339",
"'@	c #575345",
")@	c #928E85",
"!@	c #B5B5B3",
"~@	c #8D9392",
"{@	c #736C61",
"]@	c #927559",
"^@	c #C59B72",
"/@	c #ECBB8B",
"(@	c #FECC99",
"_@	c #FFCC99",
":@	c #F0C192",
"<@	c #A5896D",
"[@	c #5A5450",
"}@	c #565758",
"|@	c #565666",
"1@	c #484854",
"2@	c #434241",
"3@	c #403E38",
"4@	c #8B887D",
"5@	c #BBBAB6",
"6@	c #888A88",
"7@	c #9A7B5D",
"8@	c #B6906A",
"9@	c #B08F6C",
"0@	c #DFB387",
"a@	c #FECD9A",
"b@	c #FED09D",
"c@	c #F4C594",
"d@	c #BE9D7A",
"e@	c #746759",
"f@	c #62605D",
"g@	c #696A6B",
"h@	c #6C6C6D",
"i@	c #5D5D5C",
"j@	c #50504B",
"k@	c #494946",
"l@	c #3A3A3A",
"m@	c #433F2D",
"n@	c #88857D",
"o@	c #898A8A",
"p@	c #6B6258",
"q@	c #9E7E60",
"r@	c #D2A579",
"s@	c #C19B75",
"t@	c #A38669",
"u@	c #DCB287",
"v@	c #FACA97",
"w@	c #FCD09D",
"x@	c #F4CF9E",
"y@	c #FACD9B",
"z@	c #FCCA98",
"A@	c #ECC091",
"B@	c #B29474",
"C@	c #776C60",
"D@	c #747372",
"E@	c #828282",
"F@	c #7C7C7C",
"G@	c #6E6E6D",
"H@	c #686866",
"I@	c #565656",
"J@	c #3E3E3E",
"K@	c #4E4A3A",
"L@	c #6E6859",
"M@	c #928D86",
"N@	c #817A71",
"O@	c #9C7E61",
"P@	c #D5A77B",
"Q@	c #D3A87E",
"R@	c #987E64",
"S@	c #977F65",
"T@	c #DCB388",
"U@	c #FAC896",
"V@	c #E4BA8E",
"W@	c #C6A782",
"X@	c #D9B288",
"Y@	c #F9C795",
"Z@	c #FDCB98",
"`@	c #FDCC99",
" #	c #D8B187",
".#	c #8A7967",
"+#	c #6D6A68",
"@#	c #747474",
"##	c #797979",
"$#	c #7E7E7D",
"%#	c #7A7A7A",
"&#	c #5B5B5B",
"*#	c #797367",
"=#	c #AAA69E",
"-#	c #A0A8A8",
";#	c #898275",
">#	c #BF9973",
",#	c #D0A67C",
"'#	c #84715B",
")#	c #BD9D79",
"!#	c #EFC393",
"~#	c #FACA96",
"{#	c #D6AE85",
"]#	c #AD8E6F",
"^#	c #E5B88B",
"/#	c #EEC091",
"(#	c #F0C394",
"_#	c #FCCC99",
":#	c #E5B98B",
"<#	c #957D65",
"[#	c #585450",
"}#	c #606061",
"|#	c #727272",
"1#	c #777777",
"2#	c #7F7F7F",
"3#	c #848484",
"4#	c #656565",
"5#	c #999993",
"6#	c #BAC6C6",
"7#	c #8A999A",
"8#	c #887764",
"9#	c #C49C73",
"0#	c #AD8D6D",
"a#	c #8B755E",
"b#	c #BB9B78",
"c#	c #ECC292",
"d#	c #FECE9A",
"e#	c #EFC594",
"f#	c #B19475",
"g#	c #A78B6F",
"h#	c #C9A480",
"i#	c #B19578",
"j#	c #CEAA85",
"k#	c #F7C796",
"l#	c #C29E7A",
"m#	c #685D53",
"n#	c #707070",
"o#	c #767676",
"p#	c #7B7B7B",
"q#	c #757575",
"r#	c #535251",
"s#	c #575143",
"t#	c #AEABA5",
"u#	c #9ACFE4",
"v#	c #487382",
"w#	c #A88562",
"x#	c #F7C58E",
"y#	c #D3AC84",
"z#	c #F3C896",
"A#	c #FFD39E",
"B#	c #FDCD99",
"C#	c #E5BE90",
"D#	c #AD9276",
"E#	c #9A846E",
"F#	c #A88E75",
"G#	c #9C8670",
"H#	c #D6B088",
"I#	c #F9C997",
"J#	c #FBC997",
"K#	c #D2AA82",
"L#	c #776858",
"M#	c #585756",
"N#	c #686869",
"O#	c #717171",
"P#	c #676663",
"Q#	c #5D5A4F",
"R#	c #625D4F",
"S#	c #99948A",
"T#	c #C5D0D3",
"U#	c #7EBFDB",
"V#	c #487C91",
"W#	c #837867",
"X#	c #DBB185",
"Y#	c #F3C593",
"Z#	c #F6C795",
"`#	c #FECC98",
" $	c #E2B88D",
".$	c #AD9176",
"+$	c #BE9E7E",
"@$	c #D8B189",
"#$	c #DCB58B",
"$$	c #F4C795",
"%$	c #FFCD99",
"&$	c #EABD8E",
"*$	c #A2866B",
"=$	c #645E57",
"-$	c #636363",
";$	c #6C6C6C",
">$	c #71706A",
",$	c #615D50",
"'$	c #706D62",
")$	c #BFBDB8",
"!$	c #E3ECF1",
"~$	c #93D4F1",
"{$	c #398BB4",
"]$	c #5F7274",
"^$	c #C7A47E",
"/$	c #F9CA97",
"($	c #EDBF90",
"_$	c #EDC091",
":$	c #FACD99",
"<$	c #EEC293",
"[$	c #F0C293",
"}$	c #F6C594",
"|$	c #E8BB8F",
"1$	c #F8C896",
"2$	c #FBCA97",
"3$	c #F8CA97",
"4$	c #EBBE8F",
"5$	c #DEB589",
"6$	c #B09273",
"7$	c #6A625B",
"8$	c #696969",
"9$	c #6F6F6F",
"0$	c #6A6A6A",
"a$	c #757574",
"b$	c #85837E",
"c$	c #6E6B60",
"d$	c #423E2F",
"e$	c #737166",
"f$	c #E2E2E1",
"g$	c #F6FBFD",
"h$	c #A7E4FF",
"i$	c #38A2DA",
"j$	c #4D6267",
"k$	c #B9A17C",
"l$	c #E8C597",
"m$	c #B69777",
"n$	c #B49273",
"o$	c #D7B389",
"p$	c #B5997B",
"q$	c #B2967A",
"r$	c #F3C494",
"s$	c #FFCD9A",
"t$	c #F7CA98",
"u$	c #CFAB83",
"v$	c #9F8469",
"w$	c #927B64",
"x$	c #6D6155",
"y$	c #555454",
"z$	c #6B6B6B",
"A$	c #70706F",
"B$	c #85837F",
"C$	c #4F4937",
"D$	c #555041",
"E$	c #767368",
"F$	c #BAB9B5",
"G$	c #EEEDEC",
"H$	c #F5FAFD",
"I$	c #CDEDFB",
"J$	c #A2D0E3",
"K$	c #819398",
"L$	c #7C7565",
"M$	c #AB9476",
"N$	c #A1876B",
"O$	c #997F65",
"P$	c #A58B71",
"Q$	c #927F6D",
"R$	c #C7A482",
"S$	c #FBC996",
"T$	c #F7C695",
"U$	c #F2C795",
"V$	c #D0AD84",
"W$	c #89745F",
"X$	c #544E48",
"Y$	c #55524F",
"Z$	c #585858",
"`$	c #737373",
" %	c #7E7E7E",
".%	c #656563",
"+%	c #504E45",
"@%	c #686458",
"#%	c #B3B2AD",
"$%	c #F8F7F7",
"%%	c #FFFFFF",
"&%	c #F6F8F7",
"*%	c #D6D5D4",
"=%	c #72716E",
"-%	c #C39E7A",
";%	c #CAA47E",
">%	c #D8B089",
",%	c #B19479",
"'%	c #EBBE90",
")%	c #E4B98C",
"!%	c #BE9B78",
"~%	c #87745F",
"{%	c #534D48",
"]%	c #4D4D4D",
"^%	c #616161",
"/%	c #6E6E6E",
"(%	c #818181",
"_%	c #808080",
":%	c #838383",
"<%	c #7D7D7D",
"[%	c #5F5E5D",
"}%	c #45443C",
"|%	c #7A776C",
"1%	c #D5D4D1",
"2%	c #FCFCFC",
"3%	c #DCDCDA",
"4%	c #B8B5AE",
"5%	c #AAA8A2",
"6%	c #5C594E",
"7%	c #403D36",
"8%	c #64584B",
"9%	c #BE9C79",
"0%	c #99836D",
"a%	c #AB9277",
"b%	c #EABF91",
"c%	c #FCCB98",
"d%	c #E2B88B",
"e%	c #9F8569",
"f%	c #685C50",
"g%	c #615951",
"h%	c #55504C",
"i%	c #4E4E4F",
"j%	c #545351",
"k%	c #423E33",
"l%	c #393422",
"m%	c #78766A",
"n%	c #BCBBB6",
"o%	c #E9E9E9",
"p%	c #EFEFEF",
"q%	c #D0D0CE",
"r%	c #98958F",
"s%	c #6C685D",
"t%	c #635F52",
"u%	c #3F3B37",
"v%	c #554D45",
"w%	c #74675A",
"x%	c #C2A380",
"y%	c #E6BB8D",
"z%	c #9E8469",
"A%	c #60564C",
"B%	c #4D4C4A",
"C%	c #595859",
"D%	c #666666",
"E%	c #565655",
"F%	c #4B4A42",
"G%	c #434030",
"H%	c #524D3D",
"I%	c #7A776B",
"J%	c #AFADA8",
"K%	c #B5B4AF",
"L%	c #8E8C83",
"M%	c #666255",
"N%	c #373534",
"O%	c #64584C",
"P%	c #AE9272",
"Q%	c #B89976",
"R%	c #947B64",
"S%	c #806E5C",
"T%	c #5E554D",
"U%	c #4D4B4A",
"V%	c #5A5A5A",
"W%	c #6B6B6C",
"X%	c #6D6D6D",
"Y%	c #4F4D49",
"Z%	c #484638",
"`%	c #504B3A",
" &	c #79766B",
".&	c #858279",
"+&	c #615E50",
"@&	c #413C38",
"#&	c #615549",
"$&	c #63574C",
"%&	c #544E4A",
"&&	c #565452",
"*&	c #575655",
"=&	c #5D5D5D",
"-&	c #858585",
";&	c #5B5B5A",
">&	c #423F3B",
",&	c #383836",
"'&	c #454442",
")&	c #535353",
"!&	c #676767",
"~&	c #686868",
"{&	c #8C8C8C",
"]&	c #40403F",
"^&	c #464646",
"/&	c #868686",
"(&	c #5E5E5E",
"_&	c #414140",
":&	c #555555",
"<&	c #787878",
"[&	c #7A7979",
"}&	c #404040",
"|&	c #414141",
"1&	c #888888",
"2&	c #686867",
"3&	c #535350",
"4&	c #424242",
"5&	c #606060",
"6&	c #4B4B4A",
"7&	c #3B3B38",
"8&	c #444444",
"9&	c #4A4A4A",
"0&	c #4E4E4E",
"a&	c #595959",
"                                                                                            ",
"                                                                                            ",
"                                                                                            ",
"                                                                                            ",
"                                                                                            ",
"              . +   @ # $                                                                   ",
"            % & * = - ; > ,                                                                 ",
"          ' ) ! ~ { ] ^ / ( _                                                               ",
"        : < [ } | 1 2 3 4 5 6 7                                                             ",
"      8 9 0 a b c d e f g h i j k l m                                                       ",
"      n o p q r s t u v w x y z A B C D                                                     ",
"      E F G H I     J K L M N O P Q R S T                                                   ",
"    U V W X Y       Z `  ...+.@.#.$.%.&.*.=.                                                ",
"  -.;.>.,.            '.).!.~.{.].^./.(._.:.<.                                              ",
"[.}.|.1.              2.3.4.5.6.7.8.9.0.a.b.c.                                              ",
"d.e.f.                g.h.i.j.7.k.6.7.l.m.n.o.                                              ",
"                      p.q.r.s.t.u.v.w.x.y.z.A.B.C.D.E.                                      ",
"                      F.G.H.I.J.K.L.M.N.O.P.Q.R.S.T.U.V.                                    ",
"                      W.X.Y.Z.`. +.+++@+#+$+%+&+*+) =+-+;+                                  ",
"                        >+,+'+)+!+~+{+]+^+/+(+_+:+<+[+}+|+                                  ",
"                        1+2+3+4+5+6+7+8+9+0+a+b+c+d+e+f+g+                                  ",
"                        h+i+j+k+l+m+n+o+p+q+r+s+t+u+v+w+x+y+z+                              ",
"                        A+B+C+D+E+F+G+H+I+J+K+L+M+N+O+P+Q+R+S+T+                            ",
"                        U+V+W+X+Y+Z+`+ @.@+@@@#@$@%@&@*@=@-@;@>@,@                          ",
"                      '@)@!@~@{@]@^@/@@@@@(@_@_@(@@@:@<@[@}@|@1@2@3@                        ",
"                      4@5@6@Y+7@8@9@0@#@a@b@a@_@_@@@c@d@e@f@g@h@i@j@k@l@                    ",
"                    m@n@o@p@q@r@s@t@u@v@w@x@y@(@_@(@z@A@B@C@D@E@F@G@H@I@J@                  ",
"                  K@L@M@N@O@P@Q@R@S@T@U@V@W@X@Y@Z@`@(@$@ #.#+#@#F@##$#%#&#                  ",
"                  *#=#-#;#>#,#R@'#)#!#~#{#O+]#^#/#(#_#Z@:#<#[#}#|#1#2#3#4#                  ",
"                  5#6#7#8#9#0#a#b#c#d#_#e#f#g#h#i#j#k#(@U@l#m#&#n#o#p#q#r#                  ",
"                s#t#u#v#w#x#N+y#z#A#_@B#C#D#E#F#G#H#I#_@J#K#L#M#N#O###q#P#Q#                ",
"              R#S#T#U#V#W#X#Y#Z#B#(@`##@ $.$+$@$#$$$%$_@J#&$*$=$-$;$q#;$G@>$,$              ",
"              '$)$!$~${$]$^$/$($_$:$<$[$}$|$1$2$2$%$%$3$4$5$6$7$8$9$@#|#0$a$b$c$            ",
"            d$e$f$g$h$i$j$k$l$m$n$o$p$q$r$Z@(@(@_@s$t$u$v$w$x$y$z$0$n#F@p#A$B$C$            ",
"          D$E$F$G$H$I$J$K$L$M$N$O$P$Q$R$S$`#_@_@T$U$V$W$X$Y$Z$8$`$@#@#%# %.%+%              ",
"          @%#%$%%%%%%%&%*%=%a+-%;%>%,%'%`#_@s$)%!%B@~%{%]%^%/%q#%#(%_%:%<%[%}%              ",
"          |%1%%%%%2%3%4%5%6%7%8%9%0%a%b%c%s$d%e%f%g%h%i%^%;$`$1#%#:%}  %0$j%k%l%            ",
"          m%n%o%p%q%r%s%t%    u%v%w%x%e#y%{#z%A%B%C%^%D%z$0$9$1#p#2#:%O#E%F%G%              ",
"          H%I%J%K%L%M%          N%O%P%Q%R%S%T%U%V%W%`$`$|#X%|#<% %_%E@9$Y%Z%                ",
"            `% &.&+&              @&#&$&%&&&*&=&;$@#n#9$q#q#1#_%} -&p#;&>&                  ",
"                                    ,&'&)&!&9$O#q#o#X%~&q# %F@3#{& %i@]&                    ",
"                                      ^&^%o#_%%#%#2#1#O###3#3#/&2#(&_&                      ",
"                                      J@:&`$2#%#p#3#<%<&E@_%[&##=&}&                        ",
"                                        |&Z$`$##p#1&E@_%2#2&j%3&}&                          ",
"                                          4&5&X%/%:%p#O#D%6&7&                              ",
"                                            8&9&0&~&a&^&^&                                  "};
