/* XPM */
static char * playerTwo08_xpm[] = {
"46 46 512 2",
"  	c None",
". 	c #241E08",
"+ 	c #3D3825",
"@ 	c #7D7A6C",
"# 	c #29240E",
"$ 	c #2B2510",
"% 	c #55513F",
"& 	c #ADABA3",
"* 	c #FCFCFB",
"= 	c #FFFFFF",
"- 	c #4B4634",
"; 	c #342F1A",
"> 	c #2B2611",
", 	c #575242",
"' 	c #AAA8A0",
") 	c #393420",
"! 	c #747062",
"~ 	c #D0CFCB",
"{ 	c #D3D4D5",
"] 	c #ACAAA7",
"^ 	c #5C5A4F",
"/ 	c #5A5954",
"( 	c #4E4A3A",
"_ 	c #342E19",
": 	c #3E3906",
"< 	c #39341E",
"[ 	c #7B7766",
"} 	c #E7E7CD",
"| 	c #FBFBF6",
"1 	c #EDEDDD",
"2 	c #433E1E",
"3 	c #302B14",
"4 	c #4D4B43",
"5 	c #8B8B8B",
"6 	c #969698",
"7 	c #433F2D",
"8 	c #302A14",
"9 	c #3D390C",
"0 	c #352F35",
"a 	c #231990",
"b 	c #0000F1",
"c 	c #7271FF",
"d 	c #5649FF",
"e 	c #5651FF",
"f 	c #A199FF",
"g 	c #5249FF",
"h 	c #E4E2FF",
"i 	c #7269FF",
"j 	c #B9B6FF",
"k 	c #150CE9",
"l 	c #2E2846",
"m 	c #58564C",
"n 	c #7F7F80",
"o 	c #949495",
"p 	c #66635A",
"q 	c #322D17",
"r 	c #423E2C",
"s 	c #6B6961",
"t 	c #565346",
"u 	c #48442C",
"v 	c #211B66",
"w 	c #0900FF",
"x 	c #0C19FF",
"y 	c #0F30FF",
"z 	c #0F34FF",
"A 	c #0316FF",
"B 	c #1036FF",
"C 	c #0006FF",
"D 	c #0624FF",
"E 	c #0509FF",
"F 	c #0005FF",
"G 	c #1921FF",
"H 	c #0000FF",
"I 	c #140BC8",
"J 	c #3B360A",
"K 	c #423E30",
"L 	c #6E6E6F",
"M 	c #8F8F8F",
"N 	c #898988",
"O 	c #3A3521",
"P 	c #36311C",
"Q 	c #514E3F",
"R 	c #7A7975",
"S 	c #8B8B8A",
"T 	c #68665D",
"U 	c #4B4738",
"V 	c #7F7E79",
"W 	c #545253",
"X 	c #0F06FD",
"Y 	c #1038FF",
"Z 	c #1037FF",
"` 	c #1139FF",
" .	c #113DFF",
"..	c #150BDA",
"+.	c #292372",
"@.	c #37321D",
"#.	c #5C5C59",
"$.	c #858586",
"%.	c #565345",
"&.	c #413D2B",
"*.	c #838381",
"=.	c #545143",
"-.	c #848482",
";.	c #4B4736",
">.	c #5B593D",
",.	c #1C11A6",
"'.	c #0D1CFF",
").	c #1039FF",
"!.	c #0A10FF",
"~.	c #322B42",
"{.	c #403C00",
"].	c #342E18",
"^.	c #49463A",
"/.	c #757577",
"(.	c #919292",
"_.	c #7D7C78",
":.	c #3E3907",
"<.	c #393421",
"[.	c #7E7D76",
"}.	c #504C3D",
"|.	c #797874",
"1.	c #4A4636",
"2.	c #585549",
"3.	c #605D4A",
"4.	c #312B43",
"5.	c #0C07FF",
"6.	c #103BFF",
"7.	c #0D2AFF",
"8.	c #1B1ABD",
"9.	c #3F3B01",
"0.	c #3B3623",
"a.	c #646465",
"b.	c #98999B",
"c.	c #484333",
"d.	c #3A350E",
"e.	c #332D3A",
"f.	c #221797",
"g.	c #0D03FF",
"h.	c #272096",
"i.	c #57553A",
"j.	c #524E3F",
"k.	c #67655C",
"l.	c #3E3927",
"m.	c #44402F",
"n.	c #706F68",
"o.	c #8D8D8D",
"p.	c #454234",
"q.	c #403C1A",
"r.	c #150AD1",
"s.	c #0B11FF",
"t.	c #0C03FF",
"u.	c #1118E6",
"v.	c #0C21FF",
"w.	c #0F31FF",
"x.	c #1508D8",
"y.	c #2A2170",
"z.	c #342E1A",
"A.	c #5E5C51",
"B.	c #676661",
"C.	c #332D17",
"D.	c #211C05",
"E.	c #7C785C",
"F.	c #8A87C3",
"G.	c #0C1BFF",
"H.	c #0E28FF",
"I.	c #150AF1",
"J.	c #4D4A37",
"K.	c #8C8C8C",
"L.	c #575447",
"M.	c #82817F",
"N.	c #878685",
"O.	c #5E5B50",
"P.	c #38321D",
"Q.	c #5D5C57",
"R.	c #514F38",
"S.	c #2C2668",
"T.	c #0F0694",
"U.	c #29232A",
"V.	c #4E493E",
"W.	c #251C79",
"X.	c #0E05FE",
"Y.	c #332C40",
"Z.	c #616161",
"`.	c #969489",
" +	c #EEEDEA",
".+	c #DAD9FF",
"++	c #645BFF",
"@+	c #0E05FF",
"#+	c #103AFF",
"$+	c #0C0CFF",
"%+	c #281F5A",
"&+	c #37320F",
"*+	c #5D5B51",
"=+	c #3B3521",
"-+	c #615443",
";+	c #89817A",
">+	c #898483",
",+	c #403C2E",
"'+	c #C9C9C9",
")+	c #878465",
"!+	c #DBDAD0",
"~+	c #E8E9EC",
"{+	c #6C6A2D",
"]+	c #170CA0",
"^+	c #0B17FF",
"/+	c #1B1BBB",
"(+	c #3F3B00",
"_+	c #36301A",
":+	c #5B5A55",
"<+	c #231E07",
"[+	c #2E26FF",
"}+	c #0E24FF",
"|+	c #180CC8",
"1+	c #433F1C",
"2+	c #676769",
"3+	c #6E6C63",
"4+	c #60A1C0",
"5+	c #16B1F9",
"6+	c #467A93",
"7+	c #707F7E",
"8+	c #F3E9E4",
"9+	c #F0F0F0",
"0+	c #6B6874",
"a+	c #0E05F6",
"b+	c #160DD6",
"c+	c #2A216E",
"d+	c #454233",
"e+	c #5E5E5B",
"f+	c #2A250F",
"g+	c #534E3D",
"h+	c #A7A59C",
"i+	c #F8F8F8",
"j+	c #E5E4FF",
"k+	c #3D34FF",
"l+	c #0800FF",
"m+	c #1025FF",
"n+	c #0B03FF",
"o+	c #27212F",
"p+	c #57564B",
"q+	c #726056",
"r+	c #2E95C5",
"s+	c #00A5F8",
"t+	c #0088C9",
"u+	c #0089CC",
"v+	c #15A8EB",
"w+	c #42C3FF",
"x+	c #FEFEFE",
"y+	c #CBCBCB",
"z+	c #373213",
"A+	c #0B02FF",
"B+	c #322C44",
"C+	c #38331E",
"D+	c #646464",
"E+	c #413D2C",
"F+	c #36301C",
"G+	c #D0CFCA",
"H+	c #BAB6FF",
"I+	c #0200FF",
"J+	c #0D21FF",
"K+	c #0E04C0",
"L+	c #5D5973",
"M+	c #A9A7A2",
"N+	c #6A726D",
"O+	c #00A0EC",
"P+	c #0074A8",
"Q+	c #0078AD",
"R+	c #007AB1",
"S+	c #0174A9",
"T+	c #00A3F6",
"U+	c #CEF1FF",
"V+	c #E8E8EA",
"W+	c #7B7860",
"X+	c #2A2433",
"Y+	c #3A3519",
"Z+	c #433F2F",
"`+	c #38331F",
" @	c #5E5A49",
".@	c #FCFCFC",
"+@	c #EEEFF1",
"@@	c #4F49FF",
"#@	c #0B1DFF",
"$@	c #1035FF",
"%@	c #1017ED",
"&@	c #2F291E",
"*@	c #625E3B",
"=@	c #BFBDAB",
"-@	c #97CFEB",
";@	c #008AC9",
">@	c #0078AE",
",@	c #0077AC",
"'@	c #008CD3",
")@	c #59CEFF",
"!@	c #F8F9F9",
"~@	c #BAB9B8",
"{@	c #352F1A",
"]@	c #2F2913",
"^@	c #C6C5C4",
"/@	c #B4B4B1",
"(@	c #68654B",
"_@	c #B8B6A9",
":@	c #CBC9FF",
"<@	c #2B20FF",
"[@	c #101AFF",
"}@	c #1A11B3",
"|@	c #A19F99",
"1@	c #6DD6FF",
"2@	c #0090DC",
"3@	c #0076AB",
"4@	c #007AB0",
"5@	c #007CB4",
"6@	c #00AEFE",
"7@	c #F2FBFF",
"8@	c #CFCFCE",
"9@	c #504C3B",
"0@	c #383423",
"a@	c #58564D",
"b@	c #312C15",
"c@	c #251F2E",
"d@	c #0F06FF",
"e@	c #103AFE",
"f@	c #0C15FF",
"g@	c #1D116D",
"h@	c #828052",
"i@	c #E0E0E0",
"j@	c #F4F4F4",
"k@	c #E5F7FF",
"l@	c #00A9FB",
"m@	c #0095E2",
"n@	c #88DDFF",
"o@	c #FFFBF6",
"p@	c #8C8A82",
"q@	c #1F1902",
"r@	c #4F4C3E",
"s@	c #808081",
"t@	c #666666",
"u@	c #3D381E",
"v@	c #353032",
"w@	c #1B14B9",
"x@	c #2A226D",
"y@	c #1D13B0",
"z@	c #131AE7",
"A@	c #0809FF",
"B@	c #1015F5",
"C@	c #0C25FF",
"D@	c #0F32FF",
"E@	c #0F05F1",
"F@	c #2018AD",
"G@	c #37321F",
"H@	c #BCBCBA",
"I@	c #FAFAFB",
"J@	c #46C8FF",
"K@	c #0089CD",
"L@	c #0077AD",
"M@	c #007EBB",
"N@	c #47C7FF",
"O@	c #FFFEFD",
"P@	c #CACACA",
"Q@	c #3F3A27",
"R@	c #7E7E7A",
"S@	c #959596",
"T@	c #767778",
"U@	c #4A483E",
"V@	c #36310F",
"W@	c #393322",
"X@	c #2C2464",
"Y@	c #3A351C",
"Z@	c #21169A",
"`@	c #110FF3",
" #	c #140BE1",
".#	c #1C1572",
"+#	c #86846F",
"@#	c #EBECED",
"##	c #BCEBFF",
"$#	c #009FF0",
"%#	c #0079B0",
"&#	c #009CE8",
"*#	c #DDF6FF",
"=#	c #ECEDEF",
"-#	c #696659",
";#	c #535042",
">#	c #939495",
",#	c #868687",
"'#	c #5E5D5B",
")#	c #3D380D",
"!#	c #322D43",
"~#	c #332E2E",
"{#	c #484332",
"]#	c #DCDDDF",
"^#	c #FFFFFE",
"/#	c #0CB5FF",
"(#	c #0189C7",
"_#	c #007FBB",
":#	c #008ED5",
"<#	c #5DCFFF",
"[#	c #FFFFFC",
"}#	c #B2B1AD",
"|#	c #262009",
"1#	c #878786",
"2#	c #8F8F90",
"3#	c #6F6F71",
"4#	c #433F31",
"5#	c #2D2711",
"6#	c #666255",
"7#	c #929189",
"8#	c #FAF2F0",
"9#	c #F0FDFF",
"0#	c #A9E7FF",
"a#	c #009CED",
"b#	c #0076AC",
"c#	c #007CB5",
"d#	c #01AEFE",
"e#	c #F6FDFF",
"f#	c #D9D7D8",
"g#	c #636056",
"h#	c #949496",
"i#	c #575651",
"j#	c #36301B",
"k#	c #DBDCDD",
"l#	c #FEFFFF",
"m#	c #0BB3FF",
"n#	c #007FB9",
"o#	c #0079AF",
"p#	c #0096E3",
"q#	c #92E2FF",
"r#	c #FFF5F0",
"s#	c #8D8B83",
"t#	c #413C2A",
"u#	c #56544D",
"v#	c #302B16",
"w#	c #9E9D97",
"x#	c #C4C3C0",
"y#	c #FFFAF5",
"z#	c #74D9FF",
"A#	c #0091DA",
"B#	c #0080BC",
"C#	c #1AB9FF",
"D#	c #3E3926",
"E#	c #777570",
"F#	c #97989A",
"G#	c #565347",
"H#	c #312C14",
"I#	c #545141",
"J#	c #E3E0E0",
"K#	c #E4F9FF",
"L#	c #00A8F9",
"M#	c #019FE8",
"N#	c #07B2FF",
"O#	c #D8E9F2",
"P#	c #6C685B",
"Q#	c #484433",
"R#	c #474334",
"S#	c #5F5F5E",
"T#	c #35301B",
"U#	c #B8B7B5",
"V#	c #FFFFFA",
"W#	c #35C2FF",
"X#	c #00ACFF",
"Y#	c #0095DD",
"Z#	c #00A0F3",
"`#	c #6ED3FF",
" $	c #FFFCF5",
".$	c #A6A5A1",
"+$	c #2F2A15",
"@$	c #35301A",
"#$	c #28220C",
"$$	c #78766B",
"%$	c #EDE5E2",
"&$	c #D2EAF5",
"*$	c #B5EAFF",
"=$	c #1BB7FF",
"-$	c #00ABFF",
";$	c #E1E1E4",
">$	c #4E4A39",
",$	c #BFBFBE",
"'$	c #FFFDFB",
")$	c #A3E2FF",
"!$	c #FBFEFF",
"~$	c #FBFCFD",
"{$	c #9B9992",
"]$	c #231D06",
"^$	c #666667",
"/$	c #3E3928",
"($	c #29230D",
"_$	c #86847B",
":$	c #F5F6F9",
"<$	c #FAFAFA",
"[$	c #BBBBBA",
"}$	c #342F18",
"|$	c #4D4A3F",
"1$	c #494433",
"2$	c #737064",
"3$	c #CCCCCC",
"4$	c #FDFDFD",
"5$	c #E1E2E3",
"6$	c #636052",
"7$	c #221C05",
"8$	c #93918A",
"9$	c #F0F1F2",
"0$	c #AAA9A5",
"a$	c #2F2914",
"b$	c #545040",
"c$	c #DDDDDF",
"d$	c #F5F5F6",
"e$	c #5D594A",
"f$	c #312C17",
"g$	c #A1A09A",
"h$	c #CECDCB",
"i$	c #D7D8D9",
"j$	c #A2A19C",
"k$	c #514D3C",
"l$	c #474331",
"m$	c #2D2812",
"                                                                                            ",
"                                                                                            ",
"                                                                                            ",
"                                                                                            ",
"                                                                                            ",
"                                                                                            ",
"                                                                                            ",
"                                                                                            ",
"                                                                                            ",
"                                                                                            ",
"                                                                                            ",
"                                                                                            ",
"                                                                      . + @ #               ",
"                                                                  $ % & * = -   ;           ",
"                                                        > , ' ) ! ~ = = { ] ^ / ( _         ",
"                                                  : < [ } = = | = = = 1 2 3 4 5 6 7         ",
"                                        8     9 0 a b c d e f g h i = j k l m n o p 8       ",
"                                    q r s t u v w x y z A B C D E F G H I J K L M N O       ",
"                                P Q R S T U V W X B Y B Y Z Y ` B  .y ..+.  @.#.$.o %.      ",
"                                &.*.=.) =.-.;.>.,.'.).B B B B B B ).!.~.{.  ].^./.(._.;     ",
"                          :.<.  [.}.T S |.1.2.3.4.5.6.B Z Z B B Z 7.8.9.      0.a.S b.c.    ",
"                      d.e.f.g.h.i.j.k.l.m.n.o.p.q.r.s.t.u.v.Y ).w.x.y.          z.A.B.C.    ",
"                D.; E.F.H G.H.I.J.K.L.M.N.O.P.Q.R.S.T.U.V.W.X.B !.Y.{.            l.Z.)     ",
"                `. +.+++@+Z #+$+%+&+*+;.=+-+;+>+,+'+)+!+~+{+]+^+/+(+              _+:+^.    ",
"            <+) = = [+F B Y ).}+|+1+2+3+K.4+5+6+7+8+= = 9+0+a+b+c+                  d+e+P   ",
"        f+g+h+i+j+k+l+m+Z B #+B n+o+p+q+r+s+t+u+v+w+= x+y+z+A+B+{.                  C+D+E+  ",
"    F+! G+= = = H+I+B #+B Z J+g.K+L+M+N+O+P+Q+R+S+T+U+= V+W+X+Y+                      Z+`+  ",
"   @.@= +@x+= @@H #@$@B B Z %@&@*@=@= -@;@>@R+R+,@'@)@= !@~@{@                              ",
"  ]@^@/@(@_@:@<@[@6.B B B B }@|@= = = 1@2@3@R+R+4@5@6@7@= 8@9@                              ",
"  0@a@b@c@d@H I+$@Z #+$@e@f@g@h@i@j@= k@l@R+R+R+R+3@m@n@o@p@q@                              ",
"C+r@s@t@u@v@w@x@y@z@A@B@C@D@E@F@G@H@I@= J@K@L@R+R+Q+M@N@O@P@Q@                              ",
"; R@S@T@U@V@  {.  W@X@Y@Z@`@ #d@.#+#@#= ##$#3@R+R+%#&#*#= =#-#                              ",
"  ;#>#,#'#C+              Y.)#!#~#{#]#= ^#/#(#_#>@3@:#<#[#}#|#                              ",
"  `+1#2#3#4#                      5#6#7#8#9#0#a#b#%#c#d#e#f#9@                              ",
"  8 g#h#s@i#j#                        9@k#= l#m#n#o#3@p#q#r#s#f+                            ",
"    t#M K.u#                          v#w#x#y#z#A#3@Q+B#C#= '+D#                            ",
"    q E#F#G#H#                            I#J#K#L#R+>@M#N#O#P#                              ",
"      Q#R#S#C+                            T#U#V#W#X#Y#Z#`# $.$+$                            ",
"        @$e+d+                            #$$$%$&$*$=$-$= = ;$>$                            ",
"          ^.:+_+                              O ,$'$= )$!$~${$]$                            ",
"          ) ^$/$                              ($_$:$= = = <$[$C+                            ",
"          }$|$E+                                1$2$3$4$= = 5$6$                            ",
"                                                  7$8$9$= = I@0$a$                          ",
"                                                    b$c$= = d$e$                            ",
"                                                    f$g$h$i$j$k$                            ",
"                                                        >$l$m$                              "};
