/* XPM */
static char * playerTwo15_xpm[] = {
"46 46 572 2",
"  	c None",
". 	c #433F2F",
"+ 	c #4F4D43",
"@ 	c #35301A",
"# 	c #3D3726",
"$ 	c #61605E",
"% 	c #4B483C",
"& 	c #3D3927",
"* 	c #444030",
"= 	c #54534B",
"- 	c #56554F",
"; 	c #342F19",
"> 	c #3E3A28",
", 	c #5D5D5B",
"' 	c #524F44",
") 	c #69665E",
"! 	c #4A4636",
"~ 	c #6F6D67",
"{ 	c #9A9B9D",
"] 	c #7D7C77",
"^ 	c #413C2A",
"/ 	c #1E1800",
"( 	c #474331",
"_ 	c #817E73",
": 	c #9E9C96",
"< 	c #4B4735",
"[ 	c #56544D",
"} 	c #858585",
"| 	c #969699",
"1 	c #72706A",
"2 	c #454130",
"3 	c #5F5C4E",
"4 	c #BFBFBE",
"5 	c #EDEDEF",
"6 	c #EBEBEC",
"7 	c #B0AEAB",
"8 	c #595546",
"9 	c #0E0700",
"0 	c #49463B",
"a 	c #696866",
"b 	c #868689",
"c 	c #929394",
"d 	c #787873",
"e 	c #45412F",
"f 	c #716E61",
"g 	c #F9F9FB",
"h 	c #FFFFFF",
"i 	c #F1F2F3",
"j 	c #B3B2AF",
"k 	c #6B685B",
"l 	c #3F3A27",
"m 	c #38331F",
"n 	c #454133",
"o 	c #696869",
"p 	c #868687",
"q 	c #969798",
"r 	c #7F7F7B",
"s 	c #423D2B",
"t 	c #767368",
"u 	c #F1F1F1",
"v 	c #F4F3F3",
"w 	c #EAEBEB",
"x 	c #D7D7D6",
"y 	c #7E7B71",
"z 	c #241F08",
"A 	c #342F17",
"B 	c #4A473C",
"C 	c #666765",
"D 	c #88898B",
"E 	c #7B7B77",
"F 	c #423E2C",
"G 	c #696559",
"H 	c #ABAAA5",
"I 	c #F2F3F5",
"J 	c #F3FCFF",
"K 	c #FFFEFC",
"L 	c #D6DBDD",
"M 	c #D1CBC6",
"N 	c #9B988F",
"O 	c #4B4736",
"P 	c #3B3713",
"Q 	c #48452F",
"R 	c #61615F",
"S 	c #605F59",
"T 	c #393525",
"U 	c #494432",
"V 	c #B9B9B7",
"W 	c #F5F6F6",
"X 	c #9CDFFF",
"Y 	c #63CEFF",
"Z 	c #85DBFF",
"` 	c #98E0FF",
" .	c #B2EAFF",
"..	c #FDF3EB",
"+.	c #A4A19B",
"@.	c #3B3724",
"#.	c #28230D",
"$.	c #362E32",
"%.	c #3E3708",
"&.	c #342C43",
"*.	c #1C15B7",
"=.	c #221B7C",
"-.	c #221C3A",
";.	c #332D18",
">.	c #87857E",
",.	c #5D5949",
"'.	c #161000",
").	c #6F6C5F",
"!.	c #DBDBDB",
"~.	c #A0E0FF",
"{.	c #009CF7",
"].	c #039DE7",
"^.	c #00A2F4",
"/.	c #16B5FF",
"(.	c #E3F9FF",
"_.	c #F2F1F0",
":.	c #B7B4AF",
"<.	c #B5B5B2",
"[.	c #5D5A4B",
"}.	c #3F3A02",
"|.	c #2C2568",
"1.	c #2B1E6D",
"2.	c #3B3519",
"3.	c #211A94",
"4.	c #1A1CC2",
"5.	c #1916C6",
"6.	c #1616BD",
"7.	c #0000F8",
"8.	c #2F2BFF",
"9.	c #605B7C",
"0.	c #817F6D",
"a.	c #EFF0F3",
"b.	c #E7E6E4",
"c.	c #4E4A37",
"d.	c #656153",
"e.	c #E7E7EA",
"f.	c #FFFFFB",
"g.	c #6FD3FF",
"h.	c #03A3F2",
"i.	c #0080BC",
"j.	c #0073A6",
"k.	c #008BD6",
"l.	c #45C0F5",
"m.	c #B8EEFF",
"n.	c #FFFFFA",
"o.	c #FBFCFD",
"p.	c #C7C4C1",
"q.	c #77756B",
"r.	c #736F64",
"s.	c #36311E",
"t.	c #332E2D",
"u.	c #231C92",
"v.	c #1D14B5",
"w.	c #0F0FFD",
"x.	c #131DE2",
"y.	c #121BEB",
"z.	c #0914FF",
"A.	c #0D2CFF",
"B.	c #1039FF",
"C.	c #0D20FF",
"D.	c #3E34FF",
"E.	c #E8E7F7",
"F.	c #E7E7D3",
"G.	c #ECECEE",
"H.	c #DBDAD6",
"I.	c #686354",
"J.	c #2D2812",
"K.	c #807E75",
"L.	c #D8D3CD",
"M.	c #5CCFFF",
"N.	c #00A0EF",
"O.	c #007DB6",
"P.	c #0076A9",
"Q.	c #0079B2",
"R.	c #008ACA",
"S.	c #1BB8FF",
"T.	c #DDFAFF",
"U.	c #F1FDFF",
"V.	c #FFFAF9",
"W.	c #F2F0EE",
"X.	c #F4F5F8",
"Y.	c #8D8B77",
"Z.	c #3C375E",
"`.	c #0E05B0",
" +	c #1004F0",
".+	c #0E14F9",
"++	c #0D2BFF",
"@+	c #0F38FF",
"#+	c #1038FF",
"$+	c #103AFF",
"%+	c #103BFF",
"&+	c #0309FF",
"*+	c #2A23FF",
"=+	c #E7E6FF",
"-+	c #F0F0EF",
";+	c #838073",
">+	c #423B2B",
",+	c #B6B2AD",
"'+	c #D6F6FF",
")+	c #20B7F9",
"!+	c #0088CE",
"~+	c #0076AB",
"{+	c #0079AF",
"]+	c #0075AA",
"^+	c #008DDA",
"/+	c #32A7DD",
"(+	c #02A5ED",
"_+	c #7FD9FF",
":+	c #FBFFFF",
"<+	c #FFFFFE",
"[+	c #DFE0DB",
"}+	c #95948B",
"|+	c #4A463B",
"1+	c #56516C",
"2+	c #1D116E",
"3+	c #0D1CF9",
"4+	c #1037FF",
"5+	c #1036FF",
"6+	c #0F2AFF",
"7+	c #1417FF",
"8+	c #A6A3FF",
"9+	c #D1D0CC",
"0+	c #5F5B4B",
"a+	c #181200",
"b+	c #3D3825",
"c+	c #B4B4B2",
"d+	c #FFF2EB",
"e+	c #C3F1FF",
"f+	c #33BCFD",
"g+	c #0089CE",
"h+	c #0075A9",
"i+	c #007AB2",
"j+	c #007DBA",
"k+	c #10A4EF",
"l+	c #7EDAFF",
"m+	c #FFFEFF",
"n+	c #EEEEEE",
"o+	c #F5F6FA",
"p+	c #C4C49E",
"q+	c #473D9A",
"r+	c #0D21EA",
"s+	c #113AFF",
"t+	c #0A2BFF",
"u+	c #1D17FF",
"v+	c #E6E4FF",
"w+	c #FBFBFB",
"x+	c #827F72",
"y+	c #514E3E",
"z+	c #9B968D",
"A+	c #F7F0EF",
"B+	c #CDF5FF",
"C+	c #33BBF8",
"D+	c #008CD5",
"E+	c #0077AC",
"F+	c #007AB1",
"G+	c #007FC0",
"H+	c #02A4EE",
"I+	c #98DFFF",
"J+	c #F0FCFF",
"K+	c #ADAB89",
"L+	c #332E43",
"M+	c #0E1CFF",
"N+	c #1135FF",
"O+	c #070BFF",
"P+	c #3A30FF",
"Q+	c #F2F1FF",
"R+	c #868276",
"S+	c #0F0900",
"T+	c #342F1A",
"U+	c #B3B2AE",
"V+	c #FFFEFB",
"W+	c #26ABEC",
"X+	c #007BB5",
"Y+	c #0079B0",
"Z+	c #0078AD",
"`+	c #007EBD",
" @	c #13A2EA",
".@	c #84DEFF",
"+@	c #C0BEAB",
"@@	c #3F3959",
"#@	c #1104C7",
"$@	c #0D1DFF",
"%@	c #1035FF",
"&@	c #0C29FF",
"*@	c #0000FF",
"=@	c #857FFF",
"-@	c #FFFFF8",
";@	c #969489",
">@	c #BBBAB7",
",@	c #C6F2FF",
"'@	c #1EA9E7",
")@	c #007CBC",
"!@	c #0083C4",
"~@	c #74B9D9",
"{@	c #CACDCC",
"]@	c #888488",
"^@	c #1F169F",
"/@	c #080EFF",
"(@	c #103CFF",
"_@	c #0F29FF",
":@	c #413BFF",
"<@	c #DAD9FF",
"[@	c #B0AEA5",
"}@	c #433F2B",
"|@	c #5C5849",
"1@	c #CBC9C7",
"2@	c #FBFDFC",
"3@	c #88DDFF",
"4@	c #007EB8",
"5@	c #0085C6",
"6@	c #258EBD",
"7@	c #796858",
"8@	c #545349",
"9@	c #221B3F",
"0@	c #1008F1",
"a@	c #0E25FF",
"b@	c #0604FF",
"c@	c #5F57F7",
"d@	c #928E8C",
"e@	c #423D1D",
"f@	c #1A1300",
"g@	c #79776D",
"h@	c #F1ECE8",
"i@	c #7DDBFF",
"j@	c #12A4E8",
"k@	c #0080C3",
"l@	c #0072A5",
"m@	c #0095E0",
"n@	c #2E95C4",
"o@	c #73675E",
"p@	c #666566",
"q@	c #4B481B",
"r@	c #251A62",
"s@	c #140ECE",
"t@	c #0D22FF",
"u@	c #0E2FFF",
"v@	c #0209FD",
"w@	c #2E2C98",
"x@	c #474222",
"y@	c #86847A",
"z@	c #E3E3E5",
"A@	c #F2FCFF",
"B@	c #99E0FE",
"C@	c #00A2F6",
"D@	c #048AC8",
"E@	c #008ACE",
"F@	c #018ACC",
"G@	c #23ABEE",
"H@	c #7F99A6",
"I@	c #6F675B",
"J@	c #5B5950",
"K@	c #514F38",
"L@	c #555240",
"M@	c #39335B",
"N@	c #140CF0",
"O@	c #0A0DFF",
"P@	c #221797",
"Q@	c #393225",
"R@	c #352F1B",
"S@	c #9D9B91",
"T@	c #E3E3E2",
"U@	c #FFFDFD",
"V@	c #7FD8FF",
"W@	c #4AB6E6",
"X@	c #42809A",
"Y@	c #338FBB",
"Z@	c #549CBC",
"`@	c #595243",
" #	c #44402E",
".#	c #6F6E66",
"+#	c #575447",
"@#	c #7F7E7B",
"##	c #575531",
"$#	c #332D79",
"%#	c #231A84",
"&#	c #3A341F",
"*#	c #282222",
"=#	c #3B364E",
"-#	c #858262",
";#	c #E9EAEC",
">#	c #EADAD0",
",#	c #504E43",
"'#	c #8A8584",
")#	c #725F4D",
"!#	c #5D5A50",
"~#	c #5A574B",
"{#	c #585548",
"]#	c #625F4E",
"^#	c #75736D",
"/#	c #2B2465",
"(#	c #0C03F9",
"_#	c #615D56",
":#	c #FBFBF7",
"<#	c #A8A782",
"[#	c #B1B0B5",
"}#	c #504D44",
"|#	c #5F5E51",
"1#	c #4C493D",
"2#	c #777671",
"3#	c #5D5A4F",
"4#	c #5A574C",
"5#	c #82817E",
"6#	c #615E53",
"7#	c #73726B",
"8#	c #413D2B",
"9#	c #362F32",
"0#	c #1E14AF",
"a#	c #0900F3",
"b#	c #524E5A",
"c#	c #C7C7AC",
"d#	c #BDBCAF",
"e#	c #3E375D",
"f#	c #110992",
"g#	c #28206C",
"h#	c #454213",
"i#	c #524F42",
"j#	c #6F6E67",
"k#	c #6F6D66",
"l#	c #464231",
"m#	c #504D3E",
"n#	c #6E6D66",
"o#	c #2B2568",
"p#	c #1617D4",
"q#	c #0A10E7",
"r#	c #21139A",
"s#	c #3B3259",
"t#	c #35314B",
"u#	c #0D01B1",
"v#	c #0B11FF",
"w#	c #0F06EF",
"x#	c #2F2945",
"y#	c #5A5748",
"z#	c #4F4B35",
"A#	c #73726C",
"B#	c #68665D",
"C#	c #6C6A62",
"D#	c #888886",
"E#	c #37332A",
"F#	c #0D12F4",
"G#	c #0E19FF",
"H#	c #0E1FED",
"I#	c #0D1BF4",
"J#	c #0D1FFF",
"K#	c #0B1FFF",
"L#	c #1310CA",
"M#	c #352C7C",
"N#	c #62603F",
"O#	c #74736B",
"P#	c #4B4738",
"Q#	c #6E6C65",
"R#	c #29230B",
"S#	c #3F3B29",
"T#	c #332A42",
"U#	c #111CEB",
"V#	c #103CFE",
"W#	c #0F35FF",
"X#	c #0F2DFE",
"Y#	c #1006FA",
"Z#	c #403C63",
"`#	c #545144",
" $	c #545141",
".$	c #545042",
"+$	c #484538",
"@$	c #626260",
"#$	c #21169C",
"$$	c #0E1EFE",
"%$	c #1138FF",
"&$	c #0E2EFF",
"*$	c #0705FF",
"=$	c #1C1487",
"-$	c #35301B",
";$	c #1A1AC1",
">$	c #0E31FF",
",$	c #0B31FF",
"'$	c #0323FF",
")$	c #1336FF",
"!$	c #0612F6",
"~$	c #261D87",
"{$	c #3B361A",
"]$	c #4A473B",
"^$	c #5C5B58",
"/$	c #3F3903",
"($	c #1715C0",
"_$	c #0C2EFF",
":$	c #123EFF",
"<$	c #0F34FF",
"[$	c #0528FF",
"}$	c #000CFF",
"|$	c #1834FF",
"1$	c #312DFF",
"2$	c #7170FE",
"3$	c #1713A0",
"4$	c #363028",
"5$	c #332E17",
"6$	c #61605A",
"7$	c #6A6961",
"8$	c #5E5C57",
"9$	c #464235",
"0$	c #38331E",
"a$	c #302854",
"b$	c #1513DD",
"c$	c #0C2DFF",
"d$	c #0010FF",
"e$	c #1B29FF",
"f$	c #7C75FF",
"g$	c #BDB7FA",
"h$	c #A29F91",
"i$	c #4E4821",
"j$	c #6A6860",
"k$	c #9C9D9F",
"l$	c #88898A",
"m$	c #686766",
"n$	c #48463A",
"o$	c #342E17",
"p$	c #211A92",
"q$	c #0000F7",
"r$	c #353AFF",
"s$	c #4B46FF",
"t$	c #BCB8FF",
"u$	c #BEB8FF",
"v$	c #E8E5FF",
"w$	c #FFFFFC",
"x$	c #AEAC93",
"y$	c #3B371F",
"z$	c #403C2A",
"A$	c #7D7C78",
"B$	c #939394",
"C$	c #868688",
"D$	c #686868",
"E$	c #454136",
"F$	c #3F3A04",
"G$	c #1E1688",
"H$	c #453FFF",
"I$	c #F7F5FF",
"J$	c #F8F8FF",
"K$	c #E1E0D9",
"L$	c #828069",
"M$	c #A9A79F",
"N$	c #413C29",
"O$	c #4A4635",
"P$	c #74726B",
"Q$	c #959596",
"R$	c #6A6966",
"S$	c #4C4941",
"T$	c #231D4C",
"U$	c #373061",
"V$	c #F1F1E1",
"W$	c #EBEAE6",
"X$	c #767264",
"Y$	c #403C29",
"Z$	c #787671",
"`$	c #89898A",
" %	c #55534C",
".%	c #3F3B27",
"+%	c #87856C",
"@%	c #F2F2F2",
"#%	c #656152",
"$%	c #1C1500",
"%%	c #7C7B77",
"&%	c #848483",
"*%	c #5D5C56",
"=%	c #7F7C74",
"-%	c #F7F7FA",
";%	c #F5F5F4",
">%	c #3C3723",
",%	c #484433",
"'%	c #474338",
")%	c #4E4938",
"!%	c #D0CEC9",
"~%	c #605C4C",
"{%	c #1A1400",
"]%	c #575341",
"                                                                                            ",
"                                                                    . + @                   ",
"                                                                    # $ % &                 ",
"                                                                      * = - ;               ",
"                                                                        > , ' ) !           ",
"                                                                          * ~ { ] ^         ",
"                      / ( _ : <                                             [ } | 1 2       ",
"                      3 4 5 6 7 8 9                                         0 a b c d e     ",
"                      f g h h i j k 8 l                                     m n o p q r s   ",
"                      t u h h h v w x y z                                     A B C D E F   ",
"                      G H I h h J h K L M N O                                   P Q R S T   ",
"                        U V W h X Y Z `  ...+.@.  #.                  $.%.  &.*.=.-.;.>.,.  ",
"                        '.).!.h ~.{.].^./.(._.:.<.[.          }.|.1.2.3.4.5.6.7.8.9.0.a.b.c.",
"                          d.e.f.g.h.i.j.k.l.m.n.o.p.q.r.s.t.u.v.w.x.y.z.A.B.C.D.E.F.G.H.I.  ",
"                          J.K.L.M.N.O.P.Q.R.S.T.U.V.W.X.Y.Z.`. +.+++@+#+$+%+&+*+=+h -+;+    ",
"                            >+,+'+)+!+~+{+]+^+/+(+_+:+<+[+}+|+1+2+3+4+5+5+6+7+8+<+9+0+a+    ",
"                            b+c+d+e+f+g+Q.h+i+Q.j+k+l+h m+n+o+p+q+r+B.5+s+t+u+v+w+x+        ",
"                              y+z+A+B+C+D+E+F+F+]+G+H+I+J+h h K+L+M+#+5+N+O+P+Q+R+S+        ",
"                                T+U+V+(.W+X+{+F+Y+Z+`+ @.@h +@@@#@$@%@#+&@*@=@-@;@          ",
"                                b+>@h ,@'@)@h+F+F+F+~+!@~@{@]@^@/@(@%+B._@:@<@[@}@          ",
"                                  |@1@2@3@h.4@{+Y+i+]+5@6@7@8@9@0@a@B.(@b@c@d@e@            ",
"                                  f@g@h@h i@j@k@l@Y+F+m@n@o@p@q@r@s@t@u@v@w@x@              ",
"                                    y@z@h A@B@C@D@E@F@G@H@I@J@K@L@M@N@O@P@Q@                ",
"                                    R@S@T@U@h V@W@X@Y@Z@`@ #.#+#@###$#%#&#                  ",
"                                    *#=#-#;#h h >#,#'#)#`@@#!#~#{#]#^#                      ",
"                                    /#(#_#u :#<#[#}#|#1#2#3#4#5#6#7#8#                      ",
"                                  9#0#a#b#c#d#e#f#g#h#i#j#! k#l#m#n#8#                      ",
"                                  o#p#q#r#s#t#u#v#w#x#y#z#A#B#C#D#+#                        ",
"                                  E#F#5+G#H#I#J#%+K#L#M#N#O#P#Q#F R#                        ",
"            S#.                   T#U#@+V#W##+B.#+5+X#Y#Z#`# $.$                            ",
"            +$@$>                 #$$$#+5+5+5+%$5+4+&$*$=$                                  ",
"            -$- = *               ;$>$4+4+s+#+,$'$)$!$~${$                                  ",
"              & ]$^$s           /$($_$:$<$[$}$|$1$2$3$4$                                    ",
"                5$6$7$8$9$0$    a$b$c$d$O+e$f$f$g$h$i$                                      ",
"                  j$k$l$m$n$o$  p$q$r$s$t$u$v$w$x$y$                                        ",
"                  z$A$B$C$D$E$F$G$H$Q+I$J$K$L$M$N$                                          ",
"                    O$P$Q$C$R$S$T$U$V$h W$X$                                                ",
"                      Y$Z$Q$`$ %.%+%@%H.#%$%                                                ",
"                        l#%%&%*%=%-%;%x+                                                    ",
"                          >%,%'%)%!%~%{%                                                    ",
"                                  ]%                                                        ",
"                                                                                            ",
"                                                                                            ",
"                                                                                            ",
"                                                                                            ",
"                                                                                            "};
