/* XPM */
static char * playerTwo04_xpm[] = {
"46 46 670 2",
"  	c None",
". 	c #4D4937",
"+ 	c #3B3521",
"@ 	c #555555",
"# 	c #414141",
"$ 	c #4A4A4A",
"% 	c #5D5D5D",
"& 	c #434343",
"* 	c #383838",
"= 	c #474230",
"- 	c #767367",
"; 	c #A3A19B",
"> 	c #ADACA7",
", 	c #85837A",
"' 	c #5C5A4B",
") 	c #4B4B4B",
"! 	c #717171",
"~ 	c #7C7C7C",
"{ 	c #6D6D6D",
"] 	c #868686",
"^ 	c #727272",
"/ 	c #5E5E5E",
"( 	c #484848",
"_ 	c #393939",
": 	c #5A5648",
"< 	c #AAA9A2",
"[ 	c #F4F5F7",
"} 	c #FBFBFC",
"| 	c #DDDCDB",
"1 	c #89867C",
"2 	c #373738",
"3 	c #5C5C5C",
"4 	c #8A8A8A",
"5 	c #919191",
"6 	c #7A7A7A",
"7 	c #818181",
"8 	c #838383",
"9 	c #545454",
"0 	c #3C3C3C",
"a 	c #6D6960",
"b 	c #D6D6D4",
"c 	c #FFFFFF",
"d 	c #F1F1F0",
"e 	c #929188",
"f 	c #5B574B",
"g 	c #474645",
"h 	c #757575",
"i 	c #888888",
"j 	c #7F7F7F",
"k 	c #878787",
"l 	c #828282",
"m 	c #787878",
"n 	c #848484",
"o 	c #707070",
"p 	c #505051",
"q 	c #413F3E",
"r 	c #3D3A36",
"s 	c #373534",
"t 	c #433D2B",
"u 	c #69655B",
"v 	c #A8A6A0",
"w 	c #F0EFEE",
"x 	c #E7E7E6",
"y 	c #8C8A80",
"z 	c #4D4939",
"A 	c #3C3A36",
"B 	c #5B5B59",
"C 	c #767676",
"D 	c #858585",
"E 	c #777777",
"F 	c #626262",
"G 	c #434345",
"H 	c #63564B",
"I 	c #A88D6F",
"J 	c #7F6D5A",
"K 	c #403E3B",
"L 	c #373636",
"M 	c #605D51",
"N 	c #C3C0BC",
"O 	c #F2EFEB",
"P 	c #C5C5C3",
"Q 	c #5C594C",
"R 	c #424242",
"S 	c #706F6E",
"T 	c #898989",
"U 	c #7B7B7B",
"V 	c #6B6B6B",
"W 	c #545656",
"X 	c #52504D",
"Y 	c #695C51",
"Z 	c #A18469",
"` 	c #F6CB99",
" .	c #C9A784",
"..	c #5E5954",
"+.	c #8D7761",
"@.	c #66594C",
"#.	c #48433C",
"$.	c #696863",
"%.	c #C1C1BF",
"&.	c #CCE7F1",
"*.	c #C6EEFE",
"=.	c #E5F7FF",
"-.	c #FAF9F9",
";.	c #B9B9B4",
">.	c #4C4939",
",.	c #303030",
"'.	c #7E7E7E",
").	c #6A6A6A",
"!.	c #5F5F5F",
"~.	c #404142",
"{.	c #6C5D50",
"].	c #C9A47E",
"^.	c #F0C292",
"/.	c #FDCE9B",
"(.	c #B89C7E",
"_.	c #93806E",
":.	c #E4B88B",
"<.	c #CDA780",
"[.	c #B29374",
"}.	c #7C705D",
"|.	c #52524C",
"1.	c #598191",
"2.	c #51B8ED",
"3.	c #BFEDFF",
"4.	c #CBC9C6",
"5.	c #696658",
"6.	c #3A3A39",
"7.	c #797979",
"8.	c #939393",
"9.	c #737373",
"0.	c #6F6F6F",
"a.	c #525353",
"b.	c #484642",
"c.	c #937B63",
"d.	c #FFD59F",
"e.	c #FFCD9A",
"f.	c #FCCC99",
"g.	c #DAB28A",
"h.	c #AC9178",
"i.	c #B79778",
"j.	c #87715C",
"k.	c #A0886D",
"l.	c #DABC91",
"m.	c #B9A17D",
"n.	c #58696A",
"o.	c #1A86BF",
"p.	c #6BC8F3",
"q.	c #DCF3FC",
"r.	c #C8BFB8",
"s.	c #575244",
"t.	c #30302F",
"u.	c #515150",
"v.	c #949494",
"w.	c #747474",
"x.	c #616162",
"y.	c #444647",
"z.	c #60564C",
"A.	c #C8A57E",
"B.	c #FFD19B",
"C.	c #E4B98E",
"D.	c #68625D",
"E.	c #A98E73",
"F.	c #AB8B6F",
"G.	c #BA9877",
"H.	c #FACE9C",
"I.	c #F0C18F",
"J.	c #927E66",
"K.	c #354C57",
"L.	c #3A8EB3",
"M.	c #9FD3E6",
"N.	c #A19A90",
"O.	c #4E4839",
"P.	c #343434",
"Q.	c #6E6E6E",
"R.	c #555656",
"S.	c #494746",
"T.	c #675C52",
"U.	c #927962",
"V.	c #F8CA98",
"W.	c #FFCF9B",
"X.	c #FFCC99",
"Y.	c #FFCE9A",
"Z.	c #C5A382",
"`.	c #A18A73",
" +	c #E3BD90",
".+	c #FFD19C",
"++	c #EEBF90",
"@+	c #FFCF9A",
"#+	c #E4B787",
"$+	c #A28262",
"%+	c #487383",
"&+	c #B1D5E1",
"*+	c #B2B1AE",
"=+	c #6A655A",
"-+	c #454442",
";+	c #808081",
">+	c #8B8B8B",
",+	c #7D7D7D",
"'+	c #636363",
")+	c #3C3E41",
"!+	c #6A5C4F",
"~+	c #CBA780",
"{+	c #F7C695",
"]+	c #FECD9A",
"^+	c #FCCD9A",
"/+	c #FFD29D",
"(+	c #F2C494",
"_+	c #D6AF86",
":+	c #EEBF8B",
"<+	c #AC8560",
"[+	c #5F6867",
"}+	c #C1CECE",
"|+	c #B9B0A6",
"1+	c #585548",
"2+	c #454234",
"3+	c #545350",
"4+	c #7B7B7C",
"5+	c #808080",
"6+	c #595959",
"7+	c #393A3A",
"8+	c #9D8268",
"9+	c #F7D19C",
"0+	c #FFD09C",
"a+	c #FFCB99",
"b+	c #EABD90",
"c+	c #F3C494",
"d+	c #FFCD99",
"e+	c #FDD09C",
"f+	c #D1AB82",
"g+	c #776655",
"h+	c #CFA67C",
"i+	c #B08A65",
"j+	c #7D837F",
"k+	c #BCBEBE",
"l+	c #827869",
"m+	c #433F2D",
"n+	c #4C4B3B",
"o+	c #4D4D4C",
"p+	c #484849",
"q+	c #4E4742",
"r+	c #BF9D7A",
"s+	c #FFD7A0",
"t+	c #FDCC99",
"u+	c #FFD09B",
"v+	c #867668",
"w+	c #BD9D7D",
"x+	c #F9CB99",
"y+	c #F0C695",
"z+	c #9F8569",
"A+	c #706051",
"B+	c #E3B688",
"C+	c #D5A779",
"D+	c #766F64",
"E+	c #9D9894",
"F+	c #504B3B",
"G+	c #3F3A28",
"H+	c #47463C",
"I+	c #59595A",
"J+	c #444646",
"K+	c #7C6B5A",
"L+	c #AE8E6F",
"M+	c #ECC392",
"N+	c #F8CB98",
"O+	c #D2AC87",
"P+	c #B99B7D",
"Q+	c #756B61",
"R+	c #C2A280",
"S+	c #FFD6A0",
"T+	c #FFD39D",
"U+	c #DCB489",
"V+	c #685B4D",
"W+	c #AE8F70",
"X+	c #F3BE8A",
"Y+	c #AA8561",
"Z+	c #6E665E",
"`+	c #9C9D9C",
" @	c #838076",
".@	c #3A341F",
"+@	c #444138",
"@@	c #616160",
"#@	c #6C6C6C",
"$@	c #6F6F70",
"%@	c #5E5F61",
"&@	c #5E554C",
"*@	c #DEB388",
"=@	c #FCCF9B",
"-@	c #E7BE90",
";@	c #746B61",
">@	c #B99A7C",
",@	c #AA8E72",
"'@	c #8F7963",
")@	c #D6AF85",
"!@	c #FACA97",
"~@	c #FBCC98",
"{@	c #C4A17C",
"]@	c #D6AD83",
"^@	c #EDB883",
"/@	c #77614C",
"(@	c #7B8080",
"_@	c #BBBAB7",
":@	c #696558",
"<@	c #434036",
"[@	c #565553",
"}@	c #6C6D6D",
"|@	c #776A5D",
"1@	c #C8A17D",
"2@	c #F6C695",
"3@	c #FDCC98",
"4@	c #FECC99",
"5@	c #E3B88E",
"6@	c #998470",
"7@	c #EEBF91",
"8@	c #CEA680",
"9@	c #86715C",
"0@	c #9E836A",
"a@	c #ECBD8E",
"b@	c #DDB288",
"c@	c #987F65",
"d@	c #CCA279",
"e@	c #C0956C",
"f@	c #675F54",
"g@	c #8A969A",
"h@	c #BBB4AD",
"i@	c #494537",
"j@	c #423E2D",
"k@	c #5A5852",
"l@	c #838382",
"m@	c #646464",
"n@	c #535251",
"o@	c #4E4941",
"p@	c #AD8E70",
"q@	c #FDCE9A",
"r@	c #EFC393",
"s@	c #FDCB99",
"t@	c #FBCA97",
"u@	c #DAB288",
"v@	c #DCBD92",
"w@	c #FFD7A4",
"x@	c #FDC997",
"y@	c #AD8E6E",
"z@	c #C0976E",
"A@	c #85694F",
"B@	c #666F6F",
"C@	c #CFD2D5",
"D@	c #D2CDCA",
"E@	c #716F65",
"F@	c #524C3A",
"G@	c #AFAEAE",
"H@	c #797878",
"I@	c #606060",
"J@	c #666768",
"K@	c #535252",
"L@	c #746555",
"M@	c #E7B98C",
"N@	c #FECB98",
"O@	c #FFD29E",
"P@	c #FFD4A1",
"Q@	c #E7B889",
"R@	c #C79A6F",
"S@	c #6D5E4E",
"T@	c #798A90",
"U@	c #FEFDFD",
"V@	c #CBCAC7",
"W@	c #585342",
"X@	c #656153",
"Y@	c #69665C",
"Z@	c #7C7C79",
"`@	c #5D5D5E",
" #	c #454646",
".#	c #675B4E",
"+#	c #FFCB98",
"@#	c #FEC68F",
"##	c #9E7C5B",
"$#	c #666662",
"%#	c #B7C0C5",
"&#	c #F5F4E9",
"*#	c #999790",
"=#	c #393333",
"-#	c #28220C",
";#	c #3E3A27",
">#	c #605B4A",
",#	c #575345",
"'#	c #504E4A",
")#	c #636466",
"!#	c #706D6A",
"~#	c #9B836A",
"{#	c #DAB389",
"]#	c #F8CB99",
"^#	c #FECA97",
"/#	c #F5C290",
"(#	c #DEAD7D",
"_#	c #735F4B",
":#	c #6A7A7F",
"<#	c #F1F2F3",
"[#	c #D5D4C4",
"}#	c #6A6772",
"|#	c #1F1894",
"1#	c #1D1577",
"2#	c #413D2C",
"3#	c #504D44",
"4#	c #474436",
"5#	c #929292",
"6#	c #878888",
"7#	c #767777",
"8#	c #605B57",
"9#	c #6B5E52",
"0#	c #947C63",
"a#	c #ECBF90",
"b#	c #FFCC9A",
"c#	c #F0BC88",
"d#	c #B08B66",
"e#	c #84715B",
"f#	c #75746F",
"g#	c #A9AEAB",
"h#	c #EDEEE9",
"i#	c #797676",
"j#	c #1911BC",
"k#	c #1A11B6",
"l#	c #2C2568",
"m#	c #5C5B57",
"n#	c #423F2F",
"o#	c #454544",
"p#	c #656867",
"q#	c #484D51",
"r#	c #655B4F",
"s#	c #CBA57E",
"t#	c #FFD49E",
"u#	c #F4C695",
"v#	c #F9C793",
"w#	c #EFBC8A",
"x#	c #CFA274",
"y#	c #695948",
"z#	c #53524A",
"A#	c #A99E9A",
"B#	c #AEAA9D",
"C#	c #D8D7C4",
"D#	c #DEDEC2",
"E#	c #89858C",
"F#	c #2721AC",
"G#	c #0B0CEC",
"H#	c #1A1BC0",
"I#	c #2C2760",
"J#	c #4A473A",
"K#	c #4E4D43",
"L#	c #464335",
"M#	c #353535",
"N#	c #575857",
"O#	c #51514C",
"P#	c #4E4D49",
"Q#	c #4F4F4F",
"R#	c #4D4D57",
"S#	c #53546C",
"T#	c #4C4C4B",
"U#	c #403D5D",
"V#	c #786658",
"W#	c #A5886B",
"X#	c #B99877",
"Y#	c #977D64",
"Z#	c #8F765B",
"`#	c #8E745A",
" $	c #605244",
".$	c #544C3E",
"+$	c #3F3F37",
"@$	c #504873",
"#$	c #46428F",
"$$	c #514B6D",
"%$	c #6E6965",
"&$	c #463E74",
"*$	c #1917C1",
"=$	c #0B1FF9",
"-$	c #1422D8",
";$	c #2A2767",
">$	c #423D2B",
",$	c #54524C",
"'$	c #3E3B29",
")$	c #313131",
"!$	c #3F3E35",
"~$	c #3B3A39",
"{$	c #322F47",
"]$	c #272666",
"^$	c #242383",
"/$	c #222084",
"($	c #333341",
"_$	c #514C44",
":$	c #5E554A",
"<$	c #484843",
"[$	c #48453F",
"}$	c #5B5751",
"|$	c #5E5B56",
"1$	c #56553C",
"2$	c #403D2A",
"3$	c #1D1589",
"4$	c #0503D0",
"5$	c #0705C1",
"6$	c #1B1DAB",
"7$	c #111BC3",
"8$	c #0C21FE",
"9$	c #0E34FF",
"0$	c #0C26FF",
"a$	c #1D20AF",
"b$	c #2A1E73",
"c$	c #535043",
"d$	c #646460",
"e$	c #4C493C",
"f$	c #352C39",
"g$	c #2D2547",
"h$	c #302A71",
"i$	c #585552",
"j$	c #606052",
"k$	c #5B5951",
"l$	c #6B6962",
"m$	c #5B5B55",
"n$	c #575549",
"o$	c #656359",
"p$	c #535037",
"q$	c #3C354D",
"r$	c #1411C7",
"s$	c #0E28FF",
"t$	c #0D2CFC",
"u$	c #0D2AFC",
"v$	c #0E2FFE",
"w$	c #0F36FF",
"x$	c #113DFF",
"y$	c #1036FF",
"z$	c #1024F4",
"A$	c #1D1DB0",
"B$	c #322F4A",
"C$	c #3E3928",
"D$	c #534F47",
"E$	c #7B7A77",
"F$	c #7E7E7A",
"G$	c #5B584C",
"H$	c #53513A",
"I$	c #616154",
"J$	c #68665C",
"K$	c #4E4A3A",
"L$	c #656259",
"M$	c #615F56",
"N$	c #66634E",
"O$	c #534D43",
"P$	c #312A80",
"Q$	c #101AE3",
"R$	c #0D2DFF",
"S$	c #113BFF",
"T$	c #1037FF",
"U$	c #123AFF",
"V$	c #1038FF",
"W$	c #0F34FE",
"X$	c #121EDF",
"Y$	c #241E8A",
"Z$	c #454134",
"`$	c #676662",
" %	c #929396",
".%	c #848482",
"+%	c #474332",
"@%	c #535143",
"#%	c #6B6961",
"$%	c #6F6E67",
"%%	c #6C6A63",
"&%	c #64625A",
"*%	c #6B6A56",
"=%	c #545059",
"-%	c #1F17CE",
";%	c #0C20FE",
">%	c #0D36FF",
",%	c #0C33FF",
"'%	c #0D35FF",
")%	c #0B34FF",
"!%	c #0B32FF",
"~%	c #0A32FF",
"{%	c #0C28FA",
"]%	c #1415BA",
"^%	c #282078",
"/%	c #3C3812",
"(%	c #4F4E45",
"_%	c #7D7E7F",
":%	c #8D8D8F",
"<%	c #6E6C64",
"[%	c #423D2A",
"}%	c #514E40",
"|%	c #4A4636",
"1%	c #545143",
"2%	c #5C594D",
"3%	c #555243",
"4%	c #3F3B62",
"5%	c #140DCD",
"6%	c #0B18F2",
"7%	c #0B2AFF",
"8%	c #1035FF",
"9%	c #0A26FF",
"0%	c #0621FF",
"a%	c #0E23FF",
"b%	c #0116FF",
"c%	c #0918FF",
"d%	c #1021FF",
"e%	c #121FFF",
"f%	c #1B1CF1",
"g%	c #1C15AD",
"h%	c #261F4F",
"i%	c #444021",
"j%	c #61605C",
"k%	c #8B8B8D",
"l%	c #848380",
"m%	c #545142",
"n%	c #524F3F",
"o%	c #2B235D",
"p%	c #1B179F",
"q%	c #1A20D6",
"r%	c #3A44F1",
"s%	c #4E4CFA",
"t%	c #545AFF",
"u%	c #6A66FF",
"v%	c #696BFF",
"w%	c #817FFF",
"x%	c #736DFF",
"y%	c #A1A1FF",
"z%	c #7E7DFC",
"A%	c #2C26C5",
"B%	c #241E5A",
"C%	c #4A473D",
"D%	c #777673",
"E%	c #929294",
"F%	c #787670",
"G%	c #3F3B28",
"H%	c #2D243D",
"I%	c #352F4C",
"J%	c #676188",
"K%	c #ACA5C9",
"L%	c #CCC9EB",
"M%	c #D6D2EE",
"N%	c #D9D4EE",
"O%	c #E5E1F5",
"P%	c #F6F4FA",
"Q%	c #FEFEFF",
"R%	c #E3E1E5",
"S%	c #65607C",
"T%	c #373239",
"U%	c #4C4940",
"V%	c #797877",
"W%	c #868584",
"X%	c #5E5B50",
"Y%	c #686340",
"Z%	c #676440",
"`%	c #89866E",
" &	c #B2B09F",
".&	c #817F68",
"+&	c #9D9A8A",
"@&	c #C9C6BE",
"#&	c #E9E8E3",
"$&	c #F1F1EA",
"%&	c #CBCAC5",
"&&	c #8F8E81",
"*&	c #5C5948",
"=&	c #676661",
"-&	c #423E2B",
";&	c #726F65",
">&	c #56513F",
",&	c #504B3C",
"'&	c #7B786B",
")&	c #BCBCB5",
"!&	c #EFEEEC",
"~&	c #D4D2CD",
"{&	c #6E6A5F",
"]&	c #4F4B40",
"^&	c #433F2C",
"/&	c #332D16",
"(&	c #625F50",
"_&	c #686557",
":&	c #959187",
"<&	c #4F4B39",
"                                                                                            ",
"                                                                                            ",
"                                                                                            ",
"                                                                                            ",
"                                                                                            ",
"                                                                                            ",
"                                                                                            ",
"                                                                                            ",
"                                                                                            ",
"                                                                                            ",
"                                                                                            ",
"                                                                                            ",
"                                                          . +                               ",
"                  @ # $ % & *                       = - ; > , '                             ",
"                ) ! ~ { ] ^ / ( _                   : < [ } | 1                             ",
"            2 3 ^ 4 5 ~ 6 7 8 ^ 9 0                 a b c c d e f                           ",
"            g h i j k l m 7 n o p q r s         t u v w c c x y z                           ",
"          A B 8 8 C 7 D m E ^ F G H I J K L     M N O c c c P Q                             ",
"        R S 6 T U ^ o m m V W X Y Z `  ...+.@.#.$.%.&.*.=.-.;.>.                            ",
"      ,./ T T k '.).F h C !.~.{.].^./.(._.:.<.[.}.|.1.2.3.c 4.5.                            ",
"      6.7.8.'.~ U E 9.m 0.a.b.c.d.e.f.g.h.i.j.k.l.m.n.o.p.q.r.s.                            ",
"    t.u.i v.j E ^ w.C ^ x.y.z.A.d.e.B.C.D.E.F.G.H.I.J.K.L.M.N.O.                            ",
"    P.0.4 i ] 7.).).Q.R.S.T.U.V.W.X.Y.Z.`. +.+++X.@+#+$+%+&+*+=+                            ",
"    -+;+>+U ,+C 0.^ '+)+!+~+{+.+e.X.X.]+^.^+Y./+(+_+:+<+[+}+|+1+                            ",
"  2+3+4+k 5+~ E E ^ 6+7+8+9+0+a+e..+b+c+d+X.e.e+f+g+h+i+j+k+l+m+                            ",
"  n+o+V i 4 j 6 C '+p+q+r+s+X.e.t+u+v+w+x+d+/+y+z+A+B+C+D+E+F+                              ",
"G+H+I+m 4 n n 7.0.J+K+L+M+/+u+N+O+P+Q+R+S+e.T+U+V+W+X+Y+Z+`+ @                              ",
".@+@@@] 5+w.#@$@%@&@*@=@.+X..+-@;@>@,@'@)@!@~@{@V+]@^@/@(@_@:@                              ",
"  <@[@6 7 C ).! }@|@1@2@3@X.4@5@6@7@8@9@0@a@X.b@c@d@e@f@g@h@i@                              ",
"  j@k@#@l@5+C ^ m@n@o@p@!@Y.d+q@r@s@t@u@v@w@0+x@y@z@A@B@C@D@E@                              ",
"  F@G@H@I@3 m ^ #@J@K@L@M@N@e.X.d+X.d+O@w@P@X.X.Q@R@S@T@U@V@W@                              ",
"    X@Y@Z@7.j ~ C C `@ #.#<.]+e.e.X.X.+#X.e.X.e.@###$#%#&#*#=#-#                        ;#  ",
"      >#,#'#Q.j E E { )#!#~#{#]#e.X.X.X.X.d+^#/#(#_#:#<#[#}#|#1#                    2#3#4#  ",
"          _ U 5#j 6 D 6#7#8#9#0#a#e.e.b#e.@+c#d#e#f#g#c h#i#j#k#l#                  j@m#n#  ",
"          o#0.D ,+h 7.,+9.p#q#r#s#t#e.u#v#w#x#y#z#A#B#C#D#E#F#G#H#I#              m+J#K#L#  ",
"            M#( N#O#P#Q#R#S#T#U#V#W#X#Y#Z#`# $.$+$@$#$$$%$&$*$=$-$;$              >$,$'$    ",
"                )$  !$~${$]$^$/$($_$:$<$[$}$|$1$2$3$4$5$6$7$8$9$0$a$b$            c$d$e$    ",
"                          f$g$h$i$j$k$l$m$n$o$p$q$r$s$t$u$v$w$x$y$z$A$B$      C$D$E$F$G$    ",
"                                H$I$J$K$L$M$N$O$P$Q$R$S$S$T$U$T$V$W$X$Y$      Z$`$ %.%+%    ",
"                                  @%#%$%%%&%*%=%-%;%V$>%,%w$'%)%!%~%{%]%^%  /%(%_%:%<%[%    ",
"                                  }%|%1%2%3%' 4%5%6%7%8%9%0%a%b%c%d%e%f%g%h%i%j%k%l%m%      ",
"                                        n%      o%p%q%r%s%t%u%v%w%x%y%z%A%B%C%D%E%F%G%      ",
"                                                  H%I%J%K%L%M%N%O%P%Q%R%S%T%U%V%W%X%        ",
"                                                      Y%Z%`% &.&+&@&#&$&%&&&*&=&o$-&        ",
"                                                            ;&  >&,&'&)&!&~&{&]&^&/&        ",
"                                                                      (&_&:&<&              "};
