/* XPM */
static char * playerTwo10_xpm[] = {
"46 46 512 2",
"  	c None",
". 	c #29240E",
"+ 	c #7D7A6C",
"@ 	c #3D3825",
"# 	c #241E08",
"$ 	c #342F1A",
"% 	c #4B4634",
"& 	c #FFFFFF",
"* 	c #FCFCFB",
"= 	c #ADABA3",
"- 	c #55513F",
"; 	c #2B2510",
"> 	c #342E19",
", 	c #4E4A3A",
"' 	c #5A5954",
") 	c #5C5A4F",
"! 	c #ACAAA7",
"~ 	c #D3D4D5",
"{ 	c #D0CFCB",
"] 	c #747062",
"^ 	c #393420",
"/ 	c #AAA8A0",
"( 	c #575242",
"_ 	c #2B2611",
": 	c #433F2D",
"< 	c #969698",
"[ 	c #8B8B8B",
"} 	c #4D4B43",
"| 	c #302B14",
"1 	c #433E1E",
"2 	c #EDEDDD",
"3 	c #FBFBF6",
"4 	c #E7E7CD",
"5 	c #7B7766",
"6 	c #39341E",
"7 	c #3E3906",
"8 	c #302A14",
"9 	c #66635A",
"0 	c #949495",
"a 	c #7F7F80",
"b 	c #58564C",
"c 	c #2E2846",
"d 	c #150CE9",
"e 	c #B9B6FF",
"f 	c #7269FF",
"g 	c #E4E2FF",
"h 	c #5249FF",
"i 	c #A199FF",
"j 	c #5651FF",
"k 	c #5649FF",
"l 	c #7271FF",
"m 	c #0000F1",
"n 	c #231990",
"o 	c #352F35",
"p 	c #3D390C",
"q 	c #3A3521",
"r 	c #898988",
"s 	c #8F8F8F",
"t 	c #6E6E6F",
"u 	c #423E30",
"v 	c #3B360A",
"w 	c #140BC8",
"x 	c #0000FF",
"y 	c #1921FF",
"z 	c #0005FF",
"A 	c #0509FF",
"B 	c #0624FF",
"C 	c #0006FF",
"D 	c #1036FF",
"E 	c #0316FF",
"F 	c #0F34FF",
"G 	c #0F30FF",
"H 	c #0C19FF",
"I 	c #0900FF",
"J 	c #211B66",
"K 	c #48442C",
"L 	c #565346",
"M 	c #6B6961",
"N 	c #423E2C",
"O 	c #322D17",
"P 	c #565345",
"Q 	c #858586",
"R 	c #5C5C59",
"S 	c #37321D",
"T 	c #292372",
"U 	c #150BDA",
"V 	c #113DFF",
"W 	c #1139FF",
"X 	c #1038FF",
"Y 	c #1037FF",
"Z 	c #0F06FD",
"` 	c #545253",
" .	c #7F7E79",
"..	c #4B4738",
"+.	c #68665D",
"@.	c #8B8B8A",
"#.	c #7A7975",
"$.	c #514E3F",
"%.	c #36311C",
"&.	c #7D7C78",
"*.	c #919292",
"=.	c #757577",
"-.	c #49463A",
";.	c #342E18",
">.	c #403C00",
",.	c #322B42",
"'.	c #0A10FF",
").	c #1039FF",
"!.	c #0D1CFF",
"~.	c #1C11A6",
"{.	c #5B593D",
"].	c #4B4736",
"^.	c #848482",
"/.	c #545143",
"(.	c #838381",
"_.	c #413D2B",
":.	c #484333",
"<.	c #98999B",
"[.	c #646465",
"}.	c #3B3623",
"|.	c #3F3B01",
"1.	c #1B1ABD",
"2.	c #0D2AFF",
"3.	c #103BFF",
"4.	c #0C07FF",
"5.	c #312B43",
"6.	c #605D4A",
"7.	c #585549",
"8.	c #4A4636",
"9.	c #797874",
"0.	c #504C3D",
"a.	c #7E7D76",
"b.	c #393421",
"c.	c #3E3907",
"d.	c #332D17",
"e.	c #676661",
"f.	c #5E5C51",
"g.	c #342E1A",
"h.	c #2A2170",
"i.	c #1508D8",
"j.	c #0F31FF",
"k.	c #0C21FF",
"l.	c #1118E6",
"m.	c #0C03FF",
"n.	c #0B11FF",
"o.	c #150AD1",
"p.	c #403C1A",
"q.	c #454234",
"r.	c #8D8D8D",
"s.	c #706F68",
"t.	c #44402F",
"u.	c #3E3927",
"v.	c #67655C",
"w.	c #524E3F",
"x.	c #57553A",
"y.	c #272096",
"z.	c #0D03FF",
"A.	c #221797",
"B.	c #332D3A",
"C.	c #3A350E",
"D.	c #616161",
"E.	c #332C40",
"F.	c #0E05FE",
"G.	c #251C79",
"H.	c #4E493E",
"I.	c #29232A",
"J.	c #0F0694",
"K.	c #2C2668",
"L.	c #514F38",
"M.	c #5D5C57",
"N.	c #38321D",
"O.	c #5E5B50",
"P.	c #878685",
"Q.	c #82817F",
"R.	c #575447",
"S.	c #8C8C8C",
"T.	c #4D4A37",
"U.	c #150AF1",
"V.	c #0E28FF",
"W.	c #0C1BFF",
"X.	c #8A87C3",
"Y.	c #7C785C",
"Z.	c #211C05",
"`.	c #5B5A55",
" +	c #36301A",
".+	c #3F3B00",
"++	c #1B1BBB",
"@+	c #0B17FF",
"#+	c #170CA0",
"$+	c #6C6A2D",
"%+	c #E8E9EC",
"&+	c #DBDAD0",
"*+	c #878465",
"=+	c #C9C9C9",
"-+	c #403C2E",
";+	c #898483",
">+	c #89817A",
",+	c #615443",
"'+	c #3B3521",
")+	c #5D5B51",
"!+	c #37320F",
"~+	c #281F5A",
"{+	c #0C0CFF",
"]+	c #103AFF",
"^+	c #0E05FF",
"/+	c #645BFF",
"(+	c #DAD9FF",
"_+	c #EEEDEA",
":+	c #969489",
"<+	c #5E5E5B",
"[+	c #454233",
"}+	c #2A216E",
"|+	c #160DD6",
"1+	c #0E05F6",
"2+	c #6B6874",
"3+	c #F0F0F0",
"4+	c #F3E9E4",
"5+	c #707F7E",
"6+	c #467A93",
"7+	c #16B1F9",
"8+	c #60A1C0",
"9+	c #6E6C63",
"0+	c #676769",
"a+	c #433F1C",
"b+	c #180CC8",
"c+	c #0E24FF",
"d+	c #2E26FF",
"e+	c #231E07",
"f+	c #413D2C",
"g+	c #646464",
"h+	c #38331E",
"i+	c #322C44",
"j+	c #0B02FF",
"k+	c #373213",
"l+	c #CBCBCB",
"m+	c #FEFEFE",
"n+	c #42C3FF",
"o+	c #15A8EB",
"p+	c #0089CC",
"q+	c #0088C9",
"r+	c #00A5F8",
"s+	c #2E95C5",
"t+	c #726056",
"u+	c #57564B",
"v+	c #27212F",
"w+	c #0B03FF",
"x+	c #1025FF",
"y+	c #0800FF",
"z+	c #3D34FF",
"A+	c #E5E4FF",
"B+	c #F8F8F8",
"C+	c #A7A59C",
"D+	c #534E3D",
"E+	c #2A250F",
"F+	c #38331F",
"G+	c #433F2F",
"H+	c #3A3519",
"I+	c #2A2433",
"J+	c #7B7860",
"K+	c #E8E8EA",
"L+	c #CEF1FF",
"M+	c #00A3F6",
"N+	c #0174A9",
"O+	c #007AB1",
"P+	c #0078AD",
"Q+	c #0074A8",
"R+	c #00A0EC",
"S+	c #6A726D",
"T+	c #A9A7A2",
"U+	c #5D5973",
"V+	c #0E04C0",
"W+	c #0D21FF",
"X+	c #0200FF",
"Y+	c #BAB6FF",
"Z+	c #D0CFCA",
"`+	c #36301C",
" @	c #352F1A",
".@	c #BAB9B8",
"+@	c #F8F9F9",
"@@	c #59CEFF",
"#@	c #008CD3",
"$@	c #0077AC",
"%@	c #0078AE",
"&@	c #008AC9",
"*@	c #97CFEB",
"=@	c #BFBDAB",
"-@	c #625E3B",
";@	c #2F291E",
">@	c #1017ED",
",@	c #1035FF",
"'@	c #0B1DFF",
")@	c #4F49FF",
"!@	c #EEEFF1",
"~@	c #FCFCFC",
"{@	c #5E5A49",
"]@	c #504C3B",
"^@	c #CFCFCE",
"/@	c #F2FBFF",
"(@	c #00AEFE",
"_@	c #007CB4",
":@	c #007AB0",
"<@	c #0076AB",
"[@	c #0090DC",
"}@	c #6DD6FF",
"|@	c #A19F99",
"1@	c #1A11B3",
"2@	c #101AFF",
"3@	c #2B20FF",
"4@	c #CBC9FF",
"5@	c #B8B6A9",
"6@	c #68654B",
"7@	c #B4B4B1",
"8@	c #C6C5C4",
"9@	c #2F2913",
"0@	c #1F1902",
"a@	c #8C8A82",
"b@	c #FFFBF6",
"c@	c #88DDFF",
"d@	c #0095E2",
"e@	c #00A9FB",
"f@	c #E5F7FF",
"g@	c #F4F4F4",
"h@	c #E0E0E0",
"i@	c #828052",
"j@	c #1D116D",
"k@	c #0C15FF",
"l@	c #103AFE",
"m@	c #0F06FF",
"n@	c #251F2E",
"o@	c #312C15",
"p@	c #58564D",
"q@	c #383423",
"r@	c #3F3A27",
"s@	c #CACACA",
"t@	c #FFFEFD",
"u@	c #47C7FF",
"v@	c #007EBB",
"w@	c #0077AD",
"x@	c #0089CD",
"y@	c #46C8FF",
"z@	c #FAFAFB",
"A@	c #BCBCBA",
"B@	c #37321F",
"C@	c #2018AD",
"D@	c #0F05F1",
"E@	c #0F32FF",
"F@	c #0C25FF",
"G@	c #1015F5",
"H@	c #0809FF",
"I@	c #131AE7",
"J@	c #1D13B0",
"K@	c #2A226D",
"L@	c #1B14B9",
"M@	c #353032",
"N@	c #3D381E",
"O@	c #666666",
"P@	c #808081",
"Q@	c #4F4C3E",
"R@	c #696659",
"S@	c #ECEDEF",
"T@	c #DDF6FF",
"U@	c #009CE8",
"V@	c #0079B0",
"W@	c #009FF0",
"X@	c #BCEBFF",
"Y@	c #EBECED",
"Z@	c #86846F",
"`@	c #1C1572",
" #	c #140BE1",
".#	c #110FF3",
"+#	c #21169A",
"@#	c #3A351C",
"##	c #2C2464",
"$#	c #393322",
"%#	c #36310F",
"&#	c #4A483E",
"*#	c #767778",
"=#	c #959596",
"-#	c #7E7E7A",
";#	c #262009",
">#	c #B2B1AD",
",#	c #FFFFFC",
"'#	c #5DCFFF",
")#	c #008ED5",
"!#	c #007FBB",
"~#	c #0189C7",
"{#	c #0CB5FF",
"]#	c #FFFFFE",
"^#	c #DCDDDF",
"/#	c #484332",
"(#	c #332E2E",
"_#	c #322D43",
":#	c #3D380D",
"<#	c #5E5D5B",
"[#	c #868687",
"}#	c #939495",
"|#	c #535042",
"1#	c #D9D7D8",
"2#	c #F6FDFF",
"3#	c #01AEFE",
"4#	c #007CB5",
"5#	c #0076AC",
"6#	c #009CED",
"7#	c #A9E7FF",
"8#	c #F0FDFF",
"9#	c #FAF2F0",
"0#	c #929189",
"a#	c #666255",
"b#	c #2D2711",
"c#	c #433F31",
"d#	c #6F6F71",
"e#	c #8F8F90",
"f#	c #878786",
"g#	c #8D8B83",
"h#	c #FFF5F0",
"i#	c #92E2FF",
"j#	c #0096E3",
"k#	c #0079AF",
"l#	c #007FB9",
"m#	c #0BB3FF",
"n#	c #FEFFFF",
"o#	c #DBDCDD",
"p#	c #36301B",
"q#	c #575651",
"r#	c #949496",
"s#	c #636056",
"t#	c #3E3926",
"u#	c #1AB9FF",
"v#	c #0080BC",
"w#	c #0091DA",
"x#	c #74D9FF",
"y#	c #FFFAF5",
"z#	c #C4C3C0",
"A#	c #9E9D97",
"B#	c #302B16",
"C#	c #56544D",
"D#	c #413C2A",
"E#	c #6C685B",
"F#	c #D8E9F2",
"G#	c #07B2FF",
"H#	c #019FE8",
"I#	c #00A8F9",
"J#	c #E4F9FF",
"K#	c #E3E0E0",
"L#	c #545141",
"M#	c #312C14",
"N#	c #565347",
"O#	c #97989A",
"P#	c #777570",
"Q#	c #2F2A15",
"R#	c #A6A5A1",
"S#	c #FFFCF5",
"T#	c #6ED3FF",
"U#	c #00A0F3",
"V#	c #0095DD",
"W#	c #00ACFF",
"X#	c #35C2FF",
"Y#	c #FFFFFA",
"Z#	c #B8B7B5",
"`#	c #35301B",
" $	c #5F5F5E",
".$	c #474334",
"+$	c #484433",
"@$	c #4E4A39",
"#$	c #E1E1E4",
"$$	c #00ABFF",
"%$	c #1BB7FF",
"&$	c #B5EAFF",
"*$	c #D2EAF5",
"=$	c #EDE5E2",
"-$	c #78766B",
";$	c #28220C",
">$	c #35301A",
",$	c #231D06",
"'$	c #9B9992",
")$	c #FBFCFD",
"!$	c #FBFEFF",
"~$	c #A3E2FF",
"{$	c #FFFDFB",
"]$	c #BFBFBE",
"^$	c #BBBBBA",
"/$	c #FAFAFA",
"($	c #F5F6F9",
"_$	c #86847B",
":$	c #29230D",
"<$	c #3E3928",
"[$	c #666667",
"}$	c #636052",
"|$	c #E1E2E3",
"1$	c #FDFDFD",
"2$	c #CCCCCC",
"3$	c #737064",
"4$	c #494433",
"5$	c #4D4A3F",
"6$	c #342F18",
"7$	c #2F2914",
"8$	c #AAA9A5",
"9$	c #F0F1F2",
"0$	c #93918A",
"a$	c #221C05",
"b$	c #5D594A",
"c$	c #F5F5F6",
"d$	c #DDDDDF",
"e$	c #545040",
"f$	c #514D3C",
"g$	c #A2A19C",
"h$	c #D7D8D9",
"i$	c #CECDCB",
"j$	c #A1A09A",
"k$	c #312C17",
"l$	c #2D2812",
"m$	c #474331",
"                                                                                            ",
"                                                                                            ",
"                                                                                            ",
"                                                                                            ",
"                                                                                            ",
"                                                                                            ",
"                                                                                            ",
"                                                                                            ",
"                                                                                            ",
"                                                                                            ",
"                                                                                            ",
"                                                                                            ",
"              . + @ #                                                                       ",
"          $   % & * = - ;                                                                   ",
"        > , ' ) ! ~ & & { ] ^ / ( _                                                         ",
"        : < [ } | 1 2 & & & 3 & & 4 5 6 7                                                   ",
"      8 9 0 a b c d e & f g h i j k l m n o p     8                                         ",
"      q r s t u v w x y z A B C D E F G H I J K L M N O                                     ",
"      P 0 Q R S   T U G V D W X Y X D X D Z `  ...+.@.#.$.%.                                ",
"    $ &.*.=.-.;.  >.,.'.).D D D D D D ).!.~.{.].^./.^ /.(._.                                ",
"    :.<.@.[.}.      |.1.2.Y D D Y Y D 3.4.5.6.7.8.9.@.+.0.a.  b.c.                          ",
"    d.e.f.g.          h.i.j.).X k.l.m.n.o.p.q.r.s.t.u.v.w.x.y.z.A.B.C.                      ",
"    ^ D.u.            >.E.'.D F.G.H.I.J.K.L.M.N.O.P.Q.R.S.T.U.V.W.x X.Y.$ Z.                ",
"    -.`. +              .+++@+#+$+%+&+*+=+-+;+>+,+'+].)+!+~+{+]+Y ^+/+(+_+:+                ",
"  %.<+[+                  }+|+1+2+3+& & 4+5+6+7+8+S.9+0+a+b+c+).X D z d+& & ^ e+            ",
"  f+g+h+                  >.i+j+k+l+m+& n+o+p+q+r+s+t+u+v+w+D ]+D Y x+y+z+A+B+C+D+E+        ",
"  F+G+                      H+I+J+K+& L+M+N+O+P+Q+R+S+T+U+V+z.W+Y D ]+D X+Y+& & & Z+] `+    ",
"                               @.@+@& @@#@$@O+O+%@&@*@& =@-@;@>@Y D D ,@'@x )@& m+!@& ~@{@  ",
"                              ]@^@& /@(@_@:@O+O+<@[@}@& & & |@1@D D D D 3.2@3@4@5@6@7@8@9@  ",
"                              0@a@b@c@d@<@O+O+O+O+e@f@& g@h@i@j@k@l@,@]+Y ,@X+x m@n@o@p@q@  ",
"                              r@s@t@u@v@P+O+O+w@x@y@& z@A@B@C@D@E@F@G@H@I@J@K@L@M@N@O@P@Q@h+",
"                              R@S@& T@U@V@O+O+<@W@X@& Y@Z@`@m@ #.#+#@###$#  >.  %#&#*#=#-#$ ",
"                              ;#>#,#'#)#<@%@!#~#{#]#& ^#/#(#_#:#E.              h+<#[#}#|#  ",
"                              ]@1#2#3#4#V@5#6#7#8#9#0#a#b#                      c#d#e#f#F+  ",
"                            E+g#h#i#j#<@k#l#m#n#& o#]@                        p#q#P@r#s#8   ",
"                            t#=+& u#v#P+<@w#x#y#z#A#B#                          C#S.s D#    ",
"                              E#F#G#H#%@O+I#J#K#L#                            M#N#O#P#O     ",
"                            Q#R#S#T#U#V#W#X#Y#Z#`#                            h+ $.$+$      ",
"                            @$#$& & $$%$&$*$=$-$;$                            [+<+>$        ",
"                            ,$'$)$!$~$& {$]$q                                +`.-.          ",
"                            h+^$/$& & & ($_$:$                              <$[$^           ",
"                            }$|$& & 1$2$3$4$                                f+5$6$          ",
"                          7$8$z@& & 9$0$a$                                                  ",
"                            b$c$& & d$e$                                                    ",
"                            f$g$h$i$j$k$                                                    ",
"                              l$m$@$                                                        "};
