/* XPM */
static char * playerTwo01_xpm[] = {
"46 46 622 2",
"  	c None",
". 	c #3A341F",
"+ 	c #413C2C",
"@ 	c #4C4A39",
"# 	c #494637",
"$ 	c #3A3933",
"% 	c #373736",
"& 	c #383837",
"* 	c #373737",
"= 	c #413E32",
"- 	c #4C4C49",
"; 	c #4F4F4E",
"> 	c #4E4E4D",
", 	c #6D6D6D",
"' 	c #7A7A7A",
") 	c #797979",
"! 	c #777777",
"~ 	c #45433F",
"{ 	c #3C3B37",
"] 	c #3A3A3A",
"^ 	c #4E4937",
"/ 	c #464337",
"( 	c #535250",
"_ 	c #6A6A6A",
": 	c #6B6B6B",
"< 	c #828282",
"[ 	c #8B8B8B",
"} 	c #8A8A8A",
"| 	c #929292",
"1 	c #979797",
"2 	c #8D8D8D",
"3 	c #707070",
"4 	c #6C6C6C",
"5 	c #5D5D5D",
"6 	c #666254",
"7 	c #B1B0B0",
"8 	c #676766",
"9 	c #717171",
"0 	c #898989",
"a 	c #888888",
"b 	c #7D7D7D",
"c 	c #7C7C7C",
"d 	c #818181",
"e 	c #7B7B7B",
"f 	c #868686",
"g 	c #696969",
"h 	c #606060",
"i 	c #3F3F3F",
"j 	c #524D3C",
"k 	c #7F7E7C",
"l 	c #646463",
"m 	c #8C8C8C",
"n 	c #858585",
"o 	c #7F7F7F",
"p 	c #848484",
"q 	c #787878",
"r 	c #969696",
"s 	c #767676",
"t 	c #393939",
"u 	c #686456",
"v 	c #7C7C7A",
"w 	c #7E7E7E",
"x 	c #737373",
"y 	c #6F6F6F",
"z 	c #757575",
"A 	c #727272",
"B 	c #878787",
"C 	c #565656",
"D 	c #4A463A",
"E 	c #7E7D7C",
"F 	c #5C5C5C",
"G 	c #616161",
"H 	c #747474",
"I 	c #666666",
"J 	c #838383",
"K 	c #454545",
"L 	c #3E3E3E",
"M 	c #414141",
"N 	c #6E6E6E",
"O 	c #6F6F70",
"P 	c #363636",
"Q 	c #808080",
"R 	c #636363",
"S 	c #4D4C4C",
"T 	c #414140",
"U 	c #515150",
"V 	c #5A5A5A",
"W 	c #5F5F5F",
"X 	c #646465",
"Y 	c #57524E",
"Z 	c #AD8F71",
"` 	c #CBA47E",
" .	c #776757",
"..	c #333437",
"+.	c #383839",
"@.	c #404040",
"#.	c #585859",
"$.	c #676767",
"%.	c #58595A",
"&.	c #4D4841",
"*.	c #DAAF86",
"=.	c #FFD29D",
"-.	c #CEA67F",
";.	c #A1856A",
">.	c #A5886C",
",.	c #A98C6E",
"'.	c #927B64",
").	c #4E4A47",
"!.	c #414241",
"~.	c #424141",
"{.	c #4E4F4F",
"].	c #626262",
"^.	c #646464",
"/.	c #5E5E5E",
"(.	c #3C3C3C",
"_.	c #353535",
":.	c #565653",
"<.	c #5C5C5D",
"[.	c #4E4B48",
"}.	c #8E7761",
"|.	c #E8BB8D",
"1.	c #FFCE9A",
"2.	c #FFD19C",
"3.	c #FFD49E",
"4.	c #FFD39E",
"5.	c #FFD8A1",
"6.	c #EFC191",
"7.	c #957B63",
"8.	c #836F5B",
"9.	c #836E5A",
"0.	c #6B5E52",
"a.	c #464545",
"b.	c #444444",
"c.	c #43423A",
"d.	c #565759",
"e.	c #534C44",
"f.	c #EFBF90",
"g.	c #FFCC99",
"h.	c #FFCF9B",
"i.	c #FFD09B",
"j.	c #CDA67F",
"k.	c #806B58",
"l.	c #685A4D",
"m.	c #3B3936",
"n.	c #42413A",
"o.	c #828383",
"p.	c #716E6A",
"q.	c #85715D",
"r.	c #F4C393",
"s.	c #FFCD99",
"t.	c #FFD29C",
"u.	c #FFCD9A",
"v.	c #FACB98",
"w.	c #F7CC99",
"x.	c #C8A780",
"y.	c #4D463F",
"z.	c #36353A",
"A.	c #46464D",
"B.	c #5C5E60",
"C.	c #766759",
"D.	c #E0B78B",
"E.	c #FECC99",
"F.	c #EBBE91",
"G.	c #DAB48B",
"H.	c #E9BD91",
"I.	c #FDCC99",
"J.	c #F3C595",
"K.	c #E4BD91",
"L.	c #B99A7A",
"M.	c #49443E",
"N.	c #302945",
"O.	c #2B2C6F",
"P.	c #686868",
"Q.	c #5D6062",
"R.	c #766556",
"S.	c #F0C494",
"T.	c #FACD99",
"U.	c #AA9177",
"V.	c #635F5A",
"W.	c #9E8872",
"X.	c #F4C494",
"Y.	c #FECB98",
"Z.	c #FDCB98",
"`.	c #C3A281",
" +	c #726961",
".+	c #5E5954",
"++	c #3A3938",
"@+	c #342C3B",
"#+	c #272873",
"$+	c #4B4B4B",
"%+	c #404346",
"&+	c #736353",
"*+	c #EFC494",
"=+	c #F0C193",
"-+	c #E5B98D",
";+	c #BD9D7E",
">+	c #6E675F",
",+	c #867668",
"'+	c #EDBF91",
")+	c #A48C75",
"!+	c #645F5C",
"~+	c #9D8772",
"{+	c #E9BC90",
"]+	c #BF9D7A",
"^+	c #4A443F",
"/+	c #2D253D",
"(+	c #1E199D",
"_+	c #2B2B6D",
":+	c #6E6054",
"<+	c #C6A17D",
"[+	c #F9C997",
"}+	c #CEA680",
"|+	c #937C65",
"1+	c #B29679",
"2+	c #C8A682",
"3+	c #F6C696",
"4+	c #D5AF87",
"5+	c #B69A7C",
"6+	c #A2886E",
"7+	c #B39373",
"8+	c #CCA67F",
"9+	c #4F4840",
"0+	c #413C60",
"a+	c #333243",
"b+	c #947B62",
"c+	c #FECE9A",
"d+	c #A6896C",
"e+	c #706051",
"f+	c #F1C795",
"g+	c #FFD59F",
"h+	c #FFD39D",
"i+	c #AC8C6F",
"j+	c #796755",
"k+	c #C39E7B",
"l+	c #514A42",
"m+	c #4D493E",
"n+	c #474231",
"o+	c #53513A",
"p+	c #64634F",
"q+	c #474640",
"r+	c #907961",
"s+	c #FBCA98",
"t+	c #FED3A0",
"u+	c #CCAF88",
"v+	c #AB8C6F",
"w+	c #F3C594",
"x+	c #FCCB99",
"y+	c #B59979",
"z+	c #C9AE88",
"A+	c #59554E",
"B+	c #9D9D9A",
"C+	c #ABA9A3",
"D+	c #605C51",
"E+	c #464134",
"F+	c #5A5647",
"G+	c #4F4B3A",
"H+	c #4B4838",
"I+	c #59584B",
"J+	c #6B6B62",
"K+	c #4A4840",
"L+	c #766757",
"M+	c #D0A981",
"N+	c #FBCB99",
"O+	c #FFD8A5",
"P+	c #FCD8A6",
"Q+	c #FAC896",
"R+	c #FFD19D",
"S+	c #FCC997",
"T+	c #FFD39F",
"U+	c #CDB48B",
"V+	c #52524C",
"W+	c #D1D6D7",
"X+	c #F2EEEB",
"Y+	c #C3C2BD",
"Z+	c #BFBEBC",
"`+	c #B8B7B2",
" @	c #A09F97",
".@	c #87847C",
"+@	c #555245",
"@@	c #6A6860",
"#@	c #646257",
"$@	c #68665E",
"%@	c #474743",
"&@	c #7B6855",
"*@	c #F0C18F",
"=@	c #FFCE9B",
"-@	c #F3C393",
";@	c #D4AE85",
">@	c #CFAA82",
",@	c #D0AA82",
"'@	c #E4B98D",
")@	c #F0BF8E",
"!@	c #A0886A",
"~@	c #48626B",
"{@	c #8ECAE2",
"]@	c #F0FDFF",
"^@	c #FEFEFE",
"/@	c #FAFAFA",
"(@	c #FCFCFD",
"_@	c #F6F7F9",
":@	c #A6A49E",
"<@	c #4D4937",
"[@	c #44402F",
"}@	c #75746E",
"|@	c #484433",
"1@	c #6E6C65",
"2@	c #434440",
"3@	c #675A4A",
"4@	c #D0A376",
"5@	c #FCC894",
"6@	c #FECB97",
"7@	c #C39F7B",
"8@	c #6D5F50",
"9@	c #5C5247",
"0@	c #5D5247",
"a@	c #605449",
"b@	c #A78A6C",
"c@	c #FFD19A",
"d@	c #C39E79",
"e@	c #43565C",
"f@	c #1988C3",
"g@	c #6AC9FA",
"h@	c #D9F4FF",
"i@	c #FFFFFF",
"j@	c #C5C5C4",
"k@	c #494432",
"l@	c #504D3D",
"m@	c #6A685F",
"n@	c #6B6961",
"o@	c #646259",
"p@	c #525044",
"q@	c #5F5B56",
"r@	c #695948",
"s@	c #CDA073",
"t@	c #DBAA7A",
"u@	c #F4C18F",
"v@	c #C59F7A",
"w@	c #8C765E",
"x@	c #C49F7A",
"y@	c #D6AD83",
"z@	c #D6AC83",
"A@	c #D5AC82",
"B@	c #D7AB7E",
"C@	c #DFAD7B",
"D@	c #A28262",
"E@	c #2D5365",
"F@	c #48B0E2",
"G@	c #C8F0FF",
"H@	c #F4FAFD",
"I@	c #FFFDFC",
"J@	c #EAEAE8",
"K@	c #B0AEA9",
"L@	c #524F3F",
"M@	c #524F40",
"N@	c #64625A",
"O@	c #615F54",
"P@	c #67655B",
"Q@	c #5E5C56",
"R@	c #584F43",
"S@	c #625446",
"T@	c #675847",
"U@	c #C59B72",
"V@	c #ECB783",
"W@	c #EAB682",
"X@	c #D3A476",
"Y@	c #C2986E",
"Z@	c #E4B17F",
"`@	c #E9B582",
" #	c #AD8A67",
".#	c #615344",
"+#	c #516366",
"@#	c #49A0C5",
"##	c #8FD8F6",
"$#	c #F7F4F4",
"%#	c #CCCDCB",
"&#	c #B5B4B1",
"*#	c #BBBAB6",
"=#	c #939289",
"-#	c #747165",
";#	c #565343",
">#	c #676556",
",#	c #6A684F",
"'#	c #545039",
")#	c #545238",
"!#	c #4F4F36",
"~#	c #424237",
"{#	c #5E5D57",
"]#	c #69655B",
"^#	c #715E4B",
"/#	c #705D4B",
"(#	c #725F4B",
"_#	c #735F4C",
":#	c #705E4C",
"<#	c #7D7D76",
"[#	c #8FA7AE",
"}#	c #BACBCC",
"|#	c #BFDBE4",
"1#	c #C3C5C2",
"2#	c #C8BFB8",
"3#	c #A3A29C",
"4#	c #5B5849",
"5#	c #4D493B",
"6#	c #524E3E",
"7#	c #585447",
"8#	c #484557",
"9#	c #4C4766",
"0#	c #403859",
"a#	c #3B344F",
"b#	c #322D37",
"c#	c #3E385D",
"d#	c #B2A4A4",
"e#	c #ACA7A4",
"f#	c #72838A",
"g#	c #79878B",
"h#	c #7A868B",
"i#	c #72858B",
"j#	c #78878B",
"k#	c #7B878B",
"l#	c #848A8B",
"m#	c #898988",
"n#	c #9D9894",
"o#	c #C7BBB4",
"p#	c #C7BEB5",
"q#	c #AFAAA5",
"r#	c #655E50",
"s#	c #555144",
"t#	c #504B3A",
"u#	c #2C2543",
"v#	c #1A12B4",
"w#	c #120CED",
"x#	c #1416D8",
"y#	c #1415CB",
"z#	c #0D08E1",
"A#	c #1710AD",
"B#	c #6F6D87",
"C#	c #CFCEAE",
"D#	c #FFFEFD",
"E#	c #FAF4F3",
"F#	c #C6C0BA",
"G#	c #BEBAB4",
"H#	c #B3B1AC",
"I#	c #5B5748",
"J#	c #413D2A",
"K#	c #595545",
"L#	c #5A584C",
"M#	c #352C3F",
"N#	c #1411CA",
"O#	c #091FFF",
"P#	c #0F32FD",
"Q#	c #0C28FF",
"R#	c #0E2CFF",
"S#	c #0200BF",
"T#	c #524C6D",
"U#	c #E2E1D4",
"V#	c #FCFDFB",
"W#	c #C1C0B1",
"X#	c #B5B39E",
"Y#	c #C0BFB9",
"Z#	c #B8B7B4",
"`#	c #6C695F",
" $	c #413D2E",
".$	c #555141",
"+$	c #2A2249",
"@$	c #1217CC",
"#$	c #0B2BFF",
"$$	c #1039FF",
"%$	c #113BFF",
"&$	c #0E31FF",
"*$	c #0E12D8",
"=$	c #423D60",
"-$	c #ABA88B",
";$	c #B5B5A5",
">$	c #59555C",
",$	c #454078",
"'$	c #484236",
")$	c #4B4634",
"!$	c #3E383D",
"~$	c #383AD7",
"{$	c #1A3AFF",
"]$	c #082DFF",
"^$	c #1139FF",
"/$	c #0D26F6",
"($	c #181CA6",
"_$	c #3F3575",
":$	c #423B90",
"<$	c #1810BE",
"[$	c #130B9C",
"}$	c #28221A",
"|$	c #6A654E",
"1$	c #857DCA",
"2$	c #393CFF",
"3$	c #0323FF",
"4$	c #0F36FF",
"5$	c #1037FF",
"6$	c #0E32FF",
"7$	c #0C22FF",
"8$	c #1116DA",
"9$	c #0B0CE6",
"0$	c #130BD7",
"a$	c #282078",
"b$	c #686541",
"c$	c #C4BFDA",
"d$	c #6164FF",
"e$	c #0F23FF",
"f$	c #0D34FF",
"g$	c #123AFF",
"h$	c #103AFF",
"i$	c #103DFF",
"j$	c #0D2DFF",
"k$	c #0F22F2",
"l$	c #1918C5",
"m$	c #312A4D",
"n$	c #636048",
"o$	c #D7D5CB",
"p$	c #B2AEFF",
"q$	c #3637FF",
"r$	c #0221FF",
"s$	c #0F39FF",
"t$	c #1036FF",
"u$	c #0C25FF",
"v$	c #1B20B0",
"w$	c #2A266A",
"x$	c #757267",
"y$	c #BDBBAD",
"z$	c #D4CFF1",
"A$	c #696BFF",
"B$	c #0010FF",
"C$	c #0A2FFF",
"D$	c #0F31FD",
"E$	c #131CE3",
"F$	c #312A48",
"G$	c #656247",
"H$	c #DEDBE0",
"I$	c #B7B3FF",
"J$	c #2F31FF",
"K$	c #0826FF",
"L$	c #1026EF",
"M$	c #1C1AB7",
"N$	c #2D1E67",
"O$	c #645F4E",
"P$	c #D9D7CE",
"Q$	c #E9E7FF",
"R$	c #5B56FF",
"S$	c #0719FF",
"T$	c #0C27F9",
"U$	c #1719C2",
"V$	c #2F2C58",
"W$	c #514C3E",
"X$	c #D0CEC9",
"Y$	c #C6C6FF",
"Z$	c #3236FF",
"`$	c #0F12D8",
" %	c #281F7B",
".%	c #585443",
"+%	c #D7D6D2",
"@%	c #FFFFF8",
"#%	c #C0BDDC",
"$%	c #322FFA",
"%%	c #1A14AD",
"&%	c #2D246A",
"*%	c #6C6A5B",
"=%	c #D7D7D3",
"-%	c #D2D1CE",
";%	c #5F5A78",
">%	c #1F1796",
",%	c #231B5C",
"'%	c #545040",
")%	c #EBEAE8",
"!%	c #CBCBBF",
"~%	c #49453F",
"{%	c #312D3A",
"]%	c #403B30",
"^%	c #433F18",
"/%	c #3B3727",
"(%	c #3F3A2A",
"_%	c #595444",
":%	c #C1BEB9",
"<%	c #9F9C94",
"[%	c #514E3B",
"}%	c #57554E",
"|%	c #66645D",
"1%	c #62615E",
"2%	c #636361",
"3%	c #62615C",
"4%	c #5E5B56",
"5%	c #504D40",
"6%	c #443F2E",
"7%	c #454131",
"8%	c #3F3B29",
"9%	c #474435",
"0%	c #4C4836",
"a%	c #514D40",
"b%	c #62615B",
"c%	c #919194",
"d%	c #8C8C8E",
"e%	c #909092",
"f%	c #8C8D90",
"g%	c #929395",
"h%	c #7B7B76",
"i%	c #605F5C",
"j%	c #53514A",
"k%	c #504F45",
"l%	c #5C5B57",
"m%	c #535048",
"n%	c #545144",
"o%	c #807F7B",
"p%	c #83817E",
"q%	c #7D7C77",
"r%	c #82817E",
"s%	c #838380",
"t%	c #72716B",
"u%	c #535045",
"v%	c #393521",
"w%	c #49463A",
"x%	c #413E2E",
"y%	c #403C2B",
"z%	c #36301A",
"A%	c #4C4839",
"B%	c #423E2C",
"C%	c #4A4635",
"D%	c #4C4837",
"E%	c #4A4636",
"          . + @ # $ % & & * * *                                                             ",
"          = - ; > , ' ) ' ' ' ! ~ { ]                                                       ",
"      ^ / ( _ : : < [ } | 1 2 } 3 : 4 5 ]                                                   ",
"    6 7 8 9 0 [ 0 a b c a d e f 0 [ [ c g h i                                               ",
"    j k l m ' ' n 0 o b p ) ' f c q ! p r s t                                               ",
"    u v 5 p s 3 n w ! ! x y z q , A c B 0 A C                                               ",
"    D E F ! A G H ' q ! , I H ! h 4 p a q c J K                                             ",
"  L M N J ! H x O N 9 H A 3 H ! H z q ) q e x i                                             ",
"P 9 a Q c N R , S T U F V V W x s s s s Q [ H i                                             ",
"* e | e ! H X Y Z `  ...] +.@.#.5 5 5 $.) o A i                                             ",
"P 4 d s q A %.&.*.=.-.;.>.,.'.).!.!.~.{.].^./.(.                                            ",
"_.:.H o A <.[.}.|.1.2.3.4.5.6.7.8.8.9.0.a.b.b.*                                             ",
"  c.I m b d.e.f.1.g.g.g.g.g.g.h.i.i.h.j.k.l.m.                                              ",
"  n.C d o.p.q.r.s.g.h.t.i.g.g.u.u.u.u.v.w.x.y.                                              ",
"  z.A.N B.C.D.E.g.E.F.G.H.I.1.g.g.s.1.J.K.L.M.                                              ",
"  N.O.P.Q.R.S.u.g.T.U.V.W.X.g.E.g.Y.Z.`. +.+++                                              ",
"  @+#+$+%+&+*+u.g.E.=+-+;+>+,+'+u.)+!+~+{+]+^+                                              ",
"  /+(+_+:+<+[+g.g.g.E.}+|+1+2+3+s.4+5+6+7+8+9+                                              ",
"    0+a+b+c+u.g.g.g.Z.d+e+f+g+s.g.2.h+i+j+k+l+m+n+                                          ",
"  o+p+q+r+s+u.g.g.g.t+u+v+w+u.g.g.g.x+` y+z+A+B+C+D+E+F+G+                                  ",
"H+I+J+K+L+M+N+g.g.g.O+P+Q+s.2.=.=.R+h.S+T+U+V+W+X+Y+Z+`+ @.@                                ",
"+@@@#@$@%@&@*@g.g.g.u.=@h.-@;@>@>@,@'@h.)@!@~@{@]@^@/@(@_@:@<@                              ",
"[@}@|@1@2@3@4@5@6@g.g.g.S+7@8@9@0@a@b@c@d@e@f@g@h@i@i@i@i@j@k@                              ",
"l@m@n@o@p@q@r@s@t@u@Y.Y.v@w@x@y@z@A@B@C@D@E@F@G@H@I@i@i@J@K@L@                              ",
"M@+@N@O@P@Q@R@S@T@U@V@W@X@Y@Z@V@V@`@ #.#+#@###i@$#%#&#*#=#-#                                ",
"  ;#>#,#'#)#!#~#{#]#^#/#(#_#^#/#/#:#<#[#}#|#1#2#3#4#5#6#7#                                  ",
"    8#9#0#a#b#c#d#e#f#g#h#i#j#k#l#m#n#o#p#q#r#s#t#                                          ",
"  u#v#w#x#y#z#A#B#C#i@I@i@D#E#F#G#H#I#J#K#L#                                                ",
"  M#N#O#P#Q#R#S#T#U#V#W#X#Y#Z#`# $.$                                                        ",
"  +$@$#$$$%$&$*$=$-$;$>$,$'$)$                                                              ",
"  !$~${$]$^$$$/$($_$:$<$[$}$                                                                ",
"  |$1$2$3$4$5$6$7$8$9$0$a$                                                                  ",
"  b$c$d$e$f$g$h$i$j$k$l$m$                                                                  ",
"  n$o$p$q$r$s$t$$$u$v$w$                                                                    ",
"  x$y$z$A$B$C$$$D$E$F$                                                                      ",
"    G$H$I$J$K$s$L$M$N$                                                                      ",
"    O$P$Q$R$S$T$U$V$                                                                        ",
"    W$X$i@Y$Z$`$ %                                                                          ",
"    .%+%@%#%$%%%&%                                                                          ",
"    *%=%-%;%>%,%                                                                            ",
"    '%)%!%~%{%]%^%/% $(%                                                                    ",
"    _%:%<%[%}%|%1%2%3%4%5%6%[@7%8%9%                                                        ",
"      0%a%b%b c%d%e%f%g%h%i%j%k%l%m%8%                                                      ",
"          n%}@o%p%q%r%s%t%u%v%w%x%y%                                                        ",
"          z%J#A%B%C%D%J#E%                                                                  ",
"                                                                                            "};
