/* XPM */
static char * playerTwo16_xpm[] = {
"46 46 512 2",
"  	c None",
". 	c #2D2812",
"+ 	c #474331",
"@ 	c #4E4A39",
"# 	c #514D3C",
"$ 	c #A2A19C",
"% 	c #D7D8D9",
"& 	c #CECDCB",
"* 	c #A1A09A",
"= 	c #312C17",
"- 	c #5D594A",
"; 	c #F5F5F6",
"> 	c #FFFFFF",
", 	c #DDDDDF",
"' 	c #545040",
") 	c #2F2914",
"! 	c #AAA9A5",
"~ 	c #FAFAFB",
"{ 	c #F0F1F2",
"] 	c #93918A",
"^ 	c #221C05",
"/ 	c #636052",
"( 	c #E1E2E3",
"_ 	c #FDFDFD",
": 	c #CCCCCC",
"< 	c #737064",
"[ 	c #494433",
"} 	c #413D2C",
"| 	c #4D4A3F",
"1 	c #342F18",
"2 	c #38331E",
"3 	c #BBBBBA",
"4 	c #FAFAFA",
"5 	c #F5F6F9",
"6 	c #86847B",
"7 	c #29230D",
"8 	c #3E3928",
"9 	c #666667",
"0 	c #393420",
"a 	c #231D06",
"b 	c #9B9992",
"c 	c #FBFCFD",
"d 	c #FBFEFF",
"e 	c #A3E2FF",
"f 	c #FFFDFB",
"g 	c #BFBFBE",
"h 	c #3A3521",
"i 	c #36301A",
"j 	c #5B5A55",
"k 	c #49463A",
"l 	c #E1E1E4",
"m 	c #00ABFF",
"n 	c #1BB7FF",
"o 	c #B5EAFF",
"p 	c #D2EAF5",
"q 	c #EDE5E2",
"r 	c #78766B",
"s 	c #28220C",
"t 	c #454233",
"u 	c #5E5E5B",
"v 	c #35301A",
"w 	c #2F2A15",
"x 	c #A6A5A1",
"y 	c #FFFCF5",
"z 	c #6ED3FF",
"A 	c #00A0F3",
"B 	c #0095DD",
"C 	c #00ACFF",
"D 	c #35C2FF",
"E 	c #FFFFFA",
"F 	c #B8B7B5",
"G 	c #35301B",
"H 	c #5F5F5E",
"I 	c #474334",
"J 	c #484433",
"K 	c #6C685B",
"L 	c #D8E9F2",
"M 	c #07B2FF",
"N 	c #019FE8",
"O 	c #0078AE",
"P 	c #007AB1",
"Q 	c #00A8F9",
"R 	c #E4F9FF",
"S 	c #E3E0E0",
"T 	c #545141",
"U 	c #312C14",
"V 	c #565347",
"W 	c #97989A",
"X 	c #777570",
"Y 	c #322D17",
"Z 	c #3E3926",
"` 	c #C9C9C9",
" .	c #1AB9FF",
"..	c #0080BC",
"+.	c #0078AD",
"@.	c #0076AB",
"#.	c #0091DA",
"$.	c #74D9FF",
"%.	c #FFFAF5",
"&.	c #C4C3C0",
"*.	c #9E9D97",
"=.	c #302B16",
"-.	c #56544D",
";.	c #8C8C8C",
">.	c #8F8F8F",
",.	c #413C2A",
"'.	c #2A250F",
").	c #8D8B83",
"!.	c #FFF5F0",
"~.	c #92E2FF",
"{.	c #0096E3",
"].	c #0079AF",
"^.	c #007FB9",
"/.	c #0BB3FF",
"(.	c #FEFFFF",
"_.	c #DBDCDD",
":.	c #504C3B",
"<.	c #36301B",
"[.	c #575651",
"}.	c #808081",
"|.	c #949496",
"1.	c #636056",
"2.	c #302A14",
"3.	c #D9D7D8",
"4.	c #F6FDFF",
"5.	c #01AEFE",
"6.	c #007CB5",
"7.	c #0079B0",
"8.	c #0076AC",
"9.	c #009CED",
"0.	c #A9E7FF",
"a.	c #F0FDFF",
"b.	c #FAF2F0",
"c.	c #929189",
"d.	c #666255",
"e.	c #2D2711",
"f.	c #433F31",
"g.	c #6F6F71",
"h.	c #8F8F90",
"i.	c #878786",
"j.	c #38331F",
"k.	c #262009",
"l.	c #B2B1AD",
"m.	c #FFFFFC",
"n.	c #5DCFFF",
"o.	c #008ED5",
"p.	c #007FBB",
"q.	c #0189C7",
"r.	c #0CB5FF",
"s.	c #FFFFFE",
"t.	c #DCDDDF",
"u.	c #484332",
"v.	c #332E2E",
"w.	c #322D43",
"x.	c #3D380D",
"y.	c #332C40",
"z.	c #5E5D5B",
"A.	c #868687",
"B.	c #939495",
"C.	c #535042",
"D.	c #696659",
"E.	c #ECEDEF",
"F.	c #DDF6FF",
"G.	c #009CE8",
"H.	c #009FF0",
"I.	c #BCEBFF",
"J.	c #EBECED",
"K.	c #86846F",
"L.	c #1C1572",
"M.	c #0F06FF",
"N.	c #140BE1",
"O.	c #110FF3",
"P.	c #21169A",
"Q.	c #3A351C",
"R.	c #2C2464",
"S.	c #393322",
"T.	c #403C00",
"U.	c #36310F",
"V.	c #4A483E",
"W.	c #767778",
"X.	c #959596",
"Y.	c #7E7E7A",
"Z.	c #342F1A",
"`.	c #3F3A27",
" +	c #CACACA",
".+	c #FFFEFD",
"++	c #47C7FF",
"@+	c #007EBB",
"#+	c #0077AD",
"$+	c #0089CD",
"%+	c #46C8FF",
"&+	c #BCBCBA",
"*+	c #37321F",
"=+	c #2018AD",
"-+	c #0F05F1",
";+	c #0F32FF",
">+	c #0C25FF",
",+	c #1015F5",
"'+	c #0809FF",
")+	c #131AE7",
"!+	c #1D13B0",
"~+	c #2A226D",
"{+	c #1B14B9",
"]+	c #353032",
"^+	c #3D381E",
"/+	c #666666",
"(+	c #4F4C3E",
"_+	c #1F1902",
":+	c #8C8A82",
"<+	c #FFFBF6",
"[+	c #88DDFF",
"}+	c #0095E2",
"|+	c #00A9FB",
"1+	c #E5F7FF",
"2+	c #F4F4F4",
"3+	c #E0E0E0",
"4+	c #828052",
"5+	c #1D116D",
"6+	c #0C15FF",
"7+	c #103AFE",
"8+	c #1035FF",
"9+	c #103AFF",
"0+	c #1037FF",
"a+	c #0200FF",
"b+	c #0000FF",
"c+	c #251F2E",
"d+	c #312C15",
"e+	c #58564D",
"f+	c #383423",
"g+	c #CFCFCE",
"h+	c #F2FBFF",
"i+	c #00AEFE",
"j+	c #007CB4",
"k+	c #007AB0",
"l+	c #0090DC",
"m+	c #6DD6FF",
"n+	c #A19F99",
"o+	c #1A11B3",
"p+	c #1036FF",
"q+	c #103BFF",
"r+	c #101AFF",
"s+	c #2B20FF",
"t+	c #CBC9FF",
"u+	c #B8B6A9",
"v+	c #68654B",
"w+	c #B4B4B1",
"x+	c #C6C5C4",
"y+	c #2F2913",
"z+	c #352F1A",
"A+	c #BAB9B8",
"B+	c #F8F9F9",
"C+	c #59CEFF",
"D+	c #008CD3",
"E+	c #0077AC",
"F+	c #008AC9",
"G+	c #97CFEB",
"H+	c #BFBDAB",
"I+	c #625E3B",
"J+	c #2F291E",
"K+	c #1017ED",
"L+	c #0B1DFF",
"M+	c #4F49FF",
"N+	c #FEFEFE",
"O+	c #EEEFF1",
"P+	c #FCFCFC",
"Q+	c #5E5A49",
"R+	c #433F2F",
"S+	c #3A3519",
"T+	c #2A2433",
"U+	c #7B7860",
"V+	c #E8E8EA",
"W+	c #CEF1FF",
"X+	c #00A3F6",
"Y+	c #0174A9",
"Z+	c #0074A8",
"`+	c #00A0EC",
" @	c #6A726D",
".@	c #A9A7A2",
"+@	c #5D5973",
"@@	c #0E04C0",
"#@	c #0D03FF",
"$@	c #0D21FF",
"%@	c #BAB6FF",
"&@	c #D0CFCA",
"*@	c #747062",
"=@	c #36301C",
"-@	c #646464",
";@	c #322C44",
">@	c #0B02FF",
",@	c #373213",
"'@	c #CBCBCB",
")@	c #42C3FF",
"!@	c #15A8EB",
"~@	c #0089CC",
"{@	c #0088C9",
"]@	c #00A5F8",
"^@	c #2E95C5",
"/@	c #726056",
"(@	c #57564B",
"_@	c #27212F",
":@	c #0B03FF",
"<@	c #1025FF",
"[@	c #0800FF",
"}@	c #3D34FF",
"|@	c #E5E4FF",
"1@	c #F8F8F8",
"2@	c #A7A59C",
"3@	c #534E3D",
"4@	c #36311C",
"5@	c #2A216E",
"6@	c #160DD6",
"7@	c #0E05F6",
"8@	c #6B6874",
"9@	c #F0F0F0",
"0@	c #F3E9E4",
"a@	c #707F7E",
"b@	c #467A93",
"c@	c #16B1F9",
"d@	c #60A1C0",
"e@	c #6E6C63",
"f@	c #676769",
"g@	c #433F1C",
"h@	c #180CC8",
"i@	c #0E24FF",
"j@	c #1039FF",
"k@	c #1038FF",
"l@	c #0005FF",
"m@	c #2E26FF",
"n@	c #231E07",
"o@	c #3F3B00",
"p@	c #1B1BBB",
"q@	c #0B17FF",
"r@	c #170CA0",
"s@	c #6C6A2D",
"t@	c #E8E9EC",
"u@	c #DBDAD0",
"v@	c #878465",
"w@	c #403C2E",
"x@	c #898483",
"y@	c #89817A",
"z@	c #615443",
"A@	c #3B3521",
"B@	c #4B4736",
"C@	c #5D5B51",
"D@	c #37320F",
"E@	c #281F5A",
"F@	c #0C0CFF",
"G@	c #0E05FF",
"H@	c #645BFF",
"I@	c #DAD9FF",
"J@	c #EEEDEA",
"K@	c #969489",
"L@	c #616161",
"M@	c #3E3927",
"N@	c #0A10FF",
"O@	c #0E05FE",
"P@	c #251C79",
"Q@	c #4E493E",
"R@	c #29232A",
"S@	c #0F0694",
"T@	c #2C2668",
"U@	c #514F38",
"V@	c #5D5C57",
"W@	c #38321D",
"X@	c #5E5B50",
"Y@	c #878685",
"Z@	c #82817F",
"`@	c #575447",
" #	c #4D4A37",
".#	c #150AF1",
"+#	c #0E28FF",
"@#	c #0C1BFF",
"##	c #8A87C3",
"$#	c #7C785C",
"%#	c #211C05",
"&#	c #332D17",
"*#	c #676661",
"=#	c #5E5C51",
"-#	c #342E1A",
";#	c #2A2170",
">#	c #1508D8",
",#	c #0F31FF",
"'#	c #0C21FF",
")#	c #1118E6",
"!#	c #0C03FF",
"~#	c #0B11FF",
"{#	c #150AD1",
"]#	c #403C1A",
"^#	c #454234",
"/#	c #8D8D8D",
"(#	c #706F68",
"_#	c #44402F",
":#	c #67655C",
"<#	c #524E3F",
"[#	c #57553A",
"}#	c #272096",
"|#	c #221797",
"1#	c #332D3A",
"2#	c #3A350E",
"3#	c #484333",
"4#	c #98999B",
"5#	c #8B8B8A",
"6#	c #646465",
"7#	c #3B3623",
"8#	c #3F3B01",
"9#	c #1B1ABD",
"0#	c #0D2AFF",
"a#	c #0C07FF",
"b#	c #312B43",
"c#	c #605D4A",
"d#	c #585549",
"e#	c #4A4636",
"f#	c #797874",
"g#	c #68665D",
"h#	c #504C3D",
"i#	c #7E7D76",
"j#	c #393421",
"k#	c #3E3907",
"l#	c #7D7C78",
"m#	c #919292",
"n#	c #757577",
"o#	c #342E18",
"p#	c #322B42",
"q#	c #0D1CFF",
"r#	c #1C11A6",
"s#	c #5B593D",
"t#	c #848482",
"u#	c #545143",
"v#	c #838381",
"w#	c #413D2B",
"x#	c #565345",
"y#	c #949495",
"z#	c #858586",
"A#	c #5C5C59",
"B#	c #37321D",
"C#	c #292372",
"D#	c #150BDA",
"E#	c #0F30FF",
"F#	c #113DFF",
"G#	c #1139FF",
"H#	c #0F06FD",
"I#	c #545253",
"J#	c #7F7E79",
"K#	c #4B4738",
"L#	c #7A7975",
"M#	c #514E3F",
"N#	c #898988",
"O#	c #6E6E6F",
"P#	c #423E30",
"Q#	c #3B360A",
"R#	c #140BC8",
"S#	c #1921FF",
"T#	c #0509FF",
"U#	c #0624FF",
"V#	c #0006FF",
"W#	c #0316FF",
"X#	c #0F34FF",
"Y#	c #0C19FF",
"Z#	c #0900FF",
"`#	c #211B66",
" $	c #48442C",
".$	c #565346",
"+$	c #6B6961",
"@$	c #423E2C",
"#$	c #66635A",
"$$	c #7F7F80",
"%$	c #58564C",
"&$	c #2E2846",
"*$	c #150CE9",
"=$	c #B9B6FF",
"-$	c #7269FF",
";$	c #E4E2FF",
">$	c #5249FF",
",$	c #A199FF",
"'$	c #5651FF",
")$	c #5649FF",
"!$	c #7271FF",
"~$	c #0000F1",
"{$	c #231990",
"]$	c #352F35",
"^$	c #3D390C",
"/$	c #433F2D",
"($	c #969698",
"_$	c #8B8B8B",
":$	c #4D4B43",
"<$	c #302B14",
"[$	c #433E1E",
"}$	c #EDEDDD",
"|$	c #FBFBF6",
"1$	c #E7E7CD",
"2$	c #7B7766",
"3$	c #39341E",
"4$	c #3E3906",
"5$	c #342E19",
"6$	c #4E4A3A",
"7$	c #5A5954",
"8$	c #5C5A4F",
"9$	c #ACAAA7",
"0$	c #D3D4D5",
"a$	c #D0CFCB",
"b$	c #AAA8A0",
"c$	c #575242",
"d$	c #2B2611",
"e$	c #4B4634",
"f$	c #FCFCFB",
"g$	c #ADABA3",
"h$	c #55513F",
"i$	c #2B2510",
"j$	c #29240E",
"k$	c #7D7A6C",
"l$	c #3D3825",
"m$	c #241E08",
"                              . + @                                                         ",
"                            # $ % & * =                                                     ",
"                            - ; > > , '                                                     ",
"                          ) ! ~ > > { ] ^                                                   ",
"                            / ( > > _ : < [                                 } | 1           ",
"                            2 3 4 > > > 5 6 7                               8 9 0           ",
"                            a b c d e > f g h                               i j k           ",
"                            @ l > > m n o p q r s                             t u v         ",
"                            w x y z A B C D E F G                             2 H I J       ",
"                              K L M N O P Q R S T                             U V W X Y     ",
"                            Z ` >  ...+.@.#.$.%.&.*.=.                          -.;.>.,.    ",
"                            '.).!.~.{.@.].^./.(.> _.:.                        <.[.}.|.1.2.  ",
"                              :.3.4.5.6.7.8.9.0.a.b.c.d.e.                      f.g.h.i.j.  ",
"                              k.l.m.n.o.@.O p.q.r.s.> t.u.v.w.x.y.              2 z.A.B.C.  ",
"                              D.E.> F.G.7.P P @.H.I.> J.K.L.M.N.O.P.Q.R.S.  T.  U.V.W.X.Y.Z.",
"                              `. +.+++@++.P P #+$+%+> ~ &+*+=+-+;+>+,+'+)+!+~+{+]+^+/+}.(+2 ",
"                              _+:+<+[+}+@.P P P P |+1+> 2+3+4+5+6+7+8+9+0+8+a+b+M.c+d+e+f+  ",
"                              :.g+> h+i+j+k+P P @.l+m+> > > n+o+p+p+p+p+q+r+s+t+u+v+w+x+y+  ",
"                              z+A+B+> C+D+E+P P O F+G+> H+I+J+K+0+p+p+8+L+b+M+> N+O+> P+Q+  ",
"  j.R+                      S+T+U+V+> W+X+Y+P +.Z+`+ @.@+@@@#@$@0+p+9+p+a+%@> > > &@*@=@    ",
"  } -@2                   T.;@>@,@'@N+> )@!@~@{@]@^@/@(@_@:@p+9+p+0+<@[@}@|@1@2@3@'.        ",
"  4@u t                   5@6@7@8@9@> > 0@a@b@c@d@;.e@f@g@h@i@j@k@p+l@m@> > 0 n@            ",
"    k j i               o@p@q@r@s@t@u@v@` w@x@y@z@A@B@C@D@E@F@9+0+G@H@I@J@K@                ",
"    0 L@M@            T.y.N@p+O@P@Q@R@S@T@U@V@W@X@Y@Z@`@;. #.#+#@#b+##$#Z.%#                ",
"    &#*#=#-#          ;#>#,#j@k@'#)#!#~#{#]#^#/#(#_#M@:#<#[#}##@|#1#2#                      ",
"    3#4#5#6#7#      8#9#0#0+p+p+0+0+p+q+a#b#c#d#e#f#5#g#h#i#  j#k#                          ",
"    Z.l#m#n#k o#  T.p#N@j@p+p+p+p+p+p+j@q#r#s#B@t#u#0 u#v#w#                                ",
"      x#y#z#A#B#  C#D#E#F#p+G#k@0+k@p+k@p+H#I#J#K#g#5#L#M#4@                                ",
"      h N#>.O#P#Q#R#b+S#l@T#U#V#p+W#X#E#Y#Z#`# $.$+$@$Y                                     ",
"      2.#$y#$$%$&$*$=$> -$;$>$,$'$)$!$~${$]$^$    2.                                        ",
"        /$($_$:$<$[$}$> > > |$> > 1$2$3$4$                                                  ",
"        5$6$7$8$9$0$> > a$*@0 b$c$d$                                                        ",
"          Z.  e$> f$g$h$i$                                                                  ",
"              j$k$l$m$                                                                      ",
"                                                                                            ",
"                                                                                            ",
"                                                                                            ",
"                                                                                            ",
"                                                                                            ",
"                                                                                            ",
"                                                                                            ",
"                                                                                            ",
"                                                                                            ",
"                                                                                            ",
"                                                                                            ",
"                                                                                            "};
