/* XPM */
static char * playerTwo08_xpm[] = {
"46 46 670 2",
"  	c None",
". 	c #3E3A27",
"+ 	c #474436",
"@ 	c #423F2F",
"# 	c #464335",
"$ 	c #504D44",
"% 	c #5C5B57",
"& 	c #4E4D43",
"* 	c #3E3B29",
"= 	c #4C493C",
"- 	c #5B584C",
"; 	c #474332",
"> 	c #423D2A",
", 	c #413D2C",
"' 	c #423E2D",
") 	c #4A473A",
"! 	c #54524C",
"~ 	c #646460",
"{ 	c #7E7E7A",
"] 	c #848482",
"^ 	c #6E6C64",
"/ 	c #545142",
"( 	c #3F3B28",
"_ 	c #433F2D",
": 	c #423D2B",
"< 	c #535043",
"[ 	c #7B7A77",
"} 	c #929396",
"| 	c #8D8D8F",
"1 	c #848380",
"2 	c #787670",
"3 	c #5E5B50",
"4 	c #423E2B",
"5 	c #332D16",
"6 	c #534F47",
"7 	c #676662",
"8 	c #7D7E7F",
"9 	c #8B8B8D",
"0 	c #929294",
"a 	c #868584",
"b 	c #656359",
"c 	c #433F2C",
"d 	c #3E3928",
"e 	c #454134",
"f 	c #4F4E45",
"g 	c #61605C",
"h 	c #777673",
"i 	c #797877",
"j 	c #676661",
"k 	c #4F4B40",
"l 	c #3C3812",
"m 	c #444021",
"n 	c #4A473D",
"o 	c #4C4940",
"p 	c #5C5948",
"q 	c #6E6A5F",
"r 	c #4F4B39",
"s 	c #261F4F",
"t 	c #241E5A",
"u 	c #373239",
"v 	c #8F8E81",
"w 	c #D4D2CD",
"x 	c #959187",
"y 	c #282078",
"z 	c #1C15AD",
"A 	c #2C26C5",
"B 	c #65607C",
"C 	c #CBCAC5",
"D 	c #EFEEEC",
"E 	c #686557",
"F 	c #322F4A",
"G 	c #241E8A",
"H 	c #1415BA",
"I 	c #1B1CF1",
"J 	c #7E7DFC",
"K 	c #E3E1E5",
"L 	c #F1F1EA",
"M 	c #BCBCB5",
"N 	c #625F50",
"O 	c #2A1E73",
"P 	c #1D1DB0",
"Q 	c #121EDF",
"R 	c #0C28FA",
"S 	c #121FFF",
"T 	c #A1A1FF",
"U 	c #FEFEFF",
"V 	c #E9E8E3",
"W 	c #7B786B",
"X 	c #2C2760",
"Y 	c #2A2767",
"Z 	c #1D20AF",
"` 	c #1024F4",
" .	c #0F34FE",
"..	c #0A32FF",
"+.	c #1021FF",
"@.	c #736DFF",
"#.	c #F6F4FA",
"$.	c #C9C6BE",
"%.	c #504B3C",
"&.	c #5B574B",
"*.	c #4D4939",
"=.	c #2C2568",
"-.	c #1A1BC0",
";.	c #1422D8",
">.	c #0C26FF",
",.	c #1036FF",
"'.	c #1038FF",
").	c #0B32FF",
"!.	c #0918FF",
"~.	c #817FFF",
"{.	c #E5E1F5",
"].	c #9D9A8A",
"^.	c #56513F",
"/.	c #5C5A4B",
"(.	c #89867C",
"_.	c #929188",
":.	c #8C8A80",
"<.	c #5C594C",
"[.	c #4C4939",
"}.	c #696658",
"|.	c #575244",
"1.	c #4E4839",
"2.	c #6A655A",
"3.	c #585548",
"4.	c #28220C",
"5.	c #1D1577",
"6.	c #1A11B6",
"7.	c #0B0CEC",
"8.	c #0B1FF9",
"9.	c #0E34FF",
"0.	c #113DFF",
"a.	c #1037FF",
"b.	c #0B34FF",
"c.	c #0116FF",
"d.	c #696BFF",
"e.	c #D9D4EE",
"f.	c #817F68",
"g.	c #3B3521",
"h.	c #85837A",
"i.	c #DDDCDB",
"j.	c #F1F1F0",
"k.	c #E7E7E6",
"l.	c #C5C5C3",
"m.	c #B9B9B4",
"n.	c #CBC9C6",
"o.	c #C8BFB8",
"p.	c #A19A90",
"q.	c #B2B1AE",
"r.	c #B9B0A6",
"s.	c #827869",
"t.	c #504B3B",
"u.	c #838076",
"v.	c #696558",
"w.	c #494537",
"x.	c #716F65",
"y.	c #585342",
"z.	c #393333",
"A.	c #1F1894",
"B.	c #1911BC",
"C.	c #2721AC",
"D.	c #1917C1",
"E.	c #0C21FE",
"F.	c #0F36FF",
"G.	c #123AFF",
"H.	c #0D35FF",
"I.	c #0E23FF",
"J.	c #6A66FF",
"K.	c #D6D2EE",
"L.	c #B2B09F",
"M.	c #726F65",
"N.	c #4D4937",
"O.	c #ADACA7",
"P.	c #FBFBFC",
"Q.	c #FFFFFF",
"R.	c #FAF9F9",
"S.	c #DCF3FC",
"T.	c #9FD3E6",
"U.	c #B1D5E1",
"V.	c #C1CECE",
"W.	c #BCBEBE",
"X.	c #9D9894",
"Y.	c #9C9D9C",
"Z.	c #BBBAB7",
"`.	c #BBB4AD",
" +	c #D2CDCA",
".+	c #CBCAC7",
"++	c #999790",
"@+	c #6A6772",
"#+	c #797676",
"$+	c #89858C",
"%+	c #463E74",
"&+	c #111BC3",
"*+	c #0E2FFE",
"=+	c #0621FF",
"-+	c #545AFF",
";+	c #CCC9EB",
">+	c #89866E",
",+	c #A3A19B",
"'+	c #F4F5F7",
")+	c #E5F7FF",
"!+	c #BFEDFF",
"~+	c #6BC8F3",
"{+	c #3A8EB3",
"]+	c #487383",
"^+	c #5F6867",
"/+	c #7D837F",
"(+	c #766F64",
"_+	c #6E665E",
":+	c #7B8080",
"<+	c #8A969A",
"[+	c #CFD2D5",
"}+	c #FEFDFD",
"|+	c #F5F4E9",
"1+	c #D5D4C4",
"2+	c #EDEEE9",
"3+	c #DEDEC2",
"4+	c #6E6965",
"5+	c #1B1DAB",
"6+	c #0D2AFC",
"7+	c #113BFF",
"8+	c #0C33FF",
"9+	c #0A26FF",
"0+	c #4E4CFA",
"a+	c #ACA5C9",
"b+	c #676440",
"c+	c #767367",
"d+	c #AAA9A2",
"e+	c #D6D6D4",
"f+	c #F0EFEE",
"g+	c #C6EEFE",
"h+	c #51B8ED",
"i+	c #1A86BF",
"j+	c #354C57",
"k+	c #A28262",
"l+	c #AC8560",
"m+	c #B08A65",
"n+	c #D5A779",
"o+	c #AA8561",
"p+	c #77614C",
"q+	c #675F54",
"r+	c #666F6F",
"s+	c #798A90",
"t+	c #B7C0C5",
"u+	c #F1F2F3",
"v+	c #D8D7C4",
"w+	c #514B6D",
"x+	c #0705C1",
"y+	c #0D2CFC",
"z+	c #0D36FF",
"A+	c #1035FF",
"B+	c #3A44F1",
"C+	c #676188",
"D+	c #686340",
"E+	c #474230",
"F+	c #5A5648",
"G+	c #6D6960",
"H+	c #A8A6A0",
"I+	c #F2EFEB",
"J+	c #CCE7F1",
"K+	c #598191",
"L+	c #58696A",
"M+	c #927E66",
"N+	c #E4B787",
"O+	c #EEBF8B",
"P+	c #CFA67C",
"Q+	c #E3B688",
"R+	c #F3BE8A",
"S+	c #EDB883",
"T+	c #C0956C",
"U+	c #85694F",
"V+	c #6D5E4E",
"W+	c #666662",
"X+	c #6A7A7F",
"Y+	c #A9AEAB",
"Z+	c #AEAA9D",
"`+	c #46428F",
" @	c #0503D0",
".@	c #0E28FF",
"+@	c #0D2DFF",
"@@	c #0B2AFF",
"#@	c #1A20D6",
"$@	c #352F4C",
"%@	c #69655B",
"&@	c #C3C0BC",
"*@	c #C1C1BF",
"=@	c #52524C",
"-@	c #B9A17D",
";@	c #F0C18F",
">@	c #FFCF9A",
",@	c #D6AF86",
"'@	c #776655",
")@	c #706051",
"!@	c #AE8F70",
"~@	c #D6AD83",
"{@	c #CCA279",
"]@	c #C0976E",
"^@	c #C79A6F",
"/@	c #9E7C5B",
"(@	c #735F4B",
"_@	c #75746F",
":@	c #A99E9A",
"<@	c #504873",
"[@	c #1D1589",
"}@	c #1411C7",
"|@	c #101AE3",
"1@	c #0C20FE",
"2@	c #0B18F2",
"3@	c #1B179F",
"4@	c #2D243D",
"5@	c #433D2B",
"6@	c #605D51",
"7@	c #696863",
"8@	c #7C705D",
"9@	c #DABC91",
"0@	c #FACE9C",
"a@	c #FFCC99",
"b@	c #F2C494",
"c@	c #D1AB82",
"d@	c #9F8569",
"e@	c #685B4D",
"f@	c #987F65",
"g@	c #AD8E6E",
"h@	c #E7B889",
"i@	c #FEC68F",
"j@	c #DEAD7D",
"k@	c #84715B",
"l@	c #53524A",
"m@	c #3F3F37",
"n@	c #403D2A",
"o@	c #3C354D",
"p@	c #312A80",
"q@	c #1F17CE",
"r@	c #140DCD",
"s@	c #2B235D",
"t@	c #48433C",
"u@	c #B29374",
"v@	c #A0886D",
"w@	c #BA9877",
"x@	c #EEBF90",
"y@	c #FFD29D",
"z@	c #FDD09C",
"A@	c #F0C695",
"B@	c #DCB489",
"C@	c #C4A17C",
"D@	c #DDB288",
"E@	c #FDC997",
"F@	c #FFCD9A",
"G@	c #F5C290",
"H@	c #B08B66",
"I@	c #695948",
"J@	c #544C3E",
"K@	c #56553C",
"L@	c #535037",
"M@	c #534D43",
"N@	c #545059",
"O@	c #3F3B62",
"P@	c #66594C",
"Q@	c #CDA780",
"R@	c #87715C",
"S@	c #AB8B6F",
"T@	c #FFD19C",
"U@	c #FFCE9A",
"V@	c #FFD39D",
"W@	c #FBCC98",
"X@	c #FFD09C",
"Y@	c #FECA97",
"Z@	c #F0BC88",
"`@	c #CFA274",
" #	c #605244",
".#	c #5E5B56",
"+#	c #66634E",
"@#	c #6B6A56",
"##	c #373636",
"$#	c #8D7761",
"%#	c #E4B88B",
"&#	c #B79778",
"*#	c #A98E73",
"=#	c #E3BD90",
"-#	c #FCCD9A",
";#	c #FFCD99",
">#	c #FACA97",
",#	c #ECBD8E",
"'#	c #FFD7A4",
")#	c #FFD4A1",
"!#	c #EFBC8A",
"~#	c #8E745A",
"{#	c #5B5751",
"]#	c #575549",
"^#	c #615F56",
"/#	c #64625A",
"(#	c #555243",
"_#	c #403E3B",
":#	c #5E5954",
"<#	c #93806E",
"[#	c #AC9178",
"}#	c #68625D",
"|#	c #A18A73",
"1#	c #F0C292",
"2#	c #F9CB99",
"3#	c #FFD6A0",
"4#	c #D6AF85",
"5#	c #9E836A",
"6#	c #DCBD92",
"7#	c #F9C793",
"8#	c #8F765B",
"9#	c #48453F",
"0#	c #5B5B55",
"a#	c #656259",
"b#	c #6C6A63",
"c#	c #5C594D",
"d#	c #524F3F",
"e#	c #373534",
"f#	c #7F6D5A",
"g#	c #C9A784",
"h#	c #B89C7E",
"i#	c #DAB28A",
"j#	c #E4B98E",
"k#	c #C5A382",
"l#	c #FECD9A",
"m#	c #F3C494",
"n#	c #BD9D7D",
"o#	c #C2A280",
"p#	c #8F7963",
"q#	c #86715C",
"r#	c #DAB288",
"s#	c #FFD29E",
"t#	c #FFCB98",
"u#	c #FFCC9A",
"v#	c #F4C695",
"w#	c #977D64",
"x#	c #484843",
"y#	c #6B6962",
"z#	c #4E4A3A",
"A#	c #6F6E67",
"B#	c #545143",
"C#	c #3D3A36",
"D#	c #A88D6F",
"E#	c #F6CB99",
"F#	c #FDCE9B",
"G#	c #FCCC99",
"H#	c #FFD19B",
"I#	c #EABD90",
"J#	c #867668",
"K#	c #756B61",
"L#	c #AA8E72",
"M#	c #CEA680",
"N#	c #FBCA97",
"O#	c #B99877",
"P#	c #5E554A",
"Q#	c #5B5951",
"R#	c #68665C",
"S#	c #6B6961",
"T#	c #4A4636",
"U#	c #3C3C3C",
"V#	c #413F3E",
"W#	c #63564B",
"X#	c #A18469",
"Y#	c #FFD09B",
"Z#	c #B99B7D",
"`#	c #B99A7C",
" $	c #EEBF91",
".$	c #FDCB99",
"+$	c #FFD49E",
"@$	c #A5886B",
"#$	c #514C44",
"$$	c #606052",
"%$	c #616154",
"&$	c #535143",
"*$	c #514E40",
"=$	c #393939",
"-$	c #545454",
";$	c #505051",
">$	c #434345",
",$	c #695C51",
"'$	c #C9A47E",
")$	c #FFD59F",
"!$	c #FFCF9B",
"~$	c #FDCC99",
"{$	c #D2AC87",
"]$	c #746B61",
"^$	c #998470",
"/$	c #EFC393",
"($	c #ECBF90",
"_$	c #CBA57E",
":$	c #786658",
"<$	c #333341",
"[$	c #585552",
"}$	c #53513A",
"|$	c #484848",
"1$	c #727272",
"2$	c #707070",
"3$	c #626262",
"4$	c #52504D",
"5$	c #6C5D50",
"6$	c #937B63",
"7$	c #C8A57E",
"8$	c #F8CA98",
"9$	c #FFCB99",
"0$	c #F8CB98",
"a$	c #E7BE90",
"b$	c #E3B88E",
"c$	c #FDCE9A",
"d$	c #F8CB99",
"e$	c #947C63",
"f$	c #655B4F",
"g$	c #403D5D",
"h$	c #222084",
"i$	c #302A71",
"j$	c #383838",
"k$	c #5E5E5E",
"l$	c #838383",
"m$	c #848484",
"n$	c #545656",
"o$	c #404142",
"p$	c #484642",
"q$	c #60564C",
"r$	c #927962",
"s$	c #F7C695",
"t$	c #FECC99",
"u$	c #DAB389",
"v$	c #6B5E52",
"w$	c #484D51",
"x$	c #4C4C4B",
"y$	c #242383",
"z$	c #2D2547",
"A$	c #434343",
"B$	c #818181",
"C$	c #777777",
"D$	c #6B6B6B",
"E$	c #5F5F5F",
"F$	c #525353",
"G$	c #444647",
"H$	c #675C52",
"I$	c #CBA780",
"J$	c #F7D19C",
"K$	c #FFD7A0",
"L$	c #FECB98",
"M$	c #9B836A",
"N$	c #605B57",
"O$	c #656867",
"P$	c #53546C",
"Q$	c #272666",
"R$	c #352C39",
"S$	c #5D5D5D",
"T$	c #868686",
"U$	c #7A7A7A",
"V$	c #787878",
"W$	c #767676",
"X$	c #6F6F6F",
"Y$	c #616162",
"Z$	c #494746",
"`$	c #6A5C4F",
" %	c #9D8268",
".%	c #BF9D7A",
"+%	c #ECC392",
"@%	c #FDCC98",
"#%	c #E7B98C",
"$%	c #675B4E",
"%%	c #706D6A",
"&%	c #767777",
"*%	c #737373",
"=%	c #4D4D57",
"-%	c #322F47",
";%	c #4A4A4A",
">%	c #6D6D6D",
",%	c #7C7C7C",
"'%	c #828282",
")%	c #858585",
"!%	c #757575",
"~%	c #555656",
"{%	c #3C3E41",
"]%	c #393A3A",
"^%	c #4E4742",
"/%	c #AE8E6F",
"(%	c #FCCF9B",
"_%	c #F6C695",
":%	c #AD8E70",
"<%	c #746555",
"[%	c #454646",
"}%	c #636466",
"|%	c #878888",
"1%	c #7D7D7D",
"2%	c #4F4F4F",
"3%	c #3B3A39",
"4%	c #414141",
"5%	c #919191",
"6%	c #878787",
"7%	c #6E6E6E",
"8%	c #636363",
"9%	c #595959",
"0%	c #484849",
"a%	c #7C6B5A",
"b%	c #DEB388",
"c%	c #C8A17D",
"d%	c #4E4941",
"e%	c #535252",
"f%	c #5D5D5E",
"g%	c #797979",
"h%	c #4E4D49",
"i%	c #3F3E35",
"j%	c #555555",
"k%	c #717171",
"l%	c #8A8A8A",
"m%	c #7F7F7F",
"n%	c #6A6A6A",
"o%	c #747474",
"p%	c #444646",
"q%	c #5E554C",
"r%	c #776A5D",
"s%	c #535251",
"t%	c #666768",
"u%	c #51514C",
"v%	c #4B4B4B",
"w%	c #888888",
"x%	c #7B7B7B",
"y%	c #7E7E7E",
"z%	c #5E5F61",
"A%	c #6C6D6D",
"B%	c #646464",
"C%	c #6C6C6C",
"D%	c #575857",
"E%	c #313131",
"F%	c #5C5C5C",
"G%	c #898989",
"H%	c #6F6F70",
"I%	c #929292",
"J%	c #373738",
"K%	c #474645",
"L%	c #5B5B59",
"M%	c #353535",
"N%	c #3C3A36",
"O%	c #706F6E",
"P%	c #939393",
"Q%	c #949494",
"R%	c #808080",
"S%	c #504E4A",
"T%	c #454544",
"U%	c #424242",
"V%	c #8B8B8B",
"W%	c #838382",
"X%	c #606060",
"Y%	c #7C7C79",
"Z%	c #575345",
"`%	c #303030",
" &	c #3A3A39",
".&	c #515150",
"+&	c #808081",
"@&	c #7B7B7C",
"#&	c #797878",
"$&	c #69665C",
"%&	c #605B4A",
"&&	c #30302F",
"*&	c #343434",
"=&	c #454442",
"-&	c #545350",
";&	c #4D4D4C",
">&	c #59595A",
",&	c #616160",
"'&	c #565553",
")&	c #5A5852",
"!&	c #AFAEAE",
"~&	c #656153",
"{&	c #454234",
"]&	c #4C4B3B",
"^&	c #47463C",
"/&	c #444138",
"(&	c #434036",
"_&	c #524C3A",
":&	c #3F3A28",
"<&	c #3A341F",
"                                                                                            ",
"                                      . + @ #                                               ",
"                                        $ % & * = - ; >                                     ",
"                                        , ' ) ! ~ { ] ^ / (                                 ",
"                                            _ : < [ } | 1 2 3 4 5                           ",
"                                                  6 7 8 9 0 a b c                           ",
"                                                  d e f g h i j k                           ",
"                                                      l m n o p q r                         ",
"                                                        s t u v w x                         ",
"                                                      y z A B C D E                         ",
"                                                  F G H I J K L M N                         ",
"                                                O P Q R S T U V W                           ",
"                                            X Y Z `  ...+.@.#.$.%.                          ",
"      &.*.                                =.-.;.>.,.'.).!.~.{.].^.                          ",
"  /.(._.:.<.[.}.|.1.2.3._             4.5.6.7.8.9.0.a.b.c.d.e.f.                            ",
"g.h.i.j.k.l.m.n.o.p.q.r.s.t.u.v.w.x.y.z.A.B.C.D.E.F.G.H.I.J.K.L.M.                          ",
"N.O.P.Q.Q.Q.R.Q.S.T.U.V.W.X.Y.Z.`. +.+++@+#+$+%+&+*+a.F.=+-+;+>+                            ",
"  ,+'+Q.Q.Q.)+!+~+{+]+^+/+(+_+:+<+[+}+|+1+2+3+4+5+6+7+8+9+0+a+b+                            ",
"  c+d+e+f+Q.g+h+i+j+k+l+m+n+o+p+q+r+s+t+u+Q.v+w+x+y+7+z+A+B+C+D+                            ",
"  E+F+G+H+I+J+K+L+M+N+O+P+Q+R+S+T+U+V+W+X+Y+Z+`+ @.@+@'.@@#@$@                              ",
"        %@&@*@=@-@;@>@,@'@)@!@~@{@]@^@/@(@_@:@<@[@}@|@1@2@3@4@                              ",
"        5@6@7@8@9@0@a@b@c@d@e@e@f@g@h@i@j@k@l@m@n@o@p@q@r@s@                                ",
"            t@u@v@w@x@y@z@A@B@C@D@E@a@F@G@H@I@J@K@L@M@N@O@                                  ",
"            P@Q@R@S@T@U@F@y@V@W@a@X@a@a@Y@Z@`@ #.#b +#@#/.                                  ",
"          ##$#%#&#*#=#-#a@;#F@>#,#'#)#F@;#>@!#~#{#]#^#/#(#                                  ",
"          _#:#<#[#}#|#1#;#2#3#4#5#6#'#a@a@F@7#8#9#0#a#b#c#d#                                ",
"        e#f#g#h#i#j#k#l#m#n#o#p#q#r#s#t#a@u#v#w#x#y#z#A#B#                                  ",
"        C#D#E#F#G#H#U@a@I#J#K#L#M#N#;#a@a@F@F@O#P#Q#R#S#T#                                  ",
"      U#V#W#X#1#F@F@a@a@T@Y#Z#`# $.$a@a@a@F@+$@$#$$$%$&$*$                                  ",
"    =$-$;$>$,$'$)$)$!$F@F@~${$]$^$/$;#F@F@($_$:$<$[$}$                                      ",
"    |$1$2$3$4$5$6$7$8$T@9$F@0$a$b$c$a@F@d$e$f$g$h$i$                                        ",
"  j$k$l$m$1$n$o$p$q$r$s$X@a@Y#T@t$;#F@l#u$v$w$x$y$z$                                        ",
"  A$1$B$B$C$D$E$F$G$H$I$J$K$y@a@a@U@L$Q@M$N$O$P$Q$R$                                        ",
"  S$T$U$V$V$V$W$X$Y$Z$`$ %.%+%T@@%>##%$%%%&%*%=%-%                                          ",
"  ;%>%,%'%)%V$!%V$1$~%{%]%^%/%(%_%:%<%[%}%|%1%2%3%                                          ",
"  4%,%5%6%B$2$3$*%W$7%8%9%0%a%b%c%d%e%f%>%)%g%h%i%                                          ",
"  j%k%l%m%W$1$n%C$o%n%1$1$8%p%q%r%s%t%W$C$U$!%u%                                            ",
"    v%1$w%l$x%y%x%1$n%X$C$W$X$z%A%B%C%W$C$m%1%D%E%                                          ",
"      F%!%l$G%6%,%C$g%W$C$U$g%H%k%1$1$,%m%I%)%|$                                            ",
"      J%K%L%U$G%y%m%T$1%,%m%m$C%n%W$V$m%7%x%X$M%                                            ",
"          N%O%G%P%Q%w%x%R%l%m$o%W$R%F%g%S%=$T%                                              ",
"            U%k$g%w%l%V%6%w%l%R%B$W%X%Y%Z%                                                  ",
"              `% &.&X$+&@&D$V$T$U$C%#&$&%&                                                  ",
"                  &&*&=&-&;&>&,&'&)&!&~&                                                    ",
"                        {&]&^&/&(&' _&                                                      ",
"                            :&<&                                                            "};
