/* XPM */
static char * bullet04_xpm[] = {
"10 10 20 1",
" 	c None",
".	c #E3A621",
"+	c #EDC042",
"@	c #EDC13D",
"#	c #ECBE4D",
"$	c #F2D47B",
"%	c #F0CF89",
"&	c #DC930D",
"*	c #E5AA22",
"=	c #FBF1D9",
"-	c #E7B758",
";	c #E3A20C",
">	c #F0CF7C",
",	c #EFCD82",
"'	c #D98B00",
")	c #ECC263",
"!	c #F6E0A2",
"~	c #DE9521",
"{	c #E19C03",
"]	c #EEC156",
" .+       ",
" @#       ",
" $%&      ",
" *=-      ",
" ;>,'     ",
"  )!~     ",
"  {]      ",
"          ",
"          ",
"          "};
