/* XPM */
static char * bullet07_xpm[] = {
"10 10 20 1",
" 	c None",
".	c #EDC147",
"+	c #E3A621",
"@	c #D98A00",
"#	c #E1A01E",
"$	c #EEC767",
"%	c #ECBD25",
"&	c #E7B758",
"*	c #FEFCFA",
"=	c #F2D580",
"-	c #D57C00",
";	c #E2A527",
">	c #F5E0AF",
",	c #EDC664",
"'	c #E09B00",
")	c #F8E4A8",
"!	c #F1D38D",
"~	c #E3A410",
"{	c #EAB63E",
"]	c #E09A00",
"       .+ ",
"     @#$% ",
"     &*=  ",
"   -;>,'  ",
"    )!~   ",
"    {]    ",
"          ",
"          ",
"          ",
"          "};
