/* XPM */
static char * bullet08_xpm[] = {
"10 10 20 1",
" 	c None",
".	c #DA8D00",
"+	c #DE9902",
"@	c #E2A336",
"#	c #EFC846",
"$	c #DC920D",
"%	c #D78400",
"&	c #E1A31B",
"*	c #EFCF8A",
"=	c #FEFCFA",
"-	c #FAEEB8",
";	c #ECC02D",
">	c #F3D479",
",	c #FFFFFF",
"'	c #F5DFA7",
")	c #E7B333",
"!	c #DF9B00",
"~	c #E9B53E",
"{	c #E2A312",
"]	c #E09D00",
"          ",
"    .+@#$ ",
"  %&*=-;  ",
"  >,')!   ",
"  ~{]     ",
"          ",
"          ",
"          ",
"          ",
"          "};
