/* XPM */
static char * bullet09_xpm[] = {
"10 10 13 1",
" 	c None",
".	c #D37900",
"+	c #DE9906",
"@	c #FDEF8B",
"#	c #FFFFFF",
"$	c #FFFFFC",
"%	c #EABB2F",
"&	c #D47D00",
"*	c #DA8C0B",
"=	c #E2A50F",
"-	c #E3A60F",
";	c #E1A20E",
">	c #E2A603",
"  .++++.  ",
"  @###$@%&",
"  *=--;>  ",
"          ",
"          ",
"          ",
"          ",
"          ",
"          ",
"          "};
