/* XPM */
static char * bullet05_xpm[] = {
"10 10 19 1",
" 	c None",
".	c #E5AA24",
"+	c #EBBA39",
"@	c #EEC449",
"#	c #EDBE49",
"$	c #EBBC47",
"%	c #F3D791",
"&	c #E5AB3D",
"*	c #E5A91F",
"=	c #FBF1D9",
"-	c #E4AB3F",
";	c #E9B740",
">	c #F1D38A",
",	c #E9BC60",
"'	c #E9B748",
")	c #F6DFA0",
"!	c #E4A93E",
"~	c #E3A10C",
"{	c #F1C969",
"  .+      ",
"  @#      ",
" $%&      ",
" *=-      ",
" ;>,      ",
" ')!      ",
" ~{       ",
"          ",
"          ",
"          "};
