/* XPM */
static char * bullet12_xpm[] = {
"10 10 20 1",
" 	c None",
".	c #EEC156",
"+	c #E19C03",
"@	c #DE9521",
"#	c #F6E0A2",
"$	c #ECC263",
"%	c #D98B00",
"&	c #EFCD82",
"*	c #F0CF7C",
"=	c #E3A20C",
"-	c #E7B758",
";	c #FBF1D9",
">	c #E5AA22",
",	c #DC930D",
"'	c #F0CF89",
")	c #F2D47B",
"!	c #ECBE4D",
"~	c #EDC13D",
"{	c #EDC042",
"]	c #E3A621",
"          ",
"          ",
"          ",
"      .+  ",
"     @#$  ",
"     %&*= ",
"      -;> ",
"      ,') ",
"       !~ ",
"       {] "};
