/* XPM */
static char * bullet16_xpm[] = {
"10 10 20 1",
" 	c None",
".	c #E09D00",
"+	c #E2A312",
"@	c #E9B53E",
"#	c #DF9B00",
"$	c #E7B333",
"%	c #F5DFA7",
"&	c #FFFFFF",
"*	c #F3D479",
"=	c #ECC02D",
"-	c #FAEEB8",
";	c #FEFCFA",
">	c #EFCF8A",
",	c #E1A31B",
"'	c #D78400",
")	c #DC920D",
"!	c #EFC846",
"~	c #E2A336",
"{	c #DE9902",
"]	c #DA8D00",
"          ",
"          ",
"          ",
"          ",
"          ",
"     .+@  ",
"   #$%&*  ",
"  =-;>,'  ",
" )!~{]    ",
"          "};
