/* XPM */
static char * bullet01_xpm[] = {
"10 10 13 1",
" 	c None",
".	c #D37900",
"+	c #DE9906",
"@	c #D47D00",
"#	c #EABB2F",
"$	c #FDEF8B",
"%	c #FFFFFC",
"&	c #FFFFFF",
"*	c #E2A603",
"=	c #E1A20E",
"-	c #E3A60F",
";	c #E2A50F",
">	c #DA8C0B",
"  .++++.  ",
"@#$%&&&$  ",
"  *=--;>  ",
"          ",
"          ",
"          ",
"          ",
"          ",
"          ",
"          "};
