/* XPM */
static char * bullet03_xpm[] = {
"10 10 20 1",
" 	c None",
".	c #E3A621",
"+	c #EDC147",
"@	c #ECBD25",
"#	c #EEC767",
"$	c #E1A01E",
"%	c #D98A00",
"&	c #F2D580",
"*	c #FEFCFA",
"=	c #E7B758",
"-	c #E09B00",
";	c #EDC664",
">	c #F5E0AF",
",	c #E2A527",
"'	c #D57C00",
")	c #E3A410",
"!	c #F1D38D",
"~	c #F8E4A8",
"{	c #E09A00",
"]	c #EAB63E",
" .+       ",
" @#$%     ",
"  &*=     ",
"  -;>,'   ",
"   )!~    ",
"    {]    ",
"          ",
"          ",
"          ",
"          "};
