/* XPM */
static char * playerOne10_xpm[] = {
"46 46 780 2",
"  	c None",
". 	c #433E2B",
"+ 	c #504B3A",
"@ 	c #5A5649",
"# 	c #5D5B4F",
"$ 	c #58564A",
"% 	c #5F5C50",
"& 	c #837F74",
"* 	c #7F796E",
"= 	c #5C584B",
"- 	c #6A665C",
"; 	c #7A7A74",
"> 	c #767672",
", 	c #666560",
"' 	c #6F6F66",
") 	c #9B9B92",
"! 	c #A4A39A",
"~ 	c #8A877B",
"{ 	c #514D3D",
"] 	c #676359",
"^ 	c #78766F",
"/ 	c #84827F",
"( 	c #878788",
"_ 	c #757676",
": 	c #595650",
"< 	c #625C51",
"[ 	c #A6A59E",
"} 	c #D0D4D0",
"| 	c #ABAAA2",
"1 	c #6C695A",
"2 	c #5B594C",
"3 	c #69675E",
"4 	c #807F7C",
"5 	c #8A8A89",
"6 	c #818281",
"7 	c #6F726E",
"8 	c #575A52",
"9 	c #4A3629",
"0 	c #5F3C2E",
"a 	c #AC9992",
"b 	c #E0E4E0",
"c 	c #BFC2BC",
"d 	c #838276",
"e 	c #484435",
"f 	c #5C594F",
"g 	c #73726D",
"h 	c #7E7E7C",
"i 	c #777774",
"j 	c #62615B",
"k 	c #4B5044",
"l 	c #3F3B2B",
"m 	c #541F11",
"n 	c #832C21",
"o 	c #C3807B",
"p 	c #EFDFDD",
"q 	c #E0E3E0",
"r 	c #A9AEA5",
"s 	c #686858",
"t 	c #494739",
"u 	c #49463A",
"v 	c #545147",
"w 	c #5F5E55",
"x 	c #626058",
"y 	c #555248",
"z 	c #494639",
"A 	c #6E1308",
"B 	c #A71C17",
"C 	c #D85353",
"D 	c #F5AEB0",
"E 	c #F6DEDF",
"F 	c #CFCDC8",
"G 	c #9DA096",
"H 	c #808779",
"I 	c #4B483B",
"J 	c #4D4B40",
"K 	c #4C493D",
"L 	c #4C483C",
"M 	c #4D4A3C",
"N 	c #7F1007",
"O 	c #AB0E09",
"P 	c #DC1F20",
"Q 	c #F04F51",
"R 	c #F29091",
"S 	c #E6B6B5",
"T 	c #CDBFBA",
"U 	c #AFB2A9",
"V 	c #8A9286",
"W 	c #474334",
"X 	c #4D4A3D",
"Y 	c #494638",
"Z 	c #86190F",
"` 	c #B80D07",
" .	c #EA0302",
"..	c #F40C0C",
"+.	c #EC2E2E",
"@.	c #E96263",
"#.	c #E79696",
"$.	c #D5B4B1",
"%.	c #A9A49C",
"&.	c #78887B",
"*.	c #4A4637",
"=.	c #831C12",
"-.	c #C30C08",
";.	c #F70100",
">.	c #FD0000",
",.	c #F20101",
"'.	c #EC1617",
").	c #EE4344",
"!.	c #E97475",
"~.	c #C78987",
"{.	c #8B7A70",
"].	c #781E13",
"^.	c #BB0D08",
"/.	c #F40201",
"(.	c #FF0000",
"_.	c #F70101",
":.	c #F32628",
"<.	c #DF4647",
"[.	c #A1463F",
"}.	c #6B3A2D",
"|.	c #751F14",
"1.	c #BE0D08",
"2.	c #FE0100",
"3.	c #FE0000",
"4.	c #FC0000",
"5.	c #FD0405",
"6.	c #F20F10",
"7.	c #CA1714",
"8.	c #881D13",
"9.	c #502514",
"0.	c #871E12",
"a.	c #C90B07",
"b.	c #F50101",
"c.	c #F70000",
"d.	c #F90000",
"e.	c #F10202",
"f.	c #AC0F08",
"g.	c #6F1D10",
"h.	c #8F1A11",
"i.	c #BF0906",
"j.	c #D40100",
"k.	c #CB0906",
"l.	c #C80503",
"m.	c #E00000",
"n.	c #EC0101",
"o.	c #B80E0B",
"p.	c #80241C",
"q.	c #8C140B",
"r.	c #AD0703",
"s.	c #A91A16",
"t.	c #943A32",
"u.	c #933A32",
"v.	c #A71814",
"w.	c #D30100",
"x.	c #EC0000",
"y.	c #DB0302",
"z.	c #B1120F",
"A.	c #8B2B24",
"B.	c #6D443B",
"C.	c #5C594C",
"D.	c #710E02",
"E.	c #86130B",
"F.	c #954740",
"G.	c #9C8D86",
"H.	c #939089",
"I.	c #87504A",
"J.	c #961412",
"K.	c #A10806",
"L.	c #8B140D",
"M.	c #692B23",
"N.	c #58463E",
"O.	c #565C51",
"P.	c #5C6155",
"Q.	c #5D5C4F",
"R.	c #585446",
"S.	c #592210",
"T.	c #76382D",
"U.	c #987E76",
"V.	c #B4C0BD",
"W.	c #99AAA6",
"X.	c #756860",
"Y.	c #6F3B33",
"Z.	c #6F3329",
"`.	c #603F31",
" +	c #554D3D",
".+	c #535548",
"++	c #565A50",
"@+	c #5D5F56",
"#+	c #615F57",
"$+	c #5C5A4E",
"%+	c #545143",
"&+	c #6D5A4C",
"*+	c #7E6E66",
"=+	c #8C8D89",
"-+	c #8E9592",
";+	c #8D897F",
">+	c #907C66",
",+	c #96795E",
"'+	c #987A5C",
")+	c #9E8363",
"!+	c #988364",
"~+	c #8A775C",
"{+	c #786A59",
"]+	c #6D6A62",
"^+	c #676864",
"/+	c #606058",
"(+	c #59574B",
"_+	c #565344",
":+	c #707065",
"<+	c #7E7E78",
"[+	c #848783",
"}+	c #858278",
"|+	c #907C67",
"1+	c #A07D5F",
"2+	c #CAA075",
"3+	c #E2B686",
"4+	c #E4BA89",
"5+	c #E9BD8C",
"6+	c #E9BC8B",
"7+	c #D0A87D",
"8+	c #AB8F72",
"9+	c #867A6E",
"0+	c #6D6B65",
"a+	c #605F57",
"b+	c #56564C",
"c+	c #535244",
"d+	c #555447",
"e+	c #6A665E",
"f+	c #787168",
"g+	c #817364",
"h+	c #967F66",
"i+	c #C79C73",
"j+	c #E8B583",
"k+	c #F8C791",
"l+	c #FED09A",
"m+	c #FFD09B",
"n+	c #FED29C",
"o+	c #F0C592",
"p+	c #C8A47E",
"q+	c #967E69",
"r+	c #6A5D4F",
"s+	c #584F42",
"t+	c #504E42",
"u+	c #4B4C41",
"v+	c #656359",
"w+	c #70675C",
"x+	c #836F5C",
"y+	c #977B5E",
"z+	c #AE8B6A",
"A+	c #CFA67F",
"B+	c #E3B88A",
"C+	c #F3C694",
"D+	c #FBCD9A",
"E+	c #FFCF9B",
"F+	c #FFCF9C",
"G+	c #FFD19D",
"H+	c #FCD09A",
"I+	c #E4BA8D",
"J+	c #A9896A",
"K+	c #6F5740",
"L+	c #5A442D",
"M+	c #584631",
"N+	c #4E4233",
"O+	c #69665C",
"P+	c #776E65",
"Q+	c #927C69",
"R+	c #A6876A",
"S+	c #A38A70",
"T+	c #9F8D7C",
"U+	c #978475",
"V+	c #9A836C",
"W+	c #CCA781",
"X+	c #F1C494",
"Y+	c #FED09C",
"Z+	c #FFD09D",
"`+	c #FFD29D",
" @	c #F1C795",
".@	c #BC9A75",
"+@	c #7B6046",
"@@	c #6B4D2D",
"#@	c #72502E",
"$@	c #66482D",
"%@	c #4F3C2B",
"&@	c #655E4F",
"*@	c #6D665A",
"=@	c #756F65",
"-@	c #897868",
";@	c #AC8C6E",
">@	c #AE8F71",
",@	c #8D8277",
"'@	c #7C7C7D",
")@	c #756F6B",
"!@	c #857261",
"~@	c #BB9977",
"{@	c #EEC293",
"]@	c #F8CC9C",
"^@	c #F5CC9B",
"/@	c #FDD09C",
"(@	c #FDD29D",
"_@	c #D0AC84",
":@	c #8B7054",
"<@	c #7A5835",
"[@	c #8A5E31",
"}@	c #875B32",
"|@	c #6E4D2E",
"1@	c #58432C",
"2@	c #90897D",
"3@	c #9C9991",
"4@	c #999286",
"5@	c #AA8F74",
"6@	c #C29972",
"7@	c #A6896C",
"8@	c #756C64",
"9@	c #7F7974",
"0@	c #9E8975",
"a@	c #C19F7B",
"b@	c #DFB68A",
"c@	c #E5BC8F",
"d@	c #D1AF87",
"e@	c #D4B28A",
"f@	c #F1C797",
"g@	c #FFD49F",
"h@	c #FED49F",
"i@	c #DAB588",
"j@	c #977A5A",
"k@	c #765635",
"l@	c #936232",
"m@	c #A06B36",
"n@	c #916233",
"o@	c #73512E",
"p@	c #58412D",
"q@	c #837B6E",
"r@	c #A8ABA6",
"s@	c #ACC1C6",
"t@	c #A0A9A4",
"u@	c #BC9F7F",
"v@	c #DDAD7E",
"w@	c #BB9874",
"x@	c #917962",
"y@	c #B49878",
"z@	c #DAB387",
"A@	c #F2C895",
"B@	c #FDD39D",
"C@	c #E4BD8D",
"D@	c #B79775",
"E@	c #B29273",
"F@	c #E2B689",
"G@	c #FCCC97",
"H@	c #FFD39E",
"I@	c #E3BD8F",
"J@	c #997C5E",
"K@	c #725335",
"L@	c #8D5F30",
"M@	c #A56F39",
"N@	c #A6703B",
"O@	c #916336",
"P@	c #7C5631",
"Q@	c #72502C",
"R@	c #776E5E",
"S@	c #A09D94",
"T@	c #A4C5D0",
"U@	c #78BDDB",
"V@	c #578595",
"W@	c #A79479",
"X@	c #EAB989",
"Y@	c #DCB186",
"Z@	c #D0A982",
"`@	c #EAC090",
" #	c #FFD29C",
".#	c #FFD59E",
"+#	c #FED39C",
"@#	c #ECC18F",
"##	c #C79D74",
"$#	c #B88F6B",
"%#	c #D5A578",
"&#	c #ECB986",
"*#	c #FECD97",
"=#	c #E6BE8D",
"-#	c #A0815F",
";#	c #7D5C3B",
">#	c #926639",
",#	c #AD7945",
"'#	c #B47D49",
")#	c #AD7946",
"!#	c #A07040",
"~#	c #906232",
"{#	c #6B665A",
"]#	c #A59B91",
"^#	c #CACECD",
"/#	c #A3DCF8",
"(#	c #49ABDB",
"_#	c #3B7892",
":#	c #998973",
"<#	c #F1C18E",
"[#	c #FECF9B",
"}#	c #EDC292",
"|#	c #F4C998",
"1#	c #FDD29E",
"2#	c #FFD39D",
"3#	c #FFCF9A",
"4#	c #F6C592",
"5#	c #E0B07E",
"6#	c #D1A172",
"7#	c #D8A574",
"8#	c #E8B480",
"9#	c #F1BF8C",
"0#	c #D3AB7E",
"a#	c #987855",
"b#	c #815D39",
"c#	c #A07141",
"d#	c #B98551",
"e#	c #BD8955",
"f#	c #BE8A55",
"g#	c #B7834F",
"h#	c #9F6E3D",
"i#	c #825A2F",
"j#	c #5F5C4F",
"k#	c #928F86",
"l#	c #CEC8C1",
"m#	c #E3EFF3",
"n#	c #9BE0FF",
"o#	c #42AFE5",
"p#	c #31789A",
"q#	c #968C7A",
"r#	c #EDC391",
"s#	c #EAC595",
"t#	c #CFAC85",
"u#	c #D1AC84",
"v#	c #EBC090",
"w#	c #FECE99",
"x#	c #FFD09C",
"y#	c #FDCB98",
"z#	c #F5C38E",
"A#	c #EDBA85",
"B#	c #EFBA86",
"C#	c #F8C68F",
"D#	c #E7B888",
"E#	c #B08C67",
"F#	c #795D3E",
"G#	c #7F5A33",
"H#	c #A57443",
"I#	c #BB8754",
"J#	c #BC8956",
"K#	c #BB8854",
"L#	c #B88450",
"M#	c #A47444",
"N#	c #7F5D3A",
"O#	c #554635",
"P#	c #69655A",
"Q#	c #88857C",
"R#	c #BFBEBA",
"S#	c #F6F2F0",
"T#	c #F1FFFF",
"U#	c #8EDEFF",
"V#	c #42B4ED",
"W#	c #3E89AD",
"X#	c #7A847E",
"Y#	c #CAAB84",
"Z#	c #D7B588",
"`#	c #B29574",
" $	c #B2906E",
".$	c #D7AA7D",
"+$	c #F9C692",
"@$	c #FFCE9B",
"#$	c #FFCE9A",
"$$	c #FDCD98",
"%$	c #FBC995",
"&$	c #EFC090",
"*$	c #CAA27A",
"=$	c #917152",
"-$	c #765634",
";$	c #8D6337",
">$	c #B07D4A",
",$	c #B98552",
"'$	c #B17E4D",
")$	c #AC7846",
"!$	c #AA7642",
"~$	c #A67341",
"{$	c #886341",
"]$	c #66533F",
"^$	c #79766A",
"/$	c #9E9D95",
"($	c #C7C6C1",
"_$	c #EBEBEA",
":$	c #FFFDFD",
"<$	c #F9FFFF",
"[$	c #CCF6FF",
"}$	c #9EDEF7",
"|$	c #85BBD2",
"1$	c #73898D",
"2$	c #A8957A",
"3$	c #D4B085",
"4$	c #C9A27A",
"5$	c #C1976C",
"6$	c #DBA877",
"7$	c #F3C18D",
"8$	c #FACA95",
"9$	c #E5B88A",
"0$	c #BF9A75",
"a$	c #907357",
"b$	c #77593C",
"c$	c #815A33",
"d$	c #A47441",
"e$	c #B17E4A",
"f$	c #A4713F",
"g$	c #9D6B38",
"h$	c #9F6B37",
"i$	c #A7723E",
"j$	c #9C7146",
"k$	c #785F46",
"l$	c #87857B",
"m$	c #B8B7B1",
"n$	c #F1F2F0",
"o$	c #FFFFFF",
"p$	c #F7F9F8",
"q$	c #EAF2F2",
"r$	c #E2EFF0",
"s$	c #BCD0D4",
"t$	c #868E8E",
"u$	c #8E8171",
"v$	c #C09E7A",
"w$	c #DBAD7E",
"x$	c #DCAA76",
"y$	c #E4B07C",
"z$	c #F5C590",
"A$	c #FFD19C",
"B$	c #EBBD8D",
"C$	c #CDA47B",
"D$	c #A98766",
"E$	c #84684D",
"F$	c #705439",
"G$	c #785331",
"H$	c #97683A",
"I$	c #B07C49",
"J$	c #B37E4B",
"K$	c #A87441",
"L$	c #9E6A38",
"M$	c #9E6B38",
"N$	c #A46F3C",
"O$	c #AE7944",
"P$	c #A7794B",
"Q$	c #806449",
"R$	c #767367",
"S$	c #A8A6A0",
"T$	c #ECECEB",
"U$	c #F5F5F4",
"V$	c #E7E6E4",
"W$	c #CFCCC9",
"X$	c #BCB9B3",
"Y$	c #B7B2AA",
"Z$	c #9F9D95",
"`$	c #74716A",
" %	c #6C6055",
".%	c #977E64",
"+%	c #CAA276",
"@%	c #E8B57F",
"#%	c #F4BF89",
"$%	c #F4C593",
"%%	c #D8AD82",
"&%	c #B6916E",
"*%	c #907254",
"=%	c #75593D",
"-%	c #6C4D2E",
";%	c #734E28",
">%	c #8A5C2F",
",%	c #A3703D",
"'%	c #AE7A46",
")%	c #AB7743",
"!%	c #A4713E",
"~%	c #AB7845",
"{%	c #B4804D",
"]%	c #B9844F",
"^%	c #AE7F50",
"/%	c #8A6B4C",
"(%	c #5B4E41",
"_%	c #4C4837",
":%	c #B8B7B3",
"<%	c #C5C5C0",
"[%	c #AAA9A1",
"}%	c #8A8880",
"|%	c #767167",
"1%	c #6E695B",
"2%	c #686253",
"3%	c #736351",
"4%	c #AA8E6C",
"5%	c #D7AD7F",
"6%	c #EEBF8D",
"7%	c #E9BC8D",
"8%	c #C9A079",
"9%	c #9D7C5E",
"0%	c #785F45",
"a%	c #6E5234",
"b%	c #75502D",
"c%	c #84562B",
"d%	c #8F5E2D",
"e%	c #996530",
"f%	c #A26E3A",
"g%	c #A77440",
"h%	c #A87541",
"i%	c #B07E4A",
"j%	c #B4824E",
"k%	c #B68350",
"l%	c #B98650",
"m%	c #AF7F4F",
"n%	c #8A6B4D",
"o%	c #605345",
"p%	c #6A6759",
"q%	c #918F85",
"r%	c #89867B",
"s%	c #726E61",
"t%	c #544F40",
"u%	c #7B6650",
"v%	c #AB8965",
"w%	c #BC966E",
"x%	c #A68866",
"y%	c #876C50",
"z%	c #72553A",
"A%	c #6D4E2C",
"B%	c #7D562E",
"C%	c #976738",
"D%	c #A5703E",
"E%	c #A7713E",
"F%	c #A06B37",
"G%	c #9D6A37",
"H%	c #A3703E",
"I%	c #A87542",
"J%	c #AE7B48",
"K%	c #B4804A",
"L%	c #AB7E52",
"M%	c #876E55",
"N%	c #665E51",
"O%	c #594835",
"P%	c #7C5E3F",
"Q%	c #886744",
"R%	c #795D3D",
"S%	c #6C4F31",
"T%	c #734F28",
"U%	c #85582A",
"V%	c #9C6A38",
"W%	c #AF7B48",
"X%	c #B8834F",
"Y%	c #B37F4C",
"Z%	c #A16E3C",
"`%	c #A5723F",
" &	c #A97643",
".&	c #B4814D",
"+&	c #B37D48",
"@&	c #B27E4B",
"#&	c #A17B54",
"$&	c #826F5A",
"%&	c #676257",
"&&	c #524131",
"*&	c #6F5133",
"=&	c #875F36",
"-&	c #8C6237",
";&	c #875C30",
">&	c #8B5D2B",
",&	c #9B6833",
"'&	c #B78450",
")&	c #B98652",
"!&	c #B3804D",
"~&	c #AA7744",
"{&	c #AC7946",
"]&	c #AF7D49",
"^&	c #B47F49",
"/&	c #AA7B4F",
"(&	c #84694D",
"_&	c #635948",
":&	c #4C3F34",
"<&	c #755538",
"[&	c #9C6D3F",
"}&	c #B07C48",
"|&	c #9D6A35",
"1&	c #9C6A36",
"2&	c #AB7946",
"3&	c #B98653",
"4&	c #B88552",
"5&	c #AA7844",
"6&	c #AA7745",
"7&	c #AF7A46",
"8&	c #B7814B",
"9&	c #997550",
"0&	c #695945",
"a&	c #484437",
"b&	c #715436",
"c&	c #9D7040",
"d&	c #B8824D",
"e&	c #B47F4B",
"f&	c #A4713C",
"g&	c #B27F4C",
"h&	c #AC7A47",
"i&	c #A87643",
"j&	c #AE7945",
"k&	c #B37F4B",
"l&	c #AF7F50",
"m&	c #9C7651",
"n&	c #78644D",
"o&	c #554E40",
"p&	c #3E3B2D",
"q&	c #634C33",
"r&	c #91673B",
"s&	c #AF7A45",
"t&	c #A4703D",
"u&	c #B78451",
"v&	c #B4814E",
"w&	c #AE7C49",
"x&	c #AA7845",
"y&	c #AB7843",
"z&	c #B37E48",
"A&	c #AA7C4F",
"B&	c #8F6F50",
"C&	c #715E4A",
"D&	c #575043",
"E&	c #474439",
"F&	c #574635",
"G&	c #805E3B",
"H&	c #A27241",
"I&	c #A6713C",
"J&	c #A06C36",
"K&	c #A16E3B",
"L&	c #AD7A47",
"M&	c #B17E4C",
"N&	c #B6814B",
"O&	c #B58250",
"P&	c #96724F",
"Q&	c #665644",
"R&	c #4B473C",
"S&	c #444438",
"T&	c #6B553F",
"U&	c #997248",
"V&	c #AF7B45",
"W&	c #A26D37",
"X&	c #9D6936",
"Y&	c #B07E4B",
"Z&	c #AF7C4A",
"`&	c #AE7946",
" *	c #B27C47",
".*	c #B4804C",
"+*	c #9B7651",
"@*	c #7A624A",
"#*	c #534A3D",
"$*	c #3D3D31",
"%*	c #564A40",
"&*	c #8E6F4D",
"**	c #AA7D4F",
"=*	c #A8733F",
"-*	c #A8743F",
";*	c #AC7844",
">*	c #B17C48",
",*	c #B27D4A",
"'*	c #B47F4C",
")*	c #B48351",
"!*	c #A97E52",
"~*	c #8F6F4E",
"{*	c #6D5A46",
"]*	c #53483F",
"^*	c #6F5B48",
"/*	c #8A6C4D",
"(*	c #9F784F",
"_*	c #AE7E4E",
":*	c #B37E4C",
"<*	c #B78350",
"[*	c #AE7F52",
"}*	c #7E654B",
"|*	c #5E5042",
"1*	c #655545",
"2*	c #7D654A",
"3*	c #A37A51",
"4*	c #A57A51",
"5*	c #9F764F",
"6*	c #987350",
"7*	c #896A4D",
"8*	c #6A5745",
"9*	c #4F463E",
"0*	c #745E48",
"a*	c #7A6149",
"b*	c #735D48",
"c*	c #765F49",
"d*	c #695645",
"e*	c #574B41",
"                                                                                            ",
"                    .                                                                       ",
"                + @ # $ % & *                                                               ",
"              = - ; > , ' ) ! ~                                                             ",
"          { ] ^ / ( _ : < [ } | 1                                                           ",
"        2 3 4 5 6 7 8 9 0 a b c d                                                           ",
"      e f g h i j k l m n o p q r s                                                         ",
"    t u v w x y z     A B C D E F G H                                                       ",
"  I J K L M           N O P Q R S T U V                                                     ",
"W I X Y               Z `  ...+.@.#.$.%.&.                                                  ",
"  *.                  =.-.;.>.,.'.).!.~.{.                                                  ",
"                      ].^./.(.>._...:.<.[.}.                                                ",
"                      |.1.2.(.(.3.4.5.6.7.8.9.                                              ",
"                      0.a.b.c.d.(.(.(.(.e.f.g.                                              ",
"                      h.i.j.k.l.m.c.(.>.n.o.p.                                              ",
"                      q.r.s.t.u.v.w.x.y.z.A.B.C.                                            ",
"                      D.E.F.G.H.I.J.K.L.M.N.O.P.Q.R.                                        ",
"                      S.T.U.V.W.X.Y.Z.`. +.+++@+#+$+%+                                      ",
"                      &+*+=+-+;+>+,+'+)+!+~+{+]+^+/+(+_+                                    ",
"                    :+<+[+}+|+1+2+3+4+5+6+7+8+9+0+a+b+c+                                    ",
"                  d+e+f+g+h+i+j+k+l+m+m+n+o+p+q+r+s+t+u+                                    ",
"                  v+w+x+y+z+A+B+C+D+E+F+G+H+I+J+K+L+M+N+                                    ",
"                O+P+Q+R+S+T+U+V+W+X+Y+G+Z+`+ @.@+@@@#@$@%@                                  ",
"            &@*@=@-@;@>@,@'@)@!@~@{@]@^@/@`+(@_@:@<@[@}@|@1@                                ",
"            2@3@4@5@6@7@8@9@0@a@b@c@d@e@f@g@h@i@j@k@l@m@n@o@p@                              ",
"          q@r@s@t@u@v@w@x@y@z@A@B@C@D@E@F@G@H@I@J@K@L@M@N@O@P@Q@                            ",
"        R@S@T@U@V@W@X@Y@Z@`@ #.#+#@###$#%#&#*#=#-#;#>#,#'#)#!#~#                            ",
"      {#]#^#/#(#_#:#<#[#}#|#1#2#3#4#5#6#7#8#9#0#a#b#c#d#e#f#g#h#i#                          ",
"    j#k#l#m#n#o#p#q#r#s#t#u#v#w#x#y#z#A#B#C#D#E#F#G#H#I#J#K#L#M#N#O#                        ",
"  P#Q#R#S#T#U#V#W#X#Y#Z#`# $.$+$@$#$m+$$%$&$*$=$-$;$>$,$'$)$!$~${$]$                        ",
"^$/$($_$:$<$[$}$|$1$2$3$4$5$6$7$[#x#m+8$9$0$a$b$c$d$g#e$f$g$h$i$j$k$                        ",
"l$m$n$o$o$p$q$r$s$t$u$v$w$x$y$z$A$y#B$C$D$E$F$G$H$I$J$K$L$M$N$O$P$Q$                        ",
"R$S$T$U$V$W$X$Y$Z$`$ %.%+%@%#%*#$%%%&%*%=%-%;%>%,%'%)%!%,%~%{%]%^%/%(%                      ",
"_%}+:%<%[%}%|%1%2%    3%4%5%6%7%8%9%0%a%b%c%d%e%f%g%h%~%i%j%k%l%m%n%o%                      ",
"  p%q%r%s%t%            u%v%w%x%y%z%A%B%C%D%E%F%G%H%I%J%k%k%e$K%L%M%N%                      ",
"                        O%P%Q%R%S%T%U%V%W%X%Y%I%Z%`% &J%.&Y%+&@&#&$&%&                      ",
"                        &&*&=&-&;&>&,&)%'&)&!&~%I% &~&{&]&^&^&/&(&_&                        ",
"                        :&<&[&}&!$|&1&2&3&4&>$5&~&~&~&6&7&8&k%9&0&a&                        ",
"                          b&c&d&e&f&M${&3&3&g&h&~&i& &j&k&l&m&n&o&p&                        ",
"                          q&r&s&,#,%t&>$k%u&v&w&x&i&y&z&A&B&C&D&E&                          ",
"                          F&G&H&I&J&K&L&!&v&M&~%i&j&N&O&P&Q&R&S&                            ",
"                            T&U&V&W&X&!%L&Y&Z&`& *.*^%+*@*#*$*                              ",
"                            %*&***,#=*-*;*>*,*'*)*!*~*{*]*                                  ",
"                              ^*/*(*_*Y%k&:*<*[*9&}*|*                                      ",
"                                1*2*9&3*4*5*6*7*8*9*                                        ",
"                                    0*a*b*c*d*e*                                            "};
