/* XPM */
static char * playerOne02_xpm[] = {
"46 46 717 2",
"  	c None",
". 	c #343333",
"+ 	c #4C433B",
"@ 	c #635343",
"# 	c #433D38",
"$ 	c #5A4C40",
"% 	c #393634",
"& 	c #584B3E",
"* 	c #8D6E50",
"= 	c #B4875B",
"- 	c #A47C52",
"; 	c #9F7954",
"> 	c #9E7752",
", 	c #8B6C4D",
"' 	c #5C4E40",
") 	c #323133",
"! 	c #403B37",
"~ 	c #675543",
"{ 	c #9C7854",
"] 	c #B78859",
"^ 	c #B98654",
"/ 	c #B7814D",
"( 	c #B17D49",
"_ 	c #B37F4C",
": 	c #BA844F",
"< 	c #B48453",
"[ 	c #5F5041",
"} 	c #3A3735",
"| 	c #3D3B2B",
"1 	c #433E32",
"2 	c #725C47",
"3 	c #A98159",
"4 	c #B98959",
"5 	c #B88552",
"6 	c #B5804C",
"7 	c #AF7B47",
"8 	c #AA7744",
"9 	c #AD7A47",
"0 	c #AB7845",
"a 	c #A57340",
"b 	c #B27D48",
"c 	c #B28150",
"d 	c #AA8157",
"e 	c #5A4C3F",
"f 	c #494536",
"g 	c #4A473A",
"h 	c #44423B",
"i 	c #6A594A",
"j 	c #A87E55",
"k 	c #B98450",
"l 	c #B47F4A",
"m 	c #AD7A46",
"n 	c #A87542",
"o 	c #A77441",
"p 	c #B3804D",
"q 	c #A97643",
"r 	c #9A6734",
"s 	c #9B6835",
"t 	c #A7733E",
"u 	c #BC8955",
"v 	c #907151",
"w 	c #353333",
"x 	c #403B2A",
"y 	c #504D46",
"z 	c #574E43",
"A 	c #7C654E",
"B 	c #A17954",
"C 	c #B07F4E",
"D 	c #AB7844",
"E 	c #A77442",
"F 	c #A87643",
"G 	c #B27F4C",
"H 	c #B17E4B",
"I 	c #B07D4A",
"J 	c #AE7B48",
"K 	c #915E2B",
"L 	c #AE7A45",
"M 	c #A97E50",
"N 	c #494038",
"O 	c #444035",
"P 	c #716151",
"Q 	c #A77E57",
"R 	c #B48354",
"S 	c #B7834F",
"T 	c #AC7946",
"U 	c #B5824F",
"V 	c #B98653",
"W 	c #B4814E",
"X 	c #996633",
"Y 	c #A16C38",
"Z 	c #A47240",
"` 	c #6E533A",
" .	c #313133",
"..	c #574D40",
"+.	c #927151",
"@.	c #B3814E",
"#.	c #B47E48",
"$.	c #AC7845",
"%.	c #A87543",
"&.	c #BD8A57",
"*.	c #A16E3B",
"=.	c #9C6936",
"-.	c #A6723E",
";.	c #875E34",
">.	c #3D3732",
",.	c #5C594C",
"'.	c #756D63",
").	c #967450",
"!.	c #B38252",
"~.	c #AE7A47",
"{.	c #B78451",
"].	c #9E6B38",
"^.	c #925F2C",
"/.	c #B07D49",
"(.	c #C08D5B",
"_.	c #B17D4A",
":.	c #7D5832",
"<.	c #493B2C",
"[.	c #5D594C",
"}.	c #877462",
"|.	c #B08051",
"1.	c #AB7744",
"2.	c #B68350",
"3.	c #996632",
"4.	c #A4713D",
"5.	c #805E3C",
"6.	c #494339",
"7.	c #87694A",
"8.	c #B4814D",
"9.	c #AE7B47",
"0.	c #B07D4B",
"a.	c #BB8855",
"b.	c #A26F3C",
"c.	c #9D6A37",
"d.	c #A5723F",
"e.	c #BA8754",
"f.	c #B3804C",
"g.	c #A67340",
"h.	c #95622E",
"i.	c #8D5B29",
"j.	c #84592E",
"k.	c #76522C",
"l.	c #946333",
"m.	c #835D36",
"n.	c #4B3F33",
"o.	c #55493E",
"p.	c #9B7753",
"q.	c #B9844F",
"r.	c #A3703D",
"s.	c #966330",
"t.	c #A4713E",
"u.	c #A06D39",
"v.	c #936232",
"w.	c #774F27",
"x.	c #644728",
"y.	c #614A31",
"z.	c #6C573F",
"A.	c #785B3C",
"B.	c #725233",
"C.	c #53402E",
"D.	c #49423A",
"E.	c #967350",
"F.	c #B07E4B",
"G.	c #B37F4D",
"H.	c #AF7C49",
"I.	c #A3703B",
"J.	c #97622F",
"K.	c #915D2A",
"L.	c #895A2C",
"M.	c #724E28",
"N.	c #604629",
"O.	c #654E36",
"P.	c #77604A",
"Q.	c #93785E",
"R.	c #BC9771",
"S.	c #C79D73",
"T.	c #937557",
"U.	c #51463B",
"V.	c #5B4D3F",
"W.	c #98724D",
"X.	c #B07A45",
"Y.	c #996634",
"Z.	c #976431",
"`.	c #9F6C3A",
" +	c #82562B",
".+	c #6A4826",
"++	c #62472D",
"@+	c #69523B",
"#+	c #7D674F",
"$+	c #9E8163",
"%+	c #CCA178",
"&+	c #EDBA88",
"*+	c #FDCB96",
"=+	c #FFD29D",
"-+	c #D6AD82",
";+	c #816D5A",
">+	c #4B4735",
",+	c #423C37",
"'+	c #916C47",
")+	c #AD7843",
"!+	c #986531",
"~+	c #A97744",
"{+	c #BA8653",
"]+	c #BC8854",
"^+	c #A2703E",
"/+	c #79542E",
"(+	c #614930",
"_+	c #6E5842",
":+	c #856D56",
"<+	c #AC8A69",
"[+	c #D8AA7E",
"}+	c #F2BE8C",
"|+	c #FBC793",
"1+	c #FFCC98",
"2+	c #F8C693",
"3+	c #E1AD79",
"4+	c #DFAE7A",
"5+	c #B19171",
"6+	c #4C473E",
"7+	c #504B3C",
"8+	c #544F40",
"9+	c #615D52",
"0+	c #484336",
"a+	c #716D63",
"b+	c #95948A",
"c+	c #9E9C95",
"d+	c #827F75",
"e+	c #45412E",
"f+	c #373534",
"g+	c #6B5239",
"h+	c #A57444",
"i+	c #B37F4B",
"j+	c #81572D",
"k+	c #6C5035",
"l+	c #8A7055",
"m+	c #BB9671",
"n+	c #E3B283",
"o+	c #F6C28E",
"p+	c #FCC995",
"q+	c #FFCD99",
"r+	c #FFCE9A",
"s+	c #FFD19E",
"t+	c #EAB884",
"u+	c #D19D68",
"v+	c #E4AE78",
"w+	c #D2A97F",
"x+	c #7D6F60",
"y+	c #716B64",
"z+	c #9E9B93",
"A+	c #BFBEB9",
"B+	c #BBB7B2",
"C+	c #B4B3AE",
"D+	c #D5D5D4",
"E+	c #ECECEC",
"F+	c #F9FAFC",
"G+	c #BEBDBA",
"H+	c #54503F",
"I+	c #6C4D2D",
"J+	c #A4723F",
"K+	c #C18E5A",
"L+	c #B88653",
"M+	c #BC8956",
"N+	c #8A5E31",
"O+	c #664A2E",
"P+	c #84684D",
"Q+	c #CDA377",
"R+	c #FECD9A",
"S+	c #FFCF9B",
"T+	c #FFCC99",
"U+	c #FFCD9A",
"V+	c #F6C592",
"W+	c #DDAB78",
"X+	c #C79A6E",
"Y+	c #DBB286",
"Z+	c #F0C492",
"`+	c #AB9074",
" @	c #70797A",
".@	c #C3DAE0",
"+@	c #F9FEFE",
"@@	c #F7FAF9",
"#@	c #F7F8F7",
"$@	c #FFFFFF",
"%@	c #E4E4E4",
"&@	c #817F75",
"*@	c #484534",
"=@	c #7C5125",
"-@	c #9A6834",
";@	c #BA8651",
">@	c #BC8855",
",@	c #C18D5A",
"'@	c #77532D",
")@	c #765F46",
"!@	c #C29B73",
"~@	c #F5C390",
"{@	c #F3C38F",
"]@	c #EBB885",
"^@	c #F7C592",
"/@	c #FBC996",
"(@	c #FFCF9C",
"_@	c #E5B280",
":@	c #AC8B69",
"<@	c #7B6856",
"[@	c #F2CA98",
"}@	c #CDA980",
"|@	c #5A6868",
"1@	c #66AAC9",
"2@	c #85D8FC",
"3@	c #C2EFFF",
"4@	c #F4FEFF",
"5@	c #CCCBC7",
"6@	c #807D72",
"7@	c #7E552C",
"8@	c #9C6C3B",
"9@	c #B37E49",
"0@	c #B27E4B",
"a@	c #9C6C3D",
"b@	c #735636",
"c@	c #A98763",
"d@	c #F5C38F",
"e@	c #F5C18E",
"f@	c #DAA673",
"g@	c #D19C69",
"h@	c #D9A573",
"i@	c #EBB884",
"j@	c #FECB98",
"k@	c #FFD59E",
"l@	c #CBA880",
"m@	c #A2896C",
"n@	c #E2C396",
"o@	c #EEC998",
"p@	c #8E7E6C",
"q@	c #28698A",
"r@	c #20A9F1",
"s@	c #89D8FF",
"t@	c #EDF9FE",
"u@	c #FEFCFB",
"v@	c #E6E6E5",
"w@	c #CBCAC7",
"x@	c #89877E",
"y@	c #69665A",
"z@	c #58412B",
"A@	c #724F2D",
"B@	c #A26E38",
"C@	c #83582E",
"D@	c #634E37",
"E@	c #AD8F70",
"F@	c #FFD79F",
"G@	c #FBC896",
"H@	c #E7B481",
"I@	c #D5A678",
"J@	c #BB936A",
"K@	c #DEAE7E",
"L@	c #FFCB98",
"M@	c #FFD19C",
"N@	c #F9CC99",
"O@	c #F2C293",
"P@	c #FBCF9D",
"Q@	c #FBD3A0",
"R@	c #A58C71",
"S@	c #226C93",
"T@	c #2EAFF0",
"U@	c #BBECFF",
"V@	c #E1E0DF",
"W@	c #92918A",
"X@	c #605D50",
"Y@	c #4F4B3B",
"Z@	c #4C3D2D",
"`@	c #855A2C",
" #	c #A36E39",
".#	c #A4703B",
"+#	c #8B5B2A",
"@#	c #634C35",
"##	c #B39270",
"$#	c #F9CE9B",
"%#	c #FFCE9B",
"&#	c #D2AA82",
"*#	c #88725C",
"=#	c #B99775",
"-#	c #FFD39D",
";#	c #F6CA98",
">#	c #EBBD8F",
",#	c #F8C896",
"'#	c #F6C492",
")#	c #797162",
"!#	c #1072A3",
"~#	c #49C3FB",
"{#	c #BFEBFD",
"]#	c #F0E6E2",
"^#	c #A1A09A",
"/#	c #4C4938",
"(#	c #393530",
"_#	c #5D4329",
":#	c #7D552E",
"<#	c #9E6B39",
"[#	c #885D33",
"}#	c #745B42",
"|#	c #C89F77",
"1#	c #FFD19A",
"2#	c #EFC595",
"3#	c #AD9576",
"4#	c #C9A47E",
"5#	c #F0C392",
"6#	c #DAB084",
"7#	c #B09071",
"8#	c #85705C",
"9#	c #C39E7B",
"0#	c #F0BD8B",
"a#	c #897761",
"b#	c #4987A1",
"c#	c #98D6EF",
"d#	c #C3C6C4",
"e#	c #999187",
"f#	c #5D5849",
"g#	c #3F3229",
"h#	c #503A28",
"i#	c #79522C",
"j#	c #845B32",
"k#	c #594A3A",
"l#	c #B09273",
"m#	c #FED59E",
"n#	c #FFD6A2",
"o#	c #EFCA9B",
"p#	c #FACA9A",
"q#	c #F0C192",
"r#	c #D0A881",
"s#	c #A4886E",
"t#	c #796E63",
"u#	c #4D4D4E",
"v#	c #6E6052",
"w#	c #E6B789",
"x#	c #DAAD7E",
"y#	c #878173",
"z#	c #C6D3D1",
"A#	c #D2D7D6",
"B#	c #88837A",
"C#	c #4D4839",
"D#	c #3C3933",
"E#	c #524230",
"F#	c #704D29",
"G#	c #55412C",
"H#	c #A98969",
"I#	c #F2C796",
"J#	c #FFD19D",
"K#	c #FFD09D",
"L#	c #FCCD99",
"M#	c #C6A17C",
"N#	c #584E46",
"O#	c #4E4E4F",
"P#	c #999CA0",
"Q#	c #939496",
"R#	c #AD9177",
"S#	c #CDA176",
"T#	c #9D7F61",
"U#	c #91887F",
"V#	c #BDB3AB",
"W#	c #958D81",
"X#	c #646156",
"Y#	c #494D3F",
"Z#	c #4B4C43",
"`#	c #534637",
" $	c #604932",
".$	c #9E8062",
"+$	c #E0B486",
"@$	c #FFD49E",
"#$	c #DDB388",
"$$	c #B59473",
"%$	c #A08C77",
"&$	c #998E81",
"*$	c #827363",
"=$	c #9F8368",
"-$	c #68625D",
";$	c #635F55",
">$	c #443F2E",
",$	c #4A4635",
"'$	c #4D4A3A",
")$	c #5D5B50",
"!$	c #585750",
"~$	c #787671",
"{$	c #8E7F71",
"]$	c #B89775",
"^$	c #F5C995",
"/$	c #FFD09C",
"($	c #FFD09B",
"_$	c #FFCB97",
":$	c #EDBC8C",
"<$	c #BE976F",
"[$	c #AE8863",
"}$	c #A3805E",
"|$	c #7B7065",
"1$	c #9B9994",
"2$	c #706D60",
"3$	c #535043",
"4$	c #65635A",
"5$	c #55544C",
"6$	c #727370",
"7$	c #867E76",
"8$	c #B3906B",
"9$	c #E8B887",
"0$	c #FAC793",
"a$	c #FFCD97",
"b$	c #F6C491",
"c$	c #FFCB96",
"d$	c #F6C18E",
"e$	c #E4B180",
"f$	c #C79B71",
"g$	c #917459",
"h$	c #594F45",
"i$	c #4D4B49",
"j$	c #504E46",
"k$	c #444031",
"l$	c #4E4938",
"m$	c #504D3F",
"n$	c #6C6A64",
"o$	c #61605A",
"p$	c #524E46",
"q$	c #675B4E",
"r$	c #836D56",
"s$	c #A98967",
"t$	c #BB956D",
"u$	c #BA956F",
"v$	c #C99E74",
"w$	c #BC936B",
"x$	c #7D644E",
"y$	c #534B46",
"z$	c #606564",
"A$	c #A7A9A9",
"B$	c #B2B1AB",
"C$	c #726F64",
"D$	c #4F4C3C",
"E$	c #5E5B4F",
"F$	c #636055",
"G$	c #616158",
"H$	c #50574D",
"I$	c #47483D",
"J$	c #4D483B",
"K$	c #484437",
"L$	c #5E443A",
"M$	c #6D6053",
"N$	c #4B4945",
"O$	c #909192",
"P$	c #B2BAB8",
"Q$	c #A7A8A2",
"R$	c #7E756B",
"S$	c #494432",
"T$	c #524F40",
"U$	c #59584C",
"V$	c #62655B",
"W$	c #585950",
"X$	c #543B2E",
"Y$	c #6B261B",
"Z$	c #980B08",
"`$	c #920908",
" %	c #6A3B35",
".%	c #B6B7B0",
"+%	c #F0FDFB",
"@%	c #9FA39A",
"#%	c #6B3A2E",
"$%	c #631F11",
"%%	c #2C2810",
"&%	c #5F4137",
"*%	c #872924",
"=%	c #B00B08",
"-%	c #CA0401",
";%	c #F00000",
">%	c #D70000",
",%	c #8B130E",
"'%	c #6A6154",
")%	c #8D988F",
"!%	c #895F56",
"~%	c #9B0C07",
"{%	c #7D1005",
"]%	c #6F1E11",
"^%	c #C50502",
"/%	c #F90000",
"(%	c #FE0000",
"_%	c #FF0000",
":%	c #D20302",
"<%	c #95130A",
"[%	c #7A261B",
"}%	c #9E150F",
"|%	c #B80303",
"1%	c #7D1B11",
"2%	c #4B2D1C",
"3%	c #4D2D1B",
"4%	c #B40904",
"5%	c #F80000",
"6%	c #FC0000",
"7%	c #E10000",
"8%	c #DD0000",
"9%	c #DB0301",
"0%	c #8E1810",
"a%	c #3F2818",
"b%	c #821B12",
"c%	c #E11211",
"d%	c #FF0506",
"e%	c #FB0000",
"f%	c #C40C08",
"g%	c #6F2317",
"h%	c #5C3F30",
"i%	c #C55654",
"j%	c #EA2A2D",
"k%	c #F00303",
"l%	c #A0140C",
"m%	c #3C2F1E",
"n%	c #5A6556",
"o%	c #AA9892",
"p%	c #E37D7D",
"q%	c #E73434",
"r%	c #E80B0B",
"s%	c #F20101",
"t%	c #AB0D08",
"u%	c #5A2417",
"v%	c #788073",
"w%	c #E3D5D4",
"x%	c #F4A9AA",
"y%	c #DF4646",
"z%	c #E70000",
"A%	c #F50000",
"B%	c #E80302",
"C%	c #8C1910",
"D%	c #616051",
"E%	c #B8BDB5",
"F%	c #E0D6D4",
"G%	c #ECADAD",
"H%	c #E05D5D",
"I%	c #E11313",
"J%	c #DF0402",
"K%	c #841C11",
"L%	c #757768",
"M%	c #84877A",
"N%	c #ECE5E4",
"O%	c #F7CDCF",
"P%	c #E05E5E",
"Q%	c #E1191A",
"R%	c #B60603",
"S%	c #6C2114",
"T%	c #433E2D",
"U%	c #3F3B29",
"V%	c #4C493C",
"W%	c #403C2A",
"X%	c #615D4C",
"Y%	c #C4C6C0",
"Z%	c #FAFBFB",
"`%	c #FDE4E4",
" &	c #E2696A",
".&	c #AF1513",
"+&	c #70170D",
"@&	c #3D3928",
"#&	c #3E3928",
"$&	c #413C2A",
"%&	c #454131",
"&&	c #4B483B",
"*&	c #595852",
"=&	c #535048",
"-&	c #433F30",
";&	c #443E2F",
">&	c #848176",
",&	c #EEF0EE",
"'&	c #F5F4F4",
")&	c #B07D75",
"!&	c #8C1309",
"~&	c #511F0F",
"{&	c #293D29",
"]&	c #3B3825",
"^&	c #4B483C",
"/&	c #58554E",
"(&	c #5E5C53",
"_&	c #5F5D55",
":&	c #585752",
"<&	c #49473B",
"[&	c #4A473B",
"}&	c #3E3B2A",
"|&	c #5F5C4B",
"1&	c #D5D4D0",
"2&	c #D7D8D7",
"3&	c #766053",
"4&	c #502716",
"5&	c #443B2D",
"6&	c #4B5046",
"7&	c #605F5B",
"8&	c #747473",
"9&	c #868789",
"0&	c #767671",
"a&	c #524E43",
"b&	c #36321D",
"c&	c #605E4E",
"d&	c #AEADA4",
"e&	c #EAEEED",
"f&	c #8E8F85",
"g&	c #444033",
"h&	c #5B5B57",
"i&	c #7C7C7D",
"j&	c #89898A",
"k&	c #909091",
"l&	c #8A8A8A",
"m&	c #81817E",
"n&	c #605E53",
"o&	c #676254",
"p&	c #D3D1CE",
"q&	c #8F8D85",
"r&	c #5A5B53",
"s&	c #797978",
"t&	c #8E8E8F",
"u&	c #8A8988",
"v&	c #76746E",
"w&	c #5F5C50",
"x&	c #484432",
"y&	c #3D3925",
"z&	c #524D3C",
"A&	c #666353",
"B&	c #4B4635",
"C&	c #565247",
"D&	c #646259",
"E&	c #6C6A61",
"F&	c #575447",
"G&	c #403C29",
"H&	c #44402E",
"                                                                                            ",
"                        . + @ # $                                                           ",
"                    % & * = - ; > , '                                                       ",
"              ) ! ~ { ] ^ / ( _ : < * [ }                                                   ",
"          | 1 2 3 4 5 6 7 8 9 0 a b c d e                                                   ",
"      f g h i j k l m n o p 5 q r s t u v w                                                 ",
"    x y z A B C D E F 0 9 G H I J r K L M N                                                 ",
"    O P Q R S b 8 8 8 T U V W p U o X Y Z `  .                                              ",
"  O ..+.@.#.$.%.8 8 8 8 0 5 &.W *.=.9 G -.;.>.                                              ",
",.'.).!.~.0 p T 8 8 8 8 8 H &.{.].^./.(._.:.<.                                              ",
"[.}.|.b 1.W {.T 8 q o 8 p {.2.I ].3.4.7 J 5.%                                               ",
"6.7.8.9.0.{.a.n 8 b.c.d.U e.f.g.h.i.j.k.l.m.n.                                              ",
"o.p.q.a.5 U 2.T n r.s.r t.1.u.v.w.x.y.z.A.B.C.                                              ",
"D.E.F.U G.t.*.d.t.H.I.J.K.L.M.N.O.P.Q.R.S.T.U.                                              ",
"V.W.X.Y.r.Z.r 8 9./.`. +.+++@+#+$+%+&+*+=+-+;+              >+                              ",
",+'+)+!+=.*.~+{+]+^+/+(+_+:+<+[+}+|+1+2+3+4+5+6+  7+8+9+0+a+b+c+d+e+                        ",
"f+g+h+i+8 I U {.0 j+k+l+m+n+o+p+q+r+s+t+u+v+w+x+y+z+A+B+C+D+E+F+G+H+                        ",
"  I+J+K+L+&.M+9.N+O+P+Q+*+R+S+r+T+U+V+W+X+Y+Z+`+ @.@+@@@#@$@$@$@%@&@*@                      ",
"  =@-@;@>@V ,@0 '@)@!@~@{@]@^@/@U+(@/@_@:@<@[@}@|@1@2@3@4@$@$@$@5@6@                        ",
"    7@8@9@n 0@a@b@c@d@e@f@g@h@i@j@U+U+k@l@m@n@o@p@q@r@s@t@u@v@w@x@y@                        ",
"    z@A@Y.B@].C@D@E@F@G@H@I@J@K@q+q+L@M@N@O@P@Q@R@S@T@U@$@V@W@X@Y@                          ",
"      Z@`@ #.#+#@###$#%#q+&#*#=#M@q+M@-#;#>#,#'#)#!#~#{#]#^#/#                              ",
"      (#_#:#<#[#}#|#1#U+S+2#3#4#=+M@5#6#7#8#9#0#a#b#c#d#e#f#                                ",
"        g#h#i#j#k#l#m#T+U+n#o#p#q#r#s#t#u#v#w#x#y#z#A#B#C#                                  ",
"          D#E#F#G#H#I#J#T+K#s+L#M#N#O#P#Q#R#S#T#U#V#W#X#                                    ",
"          Y#Z#`# $.$+$@$T+T+T+(@#$$$%$&$*$m+=$-$;$>$,$                                      ",
"          '$)$!$~${$]$^$/$T+U+%#($_$:$<$[$}$|$1$2$                                          ",
"          3$4$5$6$7$8$9$0$a$b$c$d$e$f$g$h$i$j$k$l$                                          ",
"            m$n$o$p$q$r$s$t$u$v$w$x$y$z$A$B$C$                                              ",
"            D$E$F$G$H$I$J$K$L$M$N$O$P$Q$R$S$                                                ",
"            T$T$U$V$W$X$Y$Z$`$ %.%+%@%#%$%%%                                                ",
"                  &%*%=%-%;%>%,%'%)%!%~%{%                                                  ",
"                  ]%^%/%(%_%/%:%<%[%}%|%1%2%                                                ",
"                  3%4%5%_%_%_%6%;%7%8%9%0%                                                  ",
"                  a%b%c%d%e%_%_%_%_%_%f%g%                                                  ",
"                    h%i%j%k%6%_%_%_%e%l%m%                                                  ",
"                    n%o%p%q%r%/%(%_%s%t%u%                                                  ",
"                      v%w%x%y%z%A%_%B%C%                                                    ",
"                      D%E%F%G%H%I%A%J%K%                                                    ",
"                        L%M%N%O%P%Q%R%S%              T%U%V%W%                              ",
"                          X%Y%Z%`% &.&+&    @&#&  $&%&&&*&=&-&                              ",
"                          ;&>&,&'&)&!&~&{&]&^&/&(&_&:&<&[&}&                                ",
"                            |&1&2&3&4&5&6&7&8&9&O$0&a&b&                                    ",
"                            c&d&e&f&g&h&i&j&k&l&m&n&                                        ",
"                              o&p&q&r&s&t&u&v&w&x&y&                                        ",
"                              z&A&B&C&D&E&F&G&H&                                            "};
