/* XPM */
static char * playerOne13_xpm[] = {
"46 46 594 2",
"  	c None",
". 	c #4C4838",
"+ 	c #4B4737",
"@ 	c #443F2E",
"# 	c #423E2D",
"$ 	c #4B4838",
"% 	c #4E4B3A",
"& 	c #423D2C",
"* 	c #3A341F",
"= 	c #464334",
"- 	c #3C3724",
"; 	c #4A473B",
"> 	c #403D2D",
", 	c #494636",
"' 	c #7B7974",
") 	c #888785",
"! 	c #7C7A76",
"~ 	c #807F7C",
"{ 	c #7D7E79",
"] 	c #858682",
"^ 	c #72726B",
"/ 	c #454131",
"( 	c #413D2C",
"_ 	c #585751",
": 	c #55544C",
"< 	c #515046",
"[ 	c #585853",
"} 	c #5A5852",
"| 	c #75736E",
"1 	c #8D8E8F",
"2 	c #8F8F92",
"3 	c #8A8B8E",
"4 	c #909093",
"5 	c #818181",
"6 	c #5E5D54",
"7 	c #4F4B3B",
"8 	c #4F4A37",
"9 	c #433E2F",
"0 	c #444030",
"a 	c #444131",
"b 	c #3E3A28",
"c 	c #57544A",
"d 	c #595751",
"e 	c #63615D",
"f 	c #62615F",
"g 	c #646361",
"h 	c #626762",
"i 	c #5A5C56",
"j 	c #64625B",
"k 	c #ADADA9",
"l 	c #E0DEDC",
"m 	c #686455",
"n 	c #3F3B2A",
"o 	c #403C2C",
"p 	c #3F3A29",
"q 	c #3B3A28",
"r 	c #3C3A29",
"s 	c #3D220F",
"t 	c #403621",
"u 	c #B6BAB6",
"v 	c #D7D5D1",
"w 	c #544F3D",
"x 	c #621D0F",
"y 	c #80150B",
"z 	c #826258",
"A 	c #D3D9D7",
"B 	c #D3D2CE",
"C 	c #6A6659",
"D 	c #602517",
"E 	c #990E08",
"F 	c #CB3535",
"G 	c #EBC2C1",
"H 	c #F5FFFF",
"I 	c #DADAD7",
"J 	c #524D3E",
"K 	c #741C11",
"L 	c #AA0C07",
"M 	c #CF1F1F",
"N 	c #EDB6B6",
"O 	c #FFFEFE",
"P 	c #D1D1CC",
"Q 	c #585442",
"R 	c #612617",
"S 	c #AD0D08",
"T 	c #E20000",
"U 	c #D40101",
"V 	c #D14949",
"W 	c #F7D5D6",
"X 	c #DADFDA",
"Y 	c #716E61",
"Z 	c #562819",
"` 	c #9F130B",
" .	c #E80302",
"..	c #FF0000",
"+.	c #E80000",
"@.	c #CD2929",
"#.	c #F0C5C5",
"$.	c #E7E8E6",
"%.	c #5A564A",
"&.	c #472F1D",
"*.	c #C00C07",
"=.	c #FD0000",
"-.	c #F80000",
";.	c #D10000",
">.	c #DB6969",
",.	c #F2D8D8",
"'.	c #BFC4BD",
").	c #757262",
"!.	c #791C11",
"~.	c #AE1009",
"{.	c #F30000",
"].	c #E60000",
"^.	c #CD1717",
"/.	c #E3898A",
"(.	c #DFDDDA",
"_.	c #5F604E",
":.	c #41321F",
"<.	c #A0110A",
"[.	c #EE0000",
"}.	c #FE0000",
"|.	c #F60000",
"1.	c #CB0000",
"2.	c #DF6969",
"3.	c #DAC5C2",
"4.	c #585C4B",
"5.	c #7D1D11",
"6.	c #B10503",
"7.	c #AF0300",
"8.	c #B50400",
"9.	c #EC0100",
"0.	c #EA0000",
"a.	c #E54243",
"b.	c #BD827D",
"c.	c #5F6254",
"d.	c #412A18",
"e.	c #7F0902",
"f.	c #9C0907",
"g.	c #76382F",
"h.	c #85423A",
"i.	c #AB130E",
"j.	c #D40B0B",
"k.	c #B73632",
"l.	c #503524",
"m.	c #3B3723",
"n.	c #4E4635",
"o.	c #664135",
"p.	c #624D40",
"q.	c #98A198",
"r.	c #99B0A7",
"s.	c #5A3727",
"t.	c #C20000",
"u.	c #FB0000",
"v.	c #ED0000",
"w.	c #AF0F0A",
"x.	c #4E2A19",
"y.	c #464331",
"z.	c #6F6C60",
"A.	c #B1B1AC",
"B.	c #B8BEBB",
"C.	c #BAB9B5",
"D.	c #CACCCA",
"E.	c #FFFFFF",
"F.	c #C9D8D2",
"G.	c #724C40",
"H.	c #B60402",
"I.	c #F90000",
"J.	c #FA0000",
"K.	c #FC0000",
"L.	c #BA0B06",
"M.	c #472E1D",
"N.	c #524E3C",
"O.	c #55503F",
"P.	c #4A4737",
"Q.	c #595546",
"R.	c #B4B3AE",
"S.	c #BAB8B4",
"T.	c #C1BBB3",
"U.	c #F7F3F1",
"V.	c #FFFDFC",
"W.	c #FEFCFB",
"X.	c #DEE2DB",
"Y.	c #87695F",
"Z.	c #850C02",
"`.	c #B40100",
" +	c #BC0702",
".+	c #AC0E09",
"++	c #BC0504",
"@+	c #A3100B",
"#+	c #472613",
"$+	c #474231",
"%+	c #575244",
"&+	c #6D6255",
"*+	c #AFABA3",
"=+	c #BDB4A9",
"-+	c #CDC3BC",
";+	c #C7C4C0",
">+	c #EFECEA",
",+	c #FFFFFB",
"'+	c #DEF8FF",
")+	c #C8F3FF",
"!+	c #DCF7FF",
"~+	c #D0F3FF",
"{+	c #D5F6FF",
"]+	c #D1F6FE",
"^+	c #ECEDEB",
"/+	c #969288",
"(+	c #583A2E",
"_+	c #4A3021",
":+	c #4D2C1B",
"<+	c #583F33",
"[+	c #5D3D34",
"}+	c #613D33",
"|+	c #4F4B3A",
"1+	c #5A5647",
"2+	c #464134",
"3+	c #605C51",
"4+	c #ABA9A3",
"5+	c #B8B7B2",
"6+	c #C3C7C3",
"7+	c #C9E8F2",
"8+	c #CEF4FF",
"9+	c #DEF7FD",
"0+	c #D4F6FF",
"a+	c #C4F5FF",
"b+	c #CCF2FC",
"c+	c #3DB9F1",
"d+	c #2FB0EF",
"e+	c #26B2F3",
"f+	c #33B4EF",
"g+	c #2BAFEF",
"h+	c #4EBDEE",
"i+	c #8BBACD",
"j+	c #76756E",
"k+	c #60574C",
"l+	c #4D544D",
"m+	c #4C5345",
"n+	c #5C655A",
"o+	c #646960",
"p+	c #60665C",
"q+	c #4E5141",
"r+	c #87847C",
"s+	c #A09F97",
"t+	c #BFBEBC",
"u+	c #C3C2BD",
"v+	c #F2EEEB",
"w+	c #F8FDFE",
"x+	c #BEEDFF",
"y+	c #5CCEFF",
"z+	c #1BB1F7",
"A+	c #46B8F1",
"B+	c #2DB3ED",
"C+	c #24B4F4",
"D+	c #3DABE1",
"E+	c #0084C6",
"F+	c #007DBE",
"G+	c #017DBB",
"H+	c #007DBD",
"I+	c #0C85C2",
"J+	c #2290C4",
"K+	c #3B85A4",
"L+	c #78695F",
"M+	c #645F57",
"N+	c #605F54",
"O+	c #645F54",
"P+	c #5C584C",
"Q+	c #6F6D64",
"R+	c #5A584B",
"S+	c #4D4937",
"T+	c #A6A49E",
"U+	c #F6F7F9",
"V+	c #FCFCFD",
"W+	c #FAFAFA",
"X+	c #FEFEFE",
"Y+	c #F0FDFF",
"Z+	c #A0E4FF",
"`+	c #4EC2FA",
" @	c #0E9BE5",
".@	c #007FC3",
"+@	c #007FBF",
"@@	c #017CB7",
"#@	c #007EC1",
"$@	c #007FBC",
"%@	c #0077AF",
"&@	c #0076AC",
"*@	c #0077AE",
"=@	c #0078AB",
"-@	c #0076AD",
";@	c #008AD1",
">@	c #35A0D4",
",@	c #728285",
"'@	c #5A5343",
")@	c #5D5B4F",
"!@	c #626056",
"~@	c #6A6860",
"{@	c #646257",
"]@	c #555245",
"^@	c #494432",
"/@	c #C5C5C4",
"(@	c #D9F4FF",
"_@	c #6CCCFE",
":@	c #11A5F4",
"<@	c #0089D3",
"[@	c #0075A8",
"}@	c #0072A4",
"|@	c #0076AB",
"1@	c #0074A8",
"2@	c #0075A9",
"3@	c #007AB1",
"4@	c #007AB2",
"5@	c #0079B0",
"6@	c #0088CD",
"7@	c #24A3E0",
"8@	c #578291",
"9@	c #594C38",
"0@	c #73726C",
"a@	c #5C5A50",
"b@	c #6E6C65",
"c@	c #484433",
"d@	c #75746E",
"e@	c #44402F",
"f@	c #524F3F",
"g@	c #B0AEA9",
"h@	c #EAEAE8",
"i@	c #F4FAFD",
"j@	c #C8F0FF",
"k@	c #4EC3FC",
"l@	c #009BEC",
"m@	c #0084C3",
"n@	c #007EBC",
"o@	c #007BBC",
"p@	c #007FBE",
"q@	c #007EB9",
"r@	c #0077AA",
"s@	c #0079AF",
"t@	c #0075AB",
"u@	c #007AB4",
"v@	c #0788C9",
"w@	c #2495CC",
"x@	c #648996",
"y@	c #5B5444",
"z@	c #73716B",
"A@	c #575346",
"B@	c #646259",
"C@	c #6B6961",
"D@	c #6A685F",
"E@	c #504D3D",
"F@	c #747165",
"G@	c #939289",
"H@	c #BBBAB6",
"I@	c #B5B4B1",
"J@	c #CCCDCB",
"K@	c #F7F4F4",
"L@	c #93DEFD",
"M@	c #4EC9FD",
"N@	c #26B6F4",
"O@	c #2BB0EF",
"P@	c #31B5F0",
"Q@	c #29B1F2",
"R@	c #37ACE6",
"S@	c #0087CC",
"T@	c #0079B9",
"U@	c #007CB8",
"V@	c #007FBD",
"W@	c #007CC0",
"X@	c #0188C8",
"Y@	c #2A88B3",
"Z@	c #517F95",
"`@	c #796F67",
" #	c #665A4C",
".#	c #656158",
"+#	c #66655C",
"@#	c #615F55",
"##	c #656257",
"$#	c #555244",
"%#	c #524F40",
"&#	c #585447",
"*#	c #524E3E",
"=#	c #4D493B",
"-#	c #5B5849",
";#	c #A3A29C",
">#	c #C8BFB8",
",#	c #C3C5C2",
"'#	c #C1DDE6",
")#	c #EAFFFF",
"!#	c #D0F3FC",
"~#	c #D0F4FF",
"{#	c #E7FDFF",
"]#	c #C0EFFF",
"^#	c #42BBEF",
"/#	c #21AFF4",
"(#	c #31B2EC",
"_#	c #31B4F0",
":#	c #31B1F4",
"<#	c #3FBBF7",
"[#	c #6CADC7",
"}#	c #7D7F76",
"|#	c #4A4E45",
"1#	c #455147",
"2#	c #4B5245",
"3#	c #4D5042",
"4#	c #5E6960",
"5#	c #63655B",
"6#	c #555346",
"7#	c #504B3A",
"8#	c #555144",
"9#	c #655E50",
"0#	c #AFAAA5",
"a#	c #C7BEB5",
"b#	c #C7BBB4",
"c#	c #CBC4BE",
"d#	c #F5F2F1",
"e#	c #F1FDFF",
"f#	c #DCF6FE",
"g#	c #D5F7FF",
"h#	c #C9F3FF",
"i#	c #DAF5FF",
"j#	c #D6F6FF",
"k#	c #CBF1FF",
"l#	c #FEF6F1",
"m#	c #B9A59B",
"n#	c #5D382C",
"o#	c #442D1C",
"p#	c #543527",
"q#	c #593B2F",
"r#	c #624841",
"s#	c #5D443A",
"t#	c #5A584C",
"u#	c #595545",
"v#	c #413D2A",
"w#	c #5B5748",
"x#	c #B3B1AC",
"y#	c #BEBAB4",
"z#	c #C6C0BA",
"A#	c #FAF4F3",
"B#	c #FFFEFD",
"C#	c #FEFDFC",
"D#	c #BECDC6",
"E#	c #886C66",
"F#	c #910E0D",
"G#	c #B80201",
"H#	c #B10904",
"I#	c #B90704",
"J#	c #BD0504",
"K#	c #9F130D",
"L#	c #4D2512",
"M#	c #555141",
"N#	c #413D2E",
"O#	c #6C695F",
"P#	c #B8B7B3",
"Q#	c #BDBFBD",
"R#	c #AAB4AF",
"S#	c #B9C1BD",
"T#	c #FBFDFE",
"U#	c #DAE2DE",
"V#	c #704D42",
"W#	c #9E0000",
"X#	c #B50B05",
"Y#	c #492E1C",
"Z#	c #4B4634",
"`#	c #4B4332",
" $	c #753F35",
".$	c #685648",
"+$	c #AFB5AE",
"@$	c #97AAA2",
"#$	c #643D2F",
"$$	c #BF0503",
"%$	c #B10B07",
"&$	c #4A2516",
"*$	c #32240D",
"=$	c #820B01",
"-$	c #990F0A",
";$	c #823D34",
">$	c #6D382C",
",$	c #9E0E06",
"'$	c #FD0C0D",
")$	c #BC3330",
"!$	c #4C3928",
"~$	c #6C2013",
"{$	c #AC0705",
"]$	c #C20100",
"^$	c #BC0400",
"/$	c #F20000",
"($	c #F40000",
"_$	c #E92E31",
":$	c #BF7F7C",
"<$	c #616658",
"[$	c #502B1B",
"}$	c #A90F0A",
"|$	c #E40201",
"1$	c #EA0808",
"2$	c #E65757",
"3$	c #D3C1BF",
"4$	c #5A6555",
"5$	c #6C2417",
"6$	c #A9130C",
"7$	c #F70000",
"8$	c #DB3333",
"9$	c #F5ADAE",
"0$	c #D3D6D2",
"a$	c #5E6050",
"b$	c #4E2A1B",
"c$	c #CA0704",
"d$	c #E70000",
"e$	c #E46363",
"f$	c #EBD1D1",
"g$	c #B9BCB4",
"h$	c #767265",
"i$	c #582417",
"j$	c #9D110B",
"k$	c #E10403",
"l$	c #D92D2D",
"m$	c #EDB3B4",
"n$	c #E3DCDA",
"o$	c #5E6251",
"p$	c #5D2819",
"q$	c #B10F09",
"r$	c #E80303",
"s$	c #DC5656",
"t$	c #FCE8E9",
"u$	c #D5D7D3",
"v$	c #635F4F",
"w$	c #712114",
"x$	c #B20602",
"y$	c #DB292A",
"z$	c #F8C3C3",
"A$	c #CFCEC9",
"B$	c #514C3E",
"C$	c #622417",
"D$	c #8E110B",
"E$	c #C93030",
"F$	c #DABDB9",
"G$	c #FBFFFF",
"H$	c #D7D6D2",
"I$	c #585443",
"J$	c #5B190A",
"K$	c #84150A",
"L$	c #7D5A4D",
"M$	c #D1D1CF",
"N$	c #D7D7D3",
"O$	c #6C6A5B",
"P$	c #3F3A2A",
"Q$	c #323F2D",
"R$	c #413B2C",
"S$	c #462C1C",
"T$	c #514434",
"U$	c #C5CBC7",
"V$	c #EBEAE8",
"W$	c #545040",
"X$	c #474435",
"Y$	c #3F3B29",
"Z$	c #504D40",
"`$	c #5E5B56",
" %	c #62615C",
".%	c #646360",
"+%	c #62615D",
"@%	c #636460",
"#%	c #56554F",
"$%	c #4D4E43",
"%%	c #9D9C95",
"&%	c #C1BEB9",
"*%	c #595444",
"=%	c #535048",
"-%	c #5C5B57",
";%	c #504F45",
">%	c #53514A",
",%	c #605F5C",
"'%	c #7B7B76",
")%	c #929395",
"!%	c #8C8D90",
"~%	c #909092",
"{%	c #8C8C8E",
"]%	c #919194",
"^%	c #7D7D7D",
"/%	c #62615A",
"(%	c #524D3F",
"_%	c #4C4836",
":%	c #403C2B",
"<%	c #413E2E",
"[%	c #49463A",
"}%	c #393521",
"|%	c #535045",
"1%	c #72716B",
"2%	c #838380",
"3%	c #82817E",
"4%	c #7D7C77",
"5%	c #83817E",
"6%	c #807F7B",
"7%	c #545144",
"8%	c #4A4636",
"9%	c #4C4837",
"0%	c #4A4635",
"a%	c #423E2C",
"b%	c #4C4839",
"c%	c #36301A",
"                                                                  . + @ # $ % & *           ",
"                                                        = - ; > , ' ) ! ~ { ] ^ /           ",
"                                                      ( _ : < [ } | 1 2 3 1 4 5 6 7 8       ",
"                                                        9 0 a b = c d e f g h i j k l m     ",
"                                                                    n o p q r s t u v w     ",
"                                                                            x y z A B C     ",
"                                                                          D E F G H I J     ",
"                                                                          K L M N O P Q     ",
"                                                                        R S T U V W X Y     ",
"                                                                      Z `  ...+.@.#.$.%.    ",
"                                                                      &.*.=...-.;.>.,.'.).  ",
"                                                                    !.~.{.......].^./.(._.  ",
"                                                                  :.<.[.......}.|.1.2.3.4.  ",
"                                                                  5.6.7.8.9.=...=.0.a.b.c.  ",
"                                                                d.e.f.g.h.i.+.....|.j.k.l.  ",
"                                                              m.n.o.p.q.r.s.t.u.....v.w.x.  ",
"                                                        % y.z.A.B.C.D.E.F.G.H.I.J.K.J.L.M.  ",
"                                                N.O.P.Q.R.S.T.U.E.V.W.E.X.Y.Z.`. +.+++@+#+  ",
"                                          $+%+&+*+=+-+;+>+,+'+)+!+~+{+]+^+/+(+_+:+<+[+}+    ",
"                                  |+1+2+3+4+5+6+7+8+9+0+a+b+c+d+e+f+g+h+i+j+k+l+m+n+o+p+q+  ",
"                                r+s+5+t+u+v+w+x+y+z+A+B+C+D+E+F+G+H+F+I+J+K+L+M+N+O+P+Q+R+$ ",
"                              S+T+U+V+W+X+Y+Z+`+ @.@+@@@#@$@%@&@*@=@-@*@;@>@,@'@)@!@~@{@~@]@",
"                              ^@/@E.E.E.E.(@_@:@<@[@}@|@1@2@3@3@4@3@5@2@6@7@8@9@0@a@b@c@d@e@",
"                              f@g@h@E.E.V.i@j@k@l@m@n@o@p@q@3@|@r@s@t@u@v@w@x@y@z@A@B@C@D@E@",
"                                F@G@H@I@J@K@E.L@M@N@O@P@Q@R@S@T@U@V@W@X@Y@Z@`@ #.#+#@###$#%#",
"                                  &#*#=#-#;#>#,#'#)#!#~#{#]#^#/#(#_#:#<#[#}#|#1#2#3#4#5#6#  ",
"                                          7#8#9#0#a#b#c#d#e#f#g#h#i#j#k#l#m#n#o#p#q#r#s#    ",
"                                                t#u#v#w#x#y#z#A#B#E.C#E.D#E#F#G#H#I#J#K#L#  ",
"                                                        M#N#O#P#Q#R#S#T#U#V#W#u.=.I...X#Y#  ",
"                                                              Z#`# $.$+$@$#$$$u.....I.%$&$  ",
"                                                                *$=$-$;$>$,$0.....u.'$)$!$  ",
"                                                                  ~${$]$^$/$....}.($_$:$<$  ",
"                                                                  [$}$|$J.......=.1$2$3$4$  ",
"                                                                    5$6$7$..}...{.8$9$0$a$  ",
"                                                                      b$c$u...I.d$e$f$g$h$  ",
"                                                                      i$j$k$../$l$m$n$o$    ",
"                                                                        p$q$/$r$s$t$u$v$    ",
"                                                                          w$x$y$z$E.A$B$    ",
"                                                                          C$D$E$F$G$H$I$    ",
"                                                                            J$K$L$M$N$O$    ",
"                                                                    P$N#- Q$R$S$T$U$V$W$    ",
"                                                        X$Y$/ e@@ Z$`$ %.%+%@%#%$%%%&%*%    ",
"                                                      Y$=%-%;%>%,%'%)%!%~%{%]%^%/%(%_%      ",
"                                                        :%<%[%}%|%1%2%3%4%5%6%d@7%          ",
"                                                                  8%v#9%0%a%b%v#c%          ",
"                                                                                            "};
