/* XPM */
static char * playerOne02_xpm[] = {
"46 46 500 2",
"  	c None",
". 	c #4E4A39",
"+ 	c #474331",
"@ 	c #2D2812",
"# 	c #312C17",
"$ 	c #A1A09A",
"% 	c #CECDCB",
"& 	c #D7D8D9",
"* 	c #A2A19C",
"= 	c #514D3C",
"- 	c #545040",
"; 	c #DDDDDF",
"> 	c #FFFFFF",
", 	c #F5F5F6",
"' 	c #5D594A",
") 	c #221C05",
"! 	c #93918A",
"~ 	c #F0F1F2",
"{ 	c #FAFAFB",
"] 	c #AAA9A5",
"^ 	c #2F2914",
"/ 	c #342F18",
"( 	c #4D4A3F",
"_ 	c #413D2C",
": 	c #494433",
"< 	c #737064",
"[ 	c #CCCCCC",
"} 	c #FDFDFD",
"| 	c #E1E2E3",
"1 	c #636052",
"2 	c #393420",
"3 	c #666667",
"4 	c #3E3928",
"5 	c #29230D",
"6 	c #86847B",
"7 	c #F5F6F9",
"8 	c #FAFAFA",
"9 	c #BBBBBA",
"0 	c #38331E",
"a 	c #49463A",
"b 	c #5B5A55",
"c 	c #36301A",
"d 	c #3A3521",
"e 	c #BFBFBE",
"f 	c #FFFDFB",
"g 	c #A3E2FF",
"h 	c #FBFEFF",
"i 	c #FBFCFD",
"j 	c #9B9992",
"k 	c #231D06",
"l 	c #35301A",
"m 	c #5E5E5B",
"n 	c #454233",
"o 	c #28220C",
"p 	c #78766B",
"q 	c #EDE5E2",
"r 	c #D2EAF5",
"s 	c #B5EAFF",
"t 	c #1BB7FF",
"u 	c #00ABFF",
"v 	c #E1E1E4",
"w 	c #484433",
"x 	c #474334",
"y 	c #5F5F5E",
"z 	c #35301B",
"A 	c #B8B7B5",
"B 	c #FFFFFA",
"C 	c #35C2FF",
"D 	c #00ACFF",
"E 	c #0095DD",
"F 	c #00A0F3",
"G 	c #6ED3FF",
"H 	c #FFFCF5",
"I 	c #A6A5A1",
"J 	c #2F2A15",
"K 	c #322D17",
"L 	c #777570",
"M 	c #97989A",
"N 	c #565347",
"O 	c #312C14",
"P 	c #545141",
"Q 	c #E3E0E0",
"R 	c #E4F9FF",
"S 	c #00A8F9",
"T 	c #007AB1",
"U 	c #0078AE",
"V 	c #019FE8",
"W 	c #07B2FF",
"X 	c #D8E9F2",
"Y 	c #6C685B",
"Z 	c #413C2A",
"` 	c #8F8F8F",
" .	c #8C8C8C",
"..	c #56544D",
"+.	c #302B16",
"@.	c #9E9D97",
"#.	c #C4C3C0",
"$.	c #FFFAF5",
"%.	c #74D9FF",
"&.	c #0091DA",
"*.	c #0076AB",
"=.	c #0078AD",
"-.	c #0080BC",
";.	c #1AB9FF",
">.	c #C9C9C9",
",.	c #3E3926",
"'.	c #302A14",
").	c #636056",
"!.	c #949496",
"~.	c #808081",
"{.	c #575651",
"].	c #36301B",
"^.	c #504C3B",
"/.	c #DBDCDD",
"(.	c #FEFFFF",
"_.	c #0BB3FF",
":.	c #007FB9",
"<.	c #0079AF",
"[.	c #0096E3",
"}.	c #92E2FF",
"|.	c #FFF5F0",
"1.	c #8D8B83",
"2.	c #2A250F",
"3.	c #38331F",
"4.	c #878786",
"5.	c #8F8F90",
"6.	c #6F6F71",
"7.	c #433F31",
"8.	c #2D2711",
"9.	c #666255",
"0.	c #929189",
"a.	c #FAF2F0",
"b.	c #F0FDFF",
"c.	c #A9E7FF",
"d.	c #009CED",
"e.	c #0076AC",
"f.	c #0079B0",
"g.	c #007CB5",
"h.	c #01AEFE",
"i.	c #F6FDFF",
"j.	c #D9D7D8",
"k.	c #535042",
"l.	c #939495",
"m.	c #868687",
"n.	c #5E5D5B",
"o.	c #4B2D1B",
"p.	c #2D3923",
"q.	c #4F2C1B",
"r.	c #412D1B",
"s.	c #484331",
"t.	c #DCDDDF",
"u.	c #FFFFFE",
"v.	c #0CB5FF",
"w.	c #0189C7",
"x.	c #007FBB",
"y.	c #008ED5",
"z.	c #5DCFFF",
"A.	c #FFFFFC",
"B.	c #B2B1AD",
"C.	c #262009",
"D.	c #342F1A",
"E.	c #7E7E7A",
"F.	c #959596",
"G.	c #767778",
"H.	c #4B483D",
"I.	c #2F311A",
"J.	c #233C25",
"K.	c #3A3320",
"L.	c #602416",
"M.	c #373521",
"N.	c #7E180F",
"O.	c #C30302",
"P.	c #AE0704",
"Q.	c #C10101",
"R.	c #681306",
"S.	c #7E847A",
"T.	c #EBECED",
"U.	c #BCEBFF",
"V.	c #009FF0",
"W.	c #009CE8",
"X.	c #DDF6FF",
"Y.	c #ECEDEF",
"Z.	c #696659",
"`.	c #4F4C3E",
" +	c #666666",
".+	c #383825",
"++	c #442F1D",
"@+	c #97100A",
"#+	c #662215",
"$+	c #8D120B",
"%+	c #C60603",
"&+	c #E10000",
"*+	c #CD0201",
"=+	c #FA0000",
"-+	c #FC0000",
";+	c #B60201",
">+	c #90150E",
",+	c #38321E",
"'+	c #BCBCBB",
")+	c #46C8FF",
"!+	c #0089CD",
"~+	c #0077AD",
"{+	c #007EBB",
"]+	c #47C7FF",
"^+	c #FFFEFD",
"/+	c #CACACA",
"(+	c #3F3A27",
"_+	c #383423",
":+	c #58564D",
"<+	c #302C16",
"[+	c #3E1E0B",
"}+	c #C60101",
"|+	c #C10000",
"1+	c #CA0000",
"2+	c #FD0000",
"3+	c #FF0000",
"4+	c #E30000",
"5+	c #5F1407",
"6+	c #6A8174",
"7+	c #DFE0E1",
"8+	c #F4F4F4",
"9+	c #E5F7FF",
"0+	c #00A9FB",
"a+	c #0095E2",
"b+	c #88DDFF",
"c+	c #FFFBF6",
"d+	c #8C8A82",
"e+	c #1F1902",
"f+	c #2F2913",
"g+	c #C6C5C4",
"h+	c #B5B4B1",
"i+	c #5F6557",
"j+	c #B4B6AE",
"k+	c #F8C7C8",
"l+	c #C41F1F",
"m+	c #DA0101",
"n+	c #FE0000",
"o+	c #900F08",
"p+	c #A0A09A",
"q+	c #6DD6FF",
"r+	c #0090DC",
"s+	c #007AB0",
"t+	c #007CB4",
"u+	c #00AEFE",
"v+	c #F2FBFF",
"w+	c #CFCFCE",
"x+	c #5E5A49",
"y+	c #FCFCFC",
"z+	c #EEEFF1",
"A+	c #FEFEFE",
"B+	c #D24545",
"C+	c #C20000",
"D+	c #CA0100",
"E+	c #342A15",
"F+	c #565F4D",
"G+	c #B7BEB6",
"H+	c #97CFEB",
"I+	c #008AC9",
"J+	c #0077AC",
"K+	c #008CD3",
"L+	c #59CEFF",
"M+	c #F8F9F9",
"N+	c #BAB9B8",
"O+	c #342F1B",
"P+	c #36301C",
"Q+	c #747062",
"R+	c #D0CFCA",
"S+	c #EBB6B6",
"T+	c #BB0000",
"U+	c #ED0000",
"V+	c #C50000",
"W+	c #950200",
"X+	c #77594E",
"Y+	c #AAA7A1",
"Z+	c #6A726D",
"`+	c #00A0EC",
" @	c #0074A8",
".@	c #0174A9",
"+@	c #00A3F6",
"@@	c #CEF1FF",
"#@	c #E8E8EA",
"$@	c #72786D",
"%@	c #422411",
"&@	c #353621",
"*@	c #433F2F",
"=@	c #534E3D",
"-@	c #A7A59C",
";@	c #F9F8F8",
">@	c #FEE4E4",
",@	c #CB3232",
"'@	c #E70101",
")@	c #D00000",
"!@	c #3F210D",
"~@	c #545650",
"{@	c #726056",
"]@	c #2E95C5",
"^@	c #00A5F8",
"/@	c #0088C9",
"(@	c #0089CC",
"_@	c #15A8EB",
":@	c #42C3FF",
"<@	c #CBCBCB",
"[@	c #30331E",
"}@	c #223D25",
"|@	c #646464",
"1@	c #231E07",
"2@	c #C82222",
"3@	c #D40000",
"4@	c #F00000",
"5@	c #9B0C07",
"6@	c #373F2D",
"7@	c #676769",
"8@	c #6E6C63",
"9@	c #60A1C0",
"0@	c #16B1F9",
"a@	c #467A93",
"b@	c #707F7E",
"c@	c #F4E9E4",
"d@	c #EFF0F0",
"e@	c #7C685D",
"f@	c #BB0100",
"g@	c #A70A06",
"h@	c #36311C",
"i@	c #969489",
"j@	c #ECEDEC",
"k@	c #FFD8D9",
"l@	c #D95B5C",
"m@	c #D70000",
"n@	c #5A2010",
"o@	c #2E321C",
"p@	c #5D5B51",
"q@	c #4B4736",
"r@	c #3B3521",
"s@	c #615443",
"t@	c #89817A",
"u@	c #898483",
"v@	c #403C2E",
"w@	c #7A8477",
"x@	c #D7DBD6",
"y@	c #E9E9EB",
"z@	c #4E6A59",
"A@	c #800D04",
"B@	c #EA0000",
"C@	c #A1100A",
"D@	c #263C25",
"E@	c #211C05",
"F@	c #72796A",
"G@	c #BA8580",
"H@	c #C30000",
"I@	c #F20000",
"J@	c #B50808",
"K@	c #484A3E",
"L@	c #575447",
"M@	c #82817F",
"N@	c #878685",
"O@	c #5E5B50",
"P@	c #38321D",
"Q@	c #5D5C57",
"R@	c #464F47",
"S@	c #662416",
"T@	c #7A0400",
"U@	c #3B2310",
"V@	c #504939",
"W@	c #6D1C10",
"X@	c #C00000",
"Y@	c #E50000",
"Z@	c #4B2C1B",
"`@	c #233D25",
" #	c #3E3927",
".#	c #616161",
"+#	c #2E3520",
"@#	c #482D1B",
"##	c #7D180F",
"$#	c #C40000",
"%#	c #801E17",
"&#	c #4B564C",
"*#	c #524E3F",
"=#	c #67655C",
"-#	c #44402F",
";#	c #706F68",
">#	c #8D8D8D",
",#	c #454234",
"'#	c #353C29",
")#	c #A10904",
"!#	c #E40000",
"~#	c #C60000",
"{#	c #C60301",
"]#	c #F70000",
"^#	c #A30906",
"/#	c #672115",
"(#	c #342E1A",
"_#	c #5E5C51",
":#	c #676661",
"<#	c #332D17",
"[#	c #2A3A24",
"}#	c #3A3420",
"|#	c #7C7D79",
"1#	c #504C3D",
"2#	c #68665D",
"3#	c #8B8B8A",
"4#	c #797874",
"5#	c #4A4636",
"6#	c #585549",
"7#	c #5B5D51",
"8#	c #4D2B1A",
"9#	c #CD0000",
"0#	c #F90000",
"a#	c #A10F0A",
"b#	c #273B25",
"c#	c #3B3623",
"d#	c #646465",
"e#	c #98999B",
"f#	c #484333",
"g#	c #413D2B",
"h#	c #838381",
"i#	c #545143",
"j#	c #848482",
"k#	c #4E5A50",
"l#	c #851109",
"m#	c #E90000",
"n#	c #4C2C1B",
"o#	c #342E18",
"p#	c #757577",
"q#	c #919292",
"r#	c #7D7C78",
"s#	c #514E3F",
"t#	c #7A7975",
"u#	c #4B4738",
"v#	c #7D7E7B",
"w#	c #59524C",
"x#	c #BF0101",
"y#	c #FF0101",
"z#	c #A80905",
"A#	c #6B2114",
"B#	c #37321D",
"C#	c #5C5C59",
"D#	c #858586",
"E#	c #949495",
"F#	c #565345",
"G#	c #423E2C",
"H#	c #6B6961",
"I#	c #565346",
"J#	c #434433",
"K#	c #631809",
"L#	c #E70000",
"M#	c #DB0000",
"N#	c #D90B0B",
"O#	c #BE0000",
"P#	c #9E0703",
"Q#	c #2B3620",
"R#	c #433E2F",
"S#	c #6E6E6F",
"T#	c #898988",
"U#	c #452F1D",
"V#	c #791A10",
"W#	c #B20000",
"X#	c #EC696A",
"Y#	c #D14C4D",
"Z#	c #D54D4D",
"`#	c #E19B9B",
" $	c #D04848",
".$	c #F7E3E3",
"+$	c #D76A6A",
"@$	c #F1B5B5",
"#$	c #B50806",
"$$	c #502715",
"%$	c #545751",
"&$	c #7F7F80",
"*$	c #66635A",
"=$	c #293A24",
"-$	c #383420",
";$	c #78776A",
">$	c #D8E7E3",
",$	c #F8FBFA",
"'$	c #E3EDEB",
")$	c #393F2B",
"!$	c #2F2B16",
"~$	c #4D4B43",
"{$	c #8B8B8B",
"]$	c #969698",
"^$	c #433F2D",
"/$	c #2B2611",
"($	c #575241",
"_$	c #AAA8A0",
":$	c #D0CFCB",
"<$	c #D3D4D5",
"[$	c #ACAAA6",
"}$	c #5C5A4F",
"|$	c #5A5954",
"1$	c #4E4A3A",
"2$	c #342E19",
"3$	c #2B2510",
"4$	c #55513F",
"5$	c #ADABA3",
"6$	c #FCFCFB",
"7$	c #4B4634",
"8$	c #241E08",
"9$	c #3D3825",
"0$	c #7D7A6C",
"a$	c #29240E",
"                                                        . + @                               ",
"                                                    # $ % & * =                             ",
"                                                    - ; > > , '                             ",
"                                                  ) ! ~ > > { ] ^                           ",
"          / ( _                                 : < [ } > > | 1                             ",
"          2 3 4                               5 6 7 > > > 8 9 0                             ",
"          a b c                               d e f > g h i j k                             ",
"        l m n                             o p q r s t u > > v .                             ",
"      w x y 0                             z A B C D E F G H I J                             ",
"    K L M N O                             P Q R S T U V W X Y                               ",
"    Z `  ...                          +.@.#.$.%.&.*.=.-.;.> >.,.                            ",
"  '.).!.~.{.].                        ^./.> (._.:.<.*.[.}.|.1.2.                            ",
"  3.4.5.6.7.                      8.9.0.a.b.c.d.e.f.g.h.i.j.^.                              ",
"  k.l.m.n.0               o.p.q.r.s.t.> u.v.w.x.U *.y.z.A.B.C.                              ",
"D.E.F.G.H.I.  J.  K.L.M.N.O.P.Q.R.S.T.> U.V.*.T T f.W.X.> Y.Z.                              ",
"0 `.~. +.+++@+#+$+%+&+*+=+-+;+>+,+'+{ > )+!+~+T T =.{+]+^+/+(+                              ",
"  _+:+<+[+}+|+1+2+3+3+2+3+4+5+6+7+8+> 9+0+T T T T *.a+b+c+d+e+                              ",
"  f+g+h+i+j+k+l+m+3+n+n+n+n+o+p+> > > q+r+*.T T s+t+u+v+> w+^.                              ",
"  x+y+> z+A+> B+C+4+2+n+n+3+D+E+F+G+> H+I+U T T J+K+L+> M+N+O+                              ",
"    P+Q+R+> > > S+T+n+3+n+3+U+V+W+X+Y+Z+`+ @=.T .@+@@@> #@$@%@&@                      *@3.  ",
"        2.=@-@;@>@,@|+'@3+n+3+n+)@!@~@{@]@^@/@(@_@:@> A+<@[@C+q.}@                  0 |@_   ",
"            1@2 > > 2@3@3+3+3+4@5@6@7@8@ .9@0@a@b@c@> > d@e@f@g@#+                  n m h@  ",
"                i@j@k@l@|+3+3+m@n@o@p@q@r@s@t@u@v@>.w@x@y@z@A@B@C@D@              c b a     ",
"                E@D.F@G@H@B@I@J@K@ .L@M@N@O@P@Q@R@S@T@U@V@W@X@n+Y@Z@`@             #.#2     ",
"                      +#@###$#%#&#*#=# #-#;#>#,#'#)#!#~#{#]#3+3+=+^#/#          (#_#:#<#    ",
"                          [#}#  |#1#2#3#4#5#6#7#8#9#3+n+3+3+n+n+3+0#a#b#      c#d#3#e#f#    ",
"                                g#h#i#2 i#j#q@k#l#m#3+n+n+n+n+n+n+3+Y@n#`@  o#a p#q#r#D.    ",
"                                h@s#t#3#2#u#v#w#x#3+3+n+3+3+3+y#n+y#0#z#A#  B#C#D#E#F#      ",
"                                    K G#H#I#J#K#)@L#0#2+4+n+3@I@)@M#N#O#P#Q#R#S#` T#d       ",
"                                        '.    p.U#V#W#X#Y#Z#`# $.$+$> @$#$$$%$&$E#*$'.      ",
"                                                  =$-$;$>$> > ,$> > > '$)$!$~${$]$^$        ",
"                                                        /$($_$2 Q+:$> > <$[$}$|$1$2$        ",
"                                                                  3$4$5$6$> 7$  D.          ",
"                                                                      8$9$0$a$              ",
"                                                                                            ",
"                                                                                            ",
"                                                                                            ",
"                                                                                            ",
"                                                                                            ",
"                                                                                            ",
"                                                                                            ",
"                                                                                            ",
"                                                                                            ",
"                                                                                            ",
"                                                                                            ",
"                                                                                            "};
