/* XPM */
static char * playerOne09_xpm[] = {
"46 46 10 1",
" 	c None",
".	c #393420",
"+	c #8C8C8C",
"@	c #FFFFFF",
"#	c #C10000",
"$	c #FE0000",
"%	c #646464",
"&	c #CACACA",
"*	c #00AEFE",
"=	c #007AB1",
"                                              ",
"                                              ",
"                                              ",
"                                              ",
"                                              ",
"                                              ",
"                                              ",
"                                              ",
"                                              ",
"                                              ",
"                                              ",
"                                              ",
"                                              ",
"                                              ",
"                                              ",
"                    .....                     ",
"          ........ .+++++. ........           ",
"   .......@@@@####.+.....+.####@@@@.......    ",
"  .@@@@@@@@@###$$#%.+++++.%#$$$##@@@@@@@@@.   ",
"  .&&&@@@@###$$$$#.+.....+.#$$$$$##@@@@&&&.   ",
"..%...@@###$$$$$$#..+++++..#$$$$$$$##@@...%.. ",
".++%.####$$$$$$$$#.%.....%.#$$$$$$$$$###.%++. ",
".++%..##$$$$$$$###.%+++++%.###$$$$$$$##..%++. ",
".++%. ..#$$$$$#...&.%***%.&...#$$$$$#.. .%++. ",
".++%.   .##$$#.&@@@&*===*&@@@&.#$$##.   .%++. ",
".++%.    ..#$#.&@@@*=====*@@@&.#$#..    .%++. ",
".++%.      .###.&@@*=====*@@&.###.      .%++. ",
".++.        ..#.&@@*=====*@@&.#..        .++. ",
" .%.          ..&@@*=====*@@&..          .%.  ",
" .%.           .&@@*=====*@@&.           .%.  ",
" .%.            .&@*=====*@&.            .%.  ",
" .%.            .&@@*===*@@&.            .%.  ",
" .%.            .&@@*===*@@&.            .%.  ",
"  .              .&@*===*@&.              .   ",
"                 .&@*===*@&.                  ",
"                 .&@*===*@&.                  ",
"                 .&@**=**@&.                  ",
"                  .&@***@&.                   ",
"                  .&@@*@@&.                   ",
"                  .&@@@@@&.                   ",
"                   .&@@@&.                    ",
"                   .&@@@&.                    ",
"                   .&@@@&.                    ",
"                   .&@@@&.                    ",
"                    .&&&.                     ",
"                     ...                      "};
