/* XPM */
static char * playerOne14_xpm[] = {
"46 46 584 2",
"  	c None",
". 	c #4A483B",
"+ 	c #37321D",
"@ 	c #403B2B",
"# 	c #5C5B57",
"$ 	c #525047",
"% 	c #4F4D43",
"& 	c #403D2D",
"* 	c #403C28",
"= 	c #545042",
"- 	c #423E2C",
"; 	c #2D270F",
"> 	c #433E2E",
", 	c #494638",
"' 	c #515046",
") 	c #5C5C5A",
"! 	c #5B584E",
"~ 	c #898886",
"{ 	c #7D7C77",
"] 	c #545043",
"^ 	c #433F2E",
"/ 	c #37321E",
"( 	c #38331E",
"_ 	c #464335",
": 	c #636158",
"< 	c #878787",
"[ 	c #959698",
"} 	c #8D8C8D",
"| 	c #7C7C78",
"1 	c #68675D",
"2 	c #535041",
"3 	c #3B3522",
"4 	c #454234",
"5 	c #595751",
"6 	c #767576",
"7 	c #848588",
"8 	c #8F9091",
"9 	c #969798",
"0 	c #868785",
"a 	c #4A4636",
"b 	c #39341F",
"c 	c #423F30",
"d 	c #494639",
"e 	c #5B5A57",
"f 	c #6E6D6C",
"g 	c #828284",
"h 	c #7F7F7F",
"i 	c #545247",
"j 	c #3A3623",
"k 	c #414739",
"l 	c #4F5348",
"m 	c #5A5954",
"n 	c #6E6D66",
"o 	c #5A5646",
"p 	c #3A351F",
"q 	c #432916",
"r 	c #441D0B",
"s 	c #32260F",
"t 	c #A0A19B",
"u 	c #F0EFEF",
"v 	c #98958A",
"w 	c #7B1B11",
"x 	c #9C0E09",
"y 	c #94251D",
"z 	c #76695E",
"A 	c #C1C5C3",
"B 	c #D4D2CE",
"C 	c #524C3B",
"D 	c #353521",
"E 	c #771B11",
"F 	c #991009",
"G 	c #C50D0E",
"H 	c #EE9E9F",
"I 	c #D9E3DF",
"J 	c #FCFDFF",
"K 	c #ABA9A0",
"L 	c #403A27",
"M 	c #6C2114",
"N 	c #A81009",
"O 	c #C20805",
"P 	c #E10000",
"Q 	c #CF1E1E",
"R 	c #EDB8B8",
"S 	c #FFFFFF",
"T 	c #E8E8E6",
"U 	c #666254",
"V 	c #4F2818",
"W 	c #42311E",
"X 	c #A6120B",
"Y 	c #EF0101",
"Z 	c #FF0000",
"` 	c #F30000",
" .	c #C70303",
"..	c #DE7F7F",
"+.	c #FDFFFF",
"@.	c #B7B5AD",
"#.	c #3E3925",
"$.	c #3A3522",
"%.	c #1C4027",
"&.	c #622617",
"*.	c #B60A06",
"=.	c #D20603",
"-.	c #F20000",
";.	c #FE0000",
">.	c #F40101",
",.	c #CC1010",
"'.	c #EDB6B6",
").	c #918F84",
"!.	c #565241",
"~.	c #999790",
"{.	c #8C8A80",
"].	c #737064",
"^.	c #443F32",
"/.	c #373225",
"(.	c #4E4939",
"_.	c #474231",
":.	c #0B0600",
"<.	c #7F1B10",
"[.	c #A60A06",
"}.	c #DD0000",
"|.	c #FA0000",
"1.	c #CD0202",
"2.	c #E19191",
"3.	c #E1E0DD",
"4.	c #585448",
"5.	c #342F1A",
"6.	c #8A8880",
"7.	c #E7E7E8",
"8.	c #F0F0F1",
"9.	c #DBDBDB",
"0.	c #B5B4B1",
"a.	c #A09E96",
"b.	c #C4C3C0",
"c.	c #A2A099",
"d.	c #948C7F",
"e.	c #AFAAA2",
"f.	c #8A8478",
"g.	c #5D5A4C",
"h.	c #3B3724",
"i.	c #484533",
"j.	c #393524",
"k.	c #585345",
"l.	c #37311C",
"m.	c #482E1D",
"n.	c #860602",
"o.	c #A60605",
"p.	c #8C1009",
"q.	c #B50400",
"r.	c #F70000",
"s.	c #F80000",
"t.	c #D00303",
"u.	c #D45454",
"v.	c #97958A",
"w.	c #5F5C4E",
"x.	c #D6D6D7",
"y.	c #FEFEFF",
"z.	c #F8F7F7",
"A.	c #FEFCFC",
"B.	c #FFFFFE",
"C.	c #EEF4F5",
"D.	c #CBE7F2",
"E.	c #CBEDF7",
"F.	c #FFF7EF",
"G.	c #DAD4D0",
"H.	c #B7B4AF",
"I.	c #D4D4D2",
"J.	c #BAB8B4",
"K.	c #94928A",
"L.	c #BEBCB9",
"M.	c #A9B0AB",
"N.	c #7E7469",
"O.	c #66493D",
"P.	c #5A4E3E",
"Q.	c #7B7066",
"R.	c #8E2922",
"S.	c #CB0000",
"T.	c #DA6969",
"U.	c #EBDEDD",
"V.	c #727262",
"W.	c #5C5849",
"X.	c #BBB9B4",
"Y.	c #FEFFFF",
"Z.	c #E0F7FF",
"`.	c #A1E4FF",
" +	c #84DAFF",
".+	c #5ACBFF",
"++	c #25BCFF",
"@+	c #A9E6FF",
"#+	c #CFF4FF",
"$+	c #ECFAFA",
"%+	c #FFFFFB",
"&+	c #FBF8F7",
"*+	c #F8F9F9",
"=+	c #E0E3E3",
"-+	c #CBCDCB",
";+	c #F6F4F6",
">+	c #B5D1CB",
",+	c #564635",
"'+	c #C40502",
")+	c #FB0000",
"!+	c #E30A0A",
"~+	c #E97C7E",
"{+	c #C3BBB5",
"]+	c #3F432F",
"^+	c #7F7D72",
"/+	c #CECDCB",
"(+	c #F1F2F4",
"_+	c #FBFBFC",
":+	c #B2E6FF",
"<+	c #40BAFC",
"[+	c #009CED",
"}+	c #008ED9",
"|+	c #0084CA",
"1+	c #0F9AE1",
"2+	c #2EB3ED",
"3+	c #51CFFF",
"4+	c #C7EFFA",
"5+	c #5BC9F8",
"6+	c #7FD9FF",
"7+	c #CEF3FF",
"8+	c #FEFDFD",
"9+	c #BAC2BA",
"0+	c #683326",
"a+	c #BE0000",
"b+	c #FD0000",
"c+	c #D60404",
"d+	c #CF5958",
"e+	c #7B7265",
"f+	c #565244",
"g+	c #615D4F",
"h+	c #8D8B84",
"i+	c #CECFCD",
"j+	c #F9F5F4",
"k+	c #E7FAFF",
"l+	c #5DC8FD",
"m+	c #0099E9",
"n+	c #007AB2",
"o+	c #0073A5",
"p+	c #0079B2",
"q+	c #007DB9",
"r+	c #0090DD",
"s+	c #209AD6",
"t+	c #0087CB",
"u+	c #0595DE",
"v+	c #26B2F3",
"w+	c #66D0FE",
"x+	c #BAEBFF",
"y+	c #DBFAFF",
"z+	c #FFFDF9",
"A+	c #A0A096",
"B+	c #7B180F",
"C+	c #E20000",
"D+	c #AB1D18",
"E+	c #4E3423",
"F+	c #2E291A",
"G+	c #777467",
"H+	c #EFEFF2",
"I+	c #FFFFFC",
"J+	c #6AD2FF",
"K+	c #07A6F4",
"L+	c #0084C3",
"M+	c #0076AC",
"N+	c #0077AC",
"O+	c #0074A8",
"P+	c #0078B0",
"Q+	c #0079B1",
"R+	c #0075AD",
"S+	c #0077AF",
"T+	c #007EBF",
"U+	c #008DD2",
"V+	c #14A3EA",
"W+	c #71CDF2",
"X+	c #D5E0E3",
"Y+	c #959187",
"Z+	c #612A1C",
"`+	c #980801",
" @	c #CB0300",
".@	c #E40100",
"+@	c #E90000",
"@@	c #7C1A10",
"#@	c #2B361F",
"$@	c #524D3C",
"%@	c #C8BCB2",
"&@	c #AED9E9",
"*@	c #69D6FF",
"=@	c #0FA7ED",
"-@	c #0391D8",
";@	c #007FC1",
">@	c #007AB5",
",@	c #0076AA",
"'@	c #007AB1",
")@	c #0078AF",
"!@	c #0078AC",
"~@	c #0076AD",
"{@	c #007BBB",
"]@	c #2E99CC",
"^@	c #6792A3",
"/@	c #6F5E4E",
"(@	c #4B4D46",
"_@	c #3C3827",
":@	c #5B2212",
"<@	c #801E16",
"[@	c #BA0605",
"}@	c #BB0905",
"|@	c #4E2C1B",
"1@	c #2F2B1A",
"2@	c #665F51",
"3@	c #C0BEBB",
"4@	c #FBFDFB",
"5@	c #C4F1FF",
"6@	c #76D8FF",
"7@	c #2FB7F5",
"8@	c #0E9BE3",
"9@	c #0181BD",
"0@	c #0078AE",
"a@	c #0079AF",
"b@	c #0077AE",
"c@	c #028ACC",
"d@	c #278EBC",
"e@	c #73675E",
"f@	c #656261",
"g@	c #485042",
"h@	c #55594D",
"i@	c #4E564B",
"j@	c #60362D",
"k@	c #6D291E",
"l@	c #322C18",
"m@	c #93938E",
"n@	c #B9AFA6",
"o@	c #DFD6D2",
"p@	c #F6F8F5",
"q@	c #E7FDFF",
"r@	c #A2E0FB",
"s@	c #0896DA",
"t@	c #0076B2",
"u@	c #0075A9",
"v@	c #0079AE",
"w@	c #0079B0",
"x@	c #0093DD",
"y@	c #47A3D0",
"z@	c #7A7B76",
"A@	c #615B4F",
"B@	c #605F54",
"C@	c #68645A",
"D@	c #696C64",
"E@	c #5D6056",
"F@	c #686D64",
"G@	c #2C2814",
"H@	c #484432",
"I@	c #534E3D",
"J@	c #C2C1BF",
"K@	c #C6F2FF",
"L@	c #47BEF1",
"M@	c #059FEC",
"N@	c #0189C9",
"O@	c #007FBD",
"P@	c #0074AC",
"Q@	c #0084C6",
"R@	c #0C98DC",
"S@	c #4DA0C6",
"T@	c #5A503F",
"U@	c #4F4D3E",
"V@	c #646258",
"W@	c #5A574A",
"X@	c #5A5548",
"Y@	c #706F67",
"Z@	c #484534",
"`@	c #2D2712",
" #	c #9D9B94",
".#	c #CFCCC8",
"+#	c #F8F4F1",
"@#	c #E0F9FF",
"##	c #A5E7FF",
"$#	c #56CAFA",
"%#	c #2BAFEE",
"&#	c #0093E6",
"*#	c #0D90CD",
"=#	c #2887B4",
"-#	c #338FBC",
";#	c #648996",
">#	c #574F3E",
",#	c #7B7A75",
"'#	c #5D5B51",
")#	c #767570",
"!#	c #66645A",
"~#	c #636157",
"{#	c #44402E",
"]#	c #555143",
"^#	c #9C9991",
"/#	c #FAF4F2",
"(#	c #F2FCFF",
"_#	c #CEF2FF",
":#	c #6FD2FF",
"<#	c #68C6F0",
"[#	c #617B80",
"}#	c #707170",
"|#	c #7A685A",
"1#	c #625A4D",
"2#	c #706F68",
"3#	c #534F41",
"4#	c #68665E",
"5#	c #484433",
"6#	c #777670",
"7#	c #575447",
"8#	c #7D7B70",
"9#	c #CACAC9",
"0#	c #EAEBEC",
"a#	c #FAF9F9",
"b#	c #FAFFFF",
"c#	c #FFF6F1",
"d#	c #B7AB9F",
"e#	c #4C4C42",
"f#	c #4D564E",
"g#	c #514E42",
"h#	c #6F6E67",
"i#	c #565346",
"j#	c #6C6B63",
"k#	c #6B6961",
"l#	c #514D3D",
"m#	c #84837B",
"n#	c #99A69F",
"o#	c #F5F4F6",
"p#	c #96A79C",
"q#	c #9A7370",
"r#	c #5F281C",
"s#	c #383826",
"t#	c #4A4F41",
"u#	c #4D4F41",
"v#	c #64675E",
"w#	c #666359",
"x#	c #5B584B",
"y#	c #38230E",
"z#	c #77190F",
"A#	c #675446",
"B#	c #D3D7D4",
"C#	c #E6F0EE",
"D#	c #7E6E63",
"E#	c #7E0100",
"F#	c #BC0000",
"G#	c #910D06",
"H#	c #67281C",
"I#	c #5B4137",
"J#	c #55635B",
"K#	c #626156",
"L#	c #535144",
"M#	c #4D493B",
"N#	c #4C2D1B",
"O#	c #A80501",
"P#	c #8F1E17",
"Q#	c #7B7D72",
"R#	c #838B81",
"S#	c #5E3527",
"T#	c #AF0000",
"U#	c #F00000",
"V#	c #CF0200",
"W#	c #B40605",
"X#	c #762B25",
"Y#	c #4F3626",
"Z#	c #A10C08",
"`#	c #BD0201",
" $	c #78170E",
".$	c #85180D",
"+$	c #BD0603",
"@$	c #EF0000",
"#$	c #F90000",
"$$	c #B80803",
"%$	c #4E2412",
"&$	c #5A2618",
"*$	c #B10E09",
"=$	c #E60000",
"-$	c #E40000",
";$	c #771D11",
">$	c #2B3A24",
",$	c #7E1F13",
"'$	c #FD0C0D",
")$	c #BF1311",
"!$	c #542214",
"~$	c #4B2B1B",
"{$	c #D60403",
"]$	c #EB0607",
"^$	c #E24F51",
"/$	c #AC726C",
"($	c #3A3925",
"_$	c #6C1D13",
":$	c #C30805",
"<$	c #DD1515",
"[$	c #E34A4A",
"}$	c #E6B9B9",
"|$	c #7A8376",
"1$	c #57291A",
"2$	c #B80B07",
"3$	c #FF0100",
"4$	c #EB0000",
"5$	c #E07B7B",
"6$	c #F7CDCE",
"7$	c #CAD0CB",
"8$	c #515644",
"9$	c #154028",
"0$	c #9B150C",
"a$	c #D72222",
"b$	c #E68A8A",
"c$	c #F2CFD0",
"d$	c #CCCCC7",
"e$	c #A4A39A",
"f$	c #27200C",
"g$	c #403B2A",
"h$	c #4A473A",
"i$	c #7B1B10",
"j$	c #C90000",
"k$	c #DC2020",
"l$	c #E17C7C",
"m$	c #FBEDED",
"n$	c #DCDDDA",
"o$	c #5F6352",
"p$	c #605F5D",
"q$	c #515047",
"r$	c #423D2C",
"s$	c #312A12",
"t$	c #3C3725",
"u$	c #7F160E",
"v$	c #C41516",
"w$	c #F8C3C3",
"x$	c #A2A097",
"y$	c #332D19",
"z$	c #36311C",
"A$	c #413E2E",
"B$	c #4E4C42",
"C$	c #504E45",
"D$	c #5D5C59",
"E$	c #59574A",
"F$	c #5E5C57",
"G$	c #535047",
"H$	c #474438",
"I$	c #393420",
"J$	c #213A23",
"K$	c #581B0C",
"L$	c #981B13",
"M$	c #B7948D",
"N$	c #E0DFDC",
"O$	c #5E5A4A",
"P$	c #35301A",
"Q$	c #5C5A52",
"R$	c #868684",
"S$	c #929395",
"T$	c #818183",
"U$	c #6F6F6F",
"V$	c #5D5A55",
"W$	c #484C41",
"X$	c #493B2D",
"Y$	c #4A1F0C",
"Z$	c #726D61",
"`$	c #F3F4F5",
" %	c #BEBDB6",
".%	c #46422F",
"+%	c #4F4B3C",
"@%	c #69675E",
"#%	c #8B8B8A",
"$%	c #909091",
"%%	c #939395",
"&%	c #868688",
"*%	c #79797A",
"=%	c #575651",
"-%	c #424133",
";%	c #ACB3AE",
">%	c #8D8B7F",
",%	c #35311C",
"'%	c #4F4B3B",
")%	c #656257",
"!%	c #7C7A75",
"~%	c #90908F",
"{%	c #949496",
"]%	c #72716F",
"^%	c #626058",
"/%	c #9A978F",
"(%	c #CAC8C3",
"_%	c #433E2C",
":%	c #34301A",
"<%	c #413D2B",
"[%	c #59564A",
"}%	c #717069",
"|%	c #5D5B50",
"1%	c #474338",
"2%	c #3C3724",
"3%	c #706C5D",
"                                                              . +                           ",
"                                                            @ # $ % & * = - ;               ",
"                                                              > , ' ) ! ~ { ] ^ /           ",
"                                                                  ( _ : < [ } | 1 2 3       ",
"                                                                      4 5 6 7 8 9 0 a b     ",
"                                                                        c d e f g h i       ",
"                                                                            j k l m n o p   ",
"                                                                              q r s t u v   ",
"                                                                            w x y z A B C   ",
"                                                                        D E F G H I J K L   ",
"                                                                      M N O P Q R S T U     ",
"                                                                  V W X Y Z `  ...+.@.#.    ",
"                            $.                                %.&.*.=.-.;.Z >.,.'.S ).      ",
"                        !.~.{.].^./.(._.:.  /                 <.[.}.Z Z Z Z |.1.2.3.4.      ",
"                      5.6.7.8.9.0.a.b.c.d.e.f.g.h.].i.j.k.l.m.n.o.p.q.r.Z Z s.t.u.S v.      ",
"                      w.x.y.S S z.A.B.C.D.E.F.G.H.I.J.K.L.M.N.O.P.Q.R.P Z ;.s.S.T.U.V.      ",
"                      W.X.S S S Y.Z.`. +.+++@+#+$+S %+&+S *+=+-+;+>+,+'+)+Z |.!+~+{+]+      ",
"                        ^+/+(+_+S :+<+[+}+|+1+2+3+4+5+6+7++.S 8+S 9+0+a+)+Z b+c+d+e+        ",
"                        f+g+h+i+j+k+l+m+n+o+p+q+r+s+t+u+v+w+x+y+z+A+B+C+b+Z Z C+D+E+        ",
"                            F+G+H+I+J+K+L+M+N+O+P+Q+R+S+T+U+V+W+X+Y+Z+`+ @.@)++@@@#@        ",
"                              $@h+%@&@*@=@-@;@>@,@'@'@)@!@~@{@]@^@/@(@_@:@<@[@}@|@          ",
"                                1@2@3@4@5@6@7@8@9@0@a@n+'@)@b@c@d@e@f@g@h@i@j@k@            ",
"                                  l@m@n@o@p@q@r@s@t@u@v@w@w@N+x@y@z@A@B@C@D@E@F@            ",
"                                    G@H@I@J@S K@L@M@N@O@P@p+Q@R@S@T@U@V@W@X@Y@Z@            ",
"                                        `@ #.#+#@###$#%#&#*#=#-#;#>#,#'#)#!#~#B@            ",
"                                          {#]#^#/#S (#_#:#<#[#}#|#1#2#3#4#5#6#7#            ",
"                                              8#9#0#a#S b#c#d#e#f#g#h#i#j#k#k#+             ",
"                                                l#m#n#o#+.p#q#r#s#t#u#v#w#7#x#              ",
"                                                y#z#A#B#C#D#E#F#G#H#I#J#K#L#M#              ",
"                                                N#O#P#Q#R#S#T#)+U#V#W#X#Y#                  ",
"                                                |@Z#`# $.$+$@$Z Z Z #$$$%$                  ",
"                                                &$*$+@=$-.)+Z Z Z Z -$;$>$                  ",
"                                                  ,$@$Z Z Z ;.;.r.'$)$!$                    ",
"                                                  ~${$b+;.Z Z |.]$^$/$($                    ",
"                                                  _$:$Z Z Z ` <$[$}$|$                      ",
"                                                  1$2$Z 3$4$-$5$6$7$8$                      ",
"                                                  9$0$U#-.a$b$c$d$e$f$                      ",
"                              g$h$(                 i$j$k$l$m$n$o$                          ",
"                              _ p$q$, r$s$  t$      u$v$w$S S x$y$                          ",
"                              z$A$B$C$D$E$F$G$H$I$J$K$L$M$b#N$O$                            ",
"                                    P$Q$R$S$T$U$V$W$X$Y$Z$`$ %.%                            ",
"                                      +%@%#%$%%%&%*%=%-%;%S >%                              ",
"                                        ,%'%)%!%~%{%]%^%/%(%_%                              ",
"                                            :%<%[%}%|%1%2%3%                                ",
"                                                  z$b                                       ",
"                                                                                            "};
