/* XPM */
static char * playerOne05_xpm[] = {
"46 46 594 2",
"  	c None",
". 	c #3A341F",
"+ 	c #423D2C",
"@ 	c #4E4B3A",
"# 	c #4B4838",
"$ 	c #423E2D",
"% 	c #443F2E",
"& 	c #4B4737",
"* 	c #4C4838",
"= 	c #454131",
"- 	c #72726B",
"; 	c #858682",
"> 	c #7D7E79",
", 	c #807F7C",
"' 	c #7C7A76",
") 	c #888785",
"! 	c #7B7974",
"~ 	c #494636",
"{ 	c #403D2D",
"] 	c #4A473B",
"^ 	c #3C3724",
"/ 	c #464334",
"( 	c #4F4A37",
"_ 	c #4F4B3B",
": 	c #5E5D54",
"< 	c #818181",
"[ 	c #909093",
"} 	c #8D8E8F",
"| 	c #8A8B8E",
"1 	c #8F8F92",
"2 	c #75736E",
"3 	c #5A5852",
"4 	c #585853",
"5 	c #515046",
"6 	c #55544C",
"7 	c #585751",
"8 	c #413D2C",
"9 	c #686455",
"0 	c #E0DEDC",
"a 	c #ADADA9",
"b 	c #64625B",
"c 	c #5A5C56",
"d 	c #626762",
"e 	c #646361",
"f 	c #62615F",
"g 	c #63615D",
"h 	c #595751",
"i 	c #57544A",
"j 	c #3E3A28",
"k 	c #444131",
"l 	c #444030",
"m 	c #433E2F",
"n 	c #544F3D",
"o 	c #D7D5D1",
"p 	c #B6BAB6",
"q 	c #403621",
"r 	c #3D220F",
"s 	c #3C3A29",
"t 	c #3B3A28",
"u 	c #3F3A29",
"v 	c #403C2C",
"w 	c #3F3B2A",
"x 	c #6A6659",
"y 	c #D3D2CE",
"z 	c #D3D9D7",
"A 	c #826258",
"B 	c #80150B",
"C 	c #621D0F",
"D 	c #524D3E",
"E 	c #DADAD7",
"F 	c #F5FFFF",
"G 	c #EBC2C1",
"H 	c #CB3535",
"I 	c #990E08",
"J 	c #602517",
"K 	c #585442",
"L 	c #D1D1CC",
"M 	c #FFFEFE",
"N 	c #EDB6B6",
"O 	c #CF1F1F",
"P 	c #AA0C07",
"Q 	c #741C11",
"R 	c #716E61",
"S 	c #DADFDA",
"T 	c #F7D5D6",
"U 	c #D14949",
"V 	c #D40101",
"W 	c #E20000",
"X 	c #AD0D08",
"Y 	c #612617",
"Z 	c #5A564A",
"` 	c #E7E8E6",
" .	c #F0C5C5",
"..	c #CD2929",
"+.	c #E80000",
"@.	c #FF0000",
"#.	c #E80302",
"$.	c #9F130B",
"%.	c #562819",
"&.	c #757262",
"*.	c #BFC4BD",
"=.	c #F2D8D8",
"-.	c #DB6969",
";.	c #D10000",
">.	c #F80000",
",.	c #FD0000",
"'.	c #C00C07",
").	c #472F1D",
"!.	c #5F604E",
"~.	c #DFDDDA",
"{.	c #E3898A",
"].	c #CD1717",
"^.	c #E60000",
"/.	c #F30000",
"(.	c #AE1009",
"_.	c #791C11",
":.	c #585C4B",
"<.	c #DAC5C2",
"[.	c #DF6969",
"}.	c #CB0000",
"|.	c #F60000",
"1.	c #FE0000",
"2.	c #EE0000",
"3.	c #A0110A",
"4.	c #41321F",
"5.	c #5F6254",
"6.	c #BD827D",
"7.	c #E54243",
"8.	c #EA0000",
"9.	c #EC0100",
"0.	c #B50400",
"a.	c #AF0300",
"b.	c #B10503",
"c.	c #7D1D11",
"d.	c #503524",
"e.	c #B73632",
"f.	c #D40B0B",
"g.	c #AB130E",
"h.	c #85423A",
"i.	c #76382F",
"j.	c #9C0907",
"k.	c #7F0902",
"l.	c #412A18",
"m.	c #4E2A19",
"n.	c #AF0F0A",
"o.	c #ED0000",
"p.	c #FB0000",
"q.	c #C20000",
"r.	c #5A3727",
"s.	c #99B0A7",
"t.	c #98A198",
"u.	c #624D40",
"v.	c #664135",
"w.	c #4E4635",
"x.	c #3B3723",
"y.	c #472E1D",
"z.	c #BA0B06",
"A.	c #FA0000",
"B.	c #FC0000",
"C.	c #F90000",
"D.	c #B60402",
"E.	c #724C40",
"F.	c #C9D8D2",
"G.	c #FFFFFF",
"H.	c #CACCCA",
"I.	c #BAB9B5",
"J.	c #B8BEBB",
"K.	c #B1B1AC",
"L.	c #6F6C60",
"M.	c #464331",
"N.	c #472613",
"O.	c #A3100B",
"P.	c #BC0504",
"Q.	c #AC0E09",
"R.	c #BC0702",
"S.	c #B40100",
"T.	c #850C02",
"U.	c #87695F",
"V.	c #DEE2DB",
"W.	c #FEFCFB",
"X.	c #FFFDFC",
"Y.	c #F7F3F1",
"Z.	c #C1BBB3",
"`.	c #BAB8B4",
" +	c #B4B3AE",
".+	c #595546",
"++	c #4A4737",
"@+	c #55503F",
"#+	c #524E3C",
"$+	c #613D33",
"%+	c #5D3D34",
"&+	c #583F33",
"*+	c #4D2C1B",
"=+	c #4A3021",
"-+	c #583A2E",
";+	c #969288",
">+	c #ECEDEB",
",+	c #D1F6FE",
"'+	c #D5F6FF",
")+	c #D0F3FF",
"!+	c #DCF7FF",
"~+	c #C8F3FF",
"{+	c #DEF8FF",
"]+	c #FFFFFB",
"^+	c #EFECEA",
"/+	c #C7C4C0",
"(+	c #CDC3BC",
"_+	c #BDB4A9",
":+	c #AFABA3",
"<+	c #6D6255",
"[+	c #575244",
"}+	c #474231",
"|+	c #4E5141",
"1+	c #60665C",
"2+	c #646960",
"3+	c #5C655A",
"4+	c #4C5345",
"5+	c #4D544D",
"6+	c #60574C",
"7+	c #76756E",
"8+	c #8BBACD",
"9+	c #4EBDEE",
"0+	c #2BAFEF",
"a+	c #33B4EF",
"b+	c #26B2F3",
"c+	c #2FB0EF",
"d+	c #3DB9F1",
"e+	c #CCF2FC",
"f+	c #C4F5FF",
"g+	c #D4F6FF",
"h+	c #DEF7FD",
"i+	c #CEF4FF",
"j+	c #C9E8F2",
"k+	c #C3C7C3",
"l+	c #B8B7B2",
"m+	c #ABA9A3",
"n+	c #605C51",
"o+	c #464134",
"p+	c #5A5647",
"q+	c #4F4B3A",
"r+	c #5A584B",
"s+	c #6F6D64",
"t+	c #5C584C",
"u+	c #645F54",
"v+	c #605F54",
"w+	c #645F57",
"x+	c #78695F",
"y+	c #3B85A4",
"z+	c #2290C4",
"A+	c #0C85C2",
"B+	c #007DBE",
"C+	c #007DBD",
"D+	c #017DBB",
"E+	c #0084C6",
"F+	c #3DABE1",
"G+	c #24B4F4",
"H+	c #2DB3ED",
"I+	c #46B8F1",
"J+	c #1BB1F7",
"K+	c #5CCEFF",
"L+	c #BEEDFF",
"M+	c #F8FDFE",
"N+	c #F2EEEB",
"O+	c #C3C2BD",
"P+	c #BFBEBC",
"Q+	c #A09F97",
"R+	c #87847C",
"S+	c #555245",
"T+	c #6A6860",
"U+	c #646257",
"V+	c #626056",
"W+	c #5D5B4F",
"X+	c #5A5343",
"Y+	c #728285",
"Z+	c #35A0D4",
"`+	c #008AD1",
" @	c #0077AE",
".@	c #0076AD",
"+@	c #0078AB",
"@@	c #0076AC",
"#@	c #0077AF",
"$@	c #007FBC",
"%@	c #007EC1",
"&@	c #017CB7",
"*@	c #007FBF",
"=@	c #007FC3",
"-@	c #0E9BE5",
";@	c #4EC2FA",
">@	c #A0E4FF",
",@	c #F0FDFF",
"'@	c #FEFEFE",
")@	c #FAFAFA",
"!@	c #FCFCFD",
"~@	c #F6F7F9",
"{@	c #A6A49E",
"]@	c #4D4937",
"^@	c #44402F",
"/@	c #75746E",
"(@	c #484433",
"_@	c #6E6C65",
":@	c #5C5A50",
"<@	c #73726C",
"[@	c #594C38",
"}@	c #578291",
"|@	c #24A3E0",
"1@	c #0088CD",
"2@	c #0075A9",
"3@	c #0079B0",
"4@	c #007AB1",
"5@	c #007AB2",
"6@	c #0074A8",
"7@	c #0076AB",
"8@	c #0072A4",
"9@	c #0075A8",
"0@	c #0089D3",
"a@	c #11A5F4",
"b@	c #6CCCFE",
"c@	c #D9F4FF",
"d@	c #C5C5C4",
"e@	c #494432",
"f@	c #504D3D",
"g@	c #6A685F",
"h@	c #6B6961",
"i@	c #646259",
"j@	c #575346",
"k@	c #73716B",
"l@	c #5B5444",
"m@	c #648996",
"n@	c #2495CC",
"o@	c #0788C9",
"p@	c #007AB4",
"q@	c #0075AB",
"r@	c #0079AF",
"s@	c #0077AA",
"t@	c #007EB9",
"u@	c #007FBE",
"v@	c #007BBC",
"w@	c #007EBC",
"x@	c #0084C3",
"y@	c #009BEC",
"z@	c #4EC3FC",
"A@	c #C8F0FF",
"B@	c #F4FAFD",
"C@	c #EAEAE8",
"D@	c #B0AEA9",
"E@	c #524F3F",
"F@	c #524F40",
"G@	c #555244",
"H@	c #656257",
"I@	c #615F55",
"J@	c #66655C",
"K@	c #656158",
"L@	c #665A4C",
"M@	c #796F67",
"N@	c #517F95",
"O@	c #2A88B3",
"P@	c #0188C8",
"Q@	c #007CC0",
"R@	c #007FBD",
"S@	c #007CB8",
"T@	c #0079B9",
"U@	c #0087CC",
"V@	c #37ACE6",
"W@	c #29B1F2",
"X@	c #31B5F0",
"Y@	c #2BB0EF",
"Z@	c #26B6F4",
"`@	c #4EC9FD",
" #	c #93DEFD",
".#	c #F7F4F4",
"+#	c #CCCDCB",
"@#	c #B5B4B1",
"##	c #BBBAB6",
"$#	c #939289",
"%#	c #747165",
"&#	c #555346",
"*#	c #63655B",
"=#	c #5E6960",
"-#	c #4D5042",
";#	c #4B5245",
">#	c #455147",
",#	c #4A4E45",
"'#	c #7D7F76",
")#	c #6CADC7",
"!#	c #3FBBF7",
"~#	c #31B1F4",
"{#	c #31B4F0",
"]#	c #31B2EC",
"^#	c #21AFF4",
"/#	c #42BBEF",
"(#	c #C0EFFF",
"_#	c #E7FDFF",
":#	c #D0F4FF",
"<#	c #D0F3FC",
"[#	c #EAFFFF",
"}#	c #C1DDE6",
"|#	c #C3C5C2",
"1#	c #C8BFB8",
"2#	c #A3A29C",
"3#	c #5B5849",
"4#	c #4D493B",
"5#	c #524E3E",
"6#	c #585447",
"7#	c #5D443A",
"8#	c #624841",
"9#	c #593B2F",
"0#	c #543527",
"a#	c #442D1C",
"b#	c #5D382C",
"c#	c #B9A59B",
"d#	c #FEF6F1",
"e#	c #CBF1FF",
"f#	c #D6F6FF",
"g#	c #DAF5FF",
"h#	c #C9F3FF",
"i#	c #D5F7FF",
"j#	c #DCF6FE",
"k#	c #F1FDFF",
"l#	c #F5F2F1",
"m#	c #CBC4BE",
"n#	c #C7BBB4",
"o#	c #C7BEB5",
"p#	c #AFAAA5",
"q#	c #655E50",
"r#	c #555144",
"s#	c #504B3A",
"t#	c #4D2512",
"u#	c #9F130D",
"v#	c #BD0504",
"w#	c #B90704",
"x#	c #B10904",
"y#	c #B80201",
"z#	c #910E0D",
"A#	c #886C66",
"B#	c #BECDC6",
"C#	c #FEFDFC",
"D#	c #FFFEFD",
"E#	c #FAF4F3",
"F#	c #C6C0BA",
"G#	c #BEBAB4",
"H#	c #B3B1AC",
"I#	c #5B5748",
"J#	c #413D2A",
"K#	c #595545",
"L#	c #5A584C",
"M#	c #492E1C",
"N#	c #B50B05",
"O#	c #9E0000",
"P#	c #704D42",
"Q#	c #DAE2DE",
"R#	c #FBFDFE",
"S#	c #B9C1BD",
"T#	c #AAB4AF",
"U#	c #BDBFBD",
"V#	c #B8B7B3",
"W#	c #6C695F",
"X#	c #413D2E",
"Y#	c #555141",
"Z#	c #4A2516",
"`#	c #B10B07",
" $	c #BF0503",
".$	c #643D2F",
"+$	c #97AAA2",
"@$	c #AFB5AE",
"#$	c #685648",
"$$	c #753F35",
"%$	c #4B4332",
"&$	c #4B4634",
"*$	c #4C3928",
"=$	c #BC3330",
"-$	c #FD0C0D",
";$	c #9E0E06",
">$	c #6D382C",
",$	c #823D34",
"'$	c #990F0A",
")$	c #820B01",
"!$	c #32240D",
"~$	c #616658",
"{$	c #BF7F7C",
"]$	c #E92E31",
"^$	c #F40000",
"/$	c #F20000",
"($	c #BC0400",
"_$	c #C20100",
":$	c #AC0705",
"<$	c #6C2013",
"[$	c #5A6555",
"}$	c #D3C1BF",
"|$	c #E65757",
"1$	c #EA0808",
"2$	c #E40201",
"3$	c #A90F0A",
"4$	c #502B1B",
"5$	c #5E6050",
"6$	c #D3D6D2",
"7$	c #F5ADAE",
"8$	c #DB3333",
"9$	c #F70000",
"0$	c #A9130C",
"a$	c #6C2417",
"b$	c #767265",
"c$	c #B9BCB4",
"d$	c #EBD1D1",
"e$	c #E46363",
"f$	c #E70000",
"g$	c #CA0704",
"h$	c #4E2A1B",
"i$	c #5E6251",
"j$	c #E3DCDA",
"k$	c #EDB3B4",
"l$	c #D92D2D",
"m$	c #E10403",
"n$	c #9D110B",
"o$	c #582417",
"p$	c #635F4F",
"q$	c #D5D7D3",
"r$	c #FCE8E9",
"s$	c #DC5656",
"t$	c #E80303",
"u$	c #B10F09",
"v$	c #5D2819",
"w$	c #514C3E",
"x$	c #CFCEC9",
"y$	c #F8C3C3",
"z$	c #DB292A",
"A$	c #B20602",
"B$	c #712114",
"C$	c #585443",
"D$	c #D7D6D2",
"E$	c #FBFFFF",
"F$	c #DABDB9",
"G$	c #C93030",
"H$	c #8E110B",
"I$	c #622417",
"J$	c #6C6A5B",
"K$	c #D7D7D3",
"L$	c #D1D1CF",
"M$	c #7D5A4D",
"N$	c #84150A",
"O$	c #5B190A",
"P$	c #545040",
"Q$	c #EBEAE8",
"R$	c #C5CBC7",
"S$	c #514434",
"T$	c #462C1C",
"U$	c #413B2C",
"V$	c #323F2D",
"W$	c #3F3A2A",
"X$	c #595444",
"Y$	c #C1BEB9",
"Z$	c #9D9C95",
"`$	c #4D4E43",
" %	c #56554F",
".%	c #636460",
"+%	c #62615D",
"@%	c #646360",
"#%	c #62615C",
"$%	c #5E5B56",
"%%	c #504D40",
"&%	c #3F3B29",
"*%	c #474435",
"=%	c #4C4836",
"-%	c #524D3F",
";%	c #62615A",
">%	c #7D7D7D",
",%	c #919194",
"'%	c #8C8C8E",
")%	c #909092",
"!%	c #8C8D90",
"~%	c #929395",
"{%	c #7B7B76",
"]%	c #605F5C",
"^%	c #53514A",
"/%	c #504F45",
"(%	c #5C5B57",
"_%	c #535048",
":%	c #545144",
"<%	c #807F7B",
"[%	c #83817E",
"}%	c #7D7C77",
"|%	c #82817E",
"1%	c #838380",
"2%	c #72716B",
"3%	c #535045",
"4%	c #393521",
"5%	c #49463A",
"6%	c #413E2E",
"7%	c #403C2B",
"8%	c #36301A",
"9%	c #4C4839",
"0%	c #423E2C",
"a%	c #4A4635",
"b%	c #4C4837",
"c%	c #4A4636",
"          . + @ # $ % & *                                                                   ",
"          = - ; > , ' ) ! ~ { ] ^ /                                                         ",
"      ( _ : < [ } | 1 } 2 3 4 5 6 7 8                                                       ",
"    9 0 a b c d e f g h i / j k l m                                                         ",
"    n o p q r s t u v w                                                                     ",
"    x y z A B C                                                                             ",
"    D E F G H I J                                                                           ",
"    K L M N O P Q                                                                           ",
"    R S T U V W X Y                                                                         ",
"    Z `  ...+.@.#.$.%.                                                                      ",
"  &.*.=.-.;.>.@.,.'.).                                                                      ",
"  !.~.{.].^.@.@.@./.(._.                                                                    ",
"  :.<.[.}.|.1.@.@.@.2.3.4.                                                                  ",
"  5.6.7.8.,.@.,.9.0.a.b.c.                                                                  ",
"  d.e.f.|.@.@.+.g.h.i.j.k.l.                                                                ",
"  m.n.o.@.@.p.q.r.s.t.u.v.w.x.                                                              ",
"  y.z.A.B.A.C.D.E.F.G.H.I.J.K.L.M.@                                                         ",
"  N.O.P.Q.R.S.T.U.V.G.W.X.G.Y.Z.`. +.+++@+#+                                                ",
"    $+%+&+*+=+-+;+>+,+'+)+!+~+{+]+^+/+(+_+:+<+[+}+                                          ",
"  |+1+2+3+4+5+6+7+8+9+0+a+b+c+d+e+f+g+h+i+j+k+l+m+n+o+p+q+                                  ",
"# r+s+t+u+v+w+x+y+z+A+B+C+D+B+E+F+G+H+I+J+K+L+M+N+O+P+l+Q+R+                                ",
"S+T+U+T+V+W+X+Y+Z+`+ @.@+@ @@@#@$@%@&@*@=@-@;@>@,@'@)@!@~@{@]@                              ",
"^@/@(@_@:@<@[@}@|@1@2@3@4@5@4@4@2@6@7@8@9@0@a@b@c@G.G.G.G.d@e@                              ",
"f@g@h@i@j@k@l@m@n@o@p@q@r@s@7@4@t@u@v@w@x@y@z@A@B@X.G.G.C@D@E@                              ",
"F@G@H@I@J@K@L@M@N@O@P@Q@R@S@T@U@V@W@X@Y@Z@`@ #G..#+#@###$#%#                                ",
"  &#*#=#-#;#>#,#'#)#!#~#{#]#^#/#(#_#:#<#[#}#|#1#2#3#4#5#6#                                  ",
"    7#8#9#0#a#b#c#d#e#f#g#h#i#j#k#l#m#n#o#p#q#r#s#                                          ",
"  t#u#v#w#x#y#z#A#B#G.C#G.D#E#F#G#H#I#J#K#L#                                                ",
"  M#N#@.C.,.p.O#P#Q#R#S#T#U#V#W#X#Y#                                                        ",
"  Z#`#C.@.@.p. $.$+$@$#$$$%$&$                                                              ",
"  *$=$-$p.@.@.8.;$>$,$'$)$!$                                                                ",
"  ~${$]$^$1.@.@./$($_$:$<$                                                                  ",
"  [$}$|$1$,.@.@.@.A.2$3$4$                                                                  ",
"  5$6$7$8$/.@.1.@.9$0$a$                                                                    ",
"  b$c$d$e$f$C.@.p.g$h$                                                                      ",
"    i$j$k$l$/$@.m$n$o$                                                                      ",
"    p$q$r$s$t$/$u$v$                                                                        ",
"    w$x$G.y$z$A$B$                                                                          ",
"    C$D$E$F$G$H$I$                                                                          ",
"    J$K$L$M$N$O$                                                                            ",
"    P$Q$R$S$T$U$V$^ X#W$                                                                    ",
"    X$Y$Z$`$ %.%+%@%#%$%%%% ^@= &%*%                                                        ",
"      =%-%;%>%,%'%)%!%~%{%]%^%/%(%_%&%                                                      ",
"          :%/@<%[%}%|%1%2%3%4%5%6%7%                                                        ",
"          8%J#9%0%a%b%J#c%                                                                  ",
"                                                                                            "};
