/* XPM */
static char * playerOne01_xpm[] = {
"46 46 658 2",
"  	c None",
". 	c #3A341F",
"+ 	c #413C2C",
"@ 	c #4B4839",
"# 	c #494637",
"$ 	c #3F3C2D",
"% 	c #3F3B31",
"& 	c #3F3A37",
"* 	c #403B37",
"= 	c #3F3A36",
"- 	c #423E31",
"; 	c #59554F",
"> 	c #4F4941",
", 	c #4E4942",
"' 	c #534B44",
") 	c #846950",
"! 	c #AF855A",
"~ 	c #AF845A",
"{ 	c #AF8459",
"] 	c #B2865B",
"^ 	c #947351",
"/ 	c #4E453C",
"( 	c #433D38",
"_ 	c #4B4636",
": 	c #4A4439",
"< 	c #524A40",
"[ 	c #826951",
"} 	c #A77E57",
"| 	c #A37C56",
"1 	c #A37B55",
"2 	c #AC7E51",
"3 	c #B6824D",
"4 	c #B6814D",
"5 	c #B0804F",
"6 	c #A67D56",
"7 	c #8D6D4F",
"8 	c #584B3F",
"9 	c #615E50",
"0 	c #857F7A",
"a 	c #8C6F51",
"b 	c #A67E57",
"c 	c #AD7F50",
"d 	c #B9834D",
"e 	c #B7824E",
"f 	c #B7824D",
"g 	c #B07C48",
"h 	c #A87542",
"i 	c #A87543",
"j 	c #A87643",
"k 	c #AA7744",
"l 	c #AC7945",
"m 	c #B68452",
"n 	c #8E6F4F",
"o 	c #433E38",
"p 	c #4E473B",
"q 	c #907052",
"r 	c #B48250",
"s 	c #B47F4B",
"t 	c #AE7A47",
"u 	c #A97643",
"v 	c #A97644",
"w 	c #AB7845",
"x 	c #B5824F",
"y 	c #B88552",
"z 	c #A67441",
"A 	c #B9834E",
"B 	c #4C433B",
"C 	c #484039",
"D 	c #886B4E",
"E 	c #B58351",
"F 	c #AD7A46",
"G 	c #AC7946",
"H 	c #B68350",
"I 	c #B17E4B",
"J 	c #B07D4A",
"K 	c #A4713E",
"L 	c #986532",
"M 	c #A97542",
"N 	c #B28150",
"O 	c #957452",
"P 	c #52483D",
"Q 	c #A17A55",
"R 	c #B8834E",
"S 	c #B88653",
"T 	c #B3804D",
"U 	c #BB8855",
"V 	c #AF7C49",
"W 	c #AE7B48",
"X 	c #B4814E",
"Y 	c #B27F4C",
"Z 	c #9B6835",
"` 	c #976431",
" .	c #B5804B",
"..	c #B3885C",
"+.	c #423C37",
"@.	c #81664A",
"#.	c #AC7D4F",
"$.	c #AE7B47",
"%.	c #BF8C59",
"&.	c #B78451",
"*.	c #BC8956",
"=.	c #A3703D",
"-.	c #905D2A",
";.	c #AF7B46",
">.	c #AC8357",
",.	c #977049",
"'.	c #B27B45",
").	c #9A6734",
"!.	c #9E6B38",
"~.	c #9F6C39",
"{.	c #996633",
"].	c #A67340",
"^.	c #9C6936",
"/.	c #A36F3B",
"(.	c #9E7449",
"_.	c #3D3835",
":.	c #453C34",
"<.	c #8D663F",
"[.	c #AC7742",
"}.	c #93602D",
"|.	c #9D6A37",
"1.	c #A26F3C",
"2.	c #BA8754",
"3.	c #925F2C",
"4.	c #B4824F",
"5.	c #A6723D",
"6.	c #94683D",
"7.	c #3B3734",
"8.	c #674A2C",
"9.	c #9C6D3E",
"0.	c #B88450",
"a.	c #A5723F",
"b.	c #A26F3B",
"c.	c #986431",
"d.	c #B17D4A",
"e.	c #A06D3A",
"f.	c #9D6A36",
"g.	c #B27F4B",
"h.	c #C18E5B",
"i.	c #AB7743",
"j.	c #845C32",
"k.	c #3B3632",
"l.	c #805427",
"m.	c #AA753F",
"n.	c #C28F5C",
"o.	c #BF8B58",
"p.	c #A57341",
"q.	c #946332",
"r.	c #8C5A29",
"s.	c #8B5928",
"t.	c #926130",
"u.	c #936230",
"v.	c #8A5928",
"w.	c #936231",
"x.	c #9E6C3A",
"y.	c #996C3F",
"z.	c #5E462C",
"A.	c #7C5228",
"B.	c #A6733E",
"C.	c #C08D5A",
"D.	c #B98653",
"E.	c #A77542",
"F.	c #8E5F30",
"G.	c #76522D",
"H.	c #61462B",
"I.	c #62462B",
"J.	c #61462A",
"K.	c #60462A",
"L.	c #61472B",
"M.	c #60452A",
"N.	c #6B4C2B",
"O.	c #996735",
"P.	c #87623C",
"Q.	c #3F3935",
"R.	c #8E6134",
"S.	c #B37E4A",
"T.	c #B6824F",
"U.	c #976736",
"V.	c #75512C",
"W.	c #61462C",
"X.	c #755B42",
"Y.	c #866E55",
"Z.	c #866E56",
"`.	c #866F56",
" +	c #7A6349",
".+	c #775431",
"++	c #765431",
"@+	c #3F3933",
"#+	c #3F372F",
"$+	c #77512B",
"%+	c #A46E38",
"&+	c #9F6D3A",
"*+	c #B07C49",
"=+	c #A2703F",
"-+	c #75522D",
";+	c #6E573F",
">+	c #8F7357",
",+	c #BE976F",
"'+	c #E9B886",
")+	c #E9B887",
"!+	c #E9B786",
"~+	c #EAB987",
"{+	c #D2A67A",
"]+	c #87694C",
"^+	c #5A4530",
"/+	c #3B3630",
"(+	c #765129",
"_+	c #A56F39",
":+	c #A06D39",
"<+	c #966433",
"[+	c #745330",
"}+	c #785F43",
"|+	c #BE9870",
"1+	c #EBBA88",
"2+	c #F8C592",
"3+	c #FFD09C",
"4+	c #FFCE9B",
"5+	c #FFCD99",
"6+	c #FFCC98",
"7+	c #FFCE9A",
"8+	c #B69370",
"9+	c #4D453D",
"0+	c #3A352F",
"a+	c #5C4229",
"b+	c #8D5F32",
"c+	c #A6713D",
"d+	c #8D5C2A",
"e+	c #59442E",
"f+	c #947B62",
"g+	c #FFCC96",
"h+	c #FECB97",
"i+	c #E7B380",
"j+	c #D3A06D",
"k+	c #EBB885",
"l+	c #FFCD9A",
"m+	c #FFCC99",
"n+	c #FFD19E",
"o+	c #F1BF8C",
"p+	c #D5A26F",
"q+	c #E5B17B",
"r+	c #C09C78",
"s+	c #504942",
"t+	c #423328",
"u+	c #744F2A",
"v+	c #A06C39",
"w+	c #785431",
"x+	c #775E45",
"y+	c #C4A07A",
"z+	c #FFD49F",
"A+	c #FCC997",
"B+	c #E4B17E",
"C+	c #D09C69",
"D+	c #D6A26F",
"E+	c #ECB986",
"F+	c #FDCB98",
"G+	c #EFBD8A",
"H+	c #DAA773",
"I+	c #D09D69",
"J+	c #E3AD78",
"K+	c #C09B77",
"L+	c #514A40",
"M+	c #3C3731",
"N+	c #895D31",
"O+	c #5B4937",
"P+	c #A48566",
"Q+	c #FCC792",
"R+	c #F9C895",
"S+	c #CEA67D",
"T+	c #BB9269",
"U+	c #FDCA97",
"V+	c #EDB884",
"W+	c #C3976C",
"X+	c #C09B76",
"Y+	c #F8CA96",
"Z+	c #C4A07B",
"`+	c #676059",
" @	c #665C51",
".@	c #575244",
"+@	c #474231",
"@@	c #494C3E",
"#@	c #484238",
"$@	c #6F4B27",
"%@	c #504132",
"&@	c #AF9273",
"*@	c #FFD59E",
"=@	c #FFCF9B",
"-@	c #F6C795",
";@	c #927A62",
">@	c #937A61",
",@	c #FAC895",
"'@	c #FFD19B",
")@	c #AD8F6F",
"!@	c #776554",
"~@	c #F2C795",
"{@	c #C5A17C",
"]@	c #6D6F6C",
"^@	c #B3B7B3",
"/@	c #B8B7B2",
"(@	c #ABA9A3",
"_@	c #605C51",
":@	c #464134",
"<@	c #5A5647",
"[@	c #4F4B3A",
"}@	c #4B4838",
"|@	c #58564A",
"1@	c #56534C",
"2@	c #543D25",
"3@	c #7C6246",
"4@	c #D4AC82",
"5@	c #FFD29E",
"6@	c #FFCB98",
"7@	c #FAD29F",
"8@	c #B99F7D",
"9@	c #BE9B78",
"0@	c #FFD29D",
"a@	c #CFA981",
"b@	c #A88F71",
"c@	c #F8D6A2",
"d@	c #C4A37D",
"e@	c #52696F",
"f@	c #AED9E9",
"g@	c #F8FDFE",
"h@	c #F2EEEB",
"i@	c #C3C2BD",
"j@	c #BFBEBC",
"k@	c #A09F97",
"l@	c #87847C",
"m@	c #555245",
"n@	c #67655D",
"o@	c #57564F",
"p@	c #77736D",
"q@	c #937C66",
"r@	c #D7AC81",
"s@	c #FFD6A3",
"t@	c #F6CD9D",
"u@	c #F9C796",
"v@	c #FFD19C",
"w@	c #FDCA98",
"x@	c #F4C898",
"y@	c #FFDFAA",
"z@	c #C7A37F",
"A@	c #405A65",
"B@	c #4AB2E4",
"C@	c #A0E4FF",
"D@	c #F0FDFF",
"E@	c #FEFEFE",
"F@	c #FAFAFA",
"G@	c #FCFCFD",
"H@	c #F6F7F9",
"I@	c #A6A49E",
"J@	c #4D4937",
"K@	c #44402F",
"L@	c #6F6E68",
"M@	c #4A4941",
"N@	c #959595",
"O@	c #8D7F71",
"P@	c #C6A179",
"Q@	c #FFD39E",
"R@	c #E5B88C",
"S@	c #CAA47E",
"T@	c #CCA57F",
"U@	c #CAA47D",
"V@	c #CCA57E",
"W@	c #C9A37E",
"X@	c #DEB388",
"Y@	c #FDCC99",
"Z@	c #F8C998",
"`@	c #A38B71",
" #	c #2F627B",
".#	c #129CE6",
"+#	c #6CCCFE",
"@#	c #D9F4FF",
"##	c #FFFFFF",
"$#	c #C5C5C4",
"%#	c #494432",
"&#	c #504D3D",
"*#	c #69675E",
"=#	c #65645D",
"-#	c #53504B",
";#	c #92775A",
">#	c #E2B383",
",#	c #FFCE99",
"'#	c #FECB99",
")#	c #B39373",
"!#	c #4F4842",
"~#	c #4D4B4B",
"{#	c #6B6866",
"]#	c #51504F",
"^#	c #47433E",
"/#	c #997F66",
"(#	c #FAC896",
"_#	c #C9A27B",
":#	c #3C5660",
"<#	c #068BD1",
"[#	c #4DC1FA",
"}#	c #C8F0FF",
"|#	c #F4FAFD",
"1#	c #FFFDFC",
"2#	c #EAEAE8",
"3#	c #B0AEA9",
"4#	c #524F3F",
"5#	c #524F40",
"6#	c #555244",
"7#	c #656257",
"8#	c #5C5A51",
"9#	c #59534A",
"0#	c #93775C",
"a#	c #E2B283",
"b#	c #F8C896",
"c#	c #AD8F71",
"d#	c #8C867F",
"e#	c #B4B7BA",
"f#	c #8A8888",
"g#	c #A0856C",
"h#	c #EABA8A",
"i#	c #EABA87",
"j#	c #9A7D61",
"k#	c #356E86",
"l#	c #4ABCED",
"m#	c #93DEFD",
"n#	c #F7F4F4",
"o#	c #CCCDCB",
"p#	c #B5B4B1",
"q#	c #BBBAB6",
"r#	c #939289",
"s#	c #747165",
"t#	c #555346",
"u#	c #63655B",
"v#	c #5E6960",
"w#	c #494C3F",
"x#	c #504D42",
"y#	c #877056",
"z#	c #C1996F",
"A#	c #DDAF81",
"B#	c #FCC793",
"C#	c #FEC994",
"D#	c #F1BF8E",
"E#	c #B29473",
"F#	c #796C5D",
"G#	c #A78B6F",
"H#	c #C9A077",
"I#	c #BE966E",
"J#	c #9F8364",
"K#	c #838A86",
"L#	c #D1E3E3",
"M#	c #C0DCE5",
"N#	c #C3C5C2",
"O#	c #C8BFB8",
"P#	c #A3A29C",
"Q#	c #5B5849",
"R#	c #4D493B",
"S#	c #524E3E",
"T#	c #585447",
"U#	c #5D443A",
"V#	c #624841",
"W#	c #583A2E",
"X#	c #503528",
"Y#	c #42362B",
"Z#	c #54473C",
"`#	c #94785D",
" $	c #C4996F",
".$	c #C69A70",
"+$	c #C5996F",
"@$	c #C59A70",
"#$	c #BB926A",
"$$	c #AE8863",
"%$	c #BD946B",
"&$	c #9B8168",
"*$	c #675E56",
"=$	c #77706A",
"-$	c #B4AAA3",
";$	c #C6BDB4",
">$	c #AFAAA5",
",$	c #655E50",
"'$	c #555144",
")$	c #504B3A",
"!$	c #4D2512",
"~$	c #9F130D",
"{$	c #BD0504",
"]$	c #B90704",
"^$	c #B10904",
"/$	c #B50201",
"($	c #851311",
"_$	c #61524C",
":$	c #4B4844",
"<$	c #4F4A46",
"[$	c #504B48",
"}$	c #4E4B47",
"|$	c #4F4B47",
"1$	c #44403C",
"2$	c #73706B",
"3$	c #A2A09B",
"4$	c #585546",
"5$	c #403C2A",
"6$	c #595545",
"7$	c #5A584C",
"8$	c #492E1C",
"9$	c #B50B05",
"0$	c #FF0000",
"a$	c #F90000",
"b$	c #FD0000",
"c$	c #FB0000",
"d$	c #9E0000",
"e$	c #704D42",
"f$	c #DAE2DE",
"g$	c #FBFDFE",
"h$	c #B9C1BD",
"i$	c #AAB4AF",
"j$	c #BDBFBD",
"k$	c #B8B7B3",
"l$	c #6C695F",
"m$	c #413D2E",
"n$	c #555141",
"o$	c #4A2516",
"p$	c #B10B07",
"q$	c #BF0503",
"r$	c #643D2F",
"s$	c #97AAA2",
"t$	c #AFB5AE",
"u$	c #685648",
"v$	c #753F35",
"w$	c #4B4332",
"x$	c #4B4634",
"y$	c #4C3928",
"z$	c #BC3330",
"A$	c #FD0C0D",
"B$	c #EA0000",
"C$	c #9E0E06",
"D$	c #6D382C",
"E$	c #823D34",
"F$	c #990F0A",
"G$	c #820B01",
"H$	c #32240D",
"I$	c #616658",
"J$	c #BF7F7C",
"K$	c #E92E31",
"L$	c #F40000",
"M$	c #FE0000",
"N$	c #F20000",
"O$	c #BC0400",
"P$	c #C20100",
"Q$	c #AC0705",
"R$	c #6C2013",
"S$	c #5A6555",
"T$	c #D3C1BF",
"U$	c #E65757",
"V$	c #EA0808",
"W$	c #FA0000",
"X$	c #E40201",
"Y$	c #A90F0A",
"Z$	c #502B1B",
"`$	c #5E6050",
" %	c #D3D6D2",
".%	c #F5ADAE",
"+%	c #DB3333",
"@%	c #F30000",
"#%	c #F70000",
"$%	c #A9130C",
"%%	c #6C2417",
"&%	c #767265",
"*%	c #B9BCB4",
"=%	c #EBD1D1",
"-%	c #E46363",
";%	c #E70000",
">%	c #CA0704",
",%	c #4E2A1B",
"'%	c #5E6251",
")%	c #E3DCDA",
"!%	c #EDB3B4",
"~%	c #D92D2D",
"{%	c #E10403",
"]%	c #9D110B",
"^%	c #582417",
"/%	c #635F4F",
"(%	c #D5D7D3",
"_%	c #FCE8E9",
":%	c #DC5656",
"<%	c #E80303",
"[%	c #B10F09",
"}%	c #5D2819",
"|%	c #514C3E",
"1%	c #CFCEC9",
"2%	c #F8C3C3",
"3%	c #DB292A",
"4%	c #B20602",
"5%	c #712114",
"6%	c #585443",
"7%	c #D7D6D2",
"8%	c #FBFFFF",
"9%	c #DABDB9",
"0%	c #C93030",
"a%	c #8E110B",
"b%	c #622417",
"c%	c #6C6A5B",
"d%	c #D7D7D3",
"e%	c #D1D1CF",
"f%	c #7D5A4D",
"g%	c #84150A",
"h%	c #5B190A",
"i%	c #545040",
"j%	c #EBEAE8",
"k%	c #C5CBC7",
"l%	c #514434",
"m%	c #462C1C",
"n%	c #413B2C",
"o%	c #323F2D",
"p%	c #3C3724",
"q%	c #3F3A2A",
"r%	c #595444",
"s%	c #C1BEB9",
"t%	c #9D9C95",
"u%	c #4D4E43",
"v%	c #56554F",
"w%	c #636460",
"x%	c #62615D",
"y%	c #646360",
"z%	c #62615C",
"A%	c #5E5B56",
"B%	c #504D40",
"C%	c #443F2E",
"D%	c #454131",
"E%	c #3F3B29",
"F%	c #474435",
"G%	c #4C4836",
"H%	c #524D3F",
"I%	c #62615A",
"J%	c #7D7D7D",
"K%	c #919194",
"L%	c #8C8C8E",
"M%	c #909092",
"N%	c #8C8D90",
"O%	c #929395",
"P%	c #7B7B76",
"Q%	c #605F5C",
"R%	c #53514A",
"S%	c #504F45",
"T%	c #5C5B57",
"U%	c #535048",
"V%	c #545144",
"W%	c #75746E",
"X%	c #807F7B",
"Y%	c #83817E",
"Z%	c #7D7C77",
"`%	c #82817E",
" &	c #838380",
".&	c #72716B",
"+&	c #535045",
"@&	c #393521",
"#&	c #49463A",
"$&	c #413E2E",
"%&	c #403C2B",
"&&	c #36301A",
"*&	c #413D2A",
"=&	c #4C4839",
"-&	c #423E2C",
";&	c #4A4635",
">&	c #4C4837",
",&	c #4A4636",
"          . + @ # $ % & * = = = = = *                                                       ",
"          - ; > , ' ) ! ~ { { { { ] ^ / (                                                   ",
"      _ : < [ } | 1 2 3 4 4 4 4 4 4 5 6 7 8                                                 ",
"    9 0 a b c d e f g h i j h h k k l f m n o                                               ",
"    p q r s t u k v k k k k w u x y w z A 1 B                                               ",
"  C D E F k G H x k k k k k x x I J K L M N O *                                             ",
"  P Q R S T x U V k k k k k W U X Y T Z `  ...=                                             ",
"+.@.#.$.%.&.H U h k h h k w u *.U I T =.-.;.>.=                                             ",
"+.,.'.).w K K J h u !.~.k T T *.U K {.].^./.(._.                                            ",
":.<.[.}.|.` L =.1.k L ` k 2.2.X I |.3.V 4.5.6.7.                                            ",
"8.9.0.a.a.=.k J G I b.c.~.V d.w e.L f.g.h.i.j.k.                                            ",
"l.m.n.H x T U o.d.p.q.r.s.t.u.q.r.v.w.x.3 y.z.                                              ",
"A.B.C.H h.D.V E.F.G.H.H.I.J.K.K.H.L.M.N.O.P.Q.                                              ",
"H.R.S.J h.T.U.V.W.X.Y.Z.Z.Y.Y.Y.Z.Z.`. +.+++@+                                              ",
"#+$+%+&+*+=+-+;+>+,+'+)+!+!+!+!+!+!+~+{+]+^+                                                ",
"/+(+_+:+<+[+}+|+1+2+3+4+5+6+6+6+6+5+3+7+8+9+                                                ",
"0+a+b+c+d+e+f+g+h+i+j+k+4+l+m+m+n+o+p+q+r+s+                                                ",
"  t+u+v+w+x+y+z+A+B+C+D+E+F+l+4+G+H+I+J+K+L+                                                ",
"  M+H.N+O+P+Q+4+5+R+S+T+i+U+l+4+V+W+X+Y+Z+`+ @.@+@                                          ",
"  @@#@$@%@&@*@m+=@-@;@>@,@l+m+m+'@)@!@~@{@]@^@/@(@_@:@<@[@                                  ",
"}@|@1@2@3@4@5@6@4+7@8@9@l+5+m+m+0@a@b@c@d@e@f@g@h@i@j@/@k@l@                                ",
"m@n@o@p@q@r@0@m+4+s@t@u@0@v@v@v@5@w@x@y@z@A@B@C@D@E@F@G@H@I@J@                              ",
"K@L@M@N@O@P@Q@m+m+l+=@R@S@T@U@V@W@X@Y@Z@`@ #.#+#@#########$#%#                              ",
"&#*#=#-#;#>#,#l+m+l+'#)#!#~#{#]#^#/#(#_#:#<#[#}#|#1#####2#3#4#                              ",
"5#6#7#8#9#0#a#g+h+l+=@b#c#d#e#f#g#h#i#j#k#l#m###n#o#p#q#r#s#                                ",
"  t#u#v#w#x#y#z#A#B#B#C#D#E#F#G#H#I#J#K#L#M#N#O#P#Q#R#S#T#                                  ",
"    U#V#W#X#Y#Z#`# $.$+$@$#$$$%$&$*$=$-$;$>$,$'$)$                                          ",
"  !$~${$]$^$/$($_$:$<$[$}$}$|$1$2$3$4$5$6$7$                                                ",
"  8$9$0$a$b$c$d$e$f$g$h$i$j$k$l$m$n$                                                        ",
"  o$p$a$0$0$c$q$r$s$t$u$v$w$x$                                                              ",
"  y$z$A$c$0$0$B$C$D$E$F$G$H$                                                                ",
"  I$J$K$L$M$0$0$N$O$P$Q$R$                                                                  ",
"  S$T$U$V$b$0$0$0$W$X$Y$Z$                                                                  ",
"  `$ %.%+%@%0$M$0$#%$%%%                                                                    ",
"  &%*%=%-%;%a$0$c$>%,%                                                                      ",
"    '%)%!%~%N$0${%]%^%                                                                      ",
"    /%(%_%:%<%N$[%}%                                                                        ",
"    |%1%##2%3%4%5%                                                                          ",
"    6%7%8%9%0%a%b%                                                                          ",
"    c%d%e%f%g%h%                                                                            ",
"    i%j%k%l%m%n%o%p%m$q%                                                                    ",
"    r%s%t%u%v%w%x%y%z%A%B%C%K@D%E%F%                                                        ",
"      G%H%I%J%K%L%M%N%O%P%Q%R%S%T%U%E%                                                      ",
"          V%W%X%Y%Z%`% &.&+&@&#&$&%&                                                        ",
"          &&*&=&-&;&>&*&,&                                                                  ",
"                                                                                            "};
