/* XPM */
static char * playerOne03_xpm[] = {
"46 46 544 2",
"  	c None",
". 	c #35301A",
"+ 	c #4F4D43",
"@ 	c #433F2F",
"# 	c #3D3927",
"$ 	c #4B483C",
"% 	c #61605E",
"& 	c #3D3726",
"* 	c #342F19",
"= 	c #56554F",
"- 	c #54534B",
"; 	c #444030",
"> 	c #4A4636",
", 	c #69665E",
"' 	c #524F44",
") 	c #5D5D5B",
"! 	c #3E3A28",
"~ 	c #413C2A",
"{ 	c #7D7C77",
"] 	c #9A9B9D",
"^ 	c #6F6D67",
"/ 	c #454130",
"( 	c #72706A",
"_ 	c #969699",
": 	c #858585",
"< 	c #56544D",
"[ 	c #4B4735",
"} 	c #9E9C96",
"| 	c #817E73",
"1 	c #474331",
"2 	c #1E1800",
"3 	c #45412F",
"4 	c #787873",
"5 	c #929394",
"6 	c #868689",
"7 	c #696866",
"8 	c #49463B",
"9 	c #0E0700",
"0 	c #595546",
"a 	c #B0AEAB",
"b 	c #EBEBEC",
"c 	c #EDEDEF",
"d 	c #BFBFBE",
"e 	c #5F5C4E",
"f 	c #423D2B",
"g 	c #7F7F7B",
"h 	c #969798",
"i 	c #868687",
"j 	c #686869",
"k 	c #454133",
"l 	c #38331F",
"m 	c #3F3A27",
"n 	c #6B685B",
"o 	c #B3B2AF",
"p 	c #F1F2F3",
"q 	c #FFFFFF",
"r 	c #F9F9FB",
"s 	c #716E61",
"t 	c #423E2C",
"u 	c #7B7B77",
"v 	c #88898B",
"w 	c #676764",
"x 	c #49473C",
"y 	c #342F18",
"z 	c #241F08",
"A 	c #7E7B71",
"B 	c #D7D7D6",
"C 	c #EAEBEB",
"D 	c #F4F3F3",
"E 	c #F1F1F1",
"F 	c #767368",
"G 	c #393525",
"H 	c #605F59",
"I 	c #61615F",
"J 	c #434536",
"K 	c #313722",
"L 	c #4B4736",
"M 	c #9B988F",
"N 	c #D1CBC6",
"O 	c #D6DBDD",
"P 	c #FFFEFC",
"Q 	c #F3FCFF",
"R 	c #F2F3F5",
"S 	c #ABAAA5",
"T 	c #696559",
"U 	c #5D5949",
"V 	c #87857F",
"W 	c #332D17",
"X 	c #461A08",
"Y 	c #71190D",
"Z 	c #96100A",
"` 	c #4C2C1B",
" .	c #293924",
"..	c #3F301D",
"+.	c #28230D",
"@.	c #3B3724",
"#.	c #A4A19B",
"$.	c #FDF3EB",
"%.	c #B2EAFF",
"&.	c #98E0FF",
"*.	c #85DBFF",
"=.	c #63CEFF",
"-.	c #9CDFFF",
";.	c #F5F6F6",
">.	c #B9B9B7",
",.	c #494432",
"'.	c #4E4A37",
").	c #E7E6E4",
"!.	c #F1F0F2",
"~.	c #7B7F75",
"{.	c #805A4F",
"].	c #D5292A",
"^.	c #BC0000",
"/.	c #A30F09",
"(.	c #A30D08",
"_.	c #AB0F09",
":.	c #86190F",
"<.	c #353621",
"[.	c #5A2416",
"}.	c #642416",
"|.	c #263C25",
"1.	c #5D5A4B",
"2.	c #B5B5B2",
"3.	c #B7B4AF",
"4.	c #F2F1F0",
"5.	c #E3F9FF",
"6.	c #16B5FF",
"7.	c #00A2F4",
"8.	c #039DE7",
"9.	c #009CF7",
"0.	c #A0E0FF",
"a.	c #DBDBDB",
"b.	c #6F6C5F",
"c.	c #161000",
"d.	c #686354",
"e.	c #DBDAD6",
"f.	c #EBECEE",
"g.	c #DCE7E3",
"h.	c #F9E5E5",
"i.	c #CD3535",
"j.	c #EB0000",
"k.	c #FF0000",
"l.	c #F90000",
"m.	c #D00503",
"n.	c #CE0704",
"o.	c #CC0100",
"p.	c #93120B",
"q.	c #7F190F",
"r.	c #412D1B",
"s.	c #37311C",
"t.	c #736F64",
"u.	c #77756B",
"v.	c #C7C4C1",
"w.	c #FBFCFD",
"x.	c #FFFFFA",
"y.	c #B8EEFF",
"z.	c #45C0F5",
"A.	c #008BD6",
"B.	c #0073A6",
"C.	c #0080BC",
"D.	c #03A3F2",
"E.	c #6FD3FF",
"F.	c #FFFFFB",
"G.	c #E7E7EA",
"H.	c #656153",
"I.	c #838073",
"J.	c #F0F0EF",
"K.	c #C81F1F",
"L.	c #D00000",
"M.	c #B40201",
"N.	c #8D0200",
"O.	c #623628",
"P.	c #858B81",
"Q.	c #F4F5F8",
"R.	c #F2F0EE",
"S.	c #FFFAF9",
"T.	c #F1FDFF",
"U.	c #DDFAFF",
"V.	c #1BB8FF",
"W.	c #008ACA",
"X.	c #0079B2",
"Y.	c #0076A9",
"Z.	c #007DB6",
"`.	c #00A0EF",
" +	c #5CCFFF",
".+	c #D8D3CD",
"++	c #807E75",
"@+	c #2D2812",
"#+	c #181200",
"$+	c #5F5B4B",
"%+	c #D2D0CB",
"&+	c #E7A3A3",
"*+	c #CC1111",
"=+	c #F10101",
"-+	c #FE0000",
";+	c #E40100",
">+	c #601407",
",+	c #715145",
"'+	c #4F4534",
")+	c #94948E",
"!+	c #DCE0DF",
"~+	c #FFFFFE",
"{+	c #FBFFFF",
"]+	c #7FD9FF",
"^+	c #02A5ED",
"/+	c #32A7DD",
"(+	c #008DDA",
"_+	c #0075AA",
":+	c #0079AF",
"<+	c #0076AB",
"[+	c #0088CE",
"}+	c #20B7F9",
"|+	c #D6F6FF",
"1+	c #B6B2AD",
"2+	c #423B2B",
"3+	c #827F72",
"4+	c #FCFBFB",
"5+	c #FCE4E4",
"6+	c #BD1B1B",
"7+	c #F40000",
"8+	c #D70000",
"9+	c #854038",
"0+	c #ADC4BF",
"a+	c #F7F6F8",
"b+	c #EEEEEE",
"c+	c #FFFEFF",
"d+	c #7EDAFF",
"e+	c #10A4EF",
"f+	c #007DBA",
"g+	c #007AB2",
"h+	c #0075A9",
"i+	c #0089CE",
"j+	c #33BCFD",
"k+	c #C3F1FF",
"l+	c #FFF2EB",
"m+	c #B4B4B2",
"n+	c #3D3825",
"o+	c #0F0900",
"p+	c #868276",
"q+	c #FFF1F2",
"r+	c #C92F2F",
"s+	c #D10000",
"t+	c #E00000",
"u+	c #4F2D1C",
"v+	c #9CACA1",
"w+	c #F0FCFF",
"x+	c #98DFFF",
"y+	c #02A4EE",
"z+	c #007FC0",
"A+	c #007AB1",
"B+	c #0077AC",
"C+	c #008CD5",
"D+	c #33BBF8",
"E+	c #CDF5FF",
"F+	c #F7F0EF",
"G+	c #9B968D",
"H+	c #514E3E",
"I+	c #969489",
"J+	c #FEFFFF",
"K+	c #DD7D7D",
"L+	c #C70000",
"M+	c #F10000",
"N+	c #FD0000",
"O+	c #9A0601",
"P+	c #5F392B",
"Q+	c #B7BFB7",
"R+	c #84DEFF",
"S+	c #13A2EA",
"T+	c #007EBD",
"U+	c #0078AD",
"V+	c #0079B0",
"W+	c #007BB5",
"X+	c #26ABEC",
"Y+	c #FFFEFB",
"Z+	c #B3B2AE",
"`+	c #342F1A",
" @	c #433F2B",
".@	c #AFAEA6",
"+@	c #FFD8D9",
"@@	c #DA3C3D",
"#@	c #E20000",
"$@	c #86160F",
"%@	c #91857B",
"&@	c #CACDCC",
"*@	c #74B9D9",
"=@	c #0083C4",
"-@	c #007CBC",
";@	c #1EA9E7",
">@	c #C6F2FF",
",@	c #BBBAB7",
"'@	c #393D28",
")@	c #988E84",
"!@	c #CE5857",
"~@	c #C80000",
"{@	c #BF0402",
"]@	c #4A1C09",
"^@	c #53534A",
"/@	c #78685A",
"(@	c #258EBD",
"_@	c #0085C6",
":@	c #007EB8",
"<@	c #88DDFF",
"[@	c #FBFDFC",
"}@	c #CBC9C7",
"|@	c #5C5849",
"1@	c #3E422F",
"2@	c #872C23",
"3@	c #F00000",
"4@	c #B00904",
"5@	c #5A1D0D",
"6@	c #374839",
"7@	c #666567",
"8@	c #73675E",
"9@	c #2E95C4",
"0@	c #0095E0",
"a@	c #0072A5",
"b@	c #0080C3",
"c@	c #12A4E8",
"d@	c #7DDBFF",
"e@	c #F1ECE8",
"f@	c #79776D",
"g@	c #1A1300",
"h@	c #3B321E",
"i@	c #7E180F",
"j@	c #DF0000",
"k@	c #B80706",
"l@	c #5B3328",
"m@	c #525245",
"n@	c #4C4F40",
"o@	c #5C594F",
"p@	c #6F675B",
"q@	c #7F99A6",
"r@	c #23ABEE",
"s@	c #018ACC",
"t@	c #008ACE",
"u@	c #048AC8",
"v@	c #00A2F6",
"w@	c #99E0FE",
"x@	c #F2FCFF",
"y@	c #E3E3E4",
"z@	c #86847A",
"A@	c #383521",
"B@	c #751B0F",
"C@	c #6F2C23",
"D@	c #45564B",
"E@	c #807E7A",
"F@	c #575447",
"G@	c #6F6E66",
"H@	c #44402E",
"I@	c #595243",
"J@	c #549CBC",
"K@	c #338FBB",
"L@	c #42809A",
"M@	c #4AB6E6",
"N@	c #7FD8FF",
"O@	c #FFFDFD",
"P@	c #E2E3E3",
"Q@	c #9A9B96",
"R@	c #352F1B",
"S@	c #75736D",
"T@	c #5D5F54",
"U@	c #595447",
"V@	c #5A574B",
"W@	c #5D5A50",
"X@	c #7F7E7B",
"Y@	c #725F4D",
"Z@	c #8A8584",
"`@	c #514E42",
" #	c #EADAD1",
".#	c #EAEAEB",
"+#	c #768378",
"@#	c #573627",
"##	c #37230E",
"$#	c #413D2B",
"%#	c #73726B",
"&#	c #615E53",
"*#	c #82817E",
"=#	c #5A574C",
"-#	c #5D5A4F",
";#	c #777671",
">#	c #4D493C",
",#	c #595E5A",
"'#	c #514D42",
")#	c #B6B0AE",
"!#	c #96A79C",
"~#	c #F9FCFB",
"{#	c #F0F1F1",
"]#	c #665E50",
"^#	c #BE0100",
"/#	c #632416",
"(#	c #6E6D66",
"_#	c #504D3E",
":#	c #464231",
"<#	c #6F6D66",
"[#	c #6F6E67",
"}#	c #514F43",
"|#	c #314230",
"1#	c #632013",
"2#	c #7C0600",
"3#	c #60372B",
"4#	c #B8BCB6",
"5#	c #B7C7C3",
"6#	c #644E40",
"7#	c #B80000",
"8#	c #8D130C",
"9#	c #40311E",
"0#	c #888886",
"a#	c #6C6A62",
"b#	c #68665D",
"c#	c #4A4B3C",
"d#	c #58574B",
"e#	c #4E2918",
"f#	c #B90200",
"g#	c #E40000",
"h#	c #8D0300",
"i#	c #552F1F",
"j#	c #5B3426",
"k#	c #79170E",
"l#	c #CC0000",
"m#	c #B80B07",
"n#	c #642316",
"o#	c #29230B",
"p#	c #6E6C65",
"q#	c #4B4737",
"r#	c #73736D",
"s#	c #516158",
"t#	c #6B2E26",
"u#	c #AC0802",
"v#	c #DA0000",
"w#	c #E40301",
"x#	c #D70302",
"y#	c #41321F",
"z#	c #545042",
"A#	c #535144",
"B#	c #545143",
"C#	c #623B33",
"D#	c #BD0202",
"E#	c #F50000",
"F#	c #D70503",
"G#	c #482C1B",
"H#	c #3F3B29",
"I#	c #7C1408",
"J#	c #7F170F",
"K#	c #626260",
"L#	c #484538",
"M#	c #343621",
"N#	c #781C11",
"O#	c #D20000",
"P#	c #FD0303",
"Q#	c #F30000",
"R#	c #FC0000",
"S#	c #A40E09",
"T#	c #35301B",
"U#	c #3B311E",
"V#	c #80160F",
"W#	c #EB6869",
"X#	c #D8292A",
"Y#	c #F40A0A",
"Z#	c #F70000",
"`#	c #FF0100",
" $	c #AF0F09",
".$	c #243B25",
"+$	c #5C5B58",
"@$	c #4A473B",
"#$	c #3E4935",
"$$	c #9F9F96",
"%$	c #E7B9B9",
"&$	c #DC7575",
"*$	c #DB7676",
"=$	c #E21313",
"-$	c #D00202",
";$	c #E70000",
">$	c #F80000",
",$	c #B60804",
"'$	c #552919",
")$	c #38331E",
"!$	c #464235",
"~$	c #5E5C57",
"{$	c #6A6961",
"]$	c #61605A",
"^$	c #332E17",
"/$	c #383723",
"($	c #A3ADA3",
"_$	c #FDFFFF",
":$	c #FCE6E7",
"<$	c #EEBABB",
"[$	c #ECB9B9",
"}$	c #D94646",
"|$	c #D92A2A",
"1$	c #B50000",
"2$	c #7E170E",
"3$	c #48463A",
"4$	c #686766",
"5$	c #88898A",
"6$	c #9C9D9F",
"7$	c #6A6860",
"8$	c #413C29",
"9$	c #A9A79F",
"0$	c #7C8072",
"a$	c #DFE0DD",
"b$	c #FFF8F8",
"c$	c #FCF6F6",
"d$	c #FFF1F1",
"e$	c #D63D3D",
"f$	c #771308",
"g$	c #283A24",
"h$	c #474134",
"i$	c #686868",
"j$	c #868688",
"k$	c #939394",
"l$	c #7D7C78",
"m$	c #403C2A",
"n$	c #767264",
"o$	c #E9EAE9",
"p$	c #E6F1EF",
"q$	c #633021",
"r$	c #521B09",
"s$	c #4C4A40",
"t$	c #696967",
"u$	c #959596",
"v$	c #74726B",
"w$	c #4A4635",
"x$	c #1C1500",
"y$	c #656152",
"z$	c #7C867C",
"A$	c #3E3B2A",
"B$	c #54534D",
"C$	c #89898A",
"D$	c #787671",
"E$	c #403C29",
"F$	c #F5F5F4",
"G$	c #F7F7F9",
"H$	c #7F7C74",
"I$	c #5E5C56",
"J$	c #848483",
"K$	c #7C7B77",
"L$	c #1A1400",
"M$	c #605C4C",
"N$	c #D0CEC9",
"O$	c #4E4938",
"P$	c #474338",
"Q$	c #484433",
"R$	c #3C3723",
"S$	c #575341",
"                                                                                            ",
"                  . + @                                                                     ",
"                # $ % &                                                                     ",
"              * = - ;                                                                       ",
"          > , ' ) !                                                                         ",
"        ~ { ] ^ ;                                                                           ",
"      / ( _ : <                                             [ } | 1 2                       ",
"    3 4 5 6 7 8                                         9 0 a b c d e                       ",
"  f g h i j k l                                     m 0 n o p q q r s                       ",
"  t u v w x y                                     z A B C D q q q E F                       ",
"  G H I J K                                   L M N O P q Q q q R S T                       ",
"  U V W X Y Z `    ...                  +.  @.#.$.%.&.*.=.-.q ;.>.,.                        ",
"'.).!.~.{.].^./.(._.:.<.[.}.|.          1.2.3.4.5.6.7.8.9.0.q a.b.c.                        ",
"  d.e.f.g.h.i.j.k.l.j.m.n.o.p.q.r.s.t.u.v.w.x.y.z.A.B.C.D.E.F.G.H.                          ",
"    I.J.q h.K.L.k.k.k.k.k.L.M.N.O.P.Q.R.S.T.U.V.W.X.Y.Z.`. +.+++@+                          ",
"    #+$+%+q &+*+=+-+-+k.;+>+,+'+)+!+~+{+]+^+/+(+_+:+<+[+}+|+1+2+                            ",
"        3+4+5+6+7+k.-+k.8+9+0+a+b+c+q d+e+f+X.g+h+X.i+j+k+l+m+n+                            ",
"        o+p+q+r+s+l.-+k.t+u+v+q q w+x+y+z+_+A+A+B+C+D+E+F+G+H+                              ",
"          I+J+K+L+M+k.N+j.O+P+Q+q R+S+T+U+V+A+:+W+X+5.Y+Z+`+                                ",
"           @.@+@@@=+k.k.k.#@$@%@&@*@=@<+A+A+A+h+-@;@>@q ,@n+                                ",
"            '@)@!@~@k.k.M+{@]@^@/@(@_@_+g+V+:+:@D.<@[@}@|@                                  ",
"              1@2@8+k.3@4@5@6@7@8@9@0@A+V+a@b@c@d@q e@f@g@                                  ",
"                h@i@j@k@l@m@n@o@p@q@r@s@t@u@v@w@x@q y@z@                                    ",
"                  A@B@C@D@E@F@G@H@I@J@K@L@M@N@q O@P@Q@R@                                    ",
"                      S@T@U@V@W@X@I@Y@Z@`@ #q q .#+#@###                                    ",
"                      $#%#&#*#=#-#;#>#,#'#)#!#~#{#]#^#/#                                    ",
"                      $#(#_#:#<#> [#}#|#1#2#3#4#5#6#7#8#9#                                  ",
"                        F@0#a#b#%#c#d#e#f#g#h#i#j#k#l#m#n#                                  ",
"                        o#t p#q#r#s#t#u#M+k.j.v#w#j@-+x#y#                                  ",
"                            z#A#B#C#D#E#-+k.k.k.k.k.k.F#G#                  @ H#            ",
"                                  I##@k.k.-+k.-+-+-+k.g#J#                ! K#L#            ",
"                                  M#N#O#P#Q#R#k.k.-+k.k.S#              ; - = T#            ",
"                                    U#V#W#X#Y#j@Z#R#`#k. $.$          f +$@$#               ",
"                                      #$$$%$&$*$=$-$;$>$,$'$    )$!$~${$]$^$                ",
"                                        /$($_$:$<$[$}$|$1$2$  ^$3$4$5$6$7$                  ",
"                                          8$9$0$a$b$c$d$e$f$g$h$i$j$k$l$m$                  ",
"                                                n$o$q p$q$r$s$t$j$u$v$w$                    ",
"                                                x$y$e.p z$A$B$C$u$D$E$                      ",
"                                                    3+F$G$H$I$J$K$:#                        ",
"                                                    L$M$N$O$P$Q$R$                          ",
"                                                        S$                                  ",
"                                                                                            ",
"                                                                                            ",
"                                                                                            ",
"                                                                                            ",
"                                                                                            "};
