/* XPM */
static char * playerOne07_xpm[] = {
"46 46 765 2",
"  	c None",
". 	c #474334",
"+ 	c #444132",
"@ 	c #494536",
"# 	c #4C493C",
"$ 	c #4E4B41",
"% 	c #4B493C",
"& 	c #4A4739",
"* 	c #4C4A3E",
"= 	c #4B493D",
"- 	c #484437",
"; 	c #4C4839",
"> 	c #4E4B40",
", 	c #545148",
"' 	c #66645C",
") 	c #68675E",
"! 	c #4C4837",
"~ 	c #484436",
"{ 	c #58554B",
"] 	c #757471",
"^ 	c #81817F",
"/ 	c #706D65",
"( 	c #5D5A4D",
"_ 	c #4F4B3E",
": 	c #686762",
"< 	c #868686",
"[ 	c #8C8C8B",
"} 	c #787670",
"| 	c #5B574A",
"1 	c #4A4634",
"2 	c #4F4B40",
"3 	c #686864",
"4 	c #838383",
"5 	c #8A8989",
"6 	c #7B7A74",
"7 	c #625F53",
"8 	c #484331",
"9 	c #7A776B",
"0 	c #757267",
"a 	c #5C584B",
"b 	c #3F3C2B",
"c 	c #4A493C",
"d 	c #60635D",
"e 	c #7C7C7B",
"f 	c #89888A",
"g 	c #73726C",
"h 	c #4F4C3C",
"i 	c #474331",
"j 	c #7C7A6F",
"k 	c #AAA9A2",
"l 	c #B0AEA9",
"m 	c #827F76",
"n 	c #5C584A",
"o 	c #3F4738",
"p 	c #595A53",
"q 	c #6D6D6C",
"r 	c #6A6A66",
"s 	c #57564B",
"t 	c #716E61",
"u 	c #AEACA7",
"v 	c #E4E4E2",
"w 	c #F1F1F0",
"x 	c #C4C3BF",
"y 	c #9C9C94",
"z 	c #807E74",
"A 	c #746E61",
"B 	c #5D5745",
"C 	c #501F0F",
"D 	c #492515",
"E 	c #492E20",
"F 	c #4C4238",
"G 	c #62635B",
"H 	c #6C695E",
"I 	c #96958D",
"J 	c #D0D0CE",
"K 	c #FFFFFF",
"L 	c #F7F7F7",
"M 	c #EAE7E5",
"N 	c #D5D0CB",
"O 	c #BEB6AF",
"P 	c #9A9186",
"Q 	c #80786C",
"R 	c #797266",
"S 	c #686254",
"T 	c #7C1A0F",
"U 	c #850D04",
"V 	c #81170E",
"W 	c #6F3022",
"X 	c #605042",
"Y 	c #91928A",
"Z 	c #97958D",
"` 	c #777366",
" .	c #7F7D70",
"..	c #B5B5AE",
"+.	c #EAEBE9",
"@.	c #FEFEFE",
"#.	c #F7FDFE",
"$.	c #DFEFF5",
"%.	c #BDD5DD",
"&.	c #ADBBBC",
"*.	c #AFAEA8",
"=.	c #948D81",
"-.	c #5A5344",
";.	c #5D2719",
">.	c #652216",
",.	c #891910",
"'.	c #A6130C",
").	c #A5110A",
"!.	c #BA100E",
"~.	c #C63D3C",
"{.	c #B87973",
"].	c #BFB4B0",
"^.	c #D0D2CE",
"/.	c #ADABA3",
"(.	c #7C766A",
"_.	c #595544",
":.	c #827F75",
"<.	c #B5B4AF",
"[.	c #E7E6E4",
"}.	c #FAFFFE",
"|.	c #DCF9FF",
"1.	c #9DE3FF",
"2.	c #90DAFD",
"3.	c #6ECAF6",
"4.	c #82C8E6",
"5.	c #B5C9CD",
"6.	c #A2A09A",
"7.	c #746E63",
"8.	c #6B675E",
"9.	c #6A685E",
"0.	c #565447",
"a.	c #6E1D0F",
"b.	c #811B12",
"c.	c #971810",
"d.	c #A6150D",
"e.	c #B30E09",
"f.	c #CA0A06",
"g.	c #E70302",
"h.	c #EB0000",
"i.	c #E41D1E",
"j.	c #EB7F81",
"k.	c #F1DBDA",
"l.	c #E9F0ED",
"m.	c #C9CBC6",
"n.	c #969589",
"o.	c #534E41",
"p.	c #78756C",
"q.	c #C0BDB8",
"r.	c #EFF6F6",
"s.	c #BAEEFE",
"t.	c #48BDF7",
"u.	c #2FA4DF",
"v.	c #2488B9",
"w.	c #387C9A",
"x.	c #869796",
"y.	c #A49683",
"z.	c #907F6E",
"A.	c #7F7267",
"B.	c #787169",
"C.	c #635F55",
"D.	c #706E68",
"E.	c #807C71",
"F.	c #594331",
"G.	c #5E1C0C",
"H.	c #800D04",
"I.	c #AC0804",
"J.	c #CA0604",
"K.	c #E30503",
"L.	c #F60201",
"M.	c #FE0000",
"N.	c #F90101",
"O.	c #E82A2A",
"P.	c #F4A7A8",
"Q.	c #F7F4F3",
"R.	c #CBCECA",
"S.	c #96948A",
"T.	c #6F6C5D",
"U.	c #5B564A",
"V.	c #A29D93",
"W.	c #E4E4E0",
"X.	c #BEE8F7",
"Y.	c #56A7CE",
"Z.	c #2D7396",
"`.	c #56747D",
" +	c #817C6E",
".+	c #B29574",
"++	c #D2A87E",
"@+	c #BB946E",
"#+	c #AB8A6C",
"$+	c #9D826A",
"%+	c #7C6A58",
"&+	c #746E68",
"*+	c #868985",
"=+	c #82766C",
"-+	c #723F33",
";+	c #862118",
">+	c #A01814",
",+	c #BF0604",
"'+	c #F20000",
")+	c #FF0000",
"!+	c #FD0000",
"~+	c #EF0101",
"{+	c #E74545",
"]+	c #F2BABC",
"^+	c #D9D8D5",
"/+	c #96978D",
"(+	c #565242",
"_+	c #797467",
":+	c #AEAEA9",
"<+	c #AEC7CF",
"[+	c #668B99",
"}+	c #7E7F75",
"|+	c #C6A480",
"1+	c #E5B88A",
"2+	c #F0BC8B",
"3+	c #DAAC81",
"4+	c #C09B75",
"5+	c #B09172",
"6+	c #AC8E6F",
"7+	c #9B7B5B",
"8+	c #826D57",
"9+	c #83817A",
"0+	c #868986",
"a+	c #9E9C95",
"b+	c #A08880",
"c+	c #94675F",
"d+	c #9A261F",
"e+	c #D80200",
"f+	c #FB0000",
"g+	c #ED0C0C",
"h+	c #E7595A",
"i+	c #E6C1C1",
"j+	c #B5B9B0",
"k+	c #707162",
"l+	c #565142",
"m+	c #76716A",
"n+	c #7D7F7C",
"o+	c #888477",
"p+	c #C6A982",
"q+	c #F3CA97",
"r+	c #FDD29E",
"s+	c #F0C393",
"t+	c #B29171",
"u+	c #756556",
"v+	c #7C7670",
"w+	c #968B81",
"x+	c #A88D73",
"y+	c #A98562",
"z+	c #9A7F63",
"A+	c #777065",
"B+	c #939C9B",
"C+	c #BCD1CE",
"D+	c #9EA79F",
"E+	c #843F35",
"F+	c #C60300",
"G+	c #F90000",
"H+	c #E91212",
"I+	c #E97374",
"J+	c #D9C0BC",
"K+	c #95988D",
"L+	c #585149",
"M+	c #817161",
"N+	c #BC9F7D",
"O+	c #E0BA8C",
"P+	c #D4B48A",
"Q+	c #E4BD91",
"R+	c #F3C493",
"S+	c #C8A47D",
"T+	c #8E7964",
"U+	c #7A7877",
"V+	c #7B7C7D",
"W+	c #9D8C7D",
"X+	c #D2A981",
"Y+	c #D9A87A",
"Z+	c #9D7B5D",
"`+	c #7F7368",
" @	c #909591",
".@	c #8C857D",
"+@	c #8D2822",
"@@	c #D40201",
"#@	c #FC0000",
"$@	c #F2292A",
"%@	c #EB8B8B",
"&@	c #CAC0BA",
"*@	c #91998D",
"=@	c #6C5E4E",
"-@	c #AA8C6D",
";@	c #DDB385",
">@	c #C4A17A",
",@	c #A0876B",
"'@	c #C7A57F",
")@	c #F4C897",
"!@	c #F6CA98",
"~@	c #D7B186",
"{@	c #A68D75",
"]@	c #786F67",
"^@	c #72675F",
"/@	c #CFA983",
"(@	c #FDCA95",
"_@	c #DCAB7B",
":@	c #AC8A69",
"<@	c #7C6C5C",
"[@	c #70413B",
"}@	c #A40E0D",
"|@	c #E90000",
"1@	c #FA0406",
"2@	c #EC3235",
"3@	c #D38E8E",
"4@	c #A1A299",
"5@	c #747B6D",
"6@	c #5A4F43",
"7@	c #9A8164",
"8@	c #D2A779",
"9@	c #E2AF7B",
"0@	c #C79C70",
"a@	c #B38F6B",
"b@	c #CEA97F",
"c@	c #F8CE9B",
"d@	c #FFD59F",
"e@	c #FCCE99",
"f@	c #E1B78A",
"g@	c #A1866B",
"h@	c #907962",
"i@	c #CDA880",
"j@	c #F9CB98",
"k@	c #FECD97",
"l@	c #DCB182",
"m@	c #91745A",
"n@	c #672F28",
"o@	c #9E0503",
"p@	c #EF0000",
"q@	c #F90406",
"r@	c #D13231",
"s@	c #9C6D66",
"t@	c #6F796B",
"u@	c #473B30",
"v@	c #594632",
"w@	c #7C644B",
"x@	c #C09D77",
"y@	c #E6B581",
"z@	c #E2AB75",
"A@	c #D6A472",
"B@	c #DCA979",
"C@	c #F0C08D",
"D@	c #FED09B",
"E@	c #FFD19C",
"F@	c #FFD39D",
"G@	c #E5BA8D",
"H@	c #D7AE85",
"I@	c #E9BE8F",
"J@	c #F9CB99",
"K@	c #FFD09C",
"L@	c #F3C38F",
"M@	c #B0936D",
"N@	c #694B3B",
"O@	c #7A1C14",
"P@	c #B40A06",
"Q@	c #E80201",
"R@	c #E20706",
"S@	c #A0241D",
"T@	c #6C483B",
"U@	c #534334",
"V@	c #614A35",
"W@	c #715334",
"X@	c #8D6D4B",
"Y@	c #D7AE81",
"Z@	c #F7C591",
"`@	c #F4C18C",
" #	c #EDBC89",
".#	c #F2C18E",
"+#	c #FDCA96",
"@#	c #FFCF9B",
"##	c #FFCE9A",
"$#	c #FDCF9A",
"%#	c #F4CB97",
"&#	c #E8BF91",
"*#	c #F4C899",
"=#	c #FDCB97",
"-#	c #D5AE81",
";#	c #826F55",
">#	c #513C2F",
",#	c #70271F",
"'#	c #B21310",
")#	c #D40505",
"!#	c #AB0D06",
"~#	c #682114",
"{#	c #453C33",
"]#	c #614A31",
"^#	c #7F5D39",
"/#	c #93673B",
"(#	c #855D34",
"_#	c #856543",
":#	c #B4926D",
"<#	c #E7BA8C",
"[#	c #FFCE99",
"}#	c #FED09C",
"|#	c #FFCE9B",
"1#	c #FCC996",
"2#	c #EABC8A",
"3#	c #C7A179",
"4#	c #B99A78",
"5#	c #DBB88E",
"6#	c #FAD09E",
"7#	c #FFD09D",
"8#	c #EABC8B",
"9#	c #947D60",
"0#	c #4E5043",
"a#	c #504B40",
"b#	c #773830",
"c#	c #8B221B",
"d#	c #741C10",
"e#	c #4B2715",
"f#	c #4B4037",
"g#	c #6C5237",
"h#	c #8D6338",
"i#	c #A67543",
"j#	c #AF7C48",
"k#	c #956739",
"l#	c #715332",
"m#	c #7A6249",
"n#	c #B18E6C",
"o#	c #E2B284",
"p#	c #F8C795",
"q#	c #FFCF9A",
"r#	c #FECD99",
"s#	c #F4C18D",
"t#	c #D8A878",
"u#	c #B28D6A",
"v#	c #A58A6E",
"w#	c #DCB88E",
"x#	c #FBD09D",
"y#	c #FFCF9C",
"z#	c #FED29D",
"A#	c #E4B888",
"B#	c #9F8364",
"C#	c #5F5B4F",
"D#	c #535B52",
"E#	c #605C52",
"F#	c #614439",
"G#	c #453F3B",
"H#	c #655241",
"I#	c #8F6942",
"J#	c #A57240",
"K#	c #B8824E",
"L#	c #BA8450",
"M#	c #A06E3D",
"N#	c #79532A",
"O#	c #664B2F",
"P#	c #7A5F45",
"Q#	c #A07F61",
"R#	c #D1A67D",
"S#	c #F7C593",
"T#	c #FFD09B",
"U#	c #F0BC89",
"V#	c #D6A371",
"W#	c #C5986E",
"X#	c #DCB084",
"Y#	c #F8CB98",
"Z#	c #E9BE8D",
"`#	c #C19E7A",
" $	c #99826B",
".$	c #645F54",
"+$	c #5B5C53",
"@$	c #5E6154",
"#$	c #6F5B47",
"$$	c #A17B51",
"%$	c #AB7945",
"&$	c #A7733E",
"*$	c #AF7B48",
"=$	c #AC7945",
"-$	c #A06D37",
";$	c #8F5E2C",
">$	c #7C5328",
",$	c #6D4C2C",
"'$	c #6C553D",
")$	c #94775A",
"!$	c #CCA279",
"~$	c #F5C28E",
"{$	c #E0AC79",
"]$	c #D8A574",
"^$	c #EEBC89",
"/$	c #FFD39F",
"($	c #FDD49E",
"_$	c #F0C696",
":$	c #CEA880",
"<$	c #9E866F",
"[$	c #827B71",
"}$	c #686965",
"|$	c #636159",
"1$	c #5D5B4E",
"2$	c #555444",
"3$	c #4E453D",
"4$	c #84684C",
"5$	c #AD7F50",
"6$	c #AA743E",
"7$	c #9C6834",
"8$	c #A3703C",
"9$	c #9D6A37",
"0$	c #996632",
"a$	c #9C6934",
"b$	c #85592D",
"c$	c #6E4E2C",
"d$	c #6F5438",
"e$	c #8C6F53",
"f$	c #BD9773",
"g$	c #ECBC8D",
"h$	c #FBC995",
"i$	c #F6C38D",
"j$	c #EBB783",
"k$	c #FCCB95",
"l$	c #FED39F",
"m$	c #FACE9B",
"n$	c #E7C090",
"o$	c #BB9A75",
"p$	c #8D7155",
"q$	c #756250",
"r$	c #6B675F",
"s$	c #676863",
"t$	c #616057",
"u$	c #595648",
"v$	c #514E3F",
"w$	c #615343",
"x$	c #91704F",
"y$	c #B07E4B",
"z$	c #9E6A35",
"A$	c #9C6936",
"B$	c #A5723F",
"C$	c #A4713E",
"D$	c #A67340",
"E$	c #AB7946",
"F$	c #AE7A46",
"G$	c #A6723F",
"H$	c #916335",
"I$	c #77502B",
"J$	c #684D32",
"K$	c #7F654D",
"L$	c #B18F6D",
"M$	c #D6AC82",
"N$	c #ECBD8B",
"O$	c #F5C994",
"P$	c #E8C191",
"Q$	c #C6A37C",
"R$	c #AA8968",
"S$	c #82684E",
"T$	c #644C33",
"U$	c #574330",
"V$	c #59554C",
"W$	c #5D5B53",
"X$	c #5A584D",
"Y$	c #514E3E",
"Z$	c #6C5A46",
"`$	c #9E7851",
" %	c #B17D49",
".%	c #A16D39",
"+%	c #A3703D",
"@%	c #B07D4A",
"#%	c #B3804D",
"$%	c #B78451",
"%%	c #BA8754",
"&%	c #B88551",
"*%	c #B6834F",
"=%	c #AC7743",
"-%	c #8F5D2D",
";%	c #734C26",
">%	c #694C31",
",%	c #765D44",
"'%	c #8F7154",
")%	c #A3815F",
"!%	c #B18E69",
"~%	c #B7956D",
"{%	c #A68867",
"]%	c #83684D",
"^%	c #73583B",
"/%	c #6E4D2C",
"(%	c #5B4730",
"_%	c #504E43",
":%	c #565549",
"<%	c #565345",
"[%	c #796149",
"}%	c #A47A51",
"|%	c #B47F4B",
"1%	c #A6733E",
"2%	c #A77542",
"3%	c #B27F4C",
"4%	c #B5824F",
"5%	c #B98653",
"6%	c #B78450",
"7%	c #B88552",
"8%	c #B17C48",
"9%	c #9D6935",
"0%	c #83582E",
"a%	c #775331",
"b%	c #735233",
"c%	c #705334",
"d%	c #75593A",
"e%	c #816140",
"f%	c #735639",
"g%	c #735130",
"h%	c #865B30",
"i%	c #906233",
"j%	c #79532E",
"k%	c #574430",
"l%	c #46483F",
"m%	c #4E4E3E",
"n%	c #6C5945",
"o%	c #A07852",
"p%	c #B3804E",
"q%	c #AE7945",
"r%	c #AE7B48",
"s%	c #AD7A47",
"t%	c #A87542",
"u%	c #996532",
"v%	c #9F6A35",
"w%	c #A26F3D",
"x%	c #9F6E3E",
"y%	c #966839",
"z%	c #8C6236",
"A%	c #855C33",
"B%	c #8C6237",
"C%	c #94683B",
"D%	c #936435",
"E%	c #9D6933",
"F%	c #9A6736",
"G%	c #714D2E",
"H%	c #4A392C",
"I%	c #524740",
"J%	c #85684C",
"K%	c #AE7E50",
"L%	c #B37C49",
"M%	c #B17D4A",
"N%	c #AA7744",
"O%	c #9C6937",
"P%	c #A4703D",
"Q%	c #AC7844",
"R%	c #B27F4B",
"S%	c #B6824E",
"T%	c #B3804C",
"U%	c #AF7A48",
"V%	c #B5804D",
"W%	c #A97542",
"X%	c #A67039",
"Y%	c #966433",
"Z%	c #66492D",
"`%	c #42362A",
" &	c #745D47",
".&	c #A27951",
"+&	c #B7824F",
"@&	c #B37E4A",
"#&	c #AB7745",
"$&	c #AA7845",
"%&	c #AC7A47",
"&&	c #A67341",
"*&	c #A77440",
"=&	c #AB7744",
"-&	c #B37E4C",
";&	c #B78350",
">&	c #BF8C59",
",&	c #BC8955",
"'&	c #B37E49",
")&	c #A36E3B",
"!&	c #80592F",
"~&	c #58432C",
"{&	c #554A40",
"]&	c #81654C",
"^&	c #AA7E54",
"/&	c #B47E4A",
"(&	c #AB7844",
"_&	c #A97744",
":&	c #A97643",
"<&	c #A97642",
"[&	c #A16D3A",
"}&	c #AE7C4A",
"|&	c #B78553",
"1&	c #BE8B57",
"2&	c #99683B",
"3&	c #6D4C2D",
"4&	c #493A2D",
"5&	c #4F453D",
"6&	c #765E48",
"7&	c #A07952",
"8&	c #B68452",
"9&	c #B5804B",
"0&	c #A87642",
"a&	c #B17E4B",
"b&	c #A3703E",
"c&	c #B27E4B",
"d&	c #BF8B57",
"e&	c #B5824E",
"f&	c #936638",
"g&	c #694A2C",
"h&	c #4D443C",
"i&	c #705C47",
"j&	c #987450",
"k&	c #B28252",
"l&	c #B7824D",
"m&	c #B27D47",
"n&	c #9E6B38",
"o&	c #9B6735",
"p&	c #AB7643",
"q&	c #A5733F",
"r&	c #8E6030",
"s&	c #383535",
"t&	c #665645",
"u&	c #876A4D",
"v&	c #AC7F54",
"w&	c #B48251",
"x&	c #B07F4C",
"y&	c #B07C47",
"z&	c #B27E4A",
"A&	c #B37F4C",
"B&	c #B4814E",
"C&	c #B58350",
"D&	c #B68451",
"E&	c #AD7945",
"F&	c #A46E39",
"G&	c #926940",
"H&	c #835B32",
"I&	c #7D5226",
"J&	c #584B40",
"K&	c #745E48",
"L&	c #85694D",
"M&	c #957251",
"N&	c #AD7E51",
"O&	c #B9834D",
"P&	c #B37E48",
"Q&	c #B27C48",
"R&	c #AE7A45",
"S&	c #B5824C",
"T&	c #BC8752",
"U&	c #A97848",
"V&	c #976E47",
"W&	c #71573D",
"X&	c #5A4631",
"Y&	c #4A4337",
"Z&	c #4F483C",
"`&	c #615446",
" *	c #8D6E50",
".*	c #A97E53",
"+*	c #AD7E50",
"@*	c #B07E4E",
"#*	c #B2804D",
"$*	c #AF8050",
"%*	c #A57B50",
"&*	c #8D6C4B",
"**	c #745C45",
"=*	c #4E453B",
"-*	c #3C3C30",
";*	c #47463C",
">*	c #5E5446",
",*	c #715F4B",
"'*	c #7A644C",
")*	c #896C4E",
"!*	c #9A7958",
"~*	c #987757",
"{*	c #8A6A4B",
"]*	c #755D47",
"^*	c #5E5042",
"/*	c #474538",
"(*	c #48453A",
"_*	c #4A4539",
":*	c #474337",
"<*	c #5B5141",
"[*	c #736858",
"}*	c #6E6659",
"|*	c #645849",
"                                                                                            ",
"                                                                                            ",
"                                                                                            ",
"                                                                                            ",
"                                                                                            ",
"                                                        . +                                 ",
"                                                      @ # $ %                               ",
"                                                        & * = - ;                           ",
"                                                          . > , ' ) !                       ",
"                                                            ~ { ] ^ / (                     ",
"                                                              _ : < [ } | 1                 ",
"                                                                2 3 4 5 6 7 8               ",
"              9 0 a                                             b c d e f g h               ",
"          i j k l m n                                               o p q r s               ",
"          t u v w x y z A B                                       C D E F G H               ",
"          I J K K L M N O P Q R S                               T U V W X Y Z `             ",
"           ...+.@.K K #.$.%.&.*.=.-.                    ;.>.,.'.).!.~.{.].^./.(.            ",
"          _.:.<.[.}.|.1.2.3.4.5.6.7.8.9.0.        a.b.c.d.e.f.g.h.i.j.k.l.m.n.              ",
"            o.p.q.r.s.t.u.v.w.x.y.z.A.B.C.D.E.F.G.H.I.J.K.L.M.M.N.O.P.Q.R.S.T.              ",
"              U.V.W.X.Y.Z.`. +.+++@+#+$+%+&+*+=+-+;+>+,+'+)+)+!+~+{+]+^+/+(+                ",
"                _+:+<+[+}+|+1+2+3+4+5+6+7+8+9+0+a+b+c+d+e+!+)+f+g+h+i+j+k+                  ",
"                l+m+n+o+p+q+r+s+t+u+v+w+x+y+z+A+B+C+D+E+F+!+)+G+H+I+J+K+                    ",
"                  L+M+N+O+P+Q+R+S+T+U+V+W+X+Y+Z+`+ @.@+@@@#@)+G+$@%@&@*@                    ",
"                  =@-@;@>@,@'@)@!@~@{@]@^@/@(@_@:@<@[@}@|@)+M.1@2@3@4@5@                    ",
"                6@7@8@9@0@a@b@c@d@e@f@g@h@i@j@k@l@m@n@o@p@M.)+q@r@s@t@                      ",
"            u@v@w@x@y@z@A@B@C@D@E@F@F@G@H@I@J@K@L@M@N@O@P@Q@)+R@S@T@                        ",
"          U@V@W@X@Y@Z@`@ #.#+#@###$#%#&#*#E@K@##=#-#;#>#,#'#)#!#~#                          ",
"      {#]#^#/#(#_#:#<#[#D@}#|#|#1#2#3#4#5#6#7#|#E@8#9#0#a#b#c#d#e#                          ",
"    f#g#h#i#j#k#l#m#n#o#p#@#q#r#s#t#u#v#w#x#y#7#z#A#B#C#D#E#F#                              ",
"  G#H#I#J#K#L#M#N#O#P#Q#R#S#q#T#U#V#W#X#Y#K@@#E@Z#`# $.$+$@$                                ",
"  #$$$%$&$*$=$-$;$>$,$'$)$!$C@q#~${$]$^$K@/$($_$:$<$[$}$|$1$2$                              ",
"3$4$5$6$7$8$9$0$a$7$b$c$d$e$f$g$h$i$j$k$l$m$n$o$p$q$r$s$t$u$v$                              ",
"w$x$y$z$A$B$C$D$E$F$G$H$I$J$K$L$M$2#N$O$P$Q$R$S$T$U$V$W$X$Y$                                ",
"Z$`$ %.%+%@%#%$%%%&%*%=%-%;%>%,%'%)%!%~%{%]%^%W@/%(%_%:%<%                                  ",
"[%}%|%1%2%3%4%%%5%6%7%8%9%;$0%a%b%c%d%e%f%g%h%i%j%k%l%m%                                    ",
"n%o%p%q%r%#%4%$%3%s%@%t%u%v%w%x%y%z%A%B%C%D%E%F%G%H%                                        ",
"I%J%K%L%M%y$3%#%s%N%N%+%O%P%Q%R%S%T%U%T%V%W%X%Y%Z%`%                                        ",
"   &.&+&@&#&$&%&E$N%N%&&C$D$*&=&-&;&5%>&,&'&)&!&~&                                          ",
"  {&]&^&$%/&(&2%_&N%N%:&:&N%<&C$[&D$}&|&1&S%2&3&4&                                          ",
"    5&6&7&8&9&Q%0&:&N%$&s%@%a&(&O%O%b&c&d&e&f&g&                                            ",
"      h&i&j&k&l&m&Q%#&E$3%$%7%3%t%n&o&p&a&q&r&                                              ",
"        s&t&u&v&w&x&M%y&z&A&B&C&D&E&F&D$G&H&I&                                              ",
"            J&K&L&M&N&O&P&Q&R&S&T&c&U&V&W&X&                                                ",
"              Y&Z&`& *.*+*@*3%#*$*%*&***=*                                                  ",
"                -*;*>*,*'*)*!*~*{*]*^*                                                      ",
"                  /*(*_*:*<*[*}*|*                                                          "};
