/* XPM */
static char * playerOne15_xpm[] = {
"46 46 795 2",
"  	c None",
". 	c #666053",
"+ 	c #5A5446",
"@ 	c #4C473A",
"# 	c #494537",
"$ 	c #4A4639",
"% 	c #44453A",
"& 	c #6B5D4B",
"* 	c #7B6955",
"= 	c #816E58",
"- 	c #79654F",
"; 	c #705E48",
"> 	c #6B5B47",
", 	c #645747",
"' 	c #554E41",
") 	c #48453A",
"! 	c #775F47",
"~ 	c #8B6D4D",
"{ 	c #9A7752",
"] 	c #A27B55",
"^ 	c #A07750",
"/ 	c #9C754F",
"( 	c #9C7650",
"_ 	c #927251",
": 	c #7A634C",
"< 	c #665645",
"[ 	c #605342",
"} 	c #584D41",
"| 	c #615243",
"1 	c #7C6348",
"2 	c #96714C",
"3 	c #AA7D50",
"4 	c #B48250",
"5 	c #B5824F",
"6 	c #B27F4A",
"7 	c #B6804B",
"8 	c #B7824F",
"9 	c #B48251",
"0 	c #A17850",
"a 	c #95714E",
"b 	c #8F6F4E",
"c 	c #84684C",
"d 	c #725C48",
"e 	c #594E41",
"f 	c #614F3B",
"g 	c #785D42",
"h 	c #956D46",
"i 	c #AA7949",
"j 	c #B8834F",
"k 	c #BA864F",
"l 	c #B7844D",
"m 	c #B47E4B",
"n 	c #B6804A",
"o 	c #B7824A",
"p 	c #B6814B",
"q 	c #B27F4C",
"r 	c #B1804F",
"s 	c #A97D50",
"t 	c #82684B",
"u 	c #6D5A47",
"v 	c #7C5937",
"w 	c #8E6740",
"x 	c #A17040",
"y 	c #AB7540",
"z 	c #B07A45",
"A 	c #B4804B",
"B 	c #B4824E",
"C 	c #B6824F",
"D 	c #B7824E",
"E 	c #B3804B",
"F 	c #AF7C46",
"G 	c #AE7A46",
"H 	c #B07B46",
"I 	c #B37E47",
"J 	c #B3814F",
"K 	c #A67C50",
"L 	c #977450",
"M 	c #7F654B",
"N 	c #655445",
"O 	c #8C5F30",
"P 	c #9A6B3E",
"Q 	c #A77545",
"R 	c #A97541",
"S 	c #A26D39",
"T 	c #A16D3A",
"U 	c #A77440",
"V 	c #B07D49",
"W 	c #B3814D",
"X 	c #B4804D",
"Y 	c #AF7D49",
"Z 	c #AB7846",
"` 	c #AA7744",
" .	c #AA7743",
"..	c #AC7843",
"+.	c #AE7945",
"@.	c #B27C48",
"#.	c #B5814D",
"$.	c #B28251",
"%.	c #A17851",
"&.	c #886A4C",
"*.	c #6C5848",
"=.	c #936536",
"-.	c #AA7845",
";.	c #B9844F",
">.	c #B27D4B",
",.	c #A2703D",
"'.	c #9D6A38",
").	c #A06D3A",
"!.	c #A67441",
"~.	c #AC7A46",
"{.	c #AC7946",
"].	c #AA7745",
"^.	c #A97643",
"/.	c #A87643",
"(.	c #A97744",
"_.	c #AD7845",
":.	c #B17C47",
"<.	c #B8824D",
"[.	c #B3804F",
"}.	c #A3784F",
"|.	c #87694B",
"1.	c #6C4D2E",
"2.	c #906438",
"3.	c #BF8B55",
"4.	c #BA8654",
"5.	c #AF7C4A",
"6.	c #A87543",
"7.	c #A87441",
"8.	c #A77442",
"9.	c #A57240",
"0.	c #A67440",
"a.	c #AA7644",
"b.	c #AA7643",
"c.	c #AA7844",
"d.	c #AD7B48",
"e.	c #AF7B49",
"f.	c #AF7C49",
"g.	c #B27D4A",
"h.	c #B27E4E",
"i.	c #9C754E",
"j.	c #7C634A",
"k.	c #6D4D2F",
"l.	c #926538",
"m.	c #B07B47",
"n.	c #BE8954",
"o.	c #BE8B56",
"p.	c #BA8653",
"q.	c #B47F4B",
"r.	c #B17C48",
"s.	c #A77340",
"t.	c #A16F3C",
"u.	c #AB7845",
"v.	c #AD7C47",
"w.	c #B2804C",
"x.	c #B3814E",
"y.	c #B37F4D",
"z.	c #B07D4A",
"A.	c #8E6E4E",
"B.	c #52402C",
"C.	c #73522F",
"D.	c #976637",
"E.	c #AF7742",
"F.	c #B7814C",
"G.	c #B7834F",
"H.	c #B17E4B",
"I.	c #AE7C48",
"J.	c #AC7846",
"K.	c #A97543",
"L.	c #A3703B",
"M.	c #9E6B36",
"N.	c #A26E3B",
"O.	c #AC7947",
"P.	c #B3804D",
"Q.	c #B68451",
"R.	c #B88552",
"S.	c #B68350",
"T.	c #AA7642",
"U.	c #AE7944",
"V.	c #AD7D4D",
"W.	c #977350",
"X.	c #74604A",
"Y.	c #5B432D",
"Z.	c #7F5731",
"`.	c #9C6835",
" +	c #A46F39",
".+	c #9F6E3D",
"++	c #9B6C3E",
"@+	c #92673B",
"#+	c #896036",
"$+	c #8E6338",
"%+	c #8F6237",
"&+	c #906032",
"*+	c #95632F",
"=+	c #A36D3A",
"-+	c #B17D49",
";+	c #B78450",
">+	c #B98653",
",+	c #BA8754",
"'+	c #B98552",
")+	c #A36E3B",
"!+	c #A6723D",
"~+	c #AB7B4B",
"{+	c #91704E",
"]+	c #6E5C48",
"^+	c #61472E",
"/+	c #805830",
"(+	c #946332",
"_+	c #8F6030",
":+	c #805A33",
"<+	c #815E3A",
"[+	c #856340",
"}+	c #7C5D3C",
"|+	c #7B5B3B",
"1+	c #7C5C3C",
"2+	c #765436",
"3+	c #74502C",
"4+	c #7F5429",
"5+	c #956233",
"6+	c #AB7643",
"7+	c #B78451",
"8+	c #AE7B48",
"9+	c #A7723E",
"0+	c #A26D37",
"a+	c #AA743D",
"b+	c #A97A4B",
"c+	c #655646",
"d+	c #4D4739",
"e+	c #5F482F",
"f+	c #78532D",
"g+	c #845B31",
"h+	c #7F5B36",
"i+	c #816345",
"j+	c #957756",
"k+	c #A98862",
"l+	c #AC8964",
"m+	c #A68461",
"n+	c #A1815F",
"o+	c #896D51",
"p+	c #75593D",
"q+	c #704F2F",
"r+	c #7D542D",
"s+	c #906335",
"t+	c #A2703F",
"u+	c #A7733F",
"v+	c #A36F3C",
"w+	c #A26F3C",
"x+	c #A4703C",
"y+	c #A57039",
"z+	c #AB7641",
"A+	c #A57A4D",
"B+	c #896B4E",
"C+	c #565546",
"D+	c #535448",
"E+	c #514C3E",
"F+	c #594730",
"G+	c #6B4D2E",
"H+	c #795A3A",
"I+	c #8A6E4F",
"J+	c #A98A68",
"K+	c #CDA97F",
"L+	c #E2B889",
"M+	c #E3B686",
"N+	c #E2B686",
"O+	c #DDB386",
"P+	c #C19D77",
"Q+	c #A38262",
"R+	c #85674A",
"S+	c #755639",
"T+	c #745330",
"U+	c #7E572D",
"V+	c #8D5E2E",
"W+	c #96642F",
"X+	c #9C6A34",
"Y+	c #AE7844",
"Z+	c #AC7540",
"`+	c #A77644",
" @	c #94704A",
".@	c #735E49",
"+@	c #59584B",
"@@	c #5B5A50",
"#@	c #5A544A",
"$@	c #5B4B3A",
"%@	c #6E553B",
"&@	c #907253",
"*@	c #B89874",
"=@	c #DEB88B",
"-@	c #F6CD9A",
";@	c #FCCB96",
">@	c #F3C08B",
",@	c #F3BF8B",
"'@	c #F8C591",
")@	c #F0C190",
"!@	c #DDB286",
"~@	c #BC9671",
"{@	c #977757",
"]@	c #7C5F44",
"^@	c #6E5132",
"/@	c #735029",
"(@	c #815629",
"_@	c #956533",
":@	c #AF7945",
"<@	c #B9824C",
"[@	c #AC7945",
"}@	c #956B40",
"|@	c #795E41",
"1@	c #584C40",
"2@	c #585445",
"3@	c #5D5B51",
"4@	c #62635D",
"5@	c #68645D",
"6@	c #736354",
"7@	c #91755A",
"8@	c #BE9A75",
"9@	c #E6BE90",
"0@	c #FBD29D",
"a@	c #FFD5A0",
"b@	c #F7C894",
"c@	c #E5B27F",
"d@	c #E1AC79",
"e@	c #F0BB86",
"f@	c #FDCA96",
"g@	c #FDCE9A",
"h@	c #EBBD8E",
"i@	c #D0A77D",
"j@	c #AD8969",
"k@	c #8D6F51",
"l@	c #785B3D",
"m@	c #735332",
"n@	c #8A6035",
"o@	c #AB7744",
"p@	c #B27D49",
"q@	c #9B6E40",
"r@	c #7A5A39",
"s@	c #5E4B38",
"t@	c #5B584A",
"u@	c #605E54",
"v@	c #666762",
"w@	c #767169",
"x@	c #93806E",
"y@	c #BE9C7A",
"z@	c #E6BD8E",
"A@	c #FCD09C",
"B@	c #FFD69F",
"C@	c #FBD09B",
"D@	c #E5B88B",
"E@	c #CA9D74",
"F@	c #CB9B6E",
"G@	c #E3B17F",
"H@	c #F9C893",
"I@	c #FFD29D",
"J@	c #FED09C",
"K@	c #F6C796",
"L@	c #E4B88B",
"M@	c #C8A17A",
"N@	c #A58563",
"O@	c #846748",
"P@	c #846039",
"Q@	c #94683B",
"R@	c #92683D",
"S@	c #7E5C38",
"T@	c #614B34",
"U@	c #5C5D4F",
"V@	c #5E6156",
"W@	c #62635B",
"X@	c #7C7264",
"Y@	c #AD9175",
"Z@	c #DCB488",
"`@	c #F9CD98",
" #	c #FFD29E",
".#	c #FFD39D",
"+#	c #F1C898",
"@#	c #D0AC85",
"##	c #B89472",
"$#	c #C59B72",
"%#	c #E3B482",
"&#	c #FFD09D",
"*#	c #FFD19D",
"=#	c #FFD19C",
"-#	c #FDCD97",
";#	c #F5C593",
">#	c #D8AE83",
",#	c #AA8762",
"'#	c #8A6844",
")#	c #7A5736",
"!#	c #6F5135",
"~#	c #5E4935",
"{#	c #5F594D",
"]#	c #596055",
"^#	c #585E53",
"/#	c #786D5A",
"(#	c #B59572",
"_#	c #EDC08E",
":#	c #FFD39C",
"<#	c #FFD39E",
"[#	c #FED19E",
"}#	c #F2C999",
"|#	c #D2B088",
"1#	c #BE9D79",
"2#	c #D6AD81",
"3#	c #F0C18E",
"4#	c #FDCD98",
"5#	c #FFCF9B",
"6#	c #FCCB98",
"7#	c #F7C591",
"8#	c #F5C28D",
"9#	c #F8C48F",
"0#	c #EBBB89",
"a#	c #BF9A70",
"b#	c #886B4C",
"c#	c #644B34",
"d#	c #544232",
"e#	c #6D2C20",
"f#	c #713E33",
"g#	c #624C42",
"h#	c #525045",
"i#	c #62604E",
"j#	c #A48B6A",
"k#	c #E7BD8C",
"l#	c #FFD29C",
"m#	c #FFD09C",
"n#	c #FACD9B",
"o#	c #E7BE92",
"p#	c #DEB78B",
"q#	c #F0C794",
"r#	c #FDD19B",
"s#	c #FDCF99",
"t#	c #F1C08D",
"u#	c #DFAE7D",
"v#	c #DFAC79",
"w#	c #EAB67F",
"x#	c #E1B381",
"y#	c #B89670",
"z#	c #7C654D",
"A#	c #4D4033",
"B#	c #601F10",
"C#	c #8E180F",
"D#	c #A31A14",
"E#	c #8C2922",
"F#	c #6A322B",
"G#	c #574738",
"H#	c #8B7459",
"I#	c #CEAA7E",
"J#	c #F6CB96",
"K#	c #F2C595",
"L#	c #DEB48A",
"M#	c #DEB689",
"N#	c #F4CB96",
"O#	c #FED49D",
"P#	c #FFD79F",
"Q#	c #F8CD9A",
"R#	c #DEB386",
"S#	c #C39A72",
"T#	c #C89C6F",
"U#	c #DAAA78",
"V#	c #CCA477",
"W#	c #9E8365",
"X#	c #695A4B",
"Y#	c #7A2013",
"Z#	c #B70D08",
"`#	c #DC0604",
" $	c #CF0A08",
".$	c #A1120E",
"+$	c #76241C",
"@$	c #784E3C",
"#$	c #A78765",
"$$	c #E1B989",
"%$	c #FCCE98",
"&$	c #FECF9B",
"*$	c #DFB78B",
"=$	c #AF9173",
"-$	c #B19374",
";$	c #D0AD85",
">$	c #ECC291",
",$	c #FAD09A",
"'$	c #F3C997",
")$	c #D7B087",
"!$	c #BC9A76",
"~$	c #C19D76",
"{$	c #D1A87D",
"]$	c #B59472",
"^$	c #816D5A",
"/$	c #704B3F",
"($	c #A02D27",
"_$	c #D70E0C",
":$	c #FB0000",
"<$	c #F90000",
"[$	c #DC0101",
"}$	c #A40907",
"|$	c #782D24",
"1$	c #876650",
"2$	c #BE9B73",
"3$	c #E8BA87",
"4$	c #FAC992",
"5$	c #D7B086",
"6$	c #9B856F",
"7$	c #84766A",
"8$	c #978675",
"9$	c #B89D7F",
"0$	c #DBB588",
"a$	c #E8BF90",
"b$	c #E2BC8E",
"c$	c #D1AF86",
"d$	c #D0AE84",
"e$	c #C5A580",
"f$	c #9C8772",
"g$	c #73695F",
"h$	c #58534B",
"i$	c #6F7C6E",
"j$	c #956F66",
"k$	c #C44744",
"l$	c #F11515",
"m$	c #FF0101",
"n$	c #FF0000",
"o$	c #F20000",
"p$	c #BA0807",
"q$	c #802D2A",
"r$	c #7B6458",
"s$	c #97856D",
"t$	c #BB9672",
"u$	c #DEAD7E",
"v$	c #D9AB81",
"w$	c #AD9178",
"x$	c #857C77",
"y$	c #797674",
"z$	c #85786A",
"A$	c #AB8E70",
"B$	c #DAB187",
"C$	c #F7C996",
"D$	c #F1C794",
"E$	c #D7B488",
"F$	c #AA997F",
"G$	c #888B84",
"H$	c #868A87",
"I$	c #827F76",
"J$	c #8F998F",
"K$	c #B5908A",
"L$	c #E05A59",
"M$	c #FA1B1B",
"N$	c #EE0000",
"O$	c #B81411",
"P$	c #8B4D48",
"Q$	c #8B8E87",
"R$	c #98A198",
"S$	c #938675",
"T$	c #AC8E70",
"U$	c #B7916D",
"V$	c #B09072",
"W$	c #9A8878",
"X$	c #887E74",
"Y$	c #8B7A69",
"Z$	c #AA8C6E",
"`$	c #DAAD82",
" %	c #F5C28F",
".%	c #E2B88A",
"+%	c #B09D81",
"@%	c #788A89",
"#%	c #7FA4B0",
"$%	c #B1C5CA",
"%%	c #B0B1AB",
"&%	c #878074",
"*%	c #A7ABA2",
"=%	c #D1A4A0",
"-%	c #EE6263",
";%	c #F91819",
">%	c #FE0000",
",%	c #E90101",
"'%	c #B21814",
")%	c #8F5E55",
"!%	c #9EA39C",
"~%	c #A0ACAA",
"{%	c #8E928C",
"]%	c #8B8578",
"^%	c #917F6A",
"/%	c #9A7E64",
"(%	c #9E8269",
"_%	c #A78A6F",
":%	c #AA8B6F",
"<%	c #C29A71",
"[%	c #D9AC7F",
"}%	c #C8A680",
"|%	c #998F7A",
"1%	c #608087",
"2%	c #4189AA",
"3%	c #70B9DB",
"4%	c #BFE4F0",
"5%	c #D7DBD7",
"6%	c #AEA9A1",
"7%	c #7A746A",
"8%	c #81887A",
"9%	c #B1B0A8",
"0%	c #DCAAA7",
"a%	c #EE5A5C",
"b%	c #F31011",
"c%	c #F00000",
"d%	c #C40F0C",
"e%	c #9E3E36",
"f%	c #9C6F68",
"g%	c #9A7D76",
"h%	c #8C7B76",
"i%	c #83817B",
"j%	c #817D75",
"k%	c #827466",
"l%	c #887360",
"m%	c #9E826A",
"n%	c #A7886E",
"o%	c #B49272",
"p%	c #BEA181",
"q%	c #95978C",
"r%	c #548292",
"s%	c #3A8BB2",
"t%	c #40AADF",
"u%	c #64C9F7",
"v%	c #C4F2FD",
"w%	c #EAF3F2",
"x%	c #D1D0CC",
"y%	c #A5A39D",
"z%	c #7F7C71",
"A%	c #686355",
"B%	c #868D7F",
"C%	c #BCB9B2",
"D%	c #E2AAA8",
"E%	c #EE5455",
"F%	c #F50E0E",
"G%	c #E10201",
"H%	c #BD110E",
"I%	c #A3241F",
"J%	c #893229",
"K%	c #754135",
"L%	c #75655B",
"M%	c #78776E",
"N%	c #726F68",
"O%	c #70685D",
"P%	c #7B6F62",
"Q%	c #867768",
"R%	c #908171",
"S%	c #A29A8B",
"T%	c #9BB0B3",
"U%	c #70B3CF",
"V%	c #64BAE3",
"W%	c #81D4FB",
"X%	c #9EE7FF",
"Y%	c #E2FDFF",
"Z%	c #FDFFFF",
"`%	c #F3F3F1",
" &	c #D7D7D3",
".&	c #B1B0A9",
"+&	c #8E8C82",
"@&	c #92978B",
"#&	c #CCC9C3",
"$&	c #EDB2B1",
"%&	c #F35252",
"&&	c #F70809",
"*&	c #E60201",
"=&	c #C70704",
"-&	c #A50803",
";&	c #800D03",
">&	c #621E0F",
",&	c #5A4230",
"'&	c #5F5E52",
")&	c #676459",
"!&	c #6B675E",
"~&	c #767065",
"{&	c #938F85",
"]&	c #A5B0AF",
"^&	c #9FBFCA",
"/&	c #A3CDDF",
"(&	c #C0DEEA",
"_&	c #E2F1F3",
":&	c #FBFDFA",
"<&	c #FFFEFF",
"[&	c #FFFFFF",
"}&	c #FAFAF8",
"|&	c #D3D2CE",
"1&	c #A19F97",
"2&	c #868579",
"3&	c #B4B9B1",
"4&	c #E5DFDD",
"5&	c #F9B4B5",
"6&	c #F74A4B",
"7&	c #F9090A",
"8&	c #FA0000",
"9&	c #EB0402",
"0&	c #D50906",
"a&	c #C00F09",
"b&	c #AA130C",
"c&	c #96130B",
"d&	c #791408",
"e&	c #635E50",
"f&	c #80796C",
"g&	c #969187",
"h&	c #999992",
"i&	c #A3A39B",
"j&	c #B7B3AC",
"k&	c #C8C2BB",
"l&	c #DAD4CF",
"m&	c #DEDDDA",
"n&	c #F0F0EE",
"o&	c #F4F4F3",
"p&	c #CFCECB",
"q&	c #98958D",
"r&	c #AFB1AA",
"s&	c #D4DBD7",
"t&	c #EEDDDC",
"u&	c #F19A9B",
"v&	c #E83E3F",
"w&	c #DF0A09",
"x&	c #D50603",
"y&	c #BD0E08",
"z&	c #9A160E",
"A&	c #851D11",
"B&	c #7C2216",
"C&	c #756B5A",
"D&	c #84796B",
"E&	c #8A8479",
"F&	c #949188",
"G&	c #9F9E96",
"H&	c #BAB9B3",
"I&	c #C9C8C3",
"J&	c #A9A7A1",
"K&	c #79756B",
"L&	c #949086",
"M&	c #BCBEB8",
"N&	c #D4D5D0",
"O&	c #D2B3AE",
"P&	c #C96764",
"Q&	c #BF2422",
"R&	c #B40B07",
"S&	c #A71009",
"T&	c #8E1A10",
"U&	c #6D2316",
"V&	c #686558",
"W&	c #89867C",
"X&	c #9B9990",
"Y&	c #8A887D",
"Z&	c #949186",
"`&	c #ABACA4",
" *	c #9D9990",
".*	c #8C685D",
"+*	c #86342A",
"@*	c #87160D",
"#*	c #870F06",
"$*	c #827E72",
"%*	c #86857B",
"&*	c #706C62",
"**	c #574336",
"=*	c #51291A",
"-*	c #521E10",
";*	c #5E5A4C",
">*	c #646359",
",*	c #65655E",
"'*	c #5C5852",
")*	c #514C42",
"!*	c #464435",
"~*	c #59584D",
"{*	c #6C6E68",
"]*	c #797A78",
"^*	c #737673",
"/*	c #63675F",
"(*	c #52544A",
"_*	c #464738",
":*	c #534F3F",
"<*	c #68675D",
"[*	c #7B7975",
"}*	c #888786",
"|*	c #80807E",
"1*	c #6F6E69",
"2*	c #5E5C54",
"3*	c #504D3F",
"4*	c #5A5647",
"5*	c #6A665D",
"6*	c #7B7772",
"7*	c #83827E",
"8*	c #818280",
"9*	c #73726E",
"0*	c #605F55",
"a*	c #635F53",
"b*	c #6E6B63",
"c*	c #75736F",
"d*	c #63615A",
"e*	c #514F43",
"f*	c #4A4738",
"g*	c #565242",
"h*	c #646156",
"i*	c #66635A",
"j*	c #5A584E",
"k*	c #4D4B40",
"l*	c #4C493D",
"m*	c #4B4A3D",
"n*	c #4C493A",
"o*	c #4A483A",
"p*	c #4D4A3E",
"q*	c #4C483B",
"r*	c #4B483A",
"s*	c #4B483B",
"t*	c #4A4637",
"                                                                                            ",
"                                                                                            ",
"                                                                                            ",
"                                        . + @ # $ %                                         ",
"                                    & * = - ; > , ' )                                       ",
"                                  ! ~ { ] ^ / ( _ : < [ }                                   ",
"                              | 1 2 3 4 5 6 7 8 9 0 a b c d e                               ",
"                            f g h i j k l m n o p q q r s ( t u                             ",
"                            v w x y z A B C D E F G H I p J K L M N                         ",
"                          O P Q R S T U V W X Y Z `  ...+.@.#.$.%.&.*.                      ",
"                          =.-.;.>.,.'.).!.~.{.].` ` ^./.(._.:.<.[.}.|.                      ",
"                        1.2.V 3.4.5.6.U 7.^.8.9.0.a.b.c.d.e.f.g.m h.i.j.                    ",
"                        k.l.m.n.o.p.C q.r._.s.).t.8.u.v.w.x.y.z.m.q.3 A.                    ",
"                      B.C.D.E.F.G.H.I.{.J.K.L.M.N.O.H.P.Q.R.S.f.T.U.V.W.X.                  ",
"                      Y.Z.`. +.+++@+#+#+$+%+&+*+=+-+;+>+,+'+X Z )+!+~+{+]+                  ",
"                      ^+/+(+_+:+<+[+}+|+1+2+3+4+5+6+D 7+5 8+b.9+0+a+b+A.c+                  ",
"                    d+e+f+g+h+i+j+k+l+m+n+o+p+q+r+s+t+7.u+v+w+x+y+z+A+B+                    ",
"                C+D+E+F+G+H+I+J+K+L+M+N+O+P+Q+R+S+T+U+V+W+X+!+Y+Z+`+ @.@                    ",
"                +@@@#@$@%@&@*@=@-@;@>@,@'@)@!@~@{@]@^@/@(@_@:@<@[@}@|@1@                    ",
"              2@3@4@5@6@7@8@9@0@a@b@c@d@e@f@g@h@i@j@k@l@m@n@o@p@q@r@s@                      ",
"              t@u@v@w@x@y@z@A@B@C@D@E@F@G@H@I@J@K@L@M@N@O@P@Q@R@S@T@                        ",
"              U@V@W@X@Y@Z@`@ #.#+#@###$#%#H@&#*#=#-#;#>#,#'#)#!#~#                          ",
"              {#]#^#/#(#_#:#<#[#}#|#1#2#3#4#5#6#7#8#9#0#a#b#c#d#                            ",
"            e#f#g#h#i#j#k#l#I@m#n#o#p#q#r#I@s#t#u#v#w#x#y#z#A#                              ",
"          B#C#D#E#F#G#H#I#J#I@J@K#L#M#N#O#P#Q#R#S#T#U#V#W#X#                                ",
"          Y#Z#`# $.$+$@$#$$$%$&$*$=$-$;$>$,$'$)$!$~${$]$^$                                  ",
"        /$($_$:$<$[$}$|$1$2$3$4$5$6$7$8$9$0$a$b$c$d$e$f$g$h$                                ",
"      i$j$k$l$m$n$o$p$q$r$s$t$u$v$w$x$y$z$A$B$C$D$E$F$G$H$I$                                ",
"      J$K$L$M$m$n$N$O$P$Q$R$S$T$U$V$W$X$Y$Z$`$ %.%+%@%#%$%%%&%                              ",
"      *%=%-%;%n$>%,%'%)%!%~%{%]%^%/%(%_%:%<%[%}%|%1%2%3%4%5%6%7%                            ",
"    8%9%0%a%b%>%n$c%d%e%f%g%h%i%j%k%l%m%n%o%p%q%r%s%t%u%v%w%x%y%z%A%                        ",
"    B%C%D%E%F%>%n$:$G%H%I%J%K%L%M%N%O%P%Q%R%S%T%U%V%W%X%Y%Z%`% &.&+&                        ",
"    @&#&$&%&&&n$n$>%*&=&-&;&>&,&    '&)&!&~&{&]&^&/&(&_&:&<&[&}&|&1&                        ",
"  2&3&4&5&6&7&8&9&0&a&b&c&d&              e&f&g&h&i&j&k&l&m&n&o&p&q&                        ",
"  r&s&t&u&v&w&x&y&z&A&B&                          C&D&E&F&G&H&I&J&K&                        ",
"L&M&N&O&P&Q&R&S&T&U&                                      V&W&X&Y&                          ",
"Z&`& *.*+*@*#*                                                                              ",
"$*%*&***=*-*                                                                                ",
";*>*,*'*)*!*                                                                                ",
"  ~*{*]*^*/*(*_*                                                                            ",
"  :*<*[*}*|*1*2*3*                                                                          ",
"    4*5*6*7*8*9*0*                                                                          ",
"        a*b*[*c*d*e*f*                                                                      ",
"          g*h*i*j*k*l*m*n*                                                                  ",
"                  o*l*p*q*                                                                  ",
"                    r*s*t*                                                                  "};
