/* XPM */
static char * playerOne15_xpm[] = {
"46 46 544 2",
"  	c None",
". 	c #433F2F",
"+ 	c #4F4D43",
"@ 	c #35301A",
"# 	c #3D3726",
"$ 	c #61605E",
"% 	c #4B483C",
"& 	c #3D3927",
"* 	c #444030",
"= 	c #54534B",
"- 	c #56554F",
"; 	c #342F19",
"> 	c #3E3A28",
", 	c #5D5D5B",
"' 	c #524F44",
") 	c #69665E",
"! 	c #4A4636",
"~ 	c #6F6D67",
"{ 	c #9A9B9D",
"] 	c #7D7C77",
"^ 	c #413C2A",
"/ 	c #1E1800",
"( 	c #474331",
"_ 	c #817E73",
": 	c #9E9C96",
"< 	c #4B4735",
"[ 	c #56544D",
"} 	c #858585",
"| 	c #969699",
"1 	c #72706A",
"2 	c #454130",
"3 	c #5F5C4E",
"4 	c #BFBFBE",
"5 	c #EDEDEF",
"6 	c #EBEBEC",
"7 	c #B0AEAB",
"8 	c #595546",
"9 	c #0E0700",
"0 	c #49463B",
"a 	c #696866",
"b 	c #868689",
"c 	c #929394",
"d 	c #787873",
"e 	c #45412F",
"f 	c #716E61",
"g 	c #F9F9FB",
"h 	c #FFFFFF",
"i 	c #F1F2F3",
"j 	c #B3B2AF",
"k 	c #6B685B",
"l 	c #3F3A27",
"m 	c #38331F",
"n 	c #454133",
"o 	c #686869",
"p 	c #868687",
"q 	c #969798",
"r 	c #7F7F7B",
"s 	c #423D2B",
"t 	c #767368",
"u 	c #F1F1F1",
"v 	c #F4F3F3",
"w 	c #EAEBEB",
"x 	c #D7D7D6",
"y 	c #7E7B71",
"z 	c #241F08",
"A 	c #342F18",
"B 	c #49473C",
"C 	c #676764",
"D 	c #88898B",
"E 	c #7B7B77",
"F 	c #423E2C",
"G 	c #696559",
"H 	c #ABAAA5",
"I 	c #F2F3F5",
"J 	c #F3FCFF",
"K 	c #FFFEFC",
"L 	c #D6DBDD",
"M 	c #D1CBC6",
"N 	c #9B988F",
"O 	c #4B4736",
"P 	c #313722",
"Q 	c #434536",
"R 	c #61615F",
"S 	c #605F59",
"T 	c #393525",
"U 	c #494432",
"V 	c #B9B9B7",
"W 	c #F5F6F6",
"X 	c #9CDFFF",
"Y 	c #63CEFF",
"Z 	c #85DBFF",
"` 	c #98E0FF",
" .	c #B2EAFF",
"..	c #FDF3EB",
"+.	c #A4A19B",
"@.	c #3B3724",
"#.	c #28230D",
"$.	c #3F301D",
"%.	c #293924",
"&.	c #4C2C1B",
"*.	c #96100A",
"=.	c #71190D",
"-.	c #461A08",
";.	c #332D17",
">.	c #87857F",
",.	c #5D5949",
"'.	c #161000",
").	c #6F6C5F",
"!.	c #DBDBDB",
"~.	c #A0E0FF",
"{.	c #009CF7",
"].	c #039DE7",
"^.	c #00A2F4",
"/.	c #16B5FF",
"(.	c #E3F9FF",
"_.	c #F2F1F0",
":.	c #B7B4AF",
"<.	c #B5B5B2",
"[.	c #5D5A4B",
"}.	c #263C25",
"|.	c #642416",
"1.	c #5A2416",
"2.	c #353621",
"3.	c #86190F",
"4.	c #AB0F09",
"5.	c #A30D08",
"6.	c #A30F09",
"7.	c #BC0000",
"8.	c #D5292A",
"9.	c #805A4F",
"0.	c #7B7F75",
"a.	c #F1F0F2",
"b.	c #E7E6E4",
"c.	c #4E4A37",
"d.	c #656153",
"e.	c #E7E7EA",
"f.	c #FFFFFB",
"g.	c #6FD3FF",
"h.	c #03A3F2",
"i.	c #0080BC",
"j.	c #0073A6",
"k.	c #008BD6",
"l.	c #45C0F5",
"m.	c #B8EEFF",
"n.	c #FFFFFA",
"o.	c #FBFCFD",
"p.	c #C7C4C1",
"q.	c #77756B",
"r.	c #736F64",
"s.	c #37311C",
"t.	c #412D1B",
"u.	c #7F190F",
"v.	c #93120B",
"w.	c #CC0100",
"x.	c #CE0704",
"y.	c #D00503",
"z.	c #EB0000",
"A.	c #F90000",
"B.	c #FF0000",
"C.	c #CD3535",
"D.	c #F9E5E5",
"E.	c #DCE7E3",
"F.	c #EBECEE",
"G.	c #DBDAD6",
"H.	c #686354",
"I.	c #2D2812",
"J.	c #807E75",
"K.	c #D8D3CD",
"L.	c #5CCFFF",
"M.	c #00A0EF",
"N.	c #007DB6",
"O.	c #0076A9",
"P.	c #0079B2",
"Q.	c #008ACA",
"R.	c #1BB8FF",
"S.	c #DDFAFF",
"T.	c #F1FDFF",
"U.	c #FFFAF9",
"V.	c #F2F0EE",
"W.	c #F4F5F8",
"X.	c #858B81",
"Y.	c #623628",
"Z.	c #8D0200",
"`.	c #B40201",
" +	c #D00000",
".+	c #C81F1F",
"++	c #F0F0EF",
"@+	c #838073",
"#+	c #423B2B",
"$+	c #B6B2AD",
"%+	c #D6F6FF",
"&+	c #20B7F9",
"*+	c #0088CE",
"=+	c #0076AB",
"-+	c #0079AF",
";+	c #0075AA",
">+	c #008DDA",
",+	c #32A7DD",
"'+	c #02A5ED",
")+	c #7FD9FF",
"!+	c #FBFFFF",
"~+	c #FFFFFE",
"{+	c #DCE0DF",
"]+	c #94948E",
"^+	c #4F4534",
"/+	c #715145",
"(+	c #601407",
"_+	c #E40100",
":+	c #FE0000",
"<+	c #F10101",
"[+	c #CC1111",
"}+	c #E7A3A3",
"|+	c #D2D0CB",
"1+	c #5F5B4B",
"2+	c #181200",
"3+	c #3D3825",
"4+	c #B4B4B2",
"5+	c #FFF2EB",
"6+	c #C3F1FF",
"7+	c #33BCFD",
"8+	c #0089CE",
"9+	c #0075A9",
"0+	c #007AB2",
"a+	c #007DBA",
"b+	c #10A4EF",
"c+	c #7EDAFF",
"d+	c #FFFEFF",
"e+	c #EEEEEE",
"f+	c #F7F6F8",
"g+	c #ADC4BF",
"h+	c #854038",
"i+	c #D70000",
"j+	c #F40000",
"k+	c #BD1B1B",
"l+	c #FCE4E4",
"m+	c #FCFBFB",
"n+	c #827F72",
"o+	c #514E3E",
"p+	c #9B968D",
"q+	c #F7F0EF",
"r+	c #CDF5FF",
"s+	c #33BBF8",
"t+	c #008CD5",
"u+	c #0077AC",
"v+	c #007AB1",
"w+	c #007FC0",
"x+	c #02A4EE",
"y+	c #98DFFF",
"z+	c #F0FCFF",
"A+	c #9CACA1",
"B+	c #4F2D1C",
"C+	c #E00000",
"D+	c #D10000",
"E+	c #C92F2F",
"F+	c #FFF1F2",
"G+	c #868276",
"H+	c #0F0900",
"I+	c #342F1A",
"J+	c #B3B2AE",
"K+	c #FFFEFB",
"L+	c #26ABEC",
"M+	c #007BB5",
"N+	c #0079B0",
"O+	c #0078AD",
"P+	c #007EBD",
"Q+	c #13A2EA",
"R+	c #84DEFF",
"S+	c #B7BFB7",
"T+	c #5F392B",
"U+	c #9A0601",
"V+	c #FD0000",
"W+	c #F10000",
"X+	c #C70000",
"Y+	c #DD7D7D",
"Z+	c #FEFFFF",
"`+	c #969489",
" @	c #BBBAB7",
".@	c #C6F2FF",
"+@	c #1EA9E7",
"@@	c #007CBC",
"#@	c #0083C4",
"$@	c #74B9D9",
"%@	c #CACDCC",
"&@	c #91857B",
"*@	c #86160F",
"=@	c #E20000",
"-@	c #DA3C3D",
";@	c #FFD8D9",
">@	c #AFAEA6",
",@	c #433F2B",
"'@	c #5C5849",
")@	c #CBC9C7",
"!@	c #FBFDFC",
"~@	c #88DDFF",
"{@	c #007EB8",
"]@	c #0085C6",
"^@	c #258EBD",
"/@	c #78685A",
"(@	c #53534A",
"_@	c #4A1C09",
":@	c #BF0402",
"<@	c #C80000",
"[@	c #CE5857",
"}@	c #988E84",
"|@	c #393D28",
"1@	c #1A1300",
"2@	c #79776D",
"3@	c #F1ECE8",
"4@	c #7DDBFF",
"5@	c #12A4E8",
"6@	c #0080C3",
"7@	c #0072A5",
"8@	c #0095E0",
"9@	c #2E95C4",
"0@	c #73675E",
"a@	c #666567",
"b@	c #374839",
"c@	c #5A1D0D",
"d@	c #B00904",
"e@	c #F00000",
"f@	c #872C23",
"g@	c #3E422F",
"h@	c #86847A",
"i@	c #E3E3E4",
"j@	c #F2FCFF",
"k@	c #99E0FE",
"l@	c #00A2F6",
"m@	c #048AC8",
"n@	c #008ACE",
"o@	c #018ACC",
"p@	c #23ABEE",
"q@	c #7F99A6",
"r@	c #6F675B",
"s@	c #5C594F",
"t@	c #4C4F40",
"u@	c #525245",
"v@	c #5B3328",
"w@	c #B80706",
"x@	c #DF0000",
"y@	c #7E180F",
"z@	c #3B321E",
"A@	c #352F1B",
"B@	c #9A9B96",
"C@	c #E2E3E3",
"D@	c #FFFDFD",
"E@	c #7FD8FF",
"F@	c #4AB6E6",
"G@	c #42809A",
"H@	c #338FBB",
"I@	c #549CBC",
"J@	c #595243",
"K@	c #44402E",
"L@	c #6F6E66",
"M@	c #575447",
"N@	c #807E7A",
"O@	c #45564B",
"P@	c #6F2C23",
"Q@	c #751B0F",
"R@	c #383521",
"S@	c #37230E",
"T@	c #573627",
"U@	c #768378",
"V@	c #EAEAEB",
"W@	c #EADAD1",
"X@	c #514E42",
"Y@	c #8A8584",
"Z@	c #725F4D",
"`@	c #7F7E7B",
" #	c #5D5A50",
".#	c #5A574B",
"+#	c #595447",
"@#	c #5D5F54",
"##	c #75736D",
"$#	c #632416",
"%#	c #BE0100",
"&#	c #665E50",
"*#	c #F0F1F1",
"=#	c #F9FCFB",
"-#	c #96A79C",
";#	c #B6B0AE",
">#	c #514D42",
",#	c #595E5A",
"'#	c #4D493C",
")#	c #777671",
"!#	c #5D5A4F",
"~#	c #5A574C",
"{#	c #82817E",
"]#	c #615E53",
"^#	c #73726B",
"/#	c #413D2B",
"(#	c #40311E",
"_#	c #8D130C",
":#	c #B80000",
"<#	c #644E40",
"[#	c #B7C7C3",
"}#	c #B8BCB6",
"|#	c #60372B",
"1#	c #7C0600",
"2#	c #632013",
"3#	c #314230",
"4#	c #514F43",
"5#	c #6F6E67",
"6#	c #6F6D66",
"7#	c #464231",
"8#	c #504D3E",
"9#	c #6E6D66",
"0#	c #642316",
"a#	c #B80B07",
"b#	c #CC0000",
"c#	c #79170E",
"d#	c #5B3426",
"e#	c #552F1F",
"f#	c #8D0300",
"g#	c #E40000",
"h#	c #B90200",
"i#	c #4E2918",
"j#	c #58574B",
"k#	c #4A4B3C",
"l#	c #68665D",
"m#	c #6C6A62",
"n#	c #888886",
"o#	c #41321F",
"p#	c #D70302",
"q#	c #E40301",
"r#	c #DA0000",
"s#	c #AC0802",
"t#	c #6B2E26",
"u#	c #516158",
"v#	c #73736D",
"w#	c #4B4737",
"x#	c #6E6C65",
"y#	c #29230B",
"z#	c #3F3B29",
"A#	c #482C1B",
"B#	c #D70503",
"C#	c #F50000",
"D#	c #BD0202",
"E#	c #623B33",
"F#	c #545143",
"G#	c #535144",
"H#	c #545042",
"I#	c #484538",
"J#	c #626260",
"K#	c #7F170F",
"L#	c #7C1408",
"M#	c #35301B",
"N#	c #A40E09",
"O#	c #FC0000",
"P#	c #F30000",
"Q#	c #FD0303",
"R#	c #D20000",
"S#	c #781C11",
"T#	c #343621",
"U#	c #4A473B",
"V#	c #5C5B58",
"W#	c #243B25",
"X#	c #AF0F09",
"Y#	c #FF0100",
"Z#	c #F70000",
"`#	c #F40A0A",
" $	c #D8292A",
".$	c #EB6869",
"+$	c #80160F",
"@$	c #3B311E",
"#$	c #332E17",
"$$	c #61605A",
"%$	c #6A6961",
"&$	c #5E5C57",
"*$	c #464235",
"=$	c #38331E",
"-$	c #552919",
";$	c #B60804",
">$	c #F80000",
",$	c #E70000",
"'$	c #D00202",
")$	c #E21313",
"!$	c #DB7676",
"~$	c #DC7575",
"{$	c #E7B9B9",
"]$	c #9F9F96",
"^$	c #3E4935",
"/$	c #6A6860",
"($	c #9C9D9F",
"_$	c #88898A",
":$	c #686766",
"<$	c #48463A",
"[$	c #7E170E",
"}$	c #B50000",
"|$	c #D92A2A",
"1$	c #D94646",
"2$	c #ECB9B9",
"3$	c #EEBABB",
"4$	c #FCE6E7",
"5$	c #FDFFFF",
"6$	c #A3ADA3",
"7$	c #383723",
"8$	c #403C2A",
"9$	c #7D7C78",
"0$	c #939394",
"a$	c #868688",
"b$	c #686868",
"c$	c #474134",
"d$	c #283A24",
"e$	c #771308",
"f$	c #D63D3D",
"g$	c #FFF1F1",
"h$	c #FCF6F6",
"i$	c #FFF8F8",
"j$	c #DFE0DD",
"k$	c #7C8072",
"l$	c #A9A79F",
"m$	c #413C29",
"n$	c #4A4635",
"o$	c #74726B",
"p$	c #959596",
"q$	c #696967",
"r$	c #4C4A40",
"s$	c #521B09",
"t$	c #633021",
"u$	c #E6F1EF",
"v$	c #E9EAE9",
"w$	c #767264",
"x$	c #403C29",
"y$	c #787671",
"z$	c #89898A",
"A$	c #54534D",
"B$	c #3E3B2A",
"C$	c #7C867C",
"D$	c #656152",
"E$	c #1C1500",
"F$	c #7C7B77",
"G$	c #848483",
"H$	c #5E5C56",
"I$	c #7F7C74",
"J$	c #F7F7F9",
"K$	c #F5F5F4",
"L$	c #3C3723",
"M$	c #484433",
"N$	c #474338",
"O$	c #4E4938",
"P$	c #D0CEC9",
"Q$	c #605C4C",
"R$	c #1A1400",
"S$	c #575341",
"                                                                                            ",
"                                                                    . + @                   ",
"                                                                    # $ % &                 ",
"                                                                      * = - ;               ",
"                                                                        > , ' ) !           ",
"                                                                          * ~ { ] ^         ",
"                      / ( _ : <                                             [ } | 1 2       ",
"                      3 4 5 6 7 8 9                                         0 a b c d e     ",
"                      f g h h i j k 8 l                                     m n o p q r s   ",
"                      t u h h h v w x y z                                     A B C D E F   ",
"                      G H I h h J h K L M N O                                   P Q R S T   ",
"                        U V W h X Y Z `  ...+.@.  #.                  $.%.  &.*.=.-.;.>.,.  ",
"                        '.).!.h ~.{.].^./.(._.:.<.[.          }.|.1.2.3.4.5.6.7.8.9.0.a.b.c.",
"                          d.e.f.g.h.i.j.k.l.m.n.o.p.q.r.s.t.u.v.w.x.y.z.A.B.z.C.D.E.F.G.H.  ",
"                          I.J.K.L.M.N.O.P.Q.R.S.T.U.V.W.X.Y.Z.`. +B.B.B.B.B. +.+D.h ++@+    ",
"                            #+$+%+&+*+=+-+;+>+,+'+)+!+~+{+]+^+/+(+_+B.:+:+<+[+}+h |+1+2+    ",
"                            3+4+5+6+7+8+P.9+0+P.a+b+c+h d+e+f+g+h+i+B.:+B.j+k+l+m+n+        ",
"                              o+p+q+r+s+t+u+v+v+;+w+x+y+z+h h A+B+C+B.:+A.D+E+F+G+H+        ",
"                                I+J+K+(.L+M+-+v+N+O+P+Q+R+h S+T+U+z.V+B.W+X+Y+Z+`+          ",
"                                3+ @h .@+@@@9+v+v+v+=+#@$@%@&@*@=@B.B.B.<+-@;@>@,@          ",
"                                  '@)@!@~@h.{@-+N+0+;+]@^@/@(@_@:@W+B.B.<@[@}@|@            ",
"                                  1@2@3@h 4@5@6@7@N+v+8@9@0@a@b@c@d@e@B.i+f@g@              ",
"                                    h@i@h j@k@l@m@n@o@p@q@r@s@t@u@v@w@x@y@z@                ",
"                                    A@B@C@D@h E@F@G@H@I@J@K@L@M@N@O@P@Q@R@                  ",
"                                    S@T@U@V@h h W@X@Y@Z@J@`@ #.#+#@###                      ",
"                                    $#%#&#*#=#-#;#>#,#'#)#!#~#{#]#^#/#                      ",
"                                  (#_#:#<#[#}#|#1#2#3#4#5#! 6#7#8#9#/#                      ",
"                                  0#a#b#c#d#e#f#g#h#i#j#k#^#l#m#n#M@                        ",
"                                  o#p#:+x@q#r#z.B.W+s#t#u#v#w#x#F y#                        ",
"            z#.                   A#B#B.B.B.B.B.B.:+C#D#E#F#G#H#                            ",
"            I#J#>                 K#g#B.:+:+:+B.:+B.B.=@L#                                  ",
"            M#- = *               N#B.B.:+B.B.O#P#Q#R#S#T#                                  ",
"              & U#V#s           W#X#B.Y#O#Z#x@`# $.$+$@$                                    ",
"                #$$$%$&$*$=$    -$;$>$,$'$)$!$~${$]$^$                                      ",
"                  /$($_$:$<$#$  [$}$|$1$2$3$4$5$6$7$                                        ",
"                  8$9$0$a$b$c$d$e$f$g$h$i$j$k$l$m$                                          ",
"                    n$o$p$a$q$r$s$t$u$h v$w$                                                ",
"                      x$y$p$z$A$B$C$i G.D$E$                                                ",
"                        7#F$G$H$I$J$K$n+                                                    ",
"                          L$M$N$O$P$Q$R$                                                    ",
"                                  S$                                                        ",
"                                                                                            ",
"                                                                                            ",
"                                                                                            ",
"                                                                                            ",
"                                                                                            "};
