/* XPM */
static char * playerOne07_xpm[] = {
"46 46 544 2",
"  	c None",
". 	c #575341",
"+ 	c #1A1400",
"@ 	c #605C4C",
"# 	c #D0CEC9",
"$ 	c #4E4938",
"% 	c #474338",
"& 	c #484433",
"* 	c #3C3723",
"= 	c #827F72",
"- 	c #F5F5F4",
"; 	c #F7F7F9",
"> 	c #7F7C74",
", 	c #5E5C56",
"' 	c #848483",
") 	c #7C7B77",
"! 	c #464231",
"~ 	c #1C1500",
"{ 	c #656152",
"] 	c #DBDAD6",
"^ 	c #F1F2F3",
"/ 	c #7C867C",
"( 	c #3E3B2A",
"_ 	c #54534D",
": 	c #89898A",
"< 	c #959596",
"[ 	c #787671",
"} 	c #403C29",
"| 	c #767264",
"1 	c #E9EAE9",
"2 	c #FFFFFF",
"3 	c #E6F1EF",
"4 	c #633021",
"5 	c #521B09",
"6 	c #4C4A40",
"7 	c #696967",
"8 	c #868688",
"9 	c #74726B",
"0 	c #4A4635",
"a 	c #413C29",
"b 	c #A9A79F",
"c 	c #7C8072",
"d 	c #DFE0DD",
"e 	c #FFF8F8",
"f 	c #FCF6F6",
"g 	c #FFF1F1",
"h 	c #D63D3D",
"i 	c #771308",
"j 	c #283A24",
"k 	c #474134",
"l 	c #686868",
"m 	c #939394",
"n 	c #7D7C78",
"o 	c #403C2A",
"p 	c #383723",
"q 	c #A3ADA3",
"r 	c #FDFFFF",
"s 	c #FCE6E7",
"t 	c #EEBABB",
"u 	c #ECB9B9",
"v 	c #D94646",
"w 	c #D92A2A",
"x 	c #B50000",
"y 	c #7E170E",
"z 	c #332E17",
"A 	c #48463A",
"B 	c #686766",
"C 	c #88898A",
"D 	c #9C9D9F",
"E 	c #6A6860",
"F 	c #3E4935",
"G 	c #9F9F96",
"H 	c #E7B9B9",
"I 	c #DC7575",
"J 	c #DB7676",
"K 	c #E21313",
"L 	c #D00202",
"M 	c #E70000",
"N 	c #F80000",
"O 	c #B60804",
"P 	c #552919",
"Q 	c #38331E",
"R 	c #464235",
"S 	c #5E5C57",
"T 	c #6A6961",
"U 	c #61605A",
"V 	c #3B311E",
"W 	c #80160F",
"X 	c #EB6869",
"Y 	c #D8292A",
"Z 	c #F40A0A",
"` 	c #DF0000",
" .	c #F70000",
"..	c #FC0000",
"+.	c #FF0100",
"@.	c #FF0000",
"#.	c #AF0F09",
"$.	c #243B25",
"%.	c #423D2B",
"&.	c #5C5B58",
"*.	c #4A473B",
"=.	c #3D3927",
"-.	c #343621",
";.	c #781C11",
">.	c #D20000",
",.	c #FD0303",
"'.	c #F30000",
").	c #FE0000",
"!.	c #A40E09",
"~.	c #444030",
"{.	c #54534B",
"].	c #56554F",
"^.	c #35301B",
"/.	c #7C1408",
"(.	c #E20000",
"_.	c #E40000",
":.	c #7F170F",
"<.	c #3E3A28",
"[.	c #626260",
"}.	c #484538",
"|.	c #545042",
"1.	c #535144",
"2.	c #545143",
"3.	c #623B33",
"4.	c #BD0202",
"5.	c #F50000",
"6.	c #D70503",
"7.	c #482C1B",
"8.	c #433F2F",
"9.	c #3F3B29",
"0.	c #29230B",
"a.	c #423E2C",
"b.	c #6E6C65",
"c.	c #4B4737",
"d.	c #73736D",
"e.	c #516158",
"f.	c #6B2E26",
"g.	c #AC0802",
"h.	c #F10000",
"i.	c #EB0000",
"j.	c #DA0000",
"k.	c #E40301",
"l.	c #D70302",
"m.	c #41321F",
"n.	c #575447",
"o.	c #888886",
"p.	c #6C6A62",
"q.	c #68665D",
"r.	c #73726B",
"s.	c #4A4B3C",
"t.	c #58574B",
"u.	c #4E2918",
"v.	c #B90200",
"w.	c #8D0300",
"x.	c #552F1F",
"y.	c #5B3426",
"z.	c #79170E",
"A.	c #CC0000",
"B.	c #B80B07",
"C.	c #642316",
"D.	c #413D2B",
"E.	c #6E6D66",
"F.	c #504D3E",
"G.	c #6F6D66",
"H.	c #4A4636",
"I.	c #6F6E67",
"J.	c #514F43",
"K.	c #314230",
"L.	c #632013",
"M.	c #7C0600",
"N.	c #60372B",
"O.	c #B8BCB6",
"P.	c #B7C7C3",
"Q.	c #644E40",
"R.	c #B80000",
"S.	c #8D130C",
"T.	c #40311E",
"U.	c #615E53",
"V.	c #82817E",
"W.	c #5A574C",
"X.	c #5D5A4F",
"Y.	c #777671",
"Z.	c #4D493C",
"`.	c #595E5A",
" +	c #514D42",
".+	c #B6B0AE",
"++	c #96A79C",
"@+	c #F9FCFB",
"#+	c #F0F1F1",
"$+	c #665E50",
"%+	c #BE0100",
"&+	c #632416",
"*+	c #75736D",
"=+	c #5D5F54",
"-+	c #595447",
";+	c #5A574B",
">+	c #5D5A50",
",+	c #7F7E7B",
"'+	c #595243",
")+	c #725F4D",
"!+	c #8A8584",
"~+	c #514E42",
"{+	c #EADAD1",
"]+	c #EAEAEB",
"^+	c #768378",
"/+	c #573627",
"(+	c #37230E",
"_+	c #383521",
":+	c #751B0F",
"<+	c #6F2C23",
"[+	c #45564B",
"}+	c #807E7A",
"|+	c #6F6E66",
"1+	c #44402E",
"2+	c #549CBC",
"3+	c #338FBB",
"4+	c #42809A",
"5+	c #4AB6E6",
"6+	c #7FD8FF",
"7+	c #FFFDFD",
"8+	c #E2E3E3",
"9+	c #9A9B96",
"0+	c #352F1B",
"a+	c #3B321E",
"b+	c #7E180F",
"c+	c #B80706",
"d+	c #5B3328",
"e+	c #525245",
"f+	c #4C4F40",
"g+	c #5C594F",
"h+	c #6F675B",
"i+	c #7F99A6",
"j+	c #23ABEE",
"k+	c #018ACC",
"l+	c #008ACE",
"m+	c #048AC8",
"n+	c #00A2F6",
"o+	c #99E0FE",
"p+	c #F2FCFF",
"q+	c #E3E3E4",
"r+	c #86847A",
"s+	c #3E422F",
"t+	c #872C23",
"u+	c #D70000",
"v+	c #F00000",
"w+	c #B00904",
"x+	c #5A1D0D",
"y+	c #374839",
"z+	c #666567",
"A+	c #73675E",
"B+	c #2E95C4",
"C+	c #0095E0",
"D+	c #007AB1",
"E+	c #0079B0",
"F+	c #0072A5",
"G+	c #0080C3",
"H+	c #12A4E8",
"I+	c #7DDBFF",
"J+	c #F1ECE8",
"K+	c #79776D",
"L+	c #1A1300",
"M+	c #393D28",
"N+	c #988E84",
"O+	c #CE5857",
"P+	c #C80000",
"Q+	c #BF0402",
"R+	c #4A1C09",
"S+	c #53534A",
"T+	c #78685A",
"U+	c #258EBD",
"V+	c #0085C6",
"W+	c #0075AA",
"X+	c #007AB2",
"Y+	c #0079AF",
"Z+	c #007EB8",
"`+	c #03A3F2",
" @	c #88DDFF",
".@	c #FBFDFC",
"+@	c #CBC9C7",
"@@	c #5C5849",
"#@	c #433F2B",
"$@	c #AFAEA6",
"%@	c #FFD8D9",
"&@	c #DA3C3D",
"*@	c #F10101",
"=@	c #86160F",
"-@	c #91857B",
";@	c #CACDCC",
">@	c #74B9D9",
",@	c #0083C4",
"'@	c #0076AB",
")@	c #0075A9",
"!@	c #007CBC",
"~@	c #1EA9E7",
"{@	c #C6F2FF",
"]@	c #BBBAB7",
"^@	c #3D3825",
"/@	c #969489",
"(@	c #FEFFFF",
"_@	c #DD7D7D",
":@	c #C70000",
"<@	c #FD0000",
"[@	c #9A0601",
"}@	c #5F392B",
"|@	c #B7BFB7",
"1@	c #84DEFF",
"2@	c #13A2EA",
"3@	c #007EBD",
"4@	c #0078AD",
"5@	c #007BB5",
"6@	c #26ABEC",
"7@	c #E3F9FF",
"8@	c #FFFEFB",
"9@	c #B3B2AE",
"0@	c #342F1A",
"a@	c #0F0900",
"b@	c #868276",
"c@	c #FFF1F2",
"d@	c #C92F2F",
"e@	c #D10000",
"f@	c #F90000",
"g@	c #E00000",
"h@	c #4F2D1C",
"i@	c #9CACA1",
"j@	c #F0FCFF",
"k@	c #98DFFF",
"l@	c #02A4EE",
"m@	c #007FC0",
"n@	c #0077AC",
"o@	c #008CD5",
"p@	c #33BBF8",
"q@	c #CDF5FF",
"r@	c #F7F0EF",
"s@	c #9B968D",
"t@	c #514E3E",
"u@	c #FCFBFB",
"v@	c #FCE4E4",
"w@	c #BD1B1B",
"x@	c #F40000",
"y@	c #854038",
"z@	c #ADC4BF",
"A@	c #F7F6F8",
"B@	c #EEEEEE",
"C@	c #FFFEFF",
"D@	c #7EDAFF",
"E@	c #10A4EF",
"F@	c #007DBA",
"G@	c #0079B2",
"H@	c #0089CE",
"I@	c #33BCFD",
"J@	c #C3F1FF",
"K@	c #FFF2EB",
"L@	c #B4B4B2",
"M@	c #181200",
"N@	c #5F5B4B",
"O@	c #D2D0CB",
"P@	c #E7A3A3",
"Q@	c #CC1111",
"R@	c #E40100",
"S@	c #601407",
"T@	c #715145",
"U@	c #4F4534",
"V@	c #94948E",
"W@	c #DCE0DF",
"X@	c #FFFFFE",
"Y@	c #FBFFFF",
"Z@	c #7FD9FF",
"`@	c #02A5ED",
" #	c #32A7DD",
".#	c #008DDA",
"+#	c #0088CE",
"@#	c #20B7F9",
"##	c #D6F6FF",
"$#	c #B6B2AD",
"%#	c #423B2B",
"&#	c #838073",
"*#	c #F0F0EF",
"=#	c #F9E5E5",
"-#	c #C81F1F",
";#	c #D00000",
">#	c #B40201",
",#	c #8D0200",
"'#	c #623628",
")#	c #858B81",
"!#	c #F4F5F8",
"~#	c #F2F0EE",
"{#	c #FFFAF9",
"]#	c #F1FDFF",
"^#	c #DDFAFF",
"/#	c #1BB8FF",
"(#	c #008ACA",
"_#	c #0076A9",
":#	c #007DB6",
"<#	c #00A0EF",
"[#	c #5CCFFF",
"}#	c #D8D3CD",
"|#	c #807E75",
"1#	c #2D2812",
"2#	c #686354",
"3#	c #EBECEE",
"4#	c #DCE7E3",
"5#	c #CD3535",
"6#	c #D00503",
"7#	c #CE0704",
"8#	c #CC0100",
"9#	c #93120B",
"0#	c #7F190F",
"a#	c #412D1B",
"b#	c #37311C",
"c#	c #736F64",
"d#	c #77756B",
"e#	c #C7C4C1",
"f#	c #FBFCFD",
"g#	c #FFFFFA",
"h#	c #B8EEFF",
"i#	c #45C0F5",
"j#	c #008BD6",
"k#	c #0073A6",
"l#	c #0080BC",
"m#	c #6FD3FF",
"n#	c #FFFFFB",
"o#	c #E7E7EA",
"p#	c #656153",
"q#	c #4E4A37",
"r#	c #E7E6E4",
"s#	c #F1F0F2",
"t#	c #7B7F75",
"u#	c #805A4F",
"v#	c #D5292A",
"w#	c #BC0000",
"x#	c #A30F09",
"y#	c #A30D08",
"z#	c #AB0F09",
"A#	c #86190F",
"B#	c #353621",
"C#	c #5A2416",
"D#	c #642416",
"E#	c #263C25",
"F#	c #5D5A4B",
"G#	c #B5B5B2",
"H#	c #B7B4AF",
"I#	c #F2F1F0",
"J#	c #16B5FF",
"K#	c #00A2F4",
"L#	c #039DE7",
"M#	c #009CF7",
"N#	c #A0E0FF",
"O#	c #DBDBDB",
"P#	c #6F6C5F",
"Q#	c #161000",
"R#	c #5D5949",
"S#	c #87857F",
"T#	c #332D17",
"U#	c #461A08",
"V#	c #71190D",
"W#	c #96100A",
"X#	c #4C2C1B",
"Y#	c #293924",
"Z#	c #3F301D",
"`#	c #28230D",
" $	c #3B3724",
".$	c #A4A19B",
"+$	c #FDF3EB",
"@$	c #B2EAFF",
"#$	c #98E0FF",
"$$	c #85DBFF",
"%$	c #63CEFF",
"&$	c #9CDFFF",
"*$	c #F5F6F6",
"=$	c #B9B9B7",
"-$	c #494432",
";$	c #393525",
">$	c #605F59",
",$	c #61615F",
"'$	c #434536",
")$	c #313722",
"!$	c #4B4736",
"~$	c #9B988F",
"{$	c #D1CBC6",
"]$	c #D6DBDD",
"^$	c #FFFEFC",
"/$	c #F3FCFF",
"($	c #F2F3F5",
"_$	c #ABAAA5",
":$	c #696559",
"<$	c #7B7B77",
"[$	c #88898B",
"}$	c #676764",
"|$	c #49473C",
"1$	c #342F18",
"2$	c #241F08",
"3$	c #7E7B71",
"4$	c #D7D7D6",
"5$	c #EAEBEB",
"6$	c #F4F3F3",
"7$	c #F1F1F1",
"8$	c #767368",
"9$	c #7F7F7B",
"0$	c #969798",
"a$	c #868687",
"b$	c #686869",
"c$	c #454133",
"d$	c #38331F",
"e$	c #3F3A27",
"f$	c #595546",
"g$	c #6B685B",
"h$	c #B3B2AF",
"i$	c #F9F9FB",
"j$	c #716E61",
"k$	c #45412F",
"l$	c #787873",
"m$	c #929394",
"n$	c #868689",
"o$	c #696866",
"p$	c #49463B",
"q$	c #0E0700",
"r$	c #B0AEAB",
"s$	c #EBEBEC",
"t$	c #EDEDEF",
"u$	c #BFBFBE",
"v$	c #5F5C4E",
"w$	c #454130",
"x$	c #72706A",
"y$	c #969699",
"z$	c #858585",
"A$	c #56544D",
"B$	c #4B4735",
"C$	c #9E9C96",
"D$	c #817E73",
"E$	c #474331",
"F$	c #1E1800",
"G$	c #413C2A",
"H$	c #7D7C77",
"I$	c #9A9B9D",
"J$	c #6F6D67",
"K$	c #69665E",
"L$	c #524F44",
"M$	c #5D5D5B",
"N$	c #342F19",
"O$	c #4B483C",
"P$	c #61605E",
"Q$	c #3D3726",
"R$	c #35301A",
"S$	c #4F4D43",
"                                                                                            ",
"                                                                                            ",
"                                                                                            ",
"                                                                                            ",
"                                                                                            ",
"                                                        .                                   ",
"                                                    + @ # $ % & *                           ",
"                                                    = - ; > , ' ) !                         ",
"                                                ~ { ] ^ / ( _ : < [ }                       ",
"                                                | 1 2 3 4 5 6 7 8 < 9 0                     ",
"                                          a b c d e f g h i j k l 8 m n o                   ",
"                                        p q r s t u v w x y   z A B C D E                   ",
"                                      F G H I J K L M N O P     Q R S T U z                 ",
"                                    V W X Y Z `  ...+.@.#.$.          %.&.*.=.              ",
"                                  -.;.>.,.'...@.@.).@.@.!.              ~.{.].^.            ",
"                                  /.(.@.@.).@.).).).@._.:.                <.[.}.            ",
"                            |.1.2.3.4.5.).@.@.@.@.@.@.6.7.                  8.9.            ",
"                        0.a.b.c.d.e.f.g.h.@.i.j.k.` ).l.m.                                  ",
"                        n.o.p.q.r.s.t.u.v._.w.x.y.z.A.B.C.                                  ",
"                      D.E.F.! G.H.I.J.K.L.M.N.O.P.Q.R.S.T.                                  ",
"                      D.r.U.V.W.X.Y.Z.`. +.+++@+#+$+%+&+                                    ",
"                      *+=+-+;+>+,+'+)+!+~+{+2 2 ]+^+/+(+                                    ",
"                  _+:+<+[+}+n.|+1+'+2+3+4+5+6+2 7+8+9+0+                                    ",
"                a+b+` c+d+e+f+g+h+i+j+k+l+m+n+o+p+2 q+r+                                    ",
"              s+t+u+@.v+w+x+y+z+A+B+C+D+E+F+G+H+I+2 J+K+L+                                  ",
"            M+N+O+P+@.@.h.Q+R+S+T+U+V+W+X+E+Y+Z+`+ @.@+@@@                                  ",
"          #@$@%@&@*@@.@.@.(.=@-@;@>@,@'@D+D+D+)@!@~@{@2 ]@^@                                ",
"          /@(@_@:@h.@.<@i.[@}@|@2 1@2@3@4@E+D+Y+5@6@7@8@9@0@                                ",
"        a@b@c@d@e@f@).@.g@h@i@2 2 j@k@l@m@W+D+D+n@o@p@q@r@s@t@                              ",
"        = u@v@w@x@@.).@.u+y@z@A@B@C@2 D@E@F@G@X+)@G@H@I@J@K@L@^@                            ",
"    M@N@O@2 P@Q@*@).).@.R@S@T@U@V@W@X@Y@Z@`@ #.#W+Y+'@+#@###$#%#                            ",
"    &#*#2 =#-#;#@.@.@.@.@.;#>#,#'#)#!#~#{#]#^#/#(#G@_#:#<#[#}#|#1#                          ",
"  2#] 3#4#=#5#i.@.f@i.6#7#8#9#0#a#b#c#d#e#f#g#h#i#j#k#l#`+m#n#o#p#                          ",
"q#r#s#t#u#v#w#x#y#z#A#B#C#D#E#          F#G#H#I#7@J#K#L#M#N#2 O#P#Q#                        ",
"  R#S#T#U#V#W#X#  Y#Z#                  `#   $.$+$@$#$$$%$&$2 *$=$-$                        ",
"  ;$>$,$'$)$                                  !$~${$]$^$2 /$2 2 ($_$:$                      ",
"  a.<$[$}$|$1$                                    2$3$4$5$6$2 2 2 7$8$                      ",
"  %.9$0$a$b$c$d$                                    e$f$g$h$^ 2 2 i$j$                      ",
"    k$l$m$n$o$p$                                        q$f$r$s$t$u$v$                      ",
"      w$x$y$z$A$                                            B$C$D$E$F$                      ",
"        G$H$I$J$~.                                                                          ",
"          H.K$L$M$<.                                                                        ",
"              N$].{.~.                                                                      ",
"                =.O$P$Q$                                                                    ",
"                  R$S$8.                                                                    ",
"                                                                                            "};
