/* XPM */
static char * playerOne12_xpm[] = {
"46 46 792 2",
"  	c None",
". 	c #7F7A6D",
"+ 	c #8C887D",
"@ 	c #8F8C81",
"# 	c #807E71",
"$ 	c #625E4E",
"% 	c #7F897B",
"& 	c #728678",
"* 	c #6A665A",
"= 	c #929086",
"- 	c #AFB0A9",
"; 	c #C8CBC6",
"> 	c #B6B8B1",
", 	c #A4A89F",
"' 	c #919488",
") 	c #9A9F94",
"! 	c #A7AEA4",
"~ 	c #AAAAA1",
"{ 	c #A49E96",
"] 	c #918177",
"^ 	c #7A5247",
"/ 	c #682E20",
"( 	c #592312",
"_ 	c #575343",
": 	c #545040",
"< 	c #45412E",
"[ 	c #545245",
"} 	c #64635A",
"| 	c #807F76",
"1 	c #A6A59E",
"2 	c #D2D4CF",
"3 	c #E3E5E2",
"4 	c #E1E3E0",
"5 	c #D9D6D3",
"6 	c #D1C1BC",
"7 	c #D6B7B4",
"8 	c #DBABA9",
"9 	c #D78C8A",
"0 	c #CD6766",
"a 	c #B53834",
"b 	c #A91A14",
"c 	c #97140B",
"d 	c #851A11",
"e 	c #6B362B",
"f 	c #5B5A4C",
"g 	c #5C5D50",
"h 	c #5C594D",
"i 	c #5B594D",
"j 	c #5A584B",
"k 	c #565547",
"l 	c #565345",
"m 	c #65645C",
"n 	c #666661",
"o 	c #5B574E",
"p 	c #715D51",
"q 	c #B38F87",
"r 	c #E7BFBD",
"s 	c #F8CACB",
"t 	c #F5B6B7",
"u 	c #ED9696",
"v 	c #EA7374",
"w 	c #EE5B5C",
"x 	c #F14244",
"y 	c #F3282A",
"z 	c #EF1415",
"A 	c #EC0605",
"B 	c #DD0503",
"C 	c #A91611",
"D 	c #753D34",
"E 	c #5C5C51",
"F 	c #5C5F54",
"G 	c #636159",
"H 	c #62625C",
"I 	c #5E5F57",
"J 	c #56554A",
"K 	c #4D4C41",
"L 	c #4A3B2C",
"M 	c #51402C",
"N 	c #513E2D",
"O 	c #5F452D",
"P 	c #666358",
"Q 	c #7C7D79",
"R 	c #717170",
"S 	c #4F453C",
"T 	c #55291A",
"U 	c #963C34",
"V 	c #D05756",
"W 	c #ED6264",
"X 	c #F34B4C",
"Y 	c #F03232",
"Z 	c #ED1C1E",
"` 	c #F00E0F",
" .	c #F70A0A",
"..	c #FE0405",
"+.	c #FF0000",
"@.	c #F10000",
"#.	c #AD1713",
"$.	c #683F37",
"%.	c #535A4F",
"&.	c #5A5E55",
"*.	c #686761",
"=.	c #6D6C68",
"-.	c #64615A",
";.	c #574F43",
">.	c #534634",
",.	c #5E472F",
"'.	c #684A2E",
").	c #6E4D2F",
"!.	c #72512E",
"~.	c #76522F",
"{.	c #805932",
"].	c #906336",
"^.	c #936434",
"/.	c #815B33",
"(.	c #695037",
"_.	c #55493C",
":.	c #534E3E",
"<.	c #706D65",
"[.	c #878686",
"}.	c #747776",
"|.	c #4E4A3F",
"1.	c #502315",
"2.	c #82170D",
"3.	c #B51815",
"4.	c #D81615",
"5.	c #F50909",
"6.	c #F90001",
"7.	c #F90000",
"8.	c #FC0000",
"9.	c #FD0000",
"0.	c #E50202",
"a.	c #9A1712",
"b.	c #583A31",
"c.	c #535649",
"d.	c #6F6655",
"e.	c #867765",
"f.	c #867A6D",
"g.	c #726557",
"h.	c #604E3B",
"i.	c #60472C",
"j.	c #74502D",
"k.	c #865B31",
"l.	c #946334",
"m.	c #9A6836",
"n.	c #9C6A3A",
"o.	c #A57341",
"p.	c #AE7B48",
"q.	c #AC7947",
"r.	c #9B6E41",
"s.	c #86623F",
"t.	c #7B5F44",
"u.	c #6C5845",
"v.	c #595547",
"w.	c #77746E",
"x.	c #868685",
"y.	c #6E716C",
"z.	c #474B3D",
"A.	c #3F2917",
"B.	c #6F1206",
"C.	c #970E07",
"D.	c #C00A05",
"E.	c #ED0200",
"F.	c #FE0000",
"G.	c #FA0000",
"H.	c #F50000",
"I.	c #EC0000",
"J.	c #C80200",
"K.	c #7F1A12",
"L.	c #5B4737",
"M.	c #7B6E56",
"N.	c #A78A69",
"O.	c #BC9A77",
"P.	c #B49578",
"Q.	c #9E8167",
"R.	c #82674C",
"S.	c #715539",
"T.	c #7A5733",
"U.	c #8A5E31",
"V.	c #9A6632",
"W.	c #A77039",
"X.	c #B17A45",
"Y.	c #B8834F",
"Z.	c #BF8B56",
"`.	c #B98550",
" +	c #AE7945",
".+	c #A17040",
"++	c #9D7145",
"@+	c #936E4A",
"#+	c #7C6349",
"$+	c #625343",
"%+	c #5F5B4F",
"&+	c #7D7C77",
"*+	c #65645F",
"=+	c #45493A",
"-+	c #A0140D",
";+	c #C50C07",
">+	c #E70402",
",+	c #D30403",
"'+	c #BF0A07",
")+	c #B80C0A",
"!+	c #94100E",
"~+	c #6E2F25",
"{+	c #7F664E",
"]+	c #B99A74",
"^+	c #E3B989",
"/+	c #EDC290",
"(+	c #E7BD8E",
"_+	c #D8B186",
":+	c #BD9A75",
"<+	c #987C5E",
"[+	c #856848",
"}+	c #785735",
"|+	c #855B30",
"1+	c #9C6B3A",
"2+	c #B27E4A",
"3+	c #BE8A56",
"4+	c #BD8A56",
"5+	c #B37F4D",
"6+	c #A6723E",
"7+	c #A56F3A",
"8+	c #AD7944",
"9+	c #AF7E4E",
"0+	c #9B754E",
"a+	c #81664C",
"b+	c #6A5E4F",
"c+	c #636054",
"d+	c #7F7E7B",
"e+	c #7E7E7D",
"f+	c #605E57",
"g+	c #454334",
"h+	c #752015",
"i+	c #91180F",
"j+	c #BF0D08",
"k+	c #F30302",
"l+	c #CF0604",
"m+	c #A4261F",
"n+	c #914942",
"o+	c #864943",
"p+	c #733C35",
"q+	c #7E5845",
"r+	c #B2906C",
"s+	c #E9BE8C",
"t+	c #FFD09A",
"u+	c #FFD29C",
"v+	c #FED29B",
"w+	c #FBCF9B",
"x+	c #F0C696",
"y+	c #D6B287",
"z+	c #B1916D",
"A+	c #876B4F",
"B+	c #7A5A3A",
"C+	c #8B6238",
"D+	c #AA7846",
"E+	c #BB8754",
"F+	c #B98553",
"G+	c #AA7746",
"H+	c #9D6B38",
"I+	c #A06C39",
"J+	c #B27C47",
"K+	c #BA8650",
"L+	c #B28250",
"M+	c #9D7752",
"N+	c #806D57",
"O+	c #6A6357",
"P+	c #646257",
"Q+	c #74726D",
"R+	c #6F6E69",
"S+	c #575449",
"T+	c #652417",
"U+	c #95180F",
"V+	c #C60C08",
"W+	c #D40403",
"X+	c #B51310",
"Y+	c #92534A",
"Z+	c #979790",
"`+	c #888F89",
" @	c #7E6E60",
".@	c #A68969",
"+@	c #DDB586",
"@@	c #FBCD98",
"#@	c #FFD29D",
"$@	c #FFD19D",
"%@	c #FFD19E",
"&@	c #FFD39E",
"*@	c #FFD59F",
"=@	c #FAD09C",
"-@	c #E6BF90",
";@	c #BC9B74",
">@	c #937452",
",@	c #825E3A",
"'@	c #976A3C",
")@	c #B17E4B",
"!@	c #B78350",
"~@	c #A97644",
"{@	c #9D6A38",
"]@	c #A26F3C",
"^@	c #B27E4B",
"/@	c #B88550",
"(@	c #B7834D",
"_@	c #AD7F51",
":@	c #917558",
"<@	c #695E4D",
"[@	c #595649",
"}@	c #5C5B51",
"|@	c #752316",
"1@	c #9D160E",
"2@	c #B60704",
"3@	c #A51813",
"4@	c #9A645C",
"5@	c #AEB4AF",
"6@	c #9DACA8",
"7@	c #928471",
"8@	c #C49C73",
"9@	c #F7C893",
"0@	c #FFCF9B",
"a@	c #FDD19D",
"b@	c #FED29D",
"c@	c #FFD49E",
"d@	c #FDD09B",
"e@	c #E7BD8C",
"f@	c #B39069",
"g@	c #7F6140",
"h@	c #805B34",
"i@	c #A47442",
"j@	c #B8844F",
"k@	c #AC7845",
"l@	c #A06D3A",
"m@	c #A67340",
"n@	c #B3814D",
"o@	c #B37E48",
"p@	c #B17E4C",
"q@	c #95714F",
"r@	c #695A46",
"s@	c #454235",
"t@	c #4A473A",
"u@	c #4F4C42",
"v@	c #4E4B3F",
"w@	c #811E13",
"x@	c #900C04",
"y@	c #86130B",
"z@	c #8B4D44",
"A@	c #999490",
"B@	c #8C918D",
"C@	c #9A8169",
"D@	c #DBAB7C",
"E@	c #FCCC95",
"F@	c #F8CA98",
"G@	c #F9CB99",
"H@	c #FBCF9C",
"I@	c #EDC697",
"J@	c #DFBA8F",
"K@	c #E4BA8C",
"L@	c #F1C08D",
"M@	c #F4C18C",
"N@	c #F0BF8C",
"O@	c #C8A176",
"P@	c #8A6B4B",
"Q@	c #795632",
"R@	c #9B6D3D",
"S@	c #B37F4B",
"T@	c #AF7946",
"U@	c #AC7A46",
"V@	c #B5824E",
"W@	c #B6824F",
"X@	c #B37E4A",
"Y@	c #B37E49",
"Z@	c #A57950",
"`@	c #746049",
" #	c #4E483A",
".#	c #3E3A2A",
"+#	c #4A483B",
"@#	c #4C493D",
"##	c #4A4638",
"$#	c #621708",
"%#	c #74463B",
"&#	c #87827D",
"*#	c #868278",
"=#	c #A88869",
"-#	c #E2B081",
";#	c #E7BB8D",
">#	c #D0AB83",
",#	c #DFB58A",
"'#	c #F0C495",
")#	c #D5B28A",
"!#	c #B99979",
"~#	c #BD9773",
"{#	c #D5A476",
"]#	c #E5B17E",
"^#	c #F5C28D",
"/#	c #D9AE81",
"(#	c #9A7A59",
"_#	c #795838",
":#	c #906438",
"<#	c #AC7846",
"[#	c #AE7B46",
"}#	c #A87542",
"|#	c #AC7946",
"1#	c #B3804D",
"2#	c #B47F4A",
"3#	c #B9824B",
"4#	c #AE8052",
"5#	c #80684D",
"6#	c #554E41",
"7#	c #434134",
"8#	c #4D4A3E",
"9#	c #494637",
"0#	c #50311E",
"a#	c #706053",
"b#	c #817F7A",
"c#	c #857E72",
"d#	c #A68768",
"e#	c #C79E79",
"f#	c #AC9177",
"g#	c #917C66",
"h#	c #BA9876",
"i#	c #E5BB8E",
"j#	c #D9B488",
"k#	c #BD9975",
"l#	c #BC926D",
"m#	c #CD9D6F",
"n#	c #E4B17D",
"o#	c #F7C48F",
"p#	c #E3B88A",
"q#	c #A18161",
"r#	c #74563A",
"s#	c #865B33",
"t#	c #A4703E",
"u#	c #A87440",
"v#	c #A97643",
"w#	c #AD7A47",
"x#	c #AF7D49",
"y#	c #B17E48",
"z#	c #B7814B",
"A#	c #AD7E51",
"B#	c #82674E",
"C#	c #544E42",
"D#	c #434436",
"E#	c #4B473B",
"F#	c #4C493C",
"G#	c #717065",
"H#	c #7D7D76",
"I#	c #827363",
"J#	c #9F8162",
"K#	c #AA9179",
"L#	c #867B73",
"M#	c #7F7266",
"N#	c #BD9C7A",
"O#	c #EFC593",
"P#	c #F4CB97",
"Q#	c #E5BB8A",
"R#	c #DDAE7E",
"S#	c #E4B27F",
"T#	c #F2BE89",
"U#	c #FBC894",
"V#	c #DEB387",
"W#	c #96795B",
"X#	c #6F5235",
"Y#	c #7F552C",
"Z#	c #996733",
"`#	c #A06D38",
" $	c #A16E3C",
".$	c #A67341",
"+$	c #AA7744",
"@$	c #AB7846",
"#$	c #AC7945",
"$$	c #B37F4A",
"%$	c #A67B51",
"&$	c #77614B",
"*$	c #4D493D",
"=$	c #484435",
"-$	c #4A4637",
";$	c #66655B",
">$	c #6F6B62",
",$	c #816F5D",
"'$	c #9E8267",
")$	c #998979",
"!$	c #7C7B7B",
"~$	c #8A7E73",
"{$	c #CDA982",
"]$	c #FACF9A",
"^$	c #FFD59E",
"/$	c #FBCB97",
"($	c #F7C692",
"_$	c #F8C793",
":$	c #FECE99",
"<$	c #FCCC98",
"[$	c #D2A980",
"}$	c #8E7054",
"|$	c #6D4E2F",
"1$	c #805428",
"2$	c #9F6A36",
"3$	c #9F6C3A",
"4$	c #A77441",
"5$	c #AB7844",
"6$	c #A5794F",
"7$	c #776049",
"8$	c #4D473B",
"9$	c #58574A",
"0$	c #696459",
"a$	c #887564",
"b$	c #AA8A6D",
"c$	c #988572",
"d$	c #736F6B",
"e$	c #958574",
"f$	c #DBB58A",
"g$	c #FDD29C",
"h$	c #FFD19C",
"i$	c #FFCE9B",
"j$	c #F7C895",
"k$	c #C49D76",
"l$	c #826549",
"m$	c #714E2D",
"n$	c #8E5D2F",
"o$	c #A7713E",
"p$	c #AB7744",
"q$	c #A87543",
"r$	c #A97543",
"s$	c #AA7743",
"t$	c #B27E47",
"u$	c #B08050",
"v$	c #876A4D",
"w$	c #564B3F",
"x$	c #605E51",
"y$	c #6C685F",
"z$	c #8C7968",
"A$	c #AF8D6F",
"B$	c #AA8B6E",
"C$	c #8D7863",
"D$	c #A3886B",
"E$	c #E1B98B",
"F$	c #FED29C",
"G$	c #FACF9B",
"H$	c #FDCD98",
"I$	c #FFCE9A",
"J$	c #FFCF9C",
"K$	c #FFD09C",
"L$	c #EFC090",
"M$	c #B5906C",
"N$	c #7A5E41",
"O$	c #79542F",
"P$	c #9D6B3A",
"Q$	c #B5814E",
"R$	c #AF7C49",
"S$	c #AA7844",
"T$	c #A87643",
"U$	c #B58049",
"V$	c #B08151",
"W$	c #584C41",
"X$	c #6C685E",
"Y$	c #877869",
"Z$	c #AD8E6F",
"`$	c #C89E74",
" %	c #C59E77",
".%	c #CBA57F",
"+%	c #E8BE8F",
"@%	c #E9C092",
"#%	c #DFB78A",
"$%	c #E4B586",
"%%	c #F3C08D",
"&%	c #E6B98B",
"*%	c #A58363",
"=%	c #6E553A",
"-%	c #7A552E",
";%	c #A2703F",
">%	c #B98652",
",%	c #B27F4C",
"'%	c #AE7C48",
")%	c #AC7A47",
"!%	c #AA7845",
"~%	c #AB7E50",
"{%	c #82674B",
"]%	c #4C443D",
"^%	c #6C665A",
"/%	c #8B8377",
"(%	c #B0987E",
"_%	c #D2A97F",
":%	c #E5B586",
"<%	c #F7C694",
"[%	c #F0C695",
"}%	c #CFAC85",
"|%	c #B99774",
"1%	c #C59B70",
"2%	c #E2AE7C",
"3%	c #F4C38E",
"4%	c #FECF99",
"5%	c #DEB386",
"6%	c #98785B",
"7%	c #6D5133",
"8%	c #7F562B",
"9%	c #B4814D",
"0%	c #B98753",
"a%	c #B88552",
"b%	c #B4824F",
"c%	c #B47F4B",
"d%	c #A77C51",
"e%	c #766048",
"f%	c #8B8479",
"g%	c #A0A19B",
"h%	c #9EA5A0",
"i%	c #989483",
"j%	c #C4A17C",
"k%	c #F2C28F",
"l%	c #F2C996",
"m%	c #D0AF85",
"n%	c #B49472",
"o%	c #C59B6F",
"p%	c #DDA976",
"q%	c #F1BD88",
"r%	c #FCCA96",
"s%	c #D5AB81",
"t%	c #8E7053",
"u%	c #6F502F",
"v%	c #835729",
"w%	c #9F6B36",
"x%	c #AB7845",
"y%	c #B5824F",
"z%	c #B98653",
"A%	c #B78451",
"B%	c #B4804E",
"C%	c #B07B47",
"D%	c #B6834F",
"E%	c #A17A52",
"F%	c #705C47",
"G%	c #959085",
"H%	c #ABB9BA",
"I%	c #84B9CE",
"J%	c #467E93",
"K%	c #767F79",
"L%	c #BAA080",
"M%	c #D8B589",
"N%	c #D5B387",
"O%	c #D2AC81",
"P%	c #D7A97B",
"Q%	c #E3B17C",
"R%	c #EEBB85",
"S%	c #EBBD8B",
"T%	c #BD9A74",
"U%	c #7F6649",
"V%	c #6F4F2D",
"W%	c #885B2B",
"X%	c #9A6832",
"Y%	c #9F6D3A",
"Z%	c #B27F4D",
"`%	c #B07D4A",
" &	c #B58250",
".&	c #997450",
"+&	c #655544",
"@&	c #8C857A",
"#&	c #A7BABE",
"$&	c #7DC5E7",
"%&	c #3C9AC8",
"&&	c #367EA0",
"*&	c #5B7C85",
"=&	c #8E8C7E",
"-&	c #A8967C",
";&	c #B59878",
">&	c #BF9B75",
",&	c #C5A075",
"'&	c #CEA77B",
")&	c #C7A075",
"!&	c #A17F5B",
"~&	c #7E5F3D",
"{&	c #865D34",
"]&	c #9C6A38",
"^&	c #A3703B",
"/&	c #A06D39",
"(&	c #A5713E",
"_&	c #AD7946",
":&	c #AF7C4A",
"<&	c #B07C48",
"[&	c #B57E4B",
"}&	c #AE7F51",
"|&	c #8C6C4D",
"1&	c #5C4F42",
"2&	c #83796A",
"3&	c #ADB4B2",
"4&	c #ABDBF2",
"5&	c #6FCAF8",
"6&	c #37A6DE",
"7&	c #4F9BBF",
"8&	c #759BA8",
"9&	c #828885",
"0&	c #7D7165",
"a&	c #7F6D5A",
"b&	c #8A745C",
"c&	c #8F765C",
"d&	c #8B6F51",
"e&	c #826140",
"f&	c #855F38",
"g&	c #A0703F",
"h&	c #B6804B",
"i&	c #B27D49",
"j&	c #A26F3A",
"k&	c #A16D3A",
"l&	c #AA7541",
"m&	c #B17C47",
"n&	c #A0774F",
"o&	c #796049",
"p&	c #7A7162",
"q&	c #BAB3AB",
"r&	c #DAEAF0",
"s&	c #A2E6FF",
"t&	c #6FD1FC",
"u&	c #94D7F3",
"v&	c #B6D5E0",
"w&	c #9AA2A1",
"x&	c #6E6962",
"y&	c #4D463F",
"z&	c #574735",
"A&	c #664C33",
"B&	c #7B5736",
"C&	c #9D6F3F",
"D&	c #AA7440",
"E&	c #A36E38",
"F&	c #A16C36",
"G&	c #A46F3A",
"H&	c #AC7843",
"I&	c #A87C50",
"J&	c #8A6B4C",
"K&	c #675646",
"L&	c #726B5F",
"M&	c #B3ACA3",
"N&	c #ECEAE6",
"O&	c #EBFEFF",
"P&	c #D7F9FF",
"Q&	c #D9F4F9",
"R&	c #D5DBD8",
"S&	c #A19F96",
"T&	c #6B6558",
"U&	c #4D3E32",
"V&	c #654C36",
"W&	c #7E5C39",
"X&	c #92683C",
"Y&	c #A07140",
"Z&	c #A77643",
"`&	c #AE7943",
" *	c #AB7843",
".*	c #AD7D4E",
"+*	c #A67C51",
"@*	c #8F6E4E",
"#*	c #6D5A47",
"$*	c #646155",
"%*	c #A2A098",
"&*	c #EAE6E4",
"**	c #FFFFFF",
"=*	c #FAFEFE",
"-*	c #E6E8E6",
";*	c #BAB6AF",
">*	c #847D71",
",*	c #594732",
"'*	c #684F35",
")*	c #7A5B3A",
"!*	c #8A6844",
"~*	c #9D764D",
"{*	c #A1784F",
"]*	c #97734E",
"^*	c #93714F",
"/*	c #896B4D",
"(*	c #725D48",
"_*	c #5C594C",
":*	c #9B9991",
"<*	c #DFDFDC",
"[*	c #F9F9F8",
"}*	c #D0CECB",
"|*	c #928E86",
"1*	c #5A5548",
"2*	c #524538",
"3*	c #604F3F",
"4*	c #6B5946",
"5*	c #7A624B",
"6*	c #6E5B47",
"7*	c #675746",
"8*	c #696559",
"9*	c #A4A39B",
"0*	c #E3E3E0",
"a*	c #F2F2F0",
"b*	c #BAB9B3",
"c*	c #777469",
"d*	c #757166",
"e*	c #D6D5D1",
"f*	c #EEEEED",
"g*	c #DADAD7",
"h*	c #A5A39B",
"i*	c #6D695C",
"j*	c #8C8A80",
"k*	c #9F9D96",
"l*	c #B0AEA8",
"m*	c #ADACA6",
"n*	c #8E8B81",
"o*	c #605C4E",
"p*	c #6F6B5E",
"q*	c #7F7C71",
"                                                                                            ",
"                                                                                            ",
"                                                                                            ",
"                                                                                            ",
"                                                                                            ",
"                                                                                            ",
"                                                                                            ",
"                                                                                            ",
"                                                                                            ",
"                                                                                            ",
"                                                                                            ",
"                                                                                            ",
"                                                                                            ",
"                                                                                            ",
"        . + @ # $       % &                                                                 ",
"      * = - ; > , ' ) ! ~ { ] ^ / (         _ :                                             ",
"  < [ } | 1 2 3 4 5 6 7 8 9 0 a b c d e f g h i j k                                         ",
"  l m n o p q r s t u v w x y z A B C D E F G H I J K     L M N O                           ",
"  P Q R S T U V W X Y Z `  ...+.+.@.#.$.%.&.*.=.-.;.>.,.'.).!.~.{.].^./.(._.                ",
":.<.[.}.|.1.2.3.4.5.6.7.8.9.+.+.+.0.a.b.c.d.e.f.g.h.i.j.k.l.m.n.o.p.q.r.s.t.u.              ",
"v.w.x.y.z.A.B.C.D.E.F.+.+.F.G.H.I.J.K.L.M.N.O.P.Q.R.S.T.U.V.W.X.Y.Z.`. +.+++@+#+$+          ",
"%+&+x.*+=+      -+;+>++.+.@.,+'+)+!+~+{+]+^+/+(+_+:+<+[+}+|+1+2+3+4+5+6+7+8+9+0+a+b+        ",
"c+d+e+f+g+      h+i+j+k+@.l+m+n+o+p+q+r+s+t+u+v+w+x+y+z+A+B+C+D+E+F+G+H+I+J+K+L+M+N+O+      ",
"P+Q+R+S+          T+U+V+W+X+Y+Z+`+ @.@+@@@#@$@%@&@*@=@-@;@>@,@'@)@!@~@{@]@^@/@(@_@:@<@      ",
"[@G }@              |@1@2@3@4@5@6@7@8@9@#@0@$@a@w+b@c@d@e@f@g@h@i@j@k@l@m@n@n@o@p@q@r@s@    ",
"t@u@v@                w@x@y@z@A@B@C@D@E@F@G@H@I@J@K@L@M@N@O@P@Q@R@S@T@m@U@V@W@X@Y@Z@`@ #.#  ",
"+#@###                    $#%#&#*#=#-#;#>#,#'#)#!#~#{#]#^#/#(#_#:#<#[#}#|#1#V@2#3#4#5#6#7#  ",
"8#8#9#                    0#a#b#c#d#e#f#g#h#i#j#k#l#m#n#o#p#q#r#s#t#u#m@v#w#x#y#z#A#B#C#D#  ",
"E#F#                        G#H#I#J#K#L#M#N#O#P#Q#R#S#T#U#V#W#X#Y#Z#`# $.$+$@$#$$$%$&$*$    ",
"=$-$                        ;$>$,$'$)$!$~${$]$^$/$($_$:$<$[$}$|$1$V.2$3$4$+$~@5$X@6$7$8$    ",
"                            9$0$a$b$c$d$e$f$g$^$h$0@i$u+j$k$l$m$n$o$p$q$r$+$v#s$t$u$v$w$    ",
"                            x$y$z$A$B$C$D$E$F$G$H$I$J$K$L$M$N$O$P$X@Q$R$S$+$T$v#U$V$v$W$    ",
"                              X$Y$Z$`$ %.%+%@%#%$%%%<$K$&%*%=%-%;%Y.>%,%'%)%!%s$Y@~%{%]%    ",
"                              ^%/%(%_%:%<%[%}%|%1%2%3%4%5%6%7%8%]@9%0%a%b%,%|#p$c%d%e%      ",
"                              f%g%h%i%j%k%l%m%n%o%p%q%r%s%t%u%v%w%x%y%z%A%B%p.C%D%E%F%      ",
"                              G%H%I%J%K%L%M%N%O%P%Q%R%S%T%U%V%W%X%Y%|#y%y%Z%`%X@ &.&+&      ",
"                              @&#&$&%&&&*&=&-&;&>&,&'&)&!&~&{&]&^&/&(&_&:&p.<&[&}&|&1&      ",
"                              2&3&4&5&6&7&8&9&0&a&b&c&d&e&f&g&h&i&m@j&k&]@l&m&5+n&o&        ",
"                              p&q&r&s&t&u&v&w&x&y&    z&A&B&C&X@Y@D&E&F&G&H&,%I&J&K&        ",
"                              L&M&N&O&P&Q&R&S&T&        U&V&W&X&Y&Z&`& *q..*+*@*#*          ",
"                              $*%*&***=*-*;*>*              ,*'*)*!*~*{*]*^*/*(*            ",
"                              _*:*<***[*}*|*1*                  2*3*4*5*6*7*                ",
"                              8*9*0***a*b*c*                                                ",
"                              d*9*e*f*g*h*i*                                                ",
"                                j*k*l*m*n*                                                  ",
"                                  o*p*q*                                                    "};
