/* XPM */
static char * playerOne04_xpm[] = {
"46 46 584 2",
"  	c None",
". 	c #37321D",
"+ 	c #4A483B",
"@ 	c #2D270F",
"# 	c #423E2C",
"$ 	c #545042",
"% 	c #403C28",
"& 	c #403D2D",
"* 	c #4F4D43",
"= 	c #525047",
"- 	c #5C5B57",
"; 	c #403B2B",
"> 	c #37321E",
", 	c #433F2E",
"' 	c #545043",
") 	c #7D7C77",
"! 	c #898886",
"~ 	c #5B584E",
"{ 	c #5C5C5A",
"] 	c #515046",
"^ 	c #494638",
"/ 	c #433E2E",
"( 	c #3B3522",
"_ 	c #535041",
": 	c #68675D",
"< 	c #7C7C78",
"[ 	c #8D8C8D",
"} 	c #959698",
"| 	c #878787",
"1 	c #636158",
"2 	c #464335",
"3 	c #38331E",
"4 	c #39341F",
"5 	c #4A4636",
"6 	c #868785",
"7 	c #969798",
"8 	c #8F9091",
"9 	c #848588",
"0 	c #767576",
"a 	c #595751",
"b 	c #454234",
"c 	c #545247",
"d 	c #7F7F7F",
"e 	c #828284",
"f 	c #6E6D6C",
"g 	c #5B5A57",
"h 	c #494639",
"i 	c #423F30",
"j 	c #3A351F",
"k 	c #5A5646",
"l 	c #6E6D66",
"m 	c #5A5954",
"n 	c #4F5348",
"o 	c #414739",
"p 	c #3A3623",
"q 	c #98958A",
"r 	c #F0EFEF",
"s 	c #A0A19B",
"t 	c #32260F",
"u 	c #441D0B",
"v 	c #432916",
"w 	c #524C3B",
"x 	c #D4D2CE",
"y 	c #C1C5C3",
"z 	c #76695E",
"A 	c #94251D",
"B 	c #9C0E09",
"C 	c #7B1B11",
"D 	c #403A27",
"E 	c #ABA9A0",
"F 	c #FCFDFF",
"G 	c #D9E3DF",
"H 	c #EE9E9F",
"I 	c #C50D0E",
"J 	c #991009",
"K 	c #771B11",
"L 	c #353521",
"M 	c #666254",
"N 	c #E8E8E6",
"O 	c #FFFFFF",
"P 	c #EDB8B8",
"Q 	c #CF1E1E",
"R 	c #E10000",
"S 	c #C20805",
"T 	c #A81009",
"U 	c #6C2114",
"V 	c #3E3925",
"W 	c #B7B5AD",
"X 	c #FDFFFF",
"Y 	c #DE7F7F",
"Z 	c #C70303",
"` 	c #F30000",
" .	c #FF0000",
"..	c #EF0101",
"+.	c #A6120B",
"@.	c #42311E",
"#.	c #4F2818",
"$.	c #918F84",
"%.	c #EDB6B6",
"&.	c #CC1010",
"*.	c #F40101",
"=.	c #FE0000",
"-.	c #F20000",
";.	c #D20603",
">.	c #B60A06",
",.	c #622617",
"'.	c #1C4027",
").	c #3A3522",
"!.	c #585448",
"~.	c #E1E0DD",
"{.	c #E19191",
"].	c #CD0202",
"^.	c #FA0000",
"/.	c #DD0000",
"(.	c #A60A06",
"_.	c #7F1B10",
":.	c #0B0600",
"<.	c #474231",
"[.	c #4E4939",
"}.	c #373225",
"|.	c #443F32",
"1.	c #737064",
"2.	c #8C8A80",
"3.	c #999790",
"4.	c #565241",
"5.	c #97958A",
"6.	c #D45454",
"7.	c #D00303",
"8.	c #F80000",
"9.	c #F70000",
"0.	c #B50400",
"a.	c #8C1009",
"b.	c #A60605",
"c.	c #860602",
"d.	c #482E1D",
"e.	c #37311C",
"f.	c #585345",
"g.	c #393524",
"h.	c #484533",
"i.	c #3B3724",
"j.	c #5D5A4C",
"k.	c #8A8478",
"l.	c #AFAAA2",
"m.	c #948C7F",
"n.	c #A2A099",
"o.	c #C4C3C0",
"p.	c #A09E96",
"q.	c #B5B4B1",
"r.	c #DBDBDB",
"s.	c #F0F0F1",
"t.	c #E7E7E8",
"u.	c #8A8880",
"v.	c #342F1A",
"w.	c #727262",
"x.	c #EBDEDD",
"y.	c #DA6969",
"z.	c #CB0000",
"A.	c #8E2922",
"B.	c #7B7066",
"C.	c #5A4E3E",
"D.	c #66493D",
"E.	c #7E7469",
"F.	c #A9B0AB",
"G.	c #BEBCB9",
"H.	c #94928A",
"I.	c #BAB8B4",
"J.	c #D4D4D2",
"K.	c #B7B4AF",
"L.	c #DAD4D0",
"M.	c #FFF7EF",
"N.	c #CBEDF7",
"O.	c #CBE7F2",
"P.	c #EEF4F5",
"Q.	c #FFFFFE",
"R.	c #FEFCFC",
"S.	c #F8F7F7",
"T.	c #FEFEFF",
"U.	c #D6D6D7",
"V.	c #5F5C4E",
"W.	c #3F432F",
"X.	c #C3BBB5",
"Y.	c #E97C7E",
"Z.	c #E30A0A",
"`.	c #FB0000",
" +	c #C40502",
".+	c #564635",
"++	c #B5D1CB",
"@+	c #F6F4F6",
"#+	c #CBCDCB",
"$+	c #E0E3E3",
"%+	c #F8F9F9",
"&+	c #FBF8F7",
"*+	c #FFFFFB",
"=+	c #ECFAFA",
"-+	c #CFF4FF",
";+	c #A9E6FF",
">+	c #25BCFF",
",+	c #5ACBFF",
"'+	c #84DAFF",
")+	c #A1E4FF",
"!+	c #E0F7FF",
"~+	c #FEFFFF",
"{+	c #BBB9B4",
"]+	c #5C5849",
"^+	c #7B7265",
"/+	c #CF5958",
"(+	c #D60404",
"_+	c #FD0000",
":+	c #BE0000",
"<+	c #683326",
"[+	c #BAC2BA",
"}+	c #FEFDFD",
"|+	c #CEF3FF",
"1+	c #7FD9FF",
"2+	c #5BC9F8",
"3+	c #C7EFFA",
"4+	c #51CFFF",
"5+	c #2EB3ED",
"6+	c #0F9AE1",
"7+	c #0084CA",
"8+	c #008ED9",
"9+	c #009CED",
"0+	c #40BAFC",
"a+	c #B2E6FF",
"b+	c #FBFBFC",
"c+	c #F1F2F4",
"d+	c #CECDCB",
"e+	c #7F7D72",
"f+	c #4E3423",
"g+	c #AB1D18",
"h+	c #E20000",
"i+	c #7B180F",
"j+	c #A0A096",
"k+	c #FFFDF9",
"l+	c #DBFAFF",
"m+	c #BAEBFF",
"n+	c #66D0FE",
"o+	c #26B2F3",
"p+	c #0595DE",
"q+	c #0087CB",
"r+	c #209AD6",
"s+	c #0090DD",
"t+	c #007DB9",
"u+	c #0079B2",
"v+	c #0073A5",
"w+	c #007AB2",
"x+	c #0099E9",
"y+	c #5DC8FD",
"z+	c #E7FAFF",
"A+	c #F9F5F4",
"B+	c #CECFCD",
"C+	c #8D8B84",
"D+	c #615D4F",
"E+	c #565244",
"F+	c #2B361F",
"G+	c #7C1A10",
"H+	c #E90000",
"I+	c #E40100",
"J+	c #CB0300",
"K+	c #980801",
"L+	c #612A1C",
"M+	c #959187",
"N+	c #D5E0E3",
"O+	c #71CDF2",
"P+	c #14A3EA",
"Q+	c #008DD2",
"R+	c #007EBF",
"S+	c #0077AF",
"T+	c #0075AD",
"U+	c #0079B1",
"V+	c #0078B0",
"W+	c #0074A8",
"X+	c #0077AC",
"Y+	c #0076AC",
"Z+	c #0084C3",
"`+	c #07A6F4",
" @	c #6AD2FF",
".@	c #FFFFFC",
"+@	c #EFEFF2",
"@@	c #777467",
"#@	c #2E291A",
"$@	c #4E2C1B",
"%@	c #BB0905",
"&@	c #BA0605",
"*@	c #801E16",
"=@	c #5B2212",
"-@	c #3C3827",
";@	c #4B4D46",
">@	c #6F5E4E",
",@	c #6792A3",
"'@	c #2E99CC",
")@	c #007BBB",
"!@	c #0076AD",
"~@	c #0078AC",
"{@	c #0078AF",
"]@	c #007AB1",
"^@	c #0076AA",
"/@	c #007AB5",
"(@	c #007FC1",
"_@	c #0391D8",
":@	c #0FA7ED",
"<@	c #69D6FF",
"[@	c #AED9E9",
"}@	c #C8BCB2",
"|@	c #524D3C",
"1@	c #6D291E",
"2@	c #60362D",
"3@	c #4E564B",
"4@	c #55594D",
"5@	c #485042",
"6@	c #656261",
"7@	c #73675E",
"8@	c #278EBC",
"9@	c #028ACC",
"0@	c #0077AE",
"a@	c #0079AF",
"b@	c #0078AE",
"c@	c #0181BD",
"d@	c #0E9BE3",
"e@	c #2FB7F5",
"f@	c #76D8FF",
"g@	c #C4F1FF",
"h@	c #FBFDFB",
"i@	c #C0BEBB",
"j@	c #665F51",
"k@	c #2F2B1A",
"l@	c #686D64",
"m@	c #5D6056",
"n@	c #696C64",
"o@	c #68645A",
"p@	c #605F54",
"q@	c #615B4F",
"r@	c #7A7B76",
"s@	c #47A3D0",
"t@	c #0093DD",
"u@	c #0079B0",
"v@	c #0079AE",
"w@	c #0075A9",
"x@	c #0076B2",
"y@	c #0896DA",
"z@	c #A2E0FB",
"A@	c #E7FDFF",
"B@	c #F6F8F5",
"C@	c #DFD6D2",
"D@	c #B9AFA6",
"E@	c #93938E",
"F@	c #322C18",
"G@	c #484534",
"H@	c #706F67",
"I@	c #5A5548",
"J@	c #5A574A",
"K@	c #646258",
"L@	c #4F4D3E",
"M@	c #5A503F",
"N@	c #4DA0C6",
"O@	c #0C98DC",
"P@	c #0084C6",
"Q@	c #0074AC",
"R@	c #007FBD",
"S@	c #0189C9",
"T@	c #059FEC",
"U@	c #47BEF1",
"V@	c #C6F2FF",
"W@	c #C2C1BF",
"X@	c #534E3D",
"Y@	c #484432",
"Z@	c #2C2814",
"`@	c #636157",
" #	c #66645A",
".#	c #767570",
"+#	c #5D5B51",
"@#	c #7B7A75",
"##	c #574F3E",
"$#	c #648996",
"%#	c #338FBC",
"&#	c #2887B4",
"*#	c #0D90CD",
"=#	c #0093E6",
"-#	c #2BAFEE",
";#	c #56CAFA",
">#	c #A5E7FF",
",#	c #E0F9FF",
"'#	c #F8F4F1",
")#	c #CFCCC8",
"!#	c #9D9B94",
"~#	c #2D2712",
"{#	c #575447",
"]#	c #777670",
"^#	c #484433",
"/#	c #68665E",
"(#	c #534F41",
"_#	c #706F68",
":#	c #625A4D",
"<#	c #7A685A",
"[#	c #707170",
"}#	c #617B80",
"|#	c #68C6F0",
"1#	c #6FD2FF",
"2#	c #CEF2FF",
"3#	c #F2FCFF",
"4#	c #FAF4F2",
"5#	c #9C9991",
"6#	c #555143",
"7#	c #44402E",
"8#	c #6B6961",
"9#	c #6C6B63",
"0#	c #565346",
"a#	c #6F6E67",
"b#	c #514E42",
"c#	c #4D564E",
"d#	c #4C4C42",
"e#	c #B7AB9F",
"f#	c #FFF6F1",
"g#	c #FAFFFF",
"h#	c #FAF9F9",
"i#	c #EAEBEC",
"j#	c #CACAC9",
"k#	c #7D7B70",
"l#	c #5B584B",
"m#	c #666359",
"n#	c #64675E",
"o#	c #4D4F41",
"p#	c #4A4F41",
"q#	c #383826",
"r#	c #5F281C",
"s#	c #9A7370",
"t#	c #96A79C",
"u#	c #F5F4F6",
"v#	c #99A69F",
"w#	c #84837B",
"x#	c #514D3D",
"y#	c #4D493B",
"z#	c #535144",
"A#	c #626156",
"B#	c #55635B",
"C#	c #5B4137",
"D#	c #67281C",
"E#	c #910D06",
"F#	c #BC0000",
"G#	c #7E0100",
"H#	c #7E6E63",
"I#	c #E6F0EE",
"J#	c #D3D7D4",
"K#	c #675446",
"L#	c #77190F",
"M#	c #38230E",
"N#	c #4F3626",
"O#	c #762B25",
"P#	c #B40605",
"Q#	c #CF0200",
"R#	c #F00000",
"S#	c #AF0000",
"T#	c #5E3527",
"U#	c #838B81",
"V#	c #7B7D72",
"W#	c #8F1E17",
"X#	c #A80501",
"Y#	c #4C2D1B",
"Z#	c #4E2412",
"`#	c #B80803",
" $	c #F90000",
".$	c #EF0000",
"+$	c #BD0603",
"@$	c #85180D",
"#$	c #78170E",
"$$	c #BD0201",
"%$	c #A10C08",
"&$	c #2B3A24",
"*$	c #771D11",
"=$	c #E40000",
"-$	c #E60000",
";$	c #B10E09",
">$	c #5A2618",
",$	c #542214",
"'$	c #BF1311",
")$	c #FD0C0D",
"!$	c #7E1F13",
"~$	c #3A3925",
"{$	c #AC726C",
"]$	c #E24F51",
"^$	c #EB0607",
"/$	c #D60403",
"($	c #4B2B1B",
"_$	c #7A8376",
":$	c #E6B9B9",
"<$	c #E34A4A",
"[$	c #DD1515",
"}$	c #C30805",
"|$	c #6C1D13",
"1$	c #515644",
"2$	c #CAD0CB",
"3$	c #F7CDCE",
"4$	c #E07B7B",
"5$	c #EB0000",
"6$	c #FF0100",
"7$	c #B80B07",
"8$	c #57291A",
"9$	c #27200C",
"0$	c #A4A39A",
"a$	c #CCCCC7",
"b$	c #F2CFD0",
"c$	c #E68A8A",
"d$	c #D72222",
"e$	c #9B150C",
"f$	c #154028",
"g$	c #5F6352",
"h$	c #DCDDDA",
"i$	c #FBEDED",
"j$	c #E17C7C",
"k$	c #DC2020",
"l$	c #C90000",
"m$	c #7B1B10",
"n$	c #4A473A",
"o$	c #403B2A",
"p$	c #332D19",
"q$	c #A2A097",
"r$	c #F8C3C3",
"s$	c #C41516",
"t$	c #7F160E",
"u$	c #3C3725",
"v$	c #312A12",
"w$	c #423D2C",
"x$	c #515047",
"y$	c #605F5D",
"z$	c #5E5A4A",
"A$	c #E0DFDC",
"B$	c #B7948D",
"C$	c #981B13",
"D$	c #581B0C",
"E$	c #213A23",
"F$	c #393420",
"G$	c #474438",
"H$	c #535047",
"I$	c #5E5C57",
"J$	c #59574A",
"K$	c #5D5C59",
"L$	c #504E45",
"M$	c #4E4C42",
"N$	c #413E2E",
"O$	c #36311C",
"P$	c #46422F",
"Q$	c #BEBDB6",
"R$	c #F3F4F5",
"S$	c #726D61",
"T$	c #4A1F0C",
"U$	c #493B2D",
"V$	c #484C41",
"W$	c #5D5A55",
"X$	c #6F6F6F",
"Y$	c #818183",
"Z$	c #929395",
"`$	c #868684",
" %	c #5C5A52",
".%	c #35301A",
"+%	c #8D8B7F",
"@%	c #ACB3AE",
"#%	c #424133",
"$%	c #575651",
"%%	c #79797A",
"&%	c #868688",
"*%	c #939395",
"=%	c #909091",
"-%	c #8B8B8A",
";%	c #69675E",
">%	c #4F4B3C",
",%	c #433E2C",
"'%	c #CAC8C3",
")%	c #9A978F",
"!%	c #626058",
"~%	c #72716F",
"{%	c #949496",
"]%	c #90908F",
"^%	c #7C7A75",
"/%	c #656257",
"(%	c #4F4B3B",
"_%	c #35311C",
":%	c #706C5D",
"<%	c #3C3724",
"[%	c #474338",
"}%	c #5D5B50",
"|%	c #717069",
"1%	c #59564A",
"2%	c #413D2B",
"3%	c #34301A",
"                          . +                                                               ",
"              @ # $ % & * = - ;                                                             ",
"          > , ' ) ! ~ { ] ^ /                                                               ",
"      ( _ : < [ } | 1 2 3                                                                   ",
"    4 5 6 7 8 9 0 a b                                                                       ",
"      c d e f g h i                                                                         ",
"  j k l m n o p                                                                             ",
"  q r s t u v                                                                               ",
"  w x y z A B C                                                                             ",
"  D E F G H I J K L                                                                         ",
"    M N O P Q R S T U                                                                       ",
"    V W X Y Z `  ...+.@.#.                                                                  ",
"      $.O %.&.*. .=.-.;.>.,.'.                                ).                            ",
"      !.~.{.].^. . . . ./.(._.                >   :.<.[.}.|.1.2.3.4.                        ",
"      5.O 6.7.8. . .9.0.a.b.c.d.e.f.g.h.1.i.j.k.l.m.n.o.p.q.r.s.t.u.v.                      ",
"      w.x.y.z.8.=. .R A.B.C.D.E.F.G.H.I.J.K.L.M.N.O.P.Q.R.S.O O T.U.V.                      ",
"      W.X.Y.Z.^. .`. +.+++@+#+$+%+O &+*+O =+-+;+>+,+'+)+!+~+O O O {+]+                      ",
"        ^+/+(+_+ .`.:+<+[+O }+O X |+1+2+3+4+5+6+7+8+9+0+a+O b+c+d+e+                        ",
"        f+g+h+ . ._+h+i+j+k+l+m+n+o+p+q+r+s+t+u+v+w+x+y+z+A+B+C+D+E+                        ",
"        F+G+H+`.I+J+K+L+M+N+O+P+Q+R+S+T+U+V+W+X+Y+Z+`+ @.@+@@@#@                            ",
"          $@%@&@*@=@-@;@>@,@'@)@!@~@{@]@]@^@/@(@_@:@<@[@}@C+|@                              ",
"            1@2@3@4@5@6@7@8@9@0@{@]@w+a@b@c@d@e@f@g@h@i@j@k@                                ",
"            l@m@n@o@p@q@r@s@t@X+u@u@v@w@x@y@z@A@B@C@D@E@F@                                  ",
"            G@H@I@J@K@L@M@N@O@P@u+Q@R@S@T@U@V@O W@X@Y@Z@                                    ",
"            p@`@ #.#+#@###$#%#&#*#=#-#;#>#,#'#)#!#~#                                        ",
"            {#]#^#/#(#_#:#<#[#}#|#1#2#3#O 4#5#6#7#                                          ",
"            . 8#8#9#0#a#b#c#d#e#f#g#O h#i#j#k#                                              ",
"              l#{#m#n#o#p#q#r#s#t#X u#v#w#x#                                                ",
"              y#z#A#B#C#D#E#F#G#H#I#J#K#L#M#                                                ",
"                  N#O#P#Q#R#`.S#T#U#V#W#X#Y#                                                ",
"                  Z#`# $ . . ..$+$@$#$$$%$$@                                                ",
"                  &$*$=$ . . . .`.-.-$H+;$>$                                                ",
"                    ,$'$)$9.=.=. . . ..$!$                                                  ",
"                    ~${$]$^$^. . .=._+/$($                                                  ",
"                      _$:$<$[$`  . . .}$|$                                                  ",
"                      1$2$3$4$=$5$6$ .7$8$                                                  ",
"                      9$0$a$b$c$d$-.R#e$f$                                                  ",
"                          g$h$i$j$k$l$m$                3 n$o$                              ",
"                          p$q$O O r$s$t$      u$  v$w$^ x$y$2                               ",
"                            z$A$g#B$C$D$E$F$G$H$I$J$K$L$M$N$O$                              ",
"                            P$Q$R$S$T$U$V$W$X$Y$Z$`$ %.%                                    ",
"                              +%O @%#%$%%%&%*%=%-%;%>%                                      ",
"                              ,%'%)%!%~%{%]%^%/%(%_%                                        ",
"                                :%<%[%}%|%1%2%3%                                            ",
"                                      4 O$                                                  ",
"                                                                                            "};
