/* XPM */
static char * playerOne11_xpm[] = {
"46 46 544 2",
"  	c None",
". 	c #575341",
"+ 	c #3C3723",
"@ 	c #484433",
"# 	c #474338",
"$ 	c #4E4938",
"% 	c #D0CEC9",
"& 	c #605C4C",
"* 	c #1A1400",
"= 	c #464231",
"- 	c #7C7B77",
"; 	c #848483",
"> 	c #5E5C56",
", 	c #7F7C74",
"' 	c #F7F7F9",
") 	c #F5F5F4",
"! 	c #827F72",
"~ 	c #403C29",
"{ 	c #787671",
"] 	c #959596",
"^ 	c #89898A",
"/ 	c #54534D",
"( 	c #3E3B2A",
"_ 	c #7C867C",
": 	c #F1F2F3",
"< 	c #DBDAD6",
"[ 	c #656152",
"} 	c #1C1500",
"| 	c #4A4635",
"1 	c #74726B",
"2 	c #868688",
"3 	c #696967",
"4 	c #4C4A40",
"5 	c #521B09",
"6 	c #633021",
"7 	c #E6F1EF",
"8 	c #FFFFFF",
"9 	c #E9EAE9",
"0 	c #767264",
"a 	c #403C2A",
"b 	c #7D7C78",
"c 	c #939394",
"d 	c #686868",
"e 	c #474134",
"f 	c #283A24",
"g 	c #771308",
"h 	c #D63D3D",
"i 	c #FFF1F1",
"j 	c #FCF6F6",
"k 	c #FFF8F8",
"l 	c #DFE0DD",
"m 	c #7C8072",
"n 	c #A9A79F",
"o 	c #413C29",
"p 	c #6A6860",
"q 	c #9C9D9F",
"r 	c #88898A",
"s 	c #686766",
"t 	c #48463A",
"u 	c #332E17",
"v 	c #7E170E",
"w 	c #B50000",
"x 	c #D92A2A",
"y 	c #D94646",
"z 	c #ECB9B9",
"A 	c #EEBABB",
"B 	c #FCE6E7",
"C 	c #FDFFFF",
"D 	c #A3ADA3",
"E 	c #383723",
"F 	c #61605A",
"G 	c #6A6961",
"H 	c #5E5C57",
"I 	c #464235",
"J 	c #38331E",
"K 	c #552919",
"L 	c #B60804",
"M 	c #F80000",
"N 	c #E70000",
"O 	c #D00202",
"P 	c #E21313",
"Q 	c #DB7676",
"R 	c #DC7575",
"S 	c #E7B9B9",
"T 	c #9F9F96",
"U 	c #3E4935",
"V 	c #3D3927",
"W 	c #4A473B",
"X 	c #5C5B58",
"Y 	c #423D2B",
"Z 	c #243B25",
"` 	c #AF0F09",
" .	c #FF0000",
"..	c #FF0100",
"+.	c #FC0000",
"@.	c #F70000",
"#.	c #DF0000",
"$.	c #F40A0A",
"%.	c #D8292A",
"&.	c #EB6869",
"*.	c #80160F",
"=.	c #3B311E",
"-.	c #35301B",
";.	c #56554F",
">.	c #54534B",
",.	c #444030",
"'.	c #A40E09",
").	c #FE0000",
"!.	c #F30000",
"~.	c #FD0303",
"{.	c #D20000",
"].	c #781C11",
"^.	c #343621",
"/.	c #484538",
"(.	c #626260",
"_.	c #3E3A28",
":.	c #7F170F",
"<.	c #E40000",
"[.	c #E20000",
"}.	c #7C1408",
"|.	c #3F3B29",
"1.	c #433F2F",
"2.	c #482C1B",
"3.	c #D70503",
"4.	c #F50000",
"5.	c #BD0202",
"6.	c #623B33",
"7.	c #545143",
"8.	c #535144",
"9.	c #545042",
"0.	c #41321F",
"a.	c #D70302",
"b.	c #E40301",
"c.	c #DA0000",
"d.	c #EB0000",
"e.	c #F10000",
"f.	c #AC0802",
"g.	c #6B2E26",
"h.	c #516158",
"i.	c #73736D",
"j.	c #4B4737",
"k.	c #6E6C65",
"l.	c #423E2C",
"m.	c #29230B",
"n.	c #642316",
"o.	c #B80B07",
"p.	c #CC0000",
"q.	c #79170E",
"r.	c #5B3426",
"s.	c #552F1F",
"t.	c #8D0300",
"u.	c #B90200",
"v.	c #4E2918",
"w.	c #58574B",
"x.	c #4A4B3C",
"y.	c #73726B",
"z.	c #68665D",
"A.	c #6C6A62",
"B.	c #888886",
"C.	c #575447",
"D.	c #40311E",
"E.	c #8D130C",
"F.	c #B80000",
"G.	c #644E40",
"H.	c #B7C7C3",
"I.	c #B8BCB6",
"J.	c #60372B",
"K.	c #7C0600",
"L.	c #632013",
"M.	c #314230",
"N.	c #514F43",
"O.	c #6F6E67",
"P.	c #4A4636",
"Q.	c #6F6D66",
"R.	c #504D3E",
"S.	c #6E6D66",
"T.	c #413D2B",
"U.	c #632416",
"V.	c #BE0100",
"W.	c #665E50",
"X.	c #F0F1F1",
"Y.	c #F9FCFB",
"Z.	c #96A79C",
"`.	c #B6B0AE",
" +	c #514D42",
".+	c #595E5A",
"++	c #4D493C",
"@+	c #777671",
"#+	c #5D5A4F",
"$+	c #5A574C",
"%+	c #82817E",
"&+	c #615E53",
"*+	c #37230E",
"=+	c #573627",
"-+	c #768378",
";+	c #EAEAEB",
">+	c #EADAD1",
",+	c #514E42",
"'+	c #8A8584",
")+	c #725F4D",
"!+	c #595243",
"~+	c #7F7E7B",
"{+	c #5D5A50",
"]+	c #5A574B",
"^+	c #595447",
"/+	c #5D5F54",
"(+	c #75736D",
"_+	c #352F1B",
":+	c #9A9B96",
"<+	c #E2E3E3",
"[+	c #FFFDFD",
"}+	c #7FD8FF",
"|+	c #4AB6E6",
"1+	c #42809A",
"2+	c #338FBB",
"3+	c #549CBC",
"4+	c #44402E",
"5+	c #6F6E66",
"6+	c #807E7A",
"7+	c #45564B",
"8+	c #6F2C23",
"9+	c #751B0F",
"0+	c #383521",
"a+	c #86847A",
"b+	c #E3E3E4",
"c+	c #F2FCFF",
"d+	c #99E0FE",
"e+	c #00A2F6",
"f+	c #048AC8",
"g+	c #008ACE",
"h+	c #018ACC",
"i+	c #23ABEE",
"j+	c #7F99A6",
"k+	c #6F675B",
"l+	c #5C594F",
"m+	c #4C4F40",
"n+	c #525245",
"o+	c #5B3328",
"p+	c #B80706",
"q+	c #7E180F",
"r+	c #3B321E",
"s+	c #1A1300",
"t+	c #79776D",
"u+	c #F1ECE8",
"v+	c #7DDBFF",
"w+	c #12A4E8",
"x+	c #0080C3",
"y+	c #0072A5",
"z+	c #0079B0",
"A+	c #007AB1",
"B+	c #0095E0",
"C+	c #2E95C4",
"D+	c #73675E",
"E+	c #666567",
"F+	c #374839",
"G+	c #5A1D0D",
"H+	c #B00904",
"I+	c #F00000",
"J+	c #D70000",
"K+	c #872C23",
"L+	c #3E422F",
"M+	c #5C5849",
"N+	c #CBC9C7",
"O+	c #FBFDFC",
"P+	c #88DDFF",
"Q+	c #03A3F2",
"R+	c #007EB8",
"S+	c #0079AF",
"T+	c #007AB2",
"U+	c #0075AA",
"V+	c #0085C6",
"W+	c #258EBD",
"X+	c #78685A",
"Y+	c #53534A",
"Z+	c #4A1C09",
"`+	c #BF0402",
" @	c #C80000",
".@	c #CE5857",
"+@	c #988E84",
"@@	c #393D28",
"#@	c #3D3825",
"$@	c #BBBAB7",
"%@	c #C6F2FF",
"&@	c #1EA9E7",
"*@	c #007CBC",
"=@	c #0075A9",
"-@	c #0076AB",
";@	c #0083C4",
">@	c #74B9D9",
",@	c #CACDCC",
"'@	c #91857B",
")@	c #86160F",
"!@	c #F10101",
"~@	c #DA3C3D",
"{@	c #FFD8D9",
"]@	c #AFAEA6",
"^@	c #433F2B",
"/@	c #342F1A",
"(@	c #B3B2AE",
"_@	c #FFFEFB",
":@	c #E3F9FF",
"<@	c #26ABEC",
"[@	c #007BB5",
"}@	c #0078AD",
"|@	c #007EBD",
"1@	c #13A2EA",
"2@	c #84DEFF",
"3@	c #B7BFB7",
"4@	c #5F392B",
"5@	c #9A0601",
"6@	c #FD0000",
"7@	c #C70000",
"8@	c #DD7D7D",
"9@	c #FEFFFF",
"0@	c #969489",
"a@	c #514E3E",
"b@	c #9B968D",
"c@	c #F7F0EF",
"d@	c #CDF5FF",
"e@	c #33BBF8",
"f@	c #008CD5",
"g@	c #0077AC",
"h@	c #007FC0",
"i@	c #02A4EE",
"j@	c #98DFFF",
"k@	c #F0FCFF",
"l@	c #9CACA1",
"m@	c #4F2D1C",
"n@	c #E00000",
"o@	c #F90000",
"p@	c #D10000",
"q@	c #C92F2F",
"r@	c #FFF1F2",
"s@	c #868276",
"t@	c #0F0900",
"u@	c #B4B4B2",
"v@	c #FFF2EB",
"w@	c #C3F1FF",
"x@	c #33BCFD",
"y@	c #0089CE",
"z@	c #0079B2",
"A@	c #007DBA",
"B@	c #10A4EF",
"C@	c #7EDAFF",
"D@	c #FFFEFF",
"E@	c #EEEEEE",
"F@	c #F7F6F8",
"G@	c #ADC4BF",
"H@	c #854038",
"I@	c #F40000",
"J@	c #BD1B1B",
"K@	c #FCE4E4",
"L@	c #FCFBFB",
"M@	c #423B2B",
"N@	c #B6B2AD",
"O@	c #D6F6FF",
"P@	c #20B7F9",
"Q@	c #0088CE",
"R@	c #008DDA",
"S@	c #32A7DD",
"T@	c #02A5ED",
"U@	c #7FD9FF",
"V@	c #FBFFFF",
"W@	c #FFFFFE",
"X@	c #DCE0DF",
"Y@	c #94948E",
"Z@	c #4F4534",
"`@	c #715145",
" #	c #601407",
".#	c #E40100",
"+#	c #CC1111",
"@#	c #E7A3A3",
"##	c #D2D0CB",
"$#	c #5F5B4B",
"%#	c #181200",
"&#	c #2D2812",
"*#	c #807E75",
"=#	c #D8D3CD",
"-#	c #5CCFFF",
";#	c #00A0EF",
">#	c #007DB6",
",#	c #0076A9",
"'#	c #008ACA",
")#	c #1BB8FF",
"!#	c #DDFAFF",
"~#	c #F1FDFF",
"{#	c #FFFAF9",
"]#	c #F2F0EE",
"^#	c #F4F5F8",
"/#	c #858B81",
"(#	c #623628",
"_#	c #8D0200",
":#	c #B40201",
"<#	c #D00000",
"[#	c #C81F1F",
"}#	c #F9E5E5",
"|#	c #F0F0EF",
"1#	c #838073",
"2#	c #656153",
"3#	c #E7E7EA",
"4#	c #FFFFFB",
"5#	c #6FD3FF",
"6#	c #0080BC",
"7#	c #0073A6",
"8#	c #008BD6",
"9#	c #45C0F5",
"0#	c #B8EEFF",
"a#	c #FFFFFA",
"b#	c #FBFCFD",
"c#	c #C7C4C1",
"d#	c #77756B",
"e#	c #736F64",
"f#	c #37311C",
"g#	c #412D1B",
"h#	c #7F190F",
"i#	c #93120B",
"j#	c #CC0100",
"k#	c #CE0704",
"l#	c #D00503",
"m#	c #CD3535",
"n#	c #DCE7E3",
"o#	c #EBECEE",
"p#	c #686354",
"q#	c #161000",
"r#	c #6F6C5F",
"s#	c #DBDBDB",
"t#	c #A0E0FF",
"u#	c #009CF7",
"v#	c #039DE7",
"w#	c #00A2F4",
"x#	c #16B5FF",
"y#	c #F2F1F0",
"z#	c #B7B4AF",
"A#	c #B5B5B2",
"B#	c #5D5A4B",
"C#	c #263C25",
"D#	c #642416",
"E#	c #5A2416",
"F#	c #353621",
"G#	c #86190F",
"H#	c #AB0F09",
"I#	c #A30D08",
"J#	c #A30F09",
"K#	c #BC0000",
"L#	c #D5292A",
"M#	c #805A4F",
"N#	c #7B7F75",
"O#	c #F1F0F2",
"P#	c #E7E6E4",
"Q#	c #4E4A37",
"R#	c #494432",
"S#	c #B9B9B7",
"T#	c #F5F6F6",
"U#	c #9CDFFF",
"V#	c #63CEFF",
"W#	c #85DBFF",
"X#	c #98E0FF",
"Y#	c #B2EAFF",
"Z#	c #FDF3EB",
"`#	c #A4A19B",
" $	c #3B3724",
".$	c #28230D",
"+$	c #3F301D",
"@$	c #293924",
"#$	c #4C2C1B",
"$$	c #96100A",
"%$	c #71190D",
"&$	c #461A08",
"*$	c #332D17",
"=$	c #87857F",
"-$	c #5D5949",
";$	c #696559",
">$	c #ABAAA5",
",$	c #F2F3F5",
"'$	c #F3FCFF",
")$	c #FFFEFC",
"!$	c #D6DBDD",
"~$	c #D1CBC6",
"{$	c #9B988F",
"]$	c #4B4736",
"^$	c #313722",
"/$	c #434536",
"($	c #61615F",
"_$	c #605F59",
":$	c #393525",
"<$	c #767368",
"[$	c #F1F1F1",
"}$	c #F4F3F3",
"|$	c #EAEBEB",
"1$	c #D7D7D6",
"2$	c #7E7B71",
"3$	c #241F08",
"4$	c #342F18",
"5$	c #49473C",
"6$	c #676764",
"7$	c #88898B",
"8$	c #7B7B77",
"9$	c #716E61",
"0$	c #F9F9FB",
"a$	c #B3B2AF",
"b$	c #6B685B",
"c$	c #595546",
"d$	c #3F3A27",
"e$	c #38331F",
"f$	c #454133",
"g$	c #686869",
"h$	c #868687",
"i$	c #969798",
"j$	c #7F7F7B",
"k$	c #5F5C4E",
"l$	c #BFBFBE",
"m$	c #EDEDEF",
"n$	c #EBEBEC",
"o$	c #B0AEAB",
"p$	c #0E0700",
"q$	c #49463B",
"r$	c #696866",
"s$	c #868689",
"t$	c #929394",
"u$	c #787873",
"v$	c #45412F",
"w$	c #1E1800",
"x$	c #474331",
"y$	c #817E73",
"z$	c #9E9C96",
"A$	c #4B4735",
"B$	c #56544D",
"C$	c #858585",
"D$	c #969699",
"E$	c #72706A",
"F$	c #454130",
"G$	c #6F6D67",
"H$	c #9A9B9D",
"I$	c #7D7C77",
"J$	c #413C2A",
"K$	c #5D5D5B",
"L$	c #524F44",
"M$	c #69665E",
"N$	c #342F19",
"O$	c #3D3726",
"P$	c #61605E",
"Q$	c #4B483C",
"R$	c #4F4D43",
"S$	c #35301A",
"                                                                                            ",
"                                                                                            ",
"                                                                                            ",
"                                                                                            ",
"                                                                                            ",
"                                  .                                                         ",
"                          + @ # $ % & *                                                     ",
"                        = - ; > , ' ) !                                                     ",
"                      ~ { ] ^ / ( _ : < [ }                                                 ",
"                    | 1 ] 2 3 4 5 6 7 8 9 0                                                 ",
"                  a b c 2 d e f g h i j k l m n o                                           ",
"                  p q r s t u   v w x y z A B C D E                                         ",
"                u F G H I J     K L M N O P Q R S T U                                       ",
"              V W X Y           Z `  ...+.@.#.$.%.&.*.=.                                    ",
"            -.;.>.,.              '. . .). . .+.!.~.{.].^.                                  ",
"            /.(._.                :.<. .).).). .). . .[.}.                                  ",
"            |.1.                  2.3. . . . . . .).4.5.6.7.8.9.                            ",
"                                  0.a.).#.b.c.d. .e.f.g.h.i.j.k.l.m.                        ",
"                                  n.o.p.q.r.s.t.<.u.v.w.x.y.z.A.B.C.                        ",
"                                  D.E.F.G.H.I.J.K.L.M.N.O.P.Q.= R.S.T.                      ",
"                                    U.V.W.X.Y.Z.`. +.+++@+#+$+%+&+y.T.                      ",
"                                    *+=+-+;+8 8 >+,+'+)+!+~+{+]+^+/+(+                      ",
"                                    _+:+<+[+8 }+|+1+2+3+!+4+5+C.6+7+8+9+0+                  ",
"                                    a+b+8 c+d+e+f+g+h+i+j+k+l+m+n+o+p+#.q+r+                ",
"                                  s+t+u+8 v+w+x+y+z+A+B+C+D+E+F+G+H+I+ .J+K+L+              ",
"                                  M+N+O+P+Q+R+S+z+T+U+V+W+X+Y+Z+`+e. . . @.@+@@@            ",
"                                #@$@8 %@&@*@=@A+A+A+-@;@>@,@'@)@[. . . .!@~@{@]@^@          ",
"                                /@(@_@:@<@[@S+A+z+}@|@1@2@8 3@4@5@d.6@ .e.7@8@9@0@          ",
"                              a@b@c@d@e@f@g@A+A+U+h@i@j@k@8 8 l@m@n@ .).o@p@q@r@s@t@        ",
"                            #@u@v@w@x@y@z@=@T+z@A@B@C@8 D@E@F@G@H@J+ .). .I@J@K@L@!         ",
"                            M@N@O@P@Q@-@S+U+R@S@T@U@V@W@X@Y@Z@`@ #.# .).).!@+#@#8 ##$#%#    ",
"                          &#*#=#-#;#>#,#z@'#)#!#~#{#]#^#/#(#_#:#<# . . . . .<#[#}#8 |#1#    ",
"                          2#3#4#5#Q+6#7#8#9#0#a#b#c#d#e#f#g#h#i#j#k#l#d.o@ .d.m#}#n#o#< p#  ",
"                        q#r#s#8 t#u#v#w#x#:@y#z#A#B#          C#D#E#F#G#H#I#J#K#L#M#N#O#P#Q#",
"                        R#S#T#8 U#V#W#X#Y#Z#`# $  .$                  +$@$  #$$$%$&$*$=$-$  ",
"                      ;$>$,$8 8 '$8 )$!$~${$]$                                  ^$/$($_$:$  ",
"                      <$[$8 8 8 }$|$1$2$3$                                    4$5$6$7$8$l.  ",
"                      9$0$8 8 : a$b$c$d$                                    e$f$g$h$i$j$Y   ",
"                      k$l$m$n$o$c$p$                                        q$r$s$t$u$v$    ",
"                      w$x$y$z$A$                                            B$C$D$E$F$      ",
"                                                                          ,.G$H$I$J$        ",
"                                                                        _.K$L$M$P.          ",
"                                                                      ,.>.;.N$              ",
"                                                                    O$P$Q$V                 ",
"                                                                    1.R$S$                  ",
"                                                                                            "};
