/* XPM */
static char * playerOne08_xpm[] = {
"46 46 500 2",
"  	c None",
". 	c #241E08",
"+ 	c #3D3825",
"@ 	c #7D7A6C",
"# 	c #29240E",
"$ 	c #2B2510",
"% 	c #55513F",
"& 	c #ADABA3",
"* 	c #FCFCFB",
"= 	c #FFFFFF",
"- 	c #4B4634",
"; 	c #342F1A",
"> 	c #2B2611",
", 	c #575241",
"' 	c #AAA8A0",
") 	c #393420",
"! 	c #747062",
"~ 	c #D0CFCB",
"{ 	c #D3D4D5",
"] 	c #ACAAA6",
"^ 	c #5C5A4F",
"/ 	c #5A5954",
"( 	c #4E4A3A",
"_ 	c #342E19",
": 	c #293A24",
"< 	c #383420",
"[ 	c #78776A",
"} 	c #D8E7E3",
"| 	c #F8FBFA",
"1 	c #E3EDEB",
"2 	c #393F2B",
"3 	c #2F2B16",
"4 	c #4D4B43",
"5 	c #8B8B8B",
"6 	c #969698",
"7 	c #433F2D",
"8 	c #302A14",
"9 	c #2D3923",
"0 	c #452F1D",
"a 	c #791A10",
"b 	c #B20000",
"c 	c #EC696A",
"d 	c #D14C4D",
"e 	c #D54D4D",
"f 	c #E19B9B",
"g 	c #D04848",
"h 	c #F7E3E3",
"i 	c #D76A6A",
"j 	c #F1B5B5",
"k 	c #B50806",
"l 	c #502715",
"m 	c #545751",
"n 	c #7F7F80",
"o 	c #949495",
"p 	c #66635A",
"q 	c #322D17",
"r 	c #423E2C",
"s 	c #6B6961",
"t 	c #565346",
"u 	c #434433",
"v 	c #631809",
"w 	c #D00000",
"x 	c #E70000",
"y 	c #F90000",
"z 	c #FD0000",
"A 	c #E30000",
"B 	c #FE0000",
"C 	c #D40000",
"D 	c #F20000",
"E 	c #DB0000",
"F 	c #D90B0B",
"G 	c #BE0000",
"H 	c #9E0703",
"I 	c #2B3620",
"J 	c #433E2F",
"K 	c #6E6E6F",
"L 	c #8F8F8F",
"M 	c #898988",
"N 	c #3A3521",
"O 	c #36311C",
"P 	c #514E3F",
"Q 	c #7A7975",
"R 	c #8B8B8A",
"S 	c #68665D",
"T 	c #4B4738",
"U 	c #7D7E7B",
"V 	c #59524C",
"W 	c #BF0101",
"X 	c #FF0000",
"Y 	c #FF0101",
"Z 	c #A80905",
"` 	c #6B2114",
" .	c #37321D",
"..	c #5C5C59",
"+.	c #858586",
"@.	c #565345",
"#.	c #413D2B",
"$.	c #838381",
"%.	c #545143",
"&.	c #848482",
"*.	c #4B4736",
"=.	c #4E5A50",
"-.	c #851109",
";.	c #E90000",
">.	c #E50000",
",.	c #4C2C1B",
"'.	c #233D25",
").	c #342E18",
"!.	c #49463A",
"~.	c #757577",
"{.	c #919292",
"].	c #7D7C78",
"^.	c #2A3A24",
"/.	c #3A3420",
"(.	c #7C7D79",
"_.	c #504C3D",
":.	c #797874",
"<.	c #4A4636",
"[.	c #585549",
"}.	c #5B5D51",
"|.	c #4D2B1A",
"1.	c #CD0000",
"2.	c #A10F0A",
"3.	c #273B25",
"4.	c #3B3623",
"5.	c #646465",
"6.	c #98999B",
"7.	c #484333",
"8.	c #2E3520",
"9.	c #482D1B",
"0.	c #7D180F",
"a.	c #C40000",
"b.	c #801E17",
"c.	c #4B564C",
"d.	c #524E3F",
"e.	c #67655C",
"f.	c #3E3927",
"g.	c #44402F",
"h.	c #706F68",
"i.	c #8D8D8D",
"j.	c #454234",
"k.	c #353C29",
"l.	c #A10904",
"m.	c #E40000",
"n.	c #C60000",
"o.	c #C60301",
"p.	c #F70000",
"q.	c #FA0000",
"r.	c #A30906",
"s.	c #672115",
"t.	c #342E1A",
"u.	c #5E5C51",
"v.	c #676661",
"w.	c #332D17",
"x.	c #211C05",
"y.	c #72796A",
"z.	c #BA8580",
"A.	c #C30000",
"B.	c #EA0000",
"C.	c #B50808",
"D.	c #484A3E",
"E.	c #8C8C8C",
"F.	c #575447",
"G.	c #82817F",
"H.	c #878685",
"I.	c #5E5B50",
"J.	c #38321D",
"K.	c #5D5C57",
"L.	c #464F47",
"M.	c #662416",
"N.	c #7A0400",
"O.	c #3B2310",
"P.	c #504939",
"Q.	c #6D1C10",
"R.	c #C00000",
"S.	c #4B2C1B",
"T.	c #616161",
"U.	c #969489",
"V.	c #ECEDEC",
"W.	c #FFD8D9",
"X.	c #D95B5C",
"Y.	c #C10000",
"Z.	c #D70000",
"`.	c #5A2010",
" +	c #2E321C",
".+	c #5D5B51",
"++	c #3B3521",
"@+	c #615443",
"#+	c #89817A",
"$+	c #898483",
"%+	c #403C2E",
"&+	c #C9C9C9",
"*+	c #7A8477",
"=+	c #D7DBD6",
"-+	c #E9E9EB",
";+	c #4E6A59",
">+	c #800D04",
",+	c #A1100A",
"'+	c #263C25",
")+	c #36301A",
"!+	c #5B5A55",
"~+	c #231E07",
"{+	c #C82222",
"]+	c #F00000",
"^+	c #9B0C07",
"/+	c #373F2D",
"(+	c #676769",
"_+	c #6E6C63",
":+	c #60A1C0",
"<+	c #16B1F9",
"[+	c #467A93",
"}+	c #707F7E",
"|+	c #F4E9E4",
"1+	c #EFF0F0",
"2+	c #7C685D",
"3+	c #BB0100",
"4+	c #A70A06",
"5+	c #662215",
"6+	c #454233",
"7+	c #5E5E5B",
"8+	c #2A250F",
"9+	c #534E3D",
"0+	c #A7A59C",
"a+	c #F9F8F8",
"b+	c #FEE4E4",
"c+	c #CB3232",
"d+	c #E70101",
"e+	c #3F210D",
"f+	c #545650",
"g+	c #726056",
"h+	c #2E95C5",
"i+	c #00A5F8",
"j+	c #0088C9",
"k+	c #0089CC",
"l+	c #15A8EB",
"m+	c #42C3FF",
"n+	c #FEFEFE",
"o+	c #CBCBCB",
"p+	c #30331E",
"q+	c #C20000",
"r+	c #4F2C1B",
"s+	c #223D25",
"t+	c #38331E",
"u+	c #646464",
"v+	c #413D2C",
"w+	c #36301C",
"x+	c #D0CFCA",
"y+	c #EBB6B6",
"z+	c #BB0000",
"A+	c #ED0000",
"B+	c #C50000",
"C+	c #950200",
"D+	c #77594E",
"E+	c #AAA7A1",
"F+	c #6A726D",
"G+	c #00A0EC",
"H+	c #0074A8",
"I+	c #0078AD",
"J+	c #007AB1",
"K+	c #0174A9",
"L+	c #00A3F6",
"M+	c #CEF1FF",
"N+	c #E8E8EA",
"O+	c #72786D",
"P+	c #422411",
"Q+	c #353621",
"R+	c #433F2F",
"S+	c #38331F",
"T+	c #5E5A49",
"U+	c #FCFCFC",
"V+	c #EEEFF1",
"W+	c #D24545",
"X+	c #CA0100",
"Y+	c #342A15",
"Z+	c #565F4D",
"`+	c #B7BEB6",
" @	c #97CFEB",
".@	c #008AC9",
"+@	c #0078AE",
"@@	c #0077AC",
"#@	c #008CD3",
"$@	c #59CEFF",
"%@	c #F8F9F9",
"&@	c #BAB9B8",
"*@	c #342F1B",
"=@	c #2F2913",
"-@	c #C6C5C4",
";@	c #B5B4B1",
">@	c #5F6557",
",@	c #B4B6AE",
"'@	c #F8C7C8",
")@	c #C41F1F",
"!@	c #DA0101",
"~@	c #900F08",
"{@	c #A0A09A",
"]@	c #6DD6FF",
"^@	c #0090DC",
"/@	c #0076AB",
"(@	c #007AB0",
"_@	c #007CB4",
":@	c #00AEFE",
"<@	c #F2FBFF",
"[@	c #CFCFCE",
"}@	c #504C3B",
"|@	c #383423",
"1@	c #58564D",
"2@	c #302C16",
"3@	c #3E1E0B",
"4@	c #C60101",
"5@	c #CA0000",
"6@	c #5F1407",
"7@	c #6A8174",
"8@	c #DFE0E1",
"9@	c #F4F4F4",
"0@	c #E5F7FF",
"a@	c #00A9FB",
"b@	c #0095E2",
"c@	c #88DDFF",
"d@	c #FFFBF6",
"e@	c #8C8A82",
"f@	c #1F1902",
"g@	c #4F4C3E",
"h@	c #808081",
"i@	c #666666",
"j@	c #383825",
"k@	c #442F1D",
"l@	c #97100A",
"m@	c #8D120B",
"n@	c #C60603",
"o@	c #E10000",
"p@	c #CD0201",
"q@	c #FC0000",
"r@	c #B60201",
"s@	c #90150E",
"t@	c #38321E",
"u@	c #BCBCBB",
"v@	c #FAFAFB",
"w@	c #46C8FF",
"x@	c #0089CD",
"y@	c #0077AD",
"z@	c #007EBB",
"A@	c #47C7FF",
"B@	c #FFFEFD",
"C@	c #CACACA",
"D@	c #3F3A27",
"E@	c #7E7E7A",
"F@	c #959596",
"G@	c #767778",
"H@	c #4B483D",
"I@	c #2F311A",
"J@	c #233C25",
"K@	c #3A3320",
"L@	c #602416",
"M@	c #373521",
"N@	c #7E180F",
"O@	c #C30302",
"P@	c #AE0704",
"Q@	c #C10101",
"R@	c #681306",
"S@	c #7E847A",
"T@	c #EBECED",
"U@	c #BCEBFF",
"V@	c #009FF0",
"W@	c #0079B0",
"X@	c #009CE8",
"Y@	c #DDF6FF",
"Z@	c #ECEDEF",
"`@	c #696659",
" #	c #535042",
".#	c #939495",
"+#	c #868687",
"@#	c #5E5D5B",
"##	c #4B2D1B",
"$#	c #412D1B",
"%#	c #484331",
"&#	c #DCDDDF",
"*#	c #FFFFFE",
"=#	c #0CB5FF",
"-#	c #0189C7",
";#	c #007FBB",
">#	c #008ED5",
",#	c #5DCFFF",
"'#	c #FFFFFC",
")#	c #B2B1AD",
"!#	c #262009",
"~#	c #878786",
"{#	c #8F8F90",
"]#	c #6F6F71",
"^#	c #433F31",
"/#	c #2D2711",
"(#	c #666255",
"_#	c #929189",
":#	c #FAF2F0",
"<#	c #F0FDFF",
"[#	c #A9E7FF",
"}#	c #009CED",
"|#	c #0076AC",
"1#	c #007CB5",
"2#	c #01AEFE",
"3#	c #F6FDFF",
"4#	c #D9D7D8",
"5#	c #636056",
"6#	c #949496",
"7#	c #575651",
"8#	c #36301B",
"9#	c #DBDCDD",
"0#	c #FEFFFF",
"a#	c #0BB3FF",
"b#	c #007FB9",
"c#	c #0079AF",
"d#	c #0096E3",
"e#	c #92E2FF",
"f#	c #FFF5F0",
"g#	c #8D8B83",
"h#	c #413C2A",
"i#	c #56544D",
"j#	c #302B16",
"k#	c #9E9D97",
"l#	c #C4C3C0",
"m#	c #FFFAF5",
"n#	c #74D9FF",
"o#	c #0091DA",
"p#	c #0080BC",
"q#	c #1AB9FF",
"r#	c #3E3926",
"s#	c #777570",
"t#	c #97989A",
"u#	c #565347",
"v#	c #312C14",
"w#	c #545141",
"x#	c #E3E0E0",
"y#	c #E4F9FF",
"z#	c #00A8F9",
"A#	c #019FE8",
"B#	c #07B2FF",
"C#	c #D8E9F2",
"D#	c #6C685B",
"E#	c #484433",
"F#	c #474334",
"G#	c #5F5F5E",
"H#	c #35301B",
"I#	c #B8B7B5",
"J#	c #FFFFFA",
"K#	c #35C2FF",
"L#	c #00ACFF",
"M#	c #0095DD",
"N#	c #00A0F3",
"O#	c #6ED3FF",
"P#	c #FFFCF5",
"Q#	c #A6A5A1",
"R#	c #2F2A15",
"S#	c #35301A",
"T#	c #28220C",
"U#	c #78766B",
"V#	c #EDE5E2",
"W#	c #D2EAF5",
"X#	c #B5EAFF",
"Y#	c #1BB7FF",
"Z#	c #00ABFF",
"`#	c #E1E1E4",
" $	c #4E4A39",
".$	c #BFBFBE",
"+$	c #FFFDFB",
"@$	c #A3E2FF",
"#$	c #FBFEFF",
"$$	c #FBFCFD",
"%$	c #9B9992",
"&$	c #231D06",
"*$	c #666667",
"=$	c #3E3928",
"-$	c #29230D",
";$	c #86847B",
">$	c #F5F6F9",
",$	c #FAFAFA",
"'$	c #BBBBBA",
")$	c #342F18",
"!$	c #4D4A3F",
"~$	c #494433",
"{$	c #737064",
"]$	c #CCCCCC",
"^$	c #FDFDFD",
"/$	c #E1E2E3",
"($	c #636052",
"_$	c #221C05",
":$	c #93918A",
"<$	c #F0F1F2",
"[$	c #AAA9A5",
"}$	c #2F2914",
"|$	c #545040",
"1$	c #DDDDDF",
"2$	c #F5F5F6",
"3$	c #5D594A",
"4$	c #312C17",
"5$	c #A1A09A",
"6$	c #CECDCB",
"7$	c #D7D8D9",
"8$	c #A2A19C",
"9$	c #514D3C",
"0$	c #474331",
"a$	c #2D2812",
"                                                                                            ",
"                                                                                            ",
"                                                                                            ",
"                                                                                            ",
"                                                                                            ",
"                                                                                            ",
"                                                                                            ",
"                                                                                            ",
"                                                                                            ",
"                                                                                            ",
"                                                                                            ",
"                                                                                            ",
"                                                                      . + @ #               ",
"                                                                  $ % & * = -   ;           ",
"                                                        > , ' ) ! ~ = = { ] ^ / ( _         ",
"                                                  : < [ } = = | = = = 1 2 3 4 5 6 7         ",
"                                        8     9 0 a b c d e f g h i = j k l m n o p 8       ",
"                                    q r s t u v w x y z A B C D w E F G H I J K L M N       ",
"                                O P Q R S T U V W X X B X X X Y B Y y Z `    ...+.o @.      ",
"                                #.$.%.) %.&.*.=.-.;.X B B B B B B X >.,.'.  ).!.~.{.].;     ",
"                          ^./.  (._.S R :.<.[.}.|.1.X B X X B B X y 2.3.      4.5.R 6.7.    ",
"                      8.9.0.a.b.c.d.e.f.g.h.i.j.k.l.m.n.o.p.X X q.r.s.          t.u.v.w.    ",
"                x.; y.z.A.B.D C.D.E.F.G.H.I.J.K.L.M.N.O.P.Q.R.B >.S.'.            f.T.)     ",
"                U.V.W.X.Y.X X Z.`. +.+*.++@+#+$+%+&+*+=+-+;+>+B.,+'+              )+!+!.    ",
"            ~+) = = {+C X X X ]+^+/+(+_+E.:+<+[+}+|+= = 1+2+3+4+5+                  6+7+O   ",
"        8+9+0+a+b+c+Y.d+X B X B w e+f+g+h+i+j+k+l+m+= n+o+p+q+r+s+                  t+u+v+  ",
"    w+! x+= = = y+z+B X B X A+B+C+D+E+F+G+H+I+J+K+L+M+= N+O+P+Q+                      R+S+  ",
"  T+U+= V+n+= W+q+A z B B X X+Y+Z+`+=  @.@+@J+J+@@#@$@= %@&@*@                              ",
"  =@-@;@>@,@'@)@!@X B B B B ~@{@= = = ]@^@/@J+J+(@_@:@<@= [@}@                              ",
"  |@1@2@3@4@Y.5@z X X z X A 6@7@8@9@= 0@a@J+J+J+J+/@b@c@d@e@f@                              ",
"t+g@h@i@j@k@l@5+m@n@o@p@q.q@r@s@t@u@v@= w@x@y@J+J+I+z@A@B@C@D@                              ",
"; E@F@G@H@I@  J@  K@L@M@N@O@P@Q@R@S@T@= U@V@/@J+J+W@X@Y@= Z@`@                              ",
"   #.#+#@#t+              ##9 r+$#%#&#= *#=#-#;#+@/@>#,#'#)#!#                              ",
"  S+~#{#]#^#                      /#(#_#:#<#[#}#|#W@1#2#3#4#}@                              ",
"  8 5#6#h@7#8#                        }@9#= 0#a#b#c#/@d#e#f#g#8+                            ",
"    h#L E.i#                          j#k#l#m#n#o#/@I+p#q#= &+r#                            ",
"    q s#t#u#v#                            w#x#y#z#J++@A#B#C#D#                              ",
"      E#F#G#t+                            H#I#J#K#L#M#N#O#P#Q#R#                            ",
"        S#7+6+                            T#U#V#W#X#Y#Z#= = `# $                            ",
"          !.!+)+                              N .$+$= @$#$$$%$&$                            ",
"          ) *$=$                              -$;$>$= = = ,$'$t+                            ",
"          )$!$v+                                ~${$]$^$= = /$($                            ",
"                                                  _$:$<$= = v@[$}$                          ",
"                                                    |$1$= = 2$3$                            ",
"                                                    4$5$6$7$8$9$                            ",
"                                                         $0$a$                              "};
