/* XPM */
static char * playerOne05_xpm[] = {
"46 46 757 2",
"  	c None",
". 	c #5B5647",
"+ 	c #4E4938",
"@ 	c #646153",
"# 	c #686557",
"$ 	c #95948C",
"% 	c #A4A29C",
"& 	c #A8A6A0",
"* 	c #97958C",
"= 	c #757266",
"- 	c #706D5F",
"; 	c #B9B9B4",
"> 	c #F1F1F2",
", 	c #F8F8F9",
"' 	c #CECDCA",
") 	c #848178",
"! 	c #4F4B3C",
"~ 	c #726F63",
"{ 	c #C8C9C4",
"] 	c #FCFCFC",
"^ 	c #FFFFFF",
"/ 	c #E7E6E5",
"( 	c #89867D",
"_ 	c #4F4C3B",
": 	c #737067",
"< 	c #CBCAC8",
"[ 	c #EBEBEA",
"} 	c #9D9D96",
"| 	c #545142",
"1 	c #726E64",
"2 	c #CDCBC7",
"3 	c #FDFEFD",
"4 	c #FEFFFF",
"5 	c #FDFAF9",
"6 	c #BDBCB7",
"7 	c #6F6C60",
"8 	c #575244",
"9 	c #A09A92",
"0 	c #E9E8E5",
"a 	c #EBFCFF",
"b 	c #E2F8FF",
"c 	c #F6FFFF",
"d 	c #EEE7E3",
"e 	c #A19A91",
"f 	c #5A5442",
"g 	c #666254",
"h 	c #B8B3AC",
"i 	c #EBF7F9",
"j 	c #ACE9FF",
"k 	c #73D4FF",
"l 	c #B1E7FF",
"m 	c #E2F3F9",
"n 	c #B6B0AA",
"o 	c #676051",
"p 	c #584B3F",
"q 	c #554A40",
"r 	c #433B36",
"s 	c #574636",
"t 	c #4A3E32",
"u 	c #453A2E",
"v 	c #676156",
"w 	c #A1A7A6",
"x 	c #B6DBE9",
"y 	c #61B3DB",
"z 	c #20A0E3",
"A 	c #58C1F4",
"B 	c #91DDFE",
"C 	c #B0C4C8",
"D 	c #8B8378",
"E 	c #605C50",
"F 	c #5E5142",
"G 	c #7A614A",
"H 	c #8A6B4D",
"I 	c #9E7951",
"J 	c #8F6C46",
"K 	c #86603A",
"L 	c #845D35",
"M 	c #735434",
"N 	c #614B37",
"O 	c #4F4032",
"P 	c #4A3B2E",
"Q 	c #4F4941",
"R 	c #655D54",
"S 	c #7E7E7A",
"T 	c #657D85",
"U 	c #487386",
"V 	c #2D6F90",
"W 	c #1C81B3",
"X 	c #3AA3D4",
"Y 	c #AFD9E7",
"Z 	c #B3B0AA",
"` 	c #756E61",
" .	c #6D5A46",
"..	c #896B4D",
"+.	c #A67C51",
"@.	c #B78450",
"#.	c #B27E48",
"$.	c #AA7540",
"%.	c #AA7542",
"&.	c #AE7946",
"*.	c #A27443",
"=.	c #91653A",
"-.	c #7A5734",
";.	c #70563B",
">.	c #7C6651",
",.	c #88735C",
"'.	c #977D62",
").	c #A3896E",
"!.	c #AA9276",
"~.	c #B0997A",
"{.	c #AF9576",
"].	c #9C8B75",
"^.	c #5D6C6D",
"/.	c #457789",
"(.	c #A8BDC1",
"_.	c #BBB8B2",
":.	c #6F685A",
"<.	c #715B46",
"[.	c #A27952",
"}.	c #B28251",
"|.	c #AE7B47",
"1.	c #A06C37",
"2.	c #9B6733",
"3.	c #9D6A36",
"4.	c #B07D4A",
"5.	c #BE8955",
"6.	c #B5804C",
"7.	c #936537",
"8.	c #795836",
"9.	c #9C7A56",
"0.	c #D1AA7F",
"a.	c #DEB383",
"b.	c #D7A878",
"c.	c #EEC08D",
"d.	c #E0B789",
"e.	c #E9C595",
"f.	c #FBD39F",
"g.	c #F7C896",
"h.	c #C9A17A",
"i.	c #AA9072",
"j.	c #A39785",
"k.	c #8C877F",
"l.	c #655F52",
"m.	c #494637",
"n.	c #444031",
"o.	c #433D39",
"p.	c #84674D",
"q.	c #B08051",
"r.	c #B17D48",
"s.	c #A26E3A",
"t.	c #9A6734",
"u.	c #9E6B38",
"v.	c #A4713D",
"w.	c #A87643",
"x.	c #AD7A46",
"y.	c #A3713F",
"z.	c #79552F",
"A.	c #785F42",
"B.	c #C29B74",
"C.	c #F7C996",
"D.	c #E7B27D",
"E.	c #DEA872",
"F.	c #CDA275",
"G.	c #AE9070",
"H.	c #B09676",
"I.	c #E9C497",
"J.	c #FFD29E",
"K.	c #F1BF8F",
"L.	c #EBB988",
"M.	c #BB956F",
"N.	c #8C7B6C",
"O.	c #6C6860",
"P.	c #656255",
"Q.	c #4D4A3E",
"R.	c #4A473B",
"S.	c #6F5B46",
"T.	c #A17952",
"U.	c #B37F4D",
"V.	c #AD7844",
"W.	c #A4723F",
"X.	c #A97643",
"Y.	c #AF7C49",
"Z.	c #A16E3B",
"`.	c #996633",
" +	c #9B6833",
".+	c #956330",
"++	c #6C4C29",
"@+	c #735C43",
"#+	c #C19D77",
"$+	c #FECB97",
"%+	c #F1BF8B",
"&+	c #DAA874",
"*+	c #C89A6D",
"=+	c #AB8B6B",
"-+	c #AF9272",
";+	c #EDC092",
">+	c #ECBE8F",
",+	c #B39273",
"'+	c #C7A079",
")+	c #C59C73",
"!+	c #997F67",
"~+	c #7B746D",
"{+	c #706E64",
"]+	c #413E2C",
"^+	c #4B493C",
"/+	c #504E45",
"(+	c #725C47",
"_+	c #B08152",
":+	c #B17B48",
"<+	c #AE7C49",
"[+	c #B27F4C",
"}+	c #B4814E",
"|+	c #AD7A47",
"1+	c #A26F3C",
"2+	c #9B6834",
"3+	c #8F5E2C",
"4+	c #704C27",
"5+	c #705841",
"6+	c #C19973",
"7+	c #FEC994",
"8+	c #FCCD99",
"9+	c #EEBD8A",
"0+	c #E5B17F",
"a+	c #DDB283",
"b+	c #EAC191",
"c+	c #FDCF9C",
"d+	c #E0B78A",
"e+	c #86715C",
"f+	c #6F6155",
"g+	c #B09376",
"h+	c #B8936F",
"i+	c #847466",
"j+	c #5D5A51",
"k+	c #423D2B",
"l+	c #4E4B40",
"m+	c #49473A",
"n+	c #313233",
"o+	c #86694F",
"p+	c #B88655",
"q+	c #B37D49",
"r+	c #B17E4B",
"s+	c #B68350",
"t+	c #BA8754",
"u+	c #B5824F",
"v+	c #744E27",
"w+	c #6E563E",
"x+	c #B9936E",
"y+	c #F5C391",
"z+	c #FFD19D",
"A+	c #FCCD9A",
"B+	c #FAC894",
"C+	c #FFD09B",
"D+	c #FFD39E",
"E+	c #FFD49E",
"F+	c #EAC091",
"G+	c #8D7966",
"H+	c #76787B",
"I+	c #978A7E",
"J+	c #A98867",
"K+	c #846C54",
"L+	c #69655E",
"M+	c #85837D",
"N+	c #4C493E",
"O+	c #514E44",
"P+	c #44402F",
"Q+	c #B28254",
"R+	c #B27D49",
"S+	c #A97745",
"T+	c #B78451",
"U+	c #B98653",
"V+	c #B3804D",
"W+	c #A36F3C",
"X+	c #78522B",
"Y+	c #6A533A",
"Z+	c #AA8A6A",
"`+	c #F5C291",
" @	c #FFCE9A",
".@	c #FFCD9A",
"+@	c #FFCE9B",
"@@	c #FFCD99",
"#@	c #FFD39D",
"$@	c #ECC08F",
"%@	c #9F8872",
"&@	c #797A7D",
"*@	c #908A84",
"=@	c #A6896B",
"-@	c #886E54",
";@	c #747573",
">@	c #908E85",
",@	c #4C3E2B",
"'@	c #575449",
")@	c #686660",
"!@	c #5B584C",
"~@	c #6E5A46",
"{@	c #B88757",
"]@	c #B88551",
"^@	c #A77442",
"/@	c #7D552C",
"(@	c #685038",
"_@	c #B18D69",
":@	c #F5C290",
"<@	c #FFCF9A",
"[@	c #FECC99",
"}@	c #FFCF9B",
"|@	c #F1C392",
"1@	c #988069",
"2@	c #5C5B5B",
"3@	c #A3917E",
"4@	c #CAA179",
"5@	c #866C52",
"6@	c #878885",
"7@	c #8D8A83",
"8@	c #643A2B",
"9@	c #5D1303",
"0@	c #642111",
"a@	c #464233",
"b@	c #65635D",
"c@	c #80807E",
"d@	c #6F6E66",
"e@	c #4B4837",
"f@	c #715C47",
"g@	c #AC7F53",
"h@	c #B5804B",
"i@	c #A87642",
"j@	c #AA7845",
"k@	c #AC7946",
"l@	c #A7713D",
"m@	c #7F542A",
"n@	c #6A5037",
"o@	c #A58364",
"p@	c #EEBD8C",
"q@	c #FFD19B",
"r@	c #FCCA97",
"s@	c #F2BE8B",
"t@	c #EEBD89",
"u@	c #F0C492",
"v@	c #F8CE9A",
"w@	c #F4C796",
"x@	c #9D8267",
"y@	c #83705E",
"z@	c #C8A480",
"A@	c #E9B686",
"B@	c #A48363",
"C@	c #76756F",
"D@	c #93938D",
"E@	c #70362A",
"F@	c #880901",
"G@	c #960F09",
"H@	c #851C12",
"I@	c #474336",
"J@	c #6C6B68",
"K@	c #919193",
"L@	c #716F67",
"M@	c #433E2B",
"N@	c #605142",
"O@	c #AE8155",
"P@	c #B47F4A",
"Q@	c #A87542",
"R@	c #A97744",
"S@	c #AA7744",
"T@	c #A67340",
"U@	c #7C5026",
"V@	c #654B32",
"W@	c #9A7D61",
"X@	c #F1BF8E",
"Y@	c #FDCD99",
"Z@	c #EDB986",
"`@	c #D9A674",
" #	c #C2986F",
".#	c #B89572",
"+#	c #D5AF86",
"@#	c #F2C495",
"##	c #D9B086",
"$#	c #CAA57F",
"%#	c #F4C493",
"&#	c #FAC48F",
"*#	c #A07C5B",
"=#	c #6D6B6A",
"-#	c #B5C1BD",
";#	c #99766E",
">#	c #9C211C",
",#	c #C20403",
"'#	c #BE0C08",
")#	c #971810",
"!#	c #632417",
"~#	c #542619",
"{#	c #444133",
"]#	c #6B6B67",
"^#	c #8D8E8F",
"/#	c #73716A",
"(#	c #535041",
"_#	c #5C4E41",
":#	c #A97E55",
"<#	c #B6814C",
"[#	c #AA7743",
"}#	c #A77441",
"|#	c #976431",
"1#	c #986430",
"2#	c #815529",
"3#	c #654C33",
"4#	c #9A7D5F",
"5#	c #E8BA8B",
"6#	c #FBC994",
"7#	c #E1AE7B",
"8#	c #CD9B6C",
"9#	c #B7916D",
"0#	c #9E856A",
"a#	c #BDA07E",
"b#	c #F8CC9C",
"c#	c #FBCD99",
"d#	c #FAC691",
"e#	c #A17E5D",
"f#	c #85807A",
"g#	c #C1D2D0",
"h#	c #B0B7B0",
"i#	c #873C33",
"j#	c #C00503",
"k#	c #EF0000",
"l#	c #DD0705",
"m#	c #AD0F09",
"n#	c #881910",
"o#	c #761F14",
"p#	c #3F4333",
"q#	c #666560",
"r#	c #8C8C8D",
"s#	c #7B7A75",
"t#	c #4E4A3A",
"u#	c #5A4D3E",
"v#	c #8C6D4F",
"w#	c #B68451",
"x#	c #AE7A46",
"y#	c #AB7744",
"z#	c #9F6C3A",
"A#	c #A4703C",
"B#	c #8F6133",
"C#	c #6F5032",
"D#	c #886C51",
"E#	c #D2A97E",
"F#	c #FBC892",
"G#	c #E1AD7A",
"H#	c #DFAB79",
"I#	c #E1B486",
"J#	c #E8BE90",
"K#	c #E8C496",
"L#	c #FCD19E",
"M#	c #FFD09D",
"N#	c #F1C08D",
"O#	c #AA8968",
"P#	c #776F65",
"Q#	c #979891",
"R#	c #7C7266",
"S#	c #8A2319",
"T#	c #DA0302",
"U#	c #FF0000",
"V#	c #F00201",
"W#	c #D50705",
"X#	c #AE110A",
"Y#	c #7D1C11",
"Z#	c #71180D",
"`#	c #4A2313",
" $	c #374334",
".$	c #646661",
"+$	c #8E8E8F",
"@$	c #7B7974",
"#$	c #4F4B3B",
"$$	c #444033",
"%$	c #6F5C4B",
"&$	c #A47A51",
"*$	c #B17E4A",
"=$	c #AB7845",
"-$	c #A87541",
";$	c #B07D49",
">$	c #7C5630",
",$	c #72563C",
"'$	c #B08C67",
")$	c #E9BA89",
"!$	c #F6C38E",
"~$	c #F8C692",
"{$	c #FCCB98",
"]$	c #FECF9B",
"^$	c #FFD29D",
"/$	c #FFCC99",
"($	c #FCCA96",
"_$	c #D6AC7E",
":$	c #826953",
"<$	c #60342F",
"[$	c #82342E",
"}$	c #981A15",
"|$	c #C10300",
"1$	c #F30000",
"2$	c #FC0000",
"3$	c #E70000",
"4$	c #B30905",
"5$	c #980F0A",
"6$	c #671609",
"7$	c #453223",
"8$	c #5C5C57",
"9$	c #828284",
"0$	c #77756F",
"a$	c #524E3F",
"b$	c #3C3C31",
"c$	c #5B5043",
"d$	c #957251",
"e$	c #B6824E",
"f$	c #A5723E",
"g$	c #AF7C48",
"h$	c #B3804C",
"i$	c #946738",
"j$	c #6F502F",
"k$	c #83684A",
"l$	c #C39E75",
"m$	c #F7CA95",
"n$	c #FFD6A0",
"o$	c #FFD19E",
"p$	c #FFCF9C",
"q$	c #FFD19C",
"r$	c #B2956F",
"s$	c #68493A",
"t$	c #820F0D",
"u$	c #C10000",
"v$	c #E00100",
"w$	c #F70000",
"x$	c #FE0000",
"y$	c #FA0000",
"z$	c #F70202",
"A$	c #EB0E0E",
"B$	c #E03234",
"C$	c #C94342",
"D$	c #863025",
"E$	c #502B1C",
"F$	c #4E4A41",
"G$	c #6B6B69",
"H$	c #68675D",
"I$	c #423E2B",
"J$	c #494739",
"K$	c #544E43",
"L$	c #987552",
"M$	c #B7834E",
"N$	c #B17C47",
"O$	c #B88552",
"P$	c #A4713E",
"Q$	c #AD7947",
"R$	c #BB8653",
"S$	c #AC7A47",
"T$	c #855C32",
"U$	c #735433",
"V$	c #967755",
"W$	c #BB9A75",
"X$	c #D6B287",
"Y$	c #F0C493",
"Z$	c #FCD29C",
"`$	c #FED39E",
" %	c #FDCE9A",
".%	c #FDD09A",
"+%	c #FBCD98",
"@%	c #D8AD80",
"#%	c #8F765A",
"$%	c #553C2F",
"%%	c #9E0D08",
"&%	c #FD0000",
"*%	c #F60101",
"=%	c #EB0606",
"-%	c #E32424",
";%	c #E76161",
">%	c #F1A7A7",
",%	c #E4BAB8",
"'%	c #AB8B84",
")%	c #71675B",
"!%	c #6A6A5F",
"~%	c #64635A",
"{%	c #504D40",
"]%	c #474437",
"^%	c #514C43",
"/%	c #8A6E53",
"(%	c #AE7F50",
"_%	c #B37E49",
":%	c #AE7947",
"<%	c #AC7945",
"[%	c #9B6836",
"}%	c #B78350",
"|%	c #B5814E",
"1%	c #A57341",
"2%	c #896035",
"3%	c #755637",
"4%	c #735B41",
"5%	c #876C52",
"6%	c #B28F6C",
"7%	c #BE9E7A",
"8%	c #D2AC83",
"9%	c #D8B085",
"0%	c #C6A27B",
"a%	c #D2A97D",
"b%	c #9C7F62",
"c%	c #575445",
"d%	c #4C382C",
"e%	c #9B120D",
"f%	c #EB0000",
"g%	c #F20404",
"h%	c #E81B1B",
"i%	c #E54A4B",
"j%	c #EC9090",
"k%	c #F5CCCE",
"l%	c #FFF8F9",
"m%	c #F8FFFE",
"n%	c #E5E8E6",
"o%	c #D8DBD8",
"p%	c #AEAFA9",
"q%	c #787468",
"r%	c #3E3928",
"s%	c #484336",
"t%	c #615545",
"u%	c #927150",
"v%	c #B4804E",
"w%	c #AE7945",
"x%	c #B17F4B",
"y%	c #B78452",
"z%	c #9B6835",
"A%	c #B07E4B",
"B%	c #BC8956",
"C%	c #BF8A56",
"D%	c #AD7A48",
"E%	c #8F6336",
"F%	c #7A532B",
"G%	c #705131",
"H%	c #70573E",
"I%	c #6D5842",
"J%	c #7F6449",
"K%	c #947A63",
"L%	c #9C8875",
"M%	c #97816A",
"N%	c #6B5F4F",
"O%	c #4E544B",
"P%	c #54443A",
"Q%	c #9E1914",
"R%	c #F20000",
"S%	c #FF0203",
"T%	c #F21113",
"U%	c #EE3A3B",
"V%	c #EF7A7B",
"W%	c #E7ADAD",
"X%	c #DCCBC9",
"Y%	c #CDCEC9",
"Z%	c #BEC0BB",
"`%	c #B8B8B2",
" &	c #BFBFB9",
".&	c #B5B5AD",
"+&	c #A4A098",
"@&	c #736F61",
"#&	c #464236",
"$&	c #7B6349",
"%&	c #A97D52",
"&&	c #B37F4A",
"*&	c #B6824D",
"=&	c #9B6837",
"-&	c #A16D3B",
";&	c #AF7C4A",
">&	c #BB8956",
",&	c #B17D49",
"'&	c #A06E3B",
")&	c #9D6832",
"!&	c #956534",
"~&	c #835B33",
"{&	c #64482A",
"]&	c #5A442E",
"^&	c #695B4C",
"/&	c #777570",
"(&	c #6D6B65",
"_&	c #54534B",
":&	c #5A6157",
"<&	c #61564D",
"[&	c #93221D",
"}&	c #D40403",
"|&	c #DE0403",
"1&	c #D81614",
"2&	c #D14544",
"3&	c #D18786",
"4&	c #DCC3C1",
"5&	c #C6C5BE",
"6&	c #96988D",
"7&	c #6C6E5E",
"8&	c #737165",
"9&	c #565342",
"0&	c #6D6A5A",
"a&	c #757264",
"b&	c #544E3E",
"c&	c #49483E",
"d&	c #73695B",
"e&	c #91775E",
"f&	c #A67A4F",
"g&	c #B88450",
"h&	c #B88451",
"i&	c #AC7641",
"j&	c #996532",
"k&	c #A6713E",
"l&	c #B5824E",
"m&	c #BE8B57",
"n&	c #B98551",
"o&	c #AC7742",
"p&	c #A56F39",
"q&	c #A26D38",
"r&	c #8A5D33",
"s&	c #76502C",
"t&	c #664C2F",
"u&	c #514739",
"v&	c #5C5A54",
"w&	c #656762",
"x&	c #66655F",
"y&	c #625F56",
"z&	c #5F6256",
"A&	c #5C544A",
"B&	c #6F2A1F",
"C&	c #82170C",
"D&	c #7D1A10",
"E&	c #7B281D",
"F&	c #7C5A4E",
"G&	c #868479",
"H&	c #7F867A",
"I&	c #838A7D",
"J&	c #6B6356",
"K&	c #7E644A",
"L&	c #99744F",
"M&	c #A47A4F",
"N&	c #A87340",
"O&	c #BB8651",
"P&	c #BB8853",
"Q&	c #AF7B48",
"R&	c #9C6A3A",
"S&	c #8B5E30",
"T&	c #83592E",
"U&	c #64462C",
"V&	c #4F3C2C",
"W&	c #454137",
"X&	c #4F4F44",
"Y&	c #59574E",
"Z&	c #5D5B52",
"`&	c #615F55",
" *	c #5F5C4F",
".*	c #575646",
"+*	c #3A2D1B",
"@*	c #54483D",
"#*	c #5E4E41",
"$*	c #725D46",
"%*	c #8A6949",
"&*	c #896644",
"**	c #835F3C",
"=*	c #996A39",
"-*	c #9D6D3A",
";*	c #885D33",
">*	c #714E2D",
",*	c #5C442D",
"'*	c #4D3D2C",
")*	c #443629",
"!*	c #4C4C3D",
"~*	c #565445",
"{*	c #555346",
"]*	c #504D3D",
"^*	c #524F40",
"                                                                                            ",
"                                                                                            ",
"                                                                                            ",
"                                                                                            ",
"                                                                                            ",
"                                                                                            ",
"                                                                                            ",
"                                                                                            ",
"                                                                                            ",
"                                                                                            ",
"                                                                                            ",
"                                                                                            ",
"                                                                                            ",
"                                                                                            ",
"                                                                                            ",
"                                        . + @ #                                             ",
"                                        $ % & * =                                           ",
"                                      - ; > , ' ) !                                         ",
"                                      ~ { ] ^ / ( _                                         ",
"                                      : < ] ^ [ } |                                         ",
"                                      1 2 3 4 5 6 7                                         ",
"                                    8 9 0 a b c d e f                                       ",
"                                    g h i j k l m n o                                       ",
"            p q r s t u             v w x y z A B C D E                                     ",
"        F G H I J K L M N O P     Q R S T U V W X Y Z `                                     ",
"       ...+.@.#.$.%.&.*.=.-.;.>.,.'.).!.~.{.].^./.(._.:.                                    ",
"    <.[.}.|.1.2.3.4.5.6.7.8.9.0.a.b.c.d.e.f.g.h.i.j.k.l.                            m.n.    ",
"  o.p.q.r.s.t.u.v.w.x.y.z.A.B.C.D.E.F.G.H.I.J.K.L.M.N.O.P.                          Q.R.    ",
"  S.T.U.V.W.X.Y.Z.`. +.+++@+#+$+%+&+*+=+-+;+>+,+'+)+!+~+{+                        ]+^+/+    ",
"  (+_+:+Y.<+[+}+|+1+2+3+4+5+6+7+8+9+0+a+b+c+d+e+f+g+h+i+j+                        k+l+m+    ",
"n+o+p+q+r+}+}+s+t+u+X.2+v+w+x+y+z+A+B+C+D+E+F+G+H+I+J+K+L+M+                        N+O+P+  ",
"  <.Q+R+S+r+T+t+t+U+V+W+X+Y+Z+`+ @.@+@@@@@#@$@%@&@*@=@-@;@>@,@                      '@)@!@  ",
"  ~@{@R+X.|+[+4.r+T+]@^@/@(@_@:@<@ @[@@@}@E+|@1@2@3@4@5@6@7@8@9@0@                a@b@c@d@e@",
"  f@g@h@i@j@|+X.k@u+s+l@m@n@o@p@q@r@s@t@u@v@w@x@y@z@A@B@C@D@E@F@G@H@              I@J@K@L@M@",
"  N@O@P@Q@R@S@S@S@S@T@2.U@V@W@X@Y@Z@`@ #.#+#@###$#%#&#*#=#-#;#>#,#'#)#!#~#        {#]#^#/#(#",
"  _#:#<#[#X.S@S@}#u.|#1#2#3#4#5#6#7#8#9#0#a#b#c#w@}@d#e#f#g#h#i#j#k#l#m#n#o#      p#q#r#s#t#",
"  u#v#w#x#y#S@S@}#z#Z.A#B#C#D#E#F#G#H#I#J#K#L#M#}@}@N#O#P#Q#R#S#T#U#U#V#W#X#Y#Z#`# $.$+$@$#$",
"  $$%$&$*$S@R@=$X.}#-$;$y.>$,$'$)$!$~${$]$^$z+.@/$($_$:$<$[$}$|$1$U#U#U#2$3$4$5$6$7$8$9$0$a$",
"  b$c$d$e$x.4.4.k@S@f$g$h$i$j$k$l$m$n$o$D+/$+@p$q$B+r$s$t$u$v$w$U#U#x$y$z$A$B$C$D$E$F$G$H$I$",
"  J$K$L$M$N$V+O$s+x.P$Q$R$S$T$U$V$W$X$Y$Z$`$ %.%+%@%#%$%%%k#x$U#U#&%*%=%-%;%>%,%'%)%!%~%{%  ",
"  ]%^%/%(%_%:%u+T+<%[%P$}%|%1%2%3%4%5%6%7%8%9%0%a%b%c%d%e%f%U#x$y$g%h%i%j%k%l%m%n%o%p%q%    ",
"  r%s%t%u%v%w%x%y%X.z%Z.A%B%C%D%E%F%G%H%I%J%K%L%M%N%O%P%Q%R%U#S%T%U%V%W%X%Y%Z%`% &.&+&@&    ",
"      #&$&%&&&*&U+g$=&-&;&>&B%,&'&)&!&~&{&]&^&/&(&_&:&<&[&}&|&1&2&3&4&5&6&7&8&9&0&a&b&      ",
"      c&d&e&f&g&h&i&j&k&l&m&n&o&p&q&r&s&t&u&v&w&x&y&z&A&B&C&D&E&F&G&H&I&                    ",
"        E J&K&L&M&;&N&R@O&P&Q&R&S&T&U&V&W&X&Y&Z&`& *.*      +*                              ",
"            @*#*$*%*&***=*-*;*>*,*'*)*    !*~*{*]*^*                                        "};
