/* XPM */
static char * playerOne06_xpm[] = {
"46 46 584 2",
"  	c None",
". 	c #39341F",
"+ 	c #36311C",
"@ 	c #706C5D",
"# 	c #3C3724",
"$ 	c #474338",
"% 	c #5D5B50",
"& 	c #717069",
"* 	c #59564A",
"= 	c #413D2B",
"- 	c #34301A",
"; 	c #433E2C",
"> 	c #CAC8C3",
", 	c #9A978F",
"' 	c #626058",
") 	c #72716F",
"! 	c #949496",
"~ 	c #90908F",
"{ 	c #7C7A75",
"] 	c #656257",
"^ 	c #4F4B3B",
"/ 	c #35311C",
"( 	c #8D8B7F",
"_ 	c #FFFFFF",
": 	c #ACB3AE",
"< 	c #424133",
"[ 	c #575651",
"} 	c #79797A",
"| 	c #868688",
"1 	c #939395",
"2 	c #909091",
"3 	c #8B8B8A",
"4 	c #69675E",
"5 	c #4F4B3C",
"6 	c #46422F",
"7 	c #BEBDB6",
"8 	c #F3F4F5",
"9 	c #726D61",
"0 	c #4A1F0C",
"a 	c #493B2D",
"b 	c #484C41",
"c 	c #5D5A55",
"d 	c #6F6F6F",
"e 	c #818183",
"f 	c #929395",
"g 	c #868684",
"h 	c #5C5A52",
"i 	c #35301A",
"j 	c #5E5A4A",
"k 	c #E0DFDC",
"l 	c #FAFFFF",
"m 	c #B7948D",
"n 	c #981B13",
"o 	c #581B0C",
"p 	c #213A23",
"q 	c #393420",
"r 	c #474438",
"s 	c #535047",
"t 	c #5E5C57",
"u 	c #59574A",
"v 	c #5D5C59",
"w 	c #504E45",
"x 	c #4E4C42",
"y 	c #413E2E",
"z 	c #332D19",
"A 	c #A2A097",
"B 	c #F8C3C3",
"C 	c #C41516",
"D 	c #7F160E",
"E 	c #3C3725",
"F 	c #312A12",
"G 	c #423D2C",
"H 	c #494638",
"I 	c #515047",
"J 	c #605F5D",
"K 	c #464335",
"L 	c #5F6352",
"M 	c #DCDDDA",
"N 	c #FBEDED",
"O 	c #E17C7C",
"P 	c #DC2020",
"Q 	c #C90000",
"R 	c #7B1B10",
"S 	c #38331E",
"T 	c #4A473A",
"U 	c #403B2A",
"V 	c #27200C",
"W 	c #A4A39A",
"X 	c #CCCCC7",
"Y 	c #F2CFD0",
"Z 	c #E68A8A",
"` 	c #D72222",
" .	c #F20000",
"..	c #F00000",
"+.	c #9B150C",
"@.	c #154028",
"#.	c #515644",
"$.	c #CAD0CB",
"%.	c #F7CDCE",
"&.	c #E07B7B",
"*.	c #E40000",
"=.	c #EB0000",
"-.	c #FF0100",
";.	c #FF0000",
">.	c #B80B07",
",.	c #57291A",
"'.	c #7A8376",
").	c #E6B9B9",
"!.	c #E34A4A",
"~.	c #DD1515",
"{.	c #F30000",
"].	c #C30805",
"^.	c #6C1D13",
"/.	c #3A3925",
"(.	c #AC726C",
"_.	c #E24F51",
":.	c #EB0607",
"<.	c #FA0000",
"[.	c #FE0000",
"}.	c #FD0000",
"|.	c #D60403",
"1.	c #4B2B1B",
"2.	c #542214",
"3.	c #BF1311",
"4.	c #FD0C0D",
"5.	c #F70000",
"6.	c #EF0000",
"7.	c #7E1F13",
"8.	c #2B3A24",
"9.	c #771D11",
"0.	c #FB0000",
"a.	c #E60000",
"b.	c #E90000",
"c.	c #B10E09",
"d.	c #5A2618",
"e.	c #4E2412",
"f.	c #B80803",
"g.	c #F90000",
"h.	c #BD0603",
"i.	c #85180D",
"j.	c #78170E",
"k.	c #BD0201",
"l.	c #A10C08",
"m.	c #4E2C1B",
"n.	c #4F3626",
"o.	c #762B25",
"p.	c #B40605",
"q.	c #CF0200",
"r.	c #AF0000",
"s.	c #5E3527",
"t.	c #838B81",
"u.	c #7B7D72",
"v.	c #8F1E17",
"w.	c #A80501",
"x.	c #4C2D1B",
"y.	c #4D493B",
"z.	c #535144",
"A.	c #626156",
"B.	c #55635B",
"C.	c #5B4137",
"D.	c #67281C",
"E.	c #910D06",
"F.	c #BC0000",
"G.	c #7E0100",
"H.	c #7E6E63",
"I.	c #E6F0EE",
"J.	c #D3D7D4",
"K.	c #675446",
"L.	c #77190F",
"M.	c #38230E",
"N.	c #5B584B",
"O.	c #575447",
"P.	c #666359",
"Q.	c #64675E",
"R.	c #4D4F41",
"S.	c #4A4F41",
"T.	c #383826",
"U.	c #5F281C",
"V.	c #9A7370",
"W.	c #96A79C",
"X.	c #FDFFFF",
"Y.	c #F5F4F6",
"Z.	c #99A69F",
"`.	c #84837B",
" +	c #514D3D",
".+	c #37321D",
"++	c #6B6961",
"@+	c #6C6B63",
"#+	c #565346",
"$+	c #6F6E67",
"%+	c #514E42",
"&+	c #4D564E",
"*+	c #4C4C42",
"=+	c #B7AB9F",
"-+	c #FFF6F1",
";+	c #FAF9F9",
">+	c #EAEBEC",
",+	c #CACAC9",
"'+	c #7D7B70",
")+	c #777670",
"!+	c #484433",
"~+	c #68665E",
"{+	c #534F41",
"]+	c #706F68",
"^+	c #625A4D",
"/+	c #7A685A",
"(+	c #707170",
"_+	c #617B80",
":+	c #68C6F0",
"<+	c #6FD2FF",
"[+	c #CEF2FF",
"}+	c #F2FCFF",
"|+	c #FAF4F2",
"1+	c #9C9991",
"2+	c #555143",
"3+	c #44402E",
"4+	c #605F54",
"5+	c #636157",
"6+	c #66645A",
"7+	c #767570",
"8+	c #5D5B51",
"9+	c #7B7A75",
"0+	c #574F3E",
"a+	c #648996",
"b+	c #338FBC",
"c+	c #2887B4",
"d+	c #0D90CD",
"e+	c #0093E6",
"f+	c #2BAFEE",
"g+	c #56CAFA",
"h+	c #A5E7FF",
"i+	c #E0F9FF",
"j+	c #F8F4F1",
"k+	c #CFCCC8",
"l+	c #9D9B94",
"m+	c #2D2712",
"n+	c #484534",
"o+	c #706F67",
"p+	c #5A5548",
"q+	c #5A574A",
"r+	c #646258",
"s+	c #4F4D3E",
"t+	c #5A503F",
"u+	c #4DA0C6",
"v+	c #0C98DC",
"w+	c #0084C6",
"x+	c #0079B2",
"y+	c #0074AC",
"z+	c #007FBD",
"A+	c #0189C9",
"B+	c #059FEC",
"C+	c #47BEF1",
"D+	c #C6F2FF",
"E+	c #C2C1BF",
"F+	c #534E3D",
"G+	c #484432",
"H+	c #2C2814",
"I+	c #686D64",
"J+	c #5D6056",
"K+	c #696C64",
"L+	c #68645A",
"M+	c #615B4F",
"N+	c #7A7B76",
"O+	c #47A3D0",
"P+	c #0093DD",
"Q+	c #0077AC",
"R+	c #0079B0",
"S+	c #0079AE",
"T+	c #0075A9",
"U+	c #0076B2",
"V+	c #0896DA",
"W+	c #A2E0FB",
"X+	c #E7FDFF",
"Y+	c #F6F8F5",
"Z+	c #DFD6D2",
"`+	c #B9AFA6",
" @	c #93938E",
".@	c #322C18",
"+@	c #6D291E",
"@@	c #60362D",
"#@	c #4E564B",
"$@	c #55594D",
"%@	c #485042",
"&@	c #656261",
"*@	c #73675E",
"=@	c #278EBC",
"-@	c #028ACC",
";@	c #0077AE",
">@	c #0078AF",
",@	c #007AB1",
"'@	c #007AB2",
")@	c #0079AF",
"!@	c #0078AE",
"~@	c #0181BD",
"{@	c #0E9BE3",
"]@	c #2FB7F5",
"^@	c #76D8FF",
"/@	c #C4F1FF",
"(@	c #FBFDFB",
"_@	c #C0BEBB",
":@	c #665F51",
"<@	c #2F2B1A",
"[@	c #BB0905",
"}@	c #BA0605",
"|@	c #801E16",
"1@	c #5B2212",
"2@	c #3C3827",
"3@	c #4B4D46",
"4@	c #6F5E4E",
"5@	c #6792A3",
"6@	c #2E99CC",
"7@	c #007BBB",
"8@	c #0076AD",
"9@	c #0078AC",
"0@	c #0076AA",
"a@	c #007AB5",
"b@	c #007FC1",
"c@	c #0391D8",
"d@	c #0FA7ED",
"e@	c #69D6FF",
"f@	c #AED9E9",
"g@	c #C8BCB2",
"h@	c #8D8B84",
"i@	c #524D3C",
"j@	c #2B361F",
"k@	c #7C1A10",
"l@	c #E40100",
"m@	c #CB0300",
"n@	c #980801",
"o@	c #612A1C",
"p@	c #959187",
"q@	c #D5E0E3",
"r@	c #71CDF2",
"s@	c #14A3EA",
"t@	c #008DD2",
"u@	c #007EBF",
"v@	c #0077AF",
"w@	c #0075AD",
"x@	c #0079B1",
"y@	c #0078B0",
"z@	c #0074A8",
"A@	c #0076AC",
"B@	c #0084C3",
"C@	c #07A6F4",
"D@	c #6AD2FF",
"E@	c #FFFFFC",
"F@	c #EFEFF2",
"G@	c #777467",
"H@	c #2E291A",
"I@	c #4E3423",
"J@	c #AB1D18",
"K@	c #E20000",
"L@	c #7B180F",
"M@	c #A0A096",
"N@	c #FFFDF9",
"O@	c #DBFAFF",
"P@	c #BAEBFF",
"Q@	c #66D0FE",
"R@	c #26B2F3",
"S@	c #0595DE",
"T@	c #0087CB",
"U@	c #209AD6",
"V@	c #0090DD",
"W@	c #007DB9",
"X@	c #0073A5",
"Y@	c #0099E9",
"Z@	c #5DC8FD",
"`@	c #E7FAFF",
" #	c #F9F5F4",
".#	c #CECFCD",
"+#	c #615D4F",
"@#	c #565244",
"##	c #7B7265",
"$#	c #CF5958",
"%#	c #D60404",
"&#	c #BE0000",
"*#	c #683326",
"=#	c #BAC2BA",
"-#	c #FEFDFD",
";#	c #CEF3FF",
">#	c #7FD9FF",
",#	c #5BC9F8",
"'#	c #C7EFFA",
")#	c #51CFFF",
"!#	c #2EB3ED",
"~#	c #0F9AE1",
"{#	c #0084CA",
"]#	c #008ED9",
"^#	c #009CED",
"/#	c #40BAFC",
"(#	c #B2E6FF",
"_#	c #FBFBFC",
":#	c #F1F2F4",
"<#	c #CECDCB",
"[#	c #7F7D72",
"}#	c #3F432F",
"|#	c #C3BBB5",
"1#	c #E97C7E",
"2#	c #E30A0A",
"3#	c #C40502",
"4#	c #564635",
"5#	c #B5D1CB",
"6#	c #F6F4F6",
"7#	c #CBCDCB",
"8#	c #E0E3E3",
"9#	c #F8F9F9",
"0#	c #FBF8F7",
"a#	c #FFFFFB",
"b#	c #ECFAFA",
"c#	c #CFF4FF",
"d#	c #A9E6FF",
"e#	c #25BCFF",
"f#	c #5ACBFF",
"g#	c #84DAFF",
"h#	c #A1E4FF",
"i#	c #E0F7FF",
"j#	c #FEFFFF",
"k#	c #BBB9B4",
"l#	c #5C5849",
"m#	c #727262",
"n#	c #EBDEDD",
"o#	c #DA6969",
"p#	c #CB0000",
"q#	c #F80000",
"r#	c #E10000",
"s#	c #8E2922",
"t#	c #7B7066",
"u#	c #5A4E3E",
"v#	c #66493D",
"w#	c #7E7469",
"x#	c #A9B0AB",
"y#	c #BEBCB9",
"z#	c #94928A",
"A#	c #BAB8B4",
"B#	c #D4D4D2",
"C#	c #B7B4AF",
"D#	c #DAD4D0",
"E#	c #FFF7EF",
"F#	c #CBEDF7",
"G#	c #CBE7F2",
"H#	c #EEF4F5",
"I#	c #FFFFFE",
"J#	c #FEFCFC",
"K#	c #F8F7F7",
"L#	c #FEFEFF",
"M#	c #D6D6D7",
"N#	c #5F5C4E",
"O#	c #97958A",
"P#	c #D45454",
"Q#	c #D00303",
"R#	c #B50400",
"S#	c #8C1009",
"T#	c #A60605",
"U#	c #860602",
"V#	c #482E1D",
"W#	c #37311C",
"X#	c #585345",
"Y#	c #393524",
"Z#	c #484533",
"`#	c #737064",
" $	c #3B3724",
".$	c #5D5A4C",
"+$	c #8A8478",
"@$	c #AFAAA2",
"#$	c #948C7F",
"$$	c #A2A099",
"%$	c #C4C3C0",
"&$	c #A09E96",
"*$	c #B5B4B1",
"=$	c #DBDBDB",
"-$	c #F0F0F1",
";$	c #E7E7E8",
">$	c #8A8880",
",$	c #342F1A",
"'$	c #585448",
")$	c #E1E0DD",
"!$	c #E19191",
"~$	c #CD0202",
"{$	c #DD0000",
"]$	c #A60A06",
"^$	c #7F1B10",
"/$	c #37321E",
"($	c #0B0600",
"_$	c #474231",
":$	c #4E4939",
"<$	c #373225",
"[$	c #443F32",
"}$	c #8C8A80",
"|$	c #999790",
"1$	c #565241",
"2$	c #918F84",
"3$	c #EDB6B6",
"4$	c #CC1010",
"5$	c #F40101",
"6$	c #D20603",
"7$	c #B60A06",
"8$	c #622617",
"9$	c #1C4027",
"0$	c #3A3522",
"a$	c #3E3925",
"b$	c #B7B5AD",
"c$	c #DE7F7F",
"d$	c #C70303",
"e$	c #EF0101",
"f$	c #A6120B",
"g$	c #42311E",
"h$	c #4F2818",
"i$	c #666254",
"j$	c #E8E8E6",
"k$	c #EDB8B8",
"l$	c #CF1E1E",
"m$	c #C20805",
"n$	c #A81009",
"o$	c #6C2114",
"p$	c #403A27",
"q$	c #ABA9A0",
"r$	c #FCFDFF",
"s$	c #D9E3DF",
"t$	c #EE9E9F",
"u$	c #C50D0E",
"v$	c #991009",
"w$	c #771B11",
"x$	c #353521",
"y$	c #524C3B",
"z$	c #D4D2CE",
"A$	c #C1C5C3",
"B$	c #76695E",
"C$	c #94251D",
"D$	c #9C0E09",
"E$	c #7B1B11",
"F$	c #98958A",
"G$	c #F0EFEF",
"H$	c #A0A19B",
"I$	c #32260F",
"J$	c #441D0B",
"K$	c #432916",
"L$	c #3A351F",
"M$	c #5A5646",
"N$	c #6E6D66",
"O$	c #5A5954",
"P$	c #4F5348",
"Q$	c #414739",
"R$	c #3A3623",
"S$	c #545247",
"T$	c #7F7F7F",
"U$	c #828284",
"V$	c #6E6D6C",
"W$	c #5B5A57",
"X$	c #494639",
"Y$	c #423F30",
"Z$	c #4A4636",
"`$	c #868785",
" %	c #969798",
".%	c #8F9091",
"+%	c #848588",
"@%	c #767576",
"#%	c #595751",
"$%	c #454234",
"%%	c #3B3522",
"&%	c #535041",
"*%	c #68675D",
"=%	c #7C7C78",
"-%	c #8D8C8D",
";%	c #959698",
">%	c #878787",
",%	c #636158",
"'%	c #433F2E",
")%	c #545043",
"!%	c #7D7C77",
"~%	c #898886",
"{%	c #5B584E",
"]%	c #5C5C5A",
"^%	c #515046",
"/%	c #433E2E",
"(%	c #2D270F",
"_%	c #423E2C",
":%	c #545042",
"<%	c #403C28",
"[%	c #403D2D",
"}%	c #4F4D43",
"|%	c #525047",
"1%	c #5C5B57",
"2%	c #403B2B",
"3%	c #4A483B",
"                                                                                            ",
"                                      . +                                                   ",
"                                @ # $ % & * = -                                             ",
"                              ; > , ' ) ! ~ { ] ^ /                                         ",
"                              ( _ : < [ } | 1 2 3 4 5                                       ",
"                            6 7 8 9 0 a b c d e f g h i                                     ",
"                            j k l m n o p q r s t u v w x y +                               ",
"                          z A _ _ B C D       E   F G H I J K                               ",
"                          L M N O P Q R                 S T U                               ",
"                      V W X Y Z `  ...+.@.                                                  ",
"                      #.$.%.&.*.=.-.;.>.,.                                                  ",
"                      '.).!.~.{.;.;.;.].^.                                                  ",
"                    /.(._.:.<.;.;.[.}.|.1.                                                  ",
"                    2.3.4.5.[.[.;.;.;.6.7.                                                  ",
"                  8.9.*.;.;.;.;.0. .a.b.c.d.                                                ",
"                  e.f.g.;.;.;.6.h.i.j.k.l.m.                                                ",
"                  n.o.p.q...0.r.s.t.u.v.w.x.                                                ",
"              y.z.A.B.C.D.E.F.G.H.I.J.K.L.M.                                                ",
"              N.O.P.Q.R.S.T.U.V.W.X.Y.Z.`. +                                                ",
"            .+++++@+#+$+%+&+*+=+-+l _ ;+>+,+'+                                              ",
"            O.)+!+~+{+]+^+/+(+_+:+<+[+}+_ |+1+2+3+                                          ",
"            4+5+6+7+8+9+0+a+b+c+d+e+f+g+h+i+j+k+l+m+                                        ",
"            n+o+p+q+r+s+t+u+v+w+x+y+z+A+B+C+D+_ E+F+G+H+                                    ",
"            I+J+K+L+4+M+N+O+P+Q+R+R+S+T+U+V+W+X+Y+Z+`+ @.@                                  ",
"            +@@@#@$@%@&@*@=@-@;@>@,@'@)@!@~@{@]@^@/@(@_@:@<@                                ",
"          m.[@}@|@1@2@3@4@5@6@7@8@9@>@,@,@0@a@b@c@d@e@f@g@h@i@                              ",
"        j@k@b.0.l@m@n@o@p@q@r@s@t@u@v@w@x@y@z@Q+A@B@C@D@E@F@G@H@                            ",
"        I@J@K@;.;.}.K@L@M@N@O@P@Q@R@S@T@U@V@W@x+X@'@Y@Z@`@ #.#h@+#@#                        ",
"        ##$#%#}.;.0.&#*#=#_ -#_ X.;#>#,#'#)#!#~#{#]#^#/#(#_ _#:#<#[#                        ",
"      }#|#1#2#<.;.0.3#4#5#6#7#8#9#_ 0#a#_ b#c#d#e#f#g#h#i#j#_ _ _ k#l#                      ",
"      m#n#o#p#q#[.;.r#s#t#u#v#w#x#y#z#A#B#C#D#E#F#G#H#I#J#K#_ _ L#M#N#                      ",
"      O#_ P#Q#q#;.;.5.R#S#T#U#V#W#X#Y#Z#`# $.$+$@$#$$$%$&$*$=$-$;$>$,$                      ",
"      '$)$!$~$<.;.;.;.;.{$]$^$                /$  ($_$:$<$[$`#}$|$1$                        ",
"      2$_ 3$4$5$;.[. .6$7$8$9$                                0$                            ",
"    a$b$X.c$d${.;.e$f$g$h$                                                                  ",
"    i$j$_ k$l$r#m$n$o$                                                                      ",
"  p$q$r$s$t$u$v$w$x$                                                                        ",
"  y$z$A$B$C$D$E$                                                                            ",
"  F$G$H$I$J$K$                                                                              ",
"  L$M$N$O$P$Q$R$                                                                            ",
"      S$T$U$V$W$X$Y$                                                                        ",
"    . Z$`$ %.%+%@%#%$%                                                                      ",
"      %%&%*%=%-%;%>%,%K S                                                                   ",
"          /$'%)%!%~%{%]%^%H /%                                                              ",
"              (%_%:%<%[%}%|%1%2%                                                            ",
"                          .+3%                                                              "};
