/* XPM */
static char * playerOne13_xpm[] = {
"46 46 783 2",
"  	c None",
". 	c #83592D",
"+ 	c #8C5E2F",
"@ 	c #7F5A34",
"# 	c #75583B",
"$ 	c #765C43",
"% 	c #765E46",
"& 	c #745E47",
"* 	c #6A5845",
"= 	c #635748",
"- 	c #503F2C",
"; 	c #5E452D",
"> 	c #785430",
", 	c #936638",
"' 	c #A2713F",
") 	c #9F7042",
"! 	c #966B41",
"~ 	c #986D43",
"{ 	c #9D7248",
"] 	c #9C744D",
"^ 	c #92704D",
"/ 	c #856A4F",
"( 	c #786956",
"_ 	c #696256",
": 	c #545141",
"< 	c #575446",
"[ 	c #555546",
"} 	c #4E5044",
"| 	c #5B432D",
"1 	c #6D4E2E",
"2 	c #7E5731",
"3 	c #956739",
"4 	c #AC7946",
"5 	c #B7834F",
"6 	c #B5814C",
"7 	c #AB7642",
"8 	c #A6713D",
"9 	c #AE7A45",
"0 	c #B68350",
"a 	c #B18150",
"b 	c #A67C52",
"c 	c #937658",
"d 	c #756551",
"e 	c #554F41",
"f 	c #575848",
"g 	c #5A5749",
"h 	c #5B594D",
"i 	c #5C5C51",
"j 	c #58574C",
"k 	c #504E42",
"l 	c #524534",
"m 	c #64492E",
"n 	c #795430",
"o 	c #906134",
"p 	c #9F6B38",
"q 	c #AC7643",
"r 	c #B98450",
"s 	c #C08C57",
"t 	c #B5814F",
"u 	c #A5723E",
"v 	c #A16C38",
"w 	c #AD7743",
"x 	c #B9844E",
"y 	c #B9854F",
"z 	c #B5824E",
"A 	c #A87C51",
"B 	c #896B4E",
"C 	c #655744",
"D 	c #494437",
"E 	c #3F3B2B",
"F 	c #5C5E51",
"G 	c #5F5E53",
"H 	c #62615A",
"I 	c #63645E",
"J 	c #5E5B53",
"K 	c #554B3D",
"L 	c #5B462D",
"M 	c #75512D",
"N 	c #8A5E31",
"O 	c #9B6633",
"P 	c #A56F38",
"Q 	c #B17B46",
"R 	c #BC8753",
"S 	c #BE8B57",
"T 	c #B3804E",
"U 	c #A2703E",
"V 	c #9C6937",
"W 	c #A67340",
"X 	c #B4814D",
"Y 	c #B4824D",
"Z 	c #B37E48",
"` 	c #B27E4A",
" .	c #A77A50",
"..	c #81674C",
"+.	c #5D5343",
"@.	c #484539",
"#.	c #717E70",
"$.	c #6F5F52",
"%.	c #6E3528",
"&.	c #791E11",
"*.	c #85170D",
"=.	c #80251C",
"-.	c #684A3F",
";.	c #5A5F54",
">.	c #5C6056",
",.	c #676762",
"'.	c #716E69",
").	c #6B6258",
"!.	c #62503D",
"~.	c #654B31",
"{.	c #755331",
"].	c #825B32",
"^.	c #865B2F",
"/.	c #906234",
"(.	c #A0703F",
"_.	c #B3804C",
":.	c #BB8754",
"<.	c #B68250",
"[.	c #A87543",
"}.	c #9E6B39",
"|.	c #A4713E",
"1.	c #B2804C",
"2.	c #B5824F",
"3.	c #B47F4C",
"4.	c #B68049",
"5.	c #B6824F",
"6.	c #9F7851",
"7.	c #73604B",
"8.	c #4E4B40",
"9.	c #8F988B",
"0.	c #9DA298",
"a.	c #A39088",
"b.	c #A9625D",
"c.	c #AE2D28",
"d.	c #BE100C",
"e.	c #C90906",
"f.	c #A71813",
"g.	c #6F3F36",
"h.	c #54594E",
"i.	c #5B5E53",
"j.	c #786E60",
"k.	c #8E7F6E",
"l.	c #917C68",
"m.	c #8D7258",
"n.	c #896C4F",
"o.	c #866A4D",
"p.	c #846747",
"q.	c #7A5C3E",
"r.	c #7A5938",
"s.	c #876038",
"t.	c #9B6D3E",
"u.	c #AC7A48",
"v.	c #B17D49",
"w.	c #A5723F",
"x.	c #A67441",
"y.	c #B07E4A",
"z.	c #B6824E",
"A.	c #B5804A",
"B.	c #B8824C",
"C.	c #AC7E51",
"D.	c #80664D",
"E.	c #534C3F",
"F.	c #404034",
"G.	c #5C5848",
"H.	c #757869",
"I.	c #9AA196",
"J.	c #B6B4AC",
"K.	c #CCAEAA",
"L.	c #DA8684",
"M.	c #E14B4B",
"N.	c #EA1A1A",
"O.	c #F70404",
"P.	c #F60000",
"Q.	c #C40E0B",
"R.	c #782D27",
"S.	c #4F493F",
"T.	c #676351",
"U.	c #9D8367",
"V.	c #BF9D7A",
"W.	c #CAA681",
"X.	c #CEA980",
"Y.	c #CBA67F",
"Z.	c #C4A27C",
"`.	c #B99873",
" +	c #A68867",
".+	c #987A58",
"++	c #876644",
"@+	c #7F5B37",
"#+	c #8E6438",
"$+	c #AA7945",
"%+	c #B5804C",
"&+	c #AE7845",
"*+	c #A87542",
"=+	c #B07D4A",
"-+	c #AF7D47",
";+	c #B47F49",
">+	c #AF7F4F",
",+	c #8D6D4E",
"'+	c #635443",
")+	c #454237",
"!+	c #868276",
"~+	c #98978D",
"{+	c #9E9F96",
"]+	c #A2A69C",
"^+	c #AEB2A9",
"/+	c #C8C0BA",
"(+	c #DBB2AF",
"_+	c #E98686",
":+	c #F14B4D",
"<+	c #F91E1F",
"[+	c #FE0506",
"}+	c #FF0000",
"|+	c #FE0000",
"1+	c #D40605",
"2+	c #821E17",
"3+	c #574738",
"4+	c #86765B",
"5+	c #CAA57B",
"6+	c #ECC18F",
"7+	c #F4C895",
"8+	c #F8CC98",
"9+	c #F9CE9B",
"0+	c #F6CD9A",
"a+	c #F2C997",
"b+	c #E7BF90",
"c+	c #D2AC7F",
"d+	c #AB8963",
"e+	c #806242",
"f+	c #7A5632",
"g+	c #96693B",
"h+	c #AC7846",
"i+	c #AE7B46",
"j+	c #AA7744",
"k+	c #AB7846",
"l+	c #AB7845",
"m+	c #AE7A46",
"n+	c #B27E4B",
"o+	c #A5794F",
"p+	c #82674C",
"q+	c #594D40",
"r+	c #888478",
"s+	c #A9A9A1",
"t+	c #CACDC8",
"u+	c #D0D5D1",
"v+	c #DFE3E0",
"w+	c #E9DDDB",
"x+	c #EBB8B7",
"y+	c #EC7D7D",
"z+	c #ED3C3E",
"A+	c #F21111",
"B+	c #FB0303",
"C+	c #FA0000",
"D+	c #D20000",
"E+	c #831711",
"F+	c #6D4C3B",
"G+	c #A88C6A",
"H+	c #E9BE8D",
"I+	c #FFD19B",
"J+	c #FFD39D",
"K+	c #FFD29E",
"L+	c #FFD49E",
"M+	c #FFD6A0",
"N+	c #FFD59F",
"O+	c #FDCE99",
"P+	c #F1C18E",
"Q+	c #D3AA7D",
"R+	c #A1805D",
"S+	c #7F5F40",
"T+	c #805A35",
"U+	c #98683A",
"V+	c #A7723F",
"W+	c #A4713D",
"X+	c #A26F3D",
"Y+	c #A77441",
"Z+	c #A97644",
"`+	c #AA7743",
" @	c #B17D46",
".@	c #97744F",
"+@	c #6E5A47",
"@@	c #625D4F",
"#@	c #848277",
"$@	c #9E9E96",
"%@	c #BCBCB6",
"&@	c #D8CDC8",
"*@	c #F0D1D0",
"=@	c #FAB6B7",
"-@	c #F57071",
";@	c #F02F2F",
">@	c #F30B0C",
",@	c #FB0101",
"'@	c #F70000",
")@	c #DE0100",
"!@	c #B30706",
"~@	c #7D211B",
"{@	c #7E5743",
"]@	c #C09D75",
"^@	c #F7CA95",
"/@	c #FFD29D",
"(@	c #FFD19D",
"_@	c #FBCF9B",
":@	c #F5CA97",
"<@	c #F2C391",
"[@	c #F0BD89",
"}@	c #F1BD89",
"|@	c #EEBE8B",
"1@	c #CBA47A",
"2@	c #937556",
"3@	c #725336",
"4@	c #83582F",
"5@	c #996733",
"6@	c #9E6B36",
"7@	c #AA7644",
"8@	c #A97643",
"9@	c #B6824C",
"0@	c #A67C50",
"a@	c #7C634A",
"b@	c #575548",
"c@	c #696860",
"d@	c #6F6C62",
"e@	c #786458",
"f@	c #A97269",
"g@	c #D36E6D",
"h@	c #E75657",
"i@	c #F22626",
"j@	c #F90405",
"k@	c #FD0000",
"l@	c #F40000",
"m@	c #D00403",
"n@	c #AB1B17",
"o@	c #8E3631",
"p@	c #72423B",
"q@	c #8F7158",
"r@	c #D3AD80",
"s@	c #FACD98",
"t@	c #FFD19C",
"u@	c #FFD09C",
"v@	c #FACF9C",
"w@	c #E8C295",
"x@	c #D2AD86",
"y@	c #CAA179",
"z@	c #D6A475",
"A@	c #E5B17D",
"B@	c #F7C48F",
"C@	c #E6BA8C",
"D@	c #A38464",
"E@	c #73573B",
"F@	c #76502A",
"G@	c #905F2D",
"H@	c #A97543",
"I@	c #A87643",
"J@	c #B37E49",
"K@	c #AD7E50",
"L@	c #83684B",
"M@	c #534A3F",
"N@	c #4A4634",
"O@	c #5E5D53",
"P@	c #676863",
"Q@	c #57524B",
"R@	c #4F3123",
"S@	c #75281C",
"T@	c #A6241F",
"U@	c #C41614",
"V@	c #DC0806",
"W@	c #E50101",
"X@	c #AF1C16",
"Y@	c #91564E",
"Z@	c #887E78",
"`@	c #7F7A70",
" #	c #9B8368",
".#	c #D9AE7F",
"+#	c #FFD09A",
"@#	c #FDCF9C",
"##	c #F9CB99",
"$#	c #F6CA99",
"%#	c #D7B48B",
"&#	c #B79777",
"*#	c #B7906D",
"=#	c #C99A6E",
"-#	c #E3B07D",
";#	c #F9C590",
">#	c #F0C090",
",#	c #B89471",
"'#	c #7D6045",
")#	c #714D2A",
"!#	c #915F2F",
"~#	c #AB7542",
"{#	c #AF7C49",
"]#	c #AC7A46",
"^#	c #AB7946",
"/#	c #B17B47",
"(#	c #B18050",
"_#	c #93724F",
":#	c #625344",
"<#	c #534F40",
"[#	c #6C6B62",
"}#	c #7A7C7A",
"|#	c #666562",
"1#	c #4B3D30",
"2#	c #551E10",
"3#	c #7D1106",
"4#	c #9A0E07",
"5#	c #B40C06",
"6#	c #CB0A06",
"7#	c #DA0704",
"8#	c #F20302",
"9#	c #D80302",
"0#	c #A72822",
"a#	c #93766D",
"b#	c #A4B3AE",
"c#	c #99A59F",
"d#	c #9A856E",
"e#	c #D9AA7B",
"f#	c #FBCB94",
"g#	c #E7BD8F",
"h#	c #DDB389",
"i#	c #E7BC8F",
"j#	c #DFB88C",
"k#	c #CDA87F",
"l#	c #CEA47A",
"m#	c #DDAD7C",
"n#	c #EFBC88",
"o#	c #FDCC97",
"p#	c #F8C996",
"q#	c #C8A079",
"r#	c #84674B",
"s#	c #73502F",
"t#	c #936335",
"u#	c #B07B47",
"v#	c #B98551",
"w#	c #B27F4C",
"x#	c #B2804D",
"y#	c #B17E4B",
"z#	c #AD7946",
"A#	c #B17C48",
"B#	c #9D7751",
"C#	c #555141",
"D#	c #6F6C64",
"E#	c #878686",
"F#	c #747776",
"G#	c #4D5043",
"H#	c #3C321F",
"I#	c #891A11",
"J#	c #911910",
"K#	c #9E150D",
"L#	c #BB0F09",
"M#	c #D10906",
"N#	c #CA0504",
"O#	c #AA1A16",
"P#	c #9A625A",
"Q#	c #A6A39E",
"R#	c #8F9794",
"S#	c #95826E",
"T#	c #CFA277",
"U#	c #E8B889",
"V#	c #BD9D7B",
"W#	c #A1876C",
"X#	c #C8A37D",
"Y#	c #EFC593",
"Z#	c #F4CB97",
"`#	c #F1C490",
" $	c #F5C490",
".$	c #FBCA96",
"+$	c #FCCD99",
"@$	c #D3A97F",
"#$	c #927354",
"$$	c #725434",
"%$	c #885E33",
"&$	c #AB7745",
"*$	c #B98753",
"=$	c #B98653",
"-$	c #B68451",
";$	c #B4804E",
">$	c #AF7C4A",
",$	c #B27D49",
"'$	c #B7824F",
")$	c #A17850",
"!$	c #775F49",
"~$	c #4F4A39",
"{$	c #6D6960",
"]$	c #848280",
"^$	c #7A7B78",
"/$	c #585A51",
"($	c #3B422F",
"_$	c #652417",
":$	c #841D12",
"<$	c #9F160E",
"[$	c #AD0A05",
"}$	c #970C06",
"|$	c #883128",
"1$	c #8B6C65",
"2$	c #888984",
"3$	c #8E8271",
"4$	c #B48F6C",
"5$	c #C69E7A",
"6$	c #988473",
"7$	c #807265",
"8$	c #BA9A79",
"9$	c #F0C794",
"0$	c #FFD59E",
"a$	c #FECF9A",
"b$	c #FFCF9C",
"c$	c #FCCD9A",
"d$	c #DFB386",
"e$	c #9E7D5E",
"f$	c #6C5237",
"g$	c #7D562C",
"h$	c #A06D3B",
"i$	c #AF7C48",
"j$	c #B88552",
"k$	c #B88551",
"l$	c #B4814E",
"m$	c #B07D4B",
"n$	c #B57F4D",
"o$	c #A27950",
"p$	c #676359",
"q$	c #807F7B",
"r$	c #828281",
"s$	c #605F58",
"t$	c #454334",
"u$	c #7B0F03",
"v$	c #671C0E",
"w$	c #735145",
"x$	c #82807B",
"y$	c #847D72",
"z$	c #9E8164",
"A$	c #AD9175",
"B$	c #8B8078",
"C$	c #7D7773",
"D$	c #AC937A",
"E$	c #EAC090",
"F$	c #FFD49D",
"G$	c #FECD99",
"H$	c #FECE9B",
"I$	c #EABD8E",
"J$	c #AB8868",
"K$	c #75593D",
"L$	c #765129",
"M$	c #92612F",
"N$	c #A36F3A",
"O$	c #AF7B48",
"P$	c #B47F4D",
"Q$	c #9D754E",
"R$	c #765F49",
"S$	c #5F5B4F",
"T$	c #7D7C78",
"U$	c #80807F",
"V$	c #65635D",
"W$	c #4B483A",
"X$	c #4D2512",
"Y$	c #685A4B",
"Z$	c #7B7B73",
"`$	c #7F776C",
" %	c #8E765F",
".%	c #A0866D",
"+%	c #8F8479",
"@%	c #757371",
"#%	c #9C8A76",
"$%	c #E0B88B",
"%%	c #FED29C",
"&%	c #F6CC99",
"*%	c #EEBF8E",
"=%	c #EEBC8A",
"-%	c #F5C38F",
";%	c #FDCD97",
">%	c #F4C693",
",%	c #C09A74",
"'%	c #816447",
")%	c #6F4E2B",
"!%	c #895B2A",
"~%	c #9B6933",
"{%	c #9E6C38",
"]%	c #A4703D",
"^%	c #A87340",
"/%	c #A3703E",
"(%	c #A7723E",
"_%	c #B07B46",
":%	c #B07F4F",
"<%	c #95714E",
"[%	c #6A5846",
"}%	c #595545",
"|%	c #706E67",
"1%	c #75736F",
"2%	c #64635B",
"3%	c #6F6F66",
"4%	c #716C63",
"5%	c #85715F",
"6%	c #A7886B",
"7%	c #9D8771",
"8%	c #807365",
"9%	c #977F66",
"0%	c #D1AB82",
"a%	c #EEC493",
"b%	c #E0B88C",
"c%	c #CAA37A",
"d%	c #CEA073",
"e%	c #E4B07C",
"f%	c #F4C18C",
"g%	c #FAC895",
"h%	c #CBA47C",
"i%	c #856B4E",
"j%	c #745331",
"k%	c #906132",
"l%	c #A4713C",
"m%	c #A77340",
"n%	c #A16D38",
"o%	c #A16C36",
"p%	c #A6723D",
"q%	c #A77C51",
"r%	c #876A4D",
"s%	c #615E53",
"t%	c #65635C",
"u%	c #646157",
"v%	c #7E7062",
"w%	c #A2856C",
"x%	c #B18F70",
"y%	c #B18F6E",
"z%	c #BE9A76",
"A%	c #DBB288",
"B%	c #EBC292",
"C%	c #CCAA83",
"D%	c #B39271",
"E%	c #C2996E",
"F%	c #DBA875",
"G%	c #EEBA83",
"H%	c #EFBE8B",
"I%	c #C7A177",
"J%	c #90704E",
"K%	c #825E37",
"L%	c #A1703F",
"M%	c #B8814C",
"N%	c #B47E4A",
"O%	c #AA743F",
"P%	c #A6703A",
"Q%	c #A9743E",
"R%	c #93714F",
"S%	c #78614A",
"T%	c #504D3E",
"U%	c #504E43",
"V%	c #4D4A3F",
"W%	c #494637",
"X%	c #626155",
"Y%	c #736C62",
"Z%	c #8F7B69",
"`%	c #B0906F",
" &	c #D0A478",
".&	c #E2B384",
"+&	c #F9C694",
"@&	c #DCB98C",
"#&	c #C5A47D",
"$&	c #D0A77B",
"%&	c #DAAB7B",
"&&	c #D9AD7C",
"*&	c #D0A97C",
"=&	c #AF8C65",
"-&	c #886744",
";&	c #855E37",
">&	c #AF7B47",
",&	c #AA7845",
"'&	c #A97A4B",
")&	c #9F774F",
"!&	c #896C4D",
"~&	c #725E49",
"{&	c #4A483B",
"]&	c #4C493D",
"^&	c #69665C",
"/&	c #80776B",
"(&	c #A5917B",
"_&	c #BDA283",
":&	c #C0A17E",
"<&	c #D7AE83",
"[&	c #E6BB8C",
"}&	c #DEB98B",
"|&	c #CCAD84",
"1&	c #C3A17C",
"2&	c #BC9974",
"3&	c #AA8C6A",
"4&	c #967C60",
"5&	c #7D654B",
"6&	c #6B5137",
"7&	c #715134",
"8&	c #825D39",
"9&	c #8C653C",
"0&	c #8D653B",
"a&	c #8A653E",
"b&	c #8C6A46",
"c&	c #896B4C",
"d&	c #80654C",
"e&	c #655545",
"f&	c #4B493B",
"g&	c #5F5A4C",
"h&	c #827D72",
"i&	c #A0A098",
"j&	c #95A5A5",
"k&	c #648186",
"l&	c #788079",
"m&	c #908E7F",
"n&	c #958F7D",
"o&	c #9B917E",
"p&	c #918271",
"q&	c #7E6D5D",
"r&	c #706050",
"s&	c #524133",
"t&	c #5D4835",
"u&	c #624C34",
"v&	c #614B34",
"w&	c #624D38",
"x&	c #5E4D3E",
"y&	c #5A4E42",
"z&	c #4A4739",
"A&	c #4C483C",
"B&	c #4C483B",
"C&	c #908A7F",
"D&	c #AAB3B1",
"E&	c #8DC0D4",
"F&	c #4597BC",
"G&	c #3484AA",
"H&	c #3C81A0",
"I&	c #5E90A4",
"J&	c #7F99A0",
"K&	c #858885",
"L&	c #676159",
"M&	c #494536",
"N&	c #877F71",
"O&	c #A1A5A0",
"P&	c #9CC4D4",
"Q&	c #7BC9EF",
"R&	c #58BCEF",
"S&	c #3FAEE4",
"T&	c #7BC3E3",
"U&	c #B8D6E1",
"V&	c #A4A9A6",
"W&	c #757065",
"X&	c #8B8377",
"Y&	c #ADB5B3",
"Z&	c #BFE0EF",
"`&	c #9FE3FF",
" *	c #84DCFF",
".*	c #B7ECFE",
"+*	c #DAE9EA",
"@*	c #B7B4AC",
"#*	c #797365",
"$*	c #716756",
"%*	c #A59C91",
"&*	c #D5D3CF",
"**	c #E6F6F7",
"=*	c #E9FFFF",
"-*	c #ECFCFD",
";*	c #E1E4E1",
">*	c #ABA69E",
",*	c #686255",
"'*	c #827B6F",
")*	c #B8B2AA",
"!*	c #EFEAE7",
"~*	c #FFFFFF",
"{*	c #FFFFFE",
"]*	c #DEDDDB",
"^*	c #9E9A93",
"/*	c #5F5B4E",
"(*	c #919086",
"_*	c #CDCBC7",
":*	c #F6F6F5",
"<*	c #E4E3E0",
"[*	c #A4A29B",
"}*	c #666255",
"|*	c #716E63",
"1*	c #AEADA6",
"2*	c #EBEBE8",
"3*	c #FEFEFE",
"4*	c #E5E5E2",
"5*	c #A9A79F",
"6*	c #716D60",
"7*	c #656155",
"8*	c #9E9C94",
"9*	c #D2D1CC",
"0*	c #E4E4E2",
"a*	c #CBCAC6",
"b*	c #A2A098",
"c*	c #8A887E",
"d*	c #A19F98",
"e*	c #949189",
"f*	c #87857A",
"g*	c #615D4F",
"h*	c #5D5849",
"                                                                                            ",
"                                                                                            ",
"                                                                                            ",
"                                                                                            ",
"                                                                                            ",
"                                                                                            ",
"                                                                                            ",
"                                                                                            ",
"                                                                                            ",
"                                                                                            ",
"                                                                                            ",
"                                                                                            ",
"                                                                                            ",
"                                                            . + @ # $ % & * =               ",
"                                                      - ; > , ' ) ! ~ { ] ^ / ( _           ",
"                                        : < [ }     | 1 2 3 4 5 6 7 8 9 0 a b c d e         ",
"                                    f g h i j k l m n o p q r s t u v w x y z A B C D E     ",
"                                    F G H I J K L M N O P Q R S T U V W X Y Z `  ...+.@.    ",
"                      #.$.%.&.*.=.-.;.>.,.'.).!.~.{.].^./.(._.:.<.[.}.|.1.2.3.4.5.6.7.8.    ",
"                  9.0.a.b.c.d.e.f.g.h.i.j.k.l.m.n.o.p.q.r.s.t.u.5 v.w.x.y.5.z.A.B.C.D.E.F.  ",
"            G.H.I.J.K.L.M.N.O.P.Q.R.S.T.U.V.W.X.Y.Z.`. +.+++@+#+$+%+&+*+4 =+y.-+;+>+,+'+)+  ",
"      !+~+{+]+^+/+(+_+:+<+[+}+|+1+2+3+4+5+6+7+8+9+0+a+b+c+d+e+f+g+h+i+*+*+j+k+l+m+n+o+p+q+  ",
"    r+s+t+u+v+w+x+y+z+A+B+}+}+C+D+E+F+G+H+I+J+K+L+M+N+O+P+Q+R+S+T+U+V+W+X+Y+j+Z+`+ @2..@+@  ",
"  @@#@$@%@&@*@=@-@;@>@,@}+}+'@)@!@~@{@]@^@/@(@K+_@:@<@[@}@|@1@2@3@4@5@6@}.W 7@8@8@9 9@0@a@  ",
"  b@c@d@e@f@g@h@i@j@k@}+}+l@m@n@o@p@q@r@s@t@u@v@w@x@y@z@A@B@C@D@E@F@G@v W H@8@j+I@`+J@K@L@M@",
"N@O@P@Q@R@S@T@U@V@P.k@}+|+W@X@Y@Z@`@ #.#+#@###$#%#&#*#=#-#;#>#,#'#)#!#~#n+{#]#]#^#j+/#(#_#:#",
"<#[#}#|#1#2#3#4#5#6#7#8#'@9#0#a#b#c#d#e#f#g#h#i#j#k#l#m#n#o#p#q#r#s#t#u#v#2.w#x#y#z#A#0 B#* ",
"C#D#E#F#G#H#    I#J#K#L#M#N#O#P#Q#R#S#T#U#V#W#X#Y#Z#`# $.$t@+$@$#$$$%$&$v#*$=$-$;$>$,$'$)$!$",
"~${$]$^$/$($        _$:$<$[$}$|$1$2$3$4$5$6$7$8$9$0$t@a$b$(@c$d$e$f$g$h$i$2.j$k$l$m$,$n$o$!$",
"  p$q$r$s$t$              *.u$v$w$x$y$z$A$B$C$D$E$0$F$+#G$H$t@I$J$K$L$M$N$x.O$w#m$z#u#P$Q$R$",
"  S$T$U$V$W$                  X$Y$Z$`$ %.%+%@%#%$%%%&%*%=%-%;%>%,%'%)%!%~%{%]%^%/%(%_%:%<%[%",
"  }%|%1%2%                        3%4%5%6%7%8%9%0%a%b%c%d%e%f%g%h%i%j%k%l%m%W+n%o%p%>$q%r%  ",
"    s%t%j                           u%v%w%x%y%z%A%B%C%D%E%F%G%H%I%J%K%L%M%N%O%P%Q%4 o+R%S%  ",
"    T%U%V%W%                        X%Y%Z%`% &.&+&8+@&#&$&%&&&*&=&-&;&(.,$>&8@,&'&)&!&~&    ",
"      {&]&W%                          ^&/&(&_&:&<&[&}&|&1&2&3&4&5&6&7&8&9&0&a&b&c&d&e&      ",
"      ]&V%f&                          g&h&i&j&k&l&m&n&o&p&q&r&    1#s&t&u&v&w&x&y&          ",
"      z&A&B&                            C&D&E&F&G&H&I&J&K&L&                                ",
"        M&                              N&O&P&Q&R&S&T&U&V&W&                                ",
"                                          X&Y&Z&`& *.*+*@*#*                                ",
"                                          $*%*&***=*-*;*>*,*                                ",
"                                            '*)*!*~*{*]*^*/*                                ",
"                                              (*_*:*~*<*[*}*                                ",
"                                              |*1*2*3*4*5*6*                                ",
"                                              7*8*9*0*a*b*                                  ",
"                                                c*b*d*e*f*                                  ",
"                                                    g*h*                                    "};
