/* XPM */
static char * playerOne06_xpm[] = {
"46 46 767 2",
"  	c None",
". 	c #443F2D",
"+ 	c #6A675A",
"@ 	c #858378",
"# 	c #7F7C71",
"$ 	c #848278",
"% 	c #ADABA6",
"& 	c #C5C4C0",
"* 	c #B4B2AD",
"= 	c #77746A",
"- 	c #494635",
"; 	c #B3B3AE",
"> 	c #F3F3F4",
", 	c #FFFFFF",
"' 	c #E8E7E6",
") 	c #98968E",
"! 	c #5F5C4E",
"~ 	c #4A4638",
"{ 	c #474436",
"] 	c #696657",
"^ 	c #B0B0A9",
"/ 	c #F0F0EF",
"( 	c #FAFAFA",
"_ 	c #CDCDCA",
": 	c #919088",
"< 	c #5F5C4F",
"[ 	c #4D4A3D",
"} 	c #4E4B41",
"| 	c #4C493D",
"1 	c #5C5849",
"2 	c #908E86",
"3 	c #DCDCDB",
"4 	c #FCF9F8",
"5 	c #D6D1CC",
"6 	c #A39C93",
"7 	c #6B6454",
"8 	c #464333",
"9 	c #4D4B3F",
"0 	c #49473A",
"a 	c #6F6C63",
"b 	c #C2C0BC",
"c 	c #F7F8F7",
"d 	c #F7FFFF",
"e 	c #F3FFFF",
"f 	c #F3F9FB",
"g 	c #D7D5D2",
"h 	c #9A9389",
"i 	c #6E6557",
"j 	c #423D2B",
"k 	c #4D4A3F",
"l 	c #4D4A40",
"m 	c #676257",
"n 	c #B7B3AC",
"o 	c #EFF6F6",
"p 	c #C7F3FF",
"q 	c #8BDDFF",
"r 	c #A6E3FF",
"s 	c #B4E8FE",
"t 	c #B0C5CA",
"u 	c #A19D96",
"v 	c #7D766A",
"w 	c #4A4639",
"x 	c #58554C",
"y 	c #66645D",
"z 	c #615F54",
"A 	c #666154",
"B 	c #B8B3AB",
"C 	c #ECF7F9",
"D 	c #95DBF7",
"E 	c #30ADED",
"F 	c #3DAFE8",
"G 	c #47B3E7",
"H 	c #84CAE7",
"I 	c #BFCECF",
"J 	c #A19B91",
"K 	c #5D5647",
"L 	c #5F5D54",
"M 	c #7E7E7C",
"N 	c #75746E",
"O 	c #4C4837",
"P 	c #9C9992",
"Q 	c #BED4DA",
"R 	c #7AB3CD",
"S 	c #317BA1",
"T 	c #287296",
"U 	c #2A7395",
"V 	c #4D859B",
"W 	c #AAB5B3",
"X 	c #9A968F",
"Y 	c #676154",
"Z 	c #5C5A52",
"` 	c #838383",
" .	c #888786",
"..	c #666358",
"+.	c #706C65",
"@.	c #808787",
"#.	c #677A7D",
"$.	c #808075",
"%.	c #9D8B75",
"&.	c #8E806D",
"*.	c #998971",
"=.	c #AC967C",
"-.	c #978674",
";.	c #786F66",
">.	c #6E6B63",
",.	c #656357",
"'.	c #4D493E",
").	c #71716F",
"!.	c #8D8E8E",
"~.	c #797772",
"{.	c #534F40",
"].	c #4B463F",
"^.	c #736658",
"/.	c #998772",
"(.	c #B69C7B",
"_.	c #DCB88B",
":.	c #F9CD9A",
"<.	c #F2C18F",
"[.	c #EAB888",
"}.	c #E0B081",
"|.	c #B8926D",
"1.	c #927B67",
"2.	c #7D746C",
"3.	c #625F55",
"4.	c #514F42",
"5.	c #403E2E",
"6.	c #5E5D56",
"7.	c #838282",
"8.	c #888785",
"9.	c #484432",
"0.	c #43372D",
"a.	c #423932",
"b.	c #625649",
"c.	c #87725B",
"d.	c #AF8F6F",
"e.	c #D8B186",
"f.	c #E1BA8C",
"g.	c #DDBB8F",
"h.	c #F2CB9B",
"i.	c #FCCF9B",
"j.	c #CEA57F",
"k.	c #C49E78",
"l.	c #BC9873",
"m.	c #BA9571",
"n.	c #977E67",
"o.	c #6D6357",
"p.	c #75736E",
"q.	c #7B776B",
"r.	c #39321C",
"s.	c #465044",
"t.	c #70716E",
"u.	c #8C8B8D",
"v.	c #76746E",
"w.	c #504C3C",
"x.	c #473D35",
"y.	c #4B3F33",
"z.	c #594530",
"A.	c #5F4A35",
"B.	c #5D4835",
"C.	c #634B32",
"D.	c #715941",
"E.	c #9E8265",
"F.	c #CDA77B",
"G.	c #DCAB79",
"H.	c #E0B382",
"I.	c #B19271",
"J.	c #A58C6F",
"K.	c #DEB68C",
"L.	c #F2C392",
"M.	c #B39372",
"N.	c #736354",
"O.	c #81756A",
"P.	c #A78F77",
"Q.	c #A28160",
"R.	c #816B55",
"S.	c #757675",
"T.	c #8F8D84",
"U.	c #613F2F",
"V.	c #621506",
"W.	c #7F1309",
"X.	c #881910",
"Y.	c #891C13",
"Z.	c #702216",
"`.	c #5F2417",
" +	c #692116",
".+	c #4D2212",
"++	c #3E3828",
"@+	c #585751",
"#+	c #767677",
"$+	c #72716C",
"%+	c #4F4C3C",
"&+	c #4A433D",
"*+	c #4F443C",
"=+	c #6A523B",
"-+	c #805C37",
";+	c #8E6338",
">+	c #91693E",
",+	c #906439",
"'+	c #7C5935",
")+	c #947350",
"!+	c #DAB184",
"~+	c #EAB884",
"{+	c #E1AA74",
"]+	c #D0A06F",
"^+	c #B58F6A",
"/+	c #B39371",
"(+	c #E4BB8E",
"_+	c #FACD9A",
":+	c #D4AE85",
"<+	c #857464",
"[+	c #787B7F",
"}+	c #8F8983",
"|+	c #A78B6F",
"1+	c #8E7154",
"2+	c #837E76",
"3+	c #8D908C",
"4+	c #7A5E54",
"5+	c #791D12",
"6+	c #9E0A05",
"7+	c #BF0503",
"8+	c #C70B07",
"9+	c #C00E09",
"0+	c #AE0F09",
"a+	c #AA110B",
"b+	c #AB120B",
"c+	c #90160D",
"d+	c #910D06",
"e+	c #7B1208",
"f+	c #582112",
"g+	c #483529",
"h+	c #595952",
"i+	c #63635C",
"j+	c #4B483A",
"k+	c #50463D",
"l+	c #7C634A",
"m+	c #9E7950",
"n+	c #9D7245",
"o+	c #A47140",
"p+	c #B37D49",
"q+	c #B4814C",
"r+	c #9D6C3C",
"s+	c #795834",
"t+	c #9B7B59",
"u+	c #E3B88A",
"v+	c #FCC994",
"w+	c #EBB884",
"x+	c #DDAB78",
"y+	c #DDAA7A",
"z+	c #E5B988",
"A+	c #F9CE9B",
"B+	c #FFD59F",
"C+	c #F4C895",
"D+	c #B19476",
"E+	c #7E7874",
"F+	c #7D7A77",
"G+	c #BD9E80",
"H+	c #C1976F",
"I+	c #907A62",
"J+	c #777A76",
"K+	c #A6A9A3",
"L+	c #976F67",
"M+	c #962F29",
"N+	c #BA0806",
"O+	c #EE0000",
"P+	c #F90101",
"Q+	c #F50101",
"R+	c #F20201",
"S+	c #ED0101",
"T+	c #D90403",
"U+	c #C71C1C",
"V+	c #BB3D3A",
"W+	c #88473C",
"X+	c #615245",
"Y+	c #737369",
"Z+	c #737066",
"`+	c #47402F",
" @	c #7D634B",
".@	c #A17951",
"+@	c #A9733D",
"@@	c #A97541",
"#@	c #B88451",
"$@	c #B7824E",
"%@	c #996A3B",
"&@	c #70512F",
"*@	c #7C644A",
"=@	c #C6A17A",
"-@	c #FFCA96",
";@	c #FCCD99",
">@	c #F5C592",
",@	c #F6C390",
"'@	c #FFCE99",
")@	c #FFD19C",
"!@	c #FCCF9A",
"~@	c #D8B086",
"{@	c #857362",
"]@	c #6E645C",
"^@	c #C7A480",
"/@	c #F0BB89",
"(@	c #A98360",
"_@	c #6F6863",
":@	c #B1C0BE",
"<@	c #BCCBC6",
"[@	c #8C6B61",
"}@	c #A7130D",
"|@	c #EF0000",
"1@	c #FF0000",
"2@	c #FB0000",
"3@	c #EB1212",
"4@	c #EB6264",
"5@	c #E6ADAC",
"6@	c #C9B3AF",
"7@	c #C7C5C1",
"8@	c #C4C6C2",
"9@	c #959289",
"0@	c #696556",
"a@	c #6F5C47",
"b@	c #997550",
"c@	c #B07E4B",
"d@	c #A16D38",
"e@	c #9A6632",
"f@	c #A3703C",
"g@	c #A87643",
"h@	c #A5723D",
"i@	c #996632",
"j@	c #704D27",
"k@	c #6A5239",
"l@	c #A58363",
"m@	c #E7B687",
"n@	c #FECE9A",
"o@	c #FFD19D",
"p@	c #FECD9A",
"q@	c #FFCE9B",
"r@	c #FFCE9A",
"s@	c #FFD09B",
"t@	c #FED49E",
"u@	c #F7C997",
"v@	c #A98B6D",
"w@	c #9D8368",
"x@	c #DEB489",
"y@	c #FFCD97",
"z@	c #CFA073",
"A@	c #8C7561",
"B@	c #90938F",
"C@	c #9BA69F",
"D@	c #7C564B",
"E@	c #AD0C06",
"F@	c #F30000",
"G@	c #F90000",
"H@	c #EC0707",
"I@	c #E44545",
"J@	c #F5B2B3",
"K@	c #FFFAFA",
"L@	c #EDF6F4",
"M@	c #D3D6D2",
"N@	c #B4B3AB",
"O@	c #8B867B",
"P@	c #665544",
"Q@	c #906F4E",
"R@	c #B28251",
"S@	c #AB7642",
"T@	c #9A6733",
"U@	c #9F6C39",
"V@	c #A3703D",
"W@	c #9B6835",
"X@	c #96632F",
"Y@	c #825628",
"Z@	c #6B4C2C",
"`@	c #7D634A",
" #	c #C19A74",
".#	c #F8C593",
"+#	c #FBC995",
"@#	c #F6C894",
"##	c #F1C895",
"$#	c #F2C696",
"%#	c #E8BC8F",
"&#	c #E1B78A",
"*#	c #EFC393",
"=#	c #F1BF8C",
"-#	c #A98968",
";#	c #6F5F55",
">#	c #7D4F48",
",#	c #981A15",
"'#	c #D50100",
")#	c #FC0000",
"!#	c #F10404",
"~#	c #E62F30",
"{#	c #EE9495",
"]#	c #EFDBDC",
"^#	c #D3D5D2",
"/#	c #96948A",
"(#	c #7D7B6D",
"_#	c #6D5945",
":#	c #A47A52",
"<#	c #B4804D",
"[#	c #A7733E",
"}#	c #A26F3C",
"|#	c #AD7A47",
"1#	c #AF7C49",
"2#	c #A87542",
"3#	c #A5723F",
"4#	c #9B6834",
"5#	c #775029",
"6#	c #685037",
"7#	c #9B7D5F",
"8#	c #E5B688",
"9#	c #FECD98",
"0#	c #F9C693",
"a#	c #E9B683",
"b#	c #CDA377",
"c#	c #BA9774",
"d#	c #CBA983",
"e#	c #F8CC9C",
"f#	c #FED09B",
"g#	c #FDCE9B",
"h#	c #FFD09C",
"i#	c #F2C28E",
"j#	c #A68867",
"k#	c #673F35",
"l#	c #89100F",
"m#	c #D10000",
"n#	c #F60000",
"o#	c #FE0000",
"p#	c #E81B1B",
"q#	c #E76F70",
"r#	c #E4C1C1",
"s#	c #C0C2BB",
"t#	c #8F9186",
"u#	c #605D4E",
"v#	c #4F4B38",
"w#	c #635244",
"x#	c #9E7751",
"y#	c #B47F4C",
"z#	c #AB7743",
"A#	c #AA7845",
"B#	c #B27F4C",
"C#	c #B5824F",
"D#	c #B88552",
"E#	c #B2804D",
"F#	c #8D5F32",
"G#	c #6C4D2D",
"H#	c #7E6348",
"I#	c #C29A74",
"J#	c #F6C591",
"K#	c #F0BC89",
"L#	c #D7A472",
"M#	c #B9916B",
"N#	c #9F8469",
"O#	c #C0A380",
"P#	c #F1CA9A",
"Q#	c #FFD19E",
"R#	c #FFCD99",
"S#	c #F1C28F",
"T#	c #A88C68",
"U#	c #643C30",
"V#	c #980A06",
"W#	c #ED0000",
"X#	c #FB0001",
"Y#	c #F31213",
"Z#	c #EF595A",
"`#	c #E8AFAE",
" $	c #C2BDB6",
".$	c #818477",
"+$	c #545340",
"@$	c #705B46",
"#$	c #A77C52",
"$$	c #B27C4A",
"%$	c #B07C49",
"&$	c #B17F4C",
"*$	c #B4814E",
"=$	c #B68350",
"-$	c #BB8855",
";$	c #BA8754",
">$	c #B98652",
",$	c #B5824E",
"'$	c #A2703E",
")$	c #7C532B",
"!$	c #6A5036",
"~$	c #997A5E",
"{$	c #E6B688",
"]$	c #FDCC98",
"^$	c #EDBA86",
"/$	c #D5A271",
"($	c #CE9F73",
"_$	c #DEB387",
":$	c #F2C897",
"<$	c #FBD09D",
"[$	c #FFD09D",
"}$	c #F7C692",
"|$	c #A98B69",
"1$	c #594939",
"2$	c #7F1B13",
"3$	c #CE0503",
"4$	c #FA0608",
"5$	c #E63436",
"6$	c #D98B8B",
"7$	c #C7BEB9",
"8$	c #989F94",
"9$	c #625243",
"0$	c #9C7550",
"a$	c #B8824F",
"b$	c #B27D49",
"c$	c #AF7D4A",
"d$	c #B3804D",
"e$	c #B78451",
"f$	c #B17E4B",
"g$	c #AB7540",
"h$	c #88582A",
"i$	c #694829",
"j$	c #796048",
"k$	c #BE9A75",
"l$	c #F2C291",
"m$	c #F8C58F",
"n$	c #DFAB78",
"o$	c #F8C895",
"p$	c #FFCF9B",
"q$	c #FFCD9A",
"r$	c #FFD39D",
"s$	c #E6BA89",
"t$	c #957D60",
"u$	c #4C4A3C",
"v$	c #5D3228",
"w$	c #AF120E",
"x$	c #F40000",
"y$	c #F20101",
"z$	c #DA1312",
"A$	c #B14843",
"B$	c #937E75",
"C$	c #798275",
"D$	c #6E7465",
"E$	c #4A423C",
"F$	c #906F51",
"G$	c #B78554",
"H$	c #A97644",
"I$	c #AA7744",
"J$	c #A26E3A",
"K$	c #92602D",
"L$	c #7A5129",
"M$	c #694F36",
"N$	c #8F7357",
"O$	c #CBA37A",
"P$	c #F0C08D",
"Q$	c #F4C18D",
"R$	c #FDCD97",
"S$	c #FFD39F",
"T$	c #FFD29E",
"U$	c #F4C794",
"V$	c #D8B083",
"W$	c #C9A279",
"X$	c #7F6C56",
"Y$	c #4F544B",
"Z$	c #544D43",
"`$	c #8A2A24",
" %	c #BF0B09",
".%	c #AF0C06",
"+%	c #841D13",
"@%	c #6D3F32",
"#%	c #5F6556",
"$%	c #685544",
"%%	c #A47B53",
"&%	c #B8834F",
"*%	c #AD7945",
"=%	c #AB7946",
"-%	c #AB7845",
";%	c #A97643",
">%	c #A16E3B",
",%	c #976431",
"'%	c #9D6934",
")%	c #926232",
"!%	c #785430",
"~%	c #715439",
"{%	c #8F7051",
"]%	c #B9956E",
"^%	c #E0B586",
"/%	c #F4CA96",
"(%	c #EEC796",
"_%	c #F1C594",
":%	c #E7C191",
"<%	c #DCB58A",
"[%	c #CBA57E",
"}%	c #AB9076",
"|%	c #9B856F",
"1%	c #6A6154",
"2%	c #555950",
"3%	c #5C6157",
"4%	c #68453C",
"5%	c #762217",
"6%	c #6C1D0F",
"7%	c #452A19",
"8%	c #51473D",
"9%	c #84684C",
"0%	c #B48353",
"a%	c #B47F4A",
"b%	c #A97744",
"c%	c #A06D3B",
"d%	c #9F6C3A",
"e%	c #A87440",
"f%	c #9B6B3C",
"g%	c #805931",
"h%	c #6E5131",
"i%	c #7C6143",
"j%	c #A0805C",
"k%	c #AD8E6C",
"l%	c #A38667",
"m%	c #AC8A68",
"n%	c #9E8264",
"o%	c #886E52",
"p%	c #826850",
"q%	c #807162",
"r%	c #787671",
"s%	c #64645F",
"t%	c #5E5D54",
"u%	c #5E6154",
"v%	c #58574B",
"w%	c #695745",
"x%	c #A57C53",
"y%	c #B6824E",
"z%	c #AD7944",
"A%	c #A87642",
"B%	c #AA7644",
"C%	c #A77441",
"D%	c #A67340",
"E%	c #A87541",
"F%	c #B07D49",
"G%	c #B5814D",
"H%	c #A67542",
"I%	c #8A6035",
"J%	c #7A5630",
"K%	c #7B5A38",
"L%	c #715539",
"M%	c #6F5337",
"N%	c #715538",
"O%	c #6D5339",
"P%	c #62492F",
"Q%	c #59442F",
"R%	c #61594F",
"S%	c #676964",
"T%	c #65645E",
"U%	c #595748",
"V%	c #4D453D",
"W%	c #7E644B",
"X%	c #B38354",
"Y%	c #B6814C",
"Z%	c #AC7844",
"`%	c #AB7744",
" &	c #A6733F",
".&	c #AA7643",
"+&	c #B6814F",
"@&	c #B98551",
"#&	c #AE7A48",
"$&	c #A47341",
"%&	c #9A6C3E",
"&&	c #8C6135",
"*&	c #86592C",
"=&	c #906233",
"-&	c #865C32",
";&	c #6C4C2B",
">&	c #564734",
",&	c #55534B",
"'&	c #5D5B53",
")&	c #5D5B51",
"!&	c #585547",
"~&	c #524F40",
"{&	c #5E4F41",
"]&	c #8D6D4F",
"^&	c #AE8052",
"/&	c #AD7946",
"(&	c #B07D4A",
"_&	c #AA7743",
":&	c #A06D3A",
"<&	c #A77340",
"[&	c #C08C58",
"}&	c #B6814E",
"|&	c #A3713F",
"1&	c #A36D36",
"2&	c #9B6836",
"3&	c #7E552F",
"4&	c #5F462D",
"5&	c #49463B",
"6&	c #515146",
"7&	c #575548",
"8&	c #555245",
"9&	c #474135",
"0&	c #5D5142",
"a&	c #83684E",
"b&	c #A77B51",
"c&	c #AF7B47",
"d&	c #AE7B47",
"e&	c #9C6937",
"f&	c #9E6B38",
"g&	c #AA7745",
"h&	c #B68452",
"i&	c #BD8B58",
"j&	c #B88450",
"k&	c #A16C37",
"l&	c #8F6032",
"m&	c #62452C",
"n&	c #46372C",
"o&	c #403E33",
"p&	c #5C5144",
"q&	c #967351",
"r&	c #B6834F",
"s&	c #B37E48",
"t&	c #B07B48",
"u&	c #B27E4C",
"v&	c #B68451",
"w&	c #B17E4C",
"x&	c #A4713E",
"y&	c #A4703E",
"z&	c #BE8B57",
"A&	c #B7834F",
"B&	c #885D30",
"C&	c #684B2D",
"D&	c #493A2A",
"E&	c #434335",
"F&	c #4C493F",
"G&	c #78634E",
"H&	c #A37B53",
"I&	c #B07F4E",
"J&	c #B47E4A",
"K&	c #AE7A45",
"L&	c #B4814D",
"M&	c #B88653",
"N&	c #996533",
"O&	c #A46F3C",
"P&	c #BE8A55",
"Q&	c #AD7B48",
"R&	c #8A5E35",
"S&	c #66482C",
"T&	c #493B2D",
"U&	c #48453A",
"V&	c #544D41",
"W&	c #6E5D4A",
"X&	c #8E6F4F",
"Y&	c #AD7E50",
"Z&	c #B27F4B",
"`&	c #B7834D",
" *	c #BB8652",
".*	c #B17C48",
"+*	c #A9733E",
"@*	c #A37444",
"#*	c #A4723F",
"$*	c #976836",
"%*	c #79532D",
"&*	c #513E2B",
"**	c #3E3928",
"=*	c #423E30",
"-*	c #454136",
";*	c #655643",
">*	c #8E7358",
",*	c #9E7A57",
"'*	c #A5794E",
")*	c #A87D51",
"!*	c #A4794E",
"~*	c #A0754A",
"{*	c #8D6844",
"]*	c #78593A",
"^*	c #7F572E",
"/*	c #805427",
"(*	c #535046",
"_*	c #6E675A",
":*	c #726758",
"<*	c #776049",
"[*	c #755D47",
"}*	c #6E5A45",
"|*	c #725B45",
"1*	c #594B3D",
"2*	c #4B4035",
"                                                                                            ",
"                                                                                            ",
"                                                                                            ",
"                                                                                            ",
"                                                                                            ",
"                                                                                            ",
"                                                                                            ",
"                                                                                            ",
"                                                                                            ",
"                                                                                            ",
"                                                                                            ",
"                                                                                            ",
"                          . + @ #                                                           ",
"                          $ % & * = -                                                       ",
"                          ; > , ' ) !                                     ~ {               ",
"                        ] ^ / , ( _ : <                                   [ } |             ",
"                        1 2 3 , , 4 5 6 7                                 8 9 0             ",
"                          a b c d e f g h i                               j k l ~           ",
"                          m n o p q r s t u v                               w x y z         ",
"                          A B C D E F G H I J K                               L M N O       ",
"                          1 P Q R S T U V W X Y                               Z `  ...      ",
"                            +.@.#.$.%.&.*.=.-.;.>.,.                          '.).!.~.{.    ",
"                          ].^./.(._.:.<.[.}.|.1.2.3.4.                        5.6.7.8...9.  ",
"                    0.a.b.c.d.e.f.g.h.i.j.k.l.m.n.o.p.q.r.                      s.t.u.v.w.  ",
"          x.y.z.A.B.C.D.E.F.G.H.I.J.K.L.M.N.O.P.Q.R.S.T.U.V.W.X.Y.Z.`. +      .+++@+#+$+%+  ",
"      &+*+=+-+;+>+,+'+)+!+~+{+]+^+/+(+_+:+<+[+}+|+1+2+3+4+5+6+7+8+9+0+a+b+c+d+e+f+g+h+i+j+  ",
"    k+l+m+n+o+p+q+r+s+t+u+v+w+x+y+z+A+B+C+D+E+F+G+H+I+J+K+L+M+N+O+P+Q+R+S+T+U+V+W+X+Y+Z+`+  ",
"     @.@q++@@@#@$@%@&@*@=@-@;@>@,@'@)@)@!@~@{@]@^@/@(@_@:@<@[@}@|@1@1@1@2@3@4@5@6@7@8@9@0@  ",
"  a@b@c@d@e@f@g@h@i@j@k@l@m@n@o@p@q@r@s@t@u@v@w@x@y@z@A@B@C@D@E@F@1@1@G@H@I@J@K@L@M@N@O@    ",
"P@Q@R@S@T@U@V@W@i@X@Y@Z@`@ #.#r@r@p@+#@###$#%#&#*#s@=#-#;#>#,#'#)#1@)#!#~#{#]#^#^ /#(#      ",
"_#:#<#[#}#|#1#2#3#f@4#5#6#7#8#9#s@0#a#b#c#d#e#f#g#h#i#j#k#l#m#n#1@o#n#p#q#r#s#t#u#v#        ",
"w#x#y#z#A#B#C#D#D#E#S@F#G#H#I#J#s@K#L#M#N#O#P#Q#q@R#S#T#U#V#W#1@1@X#Y#Z#`# $.$+$            ",
"@$#$$$%$&$*$=$-$;$>$,$'$)$!$~${$]$^$/$($_$:$<$[$q@)@}$|$1$2$3$)#1@4$5$6$7$8$                ",
"9$0$a$b$c$d$e$*$f$=$D#g$h$i$j$k$l$m$n$a#o$h#p$q$o@r$s$t$u$v$w$x$y$z$A$B$C$D$                ",
"E$F$G$b$H$|#f$|#I$1#|#J$K$L$M$N$O$P$Q$R$S$T$B+T$U$V$W$X$Y$Z$`$ %.%+%@%#%                    ",
"  $%%%&%*%g@=%-%I$;%>%,%'%)%!%~%{%]%^%/%(%_%:%<%[%}%|%1%2%3%4%5%6%7%                        ",
"  8%9%0%a%2#b%I$I$2#c%d%e%I$f%g%h%i%j%k%l%m%n%o%p%q%r%s%t%u%v%                              ",
"    w%x%y%z%A%B%I$;%C%D%E%F%G%H%I%J%K%L%M%N%O%P%Q%R%S%T%3.U%                                ",
"    V%W%X%Y%Z%`%b%-%I$I$ &.&+&@&#&$&%&&&*&=&-&;&>&,&'&)&!&~&                                ",
"      {&]&^&c@/&=%(&f$f$_&:&<&C#;$[&}&|&1&2&3&4&5&6&7&8&                                    ",
"      9&0&a&b&Y%c&*$D#e$d&e&f&g&h&i&j&g$k&l&m&n&                                            ",
"        o&p&q&r&s&t&u&v&w&x&2&y&*$z&A&y&B&C&D&                                              ",
"        E&F&G&H&I&J&K&L&M&c&N&O&$@P&Q&R&S&T&                                                ",
"          U&V&W&X&Y&Z&`& *.*+*<&@*#*$*%*&*                                                  ",
"          **=*-*;*>*,*'*)*!*~*{*]*^*/*                                                      ",
"                (*_*:*<*[*}*|*1*2*                                                          "};
