/* XPM */
static char * playerOne12_xpm[] = {
"46 46 584 2",
"  	c None",
". 	c #36311C",
"+ 	c #39341F",
"@ 	c #34301A",
"# 	c #413D2B",
"$ 	c #59564A",
"% 	c #717069",
"& 	c #5D5B50",
"* 	c #474338",
"= 	c #3C3724",
"- 	c #706C5D",
"; 	c #35311C",
"> 	c #4F4B3B",
", 	c #656257",
"' 	c #7C7A75",
") 	c #90908F",
"! 	c #949496",
"~ 	c #72716F",
"{ 	c #626058",
"] 	c #9A978F",
"^ 	c #CAC8C3",
"/ 	c #433E2C",
"( 	c #4F4B3C",
"_ 	c #69675E",
": 	c #8B8B8A",
"< 	c #909091",
"[ 	c #939395",
"} 	c #868688",
"| 	c #79797A",
"1 	c #575651",
"2 	c #424133",
"3 	c #ACB3AE",
"4 	c #FFFFFF",
"5 	c #8D8B7F",
"6 	c #35301A",
"7 	c #5C5A52",
"8 	c #868684",
"9 	c #929395",
"0 	c #818183",
"a 	c #6F6F6F",
"b 	c #5D5A55",
"c 	c #484C41",
"d 	c #493B2D",
"e 	c #4A1F0C",
"f 	c #726D61",
"g 	c #F3F4F5",
"h 	c #BEBDB6",
"i 	c #46422F",
"j 	c #413E2E",
"k 	c #4E4C42",
"l 	c #504E45",
"m 	c #5D5C59",
"n 	c #59574A",
"o 	c #5E5C57",
"p 	c #535047",
"q 	c #474438",
"r 	c #393420",
"s 	c #213A23",
"t 	c #581B0C",
"u 	c #981B13",
"v 	c #B7948D",
"w 	c #FAFFFF",
"x 	c #E0DFDC",
"y 	c #5E5A4A",
"z 	c #464335",
"A 	c #605F5D",
"B 	c #515047",
"C 	c #494638",
"D 	c #423D2C",
"E 	c #312A12",
"F 	c #3C3725",
"G 	c #7F160E",
"H 	c #C41516",
"I 	c #F8C3C3",
"J 	c #A2A097",
"K 	c #332D19",
"L 	c #403B2A",
"M 	c #4A473A",
"N 	c #38331E",
"O 	c #7B1B10",
"P 	c #C90000",
"Q 	c #DC2020",
"R 	c #E17C7C",
"S 	c #FBEDED",
"T 	c #DCDDDA",
"U 	c #5F6352",
"V 	c #154028",
"W 	c #9B150C",
"X 	c #F00000",
"Y 	c #F20000",
"Z 	c #D72222",
"` 	c #E68A8A",
" .	c #F2CFD0",
"..	c #CCCCC7",
"+.	c #A4A39A",
"@.	c #27200C",
"#.	c #57291A",
"$.	c #B80B07",
"%.	c #FF0000",
"&.	c #FF0100",
"*.	c #EB0000",
"=.	c #E40000",
"-.	c #E07B7B",
";.	c #F7CDCE",
">.	c #CAD0CB",
",.	c #515644",
"'.	c #6C1D13",
").	c #C30805",
"!.	c #F30000",
"~.	c #DD1515",
"{.	c #E34A4A",
"].	c #E6B9B9",
"^.	c #7A8376",
"/.	c #4B2B1B",
"(.	c #D60403",
"_.	c #FD0000",
":.	c #FE0000",
"<.	c #FA0000",
"[.	c #EB0607",
"}.	c #E24F51",
"|.	c #AC726C",
"1.	c #3A3925",
"2.	c #7E1F13",
"3.	c #EF0000",
"4.	c #F70000",
"5.	c #FD0C0D",
"6.	c #BF1311",
"7.	c #542214",
"8.	c #5A2618",
"9.	c #B10E09",
"0.	c #E90000",
"a.	c #E60000",
"b.	c #FB0000",
"c.	c #771D11",
"d.	c #2B3A24",
"e.	c #4E2C1B",
"f.	c #A10C08",
"g.	c #BD0201",
"h.	c #78170E",
"i.	c #85180D",
"j.	c #BD0603",
"k.	c #F90000",
"l.	c #B80803",
"m.	c #4E2412",
"n.	c #4C2D1B",
"o.	c #A80501",
"p.	c #8F1E17",
"q.	c #7B7D72",
"r.	c #838B81",
"s.	c #5E3527",
"t.	c #AF0000",
"u.	c #CF0200",
"v.	c #B40605",
"w.	c #762B25",
"x.	c #4F3626",
"y.	c #38230E",
"z.	c #77190F",
"A.	c #675446",
"B.	c #D3D7D4",
"C.	c #E6F0EE",
"D.	c #7E6E63",
"E.	c #7E0100",
"F.	c #BC0000",
"G.	c #910D06",
"H.	c #67281C",
"I.	c #5B4137",
"J.	c #55635B",
"K.	c #626156",
"L.	c #535144",
"M.	c #4D493B",
"N.	c #514D3D",
"O.	c #84837B",
"P.	c #99A69F",
"Q.	c #F5F4F6",
"R.	c #FDFFFF",
"S.	c #96A79C",
"T.	c #9A7370",
"U.	c #5F281C",
"V.	c #383826",
"W.	c #4A4F41",
"X.	c #4D4F41",
"Y.	c #64675E",
"Z.	c #666359",
"`.	c #575447",
" +	c #5B584B",
".+	c #7D7B70",
"++	c #CACAC9",
"@+	c #EAEBEC",
"#+	c #FAF9F9",
"$+	c #FFF6F1",
"%+	c #B7AB9F",
"&+	c #4C4C42",
"*+	c #4D564E",
"=+	c #514E42",
"-+	c #6F6E67",
";+	c #565346",
">+	c #6C6B63",
",+	c #6B6961",
"'+	c #37321D",
")+	c #44402E",
"!+	c #555143",
"~+	c #9C9991",
"{+	c #FAF4F2",
"]+	c #F2FCFF",
"^+	c #CEF2FF",
"/+	c #6FD2FF",
"(+	c #68C6F0",
"_+	c #617B80",
":+	c #707170",
"<+	c #7A685A",
"[+	c #625A4D",
"}+	c #706F68",
"|+	c #534F41",
"1+	c #68665E",
"2+	c #484433",
"3+	c #777670",
"4+	c #2D2712",
"5+	c #9D9B94",
"6+	c #CFCCC8",
"7+	c #F8F4F1",
"8+	c #E0F9FF",
"9+	c #A5E7FF",
"0+	c #56CAFA",
"a+	c #2BAFEE",
"b+	c #0093E6",
"c+	c #0D90CD",
"d+	c #2887B4",
"e+	c #338FBC",
"f+	c #648996",
"g+	c #574F3E",
"h+	c #7B7A75",
"i+	c #5D5B51",
"j+	c #767570",
"k+	c #66645A",
"l+	c #636157",
"m+	c #605F54",
"n+	c #2C2814",
"o+	c #484432",
"p+	c #534E3D",
"q+	c #C2C1BF",
"r+	c #C6F2FF",
"s+	c #47BEF1",
"t+	c #059FEC",
"u+	c #0189C9",
"v+	c #007FBD",
"w+	c #0074AC",
"x+	c #0079B2",
"y+	c #0084C6",
"z+	c #0C98DC",
"A+	c #4DA0C6",
"B+	c #5A503F",
"C+	c #4F4D3E",
"D+	c #646258",
"E+	c #5A574A",
"F+	c #5A5548",
"G+	c #706F67",
"H+	c #484534",
"I+	c #322C18",
"J+	c #93938E",
"K+	c #B9AFA6",
"L+	c #DFD6D2",
"M+	c #F6F8F5",
"N+	c #E7FDFF",
"O+	c #A2E0FB",
"P+	c #0896DA",
"Q+	c #0076B2",
"R+	c #0075A9",
"S+	c #0079AE",
"T+	c #0079B0",
"U+	c #0077AC",
"V+	c #0093DD",
"W+	c #47A3D0",
"X+	c #7A7B76",
"Y+	c #615B4F",
"Z+	c #68645A",
"`+	c #696C64",
" @	c #5D6056",
".@	c #686D64",
"+@	c #2F2B1A",
"@@	c #665F51",
"#@	c #C0BEBB",
"$@	c #FBFDFB",
"%@	c #C4F1FF",
"&@	c #76D8FF",
"*@	c #2FB7F5",
"=@	c #0E9BE3",
"-@	c #0181BD",
";@	c #0078AE",
">@	c #0079AF",
",@	c #007AB2",
"'@	c #007AB1",
")@	c #0078AF",
"!@	c #0077AE",
"~@	c #028ACC",
"{@	c #278EBC",
"]@	c #73675E",
"^@	c #656261",
"/@	c #485042",
"(@	c #55594D",
"_@	c #4E564B",
":@	c #60362D",
"<@	c #6D291E",
"[@	c #524D3C",
"}@	c #8D8B84",
"|@	c #C8BCB2",
"1@	c #AED9E9",
"2@	c #69D6FF",
"3@	c #0FA7ED",
"4@	c #0391D8",
"5@	c #007FC1",
"6@	c #007AB5",
"7@	c #0076AA",
"8@	c #0078AC",
"9@	c #0076AD",
"0@	c #007BBB",
"a@	c #2E99CC",
"b@	c #6792A3",
"c@	c #6F5E4E",
"d@	c #4B4D46",
"e@	c #3C3827",
"f@	c #5B2212",
"g@	c #801E16",
"h@	c #BA0605",
"i@	c #BB0905",
"j@	c #2E291A",
"k@	c #777467",
"l@	c #EFEFF2",
"m@	c #FFFFFC",
"n@	c #6AD2FF",
"o@	c #07A6F4",
"p@	c #0084C3",
"q@	c #0076AC",
"r@	c #0074A8",
"s@	c #0078B0",
"t@	c #0079B1",
"u@	c #0075AD",
"v@	c #0077AF",
"w@	c #007EBF",
"x@	c #008DD2",
"y@	c #14A3EA",
"z@	c #71CDF2",
"A@	c #D5E0E3",
"B@	c #959187",
"C@	c #612A1C",
"D@	c #980801",
"E@	c #CB0300",
"F@	c #E40100",
"G@	c #7C1A10",
"H@	c #2B361F",
"I@	c #565244",
"J@	c #615D4F",
"K@	c #CECFCD",
"L@	c #F9F5F4",
"M@	c #E7FAFF",
"N@	c #5DC8FD",
"O@	c #0099E9",
"P@	c #0073A5",
"Q@	c #007DB9",
"R@	c #0090DD",
"S@	c #209AD6",
"T@	c #0087CB",
"U@	c #0595DE",
"V@	c #26B2F3",
"W@	c #66D0FE",
"X@	c #BAEBFF",
"Y@	c #DBFAFF",
"Z@	c #FFFDF9",
"`@	c #A0A096",
" #	c #7B180F",
".#	c #E20000",
"+#	c #AB1D18",
"@#	c #4E3423",
"##	c #7F7D72",
"$#	c #CECDCB",
"%#	c #F1F2F4",
"&#	c #FBFBFC",
"*#	c #B2E6FF",
"=#	c #40BAFC",
"-#	c #009CED",
";#	c #008ED9",
">#	c #0084CA",
",#	c #0F9AE1",
"'#	c #2EB3ED",
")#	c #51CFFF",
"!#	c #C7EFFA",
"~#	c #5BC9F8",
"{#	c #7FD9FF",
"]#	c #CEF3FF",
"^#	c #FEFDFD",
"/#	c #BAC2BA",
"(#	c #683326",
"_#	c #BE0000",
":#	c #D60404",
"<#	c #CF5958",
"[#	c #7B7265",
"}#	c #5C5849",
"|#	c #BBB9B4",
"1#	c #FEFFFF",
"2#	c #E0F7FF",
"3#	c #A1E4FF",
"4#	c #84DAFF",
"5#	c #5ACBFF",
"6#	c #25BCFF",
"7#	c #A9E6FF",
"8#	c #CFF4FF",
"9#	c #ECFAFA",
"0#	c #FFFFFB",
"a#	c #FBF8F7",
"b#	c #F8F9F9",
"c#	c #E0E3E3",
"d#	c #CBCDCB",
"e#	c #F6F4F6",
"f#	c #B5D1CB",
"g#	c #564635",
"h#	c #C40502",
"i#	c #E30A0A",
"j#	c #E97C7E",
"k#	c #C3BBB5",
"l#	c #3F432F",
"m#	c #5F5C4E",
"n#	c #D6D6D7",
"o#	c #FEFEFF",
"p#	c #F8F7F7",
"q#	c #FEFCFC",
"r#	c #FFFFFE",
"s#	c #EEF4F5",
"t#	c #CBE7F2",
"u#	c #CBEDF7",
"v#	c #FFF7EF",
"w#	c #DAD4D0",
"x#	c #B7B4AF",
"y#	c #D4D4D2",
"z#	c #BAB8B4",
"A#	c #94928A",
"B#	c #BEBCB9",
"C#	c #A9B0AB",
"D#	c #7E7469",
"E#	c #66493D",
"F#	c #5A4E3E",
"G#	c #7B7066",
"H#	c #8E2922",
"I#	c #E10000",
"J#	c #F80000",
"K#	c #CB0000",
"L#	c #DA6969",
"M#	c #EBDEDD",
"N#	c #727262",
"O#	c #342F1A",
"P#	c #8A8880",
"Q#	c #E7E7E8",
"R#	c #F0F0F1",
"S#	c #DBDBDB",
"T#	c #B5B4B1",
"U#	c #A09E96",
"V#	c #C4C3C0",
"W#	c #A2A099",
"X#	c #948C7F",
"Y#	c #AFAAA2",
"Z#	c #8A8478",
"`#	c #5D5A4C",
" $	c #3B3724",
".$	c #737064",
"+$	c #484533",
"@$	c #393524",
"#$	c #585345",
"$$	c #37311C",
"%$	c #482E1D",
"&$	c #860602",
"*$	c #A60605",
"=$	c #8C1009",
"-$	c #B50400",
";$	c #D00303",
">$	c #D45454",
",$	c #97958A",
"'$	c #565241",
")$	c #999790",
"!$	c #8C8A80",
"~$	c #443F32",
"{$	c #373225",
"]$	c #4E4939",
"^$	c #474231",
"/$	c #0B0600",
"($	c #37321E",
"_$	c #7F1B10",
":$	c #A60A06",
"<$	c #DD0000",
"[$	c #CD0202",
"}$	c #E19191",
"|$	c #E1E0DD",
"1$	c #585448",
"2$	c #3A3522",
"3$	c #1C4027",
"4$	c #622617",
"5$	c #B60A06",
"6$	c #D20603",
"7$	c #F40101",
"8$	c #CC1010",
"9$	c #EDB6B6",
"0$	c #918F84",
"a$	c #4F2818",
"b$	c #42311E",
"c$	c #A6120B",
"d$	c #EF0101",
"e$	c #C70303",
"f$	c #DE7F7F",
"g$	c #B7B5AD",
"h$	c #3E3925",
"i$	c #6C2114",
"j$	c #A81009",
"k$	c #C20805",
"l$	c #CF1E1E",
"m$	c #EDB8B8",
"n$	c #E8E8E6",
"o$	c #666254",
"p$	c #353521",
"q$	c #771B11",
"r$	c #991009",
"s$	c #C50D0E",
"t$	c #EE9E9F",
"u$	c #D9E3DF",
"v$	c #FCFDFF",
"w$	c #ABA9A0",
"x$	c #403A27",
"y$	c #7B1B11",
"z$	c #9C0E09",
"A$	c #94251D",
"B$	c #76695E",
"C$	c #C1C5C3",
"D$	c #D4D2CE",
"E$	c #524C3B",
"F$	c #432916",
"G$	c #441D0B",
"H$	c #32260F",
"I$	c #A0A19B",
"J$	c #F0EFEF",
"K$	c #98958A",
"L$	c #3A3623",
"M$	c #414739",
"N$	c #4F5348",
"O$	c #5A5954",
"P$	c #6E6D66",
"Q$	c #5A5646",
"R$	c #3A351F",
"S$	c #423F30",
"T$	c #494639",
"U$	c #5B5A57",
"V$	c #6E6D6C",
"W$	c #828284",
"X$	c #7F7F7F",
"Y$	c #545247",
"Z$	c #454234",
"`$	c #595751",
" %	c #767576",
".%	c #848588",
"+%	c #8F9091",
"@%	c #969798",
"#%	c #868785",
"$%	c #4A4636",
"%%	c #636158",
"&%	c #878787",
"*%	c #959698",
"=%	c #8D8C8D",
"-%	c #7C7C78",
";%	c #68675D",
">%	c #535041",
",%	c #3B3522",
"'%	c #433E2E",
")%	c #515046",
"!%	c #5C5C5A",
"~%	c #5B584E",
"{%	c #898886",
"]%	c #7D7C77",
"^%	c #545043",
"/%	c #433F2E",
"(%	c #403B2B",
"_%	c #5C5B57",
":%	c #525047",
"<%	c #4F4D43",
"[%	c #403D2D",
"}%	c #403C28",
"|%	c #545042",
"1%	c #423E2C",
"2%	c #2D270F",
"3%	c #4A483B",
"                                                                                            ",
"                                                  . +                                       ",
"                                            @ # $ % & * = -                                 ",
"                                        ; > , ' ) ! ~ { ] ^ /                               ",
"                                      ( _ : < [ } | 1 2 3 4 5                               ",
"                                    6 7 8 9 0 a b c d e f g h i                             ",
"                              . j k l m n o p q r s t u v w x y                             ",
"                              z A B C D E   F       G H I 4 4 J K                           ",
"                              L M N                 O P Q R S T U                           ",
"                                                  V W X Y Z `  ...+.@.                      ",
"                                                  #.$.%.&.*.=.-.;.>.,.                      ",
"                                                  '.).%.%.%.!.~.{.].^.                      ",
"                                                  /.(._.:.%.%.<.[.}.|.1.                    ",
"                                                  2.3.%.%.%.:.:.4.5.6.7.                    ",
"                                                8.9.0.a.Y b.%.%.%.%.=.c.d.                  ",
"                                                e.f.g.h.i.j.3.%.%.%.k.l.m.                  ",
"                                                n.o.p.q.r.s.t.b.X u.v.w.x.                  ",
"                                                y.z.A.B.C.D.E.F.G.H.I.J.K.L.M.              ",
"                                                N.O.P.Q.R.S.T.U.V.W.X.Y.Z.`. +              ",
"                                              .+++@+#+4 w $+%+&+*+=+-+;+>+,+,+'+            ",
"                                          )+!+~+{+4 ]+^+/+(+_+:+<+[+}+|+1+2+3+`.            ",
"                                        4+5+6+7+8+9+0+a+b+c+d+e+f+g+h+i+j+k+l+m+            ",
"                                    n+o+p+q+4 r+s+t+u+v+w+x+y+z+A+B+C+D+E+F+G+H+            ",
"                                  I+J+K+L+M+N+O+P+Q+R+S+T+T+U+V+W+X+Y+m+Z+`+ @.@            ",
"                                +@@@#@$@%@&@*@=@-@;@>@,@'@)@!@~@{@]@^@/@(@_@:@<@            ",
"                              [@}@|@1@2@3@4@5@6@7@'@'@)@8@9@0@a@b@c@d@e@f@g@h@i@e.          ",
"                            j@k@l@m@n@o@p@q@U+r@s@t@u@v@w@x@y@z@A@B@C@D@E@F@b.0.G@H@        ",
"                        I@J@}@K@L@M@N@O@,@P@x+Q@R@S@T@U@V@W@X@Y@Z@`@ #.#_.%.%..#+#@#        ",
"                        ##$#%#&#4 *#=#-#;#>#,#'#)#!#~#{#]#R.4 ^#4 /#(#_#b.%._.:#<#[#        ",
"                      }#|#4 4 4 1#2#3#4#5#6#7#8#9#4 0#a#4 b#c#d#e#f#g#h#b.%.<.i#j#k#l#      ",
"                      m#n#o#4 4 p#q#r#s#t#u#v#w#x#y#z#A#B#C#D#E#F#G#H#I#%.:.J#K#L#M#N#      ",
"                      O#P#Q#R#S#T#U#V#W#X#Y#Z#`# $.$+$@$#$$$%$&$*$=$-$4.%.%.J#;$>$4 ,$      ",
"                        '$)$!$.$~${$]$^$/$  ($                _$:$<$%.%.%.%.<.[$}$|$1$      ",
"                            2$                                3$4$5$6$Y :.%.7$8$9$4 0$      ",
"                                                                  a$b$c$d$%.!.e$f$R.g$h$    ",
"                                                                      i$j$k$I#l$m$4 n$o$    ",
"                                                                        p$q$r$s$t$u$v$w$x$  ",
"                                                                            y$z$A$B$C$D$E$  ",
"                                                                              F$G$H$I$J$K$  ",
"                                                                            L$M$N$O$P$Q$R$  ",
"                                                                        S$T$U$V$W$X$Y$      ",
"                                                                      Z$`$ %.%+%@%#%$%+     ",
"                                                                  N z %%&%*%=%-%;%>%,%      ",
"                                                              '%C )%!%~%{%]%^%/%($          ",
"                                                            (%_%:%<%[%}%|%1%2%              ",
"                                                              3%'+                          "};
