/* XPM */
static char * playerOne14_xpm[] = {
"46 46 800 2",
"  	c None",
". 	c #685644",
"+ 	c #6F5D49",
"@ 	c #746553",
"# 	c #716657",
"$ 	c #625B4D",
"% 	c #484639",
"& 	c #685440",
"* 	c #765E45",
"= 	c #866849",
"- 	c #926F4C",
"; 	c #94724E",
"> 	c #967553",
", 	c #8E7458",
"' 	c #79654F",
") 	c #605443",
"! 	c #4E483A",
"~ 	c #464335",
"{ 	c #81582E",
"] 	c #7F5B38",
"^ 	c #876340",
"/ 	c #976D44",
"( 	c #A57648",
"_ 	c #B18050",
": 	c #B38250",
"< 	c #B28151",
"[ 	c #AB7E51",
"} 	c #9B744F",
"| 	c #876A4D",
"1 	c #6F5D48",
"2 	c #5A5143",
"3 	c #47473C",
"4 	c #8A5E30",
"5 	c #9B6B3A",
"6 	c #A17143",
"7 	c #A27243",
"8 	c #A5713E",
"9 	c #AD7742",
"0 	c #B7814C",
"a 	c #BA864F",
"b 	c #B7834D",
"c 	c #B37F49",
"d 	c #B37F4B",
"e 	c #AD7E50",
"f 	c #9A7651",
"g 	c #77624C",
"h 	c #524C3F",
"i 	c #434136",
"j 	c #6E4E2E",
"k 	c #906438",
"l 	c #AB7946",
"m 	c #B7834E",
"n 	c #B17C48",
"o 	c #A46F3B",
"p 	c #A36E3A",
"q 	c #AD7844",
"r 	c #B5824E",
"s 	c #B4824D",
"t 	c #B47E4B",
"u 	c #B68049",
"v 	c #B9834D",
"w 	c #937150",
"x 	c #6E5B47",
"y 	c #574D3F",
"z 	c #5F462D",
"A 	c #7E5732",
"B 	c #9F6F3E",
"C 	c #BF8B56",
"D 	c #B37F4E",
"E 	c #A2703D",
"F 	c #9C6937",
"G 	c #A3703D",
"H 	c #B07D49",
"I 	c #B5824F",
"J 	c #B7824F",
"K 	c #B5814C",
"L 	c #B58049",
"M 	c #AA7C4F",
"N 	c #97724E",
"O 	c #80664C",
"P 	c #625344",
"Q 	c #5A432D",
"R 	c #75532F",
"S 	c #936436",
"T 	c #AB7542",
"U 	c #BB8551",
"V 	c #BF8C57",
"W 	c #B78452",
"X 	c #AB7846",
"Y 	c #A16E3C",
"Z 	c #A16E3B",
"` 	c #A97744",
" .	c #B17F4B",
"..	c #B4804D",
"+.	c #B17F4A",
"@.	c #AE7C46",
"#.	c #AF7B47",
"$.	c #B27E49",
"%.	c #B3804E",
"&.	c #A17950",
"*.	c #85684C",
"=.	c #605143",
"-.	c #513F2E",
";.	c #6E4E2F",
">.	c #8D5F33",
",.	c #A16C36",
"'.	c #AD7640",
").	c #B5804B",
"!.	c #BB8753",
"~.	c #BA8653",
"{.	c #B6824F",
"].	c #A87441",
"^.	c #A87542",
"/.	c #AB7845",
"(.	c #AC7946",
"_.	c #AA7745",
":.	c #AA7744",
"<.	c #AD7944",
"[.	c #B47F48",
"}.	c #B4824E",
"|.	c #A27950",
"1.	c #7B6349",
"2.	c #524A3F",
"3.	c #565547",
"4.	c #515246",
"5.	c #4F493B",
"6.	c #5D472F",
"7.	c #79542E",
"8.	c #906132",
"9.	c #976431",
"0.	c #966636",
"a.	c #9C6D3E",
"b.	c #A57443",
"c.	c #AA7947",
"d.	c #B17E4A",
"e.	c #B5804C",
"f.	c #AB7744",
"g.	c #A77442",
"h.	c #A67341",
"i.	c #A97642",
"j.	c #A97643",
"k.	c #AA7743",
"l.	c #B37E49",
"m.	c #B1804F",
"n.	c #97744F",
"o.	c #755F49",
"p.	c #565242",
"q.	c #59574A",
"r.	c #5B5B50",
"s.	c #58564B",
"t.	c #534A3B",
"u.	c #5E472C",
"v.	c #75512D",
"w.	c #825B32",
"x.	c #7F5932",
"y.	c #7B5835",
"z.	c #815D39",
"A.	c #866039",
"B.	c #865E36",
"C.	c #926639",
"D.	c #A47342",
"E.	c #AC7846",
"F.	c #AB7743",
"G.	c #A4713D",
"H.	c #A06D3B",
"I.	c #A5733F",
"J.	c #AA7644",
"K.	c #AA7643",
"L.	c #A87643",
"M.	c #AE7945",
"N.	c #B47F4B",
"O.	c #AE8051",
"P.	c #92714F",
"Q.	c #685645",
"R.	c #5B584A",
"S.	c #5E5D53",
"T.	c #62635D",
"U.	c #625E57",
"V.	c #5D4F40",
"W.	c #644D35",
"X.	c #76593B",
"Y.	c #826546",
"Z.	c #886C4D",
"`.	c #8F7254",
" +	c #967755",
".+	c #8F6F4C",
"++	c #7C5D3D",
"@+	c #795634",
"#+	c #946539",
"$+	c #9E6B39",
"%+	c #9E6B36",
"&+	c #9E6B38",
"*+	c #A57240",
"=+	c #AA7844",
"-+	c #AB7945",
";+	c #AC7A47",
">+	c #AD7845",
",+	c #B27D48",
"'+	c #B7834F",
")+	c #A57A51",
"!+	c #81654B",
"~+	c #5A4D43",
"{+	c #5A5C4D",
"]+	c #5E5E52",
"^+	c #62625A",
"/+	c #6A6A66",
"(+	c #756E66",
"_+	c #7C6A58",
":+	c #8B6F54",
"<+	c #A08060",
"[+	c #B59572",
"}+	c #C3A17A",
"|+	c #CEAA81",
"1+	c #D4AE81",
"2+	c #C39E74",
"3+	c #A68460",
"4+	c #8D6E4E",
"5+	c #7B5C3E",
"6+	c #775231",
"7+	c #86592D",
"8+	c #976430",
"9+	c #AD7A47",
"0+	c #AF7C49",
"a+	c #AE7C48",
"b+	c #B27F4C",
"c+	c #B07C49",
"d+	c #B6804C",
"e+	c #AF7E4F",
"f+	c #94714E",
"g+	c #6D5948",
"h+	c #5F584C",
"i+	c #5A6156",
"j+	c #5E6158",
"k+	c #746D62",
"l+	c #938270",
"m+	c #AE9175",
"n+	c #C9A57D",
"o+	c #DCB58A",
"p+	c #ECC494",
"q+	c #F7CD9A",
"r+	c #FAD09C",
"s+	c #F8C894",
"t+	c #EDBD8B",
"u+	c #DDB283",
"v+	c #C29D75",
"w+	c #937658",
"x+	c #715539",
"y+	c #734F2A",
"z+	c #8D5C2D",
"A+	c #A8723F",
"B+	c #B5814D",
"C+	c #B68350",
"D+	c #B68451",
"E+	c #B58350",
"F+	c #B37F4D",
"G+	c #B07D4B",
"H+	c #B27D49",
"I+	c #B57F4D",
"J+	c #9E754E",
"K+	c #755F48",
"L+	c #741C10",
"M+	c #80271E",
"N+	c #6C463B",
"O+	c #565A4F",
"P+	c #595D51",
"Q+	c #82735E",
"R+	c #B79675",
"S+	c #DCB488",
"T+	c #F1C694",
"U+	c #FDD09C",
"V+	c #FFD59F",
"W+	c #FFD6A0",
"X+	c #FDD09B",
"Y+	c #F4C18C",
"Z+	c #EFBB87",
"`+	c #F5C28E",
" @	c #ECBF8F",
".@	c #BC9974",
"+@	c #8B6D51",
"@@	c #715133",
"#@	c #80552D",
"$@	c #A06D3C",
"%@	c #BA8753",
"&@	c #B98753",
"*@	c #BA8754",
"=@	c #B88551",
"-@	c #B4814E",
";@	c #AE7B48",
">@	c #AF7A46",
",@	c #B47F4C",
"'@	c #A2784F",
")@	c #7E644A",
"!@	c #62382A",
"~@	c #801F13",
"{@	c #AA0F09",
"]@	c #B4110D",
"^@	c #8B2A23",
"/@	c #5D4038",
"(@	c #545446",
"_@	c #8B7A5F",
":@	c #D4AC80",
"<@	c #F8CB96",
"[@	c #FED29C",
"}@	c #FFD29E",
"|@	c #FFD39D",
"1@	c #F7CC99",
"2@	c #E7BA8C",
"3@	c #D9A97A",
"4@	c #DDA977",
"5@	c #F0BB86",
"6@	c #F9C693",
"7@	c #E4B88A",
"8@	c #B38F6C",
"9@	c #7F6145",
"0@	c #745231",
"a@	c #895F33",
"b@	c #B17D4A",
"c@	c #B3804D",
"d@	c #B37F4C",
"e@	c #AE7B49",
"f@	c #A77341",
"g@	c #AA7540",
"h@	c #A57B51",
"i@	c #81664C",
"j@	c #7F7165",
"k@	c #974841",
"l@	c #B91D19",
"m@	c #E00604",
"n@	c #E90302",
"o@	c #BC100D",
"p@	c #79261F",
"q@	c #584839",
"r@	c #927D60",
"s@	c #DEB687",
"t@	c #FED09B",
"u@	c #FFD39E",
"v@	c #F9CE9C",
"w@	c #E2BC91",
"x@	c #C5A17C",
"y@	c #BD936E",
"z@	c #CE9E70",
"A@	c #EAB783",
"B@	c #FDCB96",
"C@	c #FBCC98",
"D@	c #D7AC82",
"E@	c #9F7E5D",
"F@	c #765A3E",
"G@	c #73522D",
"H@	c #8D5F30",
"I@	c #A06C38",
"J@	c #A5713D",
"K@	c #A4713E",
"L@	c #A7733F",
"M@	c #A6713E",
"N@	c #A16C38",
"O@	c #A6723D",
"P@	c #AD7B4B",
"Q@	c #9C7550",
"R@	c #7C644B",
"S@	c #7E8D7F",
"T@	c #969C92",
"U@	c #AE8882",
"V@	c #CC514F",
"W@	c #EA1919",
"X@	c #FE0202",
"Y@	c #FF0000",
"Z@	c #E10202",
"`@	c #9A0F0B",
" #	c #6C362A",
".#	c #917458",
"+#	c #D9B284",
"@#	c #FED19B",
"##	c #FFD29D",
"$#	c #FFD09C",
"%#	c #F7CC9B",
"&#	c #D8B58C",
"*#	c #B89877",
"=#	c #C09873",
"-#	c #D8AA7A",
";#	c #F0BE8A",
">#	c #FDCE99",
",#	c #F0C291",
"'#	c #C8A078",
")#	c #907155",
"!#	c #6F5335",
"~#	c #775128",
"{#	c #8D5D2B",
"]#	c #9B6933",
"^#	c #9F6D39",
"/#	c #A26E39",
"(#	c #A46F38",
"_#	c #AC7742",
":#	c #A5794D",
"<#	c #896C4D",
"[#	c #9AA196",
"}#	c #BEB0AA",
"|#	c #DB8C8A",
"1#	c #EF4444",
"2#	c #FC0E0F",
"3#	c #EE0000",
"4#	c #B10504",
"5#	c #792920",
"6#	c #8A674F",
"7#	c #D1AC7F",
"8#	c #FACD98",
"9#	c #FFD19D",
"0#	c #FBCD9A",
"a#	c #F5C898",
"b#	c #E3BB8F",
"c#	c #D6B186",
"d#	c #DFB687",
"e#	c #EFC08D",
"f#	c #FAC995",
"g#	c #FFCF9C",
"h#	c #FDCE9B",
"i#	c #E9BC8E",
"j#	c #B7926F",
"k#	c #86684B",
"l#	c #705130",
"m#	c #80562B",
"n#	c #9B6936",
"o#	c #AE7844",
"p#	c #A9733D",
"q#	c #AA7B4B",
"r#	c #98744F",
"s#	c #735E49",
"t#	c #878E81",
"u#	c #B4B3AB",
"v#	c #D8ADAA",
"w#	c #ED6E6F",
"x#	c #F62426",
"y#	c #FD0404",
"z#	c #FC0000",
"A#	c #DF0100",
"B#	c #A71412",
"C#	c #753530",
"D#	c #866954",
"E#	c #C39F76",
"F#	c #F3C590",
"G#	c #FECF9A",
"H#	c #E9BE90",
"I#	c #D6AE86",
"J#	c #DAB287",
"K#	c #F2C895",
"L#	c #FBD19B",
"M#	c #FDCF9A",
"N#	c #FFD09B",
"O#	c #FFCF9B",
"P#	c #FECE9B",
"Q#	c #FBCC97",
"R#	c #E0B588",
"S#	c #AA8967",
"T#	c #7A5F42",
"U#	c #7D5832",
"V#	c #A3713F",
"W#	c #BA824D",
"X#	c #B47F4A",
"Y#	c #A17445",
"Z#	c #93704C",
"`#	c #7F654C",
" $	c #7A7B6D",
".$	c #A7ACA2",
"+$	c #D1C0BB",
"@$	c #E79695",
"#$	c #ED4042",
"$$	c #F40A0A",
"%$	c #FE0000",
"&$	c #ED0000",
"*$	c #BD0E0C",
"=$	c #933E39",
"-$	c #7F6C66",
";$	c #878071",
">$	c #A98C6D",
",$	c #E3B280",
"'$	c #F6C691",
")$	c #C9A680",
"!$	c #9C846B",
"~$	c #B79776",
"{$	c #E6BF8F",
"]$	c #FDD39C",
"^$	c #FFD69F",
"/$	c #F8C793",
"($	c #F2BF8D",
"_$	c #F3C18C",
":$	c #F9C691",
"<$	c #F7C694",
"[$	c #CBA47B",
"}$	c #927351",
"|$	c #846039",
"1$	c #9C6D3D",
"2$	c #A17242",
"3$	c #8F673D",
"4$	c #806140",
"5$	c #6C5843",
"6$	c #564C42",
"7$	c #97988E",
"8$	c #B1B6AE",
"9$	c #D6D6D1",
"0$	c #ECC1C0",
"a$	c #F06F6F",
"b$	c #F11D1E",
"c$	c #FA0101",
"d$	c #FD0000",
"e$	c #E30202",
"f$	c #AB211B",
"g$	c #8E675E",
"h$	c #9BA7A1",
"i$	c #9AA7A1",
"j$	c #958573",
"k$	c #C69D75",
"l$	c #E1B083",
"m$	c #B8987A",
"n$	c #84766A",
"o$	c #907F6F",
"p$	c #C6A582",
"q$	c #F2C794",
"r$	c #FFD59E",
"s$	c #F5CA98",
"t$	c #DFB385",
"u$	c #D2A476",
"v$	c #DEAB78",
"w$	c #EEBA83",
"x$	c #F2BF8B",
"y$	c #D0A87B",
"z$	c #9D7B56",
"A$	c #7F5D3A",
"B$	c #815B37",
"C$	c #85603A",
"D$	c #7C5B38",
"E$	c #695035",
"F$	c #5B4938",
"G$	c #827D71",
"H$	c #A9A8A0",
"I$	c #C7CCC7",
"J$	c #DDE1DE",
"K$	c #F4DEDE",
"L$	c #FAA2A3",
"M$	c #F64142",
"N$	c #F80607",
"O$	c #E60000",
"P$	c #B11D17",
"Q$	c #965F57",
"R$	c #A49F99",
"S$	c #9BA3A1",
"T$	c #8B8A80",
"U$	c #9F876E",
"V$	c #B9926E",
"W$	c #B29478",
"X$	c #887E78",
"Y$	c #7B7774",
"Z$	c #9D8B78",
"`$	c #D7B287",
" %	c #E7BE90",
".%	c #C6A27C",
"+%	c #BA946E",
"@%	c #CEA071",
"#%	c #E1AF7B",
"$%	c #DBAF7E",
"%%	c #BA9770",
"&%	c #876C4E",
"*%	c #684E36",
"=%	c #624933",
"-%	c #5F4935",
";%	c #574633",
">%	c #949186",
",%	c #B4B6AF",
"'%	c #CCCEC9",
")%	c #DBCAC5",
"!%	c #E8A4A4",
"~%	c #EA6162",
"{%	c #ED1D1D",
"]%	c #F70101",
"^%	c #FB0000",
"/%	c #F90101",
"(%	c #C20B09",
"_%	c #A32B26",
":%	c #955A52",
"<%	c #8E7872",
"[%	c #878782",
"}%	c #877F72",
"|%	c #9B7F64",
"1%	c #A5896E",
"2%	c #958678",
"3%	c #7B7671",
"4%	c #837566",
"5%	c #B39473",
"6%	c #E0B88B",
"7%	c #E4BD8F",
"8%	c #C7A680",
"9%	c #BE9C77",
"0%	c #D1A77B",
"a%	c #D0A67A",
"b%	c #B3936E",
"c%	c #8E765D",
"d%	c #625241",
"e%	c #483C30",
"f%	c #878479",
"g%	c #95948C",
"h%	c #8F867C",
"i%	c #9C6F65",
"j%	c #B44F4A",
"k%	c #C12624",
"l%	c #C90B09",
"m%	c #D10703",
"n%	c #D00905",
"o%	c #CA0B07",
"p%	c #CB0C07",
"q%	c #C90B07",
"r%	c #BA0804",
"s%	c #990B05",
"t%	c #7E1F15",
"u%	c #74473B",
"v%	c #7D746D",
"w%	c #807D75",
"x%	c #867665",
"y%	c #967B63",
"z%	c #A68A6F",
"A%	c #9A846E",
"B%	c #9C8369",
"C%	c #BF9B77",
"D%	c #E8BB8D",
"E%	c #F9CC98",
"F%	c #E2BE8F",
"G%	c #D1B085",
"H%	c #C7A57F",
"I%	c #AC8F71",
"J%	c #85705C",
"K%	c #67665B",
"L%	c #6A6960",
"M%	c #5C5045",
"N%	c #5B2F20",
"O%	c #751D12",
"P%	c #8F120A",
"Q%	c #9A0E07",
"R%	c #A0120B",
"S%	c #95180F",
"T%	c #8A1A10",
"U%	c #8C1B10",
"V%	c #941A11",
"W%	c #98140C",
"X%	c #851006",
"Y%	c #671103",
"Z%	c #5B3322",
"`%	c #6D6658",
" &	c #77776F",
".&	c #746D64",
"+&	c #847160",
"@&	c #A4866C",
"#&	c #B08E70",
"$&	c #C19971",
"%&	c #DCAD7F",
"&&	c #EEBD8C",
"*&	c #F0C08E",
"=&	c #E0B98B",
"-&	c #BCA381",
";&	c #9E907B",
">&	c #877C70",
",&	c #685F56",
"'&	c #4A4736",
")&	c #5D5C53",
"!&	c #676863",
"~&	c #5B5751",
"{&	c #4B3C2F",
"]&	c #4C2415",
"^&	c #5E1607",
"/&	c #636157",
"(&	c #71695E",
"_&	c #887767",
":&	c #9E846C",
"<&	c #BA9876",
"[&	c #C7A580",
"}&	c #B29B7D",
"|&	c #A19179",
"1&	c #908E7F",
"2&	c #798A88",
"3&	c #7D9498",
"4&	c #8B9393",
"5&	c #7B7971",
"6&	c #4A4533",
"7&	c #636257",
"8&	c #787A76",
"9&	c #767776",
"0&	c #5C5F57",
"a&	c #434535",
"b&	c #656358",
"c&	c #716B61",
"d&	c #82786C",
"e&	c #A29584",
"f&	c #A0A39B",
"g&	c #638791",
"h&	c #497D92",
"i&	c #397F9E",
"j&	c #4A94B7",
"k&	c #8EC1D6",
"l&	c #BCCDD1",
"m&	c #A2A098",
"n&	c #6F695A",
"o&	c #605D50",
"p&	c #77756F",
"q&	c #878686",
"r&	c #757773",
"s&	c #575950",
"t&	c #404433",
"u&	c #5F5D51",
"v&	c #777166",
"w&	c #99978F",
"x&	c #A0B8BD",
"y&	c #71B4D0",
"z&	c #4BA7D3",
"A&	c #47B0E4",
"B&	c #4FBBEE",
"C&	c #A5E1F7",
"D&	c #DBE9EA",
"E&	c #B9B5AD",
"F&	c #777064",
"G&	c #544F3F",
"H&	c #6C685F",
"I&	c #827F7C",
"J&	c #838381",
"K&	c #6C6B66",
"L&	c #535146",
"M&	c #70695B",
"N&	c #969187",
"O&	c #A7B1B0",
"P&	c #9BC4D5",
"Q&	c #97D5F3",
"R&	c #93DDFE",
"S&	c #94E3FF",
"T&	c #D0F8FF",
"U&	c #E9F2F1",
"V&	c #C4C2BC",
"W&	c #878279",
"X&	c #5D594C",
"Y&	c #737069",
"Z&	c #838380",
"`&	c #7B7B79",
" *	c #626058",
".*	c #807667",
"+*	c #918B81",
"@*	c #A2A6A0",
"#*	c #C0CBCD",
"$*	c #D7E8ED",
"%*	c #ECFDFD",
"&*	c #FBFFFF",
"**	c #FAFBFA",
"=*	c #DAD9D6",
"-*	c #A09E97",
";*	c #6A6659",
">*	c #605C50",
",*	c #787671",
"'*	c #787673",
")*	c #66655D",
"!*	c #525043",
"~*	c #817768",
"{*	c #A79D92",
"]*	c #C9C3BC",
"^*	c #EEE9E6",
"/*	c #FCFAFA",
"(*	c #FFFFFF",
"_*	c #F0F0EE",
":*	c #BFBEB8",
"<*	c #8B887E",
"[*	c #514D3A",
"}*	c #646156",
"|*	c #69675F",
"1*	c #5F5D55",
"2*	c #4F4D41",
"3*	c #726C5E",
"4*	c #938F85",
"5*	c #B7B5AF",
"6*	c #DCDBD8",
"7*	c #FBFBFA",
"8*	c #FAFAF9",
"9*	c #D1D0CC",
"0*	c #9E9C94",
"a*	c #565346",
"b*	c #4F4D42",
"c*	c #4C493E",
"d*	c #4A4738",
"e*	c #7F7D72",
"f*	c #AEADA6",
"g*	c #DEDDD9",
"h*	c #E3E3E1",
"i*	c #BAB8B3",
"j*	c #918E85",
"k*	c #494739",
"l*	c #4C493D",
"m*	c #4C4A3E",
"n*	c #4B493A",
"o*	c #8C8980",
"p*	c #ADACA4",
"q*	c #A7A59E",
"r*	c #88857C",
"s*	c #6B6659",
"t*	c #4D493D",
"u*	c #4C483B",
"v*	c #7E7B6F",
"w*	c #565243",
"x*	c #4A4638",
"y*	c #4A4536",
"                                                                                            ",
"                                                                                            ",
"                                                                                            ",
"                                                                                            ",
"                                                                                            ",
"                                                                                            ",
"                                                                                            ",
"                                                                                            ",
"                                                                                            ",
"                                                                                            ",
"                                                          . + @ # $ %                       ",
"                                                    & * = - ; > , ' ) ! ~                   ",
"                                                { ] ^ / ( _ : < [ } | 1 2 3                 ",
"                                              4 5 6 7 8 9 0 a b c d e f g h i               ",
"                                            j k l m n o p q r s t u v < w x y               ",
"                                          z A B m C D E F G H I J K L K M N O P             ",
"                                        Q R S T U V W X Y Z `  ...+.@.#.$.%.&.*.=.          ",
"                                      -.;.>.,.'.).!.~.{.#.].^./.(.X _.:.<.[.}.|.1.2.        ",
"                                3.4.5.6.7.8.9.0.a.b.c.d.e.n f.g.h.i.:.j.k.<.l.m.n.o.        ",
"                            p.q.r.s.t.u.v.w.x.y.z.A.B.C.D.E.F.G.H.I.J.K.L.L.M.N.O.P.Q.      ",
"                            R.S.T.U.V.W.X.Y.Z.`. +.+++@+B.#+$+%+&+*+j.=+-+;+>+,+'+)+!+~+    ",
"                          {+]+^+/+(+_+:+<+[+}+|+1+2+3+4+5+6+7+8+o 9+0+a+ .b+0+c+d+e+f+g+    ",
"                          h+i+j+k+l+m+n+o+p+q+r+s+t+u+v+w+x+y+z+A+B+C+I D+E+F+G+H+I+J+K+    ",
"                      L+M+N+O+P+Q+R+S+T+U+V+W+X+Y+Z+`+ @.@+@@@#@$@e.%@&@*@=@-@;@>@,@'@)@    ",
"                  !@~@{@]@^@/@(@_@:@<@[@}@|@1@2@3@4@5@6@7@8@9@0@a@h.b@c@b+d@e@f@g@d.h@i@    ",
"                j@k@l@m@n@o@p@q@r@s@t@u@}@v@w@x@y@z@A@B@C@D@E@F@G@H@I@J@K@L@M@N@O@P@Q@R@    ",
"            S@T@U@V@W@X@Y@Z@`@ #.#+#@###$#%#&#*#=#-#;#>###,#'#)#!#~#{#]#^#G./#(#_#:#<#      ",
"            [#}#|#1#2#Y@Y@3#4#5#6#7#8#9#0#a#b#c#d#e#f#g#9#h#i#j#k#l#m#n#_#o#p#g@q#r#s#      ",
"          t#u#v#w#x#y#Y@z#A#B#C#D#E#F#G#H#I#J#K#L#M#N#O#P#N#Q#R#S#T#U#V#W#X#K.Y#Z#`#        ",
"         $.$+$@$#$$$%$Y@&$*$=$-$;$>$,$'$)$!$~${$]$^$@#/$($_$:$<$[$}$|$1$(.2$3$4$5$6$        ",
"      7$8$9$0$a$b$c$Y@d$e$f$g$h$i$j$k$l$m$n$o$p$q$r$s$t$u$v$w$x$y$z$A$B$C$D$E$F$            ",
"  G$H$I$J$K$L$M$N$Y@Y@Y@O$P$Q$R$S$T$U$V$W$X$Y$Z$`$K# %.%+%@%#%$%%%&%*%=%-%;%                ",
"  >%,%'%)%!%~%{%]%^%/%^%O$(%_%:%<%[%}%|%1%2%3%4%5%6%7%8%9%0%a%b%c%d%e%                      ",
"  f%g%h%i%j%k%l%m%n%o%p%q%r%s%t%u%v%w%x%y%z%A%B%C%D%E%F%G%H%I%J%                            ",
"  K%L%M%N%O%P%Q%R%S%T%U%V%W%X%Y%Z%`% &.&+&@&#&$&%&&&*&=&-&;&>&,&                            ",
"'&)&!&~&{&]&^&                        /&(&_&:&<&[&}&|&1&2&3&4&5&                            ",
"6&7&8&9&0&a&                            b&c&d&e&f&g&h&i&j&k&l&m&n&                          ",
"  o&p&q&r&s&t&                            u&v&w&x&y&z&A&B&C&D&E&F&                          ",
"  G&H&I&J&K&L&                              M&N&O&P&Q&R&S&T&U&V&W&                          ",
"    X&Y&Z&`& *                                .*+*@*#*$*%*&***=*-*;*                        ",
"      >*,*'*)*!*                                  ~*{*]*^*/*(*_*:*<*                        ",
"      [*}*|*1*2*                                    3*4*5*6*7*8*9*0*                        ",
"          a*b*c*d*                                      e*f*g*h*i*j*                        ",
"            k*l*m*n*                                    X&o*p*q*r*s*                        ",
"              l*t*u*                                          v*w*                          ",
"                x*y*                                                                        "};
