/* XPM */
static char * playerOne03_xpm[] = {
"46 46 740 2",
"  	c None",
". 	c #453F3A",
"+ 	c #4F453C",
"@ 	c #7A6049",
"# 	c #7A6249",
"$ 	c #605142",
"% 	c #4B433B",
"& 	c #3B3836",
"* 	c #303132",
"= 	c #5F5041",
"- 	c #8B6D4D",
"; 	c #9E7854",
"> 	c #AC7E53",
", 	c #B18253",
"' 	c #9C7752",
") 	c #977451",
"! 	c #755E48",
"~ 	c #50453C",
"{ 	c #715C48",
"] 	c #B4875B",
"^ 	c #B28150",
"/ 	c #B17E4C",
"( 	c #B5804A",
"_ 	c #B17D48",
": 	c #B37E4A",
"< 	c #B5824E",
"[ 	c #B58757",
"} 	c #907150",
"| 	c #3F3A36",
"1 	c #2B2D30",
"2 	c #594C3E",
"3 	c #A17953",
"4 	c #B98451",
"5 	c #B17B47",
"6 	c #AD7A47",
"7 	c #A97643",
"8 	c #9C6936",
"9 	c #9B6835",
"0 	c #9C6834",
"a 	c #AE7944",
"b 	c #B1814D",
"c 	c #765A3E",
"d 	c #4C4036",
"e 	c #655443",
"f 	c #A98057",
"g 	c #BC8854",
"h 	c #B07C48",
"i 	c #AC7946",
"j 	c #B68350",
"k 	c #A77441",
"l 	c #A16E3B",
"m 	c #95622F",
"n 	c #996532",
"o 	c #A5703B",
"p 	c #9D6C3C",
"q 	c #7C5834",
"r 	c #3D3730",
"s 	c #2C2D31",
"t 	c #53483E",
"u 	c #9C7753",
"v 	c #B98653",
"w 	c #B17C48",
"x 	c #AD7A48",
"y 	c #B4814E",
"z 	c #B17E4B",
"A 	c #B3804D",
"B 	c #A5723F",
"C 	c #AE7A46",
"D 	c #896035",
"E 	c #57432F",
"F 	c #55493C",
"G 	c #9B7754",
"H 	c #BD8955",
"I 	c #B27D49",
"J 	c #A97743",
"K 	c #AA7744",
"L 	c #AF7C49",
"M 	c #A87542",
"N 	c #996633",
"O 	c #A67340",
"P 	c #BC8956",
"Q 	c #BD8854",
"R 	c #A17345",
"S 	c #6E5339",
"T 	c #3D3834",
"U 	c #44402D",
"V 	c #5C5949",
"W 	c #8D8A82",
"X 	c #706C60",
"Y 	c #413D29",
"Z 	c #3F3D30",
"` 	c #675646",
" .	c #AF8255",
"..	c #B37E49",
"+.	c #A87643",
"@.	c #AB7845",
"#.	c #B78451",
"$.	c #BB8855",
"%.	c #AE7B48",
"&.	c #986532",
"*.	c #A97541",
"=.	c #A2713F",
"-.	c #9E6B38",
";.	c #865E36",
">.	c #564331",
",.	c #666256",
"'.	c #9B9A91",
").	c #C5C5C2",
"!.	c #BDBCB9",
"~.	c #6C685B",
"{.	c #524F3F",
"].	c #494739",
"^.	c #4B463E",
"/.	c #866A51",
"(.	c #AE7F50",
"_.	c #AC7945",
":.	c #9F6C39",
"<.	c #97642F",
"[.	c #8D5E2F",
"}.	c #71502C",
"|.	c #745534",
"1.	c #775837",
"2.	c #6A5038",
"3.	c #443C33",
"4.	c #565246",
"5.	c #555044",
"6.	c #9E9C96",
"7.	c #E4E4E3",
"8.	c #FFFFFF",
"9.	c #F7F7F8",
"0.	c #BBBBB7",
"a.	c #767367",
"b.	c #474436",
"c.	c #4C4941",
"d.	c #705D4A",
"e.	c #A77C54",
"f.	c #B6824D",
"g.	c #AE7945",
"h.	c #B07D4A",
"i.	c #9E6B37",
"j.	c #875828",
"k.	c #694927",
"l.	c #655038",
"m.	c #937758",
"n.	c #BD956C",
"o.	c #A68665",
"p.	c #766453",
"q.	c #48433E",
"r.	c #4D4738",
"s.	c #686457",
"t.	c #A29E97",
"u.	c #BDBAB5",
"v.	c #E1E1E0",
"w.	c #FEFDFE",
"x.	c #C6C5C1",
"y.	c #7B786C",
"z.	c #454133",
"A.	c #6C5E50",
"B.	c #AC8157",
"C.	c #B8834F",
"D.	c #AD7946",
"E.	c #A87543",
"F.	c #AB7743",
"G.	c #966433",
"H.	c #704C28",
"I.	c #68513A",
"J.	c #90765C",
"K.	c #D6AC80",
"L.	c #FDCF9B",
"M.	c #EDC08E",
"N.	c #C19C75",
"O.	c #816E5A",
"P.	c #575149",
"Q.	c #777069",
"R.	c #B4B4AF",
"S.	c #F3F0EB",
"T.	c #F7FAF9",
"U.	c #FAFFFF",
"V.	c #FDFDFD",
"W.	c #EEEEEE",
"X.	c #A09E97",
"Y.	c #646155",
"Z.	c #434035",
"`.	c #78634E",
" +	c #AD7F50",
".+	c #B27D47",
"++	c #AF7C48",
"@+	c #A06D3A",
"#+	c #A4713E",
"$+	c #AC7845",
"%+	c #946434",
"&+	c #6D4B28",
"*+	c #634D34",
"=+	c #927559",
"-+	c #D9AA7E",
";+	c #FEC994",
">+	c #F7C591",
",+	c #DEA974",
"'+	c #E1AD78",
")+	c #CDA57D",
"!+	c #8E7C68",
"~+	c #717472",
"{+	c #ADC8D1",
"]+	c #BAE9FC",
"^+	c #B2EAFF",
"/+	c #D7F5FF",
"(+	c #FDFFFF",
"_+	c #F4F1F0",
":+	c #ACACA7",
"<+	c #5F5C4E",
"[+	c #484433",
"}+	c #4D473B",
"|+	c #876A4C",
"1+	c #B38150",
"2+	c #B27F4C",
"3+	c #A3703D",
"4+	c #986533",
"5+	c #976431",
"6+	c #9B6632",
"7+	c #935F2D",
"8+	c #765029",
"9+	c #664E35",
"0+	c #887056",
"a+	c #CCA27A",
"b+	c #F8C491",
"c+	c #FFCF9B",
"d+	c #F1BF8C",
"e+	c #D29F6A",
"f+	c #E0AE7B",
"g+	c #F0C290",
"h+	c #D5AF84",
"i+	c #8B7F6D",
"j+	c #547988",
"k+	c #439BC6",
"l+	c #3ABAFC",
"m+	c #A0E1FF",
"n+	c #FCFFFF",
"o+	c #E0DFDE",
"p+	c #77766B",
"q+	c #776E63",
"r+	c #A47B52",
"s+	c #B37F4A",
"t+	c #AC7744",
"u+	c #A06C38",
"v+	c #8E5C2B",
"w+	c #6F4924",
"x+	c #634A32",
"y+	c #886D53",
"z+	c #D0A47A",
"A+	c #FAC592",
"B+	c #FFCD99",
"C+	c #FFD19E",
"D+	c #EEBD8A",
"E+	c #D2A171",
"F+	c #B6916D",
"G+	c #9F856A",
"H+	c #F5CD9A",
"I+	c #DBB88B",
"J+	c #8C7D6C",
"K+	c #286483",
"L+	c #1EA0E4",
"M+	c #9FE2FF",
"N+	c #F5FBFD",
"O+	c #C9C2BD",
"P+	c #666457",
"Q+	c #776C5E",
"R+	c #A57D56",
"S+	c #B37F49",
"T+	c #B58250",
"U+	c #A5723E",
"V+	c #A4703D",
"W+	c #7D552D",
"X+	c #644B33",
"Y+	c #806952",
"Z+	c #C59D76",
"`+	c #F6C38F",
" @	c #FFCD9A",
".@	c #FECC99",
"+@	c #F6C491",
"@@	c #E2AF7D",
"#@	c #B4926F",
"$@	c #8E7861",
"%@	c #D7B98F",
"&@	c #FCD5A1",
"*@	c #CEA980",
"=@	c #51707B",
"-@	c #148DC9",
";@	c #75D7FF",
">@	c #CEDADD",
",@	c #978E83",
"'@	c #534E3D",
")@	c #5B5041",
"!@	c #94704B",
"~@	c #BA844F",
"{@	c #B88452",
"]@	c #A3703E",
"^@	c #B27F4A",
"/@	c #956738",
"(@	c #6B4D2F",
"_@	c #7D654D",
":@	c #F7C491",
"<@	c #FFCF9A",
"[@	c #FFCE9A",
"}@	c #FFCF9C",
"|@	c #FECD9A",
"1@	c #FFD29C",
"2@	c #EAC393",
"3@	c #DEB58A",
"4@	c #F5C696",
"5@	c #FFD29E",
"6@	c #E6B98C",
"7@	c #6A6C63",
"8@	c #297CA3",
"9@	c #95D5EE",
"0@	c #B3B3AF",
"a@	c #645F51",
"b@	c #4E443B",
"c@	c #927151",
"d@	c #AF7F4F",
"e@	c #B6824E",
"f@	c #BC8754",
"g@	c #B6834F",
"h@	c #885C30",
"i@	c #6D5137",
"j@	c #A78664",
"k@	c #F4C490",
"l@	c #FDCB97",
"m@	c #F8C693",
"n@	c #F8C592",
"o@	c #F9C693",
"p@	c #FFD19C",
"q@	c #FED09C",
"r@	c #EFC091",
"s@	c #E6B98D",
"t@	c #F5C18F",
"u@	c #A58767",
"v@	c #849B9D",
"w@	c #D2E0E2",
"x@	c #A39F97",
"y@	c #615D52",
"z@	c #6A5744",
"A@	c #A2784E",
"B@	c #AE7842",
"C@	c #966331",
"D@	c #9D6A37",
"E@	c #A26F3C",
"F@	c #AE7C49",
"G@	c #B88552",
"H@	c #AA7845",
"I@	c #77522C",
"J@	c #72583E",
"K@	c #C19A72",
"L@	c #F8C692",
"M@	c #E9B884",
"N@	c #DAA572",
"O@	c #DAA674",
"P@	c #E8B682",
"Q@	c #FFCC99",
"R@	c #FFD39D",
"S@	c #E7BC8E",
"T@	c #9E8368",
"U@	c #9B8067",
"V@	c #EBBA89",
"W@	c #BE9C76",
"X@	c #98958D",
"Y@	c #C6BEB7",
"Z@	c #837B6E",
"`@	c #5C4D3F",
" #	c #946F4B",
".#	c #9F6B37",
"+#	c #AC7947",
"@#	c #B88451",
"##	c #B88551",
"$#	c #A1703E",
"%#	c #75522D",
"&#	c #7E664C",
"*#	c #DCAF81",
"=#	c #F5C28E",
"-#	c #DBA774",
";#	c #D4A170",
">#	c #BF956B",
",#	c #C09871",
"'#	c #E9BE8E",
")#	c #FFD19B",
"!#	c #ECBF8F",
"~#	c #AB8E70",
"{#	c #58524D",
"]#	c #7C6A59",
"^#	c #DDAE80",
"/#	c #A38262",
"(#	c #82796F",
"_#	c #5F584A",
":#	c #403B2A",
"<#	c #393735",
"[#	c #65513E",
"}#	c #8C6641",
"|#	c #AF7B48",
"1#	c #BB8854",
"2#	c #B78552",
"3#	c #BE8B58",
"4#	c #C18D5A",
"5#	c #785531",
"6#	c #967756",
"7#	c #E9BD8B",
"8#	c #FFD09A",
"9#	c #F2BF8C",
"0#	c #E7B787",
"a#	c #B49372",
"b#	c #CBA67F",
"c#	c #FFD39E",
"d#	c #F0C393",
"e#	c #B19274",
"f#	c #7C756F",
"g#	c #7E8288",
"h#	c #A69280",
"i#	c #BF9873",
"j#	c #847261",
"k#	c #6A6864",
"l#	c #5C594B",
"m#	c #3E3934",
"n#	c #6B4E32",
"o#	c #A2713E",
"p#	c #BF8B57",
"q#	c #BD8956",
"r#	c #B78350",
"s#	c #A97644",
"t#	c #7B5833",
"u#	c #786149",
"v#	c #C8A781",
"w#	c #FFD6A0",
"x#	c #FFCE9B",
"y#	c #EBC192",
"z#	c #BCA17F",
"A#	c #E3BA8F",
"B#	c #F5C595",
"C#	c #B49373",
"D#	c #524C47",
"E#	c #737577",
"F#	c #93908D",
"G#	c #907B65",
"H#	c #B48F6B",
"I#	c #83776C",
"J#	c #929089",
"K#	c #5F5B4B",
"L#	c #6F4B26",
"M#	c #8D5E2D",
"N#	c #A1703D",
"O#	c #AF7B47",
"P#	c #B07B46",
"Q#	c #A5713D",
"R#	c #9C6A38",
"S#	c #81562B",
"T#	c #614B34",
"U#	c #AD8C6B",
"V#	c #F4C895",
"W#	c #F9D2A0",
"X#	c #FED19F",
"Y#	c #F1C493",
"Z#	c #B29272",
"`#	c #8F7862",
" $	c #A8917A",
".$	c #AF9478",
"+$	c #B08A65",
"@$	c #8C6F54",
"#$	c #59544C",
"$$	c #454134",
"%$	c #77512C",
"&$	c #825931",
"*$	c #A36E37",
"=$	c #A6713C",
"-$	c #96632F",
";$	c #735434",
">$	c #99795B",
",$	c #DFB789",
"'$	c #FFD7A0",
")$	c #FFD09D",
"!$	c #FFD09C",
"~$	c #E9BD8F",
"{$	c #EEC090",
"]$	c #F6C391",
"^$	c #C99D72",
"/$	c #7B634D",
"($	c #5C5A58",
"_$	c #878683",
":$	c #513E2C",
"<$	c #694B2C",
"[$	c #885C2F",
"}$	c #946435",
"|$	c #996837",
"1$	c #815B35",
"2$	c #5D4E3E",
"3$	c #AE9071",
"4$	c #F3C997",
"5$	c #FED19D",
"6$	c #FFCB95",
"7$	c #E2AF7F",
"8$	c #97795C",
"9$	c #686761",
"0$	c #A8AAAA",
"a$	c #827F72",
"b$	c #3E372F",
"c$	c #563F29",
"d$	c #5B4029",
"e$	c #724E2B",
"f$	c #7B542C",
"g$	c #574027",
"h$	c #84694E",
"i$	c #CBA37B",
"j$	c #F1C592",
"k$	c #FDCA96",
"l$	c #FDC995",
"m$	c #E3B181",
"n$	c #8E6F53",
"o$	c #615C58",
"p$	c #939B99",
"q$	c #8F877E",
"r$	c #4D3B29",
"s$	c #3D322C",
"t$	c #473E32",
"u$	c #554633",
"v$	c #6D5741",
"w$	c #9B836D",
"x$	c #BB9976",
"y$	c #F3C591",
"z$	c #FFCC97",
"A$	c #F8C792",
"B$	c #D9AE80",
"C$	c #C79D74",
"D$	c #9A7C5E",
"E$	c #68615B",
"F$	c #ADB4B4",
"G$	c #A1A39B",
"H$	c #683124",
"I$	c #651305",
"J$	c #484C3F",
"K$	c #4F5047",
"L$	c #55524A",
"M$	c #73736F",
"N$	c #867F79",
"O$	c #A58A6E",
"P$	c #BC966F",
"Q$	c #B4916D",
"R$	c #AA8966",
"S$	c #7D6D53",
"T$	c #685245",
"U$	c #63564E",
"V$	c #9FA39F",
"W$	c #EEFCFA",
"X$	c #968E85",
"Y$	c #961A14",
"Z$	c #880E05",
"`$	c #612415",
" %	c #4B4838",
".%	c #59574A",
"+%	c #5C5A52",
"@%	c #5F5F59",
"#%	c #6C6B67",
"$%	c #5C554B",
"%%	c #61584C",
"&%	c #585345",
"*%	c #4D483B",
"=%	c #592922",
"-%	c #870E0C",
";%	c #73211C",
">%	c #7E6A60",
",%	c #7E8A7F",
"'%	c #82594F",
")%	c #A7120F",
"!%	c #AE0907",
"~%	c #7E1D13",
"{%	c #565346",
"]%	c #5B594E",
"^%	c #6C6A64",
"/%	c #616058",
"(%	c #5D5C53",
"_%	c #535B51",
":%	c #46493E",
"<%	c #5B3124",
"[%	c #A30D08",
"}%	c #DA0000",
"|%	c #C40201",
"1%	c #9E120D",
"2%	c #881C11",
"3%	c #95130B",
"4%	c #CC0302",
"5%	c #DD0301",
"6%	c #891B12",
"7%	c #4B4837",
"8%	c #5A574A",
"9%	c #5F5C4F",
"0%	c #606156",
"a%	c #606259",
"b%	c #6D3E36",
"c%	c #A80D09",
"d%	c #DE0000",
"e%	c #FE0000",
"f%	c #FB0000",
"g%	c #EC0000",
"h%	c #E90100",
"i%	c #F10000",
"j%	c #FA0000",
"k%	c #E40504",
"l%	c #881C12",
"m%	c #474334",
"n%	c #464232",
"o%	c #3F3B28",
"p%	c #524F40",
"q%	c #595D51",
"r%	c #5E4339",
"s%	c #9A1C17",
"t%	c #E70202",
"u%	c #FF0000",
"v%	c #F30201",
"w%	c #9D130C",
"x%	c #562518",
"y%	c #403C2A",
"z%	c #494638",
"A%	c #514E45",
"B%	c #423E2F",
"C%	c #602213",
"D%	c #921209",
"E%	c #FC0000",
"F%	c #C00A06",
"G%	c #711F14",
"H%	c #433E2D",
"I%	c #4A4739",
"J%	c #56554E",
"K%	c #484538",
"L%	c #4F2B1A",
"M%	c #98120A",
"N%	c #DC1211",
"O%	c #F51315",
"P%	c #F10405",
"Q%	c #F60101",
"R%	c #F80000",
"S%	c #FD0000",
"T%	c #D10905",
"U%	c #7F1D12",
"V%	c #413C2A",
"W%	c #4B483B",
"X%	c #4F4D44",
"Y%	c #474437",
"Z%	c #582C1E",
"`%	c #934941",
" &	c #D65F5F",
".&	c #E94B4C",
"+&	c #E72E2E",
"@&	c #E31818",
"#&	c #EA0000",
"$&	c #F00202",
"%&	c #F90000",
"&&	c #E20301",
"*&	c #841B10",
"=&	c #3F3A2A",
"-&	c #4C483C",
";&	c #5C5A51",
">&	c #65635D",
",&	c #514E44",
"'&	c #34301A",
")&	c #626657",
"!&	c #A39A93",
"~&	c #E4BCBC",
"{&	c #F4B3B4",
"]&	c #E68383",
"^&	c #E26161",
"/&	c #DF3B3B",
"(&	c #E51A1A",
"_&	c #D10B0A",
":&	c #950F09",
"<&	c #6D180D",
"[&	c #393521",
"}&	c #4C493D",
"|&	c #6B6966",
"1&	c #8A8A8A",
"2&	c #7B7B77",
"3&	c #59564A",
"4&	c #636E5F",
"5&	c #9FA59B",
"6&	c #D3D4CF",
"7&	c #D6C9C6",
"8&	c #F7DBDC",
"9&	c #F6C4C6",
"0&	c #EF9C9C",
"a&	c #E15E60",
"b&	c #A71511",
"c&	c #5D190B",
"d&	c #303A28",
"e&	c #47483B",
"f&	c #6A6A67",
"g&	c #88898A",
"h&	c #8E8F90",
"i&	c #6F6E66",
"j&	c #4C4939",
"k&	c #6B695A",
"l&	c #7F8274",
"m&	c #77796B",
"n&	c #CED0CB",
"o&	c #F4F7F7",
"p&	c #CEA8A4",
"q&	c #8B352A",
"r&	c #522212",
"s&	c #46463A",
"t&	c #676965",
"u&	c #888889",
"v&	c #8D8C8C",
"w&	c #6C6A61",
"x&	c #474331",
"y&	c #4F4A37",
"z&	c #777468",
"A&	c #B3B3AC",
"B&	c #F3F6F6",
"C&	c #C7C2BF",
"D&	c #695446",
"E&	c #423324",
"F&	c #5B5B57",
"G&	c #868588",
"H&	c #8F8F8F",
"I&	c #73716A",
"J&	c #524E3F",
"K&	c #646151",
"L&	c #C9C8C2",
"M&	c #E8EBEA",
"N&	c #A4A69E",
"O&	c #5B5C51",
"P&	c #696966",
"Q&	c #838382",
"R&	c #727069",
"S&	c #4C4838",
"T&	c #53513F",
"U&	c #848275",
"V&	c #B2B0A9",
"W&	c #C5C3BF",
"X&	c #69665B",
"Y&	c #5B5950",
"Z&	c #5D5B4F",
"`&	c #4E4A3A",
" *	c #5D5748",
".*	c #6C695A",
"+*	c #453F2D",
"@*	c #37321C",
"                                                                                            ",
"                                                                                            ",
"                                                                                            ",
"                                                                                            ",
"                                                                                            ",
"                  . + @ # $ % &                                                             ",
"              * = - ; > , ' ) ! ~                                                           ",
"              { ] ^ / ( _ : < [ } |                                                         ",
"          1 2 3 4 5 6 7 8 9 0 a b c d                                                       ",
"          e f g h i j 6 k l m n o p q r                                                     ",
"      s t u v w k x y z A y B k A C D E                                                     ",
"      F G H I J K L j y y M N O P Q R S T               U V W X Y                           ",
"    Z `  ...M +.@.A #.P $.%.&.n *.=.-.;.>.              ,.'.).!.~.{.                        ",
"  ].^./.(._.7 K K K i y P y :.<.[.}.|.1.2.3.        4.5.6.7.8.9.0.a.                        ",
"b.c.d.e.f.g.K K K K i y #.h.i.j.k.l.m.n.o.p.q.  r.s.t.u.v.w.8.8.x.y.                        ",
"z.A.B.C.D.E.K K 7 7 %.v v F.G.H.I.J.K.L.M.N.O.P.Q.R.S.T.U.8.V.W.X.Y.                        ",
"Z.`. +.+++z @.K O @+#+6 $+%+&+*+=+-+;+>+,+'+)+!+~+{+]+^+/+(+_+:+<+[+                        ",
"}+|+1+$+2+#.K K 3+4+5+6+7+8+9+0+a+b+c+d+e+f+g+h+i+j+k+l+m+n+o+p+                            ",
"q+r+s+t+y $.h.K k k u+v+w+x+y+z+A+B+C+D+E+F+G+H+I+J+K+L+M+N+O+P+                            ",
"Q+R+S+L T+j h.O U+z V+W+X+Y+Z+`+B+ @.@+@@@#@$@%@&@*@=@-@;@>@,@'@                            ",
")@!@~@$.{@M -.]@6 ^@/@(@_@Z+:@<@[@ @}@|@1@2@3@4@5@6@7@8@9@0@a@                              ",
"b@c@d@e@%.l 5+O f@g@h@i@j@k@l@m@n@o@ @B+B+p@q@r@s@t@u@v@w@x@y@                              ",
"  z@A@B@C@D@E@F@G@H@I@J@K@L@M@N@O@P@Q@B+c+R@S@T@U@V@W@X@Y@Z@                                ",
"  `@ #g..#V++#@###$#%#&#*#=#-#;#>#,#'#R@)#!#~#{#]#^#/#(#_#:#                                ",
"  <#[#}#|#1#2#3#4#i 5#6#7#8#9#0#a#$@b#c#d#e#f#g#h#i#j#k#l#                                  ",
"    m#n#o#p#q##.r#s#t#u#v#w#x#c+y#z#A#B#C#D#E#F#G#H#I#J#K#                                  ",
"      L#M#N#O#P#Q#R#S#T#U#V#c+[@5@W#X#Y#Z#`# $.$+$@$#$$$                                    ",
"          %$&$G.*$=$-$;$>$,$'$Q@ @)$}@!$~${$]$^$/$($_$                                      ",
"            :$<$[$}$|$1$2$3$4$5$ @Q@Q@x#c+6$7$8$9$0$a$                                      ",
"              b$c$d$e$f$g$h$i$j$R@}@B+k$l$m$n$o$p$q$r$                                      ",
"                  s$t$u$E v$w$x$y$z$A$B$C$D$E$F$G$H$I$                                      ",
"                    J$K$L$M$N$O$P$Q$R$S$T$U$V$W$X$Y$Z$`$                                    ",
"                     %.%+%@%#%$%%%&%*%=%-%;%>%,%'%)%!%~%                                    ",
"                      {%]%^%/%(%_%:%<%[%}%|%1%2%3%4%5%6%                                    ",
"                        7%8%9%0%a%b%c%d%e%f%g%h%i%j%k%l%                  m%n%o%            ",
"                          {.p%q%r%s%t%u%u%u%u%u%u%u%v%w%x%              y%z%A%B%            ",
"                                C%D%d%u%u%E%u%u%u%u%f%F%G%            H%I%J%K%              ",
"                                  L%M%N%O%P%Q%R%S%u%S%T%U%          V%W%X%Y%                ",
"                                    Z%`% &.&+&@&#&$&%&&&*&      =&-&;&>&,&'&                ",
"                                      )&!&~&{&]&^&/&(&_&:&<&  [&}&|&1&2&3&                  ",
"                                        4&5&6&7&8&9&0&a&b&c&d&e&f&g&h&i&j&                  ",
"                                          k&l&m&n&o&8.p&q&r&s&t&u&v&w&x&                    ",
"                                              y&z&A&B&C&D&E&F&G&H&I&J&                      ",
"                                                  K&L&M&N&O&P&Q&R&S&                        ",
"                                                  T&U&V&W&X&Y&Z&`&                          ",
"                                                       *.*+*  @*                            "};
