/* XPM */
static char * playerOne09_xpm[] = {
"46 46 777 2",
"  	c None",
". 	c #4B4735",
"+ 	c #504C3C",
"@ 	c #524E3E",
"# 	c #565142",
"$ 	c #44402D",
"% 	c #5E5C4F",
"& 	c #5F5C50",
"* 	c #6D6A61",
"= 	c #726F67",
"- 	c #716E66",
"; 	c #787771",
"> 	c #6A6961",
", 	c #5A594D",
"' 	c #504C3E",
") 	c #484537",
"! 	c #494739",
"~ 	c #474336",
"{ 	c #575449",
"] 	c #72716B",
"^ 	c #82817F",
"/ 	c #888887",
"( 	c #8C8B8A",
"_ 	c #878787",
": 	c #868687",
"< 	c #777776",
"[ 	c #63625C",
"} 	c #706F65",
"| 	c #89857B",
"1 	c #7A7468",
"2 	c #4A4739",
"3 	c #4E4B41",
"4 	c #4C4A3E",
"5 	c #4D4A40",
"6 	c #56544A",
"7 	c #67665F",
"8 	c #787775",
"9 	c #787876",
"0 	c #737472",
"a 	c #6E716D",
"b 	c #646964",
"c 	c #5C5752",
"d 	c #534F44",
"e 	c #8A8B82",
"f 	c #ADADA5",
"g 	c #8F8C81",
"h 	c #4A4738",
"i 	c #4C493C",
"j 	c #494537",
"k 	c #534F43",
"l 	c #555248",
"m 	c #535046",
"n 	c #4D4B3F",
"o 	c #444B3D",
"p 	c #433F31",
"q 	c #492C1E",
"r 	c #5D4033",
"s 	c #A39B94",
"t 	c #D0D3CF",
"u 	c #ACABA3",
"v 	c #4F1F10",
"w 	c #6E1B0F",
"x 	c #93493E",
"y 	c #C7B3AE",
"z 	c #E2E9E5",
"A 	c #AAAAA2",
"B 	c #696657",
"C 	c #781006",
"D 	c #A31712",
"E 	c #CA5452",
"F 	c #EEC8C7",
"G 	c #EAECEA",
"H 	c #AAACA4",
"I 	c #636051",
"J 	c #901109",
"K 	c #B9110E",
"L 	c #E34042",
"M 	c #F5A7A9",
"N 	c #F2E6E6",
"O 	c #BBC0B9",
"P 	c #6C6C5D",
"Q 	c #7F1E13",
"R 	c #AE100A",
"S 	c #DE0503",
"T 	c #ED1213",
"U 	c #EE6768",
"V 	c #F1C0C1",
"W 	c #C9C5C0",
"X 	c #8B8F82",
"Y 	c #54281A",
"Z 	c #891910",
"` 	c #CE0906",
" .	c #F90000",
"..	c #F80202",
"+.	c #EC2A2A",
"@.	c #EA7E7F",
"#.	c #DABBB8",
"$.	c #AFB1A8",
"%.	c #858E81",
"&.	c #652317",
"*.	c #A0130C",
"=.	c #E20503",
"-.	c #FF0000",
";.	c #FB0000",
">.	c #EE0606",
",.	c #E83D3E",
"'.	c #E89393",
").	c #CABAB5",
"!.	c #92988D",
"~.	c #8C1C11",
"{.	c #C90B07",
"].	c #FD0100",
"^.	c #F70000",
"/.	c #EF1515",
"(.	c #EF5B5C",
"_.	c #D79C9B",
":.	c #9D9B93",
"<.	c #7D2015",
"[.	c #AA120C",
"}.	c #DF0503",
"|.	c #FE0000",
"1.	c #FD0000",
"2.	c #F80404",
"3.	c #F22628",
"4.	c #DC6364",
"5.	c #98776F",
"6.	c #5F6959",
"7.	c #8B130A",
"8.	c #B60704",
"9.	c #C90403",
"0.	c #D40503",
"a.	c #E60000",
"b.	c #FA090A",
"c.	c #DD2828",
"d.	c #993F38",
"e.	c #5F4234",
"f.	c #7A0D03",
"g.	c #97100B",
"h.	c #9F2C27",
"i.	c #963027",
"j.	c #AF100C",
"k.	c #E00000",
"l.	c #FF0001",
"m.	c #EC0808",
"n.	c #A31B14",
"o.	c #562718",
"p.	c #562B19",
"q.	c #722D21",
"r.	c #8B4B42",
"s.	c #9D827B",
"t.	c #958981",
"u.	c #8A4139",
"v.	c #BC0705",
"w.	c #F40000",
"x.	c #F30101",
"y.	c #AA0F08",
"z.	c #642012",
"A.	c #767367",
"B.	c #796D62",
"C.	c #816F67",
"D.	c #9F9B94",
"E.	c #B3C1BE",
"F.	c #9DAEA9",
"G.	c #84635D",
"H.	c #9B1513",
"I.	c #D40000",
"J.	c #E20101",
"K.	c #DC0503",
"L.	c #D10807",
"M.	c #A3140F",
"N.	c #6C2114",
"O.	c #59574B",
"P.	c #67645C",
"Q.	c #7A7974",
"R.	c #848783",
"S.	c #83847F",
"T.	c #838682",
"U.	c #8F9490",
"V.	c #888880",
"W.	c #715C52",
"X.	c #712A24",
"Y.	c #83130F",
"Z.	c #8D140D",
"`.	c #861F19",
" +	c #862C25",
".+	c #78372F",
"++	c #603F33",
"@+	c #605D50",
"#+	c #6D685F",
"$+	c #71675B",
"%+	c #796A5C",
"&+	c #837362",
"*+	c #8D7C68",
"=+	c #997F65",
"-+	c #95775D",
";+	c #A08366",
">+	c #9A7F63",
",+	c #7F5D49",
"'+	c #6D4939",
")+	c #573F31",
"!+	c #4E4136",
"~+	c #544E45",
"{+	c #5B5C51",
"]+	c #5B5F52",
"^+	c #766E61",
"/+	c #898275",
"(+	c #7B756A",
"_+	c #736E64",
":+	c #7A6F65",
"<+	c #8F7B69",
"[+	c #9C8067",
"}+	c #987B5E",
"|+	c #A18263",
"1+	c #B9916B",
"2+	c #DDAC7D",
"3+	c #E5B381",
"4+	c #E8B885",
"5+	c #E2B686",
"6+	c #CAA67A",
"7+	c #AD906C",
"8+	c #88765B",
"9+	c #625F4D",
"0+	c #54574D",
"a+	c #585E54",
"b+	c #5F6054",
"c+	c #5A5749",
"d+	c #665D4C",
"e+	c #7C7365",
"f+	c #9B988F",
"g+	c #B1B4B0",
"h+	c #A6A7A2",
"i+	c #968A7A",
"j+	c #9F856D",
"k+	c #B18F6F",
"l+	c #B19172",
"m+	c #A28C75",
"n+	c #A28E7B",
"o+	c #BD9D80",
"p+	c #DBB187",
"q+	c #F7C894",
"r+	c #FFD29C",
"s+	c #FFCF9A",
"t+	c #FCCB96",
"u+	c #EFC290",
"v+	c #D6AD80",
"w+	c #9F8364",
"x+	c #736757",
"y+	c #636158",
"z+	c #626058",
"A+	c #5C594D",
"B+	c #545041",
"C+	c #5B574A",
"D+	c #7B766B",
"E+	c #A3998F",
"F+	c #B1B1AC",
"G+	c #A5C4CF",
"H+	c #9ACBDE",
"I+	c #98ADAF",
"J+	c #B29E84",
"K+	c #CCA177",
"L+	c #BB9671",
"M+	c #8D7C6B",
"N+	c #7E7C7A",
"O+	c #7C7B7B",
"P+	c #786F68",
"Q+	c #9D856C",
"R+	c #DBB388",
"S+	c #F8CA98",
"T+	c #FFCF9B",
"U+	c #FFD39D",
"V+	c #F3C693",
"W+	c #C7A27B",
"X+	c #92806D",
"Y+	c #72716C",
"Z+	c #656661",
"`+	c #5D5C52",
" @	c #545143",
".@	c #736F65",
"+@	c #7A776C",
"@@	c #94938B",
"#@	c #BAB6AE",
"$@	c #DFDBD7",
"%@	c #CEE8F4",
"&@	c #84D1F6",
"*@	c #409BC6",
"=@	c #557C87",
"-@	c #B69A7A",
";@	c #E3B283",
">@	c #BC9874",
",@	c #796959",
"'@	c #7D7772",
")@	c #887D73",
"!@	c #837263",
"~@	c #9B8168",
"{@	c #D8B086",
"]@	c #FFD19D",
"^@	c #FFCF9C",
"/@	c #F6CB96",
"(@	c #CDA880",
"_@	c #97816D",
":@	c #726C63",
"<@	c #64635C",
"[@	c #5B5A51",
"}@	c #575547",
"|@	c #929087",
"1@	c #B4B3AD",
"2@	c #C5C4BF",
"3@	c #D9D8D6",
"4@	c #F7F3F1",
"5@	c #EEFAFC",
"6@	c #A6E5FF",
"7@	c #57BDEF",
"8@	c #2981AB",
"9@	c #6D7773",
"0@	c #D0A87E",
"a@	c #F3C291",
"b@	c #CAA47E",
"c@	c #B29272",
"d@	c #BE9F7C",
"e@	c #CCA881",
"f@	c #D2AC83",
"g@	c #EBBF91",
"h@	c #F7CB9B",
"i@	c #FBD19D",
"j@	c #FFD09D",
"k@	c #FCCF9B",
"l@	c #D7AF85",
"m@	c #91765D",
"n@	c #645444",
"o@	c #575044",
"p@	c #535349",
"q@	c #535244",
"r@	c #716E61",
"s@	c #A4A29B",
"t@	c #E4E4E1",
"u@	c #FEFEFF",
"v@	c #FDFDFD",
"w@	c #FFFFFF",
"x@	c #E6FDFF",
"y@	c #7AD6FF",
"z@	c #32A8E4",
"A@	c #347899",
"B@	c #968C7A",
"C@	c #F0C290",
"D@	c #FFD19C",
"E@	c #EFC393",
"F@	c #EEC292",
"G@	c #F9CD99",
"H@	c #FCCF99",
"I@	c #FCD29C",
"J@	c #F9CF9A",
"K@	c #DCB58A",
"L@	c #D0AE87",
"M@	c #E6C194",
"N@	c #FCCF9C",
"O@	c #FFD29D",
"P@	c #FACF9B",
"Q@	c #CCA87F",
"R@	c #84694E",
"S@	c #5F472F",
"T@	c #584530",
"U@	c #4D4A3E",
"V@	c #575343",
"W@	c #A09E98",
"X@	c #EBEBEA",
"Y@	c #FEFEFE",
"Z@	c #FDFEFD",
"`@	c #ECFDFE",
" #	c #B2EBFF",
".#	c #70BCDF",
"+#	c #538397",
"@#	c #9F9078",
"##	c #EDC593",
"$#	c #E2BF92",
"%#	c #D9B389",
"&#	c #F0C696",
"*#	c #FDD39E",
"=#	c #FFD59E",
"-#	c #FFD49D",
";#	c #F2C894",
">#	c #C6A37B",
",#	c #AA8D70",
"'#	c #CFAB85",
")#	c #FFD49F",
"!#	c #FAD09C",
"~#	c #C6A37D",
"{#	c #7F654B",
"]#	c #6D4E2E",
"^#	c #694B2D",
"/#	c #554330",
"(#	c #5A5647",
"_#	c #949189",
":#	c #C6C5C2",
"<#	c #D9D9D5",
"[#	c #D8D7D4",
"}#	c #D6D4D1",
"|#	c #E2E3E1",
"1#	c #E1EFF0",
"2#	c #B7D9E5",
"3#	c #748E95",
"4#	c #A3947B",
"5#	c #D9B689",
"6#	c #BC9F7B",
"7#	c #AC8F70",
"8#	c #D5AE84",
"9#	c #F8CB97",
"0#	c #FECD99",
"a#	c #EFC08E",
"b#	c #CA9F74",
"c#	c #B58E6B",
"d#	c #DBAE82",
"e#	c #F9C995",
"f#	c #FFD59F",
"g#	c #F0C896",
"h#	c #B3936F",
"i#	c #7D6144",
"j#	c #7E5831",
"k#	c #855B31",
"l#	c #68492D",
"m#	c #46372B",
"n#	c #8F8D83",
"o#	c #8E8C84",
"p#	c #89867E",
"q#	c #A49F95",
"r#	c #B7B3AB",
"s#	c #A1A7A5",
"t#	c #828480",
"u#	c #9B8973",
"v#	c #D2AD84",
"w#	c #C7A179",
"x#	c #B5906B",
"y#	c #D1A579",
"z#	c #F7C591",
"A#	c #FFCD9A",
"B#	c #F5C38E",
"C#	c #DBAA79",
"D#	c #CA9A6D",
"E#	c #D8A676",
"F#	c #F1BE8A",
"G#	c #FFD19B",
"H#	c #E2BC8E",
"I#	c #9C7F60",
"J#	c #735537",
"K#	c #8D5F31",
"L#	c #9B6836",
"M#	c #7B5430",
"N#	c #59432C",
"O#	c #595545",
"P#	c #504B3C",
"Q#	c #5E594B",
"R#	c #726C5E",
"S#	c #6C675D",
"T#	c #655D55",
"U#	c #8D7863",
"V#	c #D4AA7F",
"W#	c #D9AA79",
"X#	c #D0A06F",
"Y#	c #E2AE7C",
"Z#	c #FFCE9B",
"`#	c #FFCE9A",
" $	c #FBCA95",
".$	c #EFBC87",
"+$	c #E3AF7C",
"@$	c #E5B17D",
"#$	c #F0BC88",
"$$	c #F7C994",
"%$	c #CCA87D",
"&$	c #876B4E",
"*$	c #745231",
"=$	c #936231",
"-$	c #A46D37",
";$	c #926233",
">$	c #6B4D2D",
",$	c #473A2D",
"'$	c #826E59",
")$	c #C29C73",
"!$	c #E4B17C",
"~$	c #E6B07B",
"{$	c #EEBD89",
"]$	c #FBCD99",
"^$	c #FFD09B",
"/$	c #FDCC97",
"($	c #FAC792",
"_$	c #F9C791",
":$	c #EBBB8A",
"<$	c #CDA57A",
"[$	c #A2815D",
"}$	c #826140",
"|$	c #8A6137",
"1$	c #A2703E",
"2$	c #AA743F",
"3$	c #A06C3A",
"4$	c #7A542F",
"5$	c #58412D",
"6$	c #716250",
"7$	c #B59671",
"8$	c #E7B885",
"9$	c #F7C38E",
"0$	c #FFCE98",
"a$	c #FECF9A",
"b$	c #FDCB98",
"c$	c #F9C996",
"d$	c #F7C793",
"e$	c #F4C491",
"f$	c #ECBE8F",
"g$	c #DEB286",
"h$	c #C39C74",
"i$	c #947453",
"j$	c #75593A",
"k$	c #825C35",
"l$	c #A37342",
"m$	c #B6824E",
"n$	c #B7814D",
"o$	c #AD7845",
"p$	c #916439",
"q$	c #77532E",
"r$	c #5E4F3F",
"s$	c #A18261",
"t$	c #D6AC7F",
"u$	c #E7BB8C",
"v$	c #E9BB8C",
"w$	c #DEB184",
"x$	c #CFA57D",
"y$	c #CAA179",
"z$	c #BF9872",
"A$	c #B4906D",
"B$	c #AB8968",
"C$	c #95785B",
"D$	c #84674B",
"E$	c #765737",
"F$	c #7D5832",
"G$	c #97693B",
"H$	c #B37F4C",
"I$	c #BE8B57",
"J$	c #BD8A56",
"K$	c #BC8853",
"L$	c #AB7946",
"M$	c #8F6131",
"N$	c #5B4833",
"O$	c #816242",
"P$	c #9C7A56",
"Q$	c #A28463",
"R$	c #9C7E60",
"S$	c #977759",
"T$	c #83694F",
"U$	c #7F654A",
"V$	c #71573D",
"W$	c #6E543A",
"X$	c #705337",
"Y$	c #745232",
"Z$	c #865D34",
"`$	c #A0713F",
" %	c #B3804C",
".%	c #B98552",
"+%	c #B98654",
"@%	c #B98653",
"#%	c #BE8A56",
"$%	c #B07D49",
"%%	c #916334",
"&%	c #614933",
"*%	c #7D5934",
"=%	c #7F5D39",
"-%	c #725738",
";%	c #6A5035",
">%	c #6B4E31",
",%	c #6C4E2E",
"'%	c #6D4E2D",
")%	c #74502D",
"!%	c #774F29",
"~%	c #734D26",
"{%	c #7F552C",
"]%	c #936437",
"^%	c #A67442",
"/%	c #B5814D",
"(%	c #B7834F",
"_%	c #AF7C49",
":%	c #AA7745",
"<%	c #AB7745",
"[%	c #AF7B48",
"}%	c #A67545",
"|%	c #845F3A",
"1%	c #5C462E",
"2%	c #4A3E33",
"3%	c #745538",
"4%	c #95683C",
"5%	c #986A3B",
"6%	c #855C31",
"7%	c #7C5428",
"8%	c #805528",
"9%	c #8A5C2E",
"0%	c #946536",
"a%	c #9B6A3A",
"b%	c #9A6635",
"c%	c #95622F",
"d%	c #986430",
"e%	c #A5713D",
"f%	c #AE7A46",
"g%	c #AF7A47",
"h%	c #AA7643",
"i%	c #A16D3B",
"j%	c #9D6A38",
"k%	c #9D6A37",
"l%	c #A36E39",
"m%	c #A27141",
"n%	c #7B5C3F",
"o%	c #534639",
"p%	c #544331",
"q%	c #805D38",
"r%	c #AB7945",
"s%	c #A5723E",
"t%	c #966430",
"u%	c #9B6833",
"v%	c #A6723E",
"w%	c #B07C48",
"x%	c #B6814D",
"y%	c #B17C48",
"z%	c #A46F3B",
"A%	c #9B6733",
"B%	c #A36F3C",
"C%	c #A87541",
"D%	c #A77440",
"E%	c #A4713E",
"F%	c #A06D3A",
"G%	c #A16D3A",
"H%	c #A8723D",
"I%	c #A47445",
"J%	c #806245",
"K%	c #554A3E",
"L%	c #574532",
"M%	c #896238",
"N%	c #AF7B47",
"O%	c #B8824F",
"P%	c #AB7742",
"Q%	c #9C6934",
"R%	c #A06E3A",
"S%	c #B07E4A",
"T%	c #B98652",
"U%	c #B4814E",
"V%	c #A87542",
"W%	c #9E6B39",
"X%	c #A26F3D",
"Y%	c #A77441",
"Z%	c #AA7744",
"`%	c #AE7B48",
" &	c #AE7C48",
".&	c #B07D4A",
"+&	c #B4804D",
"@&	c #B27E4A",
"#&	c #A4774B",
"$&	c #7C6148",
"%&	c #5C4937",
"&&	c #88623C",
"*&	c #AA7642",
"=&	c #AC7844",
"-&	c #9E6B38",
";&	c #B78451",
">&	c #BA8754",
",&	c #B4814D",
"'&	c #AF7C48",
")&	c #A97643",
"!&	c #A57240",
"~&	c #A67340",
"{&	c #B68350",
"]&	c #B5824F",
"^&	c #BB8752",
"/&	c #B78450",
"(&	c #9E774F",
"_&	c #6F5B46",
":&	c #55473B",
"<&	c #8A6845",
"[&	c #A87642",
"}&	c #A16D38",
"|&	c #A16E39",
"1&	c #B27F4C",
"2&	c #B17E4B",
"3&	c #AA7845",
"4&	c #AB7845",
"5&	c #B4804E",
"6&	c #B17E49",
"7&	c #B4814B",
"8&	c #AE7F4F",
"9&	c #8E6C4C",
"0&	c #635243",
"a&	c #564A40",
"b&	c #93724D",
"c&	c #A36E38",
"d&	c #9C6936",
"e&	c #B3804D",
"f&	c #AC7A47",
"g&	c #B27D48",
"h&	c #B37D49",
"i&	c #B17F4D",
"j&	c #9F7A55",
"k&	c #7B6752",
"l&	c #595246",
"m&	c #584C41",
"n&	c #84684C",
"o&	c #A97D4F",
"p&	c #AB7641",
"q&	c #9F6B37",
"r&	c #A87744",
"s&	c #A87643",
"t&	c #AC7845",
"u&	c #B07B47",
"v&	c #B7814A",
"w&	c #B4804A",
"x&	c #AC7C4E",
"y&	c #9B7752",
"z&	c #877159",
"A&	c #6E6558",
"B&	c #6F5B48",
"C&	c #95734F",
"D&	c #AD7D4C",
"E&	c #AC7843",
"F&	c #A87540",
"G&	c #AD7946",
"H&	c #B07E4B",
"I&	c #AE7B49",
"J&	c #AB7843",
"K&	c #B07B45",
"L&	c #B17F4E",
"M&	c #B48251",
"N&	c #AC7F52",
"O&	c #8D6E4E",
"P&	c #6C5B46",
"Q&	c #605748",
"R&	c #5F5D52",
"S&	c #7C644A",
"T&	c #A27A51",
"U&	c #B2804F",
"V&	c #B37E4A",
"W&	c #B27C48",
"X&	c #B07B48",
"Y&	c #B47F4A",
"Z&	c #B7824D",
"`&	c #A37950",
" *	c #937151",
".*	c #8B6C4F",
"+*	c #7B654E",
"@*	c #635746",
"#*	c #494437",
"$*	c #665645",
"%*	c #8A6B4C",
"&*	c #9E7751",
"**	c #AB7D51",
"=*	c #B07E4E",
"-*	c #B78350",
";*	c #B68351",
">*	c #B28251",
",*	c #B38353",
"'*	c #AB7E51",
")*	c #A27951",
"!*	c #9D7752",
"~*	c #7A6249",
"{*	c #5B5042",
"]*	c #575043",
"^*	c #534D41",
"/*	c #484439",
"(*	c #3C392B",
"_*	c #6F5A47",
":*	c #80654B",
"<*	c #916F4E",
"[*	c #967250",
"}*	c #987350",
"|*	c #83684C",
"1*	c #7E654B",
"2*	c #6E5A46",
"3*	c #635344",
"4*	c #544A3D",
"5*	c #424034",
"6*	c #3F4034",
"7*	c #454438",
"8*	c #5F5042",
"9*	c #605043",
"0*	c #564A3F",
"a*	c #564B40",
"b*	c #48403B",
"                                  . + @ # + $                                               ",
"                              % & * = - ; > , '                                             ",
"                      ) ! ~ { ] ^ / ( _ : < [ } | 1                                         ",
"                    2 3 4 5 6 7 8 9 0 a b c d e f g                                         ",
"                    h i 2 j i k l m n o p q r s t u                                         ",
"                                        v w x y z A B                                       ",
"                                        C D E F G H I                                       ",
"                                        J K L M N O P                                       ",
"                                      Q R S T U V W X                                       ",
"                                    Y Z `  ...+.@.#.$.%.                                    ",
"                                    &.*.=.-.;.>.,.'.).!.                                    ",
"                                    ~.{.].-.-.^./.(._.:.                                    ",
"                                  <.[.}. .|.-.1.2.3.4.5.6.                                  ",
"                                  7.8.9.0.a.1.-.1.b.c.d.e.                                  ",
"                                  f.g.h.i.j.k.;.-.l.m.n.o.                                  ",
"                                p.q.r.s.t.u.v.w.-.-.x.y.z.                                  ",
"                              A.B.C.D.E.F.G.H.I.J.K.L.M.N.                                  ",
"                          O.P.Q.R.S.T.U.V.W.X.Y.Z.`. +.+++                                  ",
"                      @+* #+$+%+&+*+=+-+;+>+,+'+)+!+~+{+]+                                  ",
"                ^+/+(+_+:+<+[+}+|+1+2+3+4+5+6+7+8+9+0+a+b+c+                                ",
"            d+e+f+g+h+i+j+k+l+m+n+o+p+q+r+s+t+u+v+w+x+y+z+A+B+                              ",
"        C+D+E+F+G+H+I+J+K+L+M+N+O+P+Q+R+S+T+T+U+V+W+X+Y+Z+`+ @                              ",
"    .@+@@@#@$@%@&@*@=@-@;@>@,@'@)@!@~@{@S+]@^@]@/@(@_@:@<@[@}@                              ",
"  |@1@2@3@4@5@6@7@8@9@0@a@b@c@d@e@f@{@g@h@i@j@j@k@l@m@n@o@p@q@                              ",
"r@s@t@u@v@w@x@y@z@A@B@C@D@E@F@G@H@I@J@K@L@M@N@O@P@Q@R@S@T@U@                                ",
"V@W@X@v@Y@Z@`@ #.#+#@###$#%#&#*#=#-#;#>#,#'#N@)#!#~#{#]#^#/#                                ",
"(#_#:#<#[#}#|#1#2#3#4#5#6#7#8#9#D@0#a#b#c#d#e#f#g#h#i#j#k#l#m#                              ",
"    n#n#o#p#q#r#s#t#u#v#w#x#y#z#T+A#B#C#D#E#F#G#H#I#J#K#L#M#N#                              ",
"      O#P#  Q#R#S#T#U#V#W#X#Y#z#Z#`# $.$+$@$#$$$%$&$*$=$-$;$>$,$                            ",
"                    '$)$!$~${$]$]@^$O@/$($_$:$<$[$}$|$1$2$3$4$5$                            ",
"                    6$7$8$9$0$a$b$c$d$e$f$g$h$i$j$k$l$m$n$o$p$q$                            ",
"                    r$s$t$u$v$w$x$y$z$A$B$C$D$E$F$G$H$I$J$K$L$M$                            ",
"                    N$O$P$Q$R$S$T$U$i#V$W$X$Y$Z$`$ %.%+%@%#%$%%%                            ",
"                    &%*%=%-%;%>%,%'%)%!%~%{%]%^%/%(%_%:%<%[%}%|%1%                          ",
"                  2%3%4%5%6%7%8%9%0%a%b%c%d%e%f%g%h%i%j%k%l%m%n%o%                          ",
"                  p%q%r%n$s%t%u%v%w%x%y%z%A%B%C%D%E%3$F%G%H%I%J%K%                          ",
"                  L%M%N%O%P%Q%R%S%T%T%U%V%W%X%Y%Z%`% &.&+&@&#&$&                            ",
"                  %&&&*&=&E%-&V%;&>&,&'&)&!&~&)&`%{&;&]&^&/&(&_&                            ",
"                  :&<&[&}&|&~&1&@%@%2&3&Z%Z%)&4&.&]&5&6&7&8&9&0&                            ",
"                  a&b&S%c&d&V%e&]&;&e&f&Z%Z%Z%3& &@&g&h&i&j&k&l&                            ",
"                  m&n&o&p&q&E%_%e&e&_%L$r&s&h%t&u&v&w&x&y&z&A&                              ",
"                    B&C&D&E&F&G&H&I&Z%s&)&J&K&@&L&M&N&O&P&Q&R&                              ",
"                      S&T&U&V&W&V&X&W&g&Y&Z&]&`& *.*+*@*#*                                  ",
"                      $*%*&***=*-*;*>*,*'*)*!*~*{*]*^*/*(*                                  ",
"                          _*:*<*[*}*O&|*1*2*3*4*5*6*7*                                      ",
"                              8*9*0*a*b*                                                    "};
