/* XPM */
static char * playerOne16_xpm[] = {
"46 46 500 2",
"  	c None",
". 	c #2D2812",
"+ 	c #474331",
"@ 	c #4E4A39",
"# 	c #514D3C",
"$ 	c #A2A19C",
"% 	c #D7D8D9",
"& 	c #CECDCB",
"* 	c #A1A09A",
"= 	c #312C17",
"- 	c #5D594A",
"; 	c #F5F5F6",
"> 	c #FFFFFF",
", 	c #DDDDDF",
"' 	c #545040",
") 	c #2F2914",
"! 	c #AAA9A5",
"~ 	c #FAFAFB",
"{ 	c #F0F1F2",
"] 	c #93918A",
"^ 	c #221C05",
"/ 	c #636052",
"( 	c #E1E2E3",
"_ 	c #FDFDFD",
": 	c #CCCCCC",
"< 	c #737064",
"[ 	c #494433",
"} 	c #413D2C",
"| 	c #4D4A3F",
"1 	c #342F18",
"2 	c #38331E",
"3 	c #BBBBBA",
"4 	c #FAFAFA",
"5 	c #F5F6F9",
"6 	c #86847B",
"7 	c #29230D",
"8 	c #3E3928",
"9 	c #666667",
"0 	c #393420",
"a 	c #231D06",
"b 	c #9B9992",
"c 	c #FBFCFD",
"d 	c #FBFEFF",
"e 	c #A3E2FF",
"f 	c #FFFDFB",
"g 	c #BFBFBE",
"h 	c #3A3521",
"i 	c #36301A",
"j 	c #5B5A55",
"k 	c #49463A",
"l 	c #E1E1E4",
"m 	c #00ABFF",
"n 	c #1BB7FF",
"o 	c #B5EAFF",
"p 	c #D2EAF5",
"q 	c #EDE5E2",
"r 	c #78766B",
"s 	c #28220C",
"t 	c #454233",
"u 	c #5E5E5B",
"v 	c #35301A",
"w 	c #2F2A15",
"x 	c #A6A5A1",
"y 	c #FFFCF5",
"z 	c #6ED3FF",
"A 	c #00A0F3",
"B 	c #0095DD",
"C 	c #00ACFF",
"D 	c #35C2FF",
"E 	c #FFFFFA",
"F 	c #B8B7B5",
"G 	c #35301B",
"H 	c #5F5F5E",
"I 	c #474334",
"J 	c #484433",
"K 	c #6C685B",
"L 	c #D8E9F2",
"M 	c #07B2FF",
"N 	c #019FE8",
"O 	c #0078AE",
"P 	c #007AB1",
"Q 	c #00A8F9",
"R 	c #E4F9FF",
"S 	c #E3E0E0",
"T 	c #545141",
"U 	c #312C14",
"V 	c #565347",
"W 	c #97989A",
"X 	c #777570",
"Y 	c #322D17",
"Z 	c #3E3926",
"` 	c #C9C9C9",
" .	c #1AB9FF",
"..	c #0080BC",
"+.	c #0078AD",
"@.	c #0076AB",
"#.	c #0091DA",
"$.	c #74D9FF",
"%.	c #FFFAF5",
"&.	c #C4C3C0",
"*.	c #9E9D97",
"=.	c #302B16",
"-.	c #56544D",
";.	c #8C8C8C",
">.	c #8F8F8F",
",.	c #413C2A",
"'.	c #2A250F",
").	c #8D8B83",
"!.	c #FFF5F0",
"~.	c #92E2FF",
"{.	c #0096E3",
"].	c #0079AF",
"^.	c #007FB9",
"/.	c #0BB3FF",
"(.	c #FEFFFF",
"_.	c #DBDCDD",
":.	c #504C3B",
"<.	c #36301B",
"[.	c #575651",
"}.	c #808081",
"|.	c #949496",
"1.	c #636056",
"2.	c #302A14",
"3.	c #D9D7D8",
"4.	c #F6FDFF",
"5.	c #01AEFE",
"6.	c #007CB5",
"7.	c #0079B0",
"8.	c #0076AC",
"9.	c #009CED",
"0.	c #A9E7FF",
"a.	c #F0FDFF",
"b.	c #FAF2F0",
"c.	c #929189",
"d.	c #666255",
"e.	c #2D2711",
"f.	c #433F31",
"g.	c #6F6F71",
"h.	c #8F8F90",
"i.	c #878786",
"j.	c #38331F",
"k.	c #262009",
"l.	c #B2B1AD",
"m.	c #FFFFFC",
"n.	c #5DCFFF",
"o.	c #008ED5",
"p.	c #007FBB",
"q.	c #0189C7",
"r.	c #0CB5FF",
"s.	c #FFFFFE",
"t.	c #DCDDDF",
"u.	c #484331",
"v.	c #412D1B",
"w.	c #4F2C1B",
"x.	c #2D3923",
"y.	c #4B2D1B",
"z.	c #5E5D5B",
"A.	c #868687",
"B.	c #939495",
"C.	c #535042",
"D.	c #696659",
"E.	c #ECEDEF",
"F.	c #DDF6FF",
"G.	c #009CE8",
"H.	c #009FF0",
"I.	c #BCEBFF",
"J.	c #EBECED",
"K.	c #7E847A",
"L.	c #681306",
"M.	c #C10101",
"N.	c #AE0704",
"O.	c #C30302",
"P.	c #7E180F",
"Q.	c #373521",
"R.	c #602416",
"S.	c #3A3320",
"T.	c #233C25",
"U.	c #2F311A",
"V.	c #4B483D",
"W.	c #767778",
"X.	c #959596",
"Y.	c #7E7E7A",
"Z.	c #342F1A",
"`.	c #3F3A27",
" +	c #CACACA",
".+	c #FFFEFD",
"++	c #47C7FF",
"@+	c #007EBB",
"#+	c #0077AD",
"$+	c #0089CD",
"%+	c #46C8FF",
"&+	c #BCBCBB",
"*+	c #38321E",
"=+	c #90150E",
"-+	c #B60201",
";+	c #FC0000",
">+	c #FA0000",
",+	c #CD0201",
"'+	c #E10000",
")+	c #C60603",
"!+	c #8D120B",
"~+	c #662215",
"{+	c #97100A",
"]+	c #442F1D",
"^+	c #383825",
"/+	c #666666",
"(+	c #4F4C3E",
"_+	c #1F1902",
":+	c #8C8A82",
"<+	c #FFFBF6",
"[+	c #88DDFF",
"}+	c #0095E2",
"|+	c #00A9FB",
"1+	c #E5F7FF",
"2+	c #F4F4F4",
"3+	c #DFE0E1",
"4+	c #6A8174",
"5+	c #5F1407",
"6+	c #E30000",
"7+	c #FF0000",
"8+	c #FD0000",
"9+	c #CA0000",
"0+	c #C10000",
"a+	c #C60101",
"b+	c #3E1E0B",
"c+	c #302C16",
"d+	c #58564D",
"e+	c #383423",
"f+	c #CFCFCE",
"g+	c #F2FBFF",
"h+	c #00AEFE",
"i+	c #007CB4",
"j+	c #007AB0",
"k+	c #0090DC",
"l+	c #6DD6FF",
"m+	c #A0A09A",
"n+	c #900F08",
"o+	c #FE0000",
"p+	c #DA0101",
"q+	c #C41F1F",
"r+	c #F8C7C8",
"s+	c #B4B6AE",
"t+	c #5F6557",
"u+	c #B5B4B1",
"v+	c #C6C5C4",
"w+	c #2F2913",
"x+	c #342F1B",
"y+	c #BAB9B8",
"z+	c #F8F9F9",
"A+	c #59CEFF",
"B+	c #008CD3",
"C+	c #0077AC",
"D+	c #008AC9",
"E+	c #97CFEB",
"F+	c #B7BEB6",
"G+	c #565F4D",
"H+	c #342A15",
"I+	c #CA0100",
"J+	c #C20000",
"K+	c #D24545",
"L+	c #FEFEFE",
"M+	c #EEEFF1",
"N+	c #FCFCFC",
"O+	c #5E5A49",
"P+	c #433F2F",
"Q+	c #353621",
"R+	c #422411",
"S+	c #72786D",
"T+	c #E8E8EA",
"U+	c #CEF1FF",
"V+	c #00A3F6",
"W+	c #0174A9",
"X+	c #0074A8",
"Y+	c #00A0EC",
"Z+	c #6A726D",
"`+	c #AAA7A1",
" @	c #77594E",
".@	c #950200",
"+@	c #C50000",
"@@	c #ED0000",
"#@	c #BB0000",
"$@	c #EBB6B6",
"%@	c #D0CFCA",
"&@	c #747062",
"*@	c #36301C",
"=@	c #646464",
"-@	c #223D25",
";@	c #30331E",
">@	c #CBCBCB",
",@	c #42C3FF",
"'@	c #15A8EB",
")@	c #0089CC",
"!@	c #0088C9",
"~@	c #00A5F8",
"{@	c #2E95C5",
"]@	c #726056",
"^@	c #545650",
"/@	c #3F210D",
"(@	c #D00000",
"_@	c #E70101",
":@	c #CB3232",
"<@	c #FEE4E4",
"[@	c #F9F8F8",
"}@	c #A7A59C",
"|@	c #534E3D",
"1@	c #36311C",
"2@	c #A70A06",
"3@	c #BB0100",
"4@	c #7C685D",
"5@	c #EFF0F0",
"6@	c #F4E9E4",
"7@	c #707F7E",
"8@	c #467A93",
"9@	c #16B1F9",
"0@	c #60A1C0",
"a@	c #6E6C63",
"b@	c #676769",
"c@	c #373F2D",
"d@	c #9B0C07",
"e@	c #F00000",
"f@	c #D40000",
"g@	c #C82222",
"h@	c #231E07",
"i@	c #263C25",
"j@	c #A1100A",
"k@	c #EA0000",
"l@	c #800D04",
"m@	c #4E6A59",
"n@	c #E9E9EB",
"o@	c #D7DBD6",
"p@	c #7A8477",
"q@	c #403C2E",
"r@	c #898483",
"s@	c #89817A",
"t@	c #615443",
"u@	c #3B3521",
"v@	c #4B4736",
"w@	c #5D5B51",
"x@	c #2E321C",
"y@	c #5A2010",
"z@	c #D70000",
"A@	c #D95B5C",
"B@	c #FFD8D9",
"C@	c #ECEDEC",
"D@	c #969489",
"E@	c #616161",
"F@	c #3E3927",
"G@	c #233D25",
"H@	c #4B2C1B",
"I@	c #E50000",
"J@	c #C00000",
"K@	c #6D1C10",
"L@	c #504939",
"M@	c #3B2310",
"N@	c #7A0400",
"O@	c #662416",
"P@	c #464F47",
"Q@	c #5D5C57",
"R@	c #38321D",
"S@	c #5E5B50",
"T@	c #878685",
"U@	c #82817F",
"V@	c #575447",
"W@	c #484A3E",
"X@	c #B50808",
"Y@	c #F20000",
"Z@	c #C30000",
"`@	c #BA8580",
" #	c #72796A",
".#	c #211C05",
"+#	c #332D17",
"@#	c #676661",
"##	c #5E5C51",
"$#	c #342E1A",
"%#	c #672115",
"&#	c #A30906",
"*#	c #F70000",
"=#	c #C60301",
"-#	c #C60000",
";#	c #E40000",
">#	c #A10904",
",#	c #353C29",
"'#	c #454234",
")#	c #8D8D8D",
"!#	c #706F68",
"~#	c #44402F",
"{#	c #67655C",
"]#	c #524E3F",
"^#	c #4B564C",
"/#	c #801E17",
"(#	c #C40000",
"_#	c #7D180F",
":#	c #482D1B",
"<#	c #2E3520",
"[#	c #484333",
"}#	c #98999B",
"|#	c #8B8B8A",
"1#	c #646465",
"2#	c #3B3623",
"3#	c #273B25",
"4#	c #A10F0A",
"5#	c #F90000",
"6#	c #CD0000",
"7#	c #4D2B1A",
"8#	c #5B5D51",
"9#	c #585549",
"0#	c #4A4636",
"a#	c #797874",
"b#	c #68665D",
"c#	c #504C3D",
"d#	c #7C7D79",
"e#	c #3A3420",
"f#	c #2A3A24",
"g#	c #7D7C78",
"h#	c #919292",
"i#	c #757577",
"j#	c #342E18",
"k#	c #4C2C1B",
"l#	c #E90000",
"m#	c #851109",
"n#	c #4E5A50",
"o#	c #848482",
"p#	c #545143",
"q#	c #838381",
"r#	c #413D2B",
"s#	c #565345",
"t#	c #949495",
"u#	c #858586",
"v#	c #5C5C59",
"w#	c #37321D",
"x#	c #6B2114",
"y#	c #A80905",
"z#	c #FF0101",
"A#	c #BF0101",
"B#	c #59524C",
"C#	c #7D7E7B",
"D#	c #4B4738",
"E#	c #7A7975",
"F#	c #514E3F",
"G#	c #898988",
"H#	c #6E6E6F",
"I#	c #433E2F",
"J#	c #2B3620",
"K#	c #9E0703",
"L#	c #BE0000",
"M#	c #D90B0B",
"N#	c #DB0000",
"O#	c #E70000",
"P#	c #631809",
"Q#	c #434433",
"R#	c #565346",
"S#	c #6B6961",
"T#	c #423E2C",
"U#	c #66635A",
"V#	c #7F7F80",
"W#	c #545751",
"X#	c #502715",
"Y#	c #B50806",
"Z#	c #F1B5B5",
"`#	c #D76A6A",
" $	c #F7E3E3",
".$	c #D04848",
"+$	c #E19B9B",
"@$	c #D54D4D",
"#$	c #D14C4D",
"$$	c #EC696A",
"%$	c #B20000",
"&$	c #791A10",
"*$	c #452F1D",
"=$	c #433F2D",
"-$	c #969698",
";$	c #8B8B8B",
">$	c #4D4B43",
",$	c #2F2B16",
"'$	c #393F2B",
")$	c #E3EDEB",
"!$	c #F8FBFA",
"~$	c #D8E7E3",
"{$	c #78776A",
"]$	c #383420",
"^$	c #293A24",
"/$	c #342E19",
"($	c #4E4A3A",
"_$	c #5A5954",
":$	c #5C5A4F",
"<$	c #ACAAA6",
"[$	c #D3D4D5",
"}$	c #D0CFCB",
"|$	c #AAA8A0",
"1$	c #575241",
"2$	c #2B2611",
"3$	c #4B4634",
"4$	c #FCFCFB",
"5$	c #ADABA3",
"6$	c #55513F",
"7$	c #2B2510",
"8$	c #29240E",
"9$	c #7D7A6C",
"0$	c #3D3825",
"a$	c #241E08",
"                              . + @                                                         ",
"                            # $ % & * =                                                     ",
"                            - ; > > , '                                                     ",
"                          ) ! ~ > > { ] ^                                                   ",
"                            / ( > > _ : < [                                 } | 1           ",
"                            2 3 4 > > > 5 6 7                               8 9 0           ",
"                            a b c d e > f g h                               i j k           ",
"                            @ l > > m n o p q r s                             t u v         ",
"                            w x y z A B C D E F G                             2 H I J       ",
"                              K L M N O P Q R S T                             U V W X Y     ",
"                            Z ` >  ...+.@.#.$.%.&.*.=.                          -.;.>.,.    ",
"                            '.).!.~.{.@.].^./.(.> _.:.                        <.[.}.|.1.2.  ",
"                              :.3.4.5.6.7.8.9.0.a.b.c.d.e.                      f.g.h.i.j.  ",
"                              k.l.m.n.o.@.O p.q.r.s.> t.u.v.w.x.y.              2 z.A.B.C.  ",
"                              D.E.> F.G.7.P P @.H.I.> J.K.L.M.N.O.P.Q.R.S.  T.  U.V.W.X.Y.Z.",
"                              `. +.+++@++.P P #+$+%+> ~ &+*+=+-+;+>+,+'+)+!+~+{+]+^+/+}.(+2 ",
"                              _+:+<+[+}+@.P P P P |+1+> 2+3+4+5+6+7+8+7+7+8+9+0+a+b+c+d+e+  ",
"                              :.f+> g+h+i+j+P P @.k+l+> > > m+n+o+o+o+o+7+p+q+r+s+t+u+v+w+  ",
"                              x+y+z+> A+B+C+P P O D+E+> F+G+H+I+7+o+o+8+6+J+K+> L+M+> N+O+  ",
"  j.P+                      Q+R+S+T+> U+V+W+P +.X+Y+Z+`+ @.@+@@@7+o+7+o+#@$@> > > %@&@*@    ",
"  } =@2                   -@w.J+;@>@L+> ,@'@)@!@~@{@]@^@/@(@o+7+o+7+_@0+:@<@[@}@|@'.        ",
"  1@u t                   ~+2@3@4@5@> > 6@7@8@9@0@;.a@b@c@d@e@7+7+7+f@g@> > 0 h@            ",
"    k j i               i@j@k@l@m@n@o@p@` q@r@s@t@u@v@w@x@y@z@7+7+0+A@B@C@D@                ",
"    0 E@F@            G@H@I@o+J@K@L@M@N@O@P@Q@R@S@T@U@V@;.W@X@Y@k@Z@`@ #Z..#                ",
"    +#@###$#          %#&#>+7+7+*#=#-#;#>#,#'#)#!#~#F@{#]#^#/#(#_#:#<#                      ",
"    [#}#|#1#2#      3#4#5#7+o+o+7+7+o+7+6#7#8#9#0#a#|#b#c#d#  e#f#                          ",
"    Z.g#h#i#k j#  G@k#I@7+o+o+o+o+o+o+7+l#m#n#v@o#p#0 p#q#r#                                ",
"      s#t#u#v#w#  x#y#5#z#o+z#7+7+7+o+7+7+A#B#C#D#b#|#E#F#1@                                ",
"      h G#>.H#I#J#K#L#M#N#(@Y@f@o+6+8+5#O#(@P#Q#R#S#T#Y                                     ",
"      2.U#t#V#W#X#Y#Z#> `# $.$+$@$#$$$%$&$*$x.    2.                                        ",
"        =$-$;$>$,$'$)$> > > !$> > ~${$]$^$                                                  ",
"        /$($_$:$<$[$> > }$&@0 |$1$2$                                                        ",
"          Z.  3$> 4$5$6$7$                                                                  ",
"              8$9$0$a$                                                                      ",
"                                                                                            ",
"                                                                                            ",
"                                                                                            ",
"                                                                                            ",
"                                                                                            ",
"                                                                                            ",
"                                                                                            ",
"                                                                                            ",
"                                                                                            ",
"                                                                                            ",
"                                                                                            ",
"                                                                                            "};
