/* XPM */
static char * playerOne04_xpm[] = {
"46 46 763 2",
"  	c None",
". 	c #6C685B",
"+ 	c #4E4938",
"@ 	c #4D4938",
"# 	c #393736",
"$ 	c #524F3D",
"% 	c #918F86",
"& 	c #B6B6B2",
"* 	c #A19E98",
"= 	c #838176",
"- 	c #6C695C",
"; 	c #705C47",
"> 	c #6B5845",
", 	c #786149",
"' 	c #7F644B",
") 	c #755E48",
"! 	c #625243",
"~ 	c #393534",
"{ 	c #6E6B5F",
"] 	c #B8B8B2",
"^ 	c #F0F0F0",
"/ 	c #F6F6F7",
"( 	c #C8C8C5",
"_ 	c #817E73",
": 	c #403B38",
"< 	c #705A46",
"[ 	c #9F7751",
"} 	c #AB7F53",
"| 	c #A87D51",
"1 	c #B28251",
"2 	c #B88856",
"3 	c #A77E50",
"4 	c #7A5D3F",
"5 	c #654D36",
"6 	c #473C31",
"7 	c #474134",
"8 	c #8B8981",
"9 	c #E3E3E2",
"0 	c #FFFFFF",
"a 	c #DAD9D7",
"b 	c #89867D",
"c 	c #52483E",
"d 	c #81674B",
"e 	c #A47B55",
"f 	c #B4814F",
"g 	c #B27E49",
"h 	c #AD7843",
"i 	c #A26E39",
"j 	c #A7723D",
"k 	c #AB7640",
"l 	c #A26F3D",
"m 	c #98693A",
"n 	c #735331",
"o 	c #51402F",
"p 	c #696459",
"q 	c #B4B2AD",
"r 	c #F2F2F2",
"s 	c #FDFDFD",
"t 	c #D2D1CF",
"u 	c #6B685B",
"v 	c #464231",
"w 	c #282C2F",
"x 	c #6A5745",
"y 	c #A57B51",
"z 	c #B17E4D",
"A 	c #B17C48",
"B 	c #A3703D",
"C 	c #9B6835",
"D 	c #996633",
"E 	c #95622F",
"F 	c #9F6C38",
"G 	c #B17D4A",
"H 	c #B27D49",
"I 	c #9B6F41",
"J 	c #75573A",
"K 	c #504133",
"L 	c #443930",
"M 	c #6D695C",
"N 	c #BBB6B0",
"O 	c #EDEBE8",
"P 	c #FAFFFF",
"Q 	c #FEFFFF",
"R 	c #FAF8F7",
"S 	c #B1B1AC",
"T 	c #5F5C4E",
"U 	c #50463D",
"V 	c #987554",
"W 	c #BD8854",
"X 	c #B07A47",
"Y 	c #AF7C49",
"Z 	c #AA7845",
"` 	c #A97643",
" .	c #AD7A47",
"..	c #A67340",
"+.	c #B78552",
"@.	c #BE8955",
"#.	c #AD7945",
"$.	c #966637",
"%.	c #735333",
"&.	c #594532",
"*.	c #443D36",
"=.	c #5C5548",
"-.	c #9D9A92",
";.	c #EBECE9",
">.	c #DEF9FF",
",.	c #CDF2FF",
"'.	c #E9FAFF",
").	c #FEFBF9",
"!.	c #B6B4AF",
"~.	c #5C5A4D",
"{.	c #564A3D",
"].	c #A67C54",
"^.	c #B6814D",
"/.	c #AC7946",
"(.	c #B5824F",
"_.	c #B17E4B",
":.	c #B3804D",
"<.	c #B27F4C",
"[.	c #A06D3A",
"}.	c #9A6734",
"|.	c #A36F3C",
"1.	c #A77441",
"2.	c #8A6034",
"3.	c #775533",
"4.	c #836341",
"5.	c #927455",
"6.	c #816C58",
"7.	c #706151",
"8.	c #5B5248",
"9.	c #67615A",
"0.	c #929C9D",
"a.	c #B3D9E7",
"b.	c #80CFF4",
"c.	c #58C9FF",
"d.	c #AEE6FF",
"e.	c #FCFEFE",
"f.	c #C8C1BC",
"g.	c #635F50",
"h.	c #303032",
"i.	c #7B634A",
"j.	c #BA8857",
"k.	c #A97644",
"l.	c #B4814E",
"m.	c #AB7845",
"n.	c #986530",
"o.	c #90602F",
"p.	c #6A4C2B",
"q.	c #7A6246",
"r.	c #BC966F",
"s.	c #E3B889",
"t.	c #DDB384",
"u.	c #C09A72",
"v.	c #AE8F70",
"w.	c #907F6B",
"x.	c #787770",
"y.	c #557B8A",
"z.	c #3280A8",
"A.	c #1A9BDF",
"B.	c #7BD3FC",
"C.	c #CEEEFB",
"D.	c #B6B0AA",
"E.	c #686050",
"F.	c #51473D",
"G.	c #967351",
"H.	c #BA8652",
"I.	c #AC7844",
"J.	c #B78451",
"K.	c #BB8855",
"L.	c #BD8A57",
"M.	c #986531",
"N.	c #7B5126",
"O.	c #634B30",
"P.	c #8F755A",
"Q.	c #E4B889",
"R.	c #FECE99",
"S.	c #E0AB76",
"T.	c #E4AF79",
"U.	c #F0C18E",
"V.	c #E2B88A",
"W.	c #C7A881",
"X.	c #A68F74",
"Y.	c #606D6E",
"Z.	c #21759F",
"`.	c #2CA6E0",
" +	c #96DAF4",
".+	c #AEAAA3",
"++	c #5A5547",
"@+	c #564A3F",
"#+	c #AB8055",
"$+	c #B5804C",
"%+	c #A97743",
"&+	c #A97744",
"*+	c #B07D4A",
"=+	c #B88552",
"-+	c #734D27",
";+	c #6D553E",
">+	c #B6916D",
",+	c #FAC591",
"'+	c #FAC894",
")+	c #DCA975",
"!+	c #D3A26F",
"~+	c #C09B75",
"{+	c #BC9E7B",
"]+	c #F4CF9C",
"^+	c #F3CC9A",
"/+	c #C9A680",
"(+	c #5A6B6D",
"_+	c #287AA0",
":+	c #A6D6E8",
"<+	c #B2B2AD",
"[+	c #716D62",
"}+	c #3E3934",
"|+	c #80654C",
"1+	c #B88756",
"2+	c #B17C47",
"3+	c #A77442",
"4+	c #AA7744",
"5+	c #B98653",
"6+	c #AF7B47",
"7+	c #926233",
"8+	c #65492A",
"9+	c #7D654B",
"0+	c #D0A47B",
"a+	c #FECA96",
"b+	c #FCCD99",
"c+	c #E8B683",
"d+	c #CF9F70",
"e+	c #AC8B6A",
"f+	c #8B7660",
"g+	c #D8B68D",
"h+	c #FFD5A1",
"i+	c #F6C594",
"j+	c #AD8D6C",
"k+	c #83897F",
"l+	c #B4C0C0",
"m+	c #BEB8B1",
"n+	c #726B5D",
"o+	c #454033",
"p+	c #745E4A",
"q+	c #B48453",
"r+	c #AD7A45",
"s+	c #A87442",
"t+	c #80572D",
"u+	c #644C33",
"v+	c #94795D",
"w+	c #E6B688",
"x+	c #FECC98",
"y+	c #FFD19E",
"z+	c #F5C491",
"A+	c #EAB683",
"B+	c #D6AF82",
"C+	c #D5B086",
"D+	c #F0C293",
"E+	c #F7C796",
"F+	c #ECBC8E",
"G+	c #EAB887",
"H+	c #B59877",
"I+	c #969189",
"J+	c #82796D",
"K+	c #413C2B",
"L+	c #403E34",
"M+	c #75604D",
"N+	c #AA7D51",
"O+	c #B07C48",
"P+	c #AB7744",
"Q+	c #A87542",
"R+	c #A5723F",
"S+	c #A77340",
"T+	c #9A6532",
"U+	c #734E29",
"V+	c #705840",
"W+	c #BE9670",
"X+	c #F9C592",
"Y+	c #FFCE9A",
"Z+	c #FFCD9A",
"`+	c #FDCC99",
" @	c #FFCF9A",
".@	c #FFD29D",
"+@	c #FCCF9B",
"@@	c #FCCE9B",
"#@	c #C6A17B",
"$@	c #9C8168",
"%@	c #E0B183",
"&@	c #BA936C",
"*@	c #88796B",
"=@	c #605C52",
"-@	c #494737",
";@	c #4B473E",
">@	c #7C644D",
",@	c #B18152",
"'@	c #B07C47",
")@	c #A87543",
"!@	c #9B6836",
"~@	c #976431",
"{@	c #986430",
"]@	c #835426",
"^@	c #64462A",
"/@	c #80674F",
"(@	c #D4A87D",
"_@	c #FFCC96",
":@	c #FFCF9B",
"<@	c #FFCE9B",
"[@	c #FFCD99",
"}@	c #FFD49E",
"|@	c #F0C594",
"1@	c #927B63",
"2@	c #62574E",
"3@	c #AD8E6F",
"4@	c #B9936F",
"5@	c #7A6D62",
"6@	c #7B7A75",
"7@	c #5C5848",
"8@	c #484538",
"9@	c #554F45",
"0@	c #997653",
"a@	c #B8834F",
"b@	c #AE7A46",
"c@	c #A16E3B",
"d@	c #A26F3C",
"e@	c #9C6835",
"f@	c #7D532A",
"g@	c #9C7F62",
"h@	c #EEBD8C",
"i@	c #FDCB98",
"j@	c #F8C592",
"k@	c #FCC996",
"l@	c #FFD19B",
"m@	c #DDB488",
"n@	c #887869",
"o@	c #787A7E",
"p@	c #A7927E",
"q@	c #BA946F",
"r@	c #87786B",
"s@	c #78756C",
"t@	c #4B4637",
"u@	c #433F30",
"v@	c #60564A",
"w@	c #9E7955",
"x@	c #B4804B",
"y@	c #A77440",
"z@	c #A6723F",
"A@	c #79532E",
"B@	c #715941",
"C@	c #BC9772",
"D@	c #FAC895",
"E@	c #F9C794",
"F@	c #E8B481",
"G@	c #E0AC79",
"H@	c #E4B482",
"I@	c #F4C794",
"J@	c #BF9C7A",
"K@	c #77716D",
"L@	c #86898D",
"M@	c #918271",
"N@	c #A68360",
"O@	c #756351",
"P@	c #54524A",
"Q@	c #3A382A",
"R@	c #514A3D",
"S@	c #8B6D4F",
"T@	c #AC7745",
"U@	c #A5723E",
"V@	c #B07D49",
"W@	c #A67542",
"X@	c #7C5630",
"Y@	c #775B41",
"Z@	c #C19B74",
"`@	c #FCCA94",
" #	c #E7B682",
".#	c #D4A06E",
"+#	c #C3976B",
"@#	c #B28D6B",
"##	c #C4A07A",
"$#	c #F3C997",
"%#	c #EDC192",
"&#	c #86715C",
"*#	c #5B5957",
"=#	c #988B7E",
"-#	c #B19374",
";#	c #977758",
">#	c #5E5954",
",#	c #8B8A86",
"'#	c #4A4539",
")#	c #8A6C4D",
"!#	c #B17F4D",
"~#	c #AE7945",
"{#	c #B68351",
"]#	c #AF7C48",
"^#	c #A67341",
"/#	c #B88350",
"(#	c #B3814D",
"_#	c #81582E",
":#	c #6E543A",
"<#	c #BA946D",
"[#	c #F2C18E",
"}#	c #E3AF7C",
"|#	c #DDA977",
"1#	c #CAA077",
"2#	c #A1866B",
"3#	c #AC9173",
"4#	c #EABF92",
"5#	c #EABD8F",
"6#	c #A6896C",
"7#	c #9A8168",
"8#	c #D6AF88",
"9#	c #D2A478",
"0#	c #7D6751",
"a#	c #898B8A",
"b#	c #4D4834",
"c#	c #433F2D",
"d#	c #666258",
"e#	c #8E7760",
"f#	c #AE7F51",
"g#	c #B37F48",
"h#	c #B58350",
"i#	c #B78351",
"j#	c #986532",
"k#	c #A4713E",
"l#	c #B98552",
"m#	c #B3804C",
"n#	c #865D32",
"o#	c #6E5336",
"p#	c #A88865",
"q#	c #F4C490",
"r#	c #FCCB96",
"s#	c #F5C290",
"t#	c #F6C795",
"u#	c #ECC293",
"v#	c #DABA90",
"w#	c #FBCF9E",
"x#	c #F9CB98",
"y#	c #DFB68A",
"z#	c #EDC090",
"A#	c #FFC994",
"B#	c #CA9D72",
"C#	c #77695A",
"D#	c #8E9492",
"E#	c #83766B",
"F#	c #4E2311",
"G#	c #474435",
"H#	c #4E4B3F",
"I#	c #5F5B4E",
"J#	c #75695A",
"K#	c #99744F",
"L#	c #B7834F",
"M#	c #BB8754",
"N#	c #B4814D",
"O#	c #A3703E",
"P#	c #9C6936",
"Q#	c #A77542",
"R#	c #996A3A",
"S#	c #765431",
"T#	c #997A58",
"U#	c #DEB688",
"V#	c #FDD49F",
"W#	c #FFD09D",
"X#	c #FFD09C",
"Y#	c #FFD19C",
"Z#	c #FFD4A0",
"`#	c #FECE9B",
" $	c #F5C18D",
".$	c #9C7959",
"+$	c #666361",
"@$	c #9EA6A1",
"#$	c #714539",
"$$	c #710F03",
"%$	c #6B1A0C",
"&$	c #484537",
"*$	c #4F4C42",
"=$	c #514A3F",
"-$	c #7A6147",
";$	c #A47A51",
">$	c #B2804E",
",$	c #AB7540",
"'$	c #956230",
")$	c #A06C3A",
"!$	c #AC7947",
"~$	c #BA8754",
"{$	c #C08C59",
"]$	c #B27E4A",
"^$	c #835C34",
"/$	c #73593F",
"($	c #997F62",
"_$	c #DAB488",
":$	c #FCCE9A",
"<$	c #FFD39E",
"[$	c #FFCB99",
"}$	c #FFCC99",
"|$	c #FFCD98",
"1$	c #DEAE7F",
"2$	c #7D6753",
"3$	c #949898",
"4$	c #C3CECA",
"5$	c #905D55",
"6$	c #9B0B06",
"7$	c #9A0E08",
"8$	c #7A1F14",
"9$	c #443F2E",
"0$	c #4F4C41",
"a$	c #504E44",
"b$	c #52463D",
"c$	c #745E47",
"d$	c #A0774E",
"e$	c #B07A45",
"f$	c #A16D38",
"g$	c #B68450",
"h$	c #BB8956",
"i$	c #BC8956",
"j$	c #B47F4C",
"k$	c #976839",
"l$	c #75512C",
"m$	c #685139",
"n$	c #A98766",
"o$	c #DFB789",
"p$	c #FAD29D",
"q$	c #FFD19D",
"r$	c #FFCF9C",
"s$	c #DFB182",
"t$	c #A88665",
"u$	c #756B5E",
"v$	c #AEB5B1",
"w$	c #C7DAD4",
"x$	c #84655B",
"y$	c #AB120F",
"z$	c #CF0403",
"A$	c #99170F",
"B$	c #474335",
"C$	c #4F4D44",
"D$	c #423F30",
"E$	c #54493E",
"F$	c #7C6147",
"G$	c #8E6945",
"H$	c #9E7044",
"I$	c #B6824D",
"J$	c #C28E5A",
"K$	c #A6723E",
"L$	c #9F6C39",
"M$	c #95622E",
"N$	c #795531",
"O$	c #725A42",
"P$	c #8D765E",
"Q$	c #C9A57E",
"R$	c #EABE8E",
"S$	c #F5C995",
"T$	c #FFD29C",
"U$	c #FFCE99",
"V$	c #E2B585",
"W$	c #948060",
"X$	c #664A3F",
"Y$	c #62342F",
"Z$	c #7B6158",
"`$	c #776357",
" %	c #7F2D22",
".%	c #B80704",
"+%	c #EC0000",
"@%	c #C50D09",
"#%	c #781F14",
"$%	c #49291B",
"%%	c #555247",
"&%	c #5B5850",
"*%	c #474334",
"=%	c #413C37",
"-%	c #58493A",
";%	c #6F5134",
">%	c #9B6B39",
",%	c #AB7944",
"'%	c #A5713E",
")%	c #A26D37",
"!%	c #A46F39",
"~%	c #A06B37",
"{%	c #926436",
"]%	c #745230",
"^%	c #5B462E",
"/%	c #84684D",
"(%	c #AC8E71",
"_%	c #B89775",
":%	c #DCB182",
"<%	c #C49D75",
"[%	c #987D5F",
"}%	c #5E4B3B",
"|%	c #761612",
"1%	c #A40504",
"2%	c #AA0D0A",
"3%	c #A60B06",
"4%	c #C70501",
"5%	c #F40000",
"6%	c #FF0000",
"7%	c #F20201",
"8%	c #AE0F09",
"9%	c #721E13",
"0%	c #403B2B",
"a%	c #514E43",
"b%	c #71706C",
"c%	c #767671",
"d%	c #575447",
"e%	c #815528",
"f%	c #865A2D",
"g%	c #7B542E",
"h%	c #75512E",
"i%	c #7A542D",
"j%	c #84592E",
"k%	c #734F2E",
"l%	c #734E2B",
"m%	c #6F4F2D",
"n%	c #57412B",
"o%	c #65523E",
"p%	c #83786E",
"q%	c #998674",
"r%	c #957B60",
"s%	c #716250",
"t%	c #4D4C3F",
"u%	c #533327",
"v%	c #A90B06",
"w%	c #F20000",
"x%	c #F30000",
"y%	c #FA0000",
"z%	c #E50302",
"A%	c #AA110B",
"B%	c #742014",
"C%	c #444032",
"D%	c #666460",
"E%	c #8E8E90",
"F%	c #7E7D79",
"G%	c #555345",
"H%	c #553F2B",
"I%	c #483A2C",
"J%	c #473B2E",
"K%	c #4E3C2A",
"L%	c #4A3729",
"M%	c #473B2F",
"N%	c #4B4438",
"O%	c #504B40",
"P%	c #5E5C56",
"Q%	c #6D6F6B",
"R%	c #6E6C67",
"S%	c #565249",
"T%	c #53574E",
"U%	c #474A40",
"V%	c #73251C",
"W%	c #CB0302",
"X%	c #FC0000",
"Y%	c #FB0000",
"Z%	c #DB0603",
"`%	c #881A10",
" &	c #6C2013",
".&	c #4C4A3E",
"+&	c #767775",
"@&	c #8E8F90",
"#&	c #6C6A61",
"$&	c #423D2A",
"%&	c #4A4D40",
"&&	c #55554A",
"*&	c #5C5A52",
"=&	c #62625B",
"-&	c #65645D",
";&	c #5F5D54",
">&	c #5C6359",
",&	c #63534A",
"'&	c #9D1D19",
")&	c #ED0000",
"!&	c #FD0000",
"~&	c #F60000",
"{&	c #F90000",
"]&	c #EB0000",
"^&	c #B00A06",
"/&	c #841109",
"(&	c #531E0F",
"_&	c #31402F",
":&	c #575850",
"<&	c #858586",
"[&	c #8A8988",
"}&	c #5E5B4F",
"|&	c #555344",
"1&	c #58564A",
"2&	c #5F5D52",
"3&	c #615E53",
"4&	c #5F5D50",
"5&	c #5E6055",
"6&	c #634239",
"7&	c #A01510",
"8&	c #E50000",
"9&	c #FB0101",
"0&	c #FC0506",
"a&	c #F40406",
"b&	c #F00C0C",
"c&	c #E81010",
"d&	c #E51212",
"e&	c #E42020",
"f&	c #E12727",
"g&	c #E43333",
"h&	c #D93C3E",
"i&	c #A41611",
"j&	c #5A1C0D",
"k&	c #433F32",
"l&	c #696B68",
"m&	c #8F8F90",
"n&	c #7D7C77",
"o&	c #514D3E",
"p&	c #4B4836",
"q&	c #545142",
"r&	c #524F3F",
"s&	c #582B1B",
"t&	c #761A0D",
"u&	c #8D150C",
"v&	c #BA110C",
"w&	c #D32C2B",
"x&	c #E54D4F",
"y&	c #EB5E5F",
"z&	c #F07E7F",
"A&	c #E58282",
"B&	c #EC9999",
"C&	c #F3B2B4",
"D&	c #F5BEBE",
"E&	c #E3A9A8",
"F&	c #A35950",
"G&	c #5A2819",
"H&	c #473D32",
"I&	c #6F7070",
"J&	c #8A898A",
"K&	c #6B685F",
"L&	c #44402E",
"M&	c #452B1A",
"N&	c #5F2C1F",
"O&	c #7F564B",
"P&	c #AB8E88",
"Q&	c #D5BCBA",
"R&	c #E0CFCC",
"S&	c #D8CDCA",
"T&	c #D8D1CE",
"U&	c #F0EDED",
"V&	c #FBFFFF",
"W&	c #F3F5F4",
"X&	c #B2A7A1",
"Y&	c #6B6154",
"Z&	c #525145",
"`&	c #686865",
" *	c #717069",
".*	c #534F40",
"+*	c #515F4E",
"@*	c #637061",
"#*	c #7A8376",
"$*	c #949A8E",
"%*	c #888B7E",
"&*	c #757768",
"**	c #98988F",
"=*	c #B0B0A9",
"-*	c #E0E1DF",
";*	c #EAEDEC",
">*	c #C0C3BE",
",*	c #818178",
"'*	c #5C594F",
")*	c #504E40",
"!*	c #3B3621",
"~*	c #666253",
"{*	c #544F40",
"]*	c #575443",
"^*	c #878477",
"/*	c #AAA9A0",
"(*	c #B4B1AB",
"_*	c #89867B",
":*	c #443D2C",
"<*	c #595344",
"[*	c #5E5A4A",
"                                                                                            ",
"                                                                                            ",
"                                                                                            ",
"                                                                                            ",
"                                                                                            ",
"                                                                                            ",
"                                                                                            ",
"                                                                                            ",
"                                                                                            ",
"                                                                                            ",
"                                                                                            ",
"                                                                                            ",
"                                                      . + @                                 ",
"                    #                             $ % & * = -                               ",
"              ; > , ' ) ! ~                       { ] ^ / ( _                               ",
"          : < [ } | 1 2 3 4 5 6                 7 8 9 0 0 a b                               ",
"        c d e f g h i j k l m n o               p q r 0 s t u v                             ",
"      w x y z A B C D E F G H I J K L         M N O P Q R S T                               ",
"      U V W X Y Z `  .....+.@.#.$.%.&.*.    =.-.;.>.,.'.).!.~.                              ",
"      {.].^./.(._.:.<.[.}.|.1.2.3.4.5.6.7.8.9.0.a.b.c.d.e.f.g.                              ",
"    h.i.j.H k._.(.l.(.m.D n.o.p.q.r.s.t.u.v.w.x.y.z.A.B.C.D.E.                              ",
"    F.G.H.I.` Y J.K.L.J.1.M.N.O.P.Q.R.S.T.U.V.W.X.Y.Z.`. +.+++                              ",
"    @+#+$+%+&+*+_._.J.=+ .}.-+;+>+,+'+)+!+~+{+]+^+/+(+_+:+<+[+                              ",
"  }+|+1+2+3+&+4+` /.l.5+6+7+8+9+0+a+b+c+d+e+f+g+h+i+j+k+l+m+n+                              ",
"  o+p+q+r+` 4+4+4+/.(.J.s+t+u+v+w+x+y+z+A+B+C+D+E+F+G+H+I+J+K+                              ",
"  L+M+N+O+P+4+4+Q+R+..S+T+U+V+W+X+Y+Z+`+ @.@+@@@#@$@%@&@*@=@                                ",
"-@;@>@,@'@)@4+4+..!@~@{@]@^@/@(@_@:@Z+<@[@[@}@|@1@2@3@4@5@6@7@                              ",
"8@9@0@a@b@Y  .4+1.c@d@e@f@5 g@h@ @i@j@k@Y+ @l@m@n@o@p@q@r@s@t@                              ",
"u@v@w@x@'@l.l./.4+y@Y z@A@B@C@D@E@F@G@H@I@}@b+J@K@L@M@N@O@P@                                ",
"Q@R@S@f T@:.K.:.` U@V@W@X@Y@Z@`@ #.#+#@###$#%#&#*#=#-#;#>#,#                                ",
"  '#)#!#~#_.{#]#d@^#/#(#_#:#<#[#}#|#1#2#3#4#5#6#7#8#9#0#a#% b#                        c#    ",
"  d#e#f#g#h#i#R+j#k#l#m#n#o#p#q#r#s#t#u#v#w#x#y#z#A#B#C#D#E#F#                      G#H#u@  ",
"  I#J#K#L#M#N#O#P#Q#h#:.R#S#T#U#V#W#X#Y#Z#y+X#`# @ $.$+$@$#$$$%$                    &$*$u@  ",
"    =$-$;$>$,$'$)$!$~${$]$^$/$($_$:$<$[$Z+Z+}$Z+|$1$2$3$4$5$6$7$8$                9$0$a$    ",
"      b$c$d$e$f$I.g$h$i$j$k$l$m$n$o$p$q$:@r$Y+'+s$t$u$v$w$x$y$z$A$                B$C$D$    ",
"        E$F$G$H$I$J$M#x@K$L$M$N$O$P$Q$R$S$T$U$V$W$X$Y$Z$`$ %.%+%@%#%$%            %%&%*%    ",
"          =%-%;%>%,%m.'%)%!%~%{%]%^%/%(%_%:%<%[%}%|%1%2%3%4%5%6%7%8%9%        0%a%b%c%d%    ",
"                e%f%g%h%i%j%k%l%m%n%o%p%q%r%s%t%u%v%+%w%x%y%6%6%6%z%A%B%      C%D%E%F%G%    ",
"                    H%I%J%K%L%M%N%O%P%Q%R%S%T%U%V%W%X%6%6%6%6%6%6%Y%Z%`% &    .&+&@&#&$&    ",
"                                %&&&*&=&-&;&>&,&'&)&6%6%X%!&y%y%~&{&]&^&/&(&_&:&<&[&}&      ",
"                                  |&1&2&3&4&5&6&7&8&9&0&a&b&c&d&e&f&g&h&i&j&k&l&m&n&o&      ",
"                                      p&q&r&  s&t&u&v&w&x&y&z&A&B&C&D&E&F&G&H&I&J&K&L&      ",
"                                                  M&N&O&P&Q&R&S&T&U&V&W&X&Y&Z&`& *.*        ",
"                                                      +*@*#*$*%*&***=*-*;*>*,*'*)*!*        ",
"                                                            ~*    {*]*^*/*(*_*:*            ",
"                                                                          <*[*              "};
