/* XPM */
static char * playerOne11_xpm[] = {
"46 46 794 2",
"  	c None",
". 	c #777265",
"+ 	c #777164",
"@ 	c #484432",
"# 	c #514E40",
"$ 	c #605D51",
"% 	c #8D8A80",
"& 	c #9D9B92",
"* 	c #99978D",
"= 	c #7B786A",
"- 	c #544F40",
"; 	c #605E53",
"> 	c #64635B",
", 	c #686860",
"' 	c #88887F",
") 	c #B9BBB5",
"! 	c #CCCFCA",
"~ 	c #A7A79F",
"{ 	c #767466",
"] 	c #524D3D",
"^ 	c #69665C",
"/ 	c #7B7C77",
"( 	c #727270",
"_ 	c #5A5751",
": 	c #675D51",
"< 	c #ADA49D",
"[ 	c #E0E4E0",
"} 	c #D1D6D1",
"| 	c #AEB3AB",
"1 	c #848679",
"2 	c #787D6E",
"3 	c #635F54",
"4 	c #7B7873",
"5 	c #878788",
"6 	c #6E706F",
"7 	c #4D4137",
"8 	c #583021",
"9 	c #A16C63",
"0 	c #E2BFBC",
"a 	c #F4E6E6",
"b 	c #E3DFDD",
"c 	c #C5C3BC",
"d 	c #B2B3AB",
"e 	c #A8AEA4",
"f 	c #92998E",
"g 	c #748679",
"h 	c #5C584B",
"i 	c #76746D",
"j 	c #868684",
"k 	c #7B7D7B",
"l 	c #5A5F56",
"m 	c #463527",
"n 	c #641D10",
"o 	c #A4322C",
"p 	c #DD6969",
"q 	c #F69EA0",
"r 	c #F4AFB0",
"s 	c #E8B0B0",
"t 	c #DEB0AE",
"u 	c #D7B5B2",
"v 	c #C0A6A1",
"w 	c #9C8D85",
"x 	c #736B5E",
"y 	c #514D3C",
"z 	c #6B685F",
"A 	c #858583",
"B 	c #838382",
"C 	c #64645F",
"D 	c #454A3C",
"E 	c #3D2D1B",
"F 	c #6B1308",
"G 	c #A4130E",
"H 	c #D22121",
"I 	c #EE3133",
"J 	c #F14040",
"K 	c #EB4A4B",
"L 	c #EB5A5C",
"M 	c #EC6768",
"N 	c #E57071",
"O 	c #CB6564",
"P 	c #9A463F",
"Q 	c #742E22",
"R 	c #4E2715",
"S 	c #5E5C50",
"T 	c #72706A",
"U 	c #7F7F7E",
"V 	c #6F6E6A",
"W 	c #535046",
"X 	c #970E07",
"Y 	c #C80A06",
"Z 	c #F20201",
"` 	c #F80404",
" .	c #F00506",
"..	c #EF0C0D",
"+.	c #F21818",
"@.	c #F51E20",
"#.	c #EF2426",
"$.	c #D41917",
"%.	c #AB140E",
"&.	c #81190D",
"*.	c #612112",
"=.	c #575448",
"-.	c #66655D",
";.	c #66655E",
">.	c #58554B",
",.	c #454232",
"'.	c #8A1910",
").	c #C00C08",
"!.	c #F40200",
"~.	c #FF0000",
"{.	c #FE0000",
"].	c #FB0000",
"^.	c #FA0000",
"/.	c #FE0102",
"(.	c #FE0202",
"_.	c #FC0202",
":.	c #E80302",
"<.	c #B00E09",
"[.	c #7D251D",
"}.	c #5D483B",
"|.	c #555444",
"1.	c #464334",
"2.	c #4C493E",
"3.	c #525043",
"4.	c #752015",
"5.	c #A5130C",
"6.	c #DA0704",
"7.	c #ED0101",
"8.	c #B01612",
"9.	c #783A32",
"0.	c #5F584D",
"a.	c #5D5F52",
"b.	c #5C594C",
"c.	c #585547",
"d.	c #524F40",
"e.	c #4C4A3E",
"f.	c #4C493D",
"g.	c #4B473A",
"h.	c #811C12",
"i.	c #C40C07",
"j.	c #FF0100",
"k.	c #F70000",
"l.	c #F10000",
"m.	c #F50000",
"n.	c #C80907",
"o.	c #842620",
"p.	c #5B4A41",
"q.	c #555F54",
"r.	c #5C5F55",
"s.	c #626058",
"t.	c #5E5D53",
"u.	c #5A584C",
"v.	c #575446",
"w.	c #4A4639",
"x.	c #4D4A3F",
"y.	c #4C493C",
"z.	c #474434",
"A.	c #702215",
"B.	c #B5100A",
"C.	c #E60403",
"D.	c #E40000",
"E.	c #C90704",
"F.	c #BA0F0C",
"G.	c #BF0A07",
"H.	c #D10100",
"I.	c #C30201",
"J.	c #8D140D",
"K.	c #5B352B",
"L.	c #4F4F44",
"M.	c #595B4F",
"N.	c #65635A",
"O.	c #696965",
"P.	c #646560",
"Q.	c #5C5C53",
"R.	c #545448",
"S.	c #494537",
"T.	c #4B483B",
"U.	c #4B4839",
"V.	c #9F160E",
"W.	c #C40704",
"X.	c #BD0C0A",
"Y.	c #97332B",
"Z.	c #8F524A",
"`.	c #8E4640",
" +	c #8F1F1C",
".+	c #821915",
"++	c #663328",
"@+	c #645743",
"#+	c #7A6E56",
"$+	c #87745C",
"%+	c #897865",
"&+	c #7D766C",
"*+	c #6A665F",
"=+	c #5A5449",
"-+	c #504D41",
";+	c #4B473B",
">+	c #8D180F",
",+	c #AA0703",
"'+	c #A0201B",
")+	c #996C64",
"!+	c #9BA39C",
"~+	c #878781",
"{+	c #70524A",
"]+	c #774E3F",
"^+	c #8D6D53",
"/+	c #AC906C",
"(+	c #CAA67C",
"_+	c #D0A87D",
":+	c #BC9B79",
"<+	c #9B836E",
"[+	c #746352",
"}+	c #5C4B38",
"|+	c #58442E",
"1+	c #5D472F",
"2+	c #58412C",
"3+	c #4F3D2C",
"4+	c #4A3C2C",
"5+	c #731609",
"6+	c #7D0C02",
"7+	c #862D24",
"8+	c #A0867F",
"9+	c #B1C1BE",
"0+	c #909892",
"a+	c #8C7A65",
"b+	c #AC8D6B",
"c+	c #D0AA7E",
"d+	c #EDC18E",
"e+	c #FACC97",
"f+	c #F7CB96",
"g+	c #E6BC8D",
"h+	c #C6A17D",
"i+	c #95785C",
"j+	c #6C5239",
"k+	c #6A4B2B",
"l+	c #7A542F",
"m+	c #7E5631",
"n+	c #73502F",
"o+	c #694C2D",
"p+	c #5B432D",
"q+	c #5B1C0B",
"r+	c #754237",
"s+	c #8E8580",
"t+	c #8D9491",
"u+	c #8D8071",
"v+	c #B18D6A",
"w+	c #E4B786",
"x+	c #F9CC97",
"y+	c #FFD09B",
"z+	c #FFD29D",
"A+	c #FCD09A",
"B+	c #ECC292",
"C+	c #C09D77",
"D+	c #886D51",
"E+	c #795938",
"F+	c #885D31",
"G+	c #986634",
"H+	c #9B6835",
"I+	c #8F6134",
"J+	c #835A32",
"K+	c #805932",
"L+	c #855B2E",
"M+	c #5E4837",
"N+	c #796B61",
"O+	c #858580",
"P+	c #888073",
"Q+	c #A88666",
"R+	c #E0AE7E",
"S+	c #FBCB94",
"T+	c #FFD19C",
"U+	c #FFCF9B",
"V+	c #FFD09C",
"W+	c #FFD09D",
"X+	c #FFD29E",
"Y+	c #FED29D",
"Z+	c #E8C092",
"`+	c #B39471",
" @	c #856849",
".@	c #7A5631",
"+@	c #956331",
"@@	c #A77039",
"#@	c #AB743F",
"$@	c #A77442",
"%@	c #A67443",
"&@	c #9D6C3B",
"*@	c #8B5F32",
"=@	c #694D2F",
"-@	c #6D6C5F",
";@	c #80807B",
">@	c #827F77",
",@	c #937E67",
"'@	c #CA9E75",
")@	c #EABA8A",
"!@	c #EDC191",
"~@	c #F1C494",
"{@	c #FBCD9A",
"]@	c #FED19D",
"^@	c #FCD09D",
"/@	c #FED19C",
"(@	c #FFD59F",
"_@	c #FBD19D",
":@	c #D9B487",
"<@	c #997C5E",
"[@	c #735538",
"}@	c #895E33",
"|@	c #A67340",
"1@	c #B6804C",
"2@	c #BB8652",
"3@	c #BD8954",
"4@	c #B27E4B",
"5@	c #996D40",
"6@	c #795A3B",
"7@	c #5B4C3C",
"8@	c #69675E",
"9@	c #757067",
"0@	c #83715F",
"a@	c #A08162",
"b@	c #BB9776",
"c@	c #B29579",
"d@	c #A88D71",
"e@	c #CEA881",
"f@	c #F3C696",
"g@	c #F3C99A",
"h@	c #E3BF92",
"i@	c #EFC696",
"j@	c #FDD09C",
"k@	c #F2C997",
"l@	c #BC9B74",
"m@	c #896A4A",
"n@	c #855F38",
"o@	c #A77644",
"p@	c #BC8854",
"q@	c #BE8B57",
"r@	c #BB8854",
"s@	c #B4804C",
"t@	c #8F6742",
"u@	c #7A5F44",
"v@	c #5D4F42",
"w@	c #636056",
"x@	c #74695C",
"y@	c #91785F",
"z@	c #A3886D",
"A@	c #9B8B7D",
"B@	c #80766F",
"C@	c #817060",
"D@	c #BB9977",
"E@	c #E5BB8E",
"F@	c #D4B188",
"G@	c #BC9D7C",
"H@	c #CBA57F",
"I@	c #EBBC8B",
"J@	c #F8C691",
"K@	c #FBCC96",
"L@	c #D5AE81",
"M@	c #967653",
"N@	c #815C37",
"O@	c #A17141",
"P@	c #B98552",
"Q@	c #B98553",
"R@	c #AF7B4A",
"S@	c #A6733F",
"T@	c #A5703B",
"U@	c #A67442",
"V@	c #977049",
"W@	c #755E47",
"X@	c #636154",
"Y@	c #6D685F",
"Z@	c #8B7867",
"`@	c #A9896C",
" #	c #9C8975",
".#	c #807E7D",
"+#	c #7B7672",
"@#	c #A58C73",
"##	c #DBB387",
"$#	c #F1C895",
"%#	c #D7B286",
"&#	c #B59270",
"*#	c #B78F6C",
"=#	c #D5A476",
"-#	c #E7B380",
";#	c #F2BF8C",
">#	c #D0A77B",
",#	c #8B6D4D",
"'#	c #785733",
")#	c #9B6D3E",
"!#	c #B7834F",
"~#	c #B3804D",
"{#	c #A3713F",
"]#	c #9C6A36",
"^#	c #A26D39",
"/#	c #AF7A45",
"(#	c #AC7C4D",
"_#	c #8D6D4C",
":#	c #675644",
"<#	c #636156",
"[#	c #766E64",
"}#	c #97806A",
"|#	c #B39070",
"1#	c #98826D",
"2#	c #736D68",
"3#	c #948576",
"4#	c #D0AB84",
"5#	c #F6CC98",
"6#	c #FFD59E",
"7#	c #EEC491",
"8#	c #D4A87B",
"9#	c #CC9D71",
"0#	c #D6A473",
"a#	c #ECB883",
"b#	c #F4C38E",
"c#	c #CBA279",
"d#	c #8B6B4C",
"e#	c #795632",
"f#	c #9D6F3E",
"g#	c #AE7B47",
"h#	c #A06C3A",
"i#	c #9E6B38",
"j#	c #AA7643",
"k#	c #B8834E",
"l#	c #B68450",
"m#	c #9F774E",
"n#	c #7B634C",
"o#	c #6B6559",
"p#	c #81786C",
"q#	c #A3896F",
"r#	c #C39A72",
"s#	c #AD8E6E",
"t#	c #8C7660",
"u#	c #BB9C79",
"v#	c #F0C593",
"w#	c #FFD49D",
"x#	c #FBCB97",
"y#	c #F1C08D",
"z#	c #EAB884",
"A#	c #EEBA85",
"B#	c #F7C38F",
"C#	c #F1C291",
"D#	c #BE9973",
"E#	c #806346",
"F#	c #7E5833",
"G#	c #A47341",
"H#	c #B47F4C",
"I#	c #AC7744",
"J#	c #A16E3B",
"K#	c #B27F4C",
"L#	c #B78450",
"M#	c #B8854F",
"N#	c #AC7E51",
"O#	c #876E55",
"P#	c #6A6255",
"Q#	c #787062",
"R#	c #948E85",
"S#	c #9D998F",
"T#	c #B29B82",
"U#	c #D7AA7E",
"V#	c #D6AA7E",
"W#	c #C8A27D",
"X#	c #DFB68A",
"Y#	c #FACE9A",
"Z#	c #FED39E",
"`#	c #FFD29C",
" $	c #FECC99",
".$	c #FCCC97",
"+$	c #FDCD98",
"@$	c #FAC996",
"#$	c #D9AF84",
"$$	c #9A7C5E",
"%$	c #74573B",
"&$	c #835A33",
"*$	c #A57241",
"=$	c #B07C48",
"-$	c #A97642",
";$	c #A87542",
">$	c #B07E4A",
",$	c #B5834F",
"'$	c #B2804C",
")$	c #B47F49",
"!$	c #AD7F51",
"~$	c #8F7559",
"{$	c #6E6456",
"]$	c #8D867A",
"^$	c #AAB0AD",
"/$	c #A3BABE",
"($	c #8C9690",
"_$	c #BE9F7B",
":$	c #F1BE8D",
"<$	c #F7C896",
"[$	c #E5BD90",
"}$	c #EAC090",
"|$	c #F9C995",
"1$	c #FFCE9A",
"2$	c #FFCE9B",
"3$	c #FFD09A",
"4$	c #E9BC8C",
"5$	c #B28F6D",
"6$	c #7C6146",
"7$	c #6E4E2E",
"8$	c #885B2F",
"9$	c #A36F3C",
"0$	c #A97541",
"a$	c #A87541",
"b$	c #AB7845",
"c$	c #B78350",
"d$	c #B37F4B",
"e$	c #B37D48",
"f$	c #AA7B4E",
"g$	c #81684E",
"h$	c #5A5344",
"i$	c #908B81",
"j$	c #A6BEC5",
"k$	c #77BCDB",
"l$	c #467F95",
"m$	c #8F8675",
"n$	c #E4B889",
"o$	c #F8CD99",
"p$	c #D8B58B",
"q$	c #BE9D7A",
"r$	c #C49D76",
"s$	c #E4B383",
"t$	c #F9C793",
"u$	c #C39C75",
"v$	c #8A6C4F",
"w$	c #6D4F31",
"x$	c #785027",
"y$	c #91602D",
"z$	c #9E6A35",
"A$	c #A57240",
"B$	c #AA7744",
"C$	c #B07D4A",
"D$	c #B4814D",
"E$	c #B47F4A",
"F$	c #A97B50",
"G$	c #776149",
"H$	c #4D4739",
"I$	c #69604F",
"J$	c #A09A90",
"K$	c #AFD0DE",
"L$	c #68C0EC",
"M$	c #3089B4",
"N$	c #5B7A82",
"O$	c #BAA080",
"P$	c #E5BE8E",
"Q$	c #D2B186",
"R$	c #B39472",
"S$	c #BB946B",
"T$	c #DBA877",
"U$	c #F1C08C",
"V$	c #FED09B",
"W$	c #F9C896",
"X$	c #D3A97F",
"Y$	c #9A7A5B",
"Z$	c #735639",
"`$	c #78512C",
" %	c #915F30",
".%	c #A16B38",
"+%	c #A06B37",
"@%	c #9E6B39",
"#%	c #A5723F",
"$%	c #A97643",
"%%	c #AC7946",
"&%	c #AE7C48",
"*%	c #BA844E",
"=%	c #A47B52",
"-%	c #72604A",
";%	c #4C473A",
">%	c #7D7467",
",%	c #BAB3AB",
"'%	c #CDE5EF",
")%	c #87D7FD",
"!%	c #38A6DE",
"~%	c #377EA0",
"{%	c #79847F",
"]%	c #B69F7F",
"^%	c #D2B085",
"/%	c #D1A87E",
"(%	c #D4A575",
"_%	c #E0AC78",
":%	c #F3C08B",
"<%	c #FECE98",
"[%	c #E3B789",
"}%	c #A98666",
"|%	c #745B41",
"1%	c #71512F",
"2%	c #916335",
"3%	c #AA7542",
"4%	c #B17C49",
"5%	c #AA7745",
"6%	c #B37E49",
"7%	c #B18050",
"8%	c #927050",
"9%	c #635747",
"0%	c #48453A",
"a%	c #868278",
"b%	c #CDC7C0",
"c%	c #ECF7F8",
"d%	c #9CE4FF",
"e%	c #58C3F6",
"f%	c #64B1D5",
"g%	c #7499A6",
"h%	c #87887E",
"i%	c #AA9276",
"j%	c #C9A27A",
"k%	c #DBAD7B",
"l%	c #EBB780",
"m%	c #F6C38E",
"n%	c #F2C392",
"o%	c #C39B75",
"p%	c #86684D",
"q%	c #6C4F2F",
"r%	c #80572D",
"s%	c #A2703F",
"t%	c #B7824E",
"u%	c #B88451",
"v%	c #AD7945",
"w%	c #9F7751",
"x%	c #75604B",
"y%	c #514C40",
"z%	c #444437",
"A%	c #595649",
"B%	c #97958D",
"C%	c #E1DDDA",
"D%	c #FFFFFE",
"E%	c #DFFBFF",
"F%	c #BFF0FE",
"G%	c #BEE5F3",
"H%	c #AFC6CC",
"I%	c #828582",
"J%	c #786B5E",
"K%	c #937B62",
"L%	c #B79670",
"M%	c #D3AA7D",
"N%	c #E1B585",
"O%	c #C6A179",
"P%	c #927759",
"Q%	c #705437",
"R%	c #765028",
"S%	c #92612F",
"T%	c #AB7743",
"U%	c #B88551",
"V%	c #B88652",
"W%	c #B17E4B",
"X%	c #AB7945",
"Y%	c #A87643",
"Z%	c #A87642",
"`%	c #AF7B45",
" &	c #B17F4D",
".&	c #8F6E4E",
"+&	c #5B5041",
"@&	c #414136",
"#&	c #736F64",
"$&	c #ADACA5",
"%&	c #EBEAE9",
"&&	c #FFFFFF",
"*&	c #FAFEFE",
"=&	c #EAF2F2",
"-&	c #DBDEDA",
";&	c #AEAFA9",
">&	c #7B776F",
",&	c #565048",
"'&	c #5C5145",
")&	c #806D57",
"!&	c #997D5F",
"~&	c #AA8762",
"{&	c #987754",
"]&	c #775C3C",
"^&	c #72502D",
"/&	c #855929",
"(&	c #9B6833",
"_&	c #B68350",
":&	c #BA8754",
"<&	c #B5824F",
"[&	c #AF7D4A",
"}&	c #AC7A47",
"|&	c #A97744",
"1&	c #AB7744",
"2&	c #B6814A",
"3&	c #B18151",
"4&	c #886B4D",
"5&	c #584D3F",
"6&	c #9A9991",
"7&	c #D4D3CF",
"8&	c #FAFAFA",
"9&	c #EDECEB",
"0&	c #C9C6C2",
"a&	c #A7A299",
"b&	c #817B6E",
"c&	c #615B4B",
"d&	c #604F3B",
"e&	c #775A3C",
"f&	c #815E3A",
"g&	c #896137",
"h&	c #946537",
"i&	c #9B6936",
"j&	c #9B6934",
"k&	c #A16F3C",
"l&	c #B98653",
"m&	c #B78451",
"n&	c #B4814E",
"o&	c #AD7A47",
"p&	c #AF7A46",
"q&	c #A07951",
"r&	c #755F49",
"s&	c #4B433C",
"t&	c #A3A29A",
"u&	c #D7D7D3",
"v&	c #FCFDFC",
"w&	c #F2F2F0",
"x&	c #C8C7C2",
"y&	c #918F87",
"z&	c #696459",
"A&	c #493C2F",
"B&	c #614932",
"C&	c #7E5936",
"D&	c #A17140",
"E&	c #B57F4A",
"F&	c #B07B47",
"G&	c #A3703B",
"H&	c #A16D3A",
"I&	c #AF7C49",
"J&	c #B27F4D",
"K&	c #AE7945",
"L&	c #B47F4B",
"M&	c #AB7E51",
"N&	c #876A4C",
"O&	c #584C40",
"P&	c #858278",
"Q&	c #AAA8A2",
"R&	c #D1D0CE",
"S&	c #C9C9C4",
"T&	c #9B9990",
"U&	c #696558",
"V&	c #514134",
"W&	c #765638",
"X&	c #9D6F40",
"Y&	c #B6804B",
"Z&	c #B37E4A",
"`&	c #A26F3B",
" *	c #A97542",
".*	c #AF7C4A",
"+*	c #B07E4B",
"@*	c #B07C49",
"#*	c #B38352",
"$*	c #967350",
"%*	c #514D3D",
"&*	c #747064",
"**	c #96948B",
"=*	c #757164",
"-*	c #604A33",
";*	c #825E38",
">*	c #AC7743",
",*	c #9F6B35",
"'*	c #9E6A38",
")*	c #A4713E",
"!*	c #AC7845",
"~*	c #B47E4B",
"{*	c #B58250",
"]*	c #A17951",
"^*	c #786149",
"/*	c #624C35",
"(*	c #83603B",
"_*	c #9E7243",
":*	c #AD7943",
"<*	c #A6713B",
"[*	c #A46F3A",
"}*	c #A7733E",
"|*	c #AE7944",
"1*	c #B37F4E",
"2*	c #A57A51",
"3*	c #86684C",
"4*	c #594D41",
"5*	c #483E35",
"6*	c #624F3C",
"7*	c #836646",
"8*	c #A37A4E",
"9*	c #AC7D4C",
"0*	c #AB7A49",
"a*	c #B07E4C",
"b*	c #B17F4E",
"c*	c #AC7E50",
"d*	c #9E764F",
"e*	c #85674C",
"f*	c #605143",
"g*	c #5C4F42",
"h*	c #80664C",
"i*	c #8B6C4D",
"j*	c #92714E",
"k*	c #9C7650",
"l*	c #9C7751",
"m*	c #8A6B4D",
"n*	c #765F49",
"o*	c #635345",
"p*	c #695846",
"q*	c #745F48",
"r*	c #745E48",
"s*	c #655545",
"                                                                                            ",
"                                                                                            ",
"                                                                                            ",
"                                                                                            ",
"                                                                                            ",
"                                                                                            ",
"                                                                                            ",
"                  . +                                                                       ",
"            @ # $ % & * =                                                                   ",
"          - ; > , ' ) ! ~ {                                                                 ",
"        ] ^ / ( _ : < [ } | 1 2                                                             ",
"        3 4 5 6 7 8 9 0 a b c d e f g                                                       ",
"      h i j k l m n o p q r s t u v w x                                                     ",
"    y z A B C D E F G H I J K L M N O P Q R                                                 ",
"    S T U V W       X Y Z `  ...+.@.#.$.%.&.*.                                              ",
"    =.-.;.>.,.      '.).!.~.{.].^./.(._.:.<.[.}.  |.                                        ",
"  1.2.W 3.          4.5.6.~.~.~.~.~.~.~.7.8.9.0.a.b.c.d.                                    ",
"  e.f.g.              h.i.j.{.k.l.m.^.m.n.o.p.q.r.s.t.u.v.                                  ",
"w.x.y.z.              A.B.C.D.E.F.G.H.I.J.K.L.M.N.O.P.Q.R.                                  ",
"S.T.U.                  V.W.X.Y.Z.`. +.+++@+#+$+%+&+*+=+-+;+                                ",
"                        >+,+'+)+!+~+{+]+^+/+(+_+:+<+[+}+|+1+2+3+4+                          ",
"                        5+6+7+8+9+0+a+b+c+d+e+f+g+h+i+j+k+l+m+n+o+p+p+                      ",
"                          q+r+s+t+u+v+w+x+y+z+z+A+B+C+D+E+F+G+H+I+J+K+L+                    ",
"                          M+N+O+P+Q+R+S+T+U+V+W+X+Y+Z+`+ @.@+@@@#@$@%@&@*@=@                ",
"                          -@;@>@,@'@)@!@~@{@]@^@/@(@_@:@<@[@}@|@1@2@3@4@5@6@7@              ",
"                          8@9@0@a@b@c@d@e@f@g@h@i@j@(@k@l@m@n@o@p@q@r@s@$@t@u@v@            ",
"                          w@x@y@z@A@B@C@D@E@F@G@H@I@J@K@L@M@N@O@P@Q@R@S@T@U@V@W@            ",
"                        X@Y@Z@`@ #.#+#@###$#%#&#*#=#-#;#>#,#'#)#!#~#{#]#^#/#(#_#:#          ",
"                        <#[#}#|#1#2#3#4#5#6#7#8#9#0#a#b#c#d#e#f#!#g#h#i#j#k#l#m#n#          ",
"                        o#p#q#r#s#t#u#v#6#w#x#y#z#A#B#C#D#E#F#G#H#I#J#|@K#L#M#N#O#P#        ",
"                      Q#R#S#T#U#V#W#X#Y#Z#`#y+ $.$+$@$#$$$%$&$*$=$-$;$>$,$'$)$!$~${$        ",
"                      ]$^$/$($_$:$<$B+[$}$|$1$2$T+3$4$5$6$7$8$9$0$a$b$~#c$d$e$f$g$h$        ",
"                      i$j$k$l$m$n$o$p$q$r$s$t$V+U+C#u$v$w$x$y$z$J#A$B$C$D$E$)$F$G$H$        ",
"                    I$J$K$L$M$N$O$P$Q$R$S$T$U$V$W$X$Y$Z$`$ %.%+%@%#%$%%%&%)$*%=%-%;%        ",
"                    >%,%'%)%!%~%{%]%^%/%(%_%:%<%[%}%|%1%2%3%4%b$A$;$B$5%b$6%7%8%9%0%        ",
"                    a%b%c%d%e%f%g%h%i%j%k%l%m%n%o%p%q%r%s%t%u%C$B$B$B$$%v%K#w%x%y%z%        ",
"                  A%B%C%D%E%F%G%H%I%J%K%L%M%N%O%P%Q%R%S%T%U%V%W%X%B$Y%Z%`% &.&+&@&          ",
"                  #&$&%&&&*&=&-&;&>&,&'&)&!&~&{&]&^&/&(&-$_&:&<&[&}&|&1&2&3&4&5&            ",
"                  6&7&8&&&9&0&a&b&c&      d&e&f&g&h&i&j&k&W%l&m&n&o&Y%p&n&q&r&s&            ",
"                  t&u&v&w&x&y&z&          A&B&C&D&E&F&G&H&I&<&<&J&o&K&L&M&N&O&              ",
"                  P&Q&R&S&T&U&              V&W&X&Y&Z&|@`& *.*W%+*@*Z&#*$*:#                ",
"                  %*&*B%**=*                  -*;*D&>*T@,*'*)*!*=$~*{*]*^*                  ",
"                                                /*(*_*:*<*[*}*|*Z&1*2*3*4*                  ",
"                                                5*6*7*8*9*0*a*b*c*d*e*f*                    ",
"                                                    g*h*i*j*k*l*m*n*o*                      ",
"                                                        g*p*q*r*s*                          "};
