/* XPM */
static char * playerOne16_xpm[] = {
"46 46 810 2",
"  	c None",
". 	c #454235",
"+ 	c #46463B",
"@ 	c #434438",
"# 	c #403F36",
"$ 	c #4A473B",
"% 	c #4F493A",
"& 	c #595041",
"* 	c #5E5345",
"= 	c #5C5143",
"- 	c #5C5042",
"; 	c #665744",
"> 	c #715D48",
", 	c #715B48",
"' 	c #6B5946",
") 	c #675745",
"! 	c #625344",
"~ 	c #5E5043",
"{ 	c #656054",
"] 	c #6B6252",
"^ 	c #6D5E4B",
"/ 	c #725F48",
"( 	c #82684C",
"_ 	c #8D6F50",
": 	c #876A4E",
"< 	c #886A4C",
"[ 	c #94724F",
"} 	c #9B764F",
"| 	c #9F7850",
"1 	c #99754F",
"2 	c #95734F",
"3 	c #92714F",
"4 	c #8A6B4D",
"5 	c #80664B",
"6 	c #715C49",
"7 	c #776755",
"8 	c #877158",
"9 	c #927151",
"0 	c #9D754F",
"a 	c #AA7C50",
"b 	c #B38251",
"c 	c #AF7F50",
"d 	c #AB7C4E",
"e 	c #B2804D",
"f 	c #B4814D",
"g 	c #B5814D",
"h 	c #B4814F",
"i 	c #B1814F",
"j 	c #B28251",
"k 	c #AC7D51",
"l 	c #A3784F",
"m 	c #94704D",
"n 	c #81664A",
"o 	c #6B5847",
"p 	c #715F4A",
"q 	c #8D7051",
"r 	c #A37B54",
"s 	c #AD7E50",
"t 	c #B37F4A",
"u 	c #B9824B",
"v 	c #B9834C",
"w 	c #B6814B",
"x 	c #B17D49",
"y 	c #B07B46",
"z 	c #B27C45",
"A 	c #B17B46",
"B 	c #B17B47",
"C 	c #B37D48",
"D 	c #B6804B",
"E 	c #B7814D",
"F 	c #B47F4D",
"G 	c #AE7D4E",
"H 	c #9F774F",
"I 	c #8A6C4E",
"J 	c #86684A",
"K 	c #A37A50",
"L 	c #B58350",
"M 	c #B8844E",
"N 	c #B47E4B",
"O 	c #B5814B",
"P 	c #B07D47",
"Q 	c #AC7945",
"R 	c #AB7744",
"S 	c #AA7743",
"T 	c #A97743",
"U 	c #AB7845",
"V 	c #AE7946",
"W 	c #AF7C49",
"X 	c #B17D4A",
"Y 	c #B27C49",
"Z 	c #B47F4A",
"` 	c #AF7F4E",
" .	c #9D7650",
"..	c #82684D",
"+.	c #766048",
"@.	c #98724C",
"#.	c #B28050",
"$.	c #BA864F",
"%.	c #B8854E",
"&.	c #B6824F",
"*.	c #B7824F",
"=.	c #AE7C48",
"-.	c #AA7745",
";.	c #AA7744",
">.	c #A97643",
",.	c #AD7B48",
"'.	c #B07D4B",
").	c #B27E4C",
"!.	c #B17E4B",
"~.	c #AE7A46",
"{.	c #AD7843",
"].	c #AD7A46",
"^.	c #A67A4E",
"/.	c #5F5041",
"(.	c #836446",
"_.	c #A27447",
":.	c #B27C48",
"<.	c #B37E48",
"[.	c #B27E4A",
"}.	c #B3804C",
"|.	c #B3814D",
"1.	c #AB7846",
"2.	c #AA7644",
"3.	c #AA7643",
"4.	c #AB7844",
"5.	c #AF7E49",
"6.	c #B4824F",
"7.	c #B78451",
"8.	c #B5824E",
"9.	c #AC7946",
"0.	c #A46F3B",
"a.	c #A6723D",
"b.	c #AB7B4A",
"c.	c #93704E",
"d.	c #6D5B48",
"e.	c #6D553D",
"f.	c #896541",
"g.	c #A37140",
"h.	c #A8723D",
"i.	c #A46F3C",
"j.	c #A4713D",
"k.	c #A87642",
"l.	c #AB7945",
"m.	c #AA7844",
"n.	c #A77442",
"o.	c #A4723F",
"p.	c #A87543",
"q.	c #AD7B47",
"r.	c #B27F4C",
"s.	c #B88552",
"t.	c #BA8653",
"u.	c #B6814E",
"v.	c #AC7845",
"w.	c #A36E39",
"x.	c #A8713A",
"y.	c #AB7A47",
"z.	c #9B754F",
"A.	c #76604B",
"B.	c #7E5A37",
"C.	c #996C41",
"D.	c #A97542",
"E.	c #A5703D",
"F.	c #9D6B38",
"G.	c #9E6B39",
"H.	c #A3713D",
"I.	c #A87441",
"J.	c #A67340",
"K.	c #A06D39",
"L.	c #A16E3B",
"M.	c #AB7746",
"N.	c #BA8754",
"O.	c #B78350",
"P.	c #AE7A47",
"Q.	c #A7733F",
"R.	c #A4703A",
"S.	c #A7723B",
"T.	c #A97744",
"U.	c #95714B",
"V.	c #6D5A47",
"W.	c #946638",
"X.	c #A97645",
"Y.	c #B7824E",
"Z.	c #B17C4B",
"`.	c #A87644",
" +	c #AD7945",
".+	c #B07B47",
"++	c #A8743F",
"@+	c #9F6C37",
"#+	c #9F6B37",
"$+	c #AA7542",
"%+	c #B5814C",
"&+	c #BA8652",
"*+	c #B07C49",
"=+	c #A5713E",
"-+	c #A26F3C",
";+	c #A97440",
">+	c #AD7641",
",+	c #A67443",
"'+	c #886642",
")+	c #63513F",
"!+	c #956737",
"~+	c #BE8A54",
"{+	c #BD8956",
"]+	c #B5804C",
"^+	c #B07B48",
"/+	c #A87544",
"(+	c #9C6A3B",
"_+	c #926131",
":+	c #91602E",
"<+	c #9C6736",
"[+	c #A97442",
"}+	c #AD7946",
"|+	c #A26E3A",
"1+	c #9D6A34",
"2+	c #A26F3A",
"3+	c #B27C47",
"4+	c #B6804A",
"5+	c #A07142",
"6+	c #7A5B3A",
"7+	c #574737",
"8+	c #865D34",
"9+	c #A57442",
"0+	c #BA8550",
"a+	c #BF8B56",
"b+	c #BC8853",
"c+	c #B37F4C",
"d+	c #A67543",
"e+	c #95683B",
"f+	c #8D6238",
"g+	c #815935",
"h+	c #76512D",
"i+	c #775029",
"j+	c #7E542C",
"k+	c #875C31",
"l+	c #8A6033",
"m+	c #895D2F",
"n+	c #8A5C2B",
"o+	c #8C5D2B",
"p+	c #9A6936",
"q+	c #B27B47",
"r+	c #B57F4A",
"s+	c #976B3F",
"t+	c #6E5336",
"u+	c #58422D",
"v+	c #775331",
"w+	c #996A3A",
"x+	c #B37B46",
"y+	c #B8824D",
"z+	c #9A6C3E",
"A+	c #865F36",
"B+	c #7B5935",
"C+	c #7C5C3B",
"D+	c #7E6042",
"E+	c #795D41",
"F+	c #75583B",
"G+	c #755638",
"H+	c #735436",
"I+	c #725333",
"J+	c #6E4F2E",
"K+	c #71502B",
"L+	c #75512C",
"M+	c #855C33",
"N+	c #9D6E3E",
"O+	c #9D6F40",
"P+	c #84603A",
"Q+	c #624C34",
"R+	c #4D3D2D",
"S+	c #6D4E2E",
"T+	c #916335",
"U+	c #A8713C",
"V+	c #94673A",
"W+	c #86603B",
"X+	c #846341",
"Y+	c #8E6E4D",
"Z+	c #9F7E5C",
"`+	c #AF8D69",
" @	c #AD8C6A",
".@	c #A88666",
"+@	c #A1805F",
"@@	c #987757",
"#@	c #8E6F53",
"$@	c #886A4D",
"%@	c #826548",
"&@	c #7F6244",
"*@	c #7F603E",
"=@	c #87613A",
"-@	c #815B37",
";@	c #6B4F35",
">@	c #694B2E",
",@	c #8C5E33",
"'@	c #9D6834",
")@	c #906131",
"!@	c #7D5A36",
"~@	c #896B49",
"{@	c #A98862",
"]@	c #C49D74",
"^@	c #D9AF81",
"/@	c #E8BB8B",
"(@	c #E7BB8C",
"_@	c #E7BA8B",
":@	c #E1B588",
"<@	c #D8AD82",
"[@	c #CFA67D",
"}@	c #C8A17A",
"|@	c #C29D76",
"1@	c #B7946F",
"2@	c #A3815D",
"3@	c #8D6C48",
"4@	c #715337",
"5@	c #584432",
"6@	c #62472E",
"7@	c #815830",
"8@	c #8F6031",
"9@	c #835B32",
"0@	c #826344",
"a@	c #A88966",
"b@	c #D8B184",
"c@	c #EEBF8D",
"d@	c #F1BF8B",
"e@	c #F5C08C",
"f@	c #F8C48F",
"g@	c #FDCB97",
"h@	c #FFD19C",
"i@	c #FBCC99",
"j@	c #F9CA98",
"k@	c #F7C895",
"l@	c #F6C694",
"m@	c #EBBD8D",
"n@	c #D0A77A",
"o@	c #A3825E",
"p@	c #6F5840",
"q@	c #5A4530",
"r@	c #71502D",
"s@	c #7C562F",
"t@	c #7D5D3B",
"u@	c #967959",
"v@	c #CBA87F",
"w@	c #F4CB98",
"x@	c #FDCB95",
"y@	c #ECB884",
"z@	c #E0AB78",
"A@	c #E7B380",
"B@	c #F6C490",
"C@	c #FED09B",
"D@	c #FFD29E",
"E@	c #FFD19D",
"F@	c #FDCD97",
"G@	c #F9C590",
"H@	c #F5C18C",
"I@	c #E1B483",
"J@	c #B2916D",
"K@	c #74604C",
"L@	c #524837",
"M@	c #5E482E",
"N@	c #6D4F30",
"O@	c #846648",
"P@	c #B59672",
"Q@	c #E9C292",
"R@	c #FFD5A0",
"S@	c #F9CC98",
"T@	c #DEAE80",
"U@	c #C8996E",
"V@	c #D2A274",
"W@	c #ECBB88",
"X@	c #FCCC97",
"Y@	c #FFD09C",
"Z@	c #FCCB98",
"`@	c #F0BD8A",
" #	c #E5B17E",
".#	c #E7B37D",
"+#	c #DBAE7C",
"@#	c #AE8F6C",
"##	c #756351",
"$#	c #525447",
"%#	c #534F42",
"&#	c #574938",
"*#	c #69523B",
"=#	c #967759",
"-#	c #D2AC82",
";#	c #F8CF9B",
">#	c #FFD6A0",
",#	c #F5C997",
"'#	c #D3AA82",
")#	c #B99370",
"!#	c #C99F76",
"~#	c #EBBC89",
"{#	c #FCCD98",
"]#	c #FFD09A",
"^#	c #F6C692",
"/#	c #DDAE7E",
"(#	c #CB9D71",
"_#	c #D1A373",
":#	c #D2A779",
"<#	c #AB8C6C",
"[#	c #716254",
"}#	c #575647",
"|#	c #59594D",
"1#	c #5C5A51",
"2#	c #635A50",
"3#	c #7B6754",
"4#	c #AE8D6D",
"5#	c #E5BC8D",
"6#	c #FFD49E",
"7#	c #F3CA99",
"8#	c #D4B188",
"9#	c #BD9C79",
"0#	c #D1AB81",
"a#	c #F2C693",
"b#	c #FFD29D",
"c#	c #FFD39D",
"d#	c #F3C795",
"e#	c #D4AB80",
"f#	c #BB9671",
"g#	c #C39E77",
"h#	c #CEA87F",
"i#	c #A58B72",
"j#	c #7A7167",
"k#	c #737068",
"l#	c #726C5E",
"m#	c #585547",
"n#	c #5D5C52",
"o#	c #63645F",
"p#	c #706C65",
"q#	c #8F7D6C",
"r#	c #C3A17E",
"s#	c #F0C593",
"t#	c #FFD39E",
"u#	c #FACE9C",
"v#	c #E9C294",
"w#	c #DCB68C",
"x#	c #E3BB8D",
"y#	c #F8CF99",
"z#	c #FFD59E",
"A#	c #FFD69E",
"B#	c #F6CC99",
"C#	c #DBB48A",
"D#	c #C7A67F",
"E#	c #CEAD83",
"F#	c #CAAA83",
"G#	c #9F917D",
"H#	c #868D8B",
"I#	c #9EA5A4",
"J#	c #A5A29A",
"K#	c #8A8378",
"L#	c #6A6458",
"M#	c #585445",
"N#	c #5E5C51",
"O#	c #63645E",
"P#	c #706D65",
"Q#	c #93816D",
"R#	c #C8A47F",
"S#	c #F4C793",
"T#	c #F9CC9A",
"U#	c #E6BB8F",
"V#	c #DCB488",
"W#	c #E4BD8D",
"X#	c #EBC291",
"Y#	c #F1C794",
"Z#	c #EEC493",
"`#	c #E7BF90",
" $	c #E9C191",
".$	c #E9C290",
"+$	c #C9AC85",
"@$	c #898F85",
"#$	c #80A5B2",
"$$	c #B8D4DD",
"%$	c #D2D8D5",
"&$	c #BFBCB5",
"*$	c #A29E97",
"=$	c #8C8A81",
"-$	c #858277",
";$	c #5A5748",
">$	c #5D5D50",
",$	c #5F6158",
"'$	c #63645A",
")$	c #81735F",
"!$	c #B79773",
"~$	c #ECC08E",
"{$	c #FED19B",
"]$	c #F6C997",
"^$	c #D3AC85",
"/$	c #AE9072",
"($	c #A98F74",
"_$	c #AE967C",
":$	c #B99D7E",
"<$	c #C4A27C",
"[$	c #DDB489",
"}$	c #F9C995",
"|$	c #F0C18F",
"1$	c #B29E81",
"2$	c #5F8590",
"3$	c #5BA6C8",
"4$	c #9CDBF4",
"5$	c #DBF4F8",
"6$	c #E9ECE9",
"7$	c #DADAD6",
"8$	c #CCCBC7",
"9$	c #B9B8B1",
"0$	c #9D9B93",
"a$	c #5D5E50",
"b$	c #596156",
"c$	c #545B50",
"d$	c #5F5F4F",
"e$	c #8A7A5E",
"f$	c #C2A179",
"g$	c #E9C08E",
"h$	c #FACE99",
"i$	c #F9CB98",
"j$	c #D3AE85",
"k$	c #99836E",
"l$	c #81756C",
"m$	c #7F7974",
"n$	c #80766A",
"o$	c #9B836A",
"p$	c #CAA27C",
"q$	c #EAB989",
"r$	c #CCA881",
"s$	c #7E867E",
"t$	c #3F84A3",
"u$	c #41ACE1",
"v$	c #79D6FC",
"w$	c #DBFBFF",
"x$	c #FEFFFF",
"y$	c #FDFDFC",
"z$	c #FAFAF8",
"A$	c #E0E0DD",
"B$	c #AFADA7",
"C$	c #7F7B70",
"D$	c #644B3E",
"E$	c #654C41",
"F$	c #5E493F",
"G$	c #57443A",
"H$	c #5F513F",
"I$	c #8C7055",
"J$	c #B4936E",
"K$	c #DCB586",
"L$	c #F1C38E",
"M$	c #FBCA92",
"N$	c #E3B688",
"O$	c #BA997B",
"P$	c #968578",
"Q$	c #857E78",
"R$	c #867B6F",
"S$	c #9D846B",
"T$	c #C79E74",
"U$	c #D6AB80",
"V$	c #A49984",
"W$	c #558291",
"X$	c #4399C3",
"Y$	c #6BC8F5",
"Z$	c #A0E7FF",
"`$	c #E9FDFF",
" %	c #FFFFFF",
".%	c #FAFAFA",
"+%	c #FBFBFA",
"@%	c #E7E6E5",
"#%	c #AFADA8",
"$%	c #746F65",
"%%	c #7A271C",
"&%	c #93251D",
"*%	c #91261F",
"=%	c #86201B",
"-%	c #75231B",
";%	c #75382B",
">%	c #835C47",
",%	c #A48666",
"'%	c #C09D75",
")%	c #D2A579",
"!%	c #D5A67B",
"~%	c #C09873",
"{%	c #AC8E72",
"]%	c #9E8772",
"^%	c #A58A70",
"/%	c #AC8C6F",
"(%	c #B99471",
"_%	c #BD9F7E",
":%	c #A0A298",
"<%	c #7DAFC1",
"[%	c #76BEDF",
"}%	c #9ED5EE",
"|%	c #CEE4EB",
"1%	c #E4E4DF",
"2%	c #E2DDD8",
"3%	c #D1D0CC",
"4%	c #CDCCC7",
"5%	c #C7C6C1",
"6%	c #A09E96",
"7%	c #696659",
"8%	c #8F160D",
"9%	c #C30C08",
"0%	c #DA0706",
"a%	c #D10604",
"b%	c #BB0504",
"c%	c #95110E",
"d%	c #783831",
"e%	c #7F6D5F",
"f%	c #978F7D",
"g%	c #9A8773",
"h%	c #A38B71",
"i%	c #9E856A",
"j%	c #997E65",
"k%	c #957B64",
"l%	c #9B7F67",
"m%	c #9E836C",
"n%	c #99826E",
"o%	c #988A79",
"p%	c #9F9F97",
"q%	c #A3B6B9",
"r%	c #A2BDC5",
"s%	c #A9B8B9",
"t%	c #B7B3AC",
"u%	c #B2AAA1",
"v%	c #A19C94",
"w%	c #908F86",
"x%	c #929087",
"y%	c #96948B",
"z%	c #8B897E",
"A%	c #5C2615",
"B%	c #961910",
"C%	c #D70806",
"D%	c #FD0000",
"E%	c #ED0000",
"F%	c #BD0807",
"G%	c #8A3734",
"H%	c #88827B",
"I%	c #9AA9A3",
"J%	c #949B96",
"K%	c #8A8980",
"L%	c #858176",
"M%	c #827A6F",
"N%	c #7D7064",
"O%	c #796C5F",
"P%	c #7A6F62",
"Q%	c #786F64",
"R%	c #787166",
"S%	c #8B867C",
"T%	c #99978F",
"U%	c #96938B",
"V%	c #8D8679",
"W%	c #827869",
"X%	c #797062",
"Y%	c #5E5A4C",
"Z%	c #684032",
"`%	c #A22F29",
" &	c #E01413",
".&	c #FD0303",
"+&	c #FF0000",
"@&	c #FA0000",
"#&	c #D00806",
"$&	c #9D342F",
"%&	c #917E75",
"&&	c #A1A59F",
"*&	c #9B918D",
"=&	c #8A7A75",
"-&	c #7E7871",
";&	c #7A7870",
">&	c #706E67",
",&	c #656257",
"'&	c #616056",
")&	c #5F5C4F",
"!&	c #6D6658",
"~&	c #7A675B",
"{&	c #B05853",
"]&	c #E53231",
"^&	c #FE0C0C",
"/&	c #FC0000",
"(&	c #E10303",
"_&	c #B21A16",
":&	c #9A4840",
"<&	c #9E625B",
"[&	c #935048",
"}&	c #793E33",
"|&	c #6C4D40",
"1&	c #676051",
"2&	c #8B8B81",
"3&	c #BA8681",
"4&	c #E95757",
"5&	c #FB1819",
"6&	c #FF0101",
"7&	c #F60000",
"8&	c #D90504",
"9&	c #C21310",
"0&	c #B01814",
"a&	c #96160F",
"b&	c #761409",
"c&	c #58210F",
"d&	c #96A197",
"e&	c #C5A7A2",
"f&	c #E97878",
"g&	c #F42B2D",
"h&	c #FA0303",
"i&	c #F80000",
"j&	c #E20201",
"k&	c #C30704",
"l&	c #9F0903",
"m&	c #7C1106",
"n&	c #97A095",
"o&	c #C1B2AC",
"p&	c #E59796",
"q&	c #F04446",
"r&	c #F70909",
"s&	c #FD0100",
"t&	c #DA0704",
"u&	c #B3110B",
"v&	c #95170F",
"w&	c #868D7F",
"x&	c #B8B6AE",
"y&	c #E0AEAC",
"z&	c #EF6363",
"A&	c #F61617",
"B&	c #FE0000",
"C&	c #E00704",
"D&	c #8B1D11",
"E&	c #777E6E",
"F&	c #AFB4AB",
"G&	c #DFC5C2",
"H&	c #F68D8D",
"I&	c #F93031",
"J&	c #F70303",
"K&	c #E50301",
"L&	c #BC0E08",
"M&	c #8A1A11",
"N&	c #6F6F60",
"O&	c #ACB1A8",
"P&	c #E7DDDB",
"Q&	c #FAAEAF",
"R&	c #F14849",
"S&	c #DF0E0D",
"T&	c #C40905",
"U&	c #9D160D",
"V&	c #712316",
"W&	c #828073",
"X&	c #BAC1BA",
"Y&	c #E8E4E2",
"Z&	c #EEB0B0",
"`&	c #D74F4F",
" *	c #BB1412",
".*	c #A10C06",
"+*	c #99998F",
"@*	c #C5CAC5",
"#*	c #DDDAD6",
"$*	c #CB9D98",
"%*	c #A8433C",
"&*	c #8D150D",
"**	c #791106",
"=*	c #979389",
"-*	c #BABCB6",
";*	c #B4B3AB",
">*	c #8D7065",
",*	c #6D3326",
"'*	c #591D10",
")*	c #482211",
"!*	c #8D897D",
"~*	c #A2A299",
"{*	c #8F8E85",
"]*	c #665C51",
"^*	c #503D31",
"/*	c #4B3F32",
"(*	c #464839",
"_*	c #444A3B",
":*	c #454636",
"<*	c #837F74",
"[*	c #75746A",
"}*	c #65655D",
"|*	c #63615D",
"1*	c #696A66",
"2*	c #686C65",
"3*	c #65665F",
"4*	c #616058",
"5*	c #5C5950",
"6*	c #555346",
"7*	c #5C5A4F",
"8*	c #666760",
"9*	c #767874",
"0*	c #818280",
"a*	c #878685",
"b*	c #81817E",
"c*	c #7C7D7A",
"d*	c #73716D",
"e*	c #626159",
"f*	c #525044",
"g*	c #4C493B",
"h*	c #4B4A3C",
"i*	c #4B4838",
"j*	c #5A574A",
"k*	c #6A6960",
"l*	c #76726D",
"m*	c #7D7975",
"n*	c #7E7D78",
"o*	c #7E7D7A",
"p*	c #777571",
"q*	c #65635C",
"r*	c #525146",
"s*	c #4C493E",
"t*	c #4C4A3E",
"u*	c #4D4A3D",
"v*	c #4B4739",
"w*	c #4B4634",
"x*	c #565242",
"y*	c #5E594C",
"z*	c #625E52",
"A*	c #656156",
"B*	c #676459",
"C*	c #666359",
"D*	c #5F5C51",
"E*	c #504D40",
"F*	c #4A4839",
"G*	c #4C493C",
"H*	c #4B483B",
"I*	c #494636",
"                                                                                            ",
"                  . + @ #                                                                   ",
"              $ % & * = - ; > , ' ) ! ~                                                     ",
"          { ] ^ / ( _ : < [ } | 1 2 3 4 5 6                                                 ",
"          7 8 9 0 a b c d e f g h i j k l m n o                                             ",
"        p q r s t u v w x y z A B C D E F G H I                                             ",
"        J K L M N D O P Q R S T U V W X Y Z `  ...                                          ",
"      +.@.#.$.%.&.*.g =.-.;.>.T ,.'.).!.~.{.].^.I                                           ",
"    /.(._.:.<.[.}.|.X 1.>.2.3.4.5.6.7.8.9.0.a.b.c.d.                                        ",
"    e.f.g.h.i.j.k.l.m.n.o.o.p.q.r.s.t.u.v.w.x.y.z.A.                                        ",
"    B.C.D.E.F.G.H.I.>.J.K.L.M.r.7.N.O.P.Q.R.S.T.U.V.                                        ",
"    W.X.Y.Z.`.p. +.+V ++@+#+$+%+&+7.*+=+-+;+>+,+'+)+                                        ",
"    !+q.~+{+s.O.]+^+/+(+_+:+<+[+}+D.|+1+2+3+4+5+6+7+                                        ",
"    8+9+0+a+b+c+d+e+f+g+h+i+j+k+l+m+n+o+p+q+r+s+t+                                          ",
"  u+v+w+x+y+W z+A+B+C+D+E+F+G+H+I+J+K+L+M+N+O+P+Q+                                          ",
"  R+S+T+U+j.V+W+X+Y+Z+`+ @.@+@@@#@$@%@&@*@=@-@;@                                            ",
"    >@,@'@)@!@~@{@]@^@/@(@_@:@<@[@}@|@1@2@3@4@5@                                            ",
"    6@7@8@9@0@a@b@c@d@e@f@g@h@i@j@k@l@m@n@o@p@                                              ",
"    q@r@s@t@u@v@w@x@y@z@A@B@C@D@E@F@G@H@I@J@K@                                              ",
"    L@M@N@O@P@Q@R@S@T@U@V@W@X@Y@Z@`@ #.#+#@###                                              ",
"  $#%#&#*#=#-#;#>#,#'#)#!#~#{#]#^#/#(#_#:#<#[#                                              ",
"}#|#1#2#3#4#5#D@6#7#8#9#0#a#b#c#d#e#f#g#h#i#j#k#l#                                          ",
"m#n#o#p#q#r#s#D@t#u#v#w#x#y#z#A#B#C#D#E#F#G#H#I#J#K#L#                                      ",
"M#N#O#P#Q#R#S#z#D@Y@T#U#V#W#X#Y#Z#`# $.$+$@$#$$$%$&$*$=$-$                                  ",
";$>$,$'$)$!$~${$b#E@]$^$/$($_$:$<$[$}$|$1$2$3$4$5$6$7$8$9$0$                                ",
"  a$b$c$d$e$f$g$h$c#i$j$k$l$m$n$o$p$q$r$s$t$u$v$w$x$y$z$A$B$C$                              ",
"  D$E$F$G$H$I$J$K$L$M$N$O$P$Q$R$S$T$U$V$W$X$Y$Z$`$ %.%+%@%#%$%                              ",
"  %%&%*%=%-%;%>%,%'%)%!%~%{%]%^%/%(%_%:%<%[%}%|%1%2%3%4%5%6%7%                              ",
"  8%9%0%a%b%c%d%e%f%g%h%i%j%k%l%m%n%o%p%q%r%s%t%u%v%w%x%y%z%                                ",
"A%B%C%D%D%E%F%G%H%I%J%K%L%M%N%O%P%Q%R%S%T%U%V%W%X%    Y%                                    ",
"Z%`% &.&+&@&#&$&%&&&*&=&-&;&>&,&,&'&)&!&X%                                                  ",
"~&{&]&^&+&/&(&_&:&<&[&}&|&1&                                                                ",
"2&3&4&5&6&+&7&8&9&0&a&b&c&                                                                  ",
"d&e&f&g&h&+&+&i&j&k&l&m&                                                                    ",
"n&o&p&q&r&+&+&s&t&u&v&                                                                      ",
"w&x&y&z&A&B&@&C&u&D&                                                                        ",
"E&F&G&H&I&J&K&L&M&                                                                          ",
"N&O&P&Q&R&S&T&U&V&                                                                          ",
"W&X&Y&Z&`& *.*                                                                              ",
"+*@*#*$*%*&***                                                                              ",
"=*-*;*>*,*'*)*                                                                              ",
"!*~*{*]*^*/*(*_*:*                                                                          ",
"  <*[*}*|*1*2*3*4*5*6*                                                                      ",
"    7*8*9*0*a*b*c*d*e*f*g*h*g*                                                              ",
"    i*j*k*l*m*n*o*p*q*r*s*t*u*v*                                                            ",
"      w*x*y*z*A*B*C*D*E*F*G*H*I*                                                            "};
