/* XPM */
static char * playerOne08_xpm[] = {
"46 46 778 2",
"  	c None",
". 	c #444131",
"+ 	c #454234",
"@ 	c #464231",
"# 	c #4B483B",
"$ 	c #4E4B41",
"% 	c #4B493D",
"& 	c #474336",
"* 	c #514D40",
"= 	c #636257",
"- 	c #575446",
"; 	c #534F40",
"> 	c #504D3C",
", 	c #4B483A",
"' 	c #4C4A3D",
") 	c #4C493D",
"! 	c #4F4C42",
"~ 	c #5C5A51",
"{ 	c #75746F",
"] 	c #7F7E7B",
"^ 	c #797771",
"/ 	c #726F67",
"( 	c #605C50",
"_ 	c #5B5749",
": 	c #4D4837",
"< 	c #444030",
"[ 	c #474333",
"} 	c #58554A",
"| 	c #6F6E6A",
"1 	c #838383",
"2 	c #8C8C8D",
"3 	c #8A8988",
"4 	c #848381",
"5 	c #7A7974",
"6 	c #636157",
"7 	c #4A4736",
"8 	c #545147",
"9 	c #5E5C55",
"0 	c #6C6C69",
"a 	c #767775",
"b 	c #808080",
"c 	c #828283",
"d 	c #6D6C68",
"e 	c #5C5B50",
"f 	c #444031",
"g 	c #474638",
"h 	c #4B5347",
"i 	c #565A52",
"j 	c #5E5B56",
"k 	c #5B5A53",
"l 	c #6D6C63",
"m 	c #79756A",
"n 	c #393220",
"o 	c #442D1E",
"p 	c #4C2F21",
"q 	c #564C3F",
"r 	c #95968E",
"s 	c #A3A199",
"t 	c #807A6F",
"u 	c #631609",
"v 	c #71160B",
"w 	c #793225",
"x 	c #8F786F",
"y 	c #CBCCC8",
"z 	c #BBBBB4",
"A 	c #7D796C",
"B 	c #8F0E06",
"C 	c #AF1C19",
"D 	c #C25D59",
"E 	c #D7BFBB",
"F 	c #E1E8E4",
"G 	c #B6B7B0",
"H 	c #797668",
"I 	c #791F14",
"J 	c #9C150D",
"K 	c #B20E09",
"L 	c #D62021",
"M 	c #EB8587",
"N 	c #F8ECEB",
"O 	c #D9DDDA",
"P 	c #949389",
"Q 	c #632316",
"R 	c #9A150D",
"S 	c #D30805",
"T 	c #EF0000",
"U 	c #EB1415",
"V 	c #F07E7F",
"W 	c #F7E1E1",
"X 	c #C6CAC5",
"Y 	c #777669",
"Z 	c #7C2014",
"` 	c #A0130C",
" .	c #CE0905",
"..	c #F50201",
"+.	c #FD0000",
"@.	c #F10D0D",
"#.	c #EA6161",
"$.	c #EDC9CA",
"%.	c #BDC1BA",
"&.	c #6E6F60",
"*.	c #6D2417",
"=.	c #891B12",
"-.	c #B1110B",
";.	c #DB0805",
">.	c #FD0100",
",.	c #FF0000",
"'.	c #EE0303",
").	c #E7494A",
"!.	c #E8B5B5",
"~.	c #B4B2AA",
"{.	c #75796A",
"].	c #7D1308",
"^.	c #AB0905",
"/.	c #CC0403",
"(.	c #EE0101",
"_.	c #FE0000",
":.	c #F20202",
"<.	c #E93737",
"[.	c #E69A9A",
"}.	c #C1BBB4",
"|.	c #8A9386",
"1.	c #493A25",
"2.	c #5A200F",
"3.	c #791208",
"4.	c #99110C",
"5.	c #AD120F",
"6.	c #C80906",
"7.	c #EC0000",
"8.	c #F70101",
"9.	c #EE2526",
"0.	c #EB8B8B",
"a.	c #C1B7B1",
"b.	c #838A7E",
"c.	c #7D7A6F",
"d.	c #777369",
"e.	c #635F52",
"f.	c #625F52",
"g.	c #6A665A",
"h.	c #70695B",
"i.	c #776D5D",
"j.	c #797063",
"k.	c #878075",
"l.	c #867F72",
"m.	c #5B5446",
"n.	c #636054",
"o.	c #6A685E",
"p.	c #5E5B50",
"q.	c #64625A",
"r.	c #7F7E76",
"s.	c #7A7368",
"t.	c #76594D",
"u.	c #814A3F",
"v.	c #965F57",
"w.	c #936159",
"x.	c #912E25",
"y.	c #C80200",
"z.	c #FB0000",
"A.	c #F41C1E",
"B.	c #E36E70",
"C.	c #AC9791",
"D.	c #718173",
"E.	c #89877D",
"F.	c #B3B2AC",
"G.	c #BDBCB7",
"H.	c #ACABA4",
"I.	c #A5A59E",
"J.	c #B4AFA7",
"K.	c #BEB6AF",
"L.	c #B0B0AB",
"M.	c #ACB4B2",
"N.	c #B3BAB8",
"O.	c #A9A9A4",
"P.	c #847F75",
"Q.	c #756D63",
"R.	c #776F67",
"S.	c #756D62",
"T.	c #6E655A",
"U.	c #77736F",
"V.	c #858884",
"W.	c #888985",
"X.	c #9FA29C",
"Y.	c #B5BEBA",
"Z.	c #A5B5AE",
"`.	c #84564D",
" +	c #B40D0A",
".+	c #F00000",
"++	c #F60E10",
"@+	c #CF4140",
"#+	c #8E6B62",
"$+	c #5C6C5C",
"%+	c #565242",
"&+	c #9E9C95",
"*+	c #E4E4E1",
"=+	c #FAFAFA",
"-+	c #EFEFEE",
";+	c #F3F0EF",
">+	c #F6F2EF",
",+	c #EAF4F7",
"'+	c #BAE3F6",
")+	c #88CFEF",
"!+	c #90C6DB",
"~+	c #A2ADAB",
"{+	c #A1927F",
"]+	c #9B836D",
"^+	c #A0846B",
"/+	c #8F7459",
"(+	c #836C55",
"_+	c #887B6B",
":+	c #7D7569",
"<+	c #82837E",
"[+	c #97A19F",
"}+	c #939C97",
"|+	c #855A54",
"1+	c #AE0D0B",
"2+	c #F90304",
"3+	c #BA211D",
"4+	c #753D31",
"5+	c #6C695C",
"6+	c #B2B0AC",
"7+	c #F1F1F1",
"8+	c #FFFFFF",
"9+	c #EBFDFF",
"0+	c #A7E6FF",
"a+	c #73CDF8",
"b+	c #359ED1",
"c+	c #387B98",
"d+	c #8D8F83",
"e+	c #CAA57E",
"f+	c #C79D73",
"g+	c #B99572",
"h+	c #AE9072",
"i+	c #A68B6F",
"j+	c #A78768",
"k+	c #B28C67",
"l+	c #B7906A",
"m+	c #97785C",
"n+	c #8B7764",
"o+	c #7D7062",
"p+	c #6B3D36",
"q+	c #980A09",
"r+	c #DE0000",
"s+	c #F20000",
"t+	c #EF0202",
"u+	c #A5130C",
"v+	c #5A2517",
"w+	c #A6A59E",
"x+	c #CCCCC7",
"y+	c #EAEAE8",
"z+	c #F5F5F4",
"A+	c #FAFFFE",
"B+	c #D3F7FF",
"C+	c #62CBFD",
"D+	c #2CA2DE",
"E+	c #2C789D",
"F+	c #6B7673",
"G+	c #B99875",
"H+	c #E4B384",
"I+	c #CBA27A",
"J+	c #907A64",
"K+	c #817A74",
"L+	c #8E8882",
"M+	c #A38F7E",
"N+	c #D1A983",
"O+	c #F1BE8B",
"P+	c #E4B280",
"Q+	c #CEA377",
"R+	c #A58868",
"S+	c #755141",
"T+	c #6E241D",
"U+	c #8F120C",
"V+	c #AD0E0A",
"W+	c #CB0A08",
"X+	c #CB0707",
"Y+	c #8C150B",
"Z+	c #502615",
"`+	c #737062",
" @	c #8B897F",
".@	c #A5A49E",
"+@	c #C3C1BD",
"@@	c #E7E7E5",
"#@	c #DCF7FD",
"$@	c #8CD4F3",
"%@	c #418FB6",
"&@	c #5A747C",
"*@	c #C4A380",
"=@	c #F4C491",
"-@	c #F1C191",
";@	c #B59473",
">@	c #7D6B59",
",@	c #797572",
"'@	c #777778",
")@	c #726C68",
"!@	c #A08870",
"~@	c #E8BD8E",
"{@	c #FFCF99",
"]@	c #FDCC97",
"^@	c #E2B685",
"/@	c #A98D69",
"(@	c #725A46",
"_@	c #553A2D",
":@	c #5F3229",
"<@	c #7F2F28",
"[@	c #862922",
"}@	c #6F2519",
"|@	c #585344",
"1@	c #7E7A71",
"2@	c #B8B3AB",
"3@	c #DEE1DE",
"4@	c #B5D7E3",
"5@	c #678D9B",
"6@	c #968C77",
"7@	c #E7C090",
"8@	c #FBD19D",
"9@	c #F6C997",
"0@	c #DFB588",
"a@	c #C3A17C",
"b@	c #B79A7A",
"c@	c #A08872",
"d@	c #847262",
"e@	c #937C64",
"f@	c #D8B086",
"g@	c #F8CA98",
"h@	c #FFD09C",
"i@	c #FECC97",
"j@	c #E4B989",
"k@	c #A98E6B",
"l@	c #655E4B",
"m@	c #494F44",
"n@	c #57544B",
"o@	c #62574C",
"p@	c #58493C",
"q@	c #7C7669",
"r@	c #9E9B93",
"s@	c #969F9F",
"t@	c #7E827D",
"u@	c #B49D7D",
"v@	c #E2BD8E",
"w@	c #D2B289",
"x@	c #DCB58B",
"y@	c #F6CA98",
"z@	c #FBCF9B",
"A@	c #F5C895",
"B@	c #E9BE8E",
"C@	c #CDA780",
"D@	c #D2AA82",
"E@	c #ECC091",
"F@	c #FDCE9A",
"G@	c #FFCF9B",
"H@	c #FCCD98",
"I@	c #DCB183",
"J@	c #927A5E",
"K@	c #5E5B4F",
"L@	c #575C53",
"M@	c #5E6155",
"N@	c #575E4F",
"O@	c #615C50",
"P@	c #6A645D",
"Q@	c #857666",
"R@	c #C9A781",
"S@	c #CFAB81",
"T@	c #A0876B",
"U@	c #BF9E79",
"V@	c #EEC595",
"W@	c #FFD59F",
"X@	c #FFD49D",
"Y@	c #FFD59E",
"Z@	c #F8CD99",
"`@	c #ECC193",
" #	c #F6CA9A",
".#	c #FED29E",
"+#	c #FFD09D",
"@#	c #FFCF9C",
"##	c #FFD49F",
"$#	c #E6BA8A",
"%#	c #AB8D6E",
"&#	c #73685A",
"*#	c #605F57",
"=#	c #605E53",
"-#	c #5A5749",
";#	c #544C43",
">#	c #927A63",
",#	c #D6AC80",
"'#	c #D2A77A",
")#	c #B8926B",
"!#	c #C89F76",
"~#	c #F0C390",
"{#	c #FFD19C",
"]#	c #FFD09B",
"^#	c #FDD09A",
"/#	c #E6BF8E",
"(#	c #C5A37E",
"_#	c #D4B28A",
":#	c #F4CC9B",
"<#	c #FACD98",
"[#	c #D5AE83",
"}#	c #A38B73",
"|#	c #7C776F",
"1#	c #676864",
"2#	c #626057",
"3#	c #585547",
"4#	c #5F5548",
"5#	c #A18566",
"6#	c #DCAD7C",
"7#	c #DFAA75",
"8#	c #D3A271",
"9#	c #E4B07E",
"0#	c #FAC793",
"a#	c #FFCD99",
"b#	c #F3C390",
"c#	c #CDA479",
"d#	c #A7896B",
"e#	c #BC9D7C",
"f#	c #F2C898",
"g#	c #F6CB99",
"h#	c #8D7763",
"i#	c #706A61",
"j#	c #666660",
"k#	c #5E5D54",
"l#	c #555244",
"m#	c #645647",
"n#	c #B0926F",
"o#	c #E3B481",
"p#	c #EAB47E",
"q#	c #E9B784",
"r#	c #F2C28F",
"s#	c #FDCC99",
"t#	c #FFCE9B",
"u#	c #FECC98",
"v#	c #EFBD89",
"w#	c #CFA072",
"x#	c #BA916C",
"y#	c #DCB085",
"z#	c #FCCE9A",
"A#	c #FFD39F",
"B#	c #FDD49E",
"C#	c #DFB98C",
"D#	c #9E8060",
"E#	c #6E5742",
"F#	c #5B4F41",
"G#	c #59574F",
"H#	c #59574D",
"I#	c #565344",
"J#	c #4B3D2E",
"K#	c #6F5840",
"L#	c #B28F6A",
"M#	c #EBBD8C",
"N#	c #FAC893",
"O#	c #FFCE98",
"P#	c #FED19C",
"Q#	c #FFD19D",
"R#	c #FFCF9A",
"S#	c #FECE99",
"T#	c #F2BF8B",
"U#	c #DAA774",
"V#	c #CE9D6F",
"W#	c #FCCC97",
"X#	c #FFD5A0",
"Y#	c #F2C896",
"Z#	c #BE9C77",
"`#	c #7E654B",
" $	c #61472D",
".$	c #584530",
"+$	c #4F4E43",
"@$	c #525244",
"#$	c #5B4632",
"$$	c #775838",
"%$	c #957450",
"&$	c #C19D75",
"*$	c #DEB387",
"=$	c #F0BF8E",
"-$	c #F5C493",
";$	c #FBCA97",
">$	c #FBCA95",
",$	c #ECB985",
"'$	c #E5B17D",
")$	c #EBB783",
"!$	c #FECE98",
"~$	c #F4CB99",
"{$	c #C6A37C",
"]$	c #927557",
"^$	c #725639",
"/$	c #73502D",
"($	c #62492E",
"_$	c #4B4538",
":$	c #594635",
"<$	c #7B5938",
"[$	c #855D34",
"}$	c #7E5D3A",
"|$	c #7D6448",
"1$	c #93765A",
"2$	c #AA8766",
"3$	c #BA9470",
"4$	c #D0A67D",
"5$	c #E5B687",
"6$	c #F1C18E",
"7$	c #FAC996",
"8$	c #FCCA95",
"9$	c #F7C58F",
"0$	c #F0BF8C",
"a$	c #F0C490",
"b$	c #CFAC81",
"c$	c #95795B",
"d$	c #74573A",
"e$	c #845B32",
"f$	c #8C5F32",
"g$	c #6D4C2E",
"h$	c #47382D",
"i$	c #4F4030",
"j$	c #765736",
"k$	c #9E7040",
"l$	c #A37241",
"m$	c #895F34",
"n$	c #6D4E2C",
"o$	c #674D32",
"p$	c #71553A",
"q$	c #725B43",
"r$	c #876C50",
"s$	c #9C7C5D",
"t$	c #B08D6B",
"u$	c #C7A079",
"v$	c #D3AA81",
"w$	c #D5AB7F",
"x$	c #C49D74",
"y$	c #B3906A",
"z$	c #997A57",
"A$	c #75583C",
"B$	c #79532E",
"C$	c #966431",
"D$	c #9B6836",
"E$	c #724E2E",
"F$	c #4B3A2B",
"G$	c #644C34",
"H$	c #92673A",
"I$	c #B17D49",
"J$	c #B9834F",
"K$	c #A16F3D",
"L$	c #885B2B",
"M$	c #7E5428",
"N$	c #785029",
"O$	c #6F4E2B",
"P$	c #6C4E2F",
"Q$	c #6E5134",
"R$	c #6E553C",
"S$	c #7D634A",
"T$	c #876C51",
"U$	c #8B6D50",
"V$	c #816345",
"W$	c #765A3B",
"X$	c #7E5C39",
"Y$	c #896138",
"Z$	c #976838",
"`$	c #A36E38",
" %	c #A16B36",
".%	c #79542F",
"+%	c #503F2C",
"@%	c #4D4138",
"#%	c #7B5C3D",
"$%	c #A06F3F",
"%%	c #B47F4B",
"&%	c #B47F4C",
"*%	c #A5723C",
"=%	c #996631",
"-%	c #9B6833",
";%	c #9D6A37",
">%	c #976737",
",%	c #8F6134",
"'%	c #80542A",
")%	c #704B26",
"!%	c #6D4C2D",
"~%	c #725233",
"{%	c #755232",
"]%	c #795631",
"^%	c #825B33",
"/%	c #916538",
"(%	c #AA7846",
"_%	c #B37E4B",
":%	c #AD7743",
"<%	c #A06C39",
"[%	c #78542E",
"}%	c #4E3D2D",
"|%	c #584B3F",
"1%	c #8E6B47",
"2%	c #A87641",
"3%	c #A7733F",
"4%	c #A67340",
"5%	c #9C6936",
"6%	c #9D6A36",
"7%	c #A87642",
"8%	c #B37F4B",
"9%	c #B07B47",
"0%	c #9F6A37",
"a%	c #905F2D",
"b%	c #8E5E2E",
"c%	c #936437",
"d%	c #9C6C3C",
"e%	c #A27240",
"f%	c #AC7A47",
"g%	c #BD8955",
"h%	c #BC8955",
"i%	c #B7824D",
"j%	c #A36F3F",
"k%	c #795330",
"l%	c #543F2C",
"m%	c #766049",
"n%	c #AB8051",
"o%	c #AC7640",
"p%	c #9C6834",
"q%	c #A26F3B",
"r%	c #A3703D",
"s%	c #AA7744",
"t%	c #B68350",
"u%	c #BA8753",
"v%	c #B98652",
"w%	c #B78350",
"x%	c #AB7642",
"y%	c #996531",
"z%	c #A16C37",
"A%	c #A97542",
"B%	c #B17E4A",
"C%	c #B8834F",
"D%	c #B88451",
"E%	c #B88552",
"F%	c #BA8755",
"G%	c #BC8A57",
"H%	c #BE8A55",
"I%	c #AD7A48",
"J%	c #885E33",
"K%	c #79614A",
"L%	c #A67C50",
"M%	c #A9743F",
"N%	c #9B6834",
"O%	c #A4713E",
"P%	c #B07D4A",
"Q%	c #BA8754",
"R%	c #B98653",
"S%	c #B3804C",
"T%	c #B17E4B",
"U%	c #A87542",
"V%	c #A16E3B",
"W%	c #A87541",
"X%	c #AA7643",
"Y%	c #AC7845",
"Z%	c #A87543",
"`%	c #AC7947",
" &	c #B5814E",
".&	c #AE7B46",
"+&	c #916231",
"@&	c #735E48",
"#&	c #9E774F",
"$&	c #AF7B46",
"%&	c #A06C38",
"&&	c #A5723F",
"*&	c #B27F4C",
"=&	c #B5824F",
"-&	c #B4814E",
";&	c #AC7946",
">&	c #AB7845",
",&	c #A77441",
"'&	c #A26F3D",
")&	c #A77440",
"!&	c #9D6937",
"~&	c #9C6937",
"{&	c #9E6B39",
"]&	c #A87441",
"^&	c #AE7B49",
"/&	c #9A6C3E",
"(&	c #82582D",
"_&	c #695845",
":&	c #9C7751",
"<&	c #A87540",
"[&	c #A77541",
"}&	c #AB7946",
"|&	c #A77442",
"1&	c #AE7B48",
"2&	c #AE7B47",
"3&	c #9E6A37",
"4&	c #A36D38",
"5&	c #A27141",
"6&	c #805E3D",
"7&	c #5F4830",
"8&	c #685745",
"9&	c #92704E",
"0&	c #AE7F51",
"a&	c #B37E4A",
"b&	c #AF7A46",
"c&	c #B07E4B",
"d&	c #AF7C49",
"e&	c #AD7B48",
"f&	c #B78451",
"g&	c #B3804D",
"h&	c #B3804E",
"i&	c #AE7A46",
"j&	c #AA7542",
"k&	c #9B7047",
"l&	c #6D563F",
"m&	c #735D47",
"n&	c #9A7551",
"o&	c #B07F50",
"p&	c #B37D4A",
"q&	c #AD7946",
"r&	c #A87643",
"s&	c #A77643",
"t&	c #A97643",
"u&	c #B5814F",
"v&	c #B5824E",
"w&	c #BB8752",
"x&	c #B6824E",
"y&	c #A7794C",
"z&	c #876749",
"A&	c #5F5041",
"B&	c #715C48",
"C&	c #96724F",
"D&	c #B88351",
"E&	c #B7824E",
"F&	c #B47E4A",
"G&	c #B17C47",
"H&	c #AC7844",
"I&	c #AC7843",
"J&	c #AC7846",
"K&	c #B37E49",
"L&	c #B07D47",
"M&	c #B6834E",
"N&	c #AE8050",
"O&	c #92704D",
"P&	c #675644",
"Q&	c #6B5745",
"R&	c #86684D",
"S&	c #9B7551",
"T&	c #A57C52",
"U&	c #B18253",
"V&	c #B58351",
"W&	c #B7834F",
"X&	c #B5814C",
"Y&	c #AF7E4C",
"Z&	c #B4804D",
"`&	c #B9834C",
" *	c #B37F4A",
".*	c #B37F4C",
"+*	c #B07F4D",
"@*	c #A77D52",
"#*	c #906E4D",
"$*	c #705A46",
"%*	c #4C433C",
"&*	c #5C4E41",
"**	c #705C47",
"=*	c #7F664B",
"-*	c #8F6F4E",
";*	c #977350",
">*	c #A57B53",
",*	c #997450",
"'*	c #937151",
")*	c #9F7751",
"!*	c #AC7F53",
"~*	c #A37A51",
"{*	c #95724F",
"]*	c #937454",
"^*	c #89735B",
"/*	c #716454",
"(*	c #3B3736",
"_*	c #544B40",
":*	c #5F5042",
"<*	c #625342",
"[*	c #594F42",
"}*	c #695A49",
"|*	c #73604C",
"1*	c #6D5D49",
"2*	c #5F5342",
"3*	c #625746",
"4*	c #6B6457",
"5*	c #5E5B51",
"6*	c #413E33",
"7*	c #3F3F33",
"8*	c #47463C",
"9*	c #4E493E",
"0*	c #484438",
"a*	c #3D3B30",
"b*	c #423F31",
"c*	c #3E3927",
"                                    . +                                                     ",
"                                  @ # $ % & * = - ; >                                       ",
"                                    , ' ) ! ~ { ] ^ / ( _ :                                 ",
"                                      < [ # } | 1 2 3 4 5 6 7                               ",
"                                              8 9 0 a b c d e                               ",
"                                                f g h i j k l m                             ",
"                                                    n o p q r s t                           ",
"                                                    u v w x y z A                           ",
"                                                    B C D E F G H                           ",
"                                                I J K L M N O P                             ",
"                                              Q R S T U V W X Y                             ",
"                                            Z `  ...+.@.#.$.%.&.                            ",
"                                        *.=.-.;.>.,.+.'.).!.~.{.                            ",
"                                        ].^./.(._.,._.:.<.[.}.|.                            ",
"                                    1.2.3.4.5.6.7.,._.8.9.0.a.b.                            ",
"    c.d.e.f.g.h.i.j.k.l.m.n.o.p.q.r.s.t.u.v.w.x.y.z.,.z.A.B.C.D.                            ",
"  E.F.G.H.I.J.K.L.M.N.O.P.Q.R.S.T.U.V.W.X.Y.Z.`. +.+,.+.++@+#+$+                            ",
"%+&+*+=+-+;+>+,+'+)+!+~+{+]+^+^+/+(+_+:+<+[+}+|+1+.+,.,.2+3+4+                              ",
"5+6+7+8+8+8+9+0+a+b+c+d+e+f+g+h+i+j+k+l+m+n+o+p+q+r+s+,.t+u+v+                              ",
"  w+x+y+z+A+B+C+D+E+F+G+H+I+J+K+L+M+N+O+P+Q+R+S+T+U+V+W+X+Y+Z+                              ",
"  `+ @.@+@@@#@$@%@&@*@=@-@;@>@,@'@)@!@~@{@]@^@/@(@_@:@<@[@}@                                ",
"    |@( 1@2@3@4@5@6@7@8@9@0@a@b@c@d@e@f@g@h@i@j@k@l@m@n@o@p@                                ",
"          q@r@s@t@u@v@w@x@y@z@A@B@C@D@E@F@G@G@H@I@J@K@L@M@N@                                ",
"            O@P@Q@R@S@T@U@V@W@X@Y@Z@`@ #.#+#@###$#%#&#*#=#-#                                ",
"              ;#>#,#'#)#!#~#{#]#^#/#(#_#:#+#+#<#[#}#|#1#2#3#                                ",
"              4#5#6#7#8#9#0#G@a#b#c#d#e#f#h@{#g#e+h#i#j#k#l#                                ",
"              m#n#o#p#q#r#s#t#u#v#w#x#y#z#A#B#C#D#E#F#G#H#I#                                ",
"            J#K#L#M#N#O#P#Q#R#S#T#U#V#P+W#X#Y#Z#`# $.$+$@$                                  ",
"            #$$$%$&$*$=$-$;$R#{#>$,$'$)$!$~${$]$^$/$($_$                                    ",
"          :$<$[$}$|$1$2$3$4$5$6$7$8$9$0$a$b$c$d$e$f$g$h$                                    ",
"        i$j$k$l$m$n$o$p$q$r$s$t$u$v$w$x$y$z$A$B$C$D$E$F$                                    ",
"        G$H$I$J$K$L$M$N$O$P$Q$R$S$T$U$V$W$X$Y$Z$`$ %.%+%                                    ",
"      @%#%$%%%&%*%=%-%;%>%,%'%)%!%~%{%]%^%/%(%_%:%<%[%}%                                    ",
"      |%1%2%3%4%5%6%7%I$8%9%0%a%b%c%d%e%f%_%g%h%i%j%k%l%                                    ",
"      m%n%o%p%q%r%s%t%u%v%w%x%y%z%A%B%C%D%E%F%G%H%I%J%                                      ",
"      K%L%M%N%O%P%t%Q%R%S%T%U%D$V%W%X%Y%A%Z%`% &g%.&+&                                      ",
"      @&#&$&%&&&*&=&R%-&;&>&,&'&O%,&)&O%!&~&{&]&^&/&(&                                      ",
"      _&:&*&<&[&P%-&=&*&}&s%s%|&U%>&1&2&4%V%3&4&5&6&7&                                      ",
"      8&9&0&a&b&P%c&d&e&}&s%s%s%>&d&t%f&g&h&i&j&k&l&                                        ",
"        m&n&o&p&a&q&s%r&s&r&t&s%}&*&=&u&v&w&x&y&z&A&                                        ",
"          B&C&0&D&E&F&G&H&I&I&J&i&I$K&9%L&M&N&O&P&                                          ",
"            Q&R&S&T&U&V&W&i%X&Y&Z&`& *.*+*@*#*$*                                            ",
"              %*&***=*-*;*>*,*'*)*!*~*{*]*^*/*                                              ",
"                    (*_*:*8&<*[*}*|*1*2*3*4*5*                                              ",
"                            6*7*8*9*0*a*                                                    ",
"                                  b*c*                                                      "};
