/* XPM */
static char * playerOne10_xpm[] = {
"46 46 500 2",
"  	c None",
". 	c #29240E",
"+ 	c #7D7A6C",
"@ 	c #3D3825",
"# 	c #241E08",
"$ 	c #342F1A",
"% 	c #4B4634",
"& 	c #FFFFFF",
"* 	c #FCFCFB",
"= 	c #ADABA3",
"- 	c #55513F",
"; 	c #2B2510",
"> 	c #342E19",
", 	c #4E4A3A",
"' 	c #5A5954",
") 	c #5C5A4F",
"! 	c #ACAAA6",
"~ 	c #D3D4D5",
"{ 	c #D0CFCB",
"] 	c #747062",
"^ 	c #393420",
"/ 	c #AAA8A0",
"( 	c #575241",
"_ 	c #2B2611",
": 	c #433F2D",
"< 	c #969698",
"[ 	c #8B8B8B",
"} 	c #4D4B43",
"| 	c #2F2B16",
"1 	c #393F2B",
"2 	c #E3EDEB",
"3 	c #F8FBFA",
"4 	c #D8E7E3",
"5 	c #78776A",
"6 	c #383420",
"7 	c #293A24",
"8 	c #302A14",
"9 	c #66635A",
"0 	c #949495",
"a 	c #7F7F80",
"b 	c #545751",
"c 	c #502715",
"d 	c #B50806",
"e 	c #F1B5B5",
"f 	c #D76A6A",
"g 	c #F7E3E3",
"h 	c #D04848",
"i 	c #E19B9B",
"j 	c #D54D4D",
"k 	c #D14C4D",
"l 	c #EC696A",
"m 	c #B20000",
"n 	c #791A10",
"o 	c #452F1D",
"p 	c #2D3923",
"q 	c #3A3521",
"r 	c #898988",
"s 	c #8F8F8F",
"t 	c #6E6E6F",
"u 	c #433E2F",
"v 	c #2B3620",
"w 	c #9E0703",
"x 	c #BE0000",
"y 	c #D90B0B",
"z 	c #DB0000",
"A 	c #D00000",
"B 	c #F20000",
"C 	c #D40000",
"D 	c #FE0000",
"E 	c #E30000",
"F 	c #FD0000",
"G 	c #F90000",
"H 	c #E70000",
"I 	c #631809",
"J 	c #434433",
"K 	c #565346",
"L 	c #6B6961",
"M 	c #423E2C",
"N 	c #322D17",
"O 	c #565345",
"P 	c #858586",
"Q 	c #5C5C59",
"R 	c #37321D",
"S 	c #6B2114",
"T 	c #A80905",
"U 	c #FF0101",
"V 	c #FF0000",
"W 	c #BF0101",
"X 	c #59524C",
"Y 	c #7D7E7B",
"Z 	c #4B4738",
"` 	c #68665D",
" .	c #8B8B8A",
"..	c #7A7975",
"+.	c #514E3F",
"@.	c #36311C",
"#.	c #7D7C78",
"$.	c #919292",
"%.	c #757577",
"&.	c #49463A",
"*.	c #342E18",
"=.	c #233D25",
"-.	c #4C2C1B",
";.	c #E50000",
">.	c #E90000",
",.	c #851109",
"'.	c #4E5A50",
").	c #4B4736",
"!.	c #848482",
"~.	c #545143",
"{.	c #838381",
"].	c #413D2B",
"^.	c #484333",
"/.	c #98999B",
"(.	c #646465",
"_.	c #3B3623",
":.	c #273B25",
"<.	c #A10F0A",
"[.	c #CD0000",
"}.	c #4D2B1A",
"|.	c #5B5D51",
"1.	c #585549",
"2.	c #4A4636",
"3.	c #797874",
"4.	c #504C3D",
"5.	c #7C7D79",
"6.	c #3A3420",
"7.	c #2A3A24",
"8.	c #332D17",
"9.	c #676661",
"0.	c #5E5C51",
"a.	c #342E1A",
"b.	c #672115",
"c.	c #A30906",
"d.	c #FA0000",
"e.	c #F70000",
"f.	c #C60301",
"g.	c #C60000",
"h.	c #E40000",
"i.	c #A10904",
"j.	c #353C29",
"k.	c #454234",
"l.	c #8D8D8D",
"m.	c #706F68",
"n.	c #44402F",
"o.	c #3E3927",
"p.	c #67655C",
"q.	c #524E3F",
"r.	c #4B564C",
"s.	c #801E17",
"t.	c #C40000",
"u.	c #7D180F",
"v.	c #482D1B",
"w.	c #2E3520",
"x.	c #616161",
"y.	c #4B2C1B",
"z.	c #C00000",
"A.	c #6D1C10",
"B.	c #504939",
"C.	c #3B2310",
"D.	c #7A0400",
"E.	c #662416",
"F.	c #464F47",
"G.	c #5D5C57",
"H.	c #38321D",
"I.	c #5E5B50",
"J.	c #878685",
"K.	c #82817F",
"L.	c #575447",
"M.	c #8C8C8C",
"N.	c #484A3E",
"O.	c #B50808",
"P.	c #EA0000",
"Q.	c #C30000",
"R.	c #BA8580",
"S.	c #72796A",
"T.	c #211C05",
"U.	c #5B5A55",
"V.	c #36301A",
"W.	c #263C25",
"X.	c #A1100A",
"Y.	c #800D04",
"Z.	c #4E6A59",
"`.	c #E9E9EB",
" +	c #D7DBD6",
".+	c #7A8477",
"++	c #C9C9C9",
"@+	c #403C2E",
"#+	c #898483",
"$+	c #89817A",
"%+	c #615443",
"&+	c #3B3521",
"*+	c #5D5B51",
"=+	c #2E321C",
"-+	c #5A2010",
";+	c #D70000",
">+	c #C10000",
",+	c #D95B5C",
"'+	c #FFD8D9",
")+	c #ECEDEC",
"!+	c #969489",
"~+	c #5E5E5B",
"{+	c #454233",
"]+	c #662215",
"^+	c #A70A06",
"/+	c #BB0100",
"(+	c #7C685D",
"_+	c #EFF0F0",
":+	c #F4E9E4",
"<+	c #707F7E",
"[+	c #467A93",
"}+	c #16B1F9",
"|+	c #60A1C0",
"1+	c #6E6C63",
"2+	c #676769",
"3+	c #373F2D",
"4+	c #9B0C07",
"5+	c #F00000",
"6+	c #C82222",
"7+	c #231E07",
"8+	c #413D2C",
"9+	c #646464",
"0+	c #38331E",
"a+	c #223D25",
"b+	c #4F2C1B",
"c+	c #C20000",
"d+	c #30331E",
"e+	c #CBCBCB",
"f+	c #FEFEFE",
"g+	c #42C3FF",
"h+	c #15A8EB",
"i+	c #0089CC",
"j+	c #0088C9",
"k+	c #00A5F8",
"l+	c #2E95C5",
"m+	c #726056",
"n+	c #545650",
"o+	c #3F210D",
"p+	c #E70101",
"q+	c #CB3232",
"r+	c #FEE4E4",
"s+	c #F9F8F8",
"t+	c #A7A59C",
"u+	c #534E3D",
"v+	c #2A250F",
"w+	c #38331F",
"x+	c #433F2F",
"y+	c #353621",
"z+	c #422411",
"A+	c #72786D",
"B+	c #E8E8EA",
"C+	c #CEF1FF",
"D+	c #00A3F6",
"E+	c #0174A9",
"F+	c #007AB1",
"G+	c #0078AD",
"H+	c #0074A8",
"I+	c #00A0EC",
"J+	c #6A726D",
"K+	c #AAA7A1",
"L+	c #77594E",
"M+	c #950200",
"N+	c #C50000",
"O+	c #ED0000",
"P+	c #BB0000",
"Q+	c #EBB6B6",
"R+	c #D0CFCA",
"S+	c #36301C",
"T+	c #342F1B",
"U+	c #BAB9B8",
"V+	c #F8F9F9",
"W+	c #59CEFF",
"X+	c #008CD3",
"Y+	c #0077AC",
"Z+	c #0078AE",
"`+	c #008AC9",
" @	c #97CFEB",
".@	c #B7BEB6",
"+@	c #565F4D",
"@@	c #342A15",
"#@	c #CA0100",
"$@	c #D24545",
"%@	c #EEEFF1",
"&@	c #FCFCFC",
"*@	c #5E5A49",
"=@	c #504C3B",
"-@	c #CFCFCE",
";@	c #F2FBFF",
">@	c #00AEFE",
",@	c #007CB4",
"'@	c #007AB0",
")@	c #0076AB",
"!@	c #0090DC",
"~@	c #6DD6FF",
"{@	c #A0A09A",
"]@	c #900F08",
"^@	c #DA0101",
"/@	c #C41F1F",
"(@	c #F8C7C8",
"_@	c #B4B6AE",
":@	c #5F6557",
"<@	c #B5B4B1",
"[@	c #C6C5C4",
"}@	c #2F2913",
"|@	c #1F1902",
"1@	c #8C8A82",
"2@	c #FFFBF6",
"3@	c #88DDFF",
"4@	c #0095E2",
"5@	c #00A9FB",
"6@	c #E5F7FF",
"7@	c #F4F4F4",
"8@	c #DFE0E1",
"9@	c #6A8174",
"0@	c #5F1407",
"a@	c #CA0000",
"b@	c #C60101",
"c@	c #3E1E0B",
"d@	c #302C16",
"e@	c #58564D",
"f@	c #383423",
"g@	c #3F3A27",
"h@	c #CACACA",
"i@	c #FFFEFD",
"j@	c #47C7FF",
"k@	c #007EBB",
"l@	c #0077AD",
"m@	c #0089CD",
"n@	c #46C8FF",
"o@	c #FAFAFB",
"p@	c #BCBCBB",
"q@	c #38321E",
"r@	c #90150E",
"s@	c #B60201",
"t@	c #FC0000",
"u@	c #CD0201",
"v@	c #E10000",
"w@	c #C60603",
"x@	c #8D120B",
"y@	c #97100A",
"z@	c #442F1D",
"A@	c #383825",
"B@	c #666666",
"C@	c #808081",
"D@	c #4F4C3E",
"E@	c #696659",
"F@	c #ECEDEF",
"G@	c #DDF6FF",
"H@	c #009CE8",
"I@	c #0079B0",
"J@	c #009FF0",
"K@	c #BCEBFF",
"L@	c #EBECED",
"M@	c #7E847A",
"N@	c #681306",
"O@	c #C10101",
"P@	c #AE0704",
"Q@	c #C30302",
"R@	c #7E180F",
"S@	c #373521",
"T@	c #602416",
"U@	c #3A3320",
"V@	c #233C25",
"W@	c #2F311A",
"X@	c #4B483D",
"Y@	c #767778",
"Z@	c #959596",
"`@	c #7E7E7A",
" #	c #262009",
".#	c #B2B1AD",
"+#	c #FFFFFC",
"@#	c #5DCFFF",
"##	c #008ED5",
"$#	c #007FBB",
"%#	c #0189C7",
"&#	c #0CB5FF",
"*#	c #FFFFFE",
"=#	c #DCDDDF",
"-#	c #484331",
";#	c #412D1B",
">#	c #4B2D1B",
",#	c #5E5D5B",
"'#	c #868687",
")#	c #939495",
"!#	c #535042",
"~#	c #D9D7D8",
"{#	c #F6FDFF",
"]#	c #01AEFE",
"^#	c #007CB5",
"/#	c #0076AC",
"(#	c #009CED",
"_#	c #A9E7FF",
":#	c #F0FDFF",
"<#	c #FAF2F0",
"[#	c #929189",
"}#	c #666255",
"|#	c #2D2711",
"1#	c #433F31",
"2#	c #6F6F71",
"3#	c #8F8F90",
"4#	c #878786",
"5#	c #8D8B83",
"6#	c #FFF5F0",
"7#	c #92E2FF",
"8#	c #0096E3",
"9#	c #0079AF",
"0#	c #007FB9",
"a#	c #0BB3FF",
"b#	c #FEFFFF",
"c#	c #DBDCDD",
"d#	c #36301B",
"e#	c #575651",
"f#	c #949496",
"g#	c #636056",
"h#	c #3E3926",
"i#	c #1AB9FF",
"j#	c #0080BC",
"k#	c #0091DA",
"l#	c #74D9FF",
"m#	c #FFFAF5",
"n#	c #C4C3C0",
"o#	c #9E9D97",
"p#	c #302B16",
"q#	c #56544D",
"r#	c #413C2A",
"s#	c #6C685B",
"t#	c #D8E9F2",
"u#	c #07B2FF",
"v#	c #019FE8",
"w#	c #00A8F9",
"x#	c #E4F9FF",
"y#	c #E3E0E0",
"z#	c #545141",
"A#	c #312C14",
"B#	c #565347",
"C#	c #97989A",
"D#	c #777570",
"E#	c #2F2A15",
"F#	c #A6A5A1",
"G#	c #FFFCF5",
"H#	c #6ED3FF",
"I#	c #00A0F3",
"J#	c #0095DD",
"K#	c #00ACFF",
"L#	c #35C2FF",
"M#	c #FFFFFA",
"N#	c #B8B7B5",
"O#	c #35301B",
"P#	c #5F5F5E",
"Q#	c #474334",
"R#	c #484433",
"S#	c #4E4A39",
"T#	c #E1E1E4",
"U#	c #00ABFF",
"V#	c #1BB7FF",
"W#	c #B5EAFF",
"X#	c #D2EAF5",
"Y#	c #EDE5E2",
"Z#	c #78766B",
"`#	c #28220C",
" $	c #35301A",
".$	c #231D06",
"+$	c #9B9992",
"@$	c #FBFCFD",
"#$	c #FBFEFF",
"$$	c #A3E2FF",
"%$	c #FFFDFB",
"&$	c #BFBFBE",
"*$	c #BBBBBA",
"=$	c #FAFAFA",
"-$	c #F5F6F9",
";$	c #86847B",
">$	c #29230D",
",$	c #3E3928",
"'$	c #666667",
")$	c #636052",
"!$	c #E1E2E3",
"~$	c #FDFDFD",
"{$	c #CCCCCC",
"]$	c #737064",
"^$	c #494433",
"/$	c #4D4A3F",
"($	c #342F18",
"_$	c #2F2914",
":$	c #AAA9A5",
"<$	c #F0F1F2",
"[$	c #93918A",
"}$	c #221C05",
"|$	c #5D594A",
"1$	c #F5F5F6",
"2$	c #DDDDDF",
"3$	c #545040",
"4$	c #514D3C",
"5$	c #A2A19C",
"6$	c #D7D8D9",
"7$	c #CECDCB",
"8$	c #A1A09A",
"9$	c #312C17",
"0$	c #2D2812",
"a$	c #474331",
"                                                                                            ",
"                                                                                            ",
"                                                                                            ",
"                                                                                            ",
"                                                                                            ",
"                                                                                            ",
"                                                                                            ",
"                                                                                            ",
"                                                                                            ",
"                                                                                            ",
"                                                                                            ",
"                                                                                            ",
"              . + @ #                                                                       ",
"          $   % & * = - ;                                                                   ",
"        > , ' ) ! ~ & & { ] ^ / ( _                                                         ",
"        : < [ } | 1 2 & & & 3 & & 4 5 6 7                                                   ",
"      8 9 0 a b c d e & f g h i j k l m n o p     8                                         ",
"      q r s t u v w x y z A B C D E F G H A I J K L M N                                     ",
"      O 0 P Q R   S T G U D U V V V D V V W X Y Z `  ...+.@.                                ",
"    $ #.$.%.&.*.  =.-.;.V D D D D D D V >.,.'.).!.~.^ ~.{.].                                ",
"    ^./. .(._.      :.<.G V D D V V D V [.}.|.1.2.3. .` 4.5.  6.7.                          ",
"    8.9.0.a.          b.c.d.V V e.f.g.h.i.j.k.l.m.n.o.p.q.r.s.t.u.v.w.                      ",
"    ^ x.o.            =.y.;.D z.A.B.C.D.E.F.G.H.I.J.K.L.M.N.O.B P.Q.R.S.$ T.                ",
"    &.U.V.              W.X.P.Y.Z.`. +.+++@+#+$+%+&+).*+=+-+;+V V >+,+'+)+!+                ",
"  @.~+{+                  ]+^+/+(+_+& & :+<+[+}+|+M.1+2+3+4+5+V V V C 6+& & ^ 7+            ",
"  8+9+0+                  a+b+c+d+e+f+& g+h+i+j+k+l+m+n+o+A D V D V p+>+q+r+s+t+u+v+        ",
"  w+x+                      y+z+A+B+& C+D+E+F+G+H+I+J+K+L+M+N+O+V D V D P+Q+& & & R+] S+    ",
"                              T+U+V+& W+X+Y+F+F+Z+`+ @& .@+@@@#@V D D F E c+$@& f+%@& &@*@  ",
"                              =@-@& ;@>@,@'@F+F+)@!@~@& & & {@]@D D D D V ^@/@(@_@:@<@[@}@  ",
"                              |@1@2@3@4@)@F+F+F+F+5@6@& 7@8@9@0@E V F V V F a@>+b@c@d@e@f@  ",
"                              g@h@i@j@k@G+F+F+l@m@n@& o@p@q@r@s@t@d.u@v@w@x@]+y@z@A@B@C@D@0+",
"                              E@F@& G@H@I@F+F+)@J@K@& L@M@N@O@P@Q@R@S@T@U@  V@  W@X@Y@Z@`@$ ",
"                               #.#+#@###)@Z+$#%#&#*#& =#-#;#b+p >#              0+,#'#)#!#  ",
"                              =@~#{#]#^#I@/#(#_#:#<#[#}#|#                      1#2#3#4#w+  ",
"                            v+5#6#7#8#)@9#0#a#b#& c#=@                        d#e#C@f#g#8   ",
"                            h#++& i#j#G+)@k#l#m#n#o#p#                          q#M.s r#    ",
"                              s#t#u#v#Z+F+w#x#y#z#                            A#B#C#D#N     ",
"                            E#F#G#H#I#J#K#L#M#N#O#                            0+P#Q#R#      ",
"                            S#T#& & U#V#W#X#Y#Z#`#                            {+~+ $        ",
"                            .$+$@$#$$$& %$&$q                               V.U.&.          ",
"                            0+*$=$& & & -$;$>$                              ,$'$^           ",
"                            )$!$& & ~${$]$^$                                8+/$($          ",
"                          _$:$o@& & <$[$}$                                                  ",
"                            |$1$& & 2$3$                                                    ",
"                            4$5$6$7$8$9$                                                    ",
"                              0$a$S#                                                        "};
