/* XPM */
static char * bulletMask13_xpm[] = {
"10 10 2 1",
" 	c None",
".	c #000000",
"  .       ",
" ...      ",
" ...      ",
" ...      ",
" ...      ",
" ...      ",
" ...      ",
"          ",
"          ",
"          "};
