/* XPM */
static char * playerTwoMask14_xpm[] = {
"46 46 51 1",
" 	c None",
".	c #050505",
"+	c #0C0C0C",
"@	c #13120E",
"#	c #191814",
"$	c #0D0D0D",
"%	c #040404",
"&	c #070707",
"*	c #050504",
"=	c #060505",
"-	c #020202",
";	c #11100C",
">	c #0B0B0B",
",	c #080808",
"'	c #030303",
")	c #010101",
"!	c #000000",
"~	c #050402",
"{	c #080703",
"]	c #060607",
"^	c #030302",
"/	c #020203",
"(	c #020201",
"_	c #040403",
":	c #050409",
"<	c #010103",
"[	c #000002",
"}	c #020204",
"|	c #010100",
"1	c #020101",
"2	c #010000",
"3	c #030202",
"4	c #181815",
"5	c #020000",
"6	c #030201",
"7	c #0D0D0C",
"8	c #141414",
"9	c #060503",
"0	c #181818",
"a	c #090909",
"b	c #1E1E1E",
"c	c #020100",
"d	c #151515",
"e	c #060606",
"f	c #0F0F0F",
"g	c #030203",
"h	c #080809",
"i	c #040302",
"j	c #09090A",
"k	c #050503",
"l	c #080704",
"                                              ",
"                                              ",
"                                              ",
"                                              ",
"                                              ",
"                                              ",
"                                              ",
"                                              ",
"                                              ",
"                                              ",
"                                              ",
"                                              ",
"                               .+   @#        ",
"                             $%..&*=*-;       ",
"                            >,'-'-)!!!-)~{    ",
"                          ]^%)%)!!!!!!!!!!    ",
"                        )//!!!!!!!!!))!!!!!   ",
"                   (!_ :<[!!!!!!!!'.-)!!!!!   ",
"                 !(-!))}!!!!!!!!)'')!!!!!!!   ",
"                !!!)-!!!!!!!!!)-!!!!!!!!!!!)  ",
"              ! !!!!!!!!!!!!!!!!!!!!!!!!!!!)  ",
"            !!!!!!!!!|!!12!!!!!!!!!!!!!!!!!)' ",
"         !!!!!!!!!!!!3|!1|!!!!!!!!!!!!!!!!!!% ",
"        !!!!!!!!!!!!!!!!!!!!!!!!!!!!!!!!!!!)% ",
"       !!!!!!!!!!!!!!!|!!!!!!!(!!!!!!!!!!!!|* ",
"     !!!!!!!!!!!!!!!!!!!|!2!!!^!!!!!!!!!)!!!4 ",
"  !!!!!!!!!!!!!!!!!!!5!!|61!!!!!!!!!!!!).)!!78",
"  !!!!!!!!!!!!!!!!!!!2!!!()!!!!!!!9)!!!)-!!|-0",
" !!!!!!!!!!!!!!!!!!!!!!!!!!!!!!!!!)!!!!!!!--% ",
" !!!!!!!!!!!!!!!!!!!!!!!!!!!!!!!!!!!!!!!)-!)ab",
"!!!!!!!!!!!!!!!!!!!!!cc|3!!!!!!!!!!))!!!'-!!$ ",
"!!!!!!!!!!!!!!!!!!!!!|!!(!!!!!!!2!!!|-'-')!,d ",
"!!!!!!    ! !!!!!!!!!!!!!!!!!!!!2!!!!!'%%%)$  ",
" !!!!!          !!!!!!!!!!!!!!!!!!!!!-e---.   ",
" !!!!!!            !!!!!!!!!!!!!!!!1-.,,f     ",
"  !!!!!            !!!!!!!!)!!!!2)gh          ",
"  !!!!              !!!!!!2i2!!!%j            ",
"   !!!!              !!!!!!1|!!)              ",
"    !!!              !!!!!!!!!!k              ",
"    !!!!              !!!!!!!!!i              ",
"     !!!               !!!!!!!!)              ",
"     ))-                !!!!!!!|              ",
"       l                 !!!!!!!)             ",
"                          !!!!!)              ",
"                          !!-!!-              ",
"                           !!!!(              "};
