/* XPM */
static char * playerTwoMask11_xpm[] = {
"46 46 47 1",
" 	c None",
".	c #000000",
"+	c #020201",
"@	c #040403",
"#	c #080704",
"$	c #010000",
"%	c #020101",
"&	c #030302",
"*	c #010101",
"=	c #020202",
"-	c #050504",
";	c #040302",
">	c #020204",
",	c #050409",
"'	c #07050B",
")	c #010100",
"!	c #000001",
"~	c #010102",
"{	c #000002",
"]	c #030305",
"^	c #010103",
"/	c #030202",
"(	c #030201",
"_	c #050505",
":	c #0D0D0D",
"<	c #0E0E0E",
"[	c #030303",
"}	c #040404",
"|	c #050403",
"1	c #080808",
"2	c #060606",
"3	c #070706",
"4	c #060504",
"5	c #12100D",
"6	c #100E0B",
"7	c #040402",
"8	c #020100",
"9	c #050501",
"0	c #030301",
"a	c #030103",
"b	c #0A0A0A",
"c	c #070707",
"d	c #060605",
"e	c #151514",
"f	c #21211E",
"g	c #0B0B0B",
"h	c #111111",
"                                              ",
"                                              ",
"                                              ",
"                                              ",
"                                              ",
"       .. ...                                 ",
"      ........                                ",
"     ..........                               ",
"    ............                              ",
"   ................                           ",
"   .................                          ",
"   .....  ...........                         ",
"  .....   ............                        ",
" ....      ............                       ",
"+...       ............                       ",
"@..        ............                       ",
"#          ...............$                   ",
"           ...............%&                  ",
"           ...............*$$                 ",
"            ..............=.+                 ",
"            ................-                 ",
"            ............;...>,'               ",
"            ........$...)...!!!~              ",
"            ......$$$........!{]^             ",
"           .....)......../%.....*-            ",
"           .....($...)).........._:<          ",
"          .......)...*)...........[}[         ",
"         .......)|...|%..........*}}}1        ",
"         ..........................*[2        ",
"         ...........................=[        ",
"        ................*=......=...*-        ",
"       .........................**...+3       ",
"       ......%...................[*...45      ",
"      ............................*...|6      ",
"     .................................7       ",
"     ...................8..............       ",
"     ........)..........$.............)9      ",
"     .......*0 a.......................       ",
"     ......     %.....................        ",
"      ..[*       [%..**....*.........         ",
"                  =****....=*.......          ",
"                  1_}==............           ",
"                   b[=[[[=.....~=}            ",
"                    c=_**.=...d__             ",
"                     }....**[ef               ",
"                      __2_22gh                "};
