/* XPM */
static char * playerTwoMask16_xpm[] = {
"46 46 51 1",
" 	c None",
".	c #0B0A05",
"+	c #000000",
"@	c #171611",
"#	c #0F0E0B",
"$	c #020101",
"%	c #13120F",
"&	c #020202",
"*	c #030302",
"=	c #010101",
"-	c #090807",
";	c #050404",
">	c #030303",
",	c #040404",
"'	c #050504",
")	c #010000",
"!	c #0A0A0A",
"~	c #070707",
"{	c #0B0B0A",
"]	c #070706",
"^	c #151514",
"/	c #151515",
"(	c #060606",
"_	c #0D0D0D",
":	c #050505",
"<	c #0B0B0B",
"[	c #202020",
"}	c #0F0F0F",
"|	c #0E0E0E",
"1	c #030305",
"2	c #111111",
"3	c #000002",
"4	c #050308",
"5	c #000001",
"6	c #070604",
"7	c #080808",
"8	c #030206",
"9	c #010100",
"0	c #020201",
"a	c #070705",
"b	c #010102",
"c	c #040302",
"d	c #131313",
"e	c #030202",
"f	c #030201",
"g	c #070708",
"h	c #040403",
"i	c #020000",
"j	c #040303",
"k	c #030301",
"l	c #070804",
"                                              ",
"                  .+                          ",
"               @#$$+++                        ",
"              %&*++++++==                     ",
"             -;+++++++++=>,                   ",
"             ')++=++++++++&,                  ",
"           !~&+++>+++++++++&{                 ",
"          ,,,=++&&++++++++++]^/               ",
"          ,,++++(=+++++++++++&>_              ",
"         /(:&++=&+++++++++=+++&<[             ",
"          (++++==+++++++++:=+==>}             ",
"         '>+++++++++++++++&&+=++|             ",
"         ,+++===++++++++++++=>=+,             ",
"         1+++++++++++++++++++>&=&2            ",
"        +3+++++++++++++++++++&>:=             ",
"        45+++++++++++++6++++&,>&7             ",
"        85++++++++>9++++++0=&&>,              ",
"       ab+++++++++=++++++++++=7!              ",
"     =++++++c++++++++++++++++=~d              ",
"     e+&+++++++++++++++++++++e                ",
"     0&+++f+++++$=++++++$+++$g                ",
"    ++++++$+9+99h=++++++++++$                 ",
"     ++++++++++++++9+++++++9,                 ",
"     ++++++++++++++++++++++=                  ",
"     ++++++++i++++=+++++++++:                 ",
"    +++++++++)+++)j+++++++++kl                ",
"   +++++++++++++f++++++9c$+++e                ",
"   +++++++++++++9++++++)$$+++)+0=             ",
"  ++++++++++++++++++++++++++++++=             ",
"  ++++++++++++++++++++++++++++++=             ",
"  +++++++++++++++++++++++++++++++0            ",
" +++++++++++++++++++++++++++++==++            ",
"  +++++++++++++      ++++++++++++             ",
" ++++++++++++                ==               ",
" +++++++++++                                  ",
" +++++++++                                    ",
"+++++++++                                     ",
"+++++++                                       ",
"++++++                                        ",
"+++++++                                       ",
" ++++++++                                     ",
" ++++++++                                     ",
" +++++++++++                                  ",
"    +++++++++=                                ",
"      +++++++=                                ",
"           +906                               "};
