/* XPM */
static char * playerTwoMask15_xpm[] = {
"46 46 50 1",
" 	c None",
".	c #12100D",
"+	c #100E0B",
"@	c #060501",
"#	c #070606",
"$	c #060504",
"%	c #050403",
"&	c #030302",
"*	c #000000",
"=	c #020100",
"-	c #030303",
";	c #040404",
">	c #020201",
",	c #020101",
"'	c #010101",
")	c #020202",
"!	c #080808",
"~	c #050504",
"{	c #050505",
"]	c #060607",
"^	c #010102",
"/	c #030305",
"(	c #07050B",
"_	c #000001",
":	c #000002",
"<	c #060605",
"[	c #21211E",
"}	c #050409",
"|	c #151514",
"1	c #141415",
"2	c #010000",
"3	c #020204",
"4	c #111111",
"5	c #090909",
"6	c #202020",
"7	c #030202",
"8	c #060606",
"9	c #171717",
"0	c #010100",
"a	c #0B0B0B",
"b	c #151515",
"c	c #070707",
"d	c #0A0A0A",
"e	c #0C0C0C",
"f	c #070708",
"g	c #030103",
"h	c #040302",
"i	c #070704",
"j	c #040403",
"k	c #080704",
"                                              ",
"                                              ",
"                                              ",
"                                              ",
"                                              ",
"                                              ",
"                            .+  @             ",
"                           #$%&*=*            ",
"                       -;->,*******           ",
"                      ')-)**********          ",
"                     !-)*************         ",
"                     !-)****''********        ",
"                    ~{*'***')*********'       ",
"                   ])******'**********')      ",
"                  ^/******************'-      ",
"                 (_:*******************<[     ",
"                 }__********************|1    ",
"              2>~3_*****************)***-4    ",
"             &2********************';***'!    ",
"            2,')********************-'*)'56   ",
"            ********7*****************)**89   ",
"            *******************0>*****-'*ab   ",
"            *************************'-'*!    ",
"         ************************''')--{*5    ",
"        ***************2**********0'){));     ",
"       ******************************8-c      ",
"      ************************2'****)cd       ",
"     **************2***************,ce        ",
"     ******************2**********,f          ",
"     ****************************,{           ",
"    *****************************g            ",
"   ******************************             ",
"  *************************2h'**=i            ",
" ********************************0            ",
" **************     **************            ",
" ********             *************           ",
"  *****                *************          ",
" ******                   **********          ",
" *******                   *********          ",
"  *******                    *******          ",
"   ******                     *****           ",
"    ******                                    ",
"     ******                                   ",
"        ****                                  ",
"         **'                                  ",
"          >jk                                 "};
