/* XPM */
static char * playerTwoMask01_xpm[] = {
"46 46 44 1",
" 	c None",
".	c #0B0A05",
"+	c #000000",
"@	c #010101",
"#	c #020202",
"$	c #030303",
"%	c #040404",
"&	c #050505",
"*	c #020101",
"=	c #050504",
"-	c #20201D",
";	c #131313",
">	c #181818",
",	c #161510",
"'	c #070705",
")	c #0D0D0D",
"!	c #1F1F1F",
"~	c #181713",
"{	c #090909",
"]	c #171717",
"^	c #0B0A08",
"/	c #0F0F0F",
"(	c #070606",
"_	c #040403",
":	c #070707",
"<	c #060606",
"[	c #080808",
"}	c #070604",
"|	c #020201",
"1	c #010100",
"2	c #030302",
"3	c #030202",
"4	c #050506",
"5	c #030305",
"6	c #000001",
"7	c #000002",
"8	c #07050B",
"9	c #020205",
"0	c #040302",
"a	c #010000",
"b	c #070704",
"c	c #050403",
"d	c #020000",
"e	c #040301",
"     .++++@@#$%&                              ",
"     *+++++++++$=-;>                          ",
"   ,'+++++++++++++%@)!                        ",
"  ~#+++++++++++++++#${]                       ",
"  ^+++@++++++++++++#++/                       ",
"  (+++$+++++++++&++@+++/                      ",
"  _+++$+++++++++#$+#$@@@                      ",
" {$+++:+++++++++++++$$&#                      ",
"<%$+++$+++++++++++++@$#$                      ",
"$&++++$+++++++++++++$&#<                      ",
"<$&++++++++++++++++@#+[[                      ",
"]<++++#++++++++}++|1++${                      ",
" <+++@@+++++++++++++++#                       ",
" 2++++++++++++++++++++3                       ",
" 4+++++++++_++++++++++3                       ",
" 56+++++++++++++++*+++*                       ",
" +7+++++++++++++++++++3                       ",
" 86+++++++++++++++++++@                       ",
"  9+++0+++a*+++++++++++1b                     ",
" '++++++++1c++1++++++++++3+|@                 ",
"+++++++++11++++++++++++++++++$                ",
"*+#++0+1++++++++++++00++++++++|               ",
"2#++++++++++++c+++++a++++++++++               ",
"a++++++++d++++++++++++++++++#++               ",
"++++++++++a++e++++++++++++++++                ",
" +++++++++++++++++++++++++++@                 ",
"  +++++++++++++++++++++++                     ",
" +++++++++++++++++++++                        ",
" +++++++++++++++++                            ",
" ++++++++++++++                               ",
" +++++++++++++                                ",
" ++++++++++++                                 ",
" ++++++++++++                                 ",
" +++++++++++                                  ",
" ++++++++++                                   ",
"  +++++++++                                   ",
"  ++++++++                                    ",
"  +++++++                                     ",
"  +++++++                                     ",
"  ++++++                                      ",
"  ++++++++++                                  ",
"  +++++++++++++++@                            ",
"   ++++++++++++++@}                           ",
"     ++++++++++++|                            ",
"     ++++++++                                 ",
"                                              "};
