/* XPM */
static char * playerTwoMask07_xpm[] = {
"46 46 40 1",
" 	c None",
".	c #080704",
"+	c #040403",
"@	c #020201",
"#	c #010101",
"$	c #000000",
"%	c #030303",
"&	c #010100",
"*	c #030300",
"=	c #020101",
"-	c #030103",
";	c #010000",
">	c #0A0A0A",
",	c #020202",
"'	c #080808",
")	c #050505",
"!	c #060606",
"~	c #050403",
"{	c #070707",
"]	c #040302",
"^	c #030202",
"/	c #090909",
"(	c #0B0B0B",
"_	c #040404",
":	c #000001",
"<	c #111111",
"[	c #0F0F0F",
"}	c #010104",
"|	c #21211E",
"1	c #060605",
"2	c #000002",
"3	c #07050B",
"4	c #010102",
"5	c #030305",
"6	c #010103",
"7	c #030301",
"8	c #020100",
"9	c #030302",
"0	c #060504",
"a	c #070606",
"                                              ",
"                                              ",
"                                              ",
"                                              ",
"                                              ",
"                                              ",
"                                              ",
"                             .+@              ",
"                              #$$             ",
"                              $$$$            ",
"                               $$$$$$         ",
"                                $$$$$$        ",
"       $$$##                     $$$$$$       ",
"      $$$$$$$                    $$$$$$$      ",
"      $$$$$$$$$                   $$$$$$$     ",
"      %$$$$$$$$$ $                 $$$$$$     ",
"      $$$$$$$$$$$$$                $$$$$      ",
"       $$$$$$$$$$$$$             $$$$$$$$     ",
"        $$$$$$$$$$$$$$     $$$$$$$$$$$$$$     ",
"        &$$$$$$$$$$$$$$$$$$$$$$$$$$$$$$$$     ",
"        *&$$$=$$$$$$$$$$$$$$$$$$$$$$$$$$      ",
"         $$$$$$$$$$$$$$$$$$$$$$$$$$$$$$       ",
"        -$$$$$$$$$$$$$$$$$$$$$$$$$$$$$        ",
"       =$$$$$$$$$$$$$$$$$$$$$$$$$$$$$         ",
"      %$$$$$$$$$$$;$;$$$$$$$$$$$$$$$$         ",
"    >,$$$$$$$$$$$$$$$$$$$$$$$$$$$$$$$         ",
"   ')$$$$$$$$$$$$$$$$$$$$$$$$$$$$$$$          ",
"  !%%$$$$$$$$$$$$$$$$$;;$$$$$$$$$$$           ",
" %,,,#$$$$$$$$$$$$~#&$$$$$$$$$$$$$            ",
")$,,,#$$$$$$$$$$$;=&&$$$$$$$$$$$$             ",
")$#,$$$$$$$$$$$$$$$$$$$$$$$$$$$               ",
"{$$#$$$$$&&$$$$$$$$$$$$&]$$$$$                ",
"!$$,$$$$$$$$$$#,$$$$$^$$$$$$$$                ",
"/#,$#%$$$$$$$$$$$$$$$=$$$$,#=;                ",
"!#$$$#$$$$$$$$$$$$$$$$$$$$$$$                 ",
"(_$$$$$$$$$$$$$$$$$$$$$$:@&$                  ",
"<[+$$$$$$$$$$$$$$$$$$$$:}                     ",
" |1$$$$$$$$$$$$$,#$$$$2:3                     ",
"  )4$$$$$$$$$$$$$$$$$$54                      ",
"  ,#$$$$$$$$$$#$$$$$$#6                       ",
"   #$$$$$$$$$,#$$$$#%7                        ",
"    $$$$$$$$##$$$$,%'                         ",
"     $$$$$$$$$$$$$,%'                         ",
"      $$$$$$$$$$,%,#                          ",
"       $$$$$$$=@%_%                           ",
"        $8$9~0a                               "};
