/* XPM */
static char * playerTwoMask02_xpm[] = {
"46 46 51 1",
" 	c None",
".	c #141414",
"+	c #181818",
"@	c #1E1E1E",
"#	c #030303",
"$	c #040404",
"%	c #050504",
"&	c #181815",
"*	c #0D0D0C",
"=	c #020202",
"-	c #090909",
";	c #0D0D0D",
">	c #151515",
",	c #010101",
"'	c #000000",
")	c #010100",
"!	c #080808",
"~	c #050505",
"{	c #080703",
"]	c #050402",
"^	c #0F0F0F",
"/	c #11100C",
"(	c #060606",
"_	c #191814",
":	c #13110E",
"<	c #060505",
"[	c #020101",
"}	c #080809",
"|	c #060503",
"1	c #030203",
"2	c #070707",
"3	c #09090A",
"4	c #0C0C0C",
"5	c #010000",
"6	c #050503",
"7	c #040302",
"8	c #020201",
"9	c #030302",
"0	c #0B0B0C",
"a	c #060607",
"b	c #020203",
"c	c #000002",
"d	c #030201",
"e	c #010103",
"f	c #030202",
"g	c #050409",
"h	c #020204",
"i	c #020100",
"j	c #040403",
"k	c #020000",
"l	c #080704",
"              .+ @                            ",
"         #$$%&*=$-;>                          ",
"       ,,,',)'''=,'!;                         ",
"    ''''''''''''=''',~                        ",
"  {''''''''''',''==,$=                        ",
"  ]'''''''''',~=',##$=^                       ",
"  ,''''''''''',,'''=$=!                       ",
" /=''''''''''''''''##(!                       ",
"_='',,'''''''''''''='=~                       ",
":%'',='''''''''''',)''=                       ",
" <'''~,'''''''','','''[}                      ",
" %,''##''''''''|,''''''1                      ",
" 2='''#'''''''''''''''',3                     ",
"4~#''',''''''''''''55''5$     ,               ",
"~~=,'''=''''''''''''''''',67,)',=8            ",
" $#$''',''''89''''''''''''''''''''            ",
" ;!,'''''''''''''''''''''''''''''''           ",
"  0$''''''''''''''''''''5)''''''='            ",
"   9''''''''''''''''''',7[''''''''            ",
"   ab''''''''5[,''''''''5''''''''             ",
"    bc'''5)'''d8'''''''''''''''               ",
"    ,e'''[[''))'''f8''''''''''                ",
"     gh''''''''''')''''''''''                 ",
"      ,''')')'''''i'''''''''                  ",
"     j,'')f'''k5''i)'''''''                   ",
"     ''='''''''''''''''''                     ",
"     8=,''''''''''''''''                      ",
"      8'''''''''''''''                        ",
"      ''''''''''''''''                        ",
"       '''''''''''''''                        ",
"         ''''''''''''                         ",
"        '''''''''''''                         ",
"         ''''''''''''                         ",
"         ''''''''''''                         ",
"          ''''''''''                          ",
"          '''''''''''                         ",
"          ''''''''''                          ",
"           '''''''''                          ",
"            ''''''''       ''=l               ",
"             '''''''  '' '''',                ",
"             '''''''''''''''',                ",
"              ''''''''''''''                  ",
"              ''''''''''''                    ",
"              '''''''''''                     ",
"                '''''''                       ",
"                  '''                         "};
