/* XPM */
static char * playerTwoMask04_xpm[] = {
"46 46 51 1",
" 	c None",
".	c #111111",
"+	c #020201",
"@	c #000000",
"#	c #202020",
"$	c #0F0F0F",
"%	c #0E0E0E",
"&	c #040404",
"*	c #020202",
"=	c #010101",
"-	c #080808",
";	c #0D0D0D",
">	c #0B0B0B",
",	c #030303",
"'	c #050505",
")	c #0A0A0A",
"!	c #131313",
"~	c #151515",
"{	c #070707",
"]	c #151514",
"^	c #030202",
"/	c #070708",
"(	c #070704",
"_	c #010000",
":	c #0B0B0A",
"<	c #070706",
"[	c #020101",
"}	c #030301",
"|	c #010100",
"1	c #040302",
"2	c #070604",
"3	c #0B0A05",
"4	c #040303",
"5	c #0F0E0B",
"6	c #030302",
"7	c #060606",
"8	c #040403",
"9	c #030201",
"0	c #171611",
"a	c #13120F",
"b	c #050404",
"c	c #090807",
"d	c #050504",
"e	c #020000",
"f	c #030305",
"g	c #000002",
"h	c #000001",
"i	c #050308",
"j	c #030206",
"k	c #010102",
"l	c #070705",
"                                              ",
"                                              ",
"                                              ",
"                                              ",
"                                              ",
"                                              ",
"                                              ",
"                                              ",
"                                              ",
"                                              ",
"                                              ",
"                                              ",
"            .                +@               ",
"        #$%&*=-           ===@@@              ",
"       ;>,@@='*&)!        +@@@=@              ",
"      ~,*=@=*,,,-{        @@@@=@=             ",
"      ]*@==,,*&*==^/    (^_@@@@@=             ",
"     :<@@@@=@@**@@@[[& '}@@@@@@@              ",
"    &*@@@=*@@@@=@@@@@|=@@@@@@@@@              ",
"   &*@@@='*@@@@+@@@@@@@@@@@@@@@@              ",
"   ,@@@@@@@@@@@@@@@@@@@@@[[@@@@@              ",
"  ==@@@@@@@@@@@@@@@[@@@@@1[@@@@@              ",
"  =@@@@@@@@@@@2@@@@@@@@@@|_@@@@@              ",
"  @@@@@@@@@@@@@@@@@@@@@@@@@@@@@@              ",
" @@@@@@@@@@@@@@@@@@@@@@@@@@@@@@@              ",
" @@@@@@@@@@@@@@@@@@@@@@@@@@@@@@               ",
"@@@@@@@@@@@@@@@|@@@@@|@@@@@@@@@               ",
"3[@@@@@@@@@@@@@,=@@@@@@=4@@@@@@               ",
" [@@=,*=@@@@@@@@@@@==@@@_@@@@@@               ",
" 56@@@*7*=@@@@@@@@@[8@@@@9|@@@@               ",
" 0*@@@@@==@=@@@@@@@@|@@@@@@@@@@               ",
"  ab_@@@@@@=@@@@@@@@|@@@@@@@@@@@            2 ",
"   cd*=@@@@=@@@@@@@@@@@e_@@@@@@@          ==+ ",
"     {&@*@@@@@@@@1@@|@@@@@@@@@@@@         @@| ",
"     )&&'@@@@@@@@@@@@@@@@@@@@@@@@@       @@@@ ",
"      &&77,@@@@@@@@9[@@@@@@@@@@@@@       @@@  ",
"        ~ d&fghh@@@@@@@@@@@@@@@@@@@      @@@  ",
"             @ijk@@@@@@@@@@@@@@@@@@@   @@@@@  ",
"                l@*@@@@@@@@@@@@@@@@@   @@@@@  ",
"                 @@*@@@@@@@@@@@@@@@@@ @@@@@@  ",
"                 =^+@@@@@@@@@@@@@@@@@@@@@@@   ",
"                    @   @@@@@@@@@@@@@@@@@@@   ",
"                         @@@@@@@@@@@@@@@@@    ",
"                           @@@@@@@@@@@@@@@    ",
"                              @ @@@@@@@@@@    ",
"                                   @@@@       "};
