/* XPM */
static char * playerTwoMask12_xpm[] = {
"46 46 51 1",
" 	c None",
".	c #000000",
"+	c #020201",
"@	c #030202",
"#	c #010101",
"$	c #020202",
"%	c #070705",
"&	c #010102",
"*	c #030206",
"=	c #050308",
"-	c #000001",
";	c #000002",
">	c #030305",
",	c #040404",
"'	c #050504",
")	c #151515",
"!	c #020101",
"~	c #030201",
"{	c #030303",
"]	c #060606",
"^	c #050505",
"/	c #0A0A0A",
"(	c #010100",
"_	c #040302",
":	c #070707",
"<	c #010000",
"[	c #020000",
"}	c #090807",
"|	c #070604",
"1	c #050404",
"2	c #13120F",
"3	c #171611",
"4	c #040403",
"5	c #030302",
"6	c #0F0E0B",
"7	c #040303",
"8	c #0B0A05",
"9	c #030301",
"0	c #070706",
"a	c #0B0B0A",
"b	c #070704",
"c	c #070708",
"d	c #151514",
"e	c #080808",
"f	c #131313",
"g	c #0B0B0B",
"h	c #0D0D0D",
"i	c #0E0E0E",
"j	c #0F0F0F",
"k	c #202020",
"l	c #111111",
"                                              ",
"                                              ",
"                                              ",
"                                              ",
"                                              ",
"                                              ",
"                                              ",
"                                              ",
"                                              ",
"                                              ",
"                                              ",
"                                              ",
"      ....                                    ",
"   .......... .                               ",
"   ...............                            ",
"   .................                          ",
"  ...................   .                     ",
"  .......................+@#                  ",
" ...... .................$..                  ",
" .....   .................$.%                 ",
" .....   ...................&*=.              ",
" ...      ...................--;>,' )         ",
" ...       .............!~........{]],,       ",
"....       .........................^,,/      ",
"(..         ............(.._........$.,:      ",
"+##          .......<[...........#....#$'}    ",
"|            ...........(........#......<12   ",
"              ..........(........#.##.....$3  ",
"              ....(~....4!.........#$]$...56  ",
"              ......<...##...........#${#..!  ",
"              ......7#......#{.............!8 ",
"              .........(.....(............... ",
"              ..............................  ",
"             ...............................  ",
"             ..............................   ",
"             .....<(..........|...........#   ",
"             .....!_.....!...............##   ",
"             .....!!.....................{    ",
"             ................+....$^#...$,    ",
"             .........#(.....#....$#...$,     ",
"             .......9^ ,!!...$$..#....0a      ",
"            #.....<@b    c@##$,${{##.$d       ",
"            #.#....        :e{{{$#.#${)       ",
"             .#...+        f/,$^#..{gh        ",
"             ...###           e#$,ijk         ",
"              .+                l             "};
