/* XPM */
static char * playerTwoMask10_xpm[] = {
"46 46 48 1",
" 	c None",
".	c #000000",
"+	c #010101",
"@	c #080704",
"#	c #020202",
"$	c #020201",
"%	c #010100",
"&	c #020100",
"*	c #010000",
"=	c #020000",
"-	c #030202",
";	c #040403",
">	c #020204",
",	c #050409",
"'	c #020101",
")	c #010103",
"!	c #030201",
"~	c #000002",
"{	c #020203",
"]	c #060607",
"^	c #040302",
"/	c #030302",
"(	c #040404",
"_	c #0B0B0C",
":	c #080808",
"<	c #0D0D0D",
"[	c #030303",
"}	c #050503",
"|	c #050505",
"1	c #0C0C0C",
"2	c #09090A",
"3	c #070707",
"4	c #030203",
"5	c #060503",
"6	c #050504",
"7	c #080809",
"8	c #060505",
"9	c #13110E",
"0	c #191814",
"a	c #060606",
"b	c #11100C",
"c	c #0F0F0F",
"d	c #050402",
"e	c #080703",
"f	c #151515",
"g	c #090909",
"h	c #0D0D0C",
"i	c #181815",
"                                              ",
"              ...                             ",
"            .......                           ",
"          ...........                         ",
"         ............                         ",
"       ..............                         ",
"     +................                        ",
"     +.... ..  .......                        ",
"    @#..       ........                       ",
"               .........                      ",
"               ..........                     ",
"              ...........                     ",
"               ..........                     ",
"              ............                    ",
"              ............                    ",
"              .............                   ",
"              ............                    ",
"             ...............                  ",
"             ................                 ",
"             ...............$                 ",
"           ................+#$                ",
"          .................#..                ",
"        .......%&..*=...-%..+;                ",
"       .........&.....%.%...+                 ",
"      ..........%...........>,                ",
"     ..........$-...%%..''...)+               ",
"    ...............$!...%*...~{               ",
"  ........*........+'*........{]              ",
" ........'^+.................../              ",
" .#......%*....................(_             ",
"...............................+:<            ",
" ..................../$....+...([(            ",
" $#+.%+^}+.................#...+#||           ",
"    +     (*..**............+...[|1           ",
"          2+................[...#3            ",
"           4......+5........[[..+6            ",
"           7'...+..+........+|...8            ",
"            #..%+............#+..69           ",
"            |#.#.............++..#0           ",
"            :a[[................#b            ",
"            :#(#...++...........+             ",
"            c#([[+.#|+..........d             ",
"             #(+##..+...........e             ",
"             |+...#............               ",
"              <:.+#...%+.+++                  ",
"               f<g(#hi6(([                    "};
