/* XPM */
static char * playerTwoMask13_xpm[] = {
"46 46 44 1",
" 	c None",
".	c #000000",
"+	c #010000",
"@	c #030302",
"#	c #020101",
"$	c #171717",
"%	c #060606",
"&	c #030303",
"*	c #020202",
"=	c #070705",
"-	c #07050B",
";	c #030305",
">	c #050506",
",	c #050505",
"'	c #040404",
")	c #090909",
"!	c #020205",
"~	c #000001",
"{	c #000002",
"]	c #040403",
"^	c #070606",
"/	c #0B0A08",
"(	c #181713",
"_	c #161510",
":	c #040302",
"<	c #010101",
"[	c #0B0A05",
"}	c #070707",
"|	c #010100",
"1	c #020000",
"2	c #050403",
"3	c #040301",
"4	c #070604",
"5	c #050504",
"6	c #020201",
"7	c #20201D",
"8	c #131313",
"9	c #181818",
"0	c #0D0D0D",
"a	c #1F1F1F",
"b	c #030202",
"c	c #080808",
"d	c #0F0F0F",
"e	c #070704",
"                                              ",
"                                              ",
"                                              ",
"                                              ",
"                                              ",
"                                              ",
"                                              ",
"                                              ",
"                                              ",
"                                              ",
"                                              ",
"                                              ",
"                                              ",
"                                              ",
"                                              ",
"                    .+@#.        $%&%         ",
"          ........ ...*..= -.;>@%%&,')        ",
"   ....................*..!~{~....,.&&]^/(    ",
"  .......................................*_   ",
"  ........................................=   ",
".......................:........<..........#[ ",
"..........................:.....<*.&&}&&<.... ",
".......................|..................... ",
"..... ....................................... ",
".....   .............1..|.................... ",
".....    ...........+...||+.................< ",
".....      ..............2#...].............< ",
"....        ................................* ",
" ...          ......3.......................& ",
" ...           .......2..|..................' ",
" ...            .................4.........&, ",
" ...            ......................*,...5  ",
" 6<<            ......................&....7  ",
"  4              ............#...6........'8  ",
"                 ................|<...*<**<9  ",
"                 .....+:..........*&<&&..&0   ",
"                 ......:...........,&&<..)a   ",
"                  .........<b#bb*&c**,<.d$    ",
"                  ........|      )c%&*<d      ",
"                  ........e                   ",
"                   ......b                    ",
"                   .......                    ",
"                   ......6                    ",
"                   <.*...<                    ",
"                    ....&                     ",
"                     ..6                      "};
