/* XPM */
static char * playerTwoMask06_xpm[] = {
"46 46 45 1",
" 	c None",
".	c #000000",
"+	c #020201",
"@	c #020202",
"#	c #010101",
"$	c #080704",
"%	c #010100",
"&	c #040302",
"*	c #050503",
"=	c #020101",
"-	c #09090A",
";	c #040404",
">	c #010000",
",	c #080809",
"'	c #030203",
")	c #0F0F0F",
"!	c #080808",
"~	c #050505",
"{	c #060606",
"]	c #0D0D0D",
"^	c #030303",
"/	c #151515",
"(	c #030202",
"_	c #020100",
":	c #090909",
"<	c #060503",
"[	c #0D0D0C",
"}	c #030201",
"|	c #020000",
"1	c #181815",
"2	c #030302",
"3	c #050504",
"4	c #020204",
"5	c #000002",
"6	c #010103",
"7	c #050409",
"8	c #040403",
"9	c #020203",
"0	c #060607",
"a	c #080703",
"b	c #050402",
"c	c #0B0B0B",
"d	c #11100C",
"e	c #060505",
"f	c #070707",
"                                              ",
"                                              ",
"                                              ",
"                                              ",
"                                              ",
"                                              ",
"                                              ",
"                                              ",
"                                              ",
"                                              ",
"                                              ",
"                                              ",
"               .                              ",
"             +....                            ",
"             @..@..                           ",
"             #.....                           ",
"            #.......                 $        ",
"             %.......                @##      ",
"             #........               ...      ",
"             &.........              ....     ",
"             *..........              ...     ",
"             #..%=......              ....    ",
"           -;...>&>......              ....   ",
"         ,'#>....#........            .....   ",
"    )!!~@=................            ......  ",
"  ~@@@{@.....................          .....  ",
" ]#;;;^.....>.................... .    ...... ",
"/!.#^@^@%...>.......+..%..................... ",
"]..@^...##..........(%__..................... ",
":#.@#.......................................  ",
";@@.......#.................................  ",
"@%..@#...#<.......#+...>...................   ",
"[..#~#............=}%..|...................   ",
"1...#.........2...>.%...................      ",
"3%............+.......%...............        ",
";#...................................         ",
";..................%=.%(............          ",
"^#.................>=..%.........             ",
" #........................... .               ",
" #...........@#.........@#...                 ",
"  .......#^^#........4##.@+.                  ",
"  .....#@~^........567 8.+                    ",
"  .....##.........99#                         ",
"   ..........#;#;20                           ",
"   ab#@...#@^@^!c                             ",
"      d@3e3f~~;]                              "};
