/* XPM */
static char * playerTwoMask05_xpm[] = {
"46 46 44 1",
" 	c None",
".	c #020201",
"+	c #000000",
"@	c #030303",
"#	c #010101",
"$	c #020202",
"%	c #030202",
"&	c #070704",
"*	c #0F0F0F",
"=	c #060606",
"-	c #080808",
";	c #090909",
">	c #010100",
",	c #171717",
"'	c #050505",
")	c #020101",
"!	c #1F1F1F",
"~	c #040302",
"{	c #0D0D0D",
"]	c #010000",
"^	c #181818",
"/	c #131313",
"(	c #040404",
"_	c #070604",
":	c #20201D",
"<	c #050504",
"[	c #050403",
"}	c #040301",
"|	c #040403",
"1	c #020000",
"2	c #070707",
"3	c #0B0A05",
"4	c #070705",
"5	c #161510",
"6	c #181713",
"7	c #0B0A08",
"8	c #070606",
"9	c #000001",
"0	c #000002",
"a	c #020205",
"b	c #030302",
"c	c #050506",
"d	c #030305",
"e	c #07050B",
"                                              ",
"                                              ",
"                                              ",
"                                              ",
"                                              ",
"                                              ",
"                                              ",
"                                              ",
"                                              ",
"                                              ",
"                                              ",
"                                              ",
"                                              ",
"                                              ",
"                                              ",
"                     .++                      ",
"                    @++++                     ",
"                   #+++$+#                    ",
"                   .++++++                    ",
"                   +++++++                    ",
"                   %++++++                    ",
"                  &++++++++                   ",
"     *#$@=-;      >++++++++                   ",
"   ,*+#'$$-@$%%)%#+++++++++                   ",
"  !;++#@@'+++++++++++~++++++                  ",
"  {@++@@#@$++++++++++~]+++++                  ",
" ^#$$#$+++#>++++++++++++++++                  ",
" /(++++++++.+++)++++++++++++              _   ",
" :++++@++++++++++++++++++++++            ##.  ",
" <+++'$++++++++++++++++++++++            +++  ",
"'@+++++++++_+++++++++++++++++            +++  ",
"(++++++++++++++++++>++[+++++++           +++  ",
"@+++++++++++++++++++++++}++++++          +++  ",
"$++++++++++++++++++++++++++++++++        ++++ ",
"#+++++++++++++|+++)[++++++++++++++      +++++ ",
"#+++++++++++++++++]>>+++]+++++++++++    +++++ ",
"++++++++++++++++++++>++1+++++++++++++   +++++ ",
"+++++++++++++++++++++++++++++++++++++++ +++++ ",
"+++++++++++++++++++++>+++++++++++++++++++++++ ",
"++++#@@2@@+$#+++++~++++++++++++++++++++++++++ ",
"3)++++++++++#++++++++~+++++++++++++++++++++++ ",
"  4++++++++++++++++++++++++++++++++++++++++   ",
"  5$+++++++++++++++++++++++++++++++++++++++   ",
"   678|@@+'++++909a++$++++++++++++++++++++    ",
"       ;('@==bcd+e 4++$+++ ++++++++           ",
"        =@=,        +)b]+                     "};
