/* XPM */
static char * playerTwoMask09_xpm[] = {
"46 46 44 1",
" 	c None",
".	c #000000",
"+	c #020201",
"@	c #070604",
"#	c #010101",
"$	c #040301",
"%	c #010000",
"&	c #020202",
"*	c #020000",
"=	c #050403",
"-	c #030302",
";	c #040302",
">	c #010100",
",	c #020101",
"'	c #030303",
")	c #030202",
"!	c #070705",
"~	c #070704",
"{	c #020205",
"]	c #000001",
"^	c #07050B",
"/	c #000002",
"(	c #030305",
"_	c #040403",
":	c #050506",
"<	c #060606",
"[	c #090909",
"}	c #171717",
"|	c #080808",
"1	c #050505",
"2	c #040404",
"3	c #070707",
"4	c #0F0F0F",
"5	c #070606",
"6	c #0B0A08",
"7	c #181713",
"8	c #1F1F1F",
"9	c #0D0D0D",
"0	c #161510",
"a	c #181818",
"b	c #131313",
"c	c #20201D",
"d	c #050504",
"e	c #0B0A05",
"                                              ",
"                  ........                    ",
"             +............                    ",
"            @#..............                  ",
"             #...............                 ",
"                   ..........                 ",
"                       ......                 ",
"                      .......                 ",
"                      .......                 ",
"                     ........                 ",
"                    .........                 ",
"                    ..........                ",
"                   ...........                ",
"                  ............                ",
"                  ............                ",
"                 .............                ",
"                ..............                ",
"             .................                ",
"         .....................                ",
"      .......................                 ",
"  #...........................                ",
" ................$..%..........               ",
"..&..................*........%               ",
"..........%.....=............&-               ",
"+........;;............>.;..&.,               ",
" '..................>>.........               ",
"  #+.)..........>..=>........!                ",
"      ~>...........,%...;...{                 ",
"        #...................]^                ",
"        ).................../.                ",
"        ,...,...............](                ",
"        ).........._.........:                ",
"        )....................-                ",
"        &...............##...<                ",
"       ['..>+..@........&....<}               ",
"       ||.&#................1'<               ",
"       <&1'.............'....1'               ",
"       '&'#.............'...'2<               ",
"       &1''.............3...'[                ",
"       ###'&.'&.........'..._                 ",
"       4...#..1.........'...5                 ",
"        4..&............#...6                 ",
"        }['&...............&7                 ",
"         89#2.............!0                  ",
"           abcd'.........,                    ",
"               12'&##....e                    "};
