/* XPM */
static char * playerTwoMask03_xpm[] = {
"46 46 41 1",
" 	c None",
".	c #202020",
"+	c #171717",
"@	c #0F0F0F",
"#	c #141415",
"$	c #111111",
"%	c #080808",
"&	c #090909",
"*	c #050505",
"=	c #060606",
"-	c #21211E",
";	c #151514",
">	c #030303",
",	c #010101",
"'	c #000000",
")	c #020202",
"!	c #060605",
"~	c #040404",
"{	c #070707",
"]	c #020201",
"^	c #020101",
"/	c #030103",
"(	c #030301",
"_	c #050501",
":	c #010100",
"<	c #010000",
"[	c #020100",
"}	c #040402",
"|	c #100E0B",
"1	c #050403",
"2	c #12100D",
"3	c #060504",
"4	c #070706",
"5	c #010103",
"6	c #010102",
"7	c #000002",
"8	c #000001",
"9	c #07050B",
"0	c #050409",
"a	c #020204",
"b	c #030302",
"                                              ",
"                                              ",
"                                              ",
"                                              ",
"             .+@                              ",
"          #$%&*=**                            ",
"         -;>,,''''>                           ",
"       )>!'''''',))=                          ",
"      ,,,'''''',)))>%                         ",
"     ''''''''''''))~*%                        ",
"    ''''''')~>'''))'){                        ",
"   '''''''''''''''''''>       ,>)]            ",
"  '''''''''''''''''''''^     ]'''''           ",
" '''''''''''''''''''''''/ (,'''''''           ",
"_:'''''''''''''<'''''''''':''''''''           ",
" ''''''''''''''['''''''''''''''''',           ",
" }'''''''''''''''''''''''''''''''''           ",
"|1''',''''''''''''''''''''''''''''            ",
"23''',>'''''''''''''''''''^''''''             ",
" 4]''',,'''''''''''''''''''''''''             ",
"  )'''''''''''''''''''''''''''''              ",
"  >)'''''''''''''''''''''''''''               ",
"  =>,''''''''''''''''''''''''''               ",
"  *)))''''''''''''<'''<''''''''               ",
"   ,>>''''''''''''''''''''''''                ",
"    %%>''''''''''''''''''''''                 ",
"      (,'''''''''''''''''''''                 ",
"       5678'''''''''''''''''                  ",
"        '888''''''''''''''''                  ",
"         90a''''''''''''''''                  ",
"           ]''''''''''''''''                  ",
"           '''''''''''''''''                  ",
"           <<,'''''''''''''''                 ",
"            b^'''''''''''''''                 ",
"             ''''''''''''''''                 ",
"                '''''''''''''        ''^      ",
"                 ''''''''''''       ''''      ",
"                 ''''''''''''      ''''       ",
"                  ''''''''''''   '''''        ",
"                   '''''''''''  '''''         ",
"                    '''''''''''''''''         ",
"                     ''''''''''''''''         ",
"                        ''''''''''''          ",
"                         ''''''''''           ",
"                          ''''''''            ",
"                           ''' ''             "};
