/* XPM */
static char * playerTwoMask08_xpm[] = {
"46 46 51 1",
" 	c None",
".	c #070604",
"+	c #020201",
"@	c #010100",
"#	c #000000",
"$	c #010101",
"%	c #010000",
"&	c #020101",
"*	c #030202",
"=	c #040302",
"-	c #030201",
";	c #070804",
">	c #030301",
",	c #040303",
"'	c #050505",
")	c #020000",
"!	c #040404",
"~	c #040403",
"{	c #070708",
"]	c #020202",
"^	c #131313",
"/	c #070707",
"(	c #0A0A0A",
"_	c #080808",
":	c #010102",
"<	c #070705",
"[	c #030303",
"}	c #000001",
"|	c #030206",
"1	c #050308",
"2	c #000002",
"3	c #111111",
"4	c #030305",
"5	c #0E0E0E",
"6	c #050504",
"7	c #0F0F0F",
"8	c #060606",
"9	c #202020",
"0	c #0B0B0B",
"a	c #151515",
"b	c #0D0D0D",
"c	c #151514",
"d	c #070706",
"e	c #0B0B0A",
"f	c #050404",
"g	c #090807",
"h	c #030302",
"i	c #13120F",
"j	c #0F0E0B",
"k	c #171611",
"l	c #0B0A05",
"                                              ",
"                   .+@#                       ",
"                    $#######                  ",
"                    $#########                ",
"                      ###########             ",
"                         ########             ",
"                         ########             ",
"                           #######            ",
"                            ######            ",
"                           #######            ",
"                         #########            ",
"                        #########             ",
"                      ###########             ",
"   $$                ############             ",
" ############      #############              ",
"##$$#############################             ",
"+###############################              ",
" $##############################              ",
" $##############################              ",
" $+#%###&&%######@#############               ",
"    *###&=@######-#############               ",
"    ;>#########,%###%#########                ",
"     '#########$####)########                 ",
"      $######################                 ",
"     !@#######@##############                 ",
"     &##########$~@@#@#&######                ",
"    {&###&######$&#####-###]+                 ",
"    *#####################]#*                 ",
"  ^/$################=######$                 ",
"  (_$##########$#########:<                   ",
"  ![]]$+######@[########}|                    ",
" _][!]####.#############}1                    ",
" $'[]###################2#                    ",
"3]$][###################4                     ",
" !#$[$############$$$###!                     ",
" 5##$#]]###############[6                     ",
" 7[$$#$'#########$$####8                      ",
" 90]###$#########]$##]'8a                     ",
"  b[]###########$8####!!                      ",
"   acd##########]]##$!!!                      ",
"     e]#########[###]/(                       ",
"      !]########$##%6                         ",
"       ![$#########fg                         ",
"         $$######h]i                          ",
"            ###&&jk                           ",
"              #l                              "};
